%
M48
M72
T01C0.0236
T02C0.0315
T03C0.0320
T04C0.0354
T05C0.0394
T06C0.0400
T07C0.0670
T08C0.1300
%
T01
X3328Y13662
X11103Y27836
X19765Y26359
X26304Y4946
X18977Y2442
T02
X15532Y1851
X13958Y1851
T03
X7745Y1351
X7745Y2351
X4810Y1910
X3810Y1910
X2351Y9942
X1351Y9942
X1147Y12166
X2147Y12166
X3147Y12166
X2836Y16572
X2836Y17572
X2351Y19509
X1351Y19509
X1576Y23737
X1576Y24737
X1576Y25737
X4251Y27062
X4251Y28062
X7745Y28139
X7745Y27139
X21745Y27139
X21745Y28139
X24651Y27076
X25651Y27076
X26651Y27076
X27139Y19509
X28139Y19509
X28139Y17107
X27139Y17107
X27304Y12099
X26304Y12099
X28304Y12099
X28139Y9942
X27139Y9942
X21745Y2351
X21745Y1351
T04
X26871Y3985
X28013Y3985
X28013Y7985
X26871Y7985
X3060Y20162
X3060Y24162
T05
X1851Y15745
X2851Y14745
X1851Y13745
X1828Y3032
X4828Y3032
X26639Y14745
X27639Y13745
X27639Y15745
X15745Y27639
X14745Y26639
X13745Y27639
T06
X27639Y24686
X27639Y23308
X1851Y6143
X1851Y4765
T07
X6245Y2442
X9245Y2442
X20245Y2442
X23245Y2442
X23245Y27048
X20245Y27048
X9245Y27048
X6245Y27048
T08
X1375Y1375
X1375Y28115
X28115Y28115
X28115Y1375
M30
