G75*
%MOIN*%
%OFA0B0*%
%FSLAX24Y24*%
%IPPOS*%
%LPD*%
%AMOC8*
5,1,8,0,0,1.08239X$1,22.5*
%
%ADD10R,0.1891X0.0474*%
%ADD11R,0.1340X0.0710*%
%ADD12C,0.0880*%
%ADD13R,0.0880X0.0880*%
%ADD14R,0.0297X0.0552*%
%ADD15C,0.0860*%
%ADD16C,0.0740*%
%ADD17C,0.0820*%
%ADD18C,0.1380*%
D10*
X001134Y018890D03*
X001134Y019678D03*
D11*
X003181Y020622D03*
X003181Y017945D03*
D12*
X003524Y012427D03*
D13*
G36*
X002759Y013126D02*
X002423Y013938D01*
X003235Y014274D01*
X003571Y013462D01*
X002759Y013126D01*
G37*
D14*
G36*
X001627Y021782D02*
X001335Y021820D01*
X001407Y022366D01*
X001699Y022328D01*
X001627Y021782D01*
G37*
G36*
X000885Y021880D02*
X000593Y021918D01*
X000665Y022464D01*
X000957Y022426D01*
X000885Y021880D01*
G37*
G36*
X001019Y022895D02*
X000727Y022933D01*
X000799Y023479D01*
X001091Y023441D01*
X001019Y022895D01*
G37*
G36*
X001390Y022846D02*
X001098Y022884D01*
X001170Y023430D01*
X001462Y023392D01*
X001390Y022846D01*
G37*
G36*
X001761Y022797D02*
X001469Y022835D01*
X001541Y023381D01*
X001833Y023343D01*
X001761Y022797D01*
G37*
D15*
X001402Y017191D03*
X003859Y015471D03*
D16*
X003205Y021721D03*
X002209Y021808D03*
X003377Y022935D03*
X002392Y023109D03*
X016394Y037406D03*
X017379Y037579D03*
X036853Y025817D03*
X037195Y024877D03*
X014267Y003002D03*
X012812Y003605D03*
D17*
X010189Y005111D03*
X009323Y005611D03*
X008457Y006111D03*
X004048Y010530D03*
X004914Y011030D03*
X003206Y023983D03*
X001883Y024416D03*
X004574Y027742D03*
X004914Y028640D03*
X004048Y029140D03*
X003251Y028175D03*
X008861Y033592D03*
X009045Y034995D03*
X010447Y034810D03*
X011530Y035364D03*
X015156Y037054D03*
X019835Y037052D03*
X019835Y038052D03*
X022612Y037286D03*
X026476Y036250D03*
X028134Y035237D03*
X029000Y034737D03*
X029866Y034237D03*
X034756Y028640D03*
X035622Y029140D03*
X037532Y020835D03*
X037532Y019835D03*
X037532Y018835D03*
X037190Y016946D03*
X036496Y013007D03*
X034756Y011030D03*
X035622Y010530D03*
X030815Y005315D03*
X027351Y003315D03*
X025258Y002495D03*
X024292Y002237D03*
X023326Y001978D03*
X019835Y001619D03*
X019835Y002619D03*
D18*
X007237Y007237D03*
X007237Y032433D03*
X032433Y032433D03*
X032433Y007237D03*
M02*
