G75*
%MOIN*%
%OFA0B0*%
%FSLAX24Y24*%
%IPPOS*%
%LPD*%
%AMOC8*
5,1,8,0,0,1.08239X$1,22.5*
%
%ADD10C,0.0880*%
%ADD11R,0.0880X0.0880*%
%ADD12C,0.0860*%
%ADD13C,0.0740*%
%ADD14C,0.0820*%
%ADD15C,0.1380*%
%ADD16C,0.1085*%
%ADD17C,0.0516*%
D10*
X001851Y004765D03*
X027639Y024686D03*
D11*
X027639Y023308D03*
X001851Y006143D03*
D12*
X001828Y003032D03*
X004828Y003032D03*
D13*
X004810Y001910D03*
X003810Y001910D03*
X013958Y001851D03*
X015532Y001851D03*
X002836Y016572D03*
X002836Y017572D03*
X004251Y027062D03*
X004251Y028062D03*
X027139Y017107D03*
X028139Y017107D03*
D14*
X027639Y015745D03*
X026639Y014745D03*
X027639Y013745D03*
X027304Y012099D03*
X026304Y012099D03*
X028304Y012099D03*
X028139Y009942D03*
X027139Y009942D03*
X026871Y007985D03*
X028013Y007985D03*
X028013Y003985D03*
X026871Y003985D03*
X021745Y002351D03*
X021745Y001351D03*
X007745Y001351D03*
X007745Y002351D03*
X002351Y009942D03*
X001351Y009942D03*
X001147Y012166D03*
X002147Y012166D03*
X003147Y012166D03*
X001851Y013745D03*
X002851Y014745D03*
X001851Y015745D03*
X001351Y019509D03*
X002351Y019509D03*
X003060Y020162D03*
X001576Y023737D03*
X001576Y024737D03*
X001576Y025737D03*
X003060Y024162D03*
X007745Y027139D03*
X007745Y028139D03*
X013745Y027639D03*
X014745Y026639D03*
X015745Y027639D03*
X021745Y028139D03*
X021745Y027139D03*
X024651Y027076D03*
X025651Y027076D03*
X026651Y027076D03*
X027139Y019509D03*
X028139Y019509D03*
D15*
X001375Y001375D03*
X001375Y028115D03*
X028115Y028115D03*
X028115Y001375D03*
D16*
X023245Y002442D03*
X020245Y002442D03*
X009245Y002442D03*
X006245Y002442D03*
X006245Y027048D03*
X009245Y027048D03*
X020245Y027048D03*
X023245Y027048D03*
D17*
X019765Y026359D03*
X011103Y027836D03*
X003328Y013662D03*
X018977Y002442D03*
X026304Y004946D03*
M02*
