G75*
%MOIN*%
%OFA0B0*%
%FSLAX24Y24*%
%IPPOS*%
%LPD*%
%AMOC8*
5,1,8,0,0,1.08239X$1,22.5*
%
%ADD10C,0.0800*%
%ADD11R,0.0800X0.0800*%
%ADD12C,0.0780*%
%ADD13C,0.0660*%
%ADD14C,0.0740*%
%ADD15C,0.1005*%
%ADD16C,0.0100*%
%ADD17C,0.0160*%
%ADD18C,0.0436*%
D10*
X001803Y004615D03*
X027590Y024536D03*
D11*
X027590Y023158D03*
X001803Y005993D03*
D12*
X001779Y002882D03*
X004779Y002882D03*
D13*
X004761Y001760D03*
X003761Y001760D03*
X013909Y001701D03*
X015484Y001701D03*
X002787Y016422D03*
X002787Y017422D03*
X004202Y026912D03*
X004202Y027912D03*
X027090Y016957D03*
X028090Y016957D03*
D14*
X027590Y015595D03*
X026590Y014595D03*
X027590Y013595D03*
X027255Y011949D03*
X026255Y011949D03*
X028255Y011949D03*
X028090Y009792D03*
X027090Y009792D03*
X026822Y007835D03*
X027964Y007835D03*
X027964Y003835D03*
X026822Y003835D03*
X021696Y002201D03*
X021696Y001201D03*
X007696Y001201D03*
X007696Y002201D03*
X002303Y009792D03*
X001303Y009792D03*
X001098Y012016D03*
X002098Y012016D03*
X003098Y012016D03*
X001803Y013595D03*
X002803Y014595D03*
X001803Y015595D03*
X002303Y019359D03*
X003011Y020012D03*
X001303Y019359D03*
X001527Y023587D03*
X001527Y024587D03*
X001527Y025587D03*
X003011Y024012D03*
X007696Y026989D03*
X007696Y027989D03*
X013696Y027489D03*
X014696Y026489D03*
X015696Y027489D03*
X021696Y027989D03*
X021696Y026989D03*
X024602Y026926D03*
X025602Y026926D03*
X026602Y026926D03*
X027090Y019359D03*
X028090Y019359D03*
D15*
X023196Y026898D03*
X020196Y026898D03*
X009196Y026898D03*
X006196Y026898D03*
X006196Y002292D03*
X009196Y002292D03*
X020196Y002292D03*
X023196Y002292D03*
D16*
X019988Y001694D02*
X019990Y000942D01*
X019928Y000880D01*
X008082Y000880D01*
X008120Y000918D01*
X008196Y001102D01*
X008196Y001301D01*
X008120Y001485D01*
X007980Y001625D01*
X007796Y001701D01*
X007597Y001701D01*
X007413Y001625D01*
X007272Y001485D01*
X007196Y001301D01*
X007196Y001102D01*
X007272Y000918D01*
X007311Y000880D01*
X005654Y000880D01*
X005654Y001948D01*
X005660Y001934D01*
X005838Y001756D01*
X006071Y001659D01*
X006322Y001659D01*
X006555Y001756D01*
X006733Y001934D01*
X006829Y002166D01*
X006829Y002418D01*
X006767Y002566D01*
X006775Y002574D01*
X007362Y002574D01*
X007272Y002485D01*
X007196Y002301D01*
X007196Y002102D01*
X007272Y001918D01*
X007413Y001777D01*
X007597Y001701D01*
X007796Y001701D01*
X007980Y001777D01*
X008120Y001918D01*
X008196Y002102D01*
X008196Y002301D01*
X008120Y002485D01*
X008031Y002574D01*
X008617Y002574D01*
X008625Y002566D01*
X008564Y002418D01*
X008564Y002166D01*
X008660Y001934D01*
X008838Y001756D01*
X009071Y001659D01*
X009322Y001659D01*
X009555Y001756D01*
X009733Y001934D01*
X009829Y002166D01*
X009829Y002418D01*
X009733Y002650D01*
X009555Y002828D01*
X009322Y002924D01*
X009071Y002924D01*
X008922Y002863D01*
X008914Y002871D01*
X008791Y002994D01*
X006601Y002994D01*
X006470Y002863D01*
X006322Y002924D01*
X006071Y002924D01*
X005838Y002828D01*
X005660Y002650D01*
X005654Y002636D01*
X005654Y003462D01*
X005531Y003585D01*
X005483Y003633D01*
X019284Y003633D01*
X019211Y003560D01*
X018817Y003166D01*
X018817Y002623D01*
X018731Y002587D01*
X018634Y002489D01*
X018581Y002361D01*
X018581Y002223D01*
X018634Y002095D01*
X018731Y001997D01*
X018859Y001944D01*
X018998Y001944D01*
X019126Y001997D01*
X019211Y002082D01*
X019211Y001985D01*
X019137Y001911D01*
X015895Y001911D01*
X015874Y001962D01*
X015744Y002091D01*
X015575Y002161D01*
X015392Y002161D01*
X015223Y002091D01*
X015094Y001962D01*
X015024Y001793D01*
X015024Y001610D01*
X015094Y001441D01*
X015223Y001311D01*
X015392Y001241D01*
X015575Y001241D01*
X015744Y001311D01*
X015874Y001441D01*
X015895Y001491D01*
X019311Y001491D01*
X019508Y001688D01*
X019631Y001811D01*
X019631Y002005D01*
X019660Y001934D01*
X019838Y001756D01*
X019988Y001694D01*
X019967Y001703D02*
X019522Y001703D01*
X019621Y001801D02*
X019793Y001801D01*
X019694Y001900D02*
X019631Y001900D01*
X019631Y001998D02*
X019633Y001998D01*
X019211Y001998D02*
X019127Y001998D01*
X019424Y001604D02*
X019988Y001604D01*
X019989Y001506D02*
X019325Y001506D01*
X018730Y001998D02*
X015838Y001998D01*
X015732Y002097D02*
X018633Y002097D01*
X018592Y002195D02*
X009829Y002195D01*
X009829Y002294D02*
X018581Y002294D01*
X018593Y002392D02*
X009829Y002392D01*
X009799Y002491D02*
X018635Y002491D01*
X018736Y002589D02*
X009758Y002589D01*
X009695Y002688D02*
X018817Y002688D01*
X018817Y002786D02*
X009597Y002786D01*
X009419Y002885D02*
X018817Y002885D01*
X018817Y002983D02*
X008802Y002983D01*
X008901Y002885D02*
X008974Y002885D01*
X008594Y002491D02*
X008114Y002491D01*
X008159Y002392D02*
X008564Y002392D01*
X008564Y002294D02*
X008196Y002294D01*
X008196Y002195D02*
X008564Y002195D01*
X008593Y002097D02*
X008194Y002097D01*
X008153Y001998D02*
X008633Y001998D01*
X008694Y001900D02*
X008102Y001900D01*
X008003Y001801D02*
X008793Y001801D01*
X008967Y001703D02*
X007799Y001703D01*
X007594Y001703D02*
X006426Y001703D01*
X006600Y001801D02*
X007390Y001801D01*
X007291Y001900D02*
X006698Y001900D01*
X006759Y001998D02*
X007239Y001998D01*
X007199Y002097D02*
X006800Y002097D01*
X006829Y002195D02*
X007196Y002195D01*
X007196Y002294D02*
X006829Y002294D01*
X006829Y002392D02*
X007234Y002392D01*
X007278Y002491D02*
X006799Y002491D01*
X006492Y002885D02*
X006419Y002885D01*
X006590Y002983D02*
X005654Y002983D01*
X005654Y002885D02*
X005974Y002885D01*
X005796Y002786D02*
X005654Y002786D01*
X005654Y002688D02*
X005697Y002688D01*
X005654Y003082D02*
X018817Y003082D01*
X018831Y003180D02*
X005654Y003180D01*
X005654Y003279D02*
X018929Y003279D01*
X019028Y003377D02*
X005654Y003377D01*
X005640Y003476D02*
X019126Y003476D01*
X019225Y003574D02*
X005542Y003574D01*
X005531Y003585D02*
X005531Y003585D01*
X004424Y003263D02*
X004338Y003177D01*
X004259Y002986D01*
X004259Y002779D01*
X004338Y002588D01*
X004484Y002442D01*
X004676Y002362D01*
X004882Y002362D01*
X005074Y002442D01*
X005220Y002588D01*
X005234Y002623D01*
X005234Y000681D01*
X005284Y000632D01*
X003169Y000632D01*
X003095Y000706D01*
X003095Y002084D01*
X002972Y002207D01*
X002800Y002379D01*
X002800Y005233D01*
X002677Y005356D01*
X002480Y005553D01*
X002347Y005553D01*
X002353Y005573D01*
X002353Y005943D01*
X001853Y005943D01*
X001853Y006043D01*
X002353Y006043D01*
X002353Y006412D01*
X002342Y006451D01*
X002323Y006485D01*
X002295Y006513D01*
X002261Y006532D01*
X002222Y006543D01*
X001853Y006543D01*
X001853Y006043D01*
X001753Y006043D01*
X001753Y006543D01*
X001383Y006543D01*
X001345Y006532D01*
X001311Y006513D01*
X001283Y006485D01*
X001263Y006451D01*
X001253Y006412D01*
X001253Y006043D01*
X001753Y006043D01*
X001753Y005943D01*
X001253Y005943D01*
X001253Y005573D01*
X001258Y005553D01*
X000807Y005553D01*
X000733Y005627D01*
X000733Y011674D01*
X000815Y011592D01*
X000998Y011516D01*
X001197Y011516D01*
X001381Y011592D01*
X001522Y011733D01*
X001598Y011917D01*
X001674Y011733D01*
X001815Y011592D01*
X001998Y011516D01*
X002197Y011516D01*
X002381Y011592D01*
X002522Y011733D01*
X002598Y011917D01*
X002674Y011733D01*
X002815Y011592D01*
X002998Y011516D01*
X003197Y011516D01*
X003381Y011592D01*
X003463Y011674D01*
X003463Y003583D01*
X003586Y003460D01*
X003783Y003263D01*
X004424Y003263D01*
X004341Y003180D02*
X002800Y003180D01*
X002800Y003082D02*
X004299Y003082D01*
X004259Y002983D02*
X002800Y002983D01*
X002800Y002885D02*
X004259Y002885D01*
X004259Y002786D02*
X002800Y002786D01*
X002800Y002688D02*
X004297Y002688D01*
X004338Y002589D02*
X002800Y002589D01*
X002800Y002491D02*
X004436Y002491D01*
X004604Y002392D02*
X002800Y002392D01*
X002885Y002294D02*
X005234Y002294D01*
X005234Y002392D02*
X004954Y002392D01*
X005122Y002491D02*
X005234Y002491D01*
X005220Y002589D02*
X005234Y002589D01*
X005234Y002195D02*
X004914Y002195D01*
X004853Y002220D02*
X004670Y002220D01*
X004501Y002150D01*
X004371Y002021D01*
X004301Y001852D01*
X004301Y001669D01*
X004371Y001500D01*
X004501Y001370D01*
X004670Y001300D01*
X004853Y001300D01*
X005022Y001370D01*
X005151Y001500D01*
X005221Y001669D01*
X005221Y001852D01*
X005151Y002021D01*
X005022Y002150D01*
X004853Y002220D01*
X004608Y002195D02*
X003966Y002195D01*
X003946Y002205D02*
X003874Y002229D01*
X003799Y002240D01*
X003791Y002240D01*
X003791Y001790D01*
X004241Y001790D01*
X004241Y001798D01*
X004229Y001873D01*
X004206Y001945D01*
X004172Y002012D01*
X004127Y002073D01*
X004074Y002127D01*
X004013Y002171D01*
X003946Y002205D01*
X003791Y002195D02*
X003731Y002195D01*
X003731Y002240D02*
X003724Y002240D01*
X003649Y002229D01*
X003577Y002205D01*
X003510Y002171D01*
X003449Y002127D01*
X003395Y002073D01*
X003351Y002012D01*
X003316Y001945D01*
X003293Y001873D01*
X003281Y001798D01*
X003281Y001790D01*
X003731Y001790D01*
X003731Y001730D01*
X003791Y001730D01*
X003791Y001280D01*
X003799Y001280D01*
X003874Y001292D01*
X003946Y001316D01*
X004013Y001350D01*
X004074Y001394D01*
X004127Y001448D01*
X004172Y001509D01*
X004206Y001576D01*
X004229Y001648D01*
X004241Y001723D01*
X004241Y001730D01*
X003791Y001730D01*
X003791Y001790D01*
X003731Y001790D01*
X003731Y002240D01*
X003731Y002097D02*
X003791Y002097D01*
X003791Y001998D02*
X003731Y001998D01*
X003731Y001900D02*
X003791Y001900D01*
X003791Y001801D02*
X003731Y001801D01*
X003731Y001730D02*
X003281Y001730D01*
X003281Y001723D01*
X003293Y001648D01*
X003316Y001576D01*
X003351Y001509D01*
X003395Y001448D01*
X003449Y001394D01*
X003510Y001350D01*
X003577Y001316D01*
X003649Y001292D01*
X003724Y001280D01*
X003731Y001280D01*
X003731Y001730D01*
X003731Y001703D02*
X003791Y001703D01*
X003791Y001604D02*
X003731Y001604D01*
X003731Y001506D02*
X003791Y001506D01*
X003791Y001407D02*
X003731Y001407D01*
X003731Y001309D02*
X003791Y001309D01*
X003924Y001309D02*
X004650Y001309D01*
X004464Y001407D02*
X004087Y001407D01*
X004169Y001506D02*
X004369Y001506D01*
X004328Y001604D02*
X004215Y001604D01*
X004238Y001703D02*
X004301Y001703D01*
X004301Y001801D02*
X004241Y001801D01*
X004221Y001900D02*
X004321Y001900D01*
X004362Y001998D02*
X004179Y001998D01*
X004104Y002097D02*
X004447Y002097D01*
X005076Y002097D02*
X005234Y002097D01*
X005234Y001998D02*
X005161Y001998D01*
X005202Y001900D02*
X005234Y001900D01*
X005221Y001801D02*
X005234Y001801D01*
X005221Y001703D02*
X005234Y001703D01*
X005234Y001604D02*
X005194Y001604D01*
X005154Y001506D02*
X005234Y001506D01*
X005234Y001407D02*
X005058Y001407D01*
X005234Y001309D02*
X004872Y001309D01*
X005234Y001210D02*
X003095Y001210D01*
X003095Y001112D02*
X005234Y001112D01*
X005234Y001013D02*
X003095Y001013D01*
X003095Y000915D02*
X005234Y000915D01*
X005234Y000816D02*
X003095Y000816D01*
X003095Y000718D02*
X005234Y000718D01*
X005654Y000915D02*
X007276Y000915D01*
X007233Y001013D02*
X005654Y001013D01*
X005654Y001112D02*
X007196Y001112D01*
X007196Y001210D02*
X005654Y001210D01*
X005654Y001309D02*
X007200Y001309D01*
X007240Y001407D02*
X005654Y001407D01*
X005654Y001506D02*
X007293Y001506D01*
X007392Y001604D02*
X005654Y001604D01*
X005654Y001703D02*
X005967Y001703D01*
X005793Y001801D02*
X005654Y001801D01*
X005654Y001900D02*
X005694Y001900D01*
X003557Y002195D02*
X002984Y002195D01*
X003082Y002097D02*
X003419Y002097D01*
X003344Y001998D02*
X003095Y001998D01*
X003095Y001900D02*
X003302Y001900D01*
X003282Y001801D02*
X003095Y001801D01*
X003095Y001703D02*
X003285Y001703D01*
X003307Y001604D02*
X003095Y001604D01*
X003095Y001506D02*
X003353Y001506D01*
X003436Y001407D02*
X003095Y001407D01*
X003095Y001309D02*
X003599Y001309D01*
X003767Y003279D02*
X002800Y003279D01*
X002800Y003377D02*
X003669Y003377D01*
X003570Y003476D02*
X002800Y003476D01*
X002800Y003574D02*
X003472Y003574D01*
X003463Y003673D02*
X002800Y003673D01*
X002800Y003771D02*
X003463Y003771D01*
X003463Y003870D02*
X002800Y003870D01*
X002800Y003968D02*
X003463Y003968D01*
X003463Y004067D02*
X002800Y004067D01*
X002800Y004165D02*
X003463Y004165D01*
X003463Y004264D02*
X002800Y004264D01*
X002800Y004362D02*
X003463Y004362D01*
X003463Y004461D02*
X002800Y004461D01*
X002800Y004559D02*
X003463Y004559D01*
X003463Y004658D02*
X002800Y004658D01*
X002800Y004756D02*
X003463Y004756D01*
X003463Y004855D02*
X002800Y004855D01*
X002800Y004953D02*
X003463Y004953D01*
X003463Y005052D02*
X002800Y005052D01*
X002800Y005150D02*
X003463Y005150D01*
X003463Y005249D02*
X002785Y005249D01*
X002686Y005347D02*
X003463Y005347D01*
X003463Y005446D02*
X002588Y005446D01*
X002489Y005544D02*
X003463Y005544D01*
X003463Y005643D02*
X002353Y005643D01*
X002353Y005741D02*
X003463Y005741D01*
X003463Y005840D02*
X002353Y005840D01*
X002353Y005938D02*
X003463Y005938D01*
X003463Y006037D02*
X001853Y006037D01*
X001853Y006135D02*
X001753Y006135D01*
X001753Y006037D02*
X000733Y006037D01*
X000733Y006135D02*
X001253Y006135D01*
X001253Y006234D02*
X000733Y006234D01*
X000733Y006332D02*
X001253Y006332D01*
X001257Y006431D02*
X000733Y006431D01*
X000733Y006529D02*
X001339Y006529D01*
X001753Y006529D02*
X001853Y006529D01*
X001853Y006431D02*
X001753Y006431D01*
X001753Y006332D02*
X001853Y006332D01*
X001853Y006234D02*
X001753Y006234D01*
X001253Y005938D02*
X000733Y005938D01*
X000733Y005840D02*
X001253Y005840D01*
X001253Y005741D02*
X000733Y005741D01*
X000733Y005643D02*
X001253Y005643D01*
X000733Y006628D02*
X003463Y006628D01*
X003463Y006726D02*
X000733Y006726D01*
X000733Y006825D02*
X003463Y006825D01*
X003463Y006923D02*
X000733Y006923D01*
X000733Y007022D02*
X003463Y007022D01*
X003463Y007120D02*
X000733Y007120D01*
X000733Y007219D02*
X003463Y007219D01*
X003463Y007317D02*
X000733Y007317D01*
X000733Y007416D02*
X003463Y007416D01*
X003463Y007514D02*
X000733Y007514D01*
X000733Y007613D02*
X003463Y007613D01*
X003463Y007711D02*
X000733Y007711D01*
X000733Y007810D02*
X003463Y007810D01*
X003463Y007908D02*
X000733Y007908D01*
X000733Y008007D02*
X003463Y008007D01*
X003463Y008105D02*
X000733Y008105D01*
X000733Y008204D02*
X003463Y008204D01*
X003463Y008302D02*
X000733Y008302D01*
X000733Y008401D02*
X003463Y008401D01*
X003463Y008499D02*
X000733Y008499D01*
X000733Y008598D02*
X003463Y008598D01*
X003463Y008696D02*
X000733Y008696D01*
X000733Y008795D02*
X003463Y008795D01*
X003463Y008893D02*
X000733Y008893D01*
X000733Y008992D02*
X003463Y008992D01*
X003463Y009090D02*
X000733Y009090D01*
X000733Y009189D02*
X003463Y009189D01*
X003463Y009287D02*
X000733Y009287D01*
X000733Y009386D02*
X001002Y009386D01*
X001019Y009368D02*
X001203Y009292D01*
X001402Y009292D01*
X001586Y009368D01*
X001727Y009509D01*
X001803Y009692D01*
X001879Y009509D01*
X002019Y009368D01*
X002203Y009292D01*
X002402Y009292D01*
X002586Y009368D01*
X002727Y009509D01*
X002803Y009692D01*
X002803Y009891D01*
X002727Y010075D01*
X003463Y010075D01*
X003463Y009977D02*
X002767Y009977D01*
X002803Y009878D02*
X003463Y009878D01*
X003463Y009780D02*
X002803Y009780D01*
X002798Y009681D02*
X003463Y009681D01*
X003463Y009583D02*
X002757Y009583D01*
X002702Y009484D02*
X003463Y009484D01*
X003463Y009386D02*
X002603Y009386D01*
X002002Y009386D02*
X001603Y009386D01*
X001702Y009484D02*
X001903Y009484D01*
X001848Y009583D02*
X001757Y009583D01*
X001798Y009681D02*
X001807Y009681D01*
X001803Y009692D02*
X001803Y009891D01*
X001879Y010075D01*
X002019Y010216D01*
X002203Y010292D01*
X002402Y010292D01*
X002586Y010216D01*
X002727Y010075D01*
X002628Y010174D02*
X003463Y010174D01*
X003463Y010272D02*
X002450Y010272D01*
X002155Y010272D02*
X001450Y010272D01*
X001402Y010292D02*
X001203Y010292D01*
X001019Y010216D01*
X000879Y010075D01*
X000803Y009891D01*
X000803Y009692D01*
X000879Y009509D01*
X001019Y009368D01*
X000903Y009484D02*
X000733Y009484D01*
X000733Y009583D02*
X000848Y009583D01*
X000807Y009681D02*
X000733Y009681D01*
X000733Y009780D02*
X000803Y009780D01*
X000803Y009878D02*
X000733Y009878D01*
X000733Y009977D02*
X000838Y009977D01*
X000879Y010075D02*
X000733Y010075D01*
X000733Y010174D02*
X000977Y010174D01*
X001155Y010272D02*
X000733Y010272D01*
X000733Y010371D02*
X003463Y010371D01*
X003463Y010469D02*
X000733Y010469D01*
X000733Y010568D02*
X003463Y010568D01*
X003463Y010666D02*
X000733Y010666D01*
X000733Y010765D02*
X003463Y010765D01*
X003463Y010863D02*
X000733Y010863D01*
X000733Y010962D02*
X003463Y010962D01*
X003463Y011060D02*
X000733Y011060D01*
X000733Y011159D02*
X003463Y011159D01*
X003463Y011257D02*
X000733Y011257D01*
X000733Y011356D02*
X003463Y011356D01*
X003463Y011454D02*
X000733Y011454D01*
X000733Y011553D02*
X000911Y011553D01*
X000756Y011651D02*
X000733Y011651D01*
X001285Y011553D02*
X001911Y011553D01*
X001756Y011651D02*
X001440Y011651D01*
X001529Y011750D02*
X001667Y011750D01*
X001626Y011848D02*
X001569Y011848D01*
X001598Y011917D02*
X001598Y012116D01*
X001674Y012300D01*
X001815Y012440D01*
X001998Y012516D01*
X002197Y012516D01*
X002381Y012440D01*
X002522Y012300D01*
X002598Y012116D01*
X002598Y011917D01*
X002598Y012116D01*
X002674Y012300D01*
X002815Y012440D01*
X002998Y012516D01*
X003197Y012516D01*
X003381Y012440D01*
X003463Y012359D01*
X003463Y012441D01*
X003192Y012712D01*
X000731Y012712D01*
X000461Y012982D01*
X000461Y012173D01*
X000515Y012226D01*
X000644Y012226D01*
X000674Y012300D01*
X000815Y012440D01*
X000998Y012516D01*
X001197Y012516D01*
X001381Y012440D01*
X001522Y012300D01*
X001598Y012116D01*
X001598Y011917D01*
X001598Y011947D02*
X001598Y011947D01*
X001598Y012045D02*
X001598Y012045D01*
X001586Y012144D02*
X001609Y012144D01*
X001650Y012242D02*
X001546Y012242D01*
X001481Y012341D02*
X001715Y012341D01*
X001814Y012439D02*
X001382Y012439D01*
X000814Y012439D02*
X000461Y012439D01*
X000461Y012341D02*
X000715Y012341D01*
X000650Y012242D02*
X000461Y012242D01*
X000461Y012538D02*
X003366Y012538D01*
X003382Y012439D02*
X003463Y012439D01*
X003268Y012636D02*
X000461Y012636D01*
X000461Y012735D02*
X000709Y012735D01*
X000610Y012833D02*
X000461Y012833D01*
X000461Y012932D02*
X000512Y012932D01*
X002285Y011553D02*
X002911Y011553D01*
X002756Y011651D02*
X002440Y011651D01*
X002529Y011750D02*
X002667Y011750D01*
X002626Y011848D02*
X002569Y011848D01*
X002598Y011947D02*
X002598Y011947D01*
X002598Y012045D02*
X002598Y012045D01*
X002586Y012144D02*
X002609Y012144D01*
X002650Y012242D02*
X002546Y012242D01*
X002481Y012341D02*
X002715Y012341D01*
X002814Y012439D02*
X002382Y012439D01*
X003285Y011553D02*
X003463Y011553D01*
X003463Y011651D02*
X003440Y011651D01*
X001977Y010174D02*
X001628Y010174D01*
X001586Y010216D02*
X001402Y010292D01*
X001586Y010216D02*
X001727Y010075D01*
X001879Y010075D01*
X001838Y009977D02*
X001767Y009977D01*
X001803Y009891D02*
X001727Y010075D01*
X001803Y009891D02*
X001803Y009692D01*
X001803Y009780D02*
X001803Y009780D01*
X001803Y009878D02*
X001803Y009878D01*
X002267Y006529D02*
X003463Y006529D01*
X003463Y006431D02*
X002348Y006431D01*
X002353Y006332D02*
X003463Y006332D01*
X003463Y006234D02*
X002353Y006234D01*
X002353Y006135D02*
X003463Y006135D01*
X008001Y001604D02*
X013438Y001604D01*
X013441Y001589D02*
X013464Y001517D01*
X013498Y001450D01*
X013543Y001389D01*
X013596Y001335D01*
X013657Y001291D01*
X013725Y001257D01*
X013797Y001233D01*
X013871Y001221D01*
X013880Y001221D01*
X013880Y001673D01*
X013429Y001673D01*
X013429Y001664D01*
X013441Y001589D01*
X013470Y001506D02*
X008099Y001506D01*
X008152Y001407D02*
X013530Y001407D01*
X013633Y001309D02*
X008193Y001309D01*
X008196Y001210D02*
X019989Y001210D01*
X019990Y001112D02*
X008196Y001112D01*
X008160Y001013D02*
X019990Y001013D01*
X019963Y000915D02*
X008117Y000915D01*
X009426Y001703D02*
X013880Y001703D01*
X013880Y001730D02*
X013880Y001673D01*
X013938Y001673D01*
X013938Y001730D01*
X014389Y001730D01*
X014389Y001739D01*
X014377Y001814D01*
X014354Y001886D01*
X014319Y001953D01*
X014275Y002014D01*
X014222Y002068D01*
X014161Y002112D01*
X014093Y002146D01*
X014021Y002170D01*
X013947Y002181D01*
X013938Y002181D01*
X013938Y001730D01*
X013880Y001730D01*
X013429Y001730D01*
X013429Y001739D01*
X013441Y001814D01*
X013464Y001886D01*
X013498Y001953D01*
X013543Y002014D01*
X013596Y002068D01*
X013657Y002112D01*
X013725Y002146D01*
X013797Y002170D01*
X013871Y002181D01*
X013880Y002181D01*
X013880Y001730D01*
X013938Y001703D02*
X015024Y001703D01*
X015027Y001801D02*
X014379Y001801D01*
X014347Y001900D02*
X015068Y001900D01*
X015130Y001998D02*
X014287Y001998D01*
X014182Y002097D02*
X015236Y002097D01*
X015026Y001604D02*
X014380Y001604D01*
X014377Y001589D02*
X014389Y001664D01*
X014389Y001673D01*
X013938Y001673D01*
X013938Y001221D01*
X013947Y001221D01*
X014021Y001233D01*
X014093Y001257D01*
X014161Y001291D01*
X014222Y001335D01*
X014275Y001389D01*
X014319Y001450D01*
X014354Y001517D01*
X014377Y001589D01*
X014348Y001506D02*
X015067Y001506D01*
X015128Y001407D02*
X014288Y001407D01*
X014185Y001309D02*
X015230Y001309D01*
X015737Y001309D02*
X019989Y001309D01*
X019989Y001407D02*
X015840Y001407D01*
X013938Y001407D02*
X013880Y001407D01*
X013880Y001309D02*
X013938Y001309D01*
X013938Y001506D02*
X013880Y001506D01*
X013880Y001604D02*
X013938Y001604D01*
X013938Y001801D02*
X013880Y001801D01*
X013880Y001900D02*
X013938Y001900D01*
X013938Y001998D02*
X013880Y001998D01*
X013880Y002097D02*
X013938Y002097D01*
X013636Y002097D02*
X009800Y002097D01*
X009759Y001998D02*
X013531Y001998D01*
X013471Y001900D02*
X009698Y001900D01*
X009600Y001801D02*
X013439Y001801D01*
X025930Y020712D02*
X025930Y022948D01*
X027060Y022948D01*
X027060Y022704D01*
X027136Y022628D01*
X028044Y022628D01*
X028120Y022704D01*
X028120Y023612D01*
X028044Y023688D01*
X027136Y023688D01*
X027060Y023612D01*
X027060Y023368D01*
X026004Y023368D01*
X025930Y023442D01*
X025930Y025607D01*
X025807Y025730D01*
X025733Y025804D01*
X025610Y025927D01*
X019926Y025927D01*
X019998Y025999D01*
X025731Y025999D01*
X025904Y025827D01*
X026027Y025704D01*
X028167Y025704D01*
X028167Y021080D01*
X027995Y020907D01*
X026125Y020907D01*
X026002Y020784D01*
X025930Y020712D01*
X025930Y020713D02*
X025931Y020713D01*
X025930Y020812D02*
X026029Y020812D01*
X025930Y020910D02*
X027998Y020910D01*
X028096Y021009D02*
X025930Y021009D01*
X025930Y021107D02*
X028167Y021107D01*
X028167Y021206D02*
X025930Y021206D01*
X025930Y021304D02*
X028167Y021304D01*
X028167Y021403D02*
X025930Y021403D01*
X025930Y021501D02*
X028167Y021501D01*
X028167Y021600D02*
X025930Y021600D01*
X025930Y021698D02*
X028167Y021698D01*
X028167Y021797D02*
X025930Y021797D01*
X025930Y021895D02*
X028167Y021895D01*
X028167Y021994D02*
X025930Y021994D01*
X025930Y022092D02*
X028167Y022092D01*
X028167Y022191D02*
X025930Y022191D01*
X025930Y022289D02*
X028167Y022289D01*
X028167Y022388D02*
X025930Y022388D01*
X025930Y022486D02*
X028167Y022486D01*
X028167Y022585D02*
X025930Y022585D01*
X025930Y022683D02*
X027081Y022683D01*
X027060Y022782D02*
X025930Y022782D01*
X025930Y022880D02*
X027060Y022880D01*
X027060Y023373D02*
X025999Y023373D01*
X025930Y023471D02*
X027060Y023471D01*
X027060Y023570D02*
X025930Y023570D01*
X025930Y023668D02*
X027116Y023668D01*
X027309Y024062D02*
X025930Y024062D01*
X025930Y023964D02*
X028167Y023964D01*
X028167Y024062D02*
X027871Y024062D01*
X027878Y024066D02*
X027948Y024117D01*
X028010Y024178D01*
X028060Y024248D01*
X028100Y024325D01*
X028127Y024407D01*
X028139Y024486D01*
X027640Y024486D01*
X027640Y023987D01*
X027719Y024000D01*
X027801Y024026D01*
X027878Y024066D01*
X027992Y024161D02*
X028167Y024161D01*
X028167Y024259D02*
X028066Y024259D01*
X028110Y024358D02*
X028167Y024358D01*
X028167Y024456D02*
X028134Y024456D01*
X028167Y024555D02*
X027640Y024555D01*
X027640Y024586D02*
X028139Y024586D01*
X028127Y024665D01*
X028100Y024747D01*
X028060Y024824D01*
X028010Y024894D01*
X027948Y024956D01*
X027878Y025006D01*
X027801Y025046D01*
X027719Y025072D01*
X027640Y025085D01*
X027640Y024586D01*
X027540Y024586D01*
X027540Y024486D01*
X027041Y024486D01*
X027054Y024407D01*
X027080Y024325D01*
X027120Y024248D01*
X027171Y024178D01*
X027232Y024117D01*
X027302Y024066D01*
X027379Y024026D01*
X027461Y024000D01*
X027540Y023987D01*
X027540Y024486D01*
X027640Y024486D01*
X027640Y024586D01*
X027640Y024653D02*
X027540Y024653D01*
X027540Y024586D02*
X027540Y025085D01*
X027461Y025072D01*
X027379Y025046D01*
X027302Y025006D01*
X027232Y024956D01*
X027171Y024894D01*
X027120Y024824D01*
X027080Y024747D01*
X027054Y024665D01*
X027041Y024586D01*
X027540Y024586D01*
X027540Y024555D02*
X025930Y024555D01*
X025930Y024653D02*
X027052Y024653D01*
X027083Y024752D02*
X025930Y024752D01*
X025930Y024850D02*
X027138Y024850D01*
X027225Y024949D02*
X025930Y024949D01*
X025930Y025047D02*
X027383Y025047D01*
X027540Y025047D02*
X027640Y025047D01*
X027640Y024949D02*
X027540Y024949D01*
X027540Y024850D02*
X027640Y024850D01*
X027640Y024752D02*
X027540Y024752D01*
X027540Y024456D02*
X027640Y024456D01*
X027640Y024358D02*
X027540Y024358D01*
X027540Y024259D02*
X027640Y024259D01*
X027640Y024161D02*
X027540Y024161D01*
X027540Y024062D02*
X027640Y024062D01*
X028064Y023668D02*
X028167Y023668D01*
X028167Y023570D02*
X028120Y023570D01*
X028120Y023471D02*
X028167Y023471D01*
X028167Y023373D02*
X028120Y023373D01*
X028120Y023274D02*
X028167Y023274D01*
X028167Y023176D02*
X028120Y023176D01*
X028120Y023077D02*
X028167Y023077D01*
X028167Y022979D02*
X028120Y022979D01*
X028120Y022880D02*
X028167Y022880D01*
X028167Y022782D02*
X028120Y022782D01*
X028099Y022683D02*
X028167Y022683D01*
X028167Y023767D02*
X025930Y023767D01*
X025930Y023865D02*
X028167Y023865D01*
X028128Y024653D02*
X028167Y024653D01*
X028167Y024752D02*
X028098Y024752D01*
X028042Y024850D02*
X028167Y024850D01*
X028167Y024949D02*
X027955Y024949D01*
X027797Y025047D02*
X028167Y025047D01*
X028167Y025146D02*
X025930Y025146D01*
X025930Y025244D02*
X028167Y025244D01*
X028167Y025343D02*
X025930Y025343D01*
X025930Y025441D02*
X028167Y025441D01*
X028167Y025540D02*
X025930Y025540D01*
X025899Y025638D02*
X028167Y025638D01*
X028931Y026248D02*
X028760Y026419D01*
X026726Y026419D01*
X026801Y026444D01*
X026874Y026481D01*
X026941Y026529D01*
X026998Y026587D01*
X027047Y026653D01*
X027084Y026726D01*
X027109Y026804D01*
X027122Y026885D01*
X027122Y026896D01*
X026632Y026896D01*
X026632Y026956D01*
X026572Y026956D01*
X026572Y027446D01*
X026561Y027446D01*
X026480Y027433D01*
X026402Y027408D01*
X026329Y027371D01*
X026263Y027322D01*
X026205Y027265D01*
X026157Y027198D01*
X026120Y027125D01*
X026095Y027048D01*
X026094Y027044D01*
X026026Y027209D01*
X025885Y027350D01*
X025701Y027426D01*
X025502Y027426D01*
X025319Y027350D01*
X025178Y027209D01*
X025102Y027025D01*
X025102Y026826D01*
X025178Y026643D01*
X025319Y026502D01*
X025502Y026426D01*
X024702Y026426D01*
X024701Y026426D02*
X024885Y026502D01*
X025026Y026643D01*
X025102Y026826D01*
X025102Y027025D01*
X025026Y027209D01*
X024885Y027350D01*
X024701Y027426D01*
X024502Y027426D01*
X024319Y027350D01*
X024178Y027209D01*
X024102Y027025D01*
X024102Y026826D01*
X024178Y026643D01*
X024319Y026502D01*
X024502Y026426D01*
X023647Y026426D01*
X023640Y026419D02*
X023688Y026467D01*
X023740Y026535D01*
X023783Y026609D01*
X023816Y026688D01*
X023838Y026771D01*
X023848Y026848D01*
X023246Y026848D01*
X023246Y026948D01*
X023146Y026948D01*
X023146Y026848D01*
X022545Y026848D01*
X022555Y026771D01*
X022577Y026688D01*
X022610Y026609D01*
X022653Y026535D01*
X022705Y026467D01*
X022753Y026419D01*
X020640Y026419D01*
X020688Y026467D01*
X020740Y026535D01*
X020783Y026609D01*
X020816Y026688D01*
X020838Y026771D01*
X020848Y026848D01*
X020246Y026848D01*
X020246Y026948D01*
X020146Y026948D01*
X020146Y026848D01*
X019545Y026848D01*
X019555Y026771D01*
X019577Y026688D01*
X019610Y026609D01*
X019641Y026555D01*
X019519Y026504D01*
X019421Y026406D01*
X019368Y026278D01*
X019368Y026140D01*
X019421Y026012D01*
X019506Y025927D01*
X015964Y025927D01*
X015891Y026001D01*
X015891Y026532D01*
X015768Y026655D01*
X014906Y027517D01*
X014906Y028714D01*
X014790Y028830D01*
X028931Y028830D01*
X028931Y026248D01*
X028931Y026328D02*
X028851Y026328D01*
X028931Y026426D02*
X026747Y026426D01*
X026934Y026525D02*
X028931Y026525D01*
X028931Y026623D02*
X027025Y026623D01*
X027081Y026722D02*
X028931Y026722D01*
X028931Y026820D02*
X027112Y026820D01*
X027122Y026956D02*
X027122Y026967D01*
X027109Y027048D01*
X027084Y027125D01*
X027047Y027198D01*
X026998Y027265D01*
X026941Y027322D01*
X026874Y027371D01*
X026801Y027408D01*
X026724Y027433D01*
X026643Y027446D01*
X026632Y027446D01*
X026632Y026956D01*
X027122Y026956D01*
X027114Y027017D02*
X028931Y027017D01*
X028931Y026919D02*
X026632Y026919D01*
X026632Y027017D02*
X026572Y027017D01*
X026572Y027116D02*
X026632Y027116D01*
X026632Y027214D02*
X026572Y027214D01*
X026572Y027313D02*
X026632Y027313D01*
X026632Y027411D02*
X026572Y027411D01*
X026413Y027411D02*
X025737Y027411D01*
X025922Y027313D02*
X026253Y027313D01*
X026169Y027214D02*
X026021Y027214D01*
X026064Y027116D02*
X026117Y027116D01*
X026791Y027411D02*
X027461Y027411D01*
X027371Y027501D02*
X027602Y027270D01*
X027903Y027145D01*
X028029Y027145D01*
X028230Y027145D01*
X028531Y027270D01*
X028762Y027501D01*
X028886Y027802D01*
X028886Y028128D01*
X028762Y028430D01*
X028531Y028660D01*
X028531Y028660D01*
X028230Y028785D01*
X027903Y028785D01*
X027602Y028660D01*
X027371Y028430D01*
X027371Y028430D01*
X027246Y028128D01*
X027246Y027802D01*
X027371Y027501D01*
X027371Y027501D01*
X027368Y027510D02*
X023426Y027510D01*
X023407Y027517D02*
X023324Y027540D01*
X023246Y027550D01*
X023246Y026948D01*
X023848Y026948D01*
X023838Y027026D01*
X023816Y027108D01*
X023783Y027187D01*
X023740Y027262D01*
X023688Y027329D01*
X023627Y027390D01*
X023560Y027442D01*
X023486Y027485D01*
X023407Y027517D01*
X023246Y027510D02*
X023146Y027510D01*
X023146Y027550D02*
X023069Y027540D01*
X022986Y027517D01*
X022907Y027485D01*
X022833Y027442D01*
X022765Y027390D01*
X022705Y027329D01*
X022653Y027262D01*
X022610Y027187D01*
X022577Y027108D01*
X022555Y027026D01*
X022545Y026948D01*
X023146Y026948D01*
X023146Y027550D01*
X023146Y027411D02*
X023246Y027411D01*
X023246Y027313D02*
X023146Y027313D01*
X023146Y027214D02*
X023246Y027214D01*
X023246Y027116D02*
X023146Y027116D01*
X023146Y027017D02*
X023246Y027017D01*
X023246Y026919D02*
X024102Y026919D01*
X024102Y027017D02*
X023839Y027017D01*
X023813Y027116D02*
X024139Y027116D01*
X024183Y027214D02*
X023767Y027214D01*
X023701Y027313D02*
X024282Y027313D01*
X024467Y027411D02*
X023600Y027411D01*
X023844Y026820D02*
X024104Y026820D01*
X024145Y026722D02*
X023825Y026722D01*
X023789Y026623D02*
X024197Y026623D01*
X024296Y026525D02*
X023732Y026525D01*
X023640Y026419D02*
X025806Y026419D01*
X025771Y026455D01*
X025701Y026426D01*
X025502Y026426D01*
X025702Y026426D02*
X025799Y026426D01*
X025296Y026525D02*
X024908Y026525D01*
X025006Y026623D02*
X025197Y026623D01*
X025145Y026722D02*
X025058Y026722D01*
X025099Y026820D02*
X025104Y026820D01*
X025102Y026919D02*
X025102Y026919D01*
X025102Y027017D02*
X025102Y027017D01*
X025139Y027116D02*
X025064Y027116D01*
X025021Y027214D02*
X025183Y027214D01*
X025282Y027313D02*
X024922Y027313D01*
X024737Y027411D02*
X025467Y027411D01*
X024701Y026426D02*
X024502Y026426D01*
X025702Y025835D02*
X025896Y025835D01*
X025904Y025827D02*
X025904Y025827D01*
X025994Y025737D02*
X025801Y025737D01*
X025797Y025934D02*
X019933Y025934D01*
X019499Y025934D02*
X015958Y025934D01*
X015891Y026032D02*
X019413Y026032D01*
X019372Y026131D02*
X015891Y026131D01*
X015891Y026229D02*
X019368Y026229D01*
X019388Y026328D02*
X015891Y026328D01*
X015891Y026426D02*
X019441Y026426D01*
X019568Y026525D02*
X015891Y026525D01*
X015800Y026623D02*
X019604Y026623D01*
X019568Y026722D02*
X015701Y026722D01*
X015603Y026820D02*
X019549Y026820D01*
X019545Y026948D02*
X020146Y026948D01*
X020146Y027550D01*
X020069Y027540D01*
X019986Y027517D01*
X019907Y027485D01*
X019833Y027442D01*
X019765Y027390D01*
X019705Y027329D01*
X019653Y027262D01*
X019610Y027187D01*
X019577Y027108D01*
X019555Y027026D01*
X019545Y026948D01*
X019554Y027017D02*
X015916Y027017D01*
X015896Y027007D02*
X015969Y027044D01*
X016035Y027092D01*
X016093Y027150D01*
X016141Y027216D01*
X016178Y027289D01*
X016204Y027367D01*
X016215Y027440D01*
X015745Y027440D01*
X015745Y026970D01*
X015818Y026982D01*
X015896Y027007D01*
X015745Y027017D02*
X015648Y027017D01*
X015648Y026970D02*
X015648Y027440D01*
X015745Y027440D01*
X015745Y027537D01*
X016215Y027537D01*
X016204Y027611D01*
X016178Y027688D01*
X016141Y027761D01*
X016093Y027828D01*
X016035Y027885D01*
X015969Y027934D01*
X015896Y027971D01*
X015818Y027996D01*
X015745Y028008D01*
X015745Y027537D01*
X015648Y027537D01*
X015648Y027440D01*
X015178Y027440D01*
X015189Y027367D01*
X015214Y027289D01*
X015252Y027216D01*
X015300Y027150D01*
X015358Y027092D01*
X015424Y027044D01*
X015497Y027007D01*
X015575Y026982D01*
X015648Y026970D01*
X015648Y027116D02*
X015745Y027116D01*
X015745Y027214D02*
X015648Y027214D01*
X015648Y027313D02*
X015745Y027313D01*
X015745Y027411D02*
X015648Y027411D01*
X015648Y027510D02*
X014913Y027510D01*
X014906Y027608D02*
X015189Y027608D01*
X015189Y027611D02*
X015178Y027537D01*
X015648Y027537D01*
X015648Y028008D01*
X015575Y027996D01*
X015497Y027971D01*
X015424Y027934D01*
X015358Y027885D01*
X015300Y027828D01*
X015252Y027761D01*
X015214Y027688D01*
X015189Y027611D01*
X015224Y027707D02*
X014906Y027707D01*
X014906Y027805D02*
X015283Y027805D01*
X015383Y027904D02*
X014906Y027904D01*
X014906Y028002D02*
X015613Y028002D01*
X015648Y028002D02*
X015745Y028002D01*
X015780Y028002D02*
X021196Y028002D01*
X021196Y028088D02*
X021196Y027889D01*
X021272Y027706D01*
X021272Y027707D02*
X016169Y027707D01*
X016204Y027608D02*
X021370Y027608D01*
X021413Y027565D02*
X021272Y027706D01*
X021231Y027805D02*
X016109Y027805D01*
X016010Y027904D02*
X021196Y027904D01*
X021196Y028088D02*
X021272Y028272D01*
X021413Y028413D01*
X021597Y028489D01*
X021796Y028489D01*
X021980Y028413D01*
X022120Y028272D01*
X022196Y028088D01*
X022196Y027889D01*
X022120Y027706D01*
X021980Y027565D01*
X021796Y027489D01*
X021597Y027489D01*
X021413Y027565D01*
X021547Y027510D02*
X020426Y027510D01*
X020407Y027517D02*
X020324Y027540D01*
X020246Y027550D01*
X020246Y026948D01*
X020848Y026948D01*
X020838Y027026D01*
X020816Y027108D01*
X020783Y027187D01*
X020740Y027262D01*
X020688Y027329D01*
X020627Y027390D01*
X020560Y027442D01*
X020486Y027485D01*
X020407Y027517D01*
X020246Y027510D02*
X020146Y027510D01*
X020146Y027411D02*
X020246Y027411D01*
X020246Y027313D02*
X020146Y027313D01*
X020146Y027214D02*
X020246Y027214D01*
X020246Y027116D02*
X020146Y027116D01*
X020146Y027017D02*
X020246Y027017D01*
X020246Y026919D02*
X021196Y026919D01*
X021196Y026889D02*
X021272Y026706D01*
X021413Y026565D01*
X021597Y026489D01*
X021796Y026489D01*
X021980Y026565D01*
X022120Y026706D01*
X022196Y026889D01*
X022196Y027088D01*
X022120Y027272D01*
X021980Y027413D01*
X021796Y027489D01*
X021597Y027489D01*
X021413Y027413D01*
X021272Y027272D01*
X021196Y027088D01*
X021196Y026889D01*
X021225Y026820D02*
X020844Y026820D01*
X020825Y026722D02*
X021266Y026722D01*
X021355Y026623D02*
X020789Y026623D01*
X020732Y026525D02*
X021510Y026525D01*
X021882Y026525D02*
X022661Y026525D01*
X022604Y026623D02*
X022038Y026623D01*
X022127Y026722D02*
X022568Y026722D01*
X022549Y026820D02*
X022168Y026820D01*
X022196Y026919D02*
X023146Y026919D01*
X022625Y027214D02*
X022144Y027214D01*
X022185Y027116D02*
X022580Y027116D01*
X022554Y027017D02*
X022196Y027017D01*
X022080Y027313D02*
X022692Y027313D01*
X022793Y027411D02*
X021981Y027411D01*
X021846Y027510D02*
X022967Y027510D01*
X022161Y027805D02*
X027246Y027805D01*
X027246Y027904D02*
X022196Y027904D01*
X022196Y028002D02*
X027246Y028002D01*
X027246Y028101D02*
X022191Y028101D01*
X022150Y028199D02*
X027276Y028199D01*
X027317Y028298D02*
X022095Y028298D01*
X021996Y028396D02*
X027357Y028396D01*
X027436Y028495D02*
X014906Y028495D01*
X014906Y028593D02*
X027535Y028593D01*
X027602Y028660D02*
X027602Y028660D01*
X027677Y028692D02*
X014906Y028692D01*
X014830Y028790D02*
X028931Y028790D01*
X028931Y028692D02*
X028455Y028692D01*
X028598Y028593D02*
X028931Y028593D01*
X028931Y028495D02*
X028697Y028495D01*
X028762Y028430D02*
X028762Y028430D01*
X028775Y028396D02*
X028931Y028396D01*
X028931Y028298D02*
X028816Y028298D01*
X028857Y028199D02*
X028931Y028199D01*
X028931Y028101D02*
X028886Y028101D01*
X028886Y028002D02*
X028931Y028002D01*
X028931Y027904D02*
X028886Y027904D01*
X028886Y027805D02*
X028931Y027805D01*
X028931Y027707D02*
X028847Y027707D01*
X028806Y027608D02*
X028931Y027608D01*
X028931Y027510D02*
X028765Y027510D01*
X028762Y027501D02*
X028762Y027501D01*
X028672Y027411D02*
X028931Y027411D01*
X028931Y027313D02*
X028573Y027313D01*
X028531Y027270D02*
X028531Y027270D01*
X028396Y027214D02*
X028931Y027214D01*
X028931Y027116D02*
X027087Y027116D01*
X027035Y027214D02*
X027737Y027214D01*
X027602Y027270D02*
X027602Y027270D01*
X027559Y027313D02*
X026950Y027313D01*
X027327Y027608D02*
X022023Y027608D01*
X022121Y027707D02*
X027286Y027707D01*
X027046Y024456D02*
X025930Y024456D01*
X025930Y024358D02*
X027070Y024358D01*
X027114Y024259D02*
X025930Y024259D01*
X025930Y024161D02*
X027188Y024161D01*
X022746Y026426D02*
X020647Y026426D01*
X020839Y027017D02*
X021196Y027017D01*
X021208Y027116D02*
X020813Y027116D01*
X020767Y027214D02*
X021248Y027214D01*
X021313Y027313D02*
X020701Y027313D01*
X020600Y027411D02*
X021412Y027411D01*
X021201Y028101D02*
X014906Y028101D01*
X014906Y028199D02*
X021242Y028199D01*
X021298Y028298D02*
X014906Y028298D01*
X014906Y028396D02*
X021397Y028396D01*
X019967Y027510D02*
X015745Y027510D01*
X015745Y027608D02*
X015648Y027608D01*
X015648Y027707D02*
X015745Y027707D01*
X015745Y027805D02*
X015648Y027805D01*
X015648Y027904D02*
X015745Y027904D01*
X016211Y027411D02*
X019793Y027411D01*
X019692Y027313D02*
X016186Y027313D01*
X016140Y027214D02*
X019625Y027214D01*
X019580Y027116D02*
X016059Y027116D01*
X015504Y026919D02*
X020146Y026919D01*
X015477Y027017D02*
X015406Y027017D01*
X015334Y027116D02*
X015307Y027116D01*
X015253Y027214D02*
X015209Y027214D01*
X015207Y027313D02*
X015110Y027313D01*
X015182Y027411D02*
X015012Y027411D01*
X004742Y027411D02*
X001932Y027411D01*
X002021Y027501D02*
X001791Y027270D01*
X001791Y027270D01*
X001489Y027145D01*
X001364Y027145D01*
X001163Y027145D01*
X000862Y027270D01*
X000862Y027270D01*
X000631Y027501D01*
X000631Y027501D01*
X000506Y027802D01*
X000506Y028128D01*
X000631Y028430D01*
X000631Y028430D01*
X000862Y028660D01*
X000862Y028660D01*
X001163Y028785D01*
X001489Y028785D01*
X001791Y028660D01*
X001791Y028660D01*
X002021Y028430D01*
X002021Y028430D01*
X002146Y028128D01*
X002146Y027802D01*
X002021Y027501D01*
X002021Y027501D01*
X002025Y027510D02*
X003940Y027510D01*
X003951Y027501D02*
X004018Y027467D01*
X004090Y027444D01*
X004164Y027432D01*
X004172Y027432D01*
X004172Y027882D01*
X003722Y027882D01*
X003722Y027874D01*
X003734Y027800D01*
X003757Y027728D01*
X003792Y027660D01*
X003836Y027599D01*
X003890Y027546D01*
X003951Y027501D01*
X003830Y027608D02*
X002066Y027608D01*
X002107Y027707D02*
X003768Y027707D01*
X003733Y027805D02*
X002146Y027805D01*
X002146Y027904D02*
X004172Y027904D01*
X004172Y027882D02*
X004172Y027942D01*
X003722Y027942D01*
X003722Y027950D01*
X003734Y028024D01*
X003757Y028096D01*
X003792Y028164D01*
X003836Y028225D01*
X003890Y028278D01*
X003951Y028323D01*
X004018Y028357D01*
X004090Y028380D01*
X004164Y028392D01*
X004172Y028392D01*
X004172Y027942D01*
X004232Y027942D01*
X004232Y028392D01*
X004240Y028392D01*
X004315Y028380D01*
X004387Y028357D01*
X004454Y028323D01*
X004515Y028278D01*
X004568Y028225D01*
X004613Y028164D01*
X004647Y028096D01*
X004670Y028024D01*
X004682Y027950D01*
X004682Y027942D01*
X004232Y027942D01*
X004232Y027882D01*
X004232Y027432D01*
X004240Y027432D01*
X004315Y027444D01*
X004387Y027467D01*
X004454Y027501D01*
X004515Y027546D01*
X004568Y027599D01*
X004613Y027660D01*
X004647Y027728D01*
X004670Y027800D01*
X004682Y027874D01*
X004682Y027882D01*
X004232Y027882D01*
X004172Y027882D01*
X004232Y027904D02*
X004742Y027904D01*
X004742Y028002D02*
X004674Y028002D01*
X004645Y028101D02*
X004742Y028101D01*
X004742Y028199D02*
X004587Y028199D01*
X004488Y028298D02*
X004742Y028298D01*
X004742Y028396D02*
X002035Y028396D01*
X002076Y028298D02*
X003916Y028298D01*
X003818Y028199D02*
X002117Y028199D01*
X002146Y028101D02*
X003760Y028101D01*
X003731Y028002D02*
X002146Y028002D01*
X001957Y028495D02*
X004742Y028495D01*
X004742Y028593D02*
X001858Y028593D01*
X001715Y028692D02*
X004742Y028692D01*
X004742Y028757D02*
X004742Y027182D01*
X004682Y027122D01*
X004613Y027122D01*
X004592Y027173D01*
X004463Y027302D01*
X004294Y027372D01*
X004111Y027372D01*
X003942Y027302D01*
X003812Y027173D01*
X003742Y027004D01*
X003742Y026821D01*
X003805Y026669D01*
X003760Y026715D01*
X000633Y026715D01*
X000510Y026592D01*
X000461Y026543D01*
X000461Y028830D01*
X004816Y028830D01*
X004742Y028757D01*
X004775Y028790D02*
X000461Y028790D01*
X000461Y028692D02*
X000937Y028692D01*
X000795Y028593D02*
X000461Y028593D01*
X000461Y028495D02*
X000696Y028495D01*
X000617Y028396D02*
X000461Y028396D01*
X000461Y028298D02*
X000576Y028298D01*
X000536Y028199D02*
X000461Y028199D01*
X000461Y028101D02*
X000506Y028101D01*
X000506Y028002D02*
X000461Y028002D01*
X000461Y027904D02*
X000506Y027904D01*
X000506Y027805D02*
X000461Y027805D01*
X000461Y027707D02*
X000546Y027707D01*
X000587Y027608D02*
X000461Y027608D01*
X000461Y027510D02*
X000627Y027510D01*
X000721Y027411D02*
X000461Y027411D01*
X000461Y027313D02*
X000819Y027313D01*
X000997Y027214D02*
X000461Y027214D01*
X000461Y027116D02*
X003789Y027116D01*
X003748Y027017D02*
X000461Y027017D01*
X000461Y026919D02*
X003742Y026919D01*
X003742Y026820D02*
X000461Y026820D01*
X000461Y026722D02*
X003783Y026722D01*
X003854Y027214D02*
X001656Y027214D01*
X001489Y027145D02*
X001489Y027145D01*
X001833Y027313D02*
X003967Y027313D01*
X004172Y027510D02*
X004232Y027510D01*
X004232Y027608D02*
X004172Y027608D01*
X004172Y027707D02*
X004232Y027707D01*
X004232Y027805D02*
X004172Y027805D01*
X004172Y028002D02*
X004232Y028002D01*
X004232Y028101D02*
X004172Y028101D01*
X004172Y028199D02*
X004232Y028199D01*
X004232Y028298D02*
X004172Y028298D01*
X004671Y027805D02*
X004742Y027805D01*
X004742Y027707D02*
X004636Y027707D01*
X004575Y027608D02*
X004742Y027608D01*
X004742Y027510D02*
X004465Y027510D01*
X004437Y027313D02*
X004742Y027313D01*
X004742Y027214D02*
X004551Y027214D01*
X000542Y026623D02*
X000461Y026623D01*
D17*
X002590Y002292D02*
X002885Y001997D01*
X002885Y000619D01*
X003082Y000422D01*
X020799Y000422D01*
X020996Y000619D01*
X020996Y002095D01*
X021094Y002194D01*
X021688Y002194D01*
X021696Y002201D01*
X020688Y002784D02*
X020196Y002292D01*
X020200Y000855D01*
X020015Y000670D01*
X005543Y000670D01*
X005444Y000768D01*
X005444Y003375D01*
X005346Y003473D01*
X003870Y003473D01*
X003673Y003670D01*
X003673Y012528D01*
X003279Y012922D01*
X000818Y012922D01*
X000523Y013217D01*
X000523Y026308D01*
X000720Y026505D01*
X003673Y026505D01*
X003771Y026406D01*
X005704Y026406D01*
X006196Y026898D01*
X006688Y026406D01*
X008692Y026406D01*
X009185Y026898D01*
X009196Y026898D01*
X010858Y026111D02*
X011055Y026308D01*
X011055Y027686D01*
X010858Y026111D02*
X002334Y026111D01*
X002137Y025914D01*
X002137Y020107D01*
X002232Y020012D01*
X003011Y020012D01*
X003673Y025520D02*
X003870Y025717D01*
X014598Y025717D01*
X014696Y025816D01*
X014696Y026489D01*
X014696Y027430D02*
X014696Y028627D01*
X014555Y028768D01*
X005051Y028768D01*
X004952Y028670D01*
X004952Y027095D01*
X004769Y026912D01*
X004202Y026912D01*
X003673Y025520D02*
X003673Y013906D01*
X003279Y013512D01*
X001098Y012016D02*
X000602Y012016D01*
X000523Y011938D01*
X000523Y005540D01*
X000720Y005343D01*
X002393Y005343D01*
X002590Y005146D01*
X002590Y002292D01*
X006196Y002292D02*
X006688Y002784D01*
X008704Y002784D01*
X009196Y002292D01*
X015484Y001701D02*
X019224Y001701D01*
X019421Y001898D01*
X019421Y002686D01*
X019814Y003079D01*
X028673Y003079D01*
X028870Y003276D01*
X028870Y003965D01*
X028740Y003835D01*
X027964Y003835D01*
X027925Y006733D01*
X026822Y007835D01*
X027964Y007835D02*
X028429Y007839D01*
X028625Y008036D01*
X028622Y011296D01*
X028255Y011666D01*
X028255Y011949D01*
X028255Y012453D01*
X028082Y012627D01*
X026212Y012627D01*
X026015Y012823D01*
X026015Y020501D01*
X026212Y020697D01*
X028082Y020697D01*
X028377Y020993D01*
X028377Y025816D01*
X028279Y025914D01*
X026114Y025914D01*
X025818Y026209D01*
X019716Y026209D01*
X015877Y025717D02*
X015681Y025914D01*
X015681Y026445D01*
X014696Y027430D01*
X015877Y025717D02*
X025523Y025717D01*
X025720Y025520D01*
X025720Y023355D01*
X025917Y023158D01*
X027590Y023158D01*
X025720Y023355D02*
X025720Y003965D01*
X025720Y003670D01*
X025523Y003473D01*
X019421Y003473D01*
X019027Y003079D01*
X019027Y002390D01*
X018929Y002292D01*
X020688Y002784D02*
X022704Y002784D01*
X023196Y002292D01*
X025720Y003965D02*
X025818Y003867D01*
X026870Y003867D01*
X026822Y003835D01*
X026255Y004796D02*
X026255Y011949D01*
X028870Y003965D02*
X028870Y026012D01*
X028673Y026209D01*
X026311Y026209D01*
X026094Y026426D01*
X025602Y026926D01*
D18*
X019716Y026209D03*
X011055Y027686D03*
X003279Y013512D03*
X018929Y002292D03*
X026255Y004796D03*
M02*
