%
M48
M72
T01C0.0200
T02C0.0315
T03C0.0320
T04C0.0354
T05C0.0394
T06C0.0400
T07C0.1300
%
T01
X3181Y14579
X2689Y16430
X1351Y20209
X8181Y34500
X31430Y34520
T02
X12812Y3605
X14267Y3002
T03
X10189Y5111
X9323Y5611
X8457Y6111
X4048Y10530
X4914Y11030
X3205Y21721
X2209Y21808
X3377Y22935
X2392Y23109
X4914Y28640
X4048Y29140
X16394Y37406
X17379Y37579
X19835Y38052
X19835Y37052
X28134Y35237
X29000Y34737
X29866Y34237
X34756Y28640
X35622Y29140
X36853Y25817
X37195Y24877
X37532Y20835
X37532Y19835
X37532Y18835
X34756Y11030
X35622Y10530
X25258Y2495
X24292Y2237
X23326Y1978
X19835Y1619
X19835Y2619
T04
X27351Y3315
X30815Y5315
X36496Y13007
X37190Y16946
X26476Y36250
X22612Y37286
X15156Y37054
X11530Y35364
X4574Y27742
X3251Y28175
X1883Y24416
X3206Y23983
T05
X1402Y17191
X3859Y15471
X8861Y33592
X9045Y34995
X10447Y34810
T06
X2997Y13700
X3524Y12427
T07
X7237Y7237
X7237Y32433
X32433Y32433
X32433Y7237
M30
