G75*
%MOIN*%
%OFA0B0*%
%FSLAX24Y24*%
%IPPOS*%
%LPD*%
%AMOC8*
5,1,8,0,0,1.08239X$1,22.5*
%
%ADD10R,0.1811X0.0394*%
%ADD11R,0.1260X0.0630*%
%ADD12C,0.0800*%
%ADD13R,0.0800X0.0800*%
%ADD14R,0.0217X0.0472*%
%ADD15C,0.0780*%
%ADD16C,0.0660*%
%ADD17C,0.0740*%
%ADD18C,0.0100*%
%ADD19C,0.0400*%
D10*
X001134Y018890D03*
X001134Y019678D03*
D11*
X003181Y020622D03*
X003181Y017945D03*
D12*
X003524Y012427D03*
D13*
G36*
X002781Y013178D02*
X002475Y013916D01*
X003213Y014222D01*
X003519Y013484D01*
X002781Y013178D01*
G37*
D14*
G36*
X001593Y021826D02*
X001380Y021855D01*
X001441Y022322D01*
X001654Y022293D01*
X001593Y021826D01*
G37*
G36*
X000851Y021924D02*
X000638Y021953D01*
X000699Y022420D01*
X000912Y022391D01*
X000851Y021924D01*
G37*
G36*
X000985Y022939D02*
X000772Y022968D01*
X000833Y023435D01*
X001046Y023406D01*
X000985Y022939D01*
G37*
G36*
X001356Y022890D02*
X001143Y022919D01*
X001204Y023386D01*
X001417Y023357D01*
X001356Y022890D01*
G37*
G36*
X001727Y022841D02*
X001514Y022870D01*
X001575Y023337D01*
X001788Y023308D01*
X001727Y022841D01*
G37*
D15*
X001402Y017191D03*
X003859Y015471D03*
D16*
X003205Y021721D03*
X002209Y021808D03*
X003377Y022935D03*
X002392Y023109D03*
X016394Y037406D03*
X017379Y037579D03*
X036853Y025817D03*
X037195Y024877D03*
X014267Y003002D03*
X012812Y003605D03*
D17*
X010189Y005111D03*
X009323Y005611D03*
X008457Y006111D03*
X004048Y010530D03*
X004914Y011030D03*
X003206Y023983D03*
X001883Y024416D03*
X004574Y027742D03*
X004914Y028640D03*
X004048Y029140D03*
X003251Y028175D03*
X008861Y033592D03*
X009045Y034995D03*
X010447Y034810D03*
X011530Y035364D03*
X015156Y037054D03*
X019835Y037052D03*
X019835Y038052D03*
X022612Y037286D03*
X026476Y036250D03*
X028134Y035237D03*
X029000Y034737D03*
X029866Y034237D03*
X034756Y028640D03*
X035622Y029140D03*
X037532Y020835D03*
X037532Y019835D03*
X037532Y018835D03*
X037190Y016946D03*
X036496Y013007D03*
X034756Y011030D03*
X035622Y010530D03*
X030815Y005315D03*
X027351Y003315D03*
X025258Y002495D03*
X024292Y002237D03*
X023326Y001978D03*
X019835Y001619D03*
X019835Y002619D03*
D18*
X006370Y006060D02*
X005987Y006060D01*
X006087Y005962D02*
X006453Y005962D01*
X006535Y005863D02*
X006188Y005863D01*
X006289Y005765D02*
X006618Y005765D01*
X006655Y005720D02*
X006660Y005693D01*
X006701Y005665D01*
X006733Y005627D01*
X006761Y005624D01*
X006784Y005609D01*
X006832Y005618D01*
X006882Y005614D01*
X006903Y005632D01*
X008026Y005845D01*
X008033Y005827D01*
X008174Y005687D01*
X008358Y005611D01*
X008557Y005611D01*
X008740Y005687D01*
X008865Y005812D01*
X008823Y005710D01*
X008823Y005511D01*
X008899Y005327D01*
X009040Y005187D01*
X009224Y005111D01*
X009240Y005111D01*
X009507Y003783D01*
X009504Y003778D01*
X009522Y003711D01*
X009535Y003644D01*
X009541Y003640D01*
X009543Y003634D01*
X009602Y003599D01*
X009660Y003561D01*
X009666Y003563D01*
X013096Y001589D01*
X013116Y001561D01*
X013158Y001553D01*
X013196Y001532D01*
X013229Y001541D01*
X019745Y000373D01*
X019774Y000353D01*
X019815Y000361D01*
X019857Y000353D01*
X019886Y000373D01*
X026441Y001541D01*
X026475Y001532D01*
X026512Y001553D01*
X026554Y001561D01*
X026574Y001589D01*
X030678Y003959D01*
X030690Y003957D01*
X030741Y003995D01*
X030797Y004027D01*
X030800Y004039D01*
X030809Y004046D01*
X030819Y004109D01*
X030835Y004172D01*
X030829Y004182D01*
X030924Y004819D01*
X031098Y004891D01*
X031239Y005032D01*
X031315Y005216D01*
X031315Y005415D01*
X031239Y005599D01*
X031098Y005739D01*
X030915Y005815D01*
X030716Y005815D01*
X030532Y005739D01*
X030391Y005599D01*
X030315Y005415D01*
X030315Y005216D01*
X030391Y005032D01*
X030532Y004891D01*
X030568Y004876D01*
X030477Y004258D01*
X026387Y001896D01*
X019815Y000727D01*
X013283Y001896D01*
X009858Y003868D01*
X009593Y005181D01*
X009606Y005187D01*
X009731Y005312D01*
X009689Y005210D01*
X009689Y005011D01*
X009765Y004827D01*
X009906Y004687D01*
X010090Y004611D01*
X010289Y004611D01*
X010472Y004687D01*
X010613Y004827D01*
X010689Y005011D01*
X010689Y005210D01*
X010613Y005394D01*
X010472Y005535D01*
X010289Y005611D01*
X010090Y005611D01*
X009906Y005535D01*
X009781Y005410D01*
X009823Y005511D01*
X009823Y005710D01*
X009747Y005894D01*
X009606Y006035D01*
X009423Y006111D01*
X009224Y006111D01*
X009040Y006035D01*
X008915Y005910D01*
X008957Y006011D01*
X008957Y006210D01*
X008881Y006394D01*
X008740Y006535D01*
X008557Y006611D01*
X008358Y006611D01*
X008174Y006535D01*
X008033Y006394D01*
X007957Y006210D01*
X007957Y006199D01*
X006893Y005996D01*
X003300Y010281D01*
X002557Y012289D01*
X002875Y011476D01*
X002871Y011460D01*
X002901Y011409D01*
X002923Y011354D01*
X002939Y011347D01*
X002948Y011332D01*
X003005Y011318D01*
X003059Y011294D01*
X003076Y011300D01*
X004414Y010968D01*
X004414Y010930D01*
X004456Y010829D01*
X004331Y010954D01*
X004147Y011030D01*
X003948Y011030D01*
X003764Y010954D01*
X003624Y010813D01*
X003548Y010629D01*
X003548Y010430D01*
X003624Y010247D01*
X003764Y010106D01*
X003948Y010030D01*
X004147Y010030D01*
X004331Y010106D01*
X004472Y010247D01*
X004548Y010430D01*
X004548Y010629D01*
X004506Y010731D01*
X004630Y010606D01*
X004814Y010530D01*
X005013Y010530D01*
X005197Y010606D01*
X005338Y010747D01*
X005414Y010930D01*
X005414Y011129D01*
X005338Y011313D01*
X005197Y011454D01*
X005013Y011530D01*
X004814Y011530D01*
X004630Y011454D01*
X004496Y011319D01*
X003197Y011641D01*
X002096Y014460D01*
X002751Y016100D01*
X002755Y016100D01*
X002876Y016150D01*
X002969Y016243D01*
X003019Y016364D01*
X003019Y016495D01*
X002969Y016616D01*
X002876Y016709D01*
X002755Y016760D01*
X002624Y016760D01*
X002502Y016709D01*
X002410Y016616D01*
X002359Y016495D01*
X002359Y016364D01*
X002410Y016243D01*
X002418Y016235D01*
X001736Y014531D01*
X001728Y014531D01*
X001736Y014531D02*
X001732Y014521D01*
X000999Y016501D01*
X000999Y016858D01*
X001107Y016751D01*
X001298Y016671D01*
X001505Y016671D01*
X001696Y016751D01*
X001842Y016897D01*
X001922Y017088D01*
X001922Y017295D01*
X001842Y017486D01*
X003947Y017486D01*
X003865Y017500D02*
X003935Y017570D01*
X004064Y016698D01*
X004297Y015768D01*
X004154Y015912D01*
X003962Y015991D01*
X003756Y015991D01*
X003564Y015912D01*
X003418Y015765D01*
X003339Y015574D01*
X003339Y015367D01*
X003418Y015176D01*
X003564Y015030D01*
X003756Y014951D01*
X003962Y014951D01*
X004154Y015030D01*
X004300Y015176D01*
X004379Y015367D01*
X004379Y015441D01*
X004448Y015167D01*
X004979Y013682D01*
X004979Y013682D01*
X005654Y012255D01*
X006465Y010902D01*
X006465Y010902D01*
X007405Y009634D01*
X007936Y009048D01*
X005938Y011171D01*
X003491Y014464D01*
X003511Y014513D01*
X003511Y014645D01*
X003461Y014766D01*
X003368Y014859D01*
X003247Y014909D01*
X003116Y014909D01*
X002995Y014859D01*
X002902Y014766D01*
X002851Y014645D01*
X002851Y014513D01*
X002902Y014392D01*
X002995Y014299D01*
X003001Y014297D01*
X002832Y014227D01*
X003024Y013765D01*
X002931Y013727D01*
X002970Y013635D01*
X003062Y013673D01*
X003253Y013211D01*
X003595Y013352D01*
X003626Y013376D01*
X003650Y013408D01*
X003665Y013444D01*
X003670Y013483D01*
X003665Y013523D01*
X003568Y013757D01*
X005618Y010998D01*
X005617Y010986D01*
X005661Y010940D01*
X005700Y010888D01*
X005711Y010887D01*
X012391Y003790D01*
X012352Y003696D01*
X010156Y003696D01*
X009985Y003795D02*
X012387Y003795D01*
X012352Y003696D02*
X012352Y003513D01*
X012422Y003344D01*
X012552Y003215D01*
X012721Y003145D01*
X012904Y003145D01*
X013073Y003215D01*
X013194Y003336D01*
X013922Y003336D01*
X013901Y003315D01*
X013857Y003254D01*
X013835Y003212D01*
X014252Y003040D01*
X014230Y002987D01*
X013813Y003159D01*
X013799Y003115D01*
X013787Y003040D01*
X013787Y002964D01*
X013799Y002890D01*
X013822Y002818D01*
X013857Y002751D01*
X013901Y002690D01*
X013955Y002636D01*
X014016Y002592D01*
X014057Y002570D01*
X014230Y002987D01*
X014283Y002965D01*
X014305Y003018D01*
X014721Y002845D01*
X014735Y002890D01*
X014747Y002964D01*
X014747Y003040D01*
X014735Y003115D01*
X014712Y003186D01*
X014678Y003254D01*
X014633Y003315D01*
X014612Y003336D01*
X022281Y003336D01*
X023796Y002346D01*
X023792Y002336D01*
X023792Y002209D01*
X023771Y002250D01*
X023722Y002317D01*
X023792Y002317D01*
X023722Y002317D02*
X023665Y002374D01*
X023598Y002423D01*
X023525Y002460D01*
X023448Y002485D01*
X023367Y002498D01*
X023285Y002498D01*
X023220Y002488D01*
X023347Y002015D01*
X023289Y001999D01*
X023305Y001941D01*
X023363Y001957D01*
X023489Y001484D01*
X023525Y001496D01*
X023598Y001533D01*
X023665Y001581D01*
X023722Y001639D01*
X023771Y001705D01*
X023808Y001778D01*
X023833Y001856D01*
X023846Y001937D01*
X023846Y002007D01*
X023868Y001953D01*
X024009Y001813D01*
X024192Y001737D01*
X024391Y001737D01*
X024575Y001813D01*
X024716Y001953D01*
X024792Y002137D01*
X024792Y002314D01*
X024834Y002212D01*
X024974Y002072D01*
X025158Y001995D01*
X025357Y001995D01*
X025541Y002072D01*
X025682Y002212D01*
X025758Y002396D01*
X025758Y002595D01*
X025682Y002779D01*
X025541Y002919D01*
X025357Y002995D01*
X025158Y002995D01*
X024974Y002919D01*
X024834Y002779D01*
X024758Y002595D01*
X024758Y002418D01*
X024716Y002520D01*
X024575Y002660D01*
X024391Y002737D01*
X024192Y002737D01*
X024009Y002660D01*
X023994Y002646D01*
X022449Y003657D01*
X022410Y003696D01*
X027025Y003696D01*
X027068Y003739D02*
X026927Y003599D01*
X026851Y003415D01*
X026851Y003216D01*
X026927Y003032D01*
X027068Y002891D01*
X027252Y002815D01*
X027450Y002815D01*
X027634Y002891D01*
X027775Y003032D01*
X027851Y003216D01*
X027851Y003415D01*
X027775Y003599D01*
X027634Y003739D01*
X027450Y003815D01*
X027252Y003815D01*
X027068Y003739D01*
X027201Y003795D02*
X020636Y003795D01*
X021411Y003833D02*
X021411Y003833D01*
X022972Y004064D01*
X024503Y004448D01*
X025989Y004979D01*
X027415Y005654D01*
X028769Y006465D01*
X030036Y007405D01*
X031205Y008465D01*
X032265Y009634D01*
X033205Y010902D01*
X034016Y012255D01*
X034691Y013682D01*
X035223Y015167D01*
X035606Y016698D01*
X035837Y018259D01*
X035915Y019835D01*
X035837Y021411D01*
X035650Y022674D01*
X036404Y020017D01*
X036400Y019979D01*
X036424Y019948D01*
X036434Y019911D01*
X036468Y019892D01*
X037098Y019094D01*
X037032Y018934D01*
X037032Y018736D01*
X037108Y018552D01*
X037249Y018411D01*
X037432Y018335D01*
X037631Y018335D01*
X037815Y018411D01*
X037956Y018552D01*
X038032Y018736D01*
X038032Y018934D01*
X037956Y019118D01*
X037815Y019259D01*
X037631Y019335D01*
X037815Y019411D01*
X037956Y019552D01*
X038032Y019736D01*
X038032Y019934D01*
X037973Y020077D01*
X038521Y020722D01*
X038542Y020728D01*
X038568Y020777D01*
X038603Y020819D01*
X038601Y020840D01*
X038612Y020860D01*
X038596Y020912D01*
X038591Y020967D01*
X038574Y020981D01*
X037492Y024523D01*
X037585Y024616D01*
X037655Y024786D01*
X037655Y024969D01*
X037585Y025138D01*
X037456Y025267D01*
X037287Y025337D01*
X037104Y025337D01*
X036934Y025267D01*
X036805Y025138D01*
X036735Y024969D01*
X036735Y024786D01*
X036805Y024616D01*
X036934Y024487D01*
X037104Y024417D01*
X037147Y024417D01*
X038217Y020920D01*
X038005Y020670D01*
X038032Y020736D01*
X038032Y020934D01*
X038213Y020934D01*
X038182Y021032D02*
X037991Y021032D01*
X037956Y021118D02*
X037815Y021259D01*
X037631Y021335D01*
X037432Y021335D01*
X037249Y021259D01*
X037108Y021118D01*
X037032Y020934D01*
X036518Y020934D01*
X036490Y021032D02*
X037072Y021032D01*
X037032Y020934D02*
X037032Y020736D01*
X037108Y020552D01*
X037249Y020411D01*
X037432Y020335D01*
X037249Y020259D01*
X037108Y020118D01*
X037032Y019934D01*
X037032Y019759D01*
X036750Y020115D01*
X034443Y028246D01*
X034473Y028216D01*
X034657Y028140D01*
X034856Y028140D01*
X035040Y028216D01*
X035180Y028357D01*
X035256Y028541D01*
X035256Y028740D01*
X035214Y028841D01*
X035339Y028716D01*
X035523Y028640D01*
X035722Y028640D01*
X035906Y028716D01*
X036046Y028857D01*
X036122Y029041D01*
X036122Y029240D01*
X036046Y029423D01*
X035906Y029564D01*
X035722Y029640D01*
X035523Y029640D01*
X035339Y029564D01*
X035199Y029423D01*
X035122Y029240D01*
X035122Y029041D01*
X035164Y028939D01*
X035040Y029064D01*
X034856Y029140D01*
X034657Y029140D01*
X034473Y029064D01*
X034332Y028923D01*
X034286Y028811D01*
X034285Y028851D01*
X034266Y028868D01*
X034259Y028893D01*
X034214Y028918D01*
X030681Y032296D01*
X030182Y033845D01*
X030290Y033953D01*
X030366Y034137D01*
X030366Y034336D01*
X030290Y034520D01*
X030150Y034660D01*
X029966Y034737D01*
X029869Y034737D01*
X029200Y036504D01*
X029183Y036567D01*
X029174Y036573D01*
X029170Y036583D01*
X029110Y036610D01*
X026574Y038081D01*
X026554Y038109D01*
X026512Y038117D01*
X026475Y038138D01*
X026442Y038129D01*
X019906Y039297D01*
X019877Y039317D01*
X019835Y039309D01*
X019793Y039317D01*
X019765Y039297D01*
X016143Y038654D01*
X016071Y038642D01*
X016070Y038641D01*
X016069Y038641D01*
X016027Y038581D01*
X015284Y037542D01*
X015255Y037554D01*
X015056Y037554D01*
X014872Y037478D01*
X014732Y037338D01*
X014656Y037154D01*
X014656Y036955D01*
X014732Y036771D01*
X014872Y036630D01*
X015056Y036554D01*
X015255Y036554D01*
X015439Y036630D01*
X015579Y036771D01*
X015656Y036955D01*
X015656Y037154D01*
X015579Y037337D01*
X016277Y038312D01*
X016892Y038421D01*
X016852Y038363D01*
X016496Y037861D01*
X016485Y037866D01*
X016302Y037866D01*
X016133Y037796D01*
X016004Y037666D01*
X015934Y037497D01*
X015934Y037314D01*
X016004Y037145D01*
X016133Y037016D01*
X016302Y036946D01*
X016485Y036946D01*
X016654Y037016D01*
X016784Y037145D01*
X016854Y037314D01*
X016854Y037497D01*
X016790Y037652D01*
X017105Y038097D01*
X019836Y038628D01*
X025816Y037534D01*
X026146Y036628D01*
X026052Y036534D01*
X025976Y036350D01*
X025976Y036151D01*
X026052Y035967D01*
X026192Y035827D01*
X026376Y035750D01*
X026575Y035750D01*
X026759Y035827D01*
X026899Y035967D01*
X026976Y036151D01*
X026976Y036350D01*
X026899Y036534D01*
X026759Y036674D01*
X026575Y036750D01*
X026485Y036750D01*
X026228Y037455D01*
X026306Y037440D01*
X028251Y036307D01*
X028515Y035563D01*
X028418Y035660D01*
X028234Y035737D01*
X028035Y035737D01*
X027851Y035660D01*
X027710Y035520D01*
X027634Y035336D01*
X027634Y035219D01*
X026820Y034872D01*
X023960Y035990D01*
X023942Y036011D01*
X023893Y036016D01*
X023847Y036034D01*
X023821Y036023D01*
X019964Y036387D01*
X019947Y036400D01*
X019892Y036394D01*
X019837Y036399D01*
X019820Y036386D01*
X014868Y035805D01*
X014829Y035816D01*
X014797Y035797D01*
X014760Y035793D01*
X014735Y035761D01*
X009420Y032696D01*
X009401Y032698D01*
X009357Y032660D01*
X009307Y032631D01*
X009302Y032613D01*
X005155Y029082D01*
X005013Y029140D01*
X004814Y029140D01*
X004630Y029064D01*
X004506Y028939D01*
X004548Y029041D01*
X004548Y029240D01*
X004472Y029423D01*
X004331Y029564D01*
X004147Y029640D01*
X003948Y029640D01*
X003764Y029564D01*
X003624Y029423D01*
X003548Y029240D01*
X003548Y029041D01*
X003624Y028857D01*
X003764Y028716D01*
X003948Y028640D01*
X004147Y028640D01*
X004331Y028716D01*
X004456Y028841D01*
X004414Y028740D01*
X004414Y028541D01*
X004490Y028357D01*
X004605Y028242D01*
X004475Y028242D01*
X004291Y028166D01*
X004150Y028025D01*
X004074Y027841D01*
X004074Y027643D01*
X004150Y027459D01*
X004291Y027318D01*
X004475Y027242D01*
X004674Y027242D01*
X004857Y027318D01*
X004998Y027459D01*
X005074Y027643D01*
X005074Y027841D01*
X004998Y028025D01*
X004883Y028140D01*
X005013Y028140D01*
X005197Y028216D01*
X005338Y028357D01*
X005414Y028541D01*
X005414Y028740D01*
X005386Y028806D01*
X009565Y032364D01*
X010478Y032891D01*
X009634Y032265D01*
X008465Y031205D01*
X007405Y030036D01*
X006465Y028769D01*
X005654Y027415D01*
X005654Y027415D01*
X004979Y025989D01*
X004979Y025989D01*
X004448Y024503D01*
X004448Y024503D01*
X004064Y022972D01*
X003833Y021411D01*
X003816Y021067D01*
X002498Y021067D01*
X002422Y020991D01*
X002422Y020254D01*
X002498Y020177D01*
X003772Y020177D01*
X003755Y019835D01*
X003826Y018390D01*
X002680Y018390D01*
X002717Y018427D01*
X002769Y018476D01*
X002769Y018479D01*
X002771Y018481D01*
X002771Y018553D01*
X002773Y018625D01*
X002771Y018627D01*
X002771Y019260D01*
X002774Y019330D01*
X002771Y019334D01*
X002771Y019339D01*
X002721Y019388D01*
X002397Y019747D01*
X002397Y019752D01*
X002347Y019802D01*
X002300Y019854D01*
X002295Y019854D01*
X002291Y019858D01*
X002221Y019858D01*
X002170Y019860D01*
X002170Y019928D01*
X002094Y020004D01*
X001613Y020004D01*
X001631Y020022D01*
X001681Y020143D01*
X001681Y020275D01*
X001631Y020396D01*
X001538Y020489D01*
X001416Y020539D01*
X001285Y020539D01*
X001164Y020489D01*
X001071Y020396D01*
X001021Y020275D01*
X001021Y020143D01*
X001071Y020022D01*
X001089Y020004D01*
X000304Y020004D01*
X000304Y020700D01*
X000457Y022423D01*
X000458Y022426D01*
X000544Y022241D01*
X000501Y021915D01*
X000567Y021830D01*
X000888Y021787D01*
X000974Y021853D01*
X001049Y022428D01*
X000984Y022514D01*
X000803Y022537D01*
X000711Y022734D01*
X000729Y022841D01*
X001022Y022802D01*
X001050Y022824D01*
X001071Y022796D01*
X001393Y022754D01*
X001421Y022775D01*
X001442Y022747D01*
X001764Y022705D01*
X001849Y022770D01*
X001868Y022915D01*
X001973Y022918D01*
X002002Y022848D01*
X002131Y022719D01*
X002300Y022649D01*
X002483Y022649D01*
X002652Y022719D01*
X002782Y022848D01*
X002852Y023017D01*
X002852Y023200D01*
X002812Y023296D01*
X003020Y023519D01*
X003107Y023483D01*
X003306Y023483D01*
X003489Y023559D01*
X003630Y023700D01*
X003706Y023884D01*
X003706Y024083D01*
X003630Y024266D01*
X003489Y024407D01*
X003306Y024483D01*
X003172Y024483D01*
X002235Y026497D01*
X002775Y027964D01*
X002807Y027903D01*
X002855Y027836D01*
X002913Y027778D01*
X002979Y027730D01*
X002689Y027730D01*
X002653Y027632D02*
X004079Y027632D01*
X004074Y027730D02*
X003523Y027730D01*
X003524Y027730D02*
X003590Y027778D01*
X003648Y027836D01*
X003696Y027903D01*
X003726Y027961D01*
X003274Y028126D01*
X003110Y027674D01*
X003130Y027668D01*
X003210Y027655D01*
X003292Y027655D01*
X003373Y027668D01*
X003451Y027693D01*
X003524Y027730D01*
X003640Y027829D02*
X004074Y027829D01*
X004110Y027927D02*
X003709Y027927D01*
X003752Y028034D02*
X003759Y028053D01*
X003771Y028134D01*
X003771Y028216D01*
X003759Y028297D01*
X003733Y028375D01*
X003696Y028448D01*
X003648Y028514D01*
X003590Y028572D01*
X003524Y028620D01*
X003465Y028650D01*
X003301Y028198D01*
X003752Y028034D01*
X003770Y028124D02*
X004249Y028124D01*
X004151Y028026D02*
X003549Y028026D01*
X003504Y028124D02*
X003279Y028124D01*
X003274Y028126D02*
X003301Y028198D01*
X003228Y028225D01*
X003393Y028676D01*
X003373Y028682D01*
X003292Y028695D01*
X003210Y028695D01*
X003130Y028682D01*
X003052Y028657D01*
X003026Y028644D01*
X003300Y029389D01*
X007508Y034407D01*
X007883Y034358D01*
X007902Y034313D01*
X007995Y034221D01*
X008116Y034170D01*
X008247Y034170D01*
X008368Y034221D01*
X008461Y034313D01*
X008511Y034435D01*
X008511Y034566D01*
X008461Y034687D01*
X008368Y034780D01*
X008247Y034830D01*
X008116Y034830D01*
X007995Y034780D01*
X007930Y034715D01*
X007509Y034770D01*
X007492Y034785D01*
X007437Y034780D01*
X007383Y034787D01*
X007365Y034774D01*
X007343Y034772D01*
X007308Y034730D01*
X007265Y034696D01*
X007262Y034674D01*
X003030Y029627D01*
X002999Y029613D01*
X002984Y029572D01*
X002956Y029539D01*
X002959Y029505D01*
X001897Y026620D01*
X001896Y026620D01*
X001871Y026550D01*
X001845Y026481D01*
X001845Y026481D01*
X001845Y026480D01*
X001877Y026413D01*
X001908Y026345D01*
X002846Y024330D01*
X002782Y024266D01*
X002706Y024083D01*
X002706Y023884D01*
X002756Y023764D01*
X002549Y023542D01*
X002483Y023569D01*
X002300Y023569D01*
X002131Y023499D01*
X002002Y023369D01*
X001964Y023277D01*
X001916Y023276D01*
X001925Y023345D01*
X001859Y023431D01*
X001538Y023473D01*
X001510Y023452D01*
X001488Y023480D01*
X001167Y023522D01*
X001139Y023501D01*
X001118Y023529D01*
X000851Y023564D01*
X000929Y024026D01*
X001271Y024413D01*
X001383Y024379D01*
X001383Y024317D01*
X001459Y024133D01*
X001600Y023992D01*
X001784Y023916D01*
X001983Y023916D01*
X002167Y023992D01*
X002307Y024133D01*
X002383Y024317D01*
X002383Y024516D01*
X002307Y024700D01*
X002167Y024840D01*
X001983Y024916D01*
X001784Y024916D01*
X001600Y024840D01*
X001484Y024725D01*
X001303Y024779D01*
X001276Y024803D01*
X001234Y024800D01*
X001194Y024812D01*
X001163Y024796D01*
X001128Y024794D01*
X001100Y024762D01*
X001062Y024742D01*
X001052Y024708D01*
X000862Y024493D01*
X001215Y025794D01*
X001815Y027416D01*
X002555Y028979D01*
X003431Y030471D01*
X004435Y031879D01*
X005560Y033193D01*
X006796Y034402D01*
X008135Y035497D01*
X009565Y036470D01*
X011075Y037313D01*
X012654Y038019D01*
X014289Y038582D01*
X015968Y038999D01*
X017677Y039266D01*
X019403Y039380D01*
X021132Y039342D01*
X022851Y039151D01*
X024546Y038809D01*
X026204Y038318D01*
X027813Y037683D01*
X029359Y036908D01*
X030831Y036000D01*
X032217Y034965D01*
X033505Y033811D01*
X034687Y032548D01*
X035752Y031186D01*
X036693Y029735D01*
X037502Y028206D01*
X038173Y026612D01*
X038700Y024965D01*
X039080Y023277D01*
X039309Y021563D01*
X039385Y019835D01*
X039309Y018107D01*
X039080Y016393D01*
X038700Y014706D01*
X038173Y013058D01*
X037502Y011464D01*
X036693Y009935D01*
X035752Y008484D01*
X034687Y007122D01*
X033505Y005859D01*
X032217Y004706D01*
X030831Y003670D01*
X029359Y002762D01*
X027813Y001987D01*
X026204Y001352D01*
X024546Y000861D01*
X022851Y000519D01*
X021132Y000328D01*
X019403Y000290D01*
X017677Y000404D01*
X015968Y000671D01*
X014289Y001088D01*
X012654Y001652D01*
X011075Y002357D01*
X009565Y003200D01*
X008135Y004173D01*
X006796Y005268D01*
X005560Y006477D01*
X004435Y007791D01*
X003431Y009199D01*
X002555Y010691D01*
X001815Y012254D01*
X001215Y013876D01*
X000762Y015545D01*
X000457Y017248D01*
X000342Y018543D01*
X001086Y018543D01*
X001086Y018842D01*
X001183Y018842D01*
X001183Y018939D01*
X001086Y018939D01*
X001086Y019237D01*
X000304Y019237D01*
X000304Y019351D01*
X002094Y019351D01*
X002170Y019427D01*
X002170Y019461D01*
X002411Y019195D01*
X002411Y018633D01*
X002125Y018361D01*
X001098Y018361D01*
X001088Y018369D01*
X001025Y018361D01*
X000961Y018361D01*
X000953Y018353D01*
X000940Y018351D01*
X000901Y018301D01*
X000856Y018256D01*
X000856Y018244D01*
X000684Y018026D01*
X000639Y017980D01*
X000639Y017968D01*
X000632Y017958D01*
X000639Y017895D01*
X000639Y016508D01*
X000625Y016476D01*
X000639Y016437D01*
X000639Y016394D01*
X000664Y016369D01*
X002959Y010165D01*
X002956Y010131D01*
X002984Y010098D01*
X002999Y010057D01*
X003030Y010043D01*
X006655Y005720D01*
X006700Y005666D02*
X006390Y005666D01*
X006490Y005568D02*
X008823Y005568D01*
X008823Y005666D02*
X008690Y005666D01*
X008818Y005765D02*
X008846Y005765D01*
X008937Y005962D02*
X008967Y005962D01*
X008957Y006060D02*
X009102Y006060D01*
X008957Y006159D02*
X010162Y006159D01*
X010069Y006257D02*
X008938Y006257D01*
X008897Y006356D02*
X009976Y006356D01*
X009883Y006454D02*
X008821Y006454D01*
X008697Y006553D02*
X009791Y006553D01*
X009698Y006651D02*
X007811Y006651D01*
X007909Y006750D02*
X009605Y006750D01*
X009513Y006848D02*
X007963Y006848D01*
X007932Y006772D02*
X008057Y007074D01*
X008057Y007400D01*
X007932Y007701D01*
X007932Y007701D01*
X007701Y007932D01*
X007400Y008057D01*
X007074Y008057D01*
X006772Y007932D01*
X006541Y007701D01*
X006417Y007400D01*
X006417Y007074D01*
X006541Y006772D01*
X006772Y006541D01*
X006772Y006541D01*
X007074Y006417D01*
X007274Y006417D01*
X007400Y006417D01*
X007701Y006541D01*
X007932Y006772D01*
X007932Y006772D01*
X008004Y006947D02*
X009420Y006947D01*
X009327Y007045D02*
X008045Y007045D01*
X008057Y007144D02*
X009234Y007144D01*
X009142Y007242D02*
X008057Y007242D01*
X008057Y007341D02*
X009049Y007341D01*
X008956Y007439D02*
X008040Y007439D01*
X008000Y007538D02*
X008864Y007538D01*
X008771Y007636D02*
X007959Y007636D01*
X007898Y007735D02*
X008678Y007735D01*
X008585Y007833D02*
X007800Y007833D01*
X007701Y007932D02*
X008493Y007932D01*
X008400Y008030D02*
X007464Y008030D01*
X007701Y007932D02*
X007701Y007932D01*
X008122Y008326D02*
X004940Y008326D01*
X004857Y008424D02*
X008029Y008424D01*
X007937Y008523D02*
X004775Y008523D01*
X004692Y008621D02*
X007844Y008621D01*
X007751Y008720D02*
X004610Y008720D01*
X004527Y008818D02*
X007658Y008818D01*
X007566Y008917D02*
X004444Y008917D01*
X004362Y009015D02*
X007473Y009015D01*
X007380Y009114D02*
X004279Y009114D01*
X004197Y009212D02*
X007288Y009212D01*
X007195Y009311D02*
X004114Y009311D01*
X004031Y009409D02*
X007102Y009409D01*
X007009Y009508D02*
X003949Y009508D01*
X003866Y009606D02*
X006917Y009606D01*
X006824Y009705D02*
X003784Y009705D01*
X003701Y009803D02*
X006731Y009803D01*
X006639Y009902D02*
X003618Y009902D01*
X003536Y010000D02*
X006546Y010000D01*
X006453Y010099D02*
X004313Y010099D01*
X004422Y010197D02*
X006360Y010197D01*
X006268Y010296D02*
X004492Y010296D01*
X004533Y010394D02*
X006175Y010394D01*
X006082Y010493D02*
X004548Y010493D01*
X004548Y010591D02*
X004667Y010591D01*
X004547Y010690D02*
X004523Y010690D01*
X004432Y010887D02*
X004398Y010887D01*
X004347Y010985D02*
X004256Y010985D01*
X003949Y011084D02*
X003003Y011084D01*
X002967Y011182D02*
X003552Y011182D01*
X003697Y010887D02*
X003076Y010887D01*
X003040Y010985D02*
X003840Y010985D01*
X003613Y010788D02*
X003113Y010788D01*
X003149Y010690D02*
X003573Y010690D01*
X003548Y010591D02*
X003185Y010591D01*
X003222Y010493D02*
X003548Y010493D01*
X003563Y010394D02*
X003258Y010394D01*
X003295Y010296D02*
X003604Y010296D01*
X003673Y010197D02*
X003371Y010197D01*
X003453Y010099D02*
X003783Y010099D01*
X003314Y009705D02*
X003135Y009705D01*
X003077Y009803D02*
X003231Y009803D01*
X003149Y009902D02*
X003019Y009902D01*
X003066Y010000D02*
X002961Y010000D01*
X002983Y010099D02*
X002903Y010099D01*
X002947Y010197D02*
X002845Y010197D01*
X002787Y010296D02*
X002911Y010296D01*
X002875Y010394D02*
X002730Y010394D01*
X002672Y010493D02*
X002838Y010493D01*
X002802Y010591D02*
X002614Y010591D01*
X002556Y010690D02*
X002765Y010690D01*
X002729Y010788D02*
X002509Y010788D01*
X002463Y010887D02*
X002692Y010887D01*
X002656Y010985D02*
X002416Y010985D01*
X002369Y011084D02*
X002619Y011084D01*
X002583Y011182D02*
X002323Y011182D01*
X002276Y011281D02*
X002547Y011281D01*
X002510Y011379D02*
X002229Y011379D01*
X002183Y011478D02*
X002474Y011478D01*
X002437Y011576D02*
X002136Y011576D01*
X002089Y011675D02*
X002401Y011675D01*
X002364Y011773D02*
X002043Y011773D01*
X001996Y011872D02*
X002328Y011872D01*
X002292Y011970D02*
X001949Y011970D01*
X001903Y012069D02*
X002255Y012069D01*
X002219Y012167D02*
X001856Y012167D01*
X001810Y012266D02*
X002182Y012266D01*
X002146Y012364D02*
X001774Y012364D01*
X001738Y012463D02*
X002109Y012463D01*
X002073Y012561D02*
X001701Y012561D01*
X001665Y012660D02*
X002036Y012660D01*
X002000Y012758D02*
X001628Y012758D01*
X001592Y012857D02*
X001964Y012857D01*
X001927Y012955D02*
X001556Y012955D01*
X001519Y013054D02*
X001891Y013054D01*
X001854Y013152D02*
X001483Y013152D01*
X001446Y013251D02*
X001818Y013251D01*
X001781Y013349D02*
X001410Y013349D01*
X001374Y013448D02*
X001745Y013448D01*
X001709Y013546D02*
X001337Y013546D01*
X001301Y013645D02*
X001672Y013645D01*
X001636Y013743D02*
X001264Y013743D01*
X001228Y013842D02*
X001599Y013842D01*
X001563Y013940D02*
X001198Y013940D01*
X001171Y014039D02*
X001526Y014039D01*
X001490Y014137D02*
X001144Y014137D01*
X001118Y014236D02*
X001454Y014236D01*
X001417Y014334D02*
X001091Y014334D01*
X001064Y014433D02*
X001381Y014433D01*
X001344Y014531D02*
X001037Y014531D01*
X001010Y014630D02*
X001308Y014630D01*
X001271Y014728D02*
X000984Y014728D01*
X000957Y014827D02*
X001235Y014827D01*
X001198Y014925D02*
X000930Y014925D01*
X000903Y015024D02*
X001162Y015024D01*
X001126Y015122D02*
X000877Y015122D01*
X000850Y015221D02*
X001089Y015221D01*
X001053Y015319D02*
X000823Y015319D01*
X000796Y015418D02*
X001016Y015418D01*
X000980Y015516D02*
X000769Y015516D01*
X000749Y015615D02*
X000943Y015615D01*
X000907Y015713D02*
X000731Y015713D01*
X000714Y015812D02*
X000871Y015812D01*
X000834Y015910D02*
X000696Y015910D01*
X000679Y016009D02*
X000798Y016009D01*
X000761Y016107D02*
X000661Y016107D01*
X000643Y016206D02*
X000725Y016206D01*
X000688Y016304D02*
X000626Y016304D01*
X000639Y016403D02*
X000608Y016403D01*
X000591Y016501D02*
X000636Y016501D01*
X000639Y016600D02*
X000573Y016600D01*
X000555Y016698D02*
X000639Y016698D01*
X000639Y016797D02*
X000538Y016797D01*
X000520Y016895D02*
X000639Y016895D01*
X000639Y016994D02*
X000502Y016994D01*
X000485Y017092D02*
X000639Y017092D01*
X000639Y017191D02*
X000467Y017191D01*
X000453Y017289D02*
X000639Y017289D01*
X000639Y017388D02*
X000445Y017388D01*
X000436Y017486D02*
X000639Y017486D01*
X000639Y017585D02*
X000427Y017585D01*
X000418Y017683D02*
X000639Y017683D01*
X000639Y017782D02*
X000410Y017782D01*
X000401Y017880D02*
X000639Y017880D01*
X000639Y017979D02*
X000392Y017979D01*
X000383Y018077D02*
X000725Y018077D01*
X000802Y018176D02*
X000375Y018176D01*
X000366Y018274D02*
X000874Y018274D01*
X001036Y018181D02*
X002197Y018181D01*
X002591Y018556D01*
X002591Y019264D01*
X002217Y019678D01*
X001351Y019678D01*
X001351Y020209D01*
X001585Y020441D02*
X002422Y020441D01*
X002422Y020343D02*
X001653Y020343D01*
X001681Y020244D02*
X002431Y020244D01*
X002422Y020540D02*
X000304Y020540D01*
X000304Y020638D02*
X002422Y020638D01*
X002422Y020737D02*
X000307Y020737D01*
X000316Y020835D02*
X002422Y020835D01*
X002422Y020934D02*
X000325Y020934D01*
X000334Y021032D02*
X002462Y021032D01*
X002300Y021348D02*
X002470Y021418D01*
X002599Y021547D01*
X002669Y021716D01*
X002669Y021899D01*
X002599Y022068D01*
X002470Y022198D01*
X002300Y022268D01*
X002117Y022268D01*
X001948Y022198D01*
X001878Y022128D01*
X001770Y022170D01*
X001791Y022331D01*
X001726Y022416D01*
X001404Y022458D01*
X001319Y022393D01*
X001243Y021818D01*
X001308Y021732D01*
X001630Y021690D01*
X001715Y021755D01*
X001722Y021802D01*
X001749Y021792D01*
X001749Y021716D01*
X001819Y021547D01*
X001948Y021418D01*
X002117Y021348D01*
X002300Y021348D01*
X002478Y021426D02*
X002826Y021426D01*
X002839Y021408D02*
X002795Y021469D01*
X002760Y021536D01*
X002737Y021608D01*
X002725Y021683D01*
X002725Y021732D01*
X003173Y021693D01*
X003232Y021688D01*
X003193Y021241D01*
X003243Y021241D01*
X003318Y021252D01*
X003389Y021276D01*
X003457Y021310D01*
X003518Y021354D01*
X003571Y021408D01*
X003616Y021469D01*
X003650Y021536D01*
X003673Y021608D01*
X003680Y021649D01*
X003232Y021688D01*
X003238Y021748D01*
X003685Y021709D01*
X003685Y021758D01*
X003673Y021833D01*
X003650Y021905D01*
X003616Y021972D01*
X003571Y022033D01*
X003518Y022087D01*
X003457Y022131D01*
X003389Y022165D01*
X003318Y022189D01*
X003277Y022195D01*
X003238Y021748D01*
X003178Y021753D01*
X003173Y021693D01*
X003134Y021246D01*
X003093Y021252D01*
X003021Y021276D01*
X002954Y021310D01*
X002892Y021354D01*
X002839Y021408D01*
X002930Y021328D02*
X000360Y021328D01*
X000369Y021426D02*
X001940Y021426D01*
X001842Y021525D02*
X000377Y021525D01*
X000386Y021623D02*
X001788Y021623D01*
X001749Y021722D02*
X001671Y021722D01*
X001389Y021722D02*
X000395Y021722D01*
X000404Y021820D02*
X000640Y021820D01*
X000502Y021919D02*
X000412Y021919D01*
X000421Y022017D02*
X000515Y022017D01*
X000528Y022116D02*
X000430Y022116D01*
X000438Y022214D02*
X000541Y022214D01*
X000511Y022313D02*
X000447Y022313D01*
X000456Y022411D02*
X000465Y022411D01*
X000524Y022709D02*
X000775Y022172D01*
X001008Y022116D02*
X001282Y022116D01*
X001295Y022214D02*
X001021Y022214D01*
X001034Y022313D02*
X001308Y022313D01*
X001343Y022411D02*
X001047Y022411D01*
X000987Y022510D02*
X003155Y022510D01*
X003125Y022525D02*
X003192Y022490D01*
X003264Y022467D01*
X003342Y022911D01*
X002899Y022989D01*
X002897Y022973D01*
X002897Y022897D01*
X002908Y022823D01*
X002932Y022751D01*
X002966Y022684D01*
X003011Y022623D01*
X003064Y022569D01*
X003125Y022525D01*
X003025Y022608D02*
X000770Y022608D01*
X000724Y022707D02*
X001750Y022707D01*
X001766Y022707D02*
X002161Y022707D01*
X002045Y022805D02*
X001854Y022805D01*
X001867Y022904D02*
X001979Y022904D01*
X001651Y023089D02*
X002392Y023109D01*
X003206Y023983D01*
X002040Y026489D01*
X003142Y029481D01*
X007433Y034599D01*
X008181Y034500D01*
X007938Y034724D02*
X007865Y034724D01*
X008096Y034822D02*
X007310Y034822D01*
X007300Y034724D02*
X007189Y034724D01*
X007221Y034625D02*
X007069Y034625D01*
X007138Y034527D02*
X006949Y034527D01*
X007055Y034428D02*
X006828Y034428D01*
X006796Y034402D02*
X006796Y034402D01*
X006722Y034330D02*
X006973Y034330D01*
X006890Y034231D02*
X006622Y034231D01*
X006521Y034133D02*
X006808Y034133D01*
X006725Y034034D02*
X006420Y034034D01*
X006319Y033936D02*
X006642Y033936D01*
X006560Y033837D02*
X006219Y033837D01*
X006118Y033739D02*
X006477Y033739D01*
X006395Y033640D02*
X006017Y033640D01*
X005917Y033542D02*
X006312Y033542D01*
X006230Y033443D02*
X005816Y033443D01*
X005715Y033345D02*
X006147Y033345D01*
X006064Y033246D02*
X005615Y033246D01*
X005521Y033148D02*
X005982Y033148D01*
X005899Y033049D02*
X005437Y033049D01*
X005353Y032951D02*
X005817Y032951D01*
X005734Y032852D02*
X005268Y032852D01*
X005184Y032754D02*
X005651Y032754D01*
X005569Y032655D02*
X005100Y032655D01*
X005015Y032557D02*
X005486Y032557D01*
X005404Y032458D02*
X004931Y032458D01*
X004847Y032360D02*
X005321Y032360D01*
X005238Y032261D02*
X004763Y032261D01*
X004678Y032163D02*
X005156Y032163D01*
X005073Y032064D02*
X004594Y032064D01*
X004510Y031966D02*
X004991Y031966D01*
X004908Y031867D02*
X004427Y031867D01*
X004357Y031769D02*
X004826Y031769D01*
X004743Y031670D02*
X004286Y031670D01*
X004216Y031572D02*
X004660Y031572D01*
X004578Y031473D02*
X004146Y031473D01*
X004076Y031375D02*
X004495Y031375D01*
X004413Y031276D02*
X004005Y031276D01*
X003935Y031178D02*
X004330Y031178D01*
X004247Y031079D02*
X003865Y031079D01*
X003795Y030981D02*
X004165Y030981D01*
X004082Y030882D02*
X003725Y030882D01*
X003654Y030784D02*
X004000Y030784D01*
X003917Y030685D02*
X003584Y030685D01*
X003514Y030587D02*
X003834Y030587D01*
X003752Y030488D02*
X003444Y030488D01*
X003384Y030390D02*
X003669Y030390D01*
X003587Y030291D02*
X003326Y030291D01*
X003268Y030193D02*
X003504Y030193D01*
X003422Y030094D02*
X003210Y030094D01*
X003152Y029996D02*
X003339Y029996D01*
X003256Y029897D02*
X003094Y029897D01*
X003036Y029799D02*
X003174Y029799D01*
X003091Y029700D02*
X002979Y029700D01*
X002995Y029602D02*
X002921Y029602D01*
X002959Y029503D02*
X002863Y029503D01*
X002805Y029405D02*
X002922Y029405D01*
X002886Y029306D02*
X002747Y029306D01*
X002689Y029208D02*
X002850Y029208D01*
X002813Y029109D02*
X002632Y029109D01*
X002574Y029011D02*
X002777Y029011D01*
X002741Y028912D02*
X002524Y028912D01*
X002477Y028814D02*
X002705Y028814D01*
X002668Y028715D02*
X002430Y028715D01*
X002384Y028617D02*
X002632Y028617D01*
X002596Y028518D02*
X002337Y028518D01*
X002290Y028420D02*
X002559Y028420D01*
X002523Y028321D02*
X002244Y028321D01*
X002197Y028223D02*
X002487Y028223D01*
X002450Y028124D02*
X002150Y028124D01*
X002103Y028026D02*
X002414Y028026D01*
X002378Y027927D02*
X002057Y027927D01*
X002010Y027829D02*
X002342Y027829D01*
X002305Y027730D02*
X001963Y027730D01*
X001917Y027632D02*
X002269Y027632D01*
X002233Y027533D02*
X001870Y027533D01*
X001823Y027435D02*
X002196Y027435D01*
X002160Y027336D02*
X001785Y027336D01*
X001749Y027238D02*
X002124Y027238D01*
X002088Y027139D02*
X001712Y027139D01*
X001676Y027041D02*
X002051Y027041D01*
X002015Y026942D02*
X001640Y026942D01*
X001603Y026844D02*
X001979Y026844D01*
X001942Y026745D02*
X001567Y026745D01*
X001530Y026647D02*
X001906Y026647D01*
X001870Y026548D02*
X001494Y026548D01*
X001458Y026450D02*
X001859Y026450D01*
X001905Y026351D02*
X001421Y026351D01*
X001385Y026253D02*
X001951Y026253D01*
X001908Y026345D02*
X001908Y026345D01*
X001997Y026154D02*
X001348Y026154D01*
X001312Y026056D02*
X002043Y026056D01*
X002089Y025957D02*
X001276Y025957D01*
X001239Y025859D02*
X002135Y025859D01*
X002180Y025760D02*
X001206Y025760D01*
X001179Y025662D02*
X002226Y025662D01*
X002272Y025563D02*
X001153Y025563D01*
X001126Y025465D02*
X002318Y025465D01*
X002364Y025366D02*
X001099Y025366D01*
X001072Y025268D02*
X002410Y025268D01*
X002456Y025169D02*
X001045Y025169D01*
X001019Y025071D02*
X002501Y025071D01*
X002547Y024972D02*
X000992Y024972D01*
X000965Y024874D02*
X001681Y024874D01*
X001535Y024775D02*
X001317Y024775D01*
X001213Y024619D02*
X000760Y024107D01*
X000524Y022709D01*
X000723Y022805D02*
X001001Y022805D01*
X001025Y022805D02*
X001064Y022805D01*
X001376Y023495D02*
X002127Y023495D01*
X002028Y023396D02*
X001886Y023396D01*
X001918Y023298D02*
X001972Y023298D01*
X002597Y023593D02*
X000856Y023593D01*
X000873Y023692D02*
X002689Y023692D01*
X002745Y023790D02*
X000889Y023790D01*
X000906Y023889D02*
X002706Y023889D01*
X002706Y023987D02*
X002154Y023987D01*
X002260Y024086D02*
X002707Y024086D01*
X002748Y024184D02*
X002328Y024184D01*
X002369Y024283D02*
X002798Y024283D01*
X002822Y024381D02*
X002383Y024381D01*
X002383Y024480D02*
X002776Y024480D01*
X002731Y024578D02*
X002357Y024578D01*
X002317Y024677D02*
X002685Y024677D01*
X002639Y024775D02*
X002232Y024775D01*
X002086Y024874D02*
X002593Y024874D01*
X002898Y025071D02*
X004651Y025071D01*
X004686Y025169D02*
X002853Y025169D01*
X002807Y025268D02*
X004721Y025268D01*
X004756Y025366D02*
X002761Y025366D01*
X002715Y025465D02*
X004792Y025465D01*
X004827Y025563D02*
X002669Y025563D01*
X002623Y025662D02*
X004862Y025662D01*
X004897Y025760D02*
X002577Y025760D01*
X002532Y025859D02*
X004933Y025859D01*
X004968Y025957D02*
X002486Y025957D01*
X002440Y026056D02*
X005011Y026056D01*
X005057Y026154D02*
X002394Y026154D01*
X002348Y026253D02*
X005104Y026253D01*
X005151Y026351D02*
X002302Y026351D01*
X002256Y026450D02*
X005197Y026450D01*
X005244Y026548D02*
X002254Y026548D01*
X002290Y026647D02*
X005290Y026647D01*
X005337Y026745D02*
X002326Y026745D01*
X002362Y026844D02*
X005384Y026844D01*
X005430Y026942D02*
X002399Y026942D01*
X002435Y027041D02*
X005477Y027041D01*
X005523Y027139D02*
X002471Y027139D01*
X002508Y027238D02*
X005570Y027238D01*
X005616Y027336D02*
X004875Y027336D01*
X004974Y027435D02*
X005666Y027435D01*
X005725Y027533D02*
X005029Y027533D01*
X005070Y027632D02*
X005784Y027632D01*
X005843Y027730D02*
X005074Y027730D01*
X005074Y027829D02*
X005902Y027829D01*
X005961Y027927D02*
X005039Y027927D01*
X004998Y028026D02*
X006020Y028026D01*
X006079Y028124D02*
X004899Y028124D01*
X005203Y028223D02*
X006138Y028223D01*
X006197Y028321D02*
X005302Y028321D01*
X005364Y028420D02*
X006256Y028420D01*
X006315Y028518D02*
X005404Y028518D01*
X005414Y028617D02*
X006374Y028617D01*
X006433Y028715D02*
X005414Y028715D01*
X005395Y028814D02*
X006499Y028814D01*
X006572Y028912D02*
X005511Y028912D01*
X005626Y029011D02*
X006645Y029011D01*
X006718Y029109D02*
X005742Y029109D01*
X005858Y029208D02*
X006791Y029208D01*
X006864Y029306D02*
X005973Y029306D01*
X006089Y029405D02*
X006937Y029405D01*
X007010Y029503D02*
X006205Y029503D01*
X006320Y029602D02*
X007083Y029602D01*
X007156Y029700D02*
X006436Y029700D01*
X006552Y029799D02*
X007229Y029799D01*
X007302Y029897D02*
X006667Y029897D01*
X006783Y029996D02*
X007375Y029996D01*
X007458Y030094D02*
X006899Y030094D01*
X007015Y030193D02*
X007547Y030193D01*
X007636Y030291D02*
X007130Y030291D01*
X007246Y030390D02*
X007726Y030390D01*
X007815Y030488D02*
X007362Y030488D01*
X007477Y030587D02*
X007904Y030587D01*
X007993Y030685D02*
X007593Y030685D01*
X007709Y030784D02*
X008083Y030784D01*
X008172Y030882D02*
X007824Y030882D01*
X007940Y030981D02*
X008261Y030981D01*
X008351Y031079D02*
X008056Y031079D01*
X008171Y031178D02*
X008440Y031178D01*
X008465Y031205D02*
X008465Y031205D01*
X008543Y031276D02*
X008287Y031276D01*
X008403Y031375D02*
X008652Y031375D01*
X008760Y031473D02*
X008518Y031473D01*
X008634Y031572D02*
X008869Y031572D01*
X008978Y031670D02*
X008750Y031670D01*
X008865Y031769D02*
X009086Y031769D01*
X008981Y031867D02*
X009195Y031867D01*
X009097Y031966D02*
X009304Y031966D01*
X009212Y032064D02*
X009412Y032064D01*
X009328Y032163D02*
X009521Y032163D01*
X009444Y032261D02*
X009630Y032261D01*
X009634Y032265D02*
X009634Y032265D01*
X009559Y032360D02*
X009762Y032360D01*
X009727Y032458D02*
X009894Y032458D01*
X009898Y032557D02*
X010027Y032557D01*
X010069Y032655D02*
X010160Y032655D01*
X010240Y032754D02*
X010293Y032754D01*
X010411Y032852D02*
X010426Y032852D01*
X010203Y033148D02*
X009093Y033148D01*
X009144Y033169D02*
X008960Y033092D01*
X008761Y033092D01*
X008577Y033169D01*
X008437Y033309D01*
X008361Y033493D01*
X008361Y033692D01*
X008437Y033876D01*
X008577Y034016D01*
X008761Y034092D01*
X008960Y034092D01*
X009144Y034016D01*
X009284Y033876D01*
X009361Y033692D01*
X009361Y033493D01*
X009284Y033309D01*
X009144Y033169D01*
X009221Y033246D02*
X010373Y033246D01*
X010544Y033345D02*
X009299Y033345D01*
X009340Y033443D02*
X010715Y033443D01*
X010886Y033542D02*
X009361Y033542D01*
X009361Y033640D02*
X011057Y033640D01*
X011227Y033739D02*
X009341Y033739D01*
X009300Y033837D02*
X011398Y033837D01*
X011569Y033936D02*
X009225Y033936D01*
X009101Y034034D02*
X011740Y034034D01*
X011911Y034133D02*
X007277Y034133D01*
X007360Y034231D02*
X007984Y034231D01*
X007895Y034330D02*
X007443Y034330D01*
X007195Y034034D02*
X008620Y034034D01*
X008497Y033936D02*
X007112Y033936D01*
X007030Y033837D02*
X008421Y033837D01*
X008380Y033739D02*
X006947Y033739D01*
X006864Y033640D02*
X008361Y033640D01*
X008361Y033542D02*
X006782Y033542D01*
X006699Y033443D02*
X008381Y033443D01*
X008422Y033345D02*
X006617Y033345D01*
X006534Y033246D02*
X007056Y033246D01*
X007074Y033253D02*
X006772Y033129D01*
X006772Y033129D01*
X006541Y032898D01*
X006417Y032597D01*
X006417Y032270D01*
X006541Y031969D01*
X006772Y031738D01*
X006772Y031738D01*
X006772Y031738D01*
X007074Y031613D01*
X007199Y031613D01*
X007400Y031613D01*
X007701Y031738D01*
X007932Y031969D01*
X008057Y032270D01*
X008057Y032597D01*
X007932Y032898D01*
X007701Y033129D01*
X007400Y033253D01*
X007074Y033253D01*
X006818Y033148D02*
X006452Y033148D01*
X006369Y033049D02*
X006693Y033049D01*
X006594Y032951D02*
X006286Y032951D01*
X006204Y032852D02*
X006522Y032852D01*
X006541Y032898D02*
X006541Y032898D01*
X006482Y032754D02*
X006121Y032754D01*
X006039Y032655D02*
X006441Y032655D01*
X006417Y032557D02*
X005956Y032557D01*
X005873Y032458D02*
X006417Y032458D01*
X006417Y032360D02*
X005791Y032360D01*
X005708Y032261D02*
X006420Y032261D01*
X006461Y032163D02*
X005626Y032163D01*
X005543Y032064D02*
X006502Y032064D01*
X006541Y031969D02*
X006541Y031969D01*
X006545Y031966D02*
X005460Y031966D01*
X005378Y031867D02*
X006643Y031867D01*
X006742Y031769D02*
X005295Y031769D01*
X005213Y031670D02*
X006937Y031670D01*
X007536Y031670D02*
X008194Y031670D01*
X008079Y031572D02*
X005130Y031572D01*
X005048Y031473D02*
X007963Y031473D01*
X007847Y031375D02*
X004965Y031375D01*
X004882Y031276D02*
X007732Y031276D01*
X007616Y031178D02*
X004800Y031178D01*
X004717Y031079D02*
X007500Y031079D01*
X007385Y030981D02*
X004635Y030981D01*
X004552Y030882D02*
X007269Y030882D01*
X007153Y030784D02*
X004469Y030784D01*
X004387Y030685D02*
X007038Y030685D01*
X006922Y030587D02*
X004304Y030587D01*
X004222Y030488D02*
X006806Y030488D01*
X006691Y030390D02*
X004139Y030390D01*
X004056Y030291D02*
X006575Y030291D01*
X006459Y030193D02*
X003974Y030193D01*
X003891Y030094D02*
X006344Y030094D01*
X006228Y029996D02*
X003809Y029996D01*
X003726Y029897D02*
X006112Y029897D01*
X005997Y029799D02*
X003644Y029799D01*
X003561Y029700D02*
X005881Y029700D01*
X005765Y029602D02*
X004240Y029602D01*
X004392Y029503D02*
X005649Y029503D01*
X005534Y029405D02*
X004479Y029405D01*
X004520Y029306D02*
X005418Y029306D01*
X005302Y029208D02*
X004548Y029208D01*
X004548Y029109D02*
X004739Y029109D01*
X004577Y029011D02*
X004535Y029011D01*
X004444Y028814D02*
X004428Y028814D01*
X004414Y028715D02*
X004328Y028715D01*
X004414Y028617D02*
X003528Y028617D01*
X003453Y028617D02*
X003371Y028617D01*
X003335Y028518D02*
X003417Y028518D01*
X003381Y028420D02*
X003299Y028420D01*
X003263Y028321D02*
X003346Y028321D01*
X003310Y028223D02*
X003234Y028223D01*
X003202Y028152D02*
X003274Y028126D01*
X003274Y028124D02*
X003192Y028124D01*
X003202Y028152D02*
X003038Y027700D01*
X002979Y027730D01*
X003048Y027730D02*
X003130Y027730D01*
X003166Y027829D02*
X003084Y027829D01*
X003120Y027927D02*
X003202Y027927D01*
X003238Y028026D02*
X003156Y028026D01*
X002862Y027829D02*
X002725Y027829D01*
X002762Y027927D02*
X002794Y027927D01*
X002616Y027533D02*
X004120Y027533D01*
X004175Y027435D02*
X002580Y027435D01*
X002544Y027336D02*
X004273Y027336D01*
X004428Y028223D02*
X003770Y028223D01*
X003751Y028321D02*
X004526Y028321D01*
X004464Y028420D02*
X003710Y028420D01*
X003644Y028518D02*
X004423Y028518D01*
X004914Y028640D02*
X009461Y032512D01*
X014855Y035622D01*
X019894Y036213D01*
X023851Y035839D01*
X026823Y034678D01*
X028134Y035237D01*
X027666Y035413D02*
X025435Y035413D01*
X025183Y035512D02*
X027707Y035512D01*
X027801Y035610D02*
X024931Y035610D01*
X024679Y035709D02*
X027967Y035709D01*
X028301Y035709D02*
X028463Y035709D01*
X028468Y035610D02*
X028499Y035610D01*
X028428Y035807D02*
X026712Y035807D01*
X026838Y035906D02*
X028393Y035906D01*
X028358Y036004D02*
X026915Y036004D01*
X026955Y036103D02*
X028323Y036103D01*
X028288Y036201D02*
X026976Y036201D01*
X026976Y036300D02*
X028253Y036300D01*
X028094Y036398D02*
X026956Y036398D01*
X026915Y036497D02*
X027925Y036497D01*
X027756Y036595D02*
X026838Y036595D01*
X026712Y036694D02*
X027587Y036694D01*
X027418Y036792D02*
X026470Y036792D01*
X026434Y036891D02*
X027249Y036891D01*
X027080Y036989D02*
X026398Y036989D01*
X026362Y037088D02*
X026911Y037088D01*
X026742Y037186D02*
X026326Y037186D01*
X026290Y037285D02*
X026573Y037285D01*
X026403Y037383D02*
X026254Y037383D01*
X026370Y037611D02*
X025949Y037693D01*
X026476Y036250D01*
X026113Y035906D02*
X024175Y035906D01*
X023948Y036004D02*
X026036Y036004D01*
X025996Y036103D02*
X022975Y036103D01*
X022711Y036786D02*
X022512Y036786D01*
X022329Y036862D01*
X022188Y037003D01*
X022112Y037186D01*
X020321Y037186D01*
X020335Y037151D02*
X020259Y037335D01*
X020118Y037475D01*
X019934Y037552D01*
X019736Y037552D01*
X019552Y037475D01*
X019411Y037335D01*
X019335Y037151D01*
X019335Y036952D01*
X019411Y036768D01*
X019552Y036628D01*
X019736Y036552D01*
X019934Y036552D01*
X020118Y036628D01*
X020259Y036768D01*
X020335Y036952D01*
X020335Y037151D01*
X020335Y037088D02*
X022153Y037088D01*
X022112Y037186D02*
X022112Y037385D01*
X022188Y037569D01*
X022329Y037710D01*
X022512Y037786D01*
X022711Y037786D01*
X022895Y037710D01*
X023036Y037569D01*
X023112Y037385D01*
X023112Y037186D01*
X025943Y037186D01*
X025979Y037088D02*
X023071Y037088D01*
X023036Y037003D02*
X023112Y037186D01*
X023112Y037285D02*
X025907Y037285D01*
X025871Y037383D02*
X023112Y037383D01*
X023072Y037482D02*
X025835Y037482D01*
X025949Y037693D02*
X019835Y038811D01*
X017000Y038260D01*
X016394Y037406D01*
X016819Y037580D02*
X016919Y037580D01*
X016919Y037671D02*
X016919Y037488D01*
X016989Y037319D01*
X017118Y037189D01*
X017287Y037119D01*
X017470Y037119D01*
X017639Y037189D01*
X017769Y037319D01*
X017839Y037488D01*
X017839Y037671D01*
X017769Y037840D01*
X017639Y037969D01*
X017470Y038039D01*
X017287Y038039D01*
X017118Y037969D01*
X016989Y037840D01*
X016919Y037671D01*
X016922Y037679D02*
X016808Y037679D01*
X016878Y037777D02*
X016963Y037777D01*
X016948Y037876D02*
X017024Y037876D01*
X017018Y037974D02*
X017130Y037974D01*
X017088Y038073D02*
X019335Y038073D01*
X019335Y038151D02*
X019335Y037952D01*
X019411Y037768D01*
X019552Y037628D01*
X019736Y037552D01*
X019934Y037552D01*
X020118Y037628D01*
X020259Y037768D01*
X020335Y037952D01*
X020335Y038151D01*
X020259Y038335D01*
X020118Y038475D01*
X019934Y038552D01*
X019736Y038552D01*
X019552Y038475D01*
X019411Y038335D01*
X019335Y038151D01*
X019343Y038171D02*
X017485Y038171D01*
X017628Y037974D02*
X019335Y037974D01*
X019367Y037876D02*
X017733Y037876D01*
X017795Y037777D02*
X019408Y037777D01*
X019501Y037679D02*
X017835Y037679D01*
X017839Y037580D02*
X019667Y037580D01*
X019567Y037482D02*
X017836Y037482D01*
X017795Y037383D02*
X019459Y037383D01*
X019390Y037285D02*
X017734Y037285D01*
X017631Y037186D02*
X019350Y037186D01*
X019335Y037088D02*
X016726Y037088D01*
X016801Y037186D02*
X017126Y037186D01*
X017023Y037285D02*
X016842Y037285D01*
X016854Y037383D02*
X016962Y037383D01*
X016921Y037482D02*
X016854Y037482D01*
X016507Y037876D02*
X015965Y037876D01*
X016035Y037974D02*
X016577Y037974D01*
X016646Y038073D02*
X016106Y038073D01*
X016176Y038171D02*
X016716Y038171D01*
X016786Y038270D02*
X016247Y038270D01*
X016174Y038477D02*
X019835Y039126D01*
X026449Y037945D01*
X029028Y036449D01*
X029866Y034237D01*
X030524Y032197D01*
X034107Y028772D01*
X036587Y020032D01*
X037532Y018835D01*
X037722Y018373D02*
X039320Y018373D01*
X039325Y018471D02*
X037875Y018471D01*
X037963Y018570D02*
X039329Y018570D01*
X039333Y018668D02*
X038004Y018668D01*
X038032Y018767D02*
X039338Y018767D01*
X039342Y018865D02*
X038032Y018865D01*
X038020Y018964D02*
X039346Y018964D01*
X039351Y019062D02*
X037979Y019062D01*
X037913Y019161D02*
X039355Y019161D01*
X039360Y019259D02*
X037815Y019259D01*
X037686Y019358D02*
X039364Y019358D01*
X039368Y019456D02*
X037860Y019456D01*
X037957Y019555D02*
X039373Y019555D01*
X039377Y019653D02*
X037998Y019653D01*
X038032Y019752D02*
X039381Y019752D01*
X039384Y019850D02*
X038032Y019850D01*
X038026Y019949D02*
X039380Y019949D01*
X039376Y020047D02*
X037985Y020047D01*
X038032Y020146D02*
X039371Y020146D01*
X039367Y020244D02*
X038115Y020244D01*
X038199Y020343D02*
X039363Y020343D01*
X039358Y020441D02*
X038283Y020441D01*
X038366Y020540D02*
X039354Y020540D01*
X039350Y020638D02*
X038450Y020638D01*
X038546Y020737D02*
X039345Y020737D01*
X039341Y020835D02*
X038602Y020835D01*
X038594Y020934D02*
X039336Y020934D01*
X039332Y021032D02*
X038559Y021032D01*
X038529Y021131D02*
X039328Y021131D01*
X039323Y021229D02*
X038499Y021229D01*
X038469Y021328D02*
X039319Y021328D01*
X039315Y021426D02*
X038438Y021426D01*
X038408Y021525D02*
X039310Y021525D01*
X039301Y021623D02*
X038378Y021623D01*
X038348Y021722D02*
X039287Y021722D01*
X039274Y021820D02*
X038318Y021820D01*
X038288Y021919D02*
X039261Y021919D01*
X039248Y022017D02*
X038258Y022017D01*
X038228Y022116D02*
X039235Y022116D01*
X039222Y022214D02*
X038198Y022214D01*
X038167Y022313D02*
X039208Y022313D01*
X039195Y022411D02*
X038137Y022411D01*
X038107Y022510D02*
X039182Y022510D01*
X039169Y022608D02*
X038077Y022608D01*
X038047Y022707D02*
X039156Y022707D01*
X039143Y022805D02*
X038017Y022805D01*
X037987Y022904D02*
X039130Y022904D01*
X039116Y023002D02*
X037957Y023002D01*
X037926Y023101D02*
X039103Y023101D01*
X039090Y023199D02*
X037896Y023199D01*
X037866Y023298D02*
X039075Y023298D01*
X039053Y023396D02*
X037836Y023396D01*
X037806Y023495D02*
X039031Y023495D01*
X039009Y023593D02*
X037776Y023593D01*
X037746Y023692D02*
X038986Y023692D01*
X038964Y023790D02*
X037716Y023790D01*
X037685Y023889D02*
X038942Y023889D01*
X038920Y023987D02*
X037655Y023987D01*
X037625Y024086D02*
X038898Y024086D01*
X038876Y024184D02*
X037595Y024184D01*
X037565Y024283D02*
X038854Y024283D01*
X038831Y024381D02*
X037535Y024381D01*
X037505Y024480D02*
X038809Y024480D01*
X038787Y024578D02*
X037547Y024578D01*
X037610Y024677D02*
X038765Y024677D01*
X038743Y024775D02*
X037651Y024775D01*
X037655Y024874D02*
X038721Y024874D01*
X038698Y024972D02*
X037654Y024972D01*
X037613Y025071D02*
X038666Y025071D01*
X038635Y025169D02*
X037554Y025169D01*
X037454Y025268D02*
X038603Y025268D01*
X038572Y025366D02*
X036967Y025366D01*
X036945Y025357D02*
X037114Y025427D01*
X037243Y025556D01*
X037313Y025725D01*
X037313Y025908D01*
X037243Y026077D01*
X037114Y026207D01*
X037072Y026224D01*
X037236Y027977D01*
X037254Y028017D01*
X037242Y028048D01*
X037246Y028081D01*
X037218Y028115D01*
X036711Y029485D01*
X036714Y029519D01*
X036686Y029553D01*
X036671Y029593D01*
X036640Y029608D01*
X032410Y034672D01*
X032409Y034691D01*
X032364Y034727D01*
X032327Y034771D01*
X032308Y034773D01*
X032293Y034785D01*
X032236Y034780D01*
X032178Y034785D01*
X032164Y034773D01*
X031690Y034726D01*
X031616Y034800D01*
X031495Y034850D01*
X031364Y034850D01*
X031243Y034800D01*
X031150Y034707D01*
X031100Y034586D01*
X031100Y034454D01*
X031150Y034333D01*
X031243Y034240D01*
X031364Y034190D01*
X031495Y034190D01*
X031616Y034240D01*
X031709Y034333D01*
X031724Y034368D01*
X032159Y034410D01*
X036370Y029369D01*
X036876Y028000D01*
X036713Y026257D01*
X036592Y026207D01*
X036463Y026077D01*
X036393Y025908D01*
X036393Y025725D01*
X036463Y025556D01*
X036592Y025427D01*
X036762Y025357D01*
X036945Y025357D01*
X036936Y025268D02*
X035288Y025268D01*
X035260Y025366D02*
X036739Y025366D01*
X036555Y025465D02*
X035232Y025465D01*
X035204Y025563D02*
X036460Y025563D01*
X036419Y025662D02*
X035177Y025662D01*
X035149Y025760D02*
X036393Y025760D01*
X036393Y025859D02*
X035121Y025859D01*
X035093Y025957D02*
X036413Y025957D01*
X036454Y026056D02*
X035065Y026056D01*
X035037Y026154D02*
X036540Y026154D01*
X036703Y026253D02*
X035009Y026253D01*
X034981Y026351D02*
X036722Y026351D01*
X036731Y026450D02*
X034953Y026450D01*
X034925Y026548D02*
X036741Y026548D01*
X036750Y026647D02*
X034897Y026647D01*
X034869Y026745D02*
X036759Y026745D01*
X036768Y026844D02*
X034841Y026844D01*
X034813Y026942D02*
X036777Y026942D01*
X036787Y027041D02*
X034785Y027041D01*
X034757Y027139D02*
X036796Y027139D01*
X036805Y027238D02*
X034729Y027238D01*
X034701Y027336D02*
X036814Y027336D01*
X036824Y027435D02*
X034673Y027435D01*
X034645Y027533D02*
X036833Y027533D01*
X036842Y027632D02*
X034617Y027632D01*
X034589Y027730D02*
X036851Y027730D01*
X036860Y027829D02*
X034562Y027829D01*
X034534Y027927D02*
X036870Y027927D01*
X036867Y028026D02*
X034506Y028026D01*
X034478Y028124D02*
X036831Y028124D01*
X036794Y028223D02*
X035046Y028223D01*
X035144Y028321D02*
X036758Y028321D01*
X036721Y028420D02*
X035206Y028420D01*
X035247Y028518D02*
X036685Y028518D01*
X036648Y028617D02*
X035256Y028617D01*
X035256Y028715D02*
X035342Y028715D01*
X035242Y028814D02*
X035226Y028814D01*
X035135Y029011D02*
X035093Y029011D01*
X035122Y029109D02*
X034931Y029109D01*
X035122Y029208D02*
X033912Y029208D01*
X033809Y029306D02*
X035150Y029306D01*
X035191Y029405D02*
X033706Y029405D01*
X033603Y029503D02*
X035278Y029503D01*
X035430Y029602D02*
X033500Y029602D01*
X033396Y029700D02*
X036094Y029700D01*
X036176Y029602D02*
X035815Y029602D01*
X035967Y029503D02*
X036258Y029503D01*
X036341Y029405D02*
X036054Y029405D01*
X036095Y029306D02*
X036393Y029306D01*
X036430Y029208D02*
X036122Y029208D01*
X036122Y029109D02*
X036466Y029109D01*
X036503Y029011D02*
X036110Y029011D01*
X036069Y028912D02*
X036539Y028912D01*
X036576Y028814D02*
X036003Y028814D01*
X035903Y028715D02*
X036612Y028715D01*
X036959Y028814D02*
X037181Y028814D01*
X037129Y028912D02*
X036923Y028912D01*
X036886Y029011D02*
X037076Y029011D01*
X037024Y029109D02*
X036850Y029109D01*
X036814Y029208D02*
X036972Y029208D01*
X036920Y029306D02*
X036777Y029306D01*
X036741Y029405D02*
X036868Y029405D01*
X036816Y029503D02*
X036712Y029503D01*
X036764Y029602D02*
X036653Y029602D01*
X036712Y029700D02*
X036563Y029700D01*
X036481Y029799D02*
X036652Y029799D01*
X036588Y029897D02*
X036398Y029897D01*
X036316Y029996D02*
X036524Y029996D01*
X036460Y030094D02*
X036234Y030094D01*
X036151Y030193D02*
X036396Y030193D01*
X036333Y030291D02*
X036069Y030291D01*
X035987Y030390D02*
X036269Y030390D01*
X036205Y030488D02*
X035905Y030488D01*
X035822Y030587D02*
X036141Y030587D01*
X036077Y030685D02*
X035740Y030685D01*
X035658Y030784D02*
X036013Y030784D01*
X035949Y030882D02*
X035576Y030882D01*
X035493Y030981D02*
X035886Y030981D01*
X035822Y031079D02*
X035411Y031079D01*
X035329Y031178D02*
X035758Y031178D01*
X035682Y031276D02*
X035246Y031276D01*
X035164Y031375D02*
X035605Y031375D01*
X035528Y031473D02*
X035082Y031473D01*
X035000Y031572D02*
X035451Y031572D01*
X035374Y031670D02*
X034917Y031670D01*
X034835Y031769D02*
X035297Y031769D01*
X035220Y031867D02*
X034753Y031867D01*
X034671Y031966D02*
X035143Y031966D01*
X035066Y032064D02*
X034588Y032064D01*
X034506Y032163D02*
X034989Y032163D01*
X034912Y032261D02*
X034424Y032261D01*
X034341Y032360D02*
X034834Y032360D01*
X034757Y032458D02*
X034259Y032458D01*
X034177Y032557D02*
X034679Y032557D01*
X034587Y032655D02*
X034095Y032655D01*
X034012Y032754D02*
X034495Y032754D01*
X034403Y032852D02*
X033930Y032852D01*
X033848Y032951D02*
X034310Y032951D01*
X034218Y033049D02*
X033766Y033049D01*
X033683Y033148D02*
X034126Y033148D01*
X034034Y033246D02*
X033601Y033246D01*
X033519Y033345D02*
X033942Y033345D01*
X033850Y033443D02*
X033436Y033443D01*
X033354Y033542D02*
X033757Y033542D01*
X033665Y033640D02*
X033272Y033640D01*
X033190Y033739D02*
X033573Y033739D01*
X033476Y033837D02*
X033107Y033837D01*
X033025Y033936D02*
X033366Y033936D01*
X033256Y034034D02*
X032943Y034034D01*
X032861Y034133D02*
X033146Y034133D01*
X033036Y034231D02*
X032778Y034231D01*
X032696Y034330D02*
X032926Y034330D01*
X032816Y034428D02*
X032614Y034428D01*
X032531Y034527D02*
X032706Y034527D01*
X032596Y034625D02*
X032449Y034625D01*
X032486Y034724D02*
X032368Y034724D01*
X032376Y034822D02*
X031563Y034822D01*
X031296Y034822D02*
X029837Y034822D01*
X029800Y034921D02*
X032266Y034921D01*
X032144Y035019D02*
X029762Y035019D01*
X029725Y035118D02*
X032012Y035118D01*
X031880Y035216D02*
X029688Y035216D01*
X029650Y035315D02*
X031748Y035315D01*
X031616Y035413D02*
X029613Y035413D01*
X029576Y035512D02*
X031484Y035512D01*
X031352Y035610D02*
X029538Y035610D01*
X029501Y035709D02*
X031221Y035709D01*
X031089Y035807D02*
X029464Y035807D01*
X029426Y035906D02*
X030957Y035906D01*
X030824Y036004D02*
X029389Y036004D01*
X029352Y036103D02*
X030664Y036103D01*
X030505Y036201D02*
X029314Y036201D01*
X029277Y036300D02*
X030345Y036300D01*
X030186Y036398D02*
X029240Y036398D01*
X029202Y036497D02*
X030026Y036497D01*
X029866Y036595D02*
X029142Y036595D01*
X028965Y036694D02*
X029707Y036694D01*
X029547Y036792D02*
X028796Y036792D01*
X028626Y036891D02*
X029388Y036891D01*
X029198Y036989D02*
X028456Y036989D01*
X028286Y037088D02*
X029001Y037088D01*
X028805Y037186D02*
X028116Y037186D01*
X027947Y037285D02*
X028608Y037285D01*
X028412Y037383D02*
X027777Y037383D01*
X027607Y037482D02*
X028215Y037482D01*
X028019Y037580D02*
X027437Y037580D01*
X027268Y037679D02*
X027822Y037679D01*
X027575Y037777D02*
X027098Y037777D01*
X026928Y037876D02*
X027326Y037876D01*
X027076Y037974D02*
X026758Y037974D01*
X026827Y038073D02*
X026588Y038073D01*
X026577Y038171D02*
X026209Y038171D01*
X026328Y038270D02*
X025657Y038270D01*
X025703Y038467D02*
X024554Y038467D01*
X024705Y038762D02*
X022899Y038762D01*
X022806Y039156D02*
X020693Y039156D01*
X020632Y039353D02*
X018993Y039353D01*
X018972Y039156D02*
X016976Y039156D01*
X017307Y038861D02*
X015411Y038861D01*
X015015Y038762D02*
X016751Y038762D01*
X016856Y038368D02*
X016591Y038368D01*
X016174Y038477D02*
X015156Y037054D01*
X015502Y036694D02*
X019486Y036694D01*
X019401Y036792D02*
X015588Y036792D01*
X015629Y036891D02*
X019361Y036891D01*
X019335Y036989D02*
X016590Y036989D01*
X016198Y036989D02*
X015656Y036989D01*
X015656Y037088D02*
X016061Y037088D01*
X015987Y037186D02*
X015642Y037186D01*
X015601Y037285D02*
X015946Y037285D01*
X015934Y037383D02*
X015612Y037383D01*
X015683Y037482D02*
X015934Y037482D01*
X015968Y037580D02*
X015753Y037580D01*
X015824Y037679D02*
X016016Y037679D01*
X016115Y037777D02*
X015894Y037777D01*
X015592Y037974D02*
X012555Y037974D01*
X012334Y037876D02*
X015522Y037876D01*
X015452Y037777D02*
X012114Y037777D01*
X011894Y037679D02*
X015381Y037679D01*
X015311Y037580D02*
X011673Y037580D01*
X011453Y037482D02*
X014881Y037482D01*
X014777Y037383D02*
X011233Y037383D01*
X011025Y037285D02*
X014710Y037285D01*
X014669Y037186D02*
X010848Y037186D01*
X010672Y037088D02*
X014656Y037088D01*
X014656Y036989D02*
X010495Y036989D01*
X010319Y036891D02*
X014682Y036891D01*
X014723Y036792D02*
X010142Y036792D01*
X009965Y036694D02*
X014809Y036694D01*
X014958Y036595D02*
X009789Y036595D01*
X009612Y036497D02*
X026036Y036497D01*
X025996Y036398D02*
X019950Y036398D01*
X019927Y036398D02*
X019849Y036398D01*
X019835Y036398D02*
X009459Y036398D01*
X009314Y036300D02*
X019087Y036300D01*
X019631Y036595D02*
X015353Y036595D01*
X015724Y035906D02*
X008735Y035906D01*
X008880Y036004D02*
X016565Y036004D01*
X017405Y036103D02*
X009025Y036103D01*
X009169Y036201D02*
X018246Y036201D01*
X020040Y036595D02*
X026113Y036595D01*
X026122Y036694D02*
X020184Y036694D01*
X020269Y036792D02*
X022497Y036792D01*
X022711Y036786D02*
X022895Y036862D01*
X023036Y037003D01*
X023022Y036989D02*
X026015Y036989D01*
X026050Y036891D02*
X022924Y036891D01*
X022727Y036792D02*
X026086Y036792D01*
X025976Y036300D02*
X020891Y036300D01*
X020310Y036891D02*
X022300Y036891D01*
X022201Y036989D02*
X020335Y036989D01*
X020280Y037285D02*
X022112Y037285D01*
X022112Y037383D02*
X020211Y037383D01*
X020103Y037482D02*
X022152Y037482D01*
X022199Y037580D02*
X020003Y037580D01*
X020169Y037679D02*
X022298Y037679D01*
X022492Y037777D02*
X020263Y037777D01*
X020303Y037876D02*
X023950Y037876D01*
X024488Y037777D02*
X022732Y037777D01*
X022926Y037679D02*
X025027Y037679D01*
X025565Y037580D02*
X023025Y037580D01*
X022873Y038073D02*
X020335Y038073D01*
X020327Y038171D02*
X022335Y038171D01*
X022347Y038861D02*
X024290Y038861D01*
X024002Y038565D02*
X025370Y038565D01*
X025105Y038368D02*
X026036Y038368D01*
X026370Y037611D02*
X028398Y036430D01*
X029000Y034737D01*
X029997Y034724D02*
X031166Y034724D01*
X031116Y034625D02*
X030185Y034625D01*
X030284Y034527D02*
X031100Y034527D01*
X031110Y034428D02*
X030328Y034428D01*
X030366Y034330D02*
X031153Y034330D01*
X031265Y034231D02*
X030366Y034231D01*
X030365Y034133D02*
X032392Y034133D01*
X032309Y034231D02*
X031594Y034231D01*
X031706Y034330D02*
X032227Y034330D01*
X032237Y034599D02*
X031430Y034520D01*
X032237Y034599D02*
X036528Y029461D01*
X037059Y028024D01*
X036853Y025817D01*
X037166Y026154D02*
X038319Y026154D01*
X038288Y026253D02*
X037075Y026253D01*
X037084Y026351D02*
X038256Y026351D01*
X038225Y026450D02*
X037093Y026450D01*
X037102Y026548D02*
X038193Y026548D01*
X038158Y026647D02*
X037111Y026647D01*
X037121Y026745D02*
X038117Y026745D01*
X038075Y026844D02*
X037130Y026844D01*
X037139Y026942D02*
X038034Y026942D01*
X037993Y027041D02*
X037148Y027041D01*
X037157Y027139D02*
X037951Y027139D01*
X037910Y027238D02*
X037167Y027238D01*
X037176Y027336D02*
X037868Y027336D01*
X037827Y027435D02*
X037185Y027435D01*
X037194Y027533D02*
X037785Y027533D01*
X037744Y027632D02*
X037204Y027632D01*
X037213Y027730D02*
X037703Y027730D01*
X037661Y027829D02*
X037222Y027829D01*
X037231Y027927D02*
X037620Y027927D01*
X037578Y028026D02*
X037251Y028026D01*
X037214Y028124D02*
X037537Y028124D01*
X037494Y028223D02*
X037178Y028223D01*
X037141Y028321D02*
X037441Y028321D01*
X037389Y028420D02*
X037105Y028420D01*
X037069Y028518D02*
X037337Y028518D01*
X037285Y028617D02*
X037032Y028617D01*
X036996Y028715D02*
X037233Y028715D01*
X036011Y029799D02*
X033293Y029799D01*
X033190Y029897D02*
X035929Y029897D01*
X035847Y029996D02*
X033087Y029996D01*
X032984Y030094D02*
X035765Y030094D01*
X035682Y030193D02*
X032881Y030193D01*
X032778Y030291D02*
X035600Y030291D01*
X035518Y030390D02*
X032675Y030390D01*
X032572Y030488D02*
X035436Y030488D01*
X035353Y030587D02*
X032469Y030587D01*
X032366Y030685D02*
X035271Y030685D01*
X035189Y030784D02*
X032263Y030784D01*
X032160Y030882D02*
X035106Y030882D01*
X035024Y030981D02*
X032057Y030981D01*
X031954Y031079D02*
X034942Y031079D01*
X034860Y031178D02*
X031851Y031178D01*
X031748Y031276D02*
X034777Y031276D01*
X034695Y031375D02*
X031645Y031375D01*
X031542Y031473D02*
X034613Y031473D01*
X034531Y031572D02*
X031439Y031572D01*
X031336Y031670D02*
X032134Y031670D01*
X032270Y031613D02*
X032396Y031613D01*
X032597Y031613D01*
X032898Y031738D01*
X033129Y031969D01*
X033253Y032270D01*
X033253Y032597D01*
X033129Y032898D01*
X032898Y033129D01*
X032597Y033253D01*
X032270Y033253D01*
X031969Y033129D01*
X031738Y032898D01*
X031613Y032597D01*
X031613Y032270D01*
X031738Y031969D01*
X031738Y031969D01*
X031969Y031738D01*
X032270Y031613D01*
X031969Y031738D02*
X031969Y031738D01*
X031939Y031769D02*
X031233Y031769D01*
X031130Y031867D02*
X031840Y031867D01*
X031742Y031966D02*
X031027Y031966D01*
X030924Y032064D02*
X031699Y032064D01*
X031658Y032163D02*
X030821Y032163D01*
X030718Y032261D02*
X031617Y032261D01*
X031613Y032360D02*
X030661Y032360D01*
X030629Y032458D02*
X031613Y032458D01*
X031613Y032557D02*
X030597Y032557D01*
X030566Y032655D02*
X031638Y032655D01*
X031679Y032754D02*
X030534Y032754D01*
X030502Y032852D02*
X031719Y032852D01*
X031738Y032898D02*
X031738Y032898D01*
X031791Y032951D02*
X030470Y032951D01*
X030438Y033049D02*
X031889Y033049D01*
X031969Y033129D02*
X031969Y033129D01*
X032015Y033148D02*
X030407Y033148D01*
X030375Y033246D02*
X032253Y033246D01*
X032614Y033246D02*
X033132Y033246D01*
X033214Y033148D02*
X032852Y033148D01*
X032898Y033129D02*
X032898Y033129D01*
X032978Y033049D02*
X033297Y033049D01*
X033379Y032951D02*
X033076Y032951D01*
X033129Y032898D02*
X033129Y032898D01*
X033148Y032852D02*
X033461Y032852D01*
X033543Y032754D02*
X033188Y032754D01*
X033229Y032655D02*
X033626Y032655D01*
X033708Y032557D02*
X033253Y032557D01*
X033253Y032458D02*
X033790Y032458D01*
X033872Y032360D02*
X033253Y032360D01*
X033250Y032261D02*
X033955Y032261D01*
X034037Y032163D02*
X033209Y032163D01*
X033168Y032064D02*
X034119Y032064D01*
X034201Y031966D02*
X033125Y031966D01*
X033129Y031969D02*
X033129Y031969D01*
X033129Y031969D01*
X033027Y031867D02*
X034284Y031867D01*
X034366Y031769D02*
X032928Y031769D01*
X032733Y031670D02*
X034448Y031670D01*
X033050Y033345D02*
X030343Y033345D01*
X030311Y033443D02*
X032967Y033443D01*
X032885Y033542D02*
X030280Y033542D01*
X030248Y033640D02*
X032803Y033640D01*
X032721Y033739D02*
X030216Y033739D01*
X030184Y033837D02*
X032638Y033837D01*
X032556Y033936D02*
X030272Y033936D01*
X030324Y034034D02*
X032474Y034034D01*
X027627Y035216D02*
X025940Y035216D01*
X026192Y035118D02*
X027396Y035118D01*
X027165Y035019D02*
X026444Y035019D01*
X026696Y034921D02*
X026934Y034921D01*
X027634Y035315D02*
X025687Y035315D01*
X026239Y035807D02*
X024427Y035807D01*
X025976Y036201D02*
X021933Y036201D01*
X023411Y037974D02*
X020335Y037974D01*
X020286Y038270D02*
X021796Y038270D01*
X021258Y038368D02*
X020226Y038368D01*
X020127Y038467D02*
X020720Y038467D01*
X020181Y038565D02*
X019511Y038565D01*
X019543Y038467D02*
X019005Y038467D01*
X019384Y038270D02*
X017992Y038270D01*
X018498Y038368D02*
X019444Y038368D01*
X019527Y039255D02*
X017606Y039255D01*
X017862Y038959D02*
X015808Y038959D01*
X016015Y038565D02*
X014240Y038565D01*
X013954Y038467D02*
X015945Y038467D01*
X015874Y038368D02*
X013669Y038368D01*
X013383Y038270D02*
X015804Y038270D01*
X015733Y038171D02*
X013097Y038171D01*
X012811Y038073D02*
X015663Y038073D01*
X016196Y038664D02*
X014618Y038664D01*
X016345Y039058D02*
X018417Y039058D01*
X020141Y039255D02*
X021919Y039255D01*
X021796Y038959D02*
X023802Y038959D01*
X023451Y038664D02*
X025038Y038664D01*
X023314Y039058D02*
X021244Y039058D01*
X014884Y035807D02*
X014861Y035807D01*
X014815Y035807D02*
X011767Y035807D01*
X011814Y035788D02*
X011630Y035864D01*
X011431Y035864D01*
X011247Y035788D01*
X011106Y035647D01*
X011030Y035463D01*
X011030Y035264D01*
X011106Y035081D01*
X011247Y034940D01*
X011431Y034864D01*
X011630Y034864D01*
X011814Y034940D01*
X011954Y035081D01*
X012030Y035264D01*
X012030Y035463D01*
X011954Y035647D01*
X011814Y035788D01*
X011893Y035709D02*
X014644Y035709D01*
X014473Y035610D02*
X011969Y035610D01*
X012010Y035512D02*
X014302Y035512D01*
X014131Y035413D02*
X012030Y035413D01*
X012030Y035315D02*
X013961Y035315D01*
X013790Y035216D02*
X012010Y035216D01*
X011970Y035118D02*
X013619Y035118D01*
X013448Y035019D02*
X011893Y035019D01*
X011767Y034921D02*
X013277Y034921D01*
X013106Y034822D02*
X010967Y034822D01*
X010967Y034851D02*
X010954Y034932D01*
X010929Y035010D01*
X010892Y035082D01*
X010888Y035087D01*
X010515Y034801D01*
X010801Y034428D01*
X010844Y034471D01*
X010892Y034537D01*
X010929Y034610D01*
X010954Y034688D01*
X010967Y034769D01*
X010967Y034851D01*
X010956Y034921D02*
X011294Y034921D01*
X011168Y035019D02*
X010924Y035019D01*
X010799Y035019D02*
X010640Y035019D01*
X010671Y034921D02*
X010512Y034921D01*
X010456Y034878D02*
X010829Y035164D01*
X010786Y035207D01*
X010720Y035255D01*
X010647Y035292D01*
X010569Y035317D01*
X010488Y035330D01*
X010406Y035330D01*
X010326Y035317D01*
X010248Y035292D01*
X010175Y035255D01*
X010170Y035251D01*
X010456Y034878D01*
X010379Y034819D01*
X010093Y035192D01*
X010051Y035149D01*
X010003Y035082D01*
X009965Y035010D01*
X009940Y034932D01*
X009927Y034851D01*
X009927Y034769D01*
X009940Y034688D01*
X009965Y034610D01*
X010003Y034537D01*
X010006Y034532D01*
X010379Y034819D01*
X010438Y034742D01*
X010066Y034456D01*
X010109Y034413D01*
X010175Y034365D01*
X010248Y034328D01*
X010326Y034303D01*
X010406Y034290D01*
X010488Y034290D01*
X010569Y034303D01*
X010647Y034328D01*
X010720Y034365D01*
X010725Y034369D01*
X010438Y034742D01*
X010515Y034801D01*
X010456Y034878D01*
X010423Y034921D02*
X010301Y034921D01*
X010348Y035019D02*
X010226Y035019D01*
X010272Y035118D02*
X010150Y035118D01*
X010197Y035216D02*
X009495Y035216D01*
X009469Y035278D02*
X009328Y035418D01*
X009145Y035495D01*
X008946Y035495D01*
X008762Y035418D01*
X008621Y035278D01*
X008545Y035094D01*
X008545Y034895D01*
X008621Y034711D01*
X008762Y034571D01*
X008946Y034495D01*
X009145Y034495D01*
X009328Y034571D01*
X009469Y034711D01*
X009545Y034895D01*
X009545Y035094D01*
X009469Y035278D01*
X009432Y035315D02*
X010318Y035315D01*
X010577Y035315D02*
X011030Y035315D01*
X011030Y035413D02*
X009334Y035413D01*
X009535Y035118D02*
X010028Y035118D01*
X009970Y035019D02*
X009545Y035019D01*
X009545Y034921D02*
X009938Y034921D01*
X009927Y034822D02*
X009515Y034822D01*
X009474Y034724D02*
X009934Y034724D01*
X009961Y034625D02*
X009383Y034625D01*
X009222Y034527D02*
X010158Y034527D01*
X010127Y034625D02*
X010286Y034625D01*
X010255Y034724D02*
X010414Y034724D01*
X010453Y034724D02*
X010575Y034724D01*
X010543Y034822D02*
X010499Y034822D01*
X010384Y034822D02*
X010377Y034822D01*
X010528Y034625D02*
X010650Y034625D01*
X010604Y034527D02*
X010726Y034527D01*
X010679Y034428D02*
X012423Y034428D01*
X012252Y034330D02*
X010650Y034330D01*
X010884Y034527D02*
X012594Y034527D01*
X012765Y034625D02*
X010934Y034625D01*
X010960Y034724D02*
X012936Y034724D01*
X012082Y034231D02*
X008379Y034231D01*
X008468Y034330D02*
X010245Y034330D01*
X010094Y034428D02*
X008509Y034428D01*
X008511Y034527D02*
X008868Y034527D01*
X008708Y034625D02*
X008487Y034625D01*
X008425Y034724D02*
X008616Y034724D01*
X008575Y034822D02*
X008267Y034822D01*
X008545Y034921D02*
X007430Y034921D01*
X007550Y035019D02*
X008545Y035019D01*
X008555Y035118D02*
X007671Y035118D01*
X007791Y035216D02*
X008596Y035216D01*
X008658Y035315D02*
X007911Y035315D01*
X008032Y035413D02*
X008757Y035413D01*
X008590Y035807D02*
X011294Y035807D01*
X011168Y035709D02*
X008445Y035709D01*
X008301Y035610D02*
X011091Y035610D01*
X011050Y035512D02*
X008156Y035512D01*
X008500Y033246D02*
X007418Y033246D01*
X007655Y033148D02*
X008628Y033148D01*
X007951Y032852D02*
X009690Y032852D01*
X009519Y032754D02*
X007992Y032754D01*
X008032Y032655D02*
X009348Y032655D01*
X009235Y032557D02*
X008057Y032557D01*
X008057Y032458D02*
X009120Y032458D01*
X009004Y032360D02*
X008057Y032360D01*
X008053Y032261D02*
X008888Y032261D01*
X008773Y032163D02*
X008012Y032163D01*
X007971Y032064D02*
X008657Y032064D01*
X008541Y031966D02*
X007928Y031966D01*
X007932Y031969D02*
X007932Y031969D01*
X007830Y031867D02*
X008426Y031867D01*
X008310Y031769D02*
X007731Y031769D01*
X007701Y031738D02*
X007701Y031738D01*
X007932Y032898D02*
X007932Y032898D01*
X007879Y032951D02*
X009861Y032951D01*
X010032Y033049D02*
X007781Y033049D01*
X007701Y033129D02*
X007701Y033129D01*
X010769Y035118D02*
X011091Y035118D01*
X011050Y035216D02*
X010773Y035216D01*
X005187Y029109D02*
X005088Y029109D01*
X003855Y029602D02*
X003478Y029602D01*
X003396Y029503D02*
X003704Y029503D01*
X003616Y029405D02*
X003313Y029405D01*
X003270Y029306D02*
X003575Y029306D01*
X003548Y029208D02*
X003233Y029208D01*
X003197Y029109D02*
X003548Y029109D01*
X003560Y029011D02*
X003161Y029011D01*
X003124Y028912D02*
X003601Y028912D01*
X003667Y028814D02*
X003088Y028814D01*
X003052Y028715D02*
X003767Y028715D01*
X002944Y024972D02*
X004615Y024972D01*
X004580Y024874D02*
X002990Y024874D01*
X003036Y024775D02*
X004545Y024775D01*
X004510Y024677D02*
X003082Y024677D01*
X003128Y024578D02*
X004474Y024578D01*
X004442Y024480D02*
X003314Y024480D01*
X003515Y024381D02*
X004417Y024381D01*
X004392Y024283D02*
X003614Y024283D01*
X003664Y024184D02*
X004368Y024184D01*
X004343Y024086D02*
X003705Y024086D01*
X003706Y023987D02*
X004318Y023987D01*
X004294Y023889D02*
X003706Y023889D01*
X003667Y023790D02*
X004269Y023790D01*
X004244Y023692D02*
X003622Y023692D01*
X003523Y023593D02*
X004220Y023593D01*
X004195Y023495D02*
X003333Y023495D01*
X003339Y023415D02*
X003264Y023403D01*
X003192Y023380D01*
X003125Y023346D01*
X003064Y023301D01*
X003011Y023248D01*
X002966Y023187D01*
X002932Y023119D01*
X002909Y023048D01*
X003352Y022970D01*
X003342Y022911D01*
X003401Y022900D01*
X003323Y022458D01*
X003339Y022455D01*
X003414Y022455D01*
X003489Y022467D01*
X003561Y022490D01*
X003628Y022525D01*
X003689Y022569D01*
X003743Y022623D01*
X003787Y022684D01*
X003821Y022751D01*
X003845Y022822D01*
X003401Y022900D01*
X003411Y022960D01*
X003352Y022970D01*
X003430Y023413D01*
X003414Y023415D01*
X003339Y023415D01*
X003427Y023396D02*
X003488Y023396D01*
X003490Y023403D02*
X003411Y022960D01*
X003854Y022881D01*
X003857Y022897D01*
X003857Y022973D01*
X003845Y023048D01*
X003821Y023119D01*
X003787Y023187D01*
X003743Y023248D01*
X003689Y023301D01*
X003628Y023346D01*
X003561Y023380D01*
X003490Y023403D01*
X003512Y023396D02*
X004170Y023396D01*
X004146Y023298D02*
X003693Y023298D01*
X003778Y023199D02*
X004121Y023199D01*
X004096Y023101D02*
X003828Y023101D01*
X003852Y023002D02*
X004072Y023002D01*
X004064Y022972D02*
X004064Y022972D01*
X004054Y022904D02*
X003857Y022904D01*
X003839Y022805D02*
X004039Y022805D01*
X004025Y022707D02*
X003799Y022707D01*
X003728Y022608D02*
X004010Y022608D01*
X003996Y022510D02*
X003599Y022510D01*
X003332Y022510D02*
X003271Y022510D01*
X003289Y022608D02*
X003349Y022608D01*
X003367Y022707D02*
X003306Y022707D01*
X003323Y022805D02*
X003384Y022805D01*
X003383Y022904D02*
X003341Y022904D01*
X003402Y022904D02*
X003729Y022904D01*
X003419Y023002D02*
X003358Y023002D01*
X003375Y023101D02*
X003436Y023101D01*
X003454Y023199D02*
X003393Y023199D01*
X003410Y023298D02*
X003471Y023298D01*
X003242Y023396D02*
X002905Y023396D01*
X002814Y023298D02*
X003060Y023298D01*
X002975Y023199D02*
X002852Y023199D01*
X002852Y023101D02*
X002926Y023101D01*
X002846Y023002D02*
X003170Y023002D01*
X002897Y022904D02*
X002805Y022904D01*
X002739Y022805D02*
X002914Y022805D01*
X002954Y022707D02*
X002623Y022707D01*
X002430Y022214D02*
X003952Y022214D01*
X003937Y022116D02*
X003478Y022116D01*
X003583Y022017D02*
X003922Y022017D01*
X003908Y021919D02*
X003643Y021919D01*
X003675Y021820D02*
X003893Y021820D01*
X003879Y021722D02*
X003685Y021722D01*
X003676Y021623D02*
X003864Y021623D01*
X003849Y021525D02*
X003644Y021525D01*
X003584Y021426D02*
X003835Y021426D01*
X003833Y021411D02*
X003833Y021411D01*
X003828Y021328D02*
X003481Y021328D01*
X003201Y021328D02*
X003141Y021328D01*
X003149Y021426D02*
X003210Y021426D01*
X003218Y021525D02*
X003158Y021525D01*
X003167Y021623D02*
X003227Y021623D01*
X003235Y021722D02*
X003538Y021722D01*
X003244Y021820D02*
X003184Y021820D01*
X003178Y021753D02*
X003217Y022201D01*
X003167Y022201D01*
X003093Y022189D01*
X003021Y022165D01*
X002954Y022131D01*
X002892Y022087D01*
X002839Y022033D01*
X002795Y021972D01*
X002760Y021905D01*
X002737Y021833D01*
X002731Y021792D01*
X003178Y021753D01*
X003175Y021722D02*
X002850Y021722D01*
X002725Y021722D02*
X002669Y021722D01*
X002669Y021820D02*
X002735Y021820D01*
X002767Y021919D02*
X002661Y021919D01*
X002620Y022017D02*
X002827Y022017D01*
X002932Y022116D02*
X002552Y022116D01*
X002209Y021808D02*
X001517Y022074D01*
X001269Y022017D02*
X000995Y022017D01*
X000982Y021919D02*
X001256Y021919D01*
X001243Y021820D02*
X000931Y021820D01*
X000351Y021229D02*
X003824Y021229D01*
X003819Y021131D02*
X000342Y021131D01*
X000304Y020441D02*
X001116Y020441D01*
X001049Y020343D02*
X000304Y020343D01*
X000304Y020244D02*
X001021Y020244D01*
X001021Y020146D02*
X000304Y020146D01*
X000304Y020047D02*
X001061Y020047D01*
X001134Y019678D02*
X001351Y019678D01*
X001641Y020047D02*
X003766Y020047D01*
X003761Y019949D02*
X002149Y019949D01*
X002304Y019850D02*
X003756Y019850D01*
X003755Y019835D02*
X003755Y019835D01*
X003759Y019752D02*
X002397Y019752D01*
X002482Y019653D02*
X003764Y019653D01*
X003769Y019555D02*
X002571Y019555D01*
X002660Y019456D02*
X003774Y019456D01*
X003779Y019358D02*
X002752Y019358D01*
X002771Y019259D02*
X003783Y019259D01*
X003788Y019161D02*
X002771Y019161D01*
X002771Y019062D02*
X003793Y019062D01*
X003798Y018964D02*
X002771Y018964D01*
X002771Y018865D02*
X003803Y018865D01*
X003808Y018767D02*
X002771Y018767D01*
X002771Y018668D02*
X003812Y018668D01*
X003817Y018570D02*
X002771Y018570D01*
X002763Y018471D02*
X003822Y018471D01*
X003865Y017500D02*
X002498Y017500D01*
X002422Y017576D01*
X002422Y018146D01*
X002323Y018053D01*
X002272Y018001D01*
X002269Y018001D01*
X002267Y018000D01*
X002195Y018001D01*
X001123Y018001D01*
X000999Y017844D01*
X000999Y017525D01*
X001107Y017632D01*
X001298Y017711D01*
X001505Y017711D01*
X001696Y017632D01*
X001842Y017486D01*
X001883Y017388D02*
X003962Y017388D01*
X003976Y017289D02*
X001922Y017289D01*
X001922Y017191D02*
X003991Y017191D01*
X004006Y017092D02*
X001922Y017092D01*
X001882Y016994D02*
X004020Y016994D01*
X004035Y016895D02*
X001841Y016895D01*
X001742Y016797D02*
X004050Y016797D01*
X004064Y016698D02*
X002888Y016698D01*
X002976Y016600D02*
X004089Y016600D01*
X004064Y016698D02*
X004064Y016698D01*
X004113Y016501D02*
X003017Y016501D01*
X003019Y016403D02*
X004138Y016403D01*
X004163Y016304D02*
X002995Y016304D01*
X002932Y016206D02*
X004187Y016206D01*
X004212Y016107D02*
X002773Y016107D01*
X002715Y016009D02*
X004237Y016009D01*
X004262Y015910D02*
X004155Y015910D01*
X004254Y015812D02*
X004286Y015812D01*
X004379Y015418D02*
X004385Y015418D01*
X004359Y015319D02*
X004410Y015319D01*
X004434Y015221D02*
X004318Y015221D01*
X004246Y015122D02*
X004464Y015122D01*
X004448Y015167D02*
X004448Y015167D01*
X004499Y015024D02*
X004138Y015024D01*
X004534Y014925D02*
X002281Y014925D01*
X002242Y014827D02*
X002962Y014827D01*
X002886Y014728D02*
X002203Y014728D01*
X002163Y014630D02*
X002851Y014630D01*
X002851Y014531D02*
X002124Y014531D01*
X002106Y014433D02*
X002885Y014433D01*
X002960Y014334D02*
X002145Y014334D01*
X002183Y014236D02*
X002852Y014236D01*
X002870Y014137D02*
X002761Y014137D01*
X002740Y014189D02*
X002398Y014047D01*
X002367Y014023D01*
X002343Y013992D01*
X002328Y013956D01*
X002323Y013916D01*
X002328Y013877D01*
X002469Y013536D01*
X002931Y013727D01*
X002740Y014189D01*
X002615Y014137D02*
X002222Y014137D01*
X002260Y014039D02*
X002387Y014039D01*
X002326Y013940D02*
X002299Y013940D01*
X002337Y013842D02*
X002343Y013842D01*
X002376Y013743D02*
X002383Y013743D01*
X002414Y013645D02*
X002424Y013645D01*
X002453Y013546D02*
X002465Y013546D01*
X002494Y013546D02*
X002756Y013546D01*
X002732Y013645D02*
X002965Y013645D01*
X002970Y013635D02*
X002508Y013443D01*
X002649Y013102D01*
X002673Y013070D01*
X002704Y013046D01*
X002741Y013031D01*
X002780Y013026D01*
X002819Y013031D01*
X003161Y013173D01*
X002970Y013635D01*
X002994Y013645D02*
X003074Y013645D01*
X003114Y013546D02*
X003006Y013546D01*
X003047Y013448D02*
X003155Y013448D01*
X003196Y013349D02*
X003088Y013349D01*
X003129Y013251D02*
X003237Y013251D01*
X003349Y013251D02*
X003944Y013251D01*
X003871Y013349D02*
X003587Y013349D01*
X003666Y013448D02*
X003798Y013448D01*
X003725Y013546D02*
X003656Y013546D01*
X003652Y013645D02*
X003615Y013645D01*
X003578Y013743D02*
X003574Y013743D01*
X003881Y013940D02*
X004887Y013940D01*
X004922Y013842D02*
X003954Y013842D01*
X004027Y013743D02*
X004957Y013743D01*
X004997Y013645D02*
X004100Y013645D01*
X004173Y013546D02*
X005043Y013546D01*
X005090Y013448D02*
X004247Y013448D01*
X004320Y013349D02*
X005136Y013349D01*
X005183Y013251D02*
X004393Y013251D01*
X004466Y013152D02*
X005230Y013152D01*
X005276Y013054D02*
X004539Y013054D01*
X004612Y012955D02*
X005323Y012955D01*
X005369Y012857D02*
X004686Y012857D01*
X004759Y012758D02*
X005416Y012758D01*
X005463Y012660D02*
X004832Y012660D01*
X004905Y012561D02*
X005509Y012561D01*
X005556Y012463D02*
X004978Y012463D01*
X005052Y012364D02*
X005602Y012364D01*
X005649Y012266D02*
X005125Y012266D01*
X005198Y012167D02*
X005707Y012167D01*
X005654Y012255D02*
X005654Y012255D01*
X005766Y012069D02*
X005271Y012069D01*
X005344Y011970D02*
X005825Y011970D01*
X005884Y011872D02*
X005418Y011872D01*
X005491Y011773D02*
X005943Y011773D01*
X006002Y011675D02*
X005564Y011675D01*
X005637Y011576D02*
X006061Y011576D01*
X006120Y011478D02*
X005710Y011478D01*
X005783Y011379D02*
X006179Y011379D01*
X006238Y011281D02*
X005857Y011281D01*
X005930Y011182D02*
X006297Y011182D01*
X006356Y011084D02*
X006020Y011084D01*
X006113Y010985D02*
X006415Y010985D01*
X006476Y010887D02*
X006206Y010887D01*
X006299Y010788D02*
X006549Y010788D01*
X006622Y010690D02*
X006391Y010690D01*
X006484Y010591D02*
X006695Y010591D01*
X006768Y010493D02*
X006577Y010493D01*
X006669Y010394D02*
X006841Y010394D01*
X006915Y010296D02*
X006762Y010296D01*
X006855Y010197D02*
X006988Y010197D01*
X006948Y010099D02*
X007061Y010099D01*
X007040Y010000D02*
X007134Y010000D01*
X007133Y009902D02*
X007207Y009902D01*
X007226Y009803D02*
X007280Y009803D01*
X007318Y009705D02*
X007353Y009705D01*
X007405Y009634D02*
X007405Y009634D01*
X007411Y009606D02*
X007431Y009606D01*
X007504Y009508D02*
X007520Y009508D01*
X007597Y009409D02*
X007609Y009409D01*
X007689Y009311D02*
X007698Y009311D01*
X007782Y009212D02*
X007788Y009212D01*
X007875Y009114D02*
X007877Y009114D01*
X008215Y008227D02*
X005023Y008227D01*
X005105Y008129D02*
X008307Y008129D01*
X008603Y008339D02*
X009634Y007405D01*
X010902Y006465D01*
X012255Y005654D01*
X013682Y004979D01*
X015167Y004448D01*
X016698Y004064D01*
X018259Y003833D01*
X019835Y003755D01*
X021411Y003833D01*
X021818Y003893D02*
X029844Y003893D01*
X030015Y003992D02*
X022483Y003992D01*
X022410Y003696D02*
X022389Y003696D01*
X022371Y003708D01*
X022316Y003696D01*
X013272Y003696D01*
X013272Y003696D01*
X013202Y003865D01*
X013073Y003995D01*
X012904Y004065D01*
X012721Y004065D01*
X012653Y004037D01*
X008603Y008339D01*
X008616Y008326D02*
X008619Y008326D01*
X008709Y008227D02*
X008727Y008227D01*
X008802Y008129D02*
X008836Y008129D01*
X008894Y008030D02*
X008945Y008030D01*
X008987Y007932D02*
X009053Y007932D01*
X009080Y007833D02*
X009162Y007833D01*
X009173Y007735D02*
X009271Y007735D01*
X009265Y007636D02*
X009379Y007636D01*
X009358Y007538D02*
X009488Y007538D01*
X009451Y007439D02*
X009597Y007439D01*
X009634Y007405D02*
X009634Y007405D01*
X009721Y007341D02*
X009543Y007341D01*
X009636Y007242D02*
X009854Y007242D01*
X009729Y007144D02*
X009987Y007144D01*
X010120Y007045D02*
X009822Y007045D01*
X009914Y006947D02*
X010252Y006947D01*
X010385Y006848D02*
X010007Y006848D01*
X010100Y006750D02*
X010518Y006750D01*
X010651Y006651D02*
X010192Y006651D01*
X010285Y006553D02*
X010784Y006553D01*
X010902Y006465D02*
X010902Y006465D01*
X010920Y006454D02*
X010378Y006454D01*
X010471Y006356D02*
X011084Y006356D01*
X011249Y006257D02*
X010563Y006257D01*
X010656Y006159D02*
X011413Y006159D01*
X011577Y006060D02*
X010749Y006060D01*
X010841Y005962D02*
X011742Y005962D01*
X011906Y005863D02*
X010934Y005863D01*
X011027Y005765D02*
X012070Y005765D01*
X012235Y005666D02*
X011119Y005666D01*
X011212Y005568D02*
X012438Y005568D01*
X012255Y005654D02*
X012255Y005654D01*
X012646Y005469D02*
X011305Y005469D01*
X011398Y005371D02*
X012854Y005371D01*
X013062Y005272D02*
X011490Y005272D01*
X011583Y005174D02*
X013271Y005174D01*
X013479Y005075D02*
X011676Y005075D01*
X011768Y004977D02*
X013689Y004977D01*
X013682Y004979D02*
X013682Y004979D01*
X013964Y004878D02*
X011861Y004878D01*
X011954Y004780D02*
X014240Y004780D01*
X014515Y004681D02*
X012047Y004681D01*
X012139Y004583D02*
X014790Y004583D01*
X015065Y004484D02*
X012232Y004484D01*
X012325Y004386D02*
X015415Y004386D01*
X015167Y004448D02*
X015167Y004448D01*
X015808Y004287D02*
X012417Y004287D01*
X012510Y004189D02*
X016201Y004189D01*
X016595Y004090D02*
X012603Y004090D01*
X012294Y003893D02*
X009853Y003893D01*
X009833Y003992D02*
X012201Y003992D01*
X012108Y004090D02*
X009813Y004090D01*
X009793Y004189D02*
X012016Y004189D01*
X011923Y004287D02*
X009773Y004287D01*
X009753Y004386D02*
X011830Y004386D01*
X011738Y004484D02*
X009734Y004484D01*
X009714Y004583D02*
X011645Y004583D01*
X011552Y004681D02*
X010459Y004681D01*
X010565Y004780D02*
X011460Y004780D01*
X011367Y004878D02*
X010634Y004878D01*
X010675Y004977D02*
X011274Y004977D01*
X011181Y005075D02*
X010689Y005075D01*
X010689Y005174D02*
X011089Y005174D01*
X010996Y005272D02*
X010664Y005272D01*
X010623Y005371D02*
X010903Y005371D01*
X010811Y005469D02*
X010538Y005469D01*
X010393Y005568D02*
X010718Y005568D01*
X010625Y005666D02*
X009823Y005666D01*
X009823Y005568D02*
X009986Y005568D01*
X009841Y005469D02*
X009806Y005469D01*
X009715Y005272D02*
X009692Y005272D01*
X009689Y005174D02*
X009595Y005174D01*
X009615Y005075D02*
X009689Y005075D01*
X009704Y004977D02*
X009634Y004977D01*
X009654Y004878D02*
X009744Y004878D01*
X009813Y004780D02*
X009674Y004780D01*
X009694Y004681D02*
X009920Y004681D01*
X009347Y004583D02*
X007634Y004583D01*
X007514Y004681D02*
X009327Y004681D01*
X009307Y004780D02*
X007393Y004780D01*
X007273Y004878D02*
X009287Y004878D01*
X009267Y004977D02*
X007153Y004977D01*
X007032Y005075D02*
X009247Y005075D01*
X009072Y005174D02*
X006912Y005174D01*
X006792Y005272D02*
X008955Y005272D01*
X008881Y005371D02*
X006692Y005371D01*
X006591Y005469D02*
X008841Y005469D01*
X009323Y005611D02*
X009697Y003752D01*
X013221Y001725D01*
X019815Y000544D01*
X026449Y001725D01*
X030642Y004146D01*
X030815Y005315D01*
X030447Y004977D02*
X025981Y004977D01*
X025989Y004979D02*
X025989Y004979D01*
X026191Y005075D02*
X030373Y005075D01*
X030333Y005174D02*
X026399Y005174D01*
X026608Y005272D02*
X030315Y005272D01*
X030315Y005371D02*
X026816Y005371D01*
X027024Y005469D02*
X030338Y005469D01*
X030378Y005568D02*
X027233Y005568D01*
X027435Y005666D02*
X030459Y005666D01*
X030593Y005765D02*
X027600Y005765D01*
X027764Y005863D02*
X033509Y005863D01*
X033601Y005962D02*
X027928Y005962D01*
X028093Y006060D02*
X033693Y006060D01*
X033786Y006159D02*
X028257Y006159D01*
X028421Y006257D02*
X033878Y006257D01*
X033970Y006356D02*
X028586Y006356D01*
X028750Y006454D02*
X032180Y006454D01*
X032270Y006417D02*
X032471Y006417D01*
X032597Y006417D01*
X032898Y006541D01*
X033129Y006772D01*
X033253Y007074D01*
X033253Y007400D01*
X033129Y007701D01*
X032898Y007932D01*
X032597Y008057D01*
X032270Y008057D01*
X031969Y007932D01*
X031738Y007701D01*
X031613Y007400D01*
X031613Y007074D01*
X031738Y006772D01*
X031969Y006541D01*
X032270Y006417D01*
X031969Y006541D02*
X031969Y006541D01*
X031958Y006553D02*
X028886Y006553D01*
X029019Y006651D02*
X031859Y006651D01*
X031761Y006750D02*
X029152Y006750D01*
X029285Y006848D02*
X031707Y006848D01*
X031738Y006772D02*
X031738Y006772D01*
X031666Y006947D02*
X029418Y006947D01*
X029550Y007045D02*
X031625Y007045D01*
X031613Y007144D02*
X029683Y007144D01*
X029816Y007242D02*
X031613Y007242D01*
X031613Y007341D02*
X029949Y007341D01*
X030073Y007439D02*
X031630Y007439D01*
X031671Y007538D02*
X030182Y007538D01*
X030291Y007636D02*
X031711Y007636D01*
X031738Y007701D02*
X031738Y007701D01*
X031772Y007735D02*
X030399Y007735D01*
X030508Y007833D02*
X031870Y007833D01*
X031969Y007932D02*
X030617Y007932D01*
X030725Y008030D02*
X032206Y008030D01*
X031969Y007932D02*
X031969Y007932D01*
X032661Y008030D02*
X035397Y008030D01*
X035320Y007932D02*
X032898Y007932D01*
X032898Y007932D01*
X032997Y007833D02*
X035243Y007833D01*
X035166Y007735D02*
X033095Y007735D01*
X033129Y007701D02*
X033129Y007701D01*
X033156Y007636D02*
X035089Y007636D01*
X035012Y007538D02*
X033196Y007538D01*
X033237Y007439D02*
X034935Y007439D01*
X034858Y007341D02*
X033253Y007341D01*
X033253Y007242D02*
X034781Y007242D01*
X034704Y007144D02*
X033253Y007144D01*
X033242Y007045D02*
X034615Y007045D01*
X034523Y006947D02*
X033201Y006947D01*
X033160Y006848D02*
X034431Y006848D01*
X034339Y006750D02*
X033106Y006750D01*
X033129Y006772D02*
X033129Y006772D01*
X033008Y006651D02*
X034246Y006651D01*
X034154Y006553D02*
X032909Y006553D01*
X032898Y006541D02*
X032898Y006541D01*
X032687Y006454D02*
X034062Y006454D01*
X033400Y005765D02*
X031037Y005765D01*
X031172Y005666D02*
X033290Y005666D01*
X033180Y005568D02*
X031252Y005568D01*
X031293Y005469D02*
X033070Y005469D01*
X032959Y005371D02*
X031315Y005371D01*
X031315Y005272D02*
X032849Y005272D01*
X032739Y005174D02*
X031298Y005174D01*
X031257Y005075D02*
X032629Y005075D01*
X032519Y004977D02*
X031183Y004977D01*
X031066Y004878D02*
X032409Y004878D01*
X032299Y004780D02*
X030918Y004780D01*
X030903Y004681D02*
X032184Y004681D01*
X032052Y004583D02*
X030889Y004583D01*
X030874Y004484D02*
X031920Y004484D01*
X031788Y004386D02*
X030860Y004386D01*
X030845Y004287D02*
X031656Y004287D01*
X031524Y004189D02*
X030830Y004189D01*
X030816Y004090D02*
X031393Y004090D01*
X031261Y003992D02*
X030736Y003992D01*
X030564Y003893D02*
X031129Y003893D01*
X030997Y003795D02*
X030393Y003795D01*
X030223Y003696D02*
X030865Y003696D01*
X030713Y003598D02*
X030052Y003598D01*
X029882Y003499D02*
X030553Y003499D01*
X030394Y003401D02*
X029711Y003401D01*
X029540Y003302D02*
X030234Y003302D01*
X030075Y003204D02*
X029370Y003204D01*
X029199Y003105D02*
X029915Y003105D01*
X029756Y003007D02*
X029029Y003007D01*
X028858Y002908D02*
X029596Y002908D01*
X029436Y002810D02*
X028688Y002810D01*
X028517Y002711D02*
X029258Y002711D01*
X029061Y002613D02*
X028346Y002613D01*
X028176Y002514D02*
X028865Y002514D01*
X028668Y002416D02*
X028005Y002416D01*
X027835Y002317D02*
X028472Y002317D01*
X028275Y002219D02*
X027664Y002219D01*
X027494Y002120D02*
X028079Y002120D01*
X027882Y002022D02*
X027323Y002022D01*
X027152Y001923D02*
X027651Y001923D01*
X027402Y001825D02*
X026982Y001825D01*
X027152Y001726D02*
X026811Y001726D01*
X026903Y001628D02*
X026641Y001628D01*
X026653Y001529D02*
X026376Y001529D01*
X026404Y001431D02*
X025823Y001431D01*
X025805Y001234D02*
X024717Y001234D01*
X024806Y000938D02*
X023057Y000938D01*
X022975Y000544D02*
X020844Y000544D01*
X021003Y000938D02*
X018635Y000938D01*
X018793Y000544D02*
X016783Y000544D01*
X016593Y000938D02*
X014894Y000938D01*
X014943Y001234D02*
X013867Y001234D01*
X013843Y001431D02*
X013296Y001431D01*
X013293Y001529D02*
X013010Y001529D01*
X013029Y001628D02*
X012724Y001628D01*
X012858Y001726D02*
X012488Y001726D01*
X012516Y001923D02*
X012047Y001923D01*
X012173Y002120D02*
X011606Y002120D01*
X011386Y002219D02*
X012002Y002219D01*
X011831Y002317D02*
X011165Y002317D01*
X010971Y002416D02*
X011660Y002416D01*
X011488Y002514D02*
X010794Y002514D01*
X010618Y002613D02*
X011317Y002613D01*
X011146Y002711D02*
X010441Y002711D01*
X010265Y002810D02*
X010975Y002810D01*
X010804Y002908D02*
X010088Y002908D01*
X009912Y003007D02*
X010633Y003007D01*
X010461Y003105D02*
X009735Y003105D01*
X009560Y003204D02*
X010290Y003204D01*
X010119Y003302D02*
X009415Y003302D01*
X009270Y003401D02*
X009948Y003401D01*
X009777Y003499D02*
X009125Y003499D01*
X008980Y003598D02*
X009605Y003598D01*
X009525Y003696D02*
X008836Y003696D01*
X008691Y003795D02*
X009505Y003795D01*
X009485Y003893D02*
X008546Y003893D01*
X008401Y003992D02*
X009466Y003992D01*
X009446Y004090D02*
X008256Y004090D01*
X008116Y004189D02*
X009426Y004189D01*
X009406Y004287D02*
X007995Y004287D01*
X007875Y004386D02*
X009386Y004386D01*
X009366Y004484D02*
X007754Y004484D01*
X008224Y005666D02*
X007084Y005666D01*
X006823Y005800D02*
X003142Y010189D01*
X000819Y016469D01*
X000819Y017906D01*
X001036Y018181D01*
X001105Y017979D02*
X002422Y017979D01*
X002422Y018077D02*
X002349Y018077D01*
X002422Y017880D02*
X001028Y017880D01*
X000999Y017782D02*
X002422Y017782D01*
X002422Y017683D02*
X001574Y017683D01*
X001744Y017585D02*
X002422Y017585D01*
X002137Y018373D02*
X000357Y018373D01*
X000348Y018471D02*
X002241Y018471D01*
X002344Y018570D02*
X002125Y018570D01*
X002132Y018573D02*
X002160Y018601D01*
X002180Y018635D01*
X002190Y018674D01*
X002190Y018842D01*
X001183Y018842D01*
X001183Y018543D01*
X002060Y018543D01*
X002098Y018554D01*
X002132Y018573D01*
X002188Y018668D02*
X002411Y018668D01*
X002411Y018767D02*
X002190Y018767D01*
X002190Y018939D02*
X002190Y019107D01*
X002180Y019145D01*
X002160Y019179D01*
X002132Y019207D01*
X002098Y019227D01*
X002060Y019237D01*
X001183Y019237D01*
X001183Y018939D01*
X002190Y018939D01*
X002190Y018964D02*
X002411Y018964D01*
X002411Y019062D02*
X002190Y019062D01*
X002171Y019161D02*
X002411Y019161D01*
X002353Y019259D02*
X000304Y019259D01*
X001086Y019161D02*
X001183Y019161D01*
X001183Y019062D02*
X001086Y019062D01*
X001086Y018964D02*
X001183Y018964D01*
X001183Y018865D02*
X002411Y018865D01*
X002264Y019358D02*
X002100Y019358D01*
X002170Y019456D02*
X002175Y019456D01*
X001681Y020146D02*
X003770Y020146D01*
X002766Y021525D02*
X002576Y021525D01*
X002630Y021623D02*
X002735Y021623D01*
X001988Y022214D02*
X001776Y022214D01*
X001789Y022313D02*
X003966Y022313D01*
X003981Y022411D02*
X001729Y022411D01*
X002997Y023495D02*
X003079Y023495D01*
X001883Y024416D02*
X001213Y024619D01*
X001111Y024775D02*
X000938Y024775D01*
X000911Y024677D02*
X001024Y024677D01*
X000937Y024578D02*
X000885Y024578D01*
X001156Y024283D02*
X001397Y024283D01*
X001377Y024381D02*
X001243Y024381D01*
X001069Y024184D02*
X001438Y024184D01*
X001507Y024086D02*
X000982Y024086D01*
X000923Y023987D02*
X001613Y023987D01*
X003210Y022116D02*
X003270Y022116D01*
X003261Y022017D02*
X003201Y022017D01*
X003192Y021919D02*
X003253Y021919D01*
X001183Y018767D02*
X001086Y018767D01*
X001086Y018668D02*
X001183Y018668D01*
X001183Y018570D02*
X001086Y018570D01*
X000999Y017683D02*
X001230Y017683D01*
X001059Y017585D02*
X000999Y017585D01*
X000999Y016797D02*
X001061Y016797D01*
X000999Y016698D02*
X001234Y016698D01*
X000999Y016600D02*
X002403Y016600D01*
X002362Y016501D02*
X000999Y016501D01*
X001036Y016403D02*
X002359Y016403D01*
X002384Y016304D02*
X001072Y016304D01*
X001109Y016206D02*
X002406Y016206D01*
X002367Y016107D02*
X001145Y016107D01*
X001181Y016009D02*
X002327Y016009D01*
X002288Y015910D02*
X001218Y015910D01*
X001254Y015812D02*
X002248Y015812D01*
X002209Y015713D02*
X001291Y015713D01*
X001327Y015615D02*
X002170Y015615D01*
X002130Y015516D02*
X001364Y015516D01*
X001400Y015418D02*
X002091Y015418D01*
X002051Y015319D02*
X001437Y015319D01*
X001473Y015221D02*
X002012Y015221D01*
X001973Y015122D02*
X001509Y015122D01*
X001546Y015024D02*
X001933Y015024D01*
X001894Y014925D02*
X001582Y014925D01*
X001619Y014827D02*
X001854Y014827D01*
X001815Y014728D02*
X001655Y014728D01*
X001692Y014630D02*
X001776Y014630D01*
X001902Y014461D02*
X002689Y016430D01*
X002491Y016698D02*
X001569Y016698D01*
X002675Y015910D02*
X003563Y015910D01*
X003464Y015812D02*
X002636Y015812D01*
X002597Y015713D02*
X003397Y015713D01*
X003356Y015615D02*
X002557Y015615D01*
X002518Y015516D02*
X003339Y015516D01*
X003339Y015418D02*
X002478Y015418D01*
X002439Y015319D02*
X003359Y015319D01*
X003400Y015221D02*
X002400Y015221D01*
X002360Y015122D02*
X003472Y015122D01*
X003580Y015024D02*
X002321Y015024D01*
X001902Y014461D02*
X003063Y011489D01*
X004914Y011030D01*
X005272Y011379D02*
X005335Y011379D01*
X005351Y011281D02*
X005408Y011281D01*
X005392Y011182D02*
X005481Y011182D01*
X005414Y011084D02*
X005555Y011084D01*
X005619Y010985D02*
X005414Y010985D01*
X005396Y010887D02*
X005711Y010887D01*
X005804Y010788D02*
X005355Y010788D01*
X005280Y010690D02*
X005897Y010690D01*
X005990Y010591D02*
X005161Y010591D01*
X005800Y011056D02*
X012812Y003605D01*
X012965Y003516D01*
X022335Y003516D01*
X024292Y002237D01*
X024792Y002219D02*
X024831Y002219D01*
X024785Y002120D02*
X024926Y002120D01*
X025095Y002022D02*
X024744Y002022D01*
X024685Y001923D02*
X026432Y001923D01*
X026603Y002022D02*
X025420Y002022D01*
X025589Y002120D02*
X026774Y002120D01*
X026944Y002219D02*
X025684Y002219D01*
X025725Y002317D02*
X027115Y002317D01*
X027285Y002416D02*
X025758Y002416D01*
X025758Y002514D02*
X027456Y002514D01*
X027627Y002613D02*
X025750Y002613D01*
X025710Y002711D02*
X027797Y002711D01*
X027968Y002810D02*
X025651Y002810D01*
X025552Y002908D02*
X027051Y002908D01*
X026953Y003007D02*
X023443Y003007D01*
X023293Y003105D02*
X026897Y003105D01*
X026856Y003204D02*
X023142Y003204D01*
X022991Y003302D02*
X026851Y003302D01*
X026851Y003401D02*
X022841Y003401D01*
X022690Y003499D02*
X026886Y003499D01*
X026927Y003598D02*
X022539Y003598D01*
X022334Y003302D02*
X014643Y003302D01*
X014703Y003204D02*
X022484Y003204D01*
X022635Y003105D02*
X019967Y003105D01*
X019934Y003119D02*
X019736Y003119D01*
X019552Y003042D01*
X019411Y002902D01*
X019335Y002718D01*
X019335Y002519D01*
X019411Y002335D01*
X019552Y002195D01*
X019736Y002119D01*
X019934Y002119D01*
X020118Y002195D01*
X020259Y002335D01*
X020335Y002519D01*
X020335Y002718D01*
X020259Y002902D01*
X020118Y003042D01*
X019934Y003119D01*
X019703Y003105D02*
X014737Y003105D01*
X014747Y003007D02*
X019516Y003007D01*
X019417Y002908D02*
X014738Y002908D01*
X014699Y002792D02*
X014283Y002965D01*
X014110Y002548D01*
X014155Y002534D01*
X014229Y002522D01*
X014305Y002522D01*
X014380Y002534D01*
X014451Y002557D01*
X014519Y002592D01*
X014580Y002636D01*
X014633Y002690D01*
X014678Y002751D01*
X014699Y002792D01*
X014657Y002810D02*
X019373Y002810D01*
X019335Y002711D02*
X014649Y002711D01*
X014547Y002613D02*
X019335Y002613D01*
X019337Y002514D02*
X012210Y002514D01*
X012039Y002613D02*
X013987Y002613D01*
X014075Y002613D02*
X014137Y002613D01*
X014115Y002711D02*
X014178Y002711D01*
X014156Y002810D02*
X014219Y002810D01*
X014197Y002908D02*
X014259Y002908D01*
X014238Y003007D02*
X014182Y003007D01*
X014300Y003007D02*
X014332Y003007D01*
X014420Y002908D02*
X014570Y002908D01*
X014094Y003105D02*
X013944Y003105D01*
X013856Y003204D02*
X013045Y003204D01*
X013160Y003302D02*
X013892Y003302D01*
X013798Y003105D02*
X011183Y003105D01*
X011012Y003204D02*
X012579Y003204D01*
X012465Y003302D02*
X010841Y003302D01*
X010670Y003401D02*
X012399Y003401D01*
X012358Y003499D02*
X010498Y003499D01*
X010327Y003598D02*
X012352Y003598D01*
X013076Y003992D02*
X017188Y003992D01*
X016698Y004064D02*
X016698Y004064D01*
X017852Y003893D02*
X013175Y003893D01*
X013232Y003795D02*
X019034Y003795D01*
X018259Y003833D02*
X018259Y003833D01*
X019378Y002416D02*
X012381Y002416D01*
X012553Y002317D02*
X019429Y002317D01*
X019528Y002219D02*
X012724Y002219D01*
X012895Y002120D02*
X019732Y002120D01*
X019736Y002119D02*
X019552Y002042D01*
X019411Y001902D01*
X019335Y001718D01*
X019335Y001519D01*
X019411Y001335D01*
X019552Y001195D01*
X019736Y001119D01*
X019934Y001119D01*
X020118Y001195D01*
X020259Y001335D01*
X020335Y001519D01*
X020335Y001718D01*
X020259Y001902D01*
X020118Y002042D01*
X019934Y002119D01*
X019736Y002119D01*
X019938Y002120D02*
X022825Y002120D01*
X022819Y002100D02*
X022806Y002019D01*
X022806Y001937D01*
X022816Y001872D01*
X023289Y001999D01*
X023162Y002471D01*
X023126Y002460D01*
X023053Y002423D01*
X022987Y002374D01*
X022929Y002317D01*
X022881Y002250D01*
X022844Y002177D01*
X022819Y002100D01*
X022806Y002022D02*
X020139Y002022D01*
X020238Y001923D02*
X022808Y001923D01*
X022832Y001814D02*
X022844Y001778D01*
X022881Y001705D01*
X022929Y001639D01*
X022987Y001581D01*
X023053Y001533D01*
X023126Y001496D01*
X023204Y001471D01*
X023285Y001458D01*
X023367Y001458D01*
X023431Y001468D01*
X023305Y001941D01*
X022832Y001814D01*
X022870Y001825D02*
X020291Y001825D01*
X020332Y001726D02*
X022870Y001726D01*
X022941Y001628D02*
X020335Y001628D01*
X020335Y001529D02*
X023061Y001529D01*
X023216Y001332D02*
X020256Y001332D01*
X020298Y001431D02*
X023769Y001431D01*
X023590Y001529D02*
X024323Y001529D01*
X024587Y001825D02*
X025982Y001825D01*
X026138Y001332D02*
X025270Y001332D01*
X025472Y001135D02*
X024163Y001135D01*
X024439Y000840D02*
X022504Y000840D01*
X022663Y001234D02*
X020157Y001234D01*
X019974Y001135D02*
X022110Y001135D01*
X021950Y000741D02*
X023951Y000741D01*
X023610Y001037D02*
X025139Y001037D01*
X024876Y001628D02*
X023711Y001628D01*
X023781Y001726D02*
X025429Y001726D01*
X024758Y002514D02*
X024718Y002514D01*
X024765Y002613D02*
X024623Y002613D01*
X024453Y002711D02*
X024806Y002711D01*
X024865Y002810D02*
X023745Y002810D01*
X023895Y002711D02*
X024130Y002711D01*
X023689Y002416D02*
X023608Y002416D01*
X023539Y002514D02*
X020333Y002514D01*
X020335Y002613D02*
X023388Y002613D01*
X023237Y002711D02*
X020335Y002711D01*
X020297Y002810D02*
X023087Y002810D01*
X022936Y002908D02*
X020253Y002908D01*
X020154Y003007D02*
X022785Y003007D01*
X023044Y002416D02*
X020292Y002416D01*
X020241Y002317D02*
X022930Y002317D01*
X022865Y002219D02*
X020142Y002219D01*
X019531Y002022D02*
X013066Y002022D01*
X013237Y001923D02*
X019432Y001923D01*
X019379Y001825D02*
X013685Y001825D01*
X013581Y001332D02*
X014393Y001332D01*
X014153Y001135D02*
X015493Y001135D01*
X015290Y000840D02*
X017143Y000840D01*
X016985Y001234D02*
X019513Y001234D01*
X019414Y001332D02*
X016435Y001332D01*
X016043Y001037D02*
X014497Y001037D01*
X014785Y001628D02*
X019335Y001628D01*
X019338Y001726D02*
X014235Y001726D01*
X013885Y002711D02*
X011868Y002711D01*
X011697Y002810D02*
X013827Y002810D01*
X013796Y002908D02*
X011526Y002908D01*
X011354Y003007D02*
X013787Y003007D01*
X012687Y001825D02*
X012267Y001825D01*
X012344Y002022D02*
X011827Y002022D01*
X015335Y001529D02*
X019335Y001529D01*
X019372Y001431D02*
X015885Y001431D01*
X015687Y000741D02*
X017693Y000741D01*
X017414Y000446D02*
X019343Y000446D01*
X019185Y000840D02*
X020450Y000840D01*
X020291Y000446D02*
X022189Y000446D01*
X021556Y001037D02*
X018085Y001037D01*
X018243Y000643D02*
X016152Y000643D01*
X017535Y001135D02*
X019696Y001135D01*
X019735Y000741D02*
X019897Y000741D01*
X018542Y000347D02*
X021302Y000347D01*
X021397Y000643D02*
X023463Y000643D01*
X023477Y001529D02*
X023415Y001529D01*
X023389Y001628D02*
X023451Y001628D01*
X023424Y001726D02*
X023362Y001726D01*
X023336Y001825D02*
X023398Y001825D01*
X023372Y001923D02*
X023309Y001923D01*
X023237Y001923D02*
X023005Y001923D01*
X023283Y002022D02*
X023345Y002022D01*
X023319Y002120D02*
X023257Y002120D01*
X023230Y002219D02*
X023292Y002219D01*
X023266Y002317D02*
X023204Y002317D01*
X023177Y002416D02*
X023240Y002416D01*
X023787Y002219D02*
X023792Y002219D01*
X023844Y001923D02*
X023898Y001923D01*
X023823Y001825D02*
X023997Y001825D01*
X023594Y002908D02*
X024963Y002908D01*
X023862Y004287D02*
X030481Y004287D01*
X030496Y004386D02*
X024255Y004386D01*
X024503Y004448D02*
X024503Y004448D01*
X024605Y004484D02*
X030510Y004484D01*
X030525Y004583D02*
X024880Y004583D01*
X025155Y004681D02*
X030539Y004681D01*
X030554Y004780D02*
X025431Y004780D01*
X025706Y004878D02*
X030564Y004878D01*
X030356Y004189D02*
X023469Y004189D01*
X023075Y004090D02*
X030185Y004090D01*
X029673Y003795D02*
X027501Y003795D01*
X027677Y003696D02*
X029503Y003696D01*
X029332Y003598D02*
X027775Y003598D01*
X027816Y003499D02*
X029162Y003499D01*
X028991Y003401D02*
X027851Y003401D01*
X027851Y003302D02*
X028821Y003302D01*
X028650Y003204D02*
X027846Y003204D01*
X027805Y003105D02*
X028479Y003105D01*
X028309Y003007D02*
X027749Y003007D01*
X027651Y002908D02*
X028138Y002908D01*
X032597Y006417D02*
X032597Y006417D01*
X030943Y008227D02*
X035551Y008227D01*
X035474Y008129D02*
X030834Y008129D01*
X031052Y008326D02*
X035628Y008326D01*
X035705Y008424D02*
X031160Y008424D01*
X031205Y008465D02*
X031205Y008465D01*
X031258Y008523D02*
X035777Y008523D01*
X035841Y008621D02*
X031347Y008621D01*
X031436Y008720D02*
X035905Y008720D01*
X035969Y008818D02*
X031525Y008818D01*
X031615Y008917D02*
X036033Y008917D01*
X036097Y009015D02*
X031704Y009015D01*
X031793Y009114D02*
X036160Y009114D01*
X036224Y009212D02*
X031882Y009212D01*
X031972Y009311D02*
X036288Y009311D01*
X036352Y009409D02*
X032061Y009409D01*
X032150Y009508D02*
X036416Y009508D01*
X036480Y009606D02*
X032240Y009606D01*
X032317Y009705D02*
X036544Y009705D01*
X036607Y009803D02*
X032390Y009803D01*
X032463Y009902D02*
X036671Y009902D01*
X036728Y010000D02*
X032536Y010000D01*
X032609Y010099D02*
X035357Y010099D01*
X035339Y010106D02*
X035523Y010030D01*
X035722Y010030D01*
X035906Y010106D01*
X036046Y010247D01*
X036122Y010430D01*
X036122Y010629D01*
X036046Y010813D01*
X035906Y010954D01*
X035722Y011030D01*
X035523Y011030D01*
X035339Y010954D01*
X035214Y010829D01*
X035256Y010930D01*
X035256Y011129D01*
X035180Y011313D01*
X035040Y011454D01*
X034856Y011530D01*
X034657Y011530D01*
X034473Y011454D01*
X034332Y011313D01*
X034256Y011129D01*
X034256Y010930D01*
X034332Y010747D01*
X034473Y010606D01*
X034657Y010530D01*
X034856Y010530D01*
X035040Y010606D01*
X035164Y010731D01*
X035122Y010629D01*
X035122Y010430D01*
X035199Y010247D01*
X035339Y010106D01*
X035248Y010197D02*
X032682Y010197D01*
X032756Y010296D02*
X035178Y010296D01*
X035137Y010394D02*
X032829Y010394D01*
X032902Y010493D02*
X035122Y010493D01*
X035122Y010591D02*
X035003Y010591D01*
X035123Y010690D02*
X035147Y010690D01*
X035238Y010887D02*
X035272Y010887D01*
X035256Y010985D02*
X035415Y010985D01*
X035256Y011084D02*
X037301Y011084D01*
X037353Y011182D02*
X035235Y011182D01*
X035194Y011281D02*
X037405Y011281D01*
X037457Y011379D02*
X035114Y011379D01*
X034982Y011478D02*
X037508Y011478D01*
X037549Y011576D02*
X033609Y011576D01*
X033550Y011478D02*
X034530Y011478D01*
X034398Y011379D02*
X033491Y011379D01*
X033432Y011281D02*
X034319Y011281D01*
X034278Y011182D02*
X033373Y011182D01*
X033314Y011084D02*
X034256Y011084D01*
X034256Y010985D02*
X033255Y010985D01*
X033194Y010887D02*
X034275Y010887D01*
X034315Y010788D02*
X033121Y010788D01*
X033048Y010690D02*
X034390Y010690D01*
X034509Y010591D02*
X032975Y010591D01*
X033668Y011675D02*
X037591Y011675D01*
X037632Y011773D02*
X033727Y011773D01*
X033786Y011872D02*
X037674Y011872D01*
X037715Y011970D02*
X033845Y011970D01*
X033904Y012069D02*
X037757Y012069D01*
X037798Y012167D02*
X033963Y012167D01*
X034021Y012266D02*
X037839Y012266D01*
X037881Y012364D02*
X034068Y012364D01*
X034114Y012463D02*
X037922Y012463D01*
X037964Y012561D02*
X036725Y012561D01*
X036779Y012583D02*
X036919Y012724D01*
X036996Y012908D01*
X036996Y013107D01*
X036919Y013290D01*
X036779Y013431D01*
X036595Y013507D01*
X036396Y013507D01*
X036212Y013431D01*
X036072Y013290D01*
X035996Y013107D01*
X035996Y012908D01*
X036072Y012724D01*
X036212Y012583D01*
X036396Y012507D01*
X036595Y012507D01*
X036779Y012583D01*
X036855Y012660D02*
X038005Y012660D01*
X038047Y012758D02*
X036934Y012758D01*
X036974Y012857D02*
X038088Y012857D01*
X038130Y012955D02*
X036996Y012955D01*
X036996Y013054D02*
X038171Y013054D01*
X038203Y013152D02*
X036977Y013152D01*
X036936Y013251D02*
X038234Y013251D01*
X038266Y013349D02*
X036861Y013349D01*
X036739Y013448D02*
X038298Y013448D01*
X038329Y013546D02*
X034627Y013546D01*
X034673Y013645D02*
X038361Y013645D01*
X038392Y013743D02*
X034713Y013743D01*
X034748Y013842D02*
X038424Y013842D01*
X038455Y013940D02*
X034783Y013940D01*
X034819Y014039D02*
X038487Y014039D01*
X038518Y014137D02*
X034854Y014137D01*
X034889Y014236D02*
X038550Y014236D01*
X038581Y014334D02*
X034924Y014334D01*
X034960Y014433D02*
X038613Y014433D01*
X038644Y014531D02*
X034995Y014531D01*
X035030Y014630D02*
X038676Y014630D01*
X038705Y014728D02*
X035065Y014728D01*
X035101Y014827D02*
X038727Y014827D01*
X038750Y014925D02*
X035136Y014925D01*
X035171Y015024D02*
X038772Y015024D01*
X038794Y015122D02*
X035206Y015122D01*
X035236Y015221D02*
X038816Y015221D01*
X038838Y015319D02*
X035261Y015319D01*
X035285Y015418D02*
X038860Y015418D01*
X038882Y015516D02*
X035310Y015516D01*
X035335Y015615D02*
X038905Y015615D01*
X038927Y015713D02*
X035359Y015713D01*
X035384Y015812D02*
X038949Y015812D01*
X038971Y015910D02*
X035409Y015910D01*
X035433Y016009D02*
X038993Y016009D01*
X039015Y016107D02*
X035458Y016107D01*
X035483Y016206D02*
X039038Y016206D01*
X039060Y016304D02*
X035507Y016304D01*
X035532Y016403D02*
X039081Y016403D01*
X039094Y016501D02*
X037422Y016501D01*
X037473Y016523D02*
X037614Y016663D01*
X037690Y016847D01*
X037690Y017046D01*
X037614Y017230D01*
X037473Y017370D01*
X037290Y017446D01*
X037091Y017446D01*
X036907Y017370D01*
X036766Y017230D01*
X036690Y017046D01*
X036690Y016847D01*
X036766Y016663D01*
X036907Y016523D01*
X037091Y016446D01*
X037290Y016446D01*
X037473Y016523D01*
X037550Y016600D02*
X039107Y016600D01*
X039120Y016698D02*
X037629Y016698D01*
X037669Y016797D02*
X039134Y016797D01*
X039147Y016895D02*
X037690Y016895D01*
X037690Y016994D02*
X039160Y016994D01*
X039173Y017092D02*
X037671Y017092D01*
X037630Y017191D02*
X039186Y017191D01*
X039199Y017289D02*
X037555Y017289D01*
X037432Y017388D02*
X039212Y017388D01*
X039226Y017486D02*
X035723Y017486D01*
X035708Y017388D02*
X036949Y017388D01*
X036826Y017289D02*
X035694Y017289D01*
X035679Y017191D02*
X036750Y017191D01*
X036709Y017092D02*
X035664Y017092D01*
X035650Y016994D02*
X036690Y016994D01*
X036690Y016895D02*
X035635Y016895D01*
X035621Y016797D02*
X036711Y016797D01*
X036752Y016698D02*
X035606Y016698D01*
X035581Y016600D02*
X036830Y016600D01*
X036959Y016501D02*
X035557Y016501D01*
X035737Y017585D02*
X039239Y017585D01*
X039252Y017683D02*
X035752Y017683D01*
X035767Y017782D02*
X039265Y017782D01*
X039278Y017880D02*
X035781Y017880D01*
X035796Y017979D02*
X039291Y017979D01*
X039305Y018077D02*
X035811Y018077D01*
X035825Y018176D02*
X039312Y018176D01*
X039316Y018274D02*
X035838Y018274D01*
X035843Y018373D02*
X037342Y018373D01*
X037189Y018471D02*
X035848Y018471D01*
X035853Y018570D02*
X037101Y018570D01*
X037060Y018668D02*
X035858Y018668D01*
X035862Y018767D02*
X037032Y018767D01*
X037032Y018865D02*
X035867Y018865D01*
X035872Y018964D02*
X037044Y018964D01*
X037085Y019062D02*
X035877Y019062D01*
X035882Y019161D02*
X037046Y019161D01*
X036968Y019259D02*
X035887Y019259D01*
X035891Y019358D02*
X036890Y019358D01*
X036812Y019456D02*
X035896Y019456D01*
X035901Y019555D02*
X036735Y019555D01*
X036657Y019653D02*
X035906Y019653D01*
X035911Y019752D02*
X036579Y019752D01*
X036501Y019850D02*
X035914Y019850D01*
X035915Y019835D02*
X035915Y019835D01*
X035909Y019949D02*
X036423Y019949D01*
X036396Y020047D02*
X035905Y020047D01*
X035900Y020146D02*
X036368Y020146D01*
X036340Y020244D02*
X035895Y020244D01*
X035890Y020343D02*
X036312Y020343D01*
X036284Y020441D02*
X035885Y020441D01*
X035880Y020540D02*
X036256Y020540D01*
X036228Y020638D02*
X035875Y020638D01*
X035871Y020737D02*
X036200Y020737D01*
X036172Y020835D02*
X035866Y020835D01*
X035861Y020934D02*
X036144Y020934D01*
X036116Y021032D02*
X035856Y021032D01*
X035851Y021131D02*
X036088Y021131D01*
X036060Y021229D02*
X035846Y021229D01*
X035842Y021328D02*
X036032Y021328D01*
X036004Y021426D02*
X035835Y021426D01*
X035837Y021411D02*
X035837Y021411D01*
X035821Y021525D02*
X035976Y021525D01*
X035948Y021623D02*
X035806Y021623D01*
X035791Y021722D02*
X035920Y021722D01*
X035892Y021820D02*
X035777Y021820D01*
X035762Y021919D02*
X035864Y021919D01*
X035837Y022017D02*
X035748Y022017D01*
X035733Y022116D02*
X035809Y022116D01*
X035781Y022214D02*
X035718Y022214D01*
X035704Y022313D02*
X035753Y022313D01*
X035725Y022411D02*
X035689Y022411D01*
X035675Y022510D02*
X035697Y022510D01*
X035669Y022608D02*
X035660Y022608D01*
X036015Y022707D02*
X037670Y022707D01*
X037640Y022805D02*
X035987Y022805D01*
X035959Y022904D02*
X037610Y022904D01*
X037580Y023002D02*
X035931Y023002D01*
X035903Y023101D02*
X037550Y023101D01*
X037520Y023199D02*
X035875Y023199D01*
X035847Y023298D02*
X037490Y023298D01*
X037460Y023396D02*
X035819Y023396D01*
X035791Y023495D02*
X037430Y023495D01*
X037399Y023593D02*
X035764Y023593D01*
X035736Y023692D02*
X037369Y023692D01*
X037339Y023790D02*
X035708Y023790D01*
X035680Y023889D02*
X037309Y023889D01*
X037279Y023987D02*
X035652Y023987D01*
X035624Y024086D02*
X037249Y024086D01*
X037219Y024184D02*
X035596Y024184D01*
X035568Y024283D02*
X037189Y024283D01*
X037158Y024381D02*
X035540Y024381D01*
X035512Y024480D02*
X036952Y024480D01*
X036843Y024578D02*
X035484Y024578D01*
X035456Y024677D02*
X036780Y024677D01*
X036739Y024775D02*
X035428Y024775D01*
X035400Y024874D02*
X036735Y024874D01*
X036737Y024972D02*
X035372Y024972D01*
X035344Y025071D02*
X036777Y025071D01*
X036837Y025169D02*
X035316Y025169D01*
X037151Y025465D02*
X038540Y025465D01*
X038509Y025563D02*
X037246Y025563D01*
X037287Y025662D02*
X038477Y025662D01*
X038446Y025760D02*
X037313Y025760D01*
X037313Y025859D02*
X038414Y025859D01*
X038383Y025957D02*
X037293Y025957D01*
X037252Y026056D02*
X038351Y026056D01*
X037195Y024877D02*
X038418Y020878D01*
X037532Y019835D01*
X037334Y019376D02*
X037432Y019335D01*
X037631Y019335D01*
X037432Y019335D01*
X037383Y019314D01*
X037334Y019376D01*
X037349Y019358D02*
X037378Y019358D01*
X037032Y019850D02*
X036960Y019850D01*
X036882Y019949D02*
X037038Y019949D01*
X037079Y020047D02*
X036804Y020047D01*
X036742Y020146D02*
X037135Y020146D01*
X037234Y020244D02*
X036714Y020244D01*
X036686Y020343D02*
X037414Y020343D01*
X037432Y020335D02*
X037631Y020335D01*
X037697Y020308D01*
X037769Y020392D01*
X037631Y020335D01*
X037432Y020335D01*
X037649Y020343D02*
X037727Y020343D01*
X038032Y020737D02*
X038061Y020737D01*
X038032Y020835D02*
X038145Y020835D01*
X038032Y020934D02*
X037956Y021118D01*
X037943Y021131D02*
X038152Y021131D01*
X038122Y021229D02*
X037845Y021229D01*
X037649Y021328D02*
X038092Y021328D01*
X038062Y021426D02*
X036378Y021426D01*
X036351Y021525D02*
X038032Y021525D01*
X038002Y021623D02*
X036323Y021623D01*
X036295Y021722D02*
X037972Y021722D01*
X037942Y021820D02*
X036267Y021820D01*
X036239Y021919D02*
X037911Y021919D01*
X037881Y022017D02*
X036211Y022017D01*
X036183Y022116D02*
X037851Y022116D01*
X037821Y022214D02*
X036155Y022214D01*
X036127Y022313D02*
X037791Y022313D01*
X037761Y022411D02*
X036099Y022411D01*
X036071Y022510D02*
X037731Y022510D01*
X037701Y022608D02*
X036043Y022608D01*
X036406Y021328D02*
X037414Y021328D01*
X037219Y021229D02*
X036434Y021229D01*
X036462Y021131D02*
X037120Y021131D01*
X037032Y020835D02*
X036546Y020835D01*
X036574Y020737D02*
X037032Y020737D01*
X037072Y020638D02*
X036602Y020638D01*
X036630Y020540D02*
X037120Y020540D01*
X037219Y020441D02*
X036658Y020441D01*
X036252Y013448D02*
X034580Y013448D01*
X034534Y013349D02*
X036130Y013349D01*
X036055Y013251D02*
X034487Y013251D01*
X034440Y013152D02*
X036014Y013152D01*
X035996Y013054D02*
X034394Y013054D01*
X034347Y012955D02*
X035996Y012955D01*
X036017Y012857D02*
X034301Y012857D01*
X034254Y012758D02*
X036058Y012758D01*
X036136Y012660D02*
X034208Y012660D01*
X034161Y012561D02*
X036266Y012561D01*
X035830Y010985D02*
X037249Y010985D01*
X037197Y010887D02*
X035973Y010887D01*
X036057Y010788D02*
X037145Y010788D01*
X037092Y010690D02*
X036097Y010690D01*
X036122Y010591D02*
X037040Y010591D01*
X036988Y010493D02*
X036122Y010493D01*
X036107Y010394D02*
X036936Y010394D01*
X036884Y010296D02*
X036066Y010296D01*
X035997Y010197D02*
X036832Y010197D01*
X036780Y010099D02*
X035887Y010099D01*
X022972Y004064D02*
X022972Y004064D01*
X019835Y003755D02*
X019835Y003755D01*
X010532Y005765D02*
X009801Y005765D01*
X009760Y005863D02*
X010440Y005863D01*
X010347Y005962D02*
X009679Y005962D01*
X009545Y006060D02*
X010254Y006060D01*
X008457Y006111D02*
X006823Y005800D01*
X006840Y006060D02*
X007229Y006060D01*
X007400Y006417D02*
X007400Y006417D01*
X007490Y006454D02*
X008093Y006454D01*
X008017Y006356D02*
X006592Y006356D01*
X006509Y006454D02*
X006983Y006454D01*
X006761Y006553D02*
X006427Y006553D01*
X006344Y006651D02*
X006663Y006651D01*
X006564Y006750D02*
X006262Y006750D01*
X006179Y006848D02*
X006510Y006848D01*
X006541Y006772D02*
X006541Y006772D01*
X006469Y006947D02*
X006096Y006947D01*
X006014Y007045D02*
X006428Y007045D01*
X006417Y007144D02*
X005931Y007144D01*
X005849Y007242D02*
X006417Y007242D01*
X006417Y007341D02*
X005766Y007341D01*
X005683Y007439D02*
X006433Y007439D01*
X006474Y007538D02*
X005601Y007538D01*
X005518Y007636D02*
X006514Y007636D01*
X006541Y007701D02*
X006541Y007701D01*
X006575Y007735D02*
X005436Y007735D01*
X005353Y007833D02*
X006673Y007833D01*
X006772Y007932D02*
X005270Y007932D01*
X005188Y008030D02*
X007009Y008030D01*
X006772Y007932D02*
X006772Y007932D01*
X005627Y006947D02*
X005158Y006947D01*
X005074Y007045D02*
X005544Y007045D01*
X005461Y007144D02*
X004990Y007144D01*
X004905Y007242D02*
X005379Y007242D01*
X005296Y007341D02*
X004821Y007341D01*
X004737Y007439D02*
X005214Y007439D01*
X005131Y007538D02*
X004653Y007538D01*
X004568Y007636D02*
X005048Y007636D01*
X004966Y007735D02*
X004484Y007735D01*
X004406Y007833D02*
X004883Y007833D01*
X004801Y007932D02*
X004335Y007932D01*
X004265Y008030D02*
X004718Y008030D01*
X004635Y008129D02*
X004195Y008129D01*
X004125Y008227D02*
X004553Y008227D01*
X004470Y008326D02*
X004054Y008326D01*
X003984Y008424D02*
X004388Y008424D01*
X004305Y008523D02*
X003914Y008523D01*
X003844Y008621D02*
X004222Y008621D01*
X004140Y008720D02*
X003773Y008720D01*
X003703Y008818D02*
X004057Y008818D01*
X003975Y008917D02*
X003633Y008917D01*
X003563Y009015D02*
X003892Y009015D01*
X003809Y009114D02*
X003492Y009114D01*
X003424Y009212D02*
X003727Y009212D01*
X003644Y009311D02*
X003366Y009311D01*
X003308Y009409D02*
X003562Y009409D01*
X003479Y009508D02*
X003250Y009508D01*
X003192Y009606D02*
X003396Y009606D01*
X003155Y011281D02*
X002930Y011281D01*
X002913Y011379D02*
X002894Y011379D01*
X002874Y011478D02*
X002858Y011478D01*
X002836Y011576D02*
X002821Y011576D01*
X002797Y011675D02*
X002785Y011675D01*
X002759Y011773D02*
X002748Y011773D01*
X002721Y011872D02*
X002712Y011872D01*
X002682Y011970D02*
X002675Y011970D01*
X002644Y012069D02*
X002639Y012069D01*
X002605Y012167D02*
X002602Y012167D01*
X002566Y012266D02*
X002567Y012266D01*
X002915Y012364D02*
X002994Y012364D01*
X002994Y012321D02*
X003075Y012127D01*
X003224Y011978D01*
X003418Y011897D01*
X003629Y011897D01*
X003824Y011978D01*
X003973Y012127D01*
X004054Y012321D01*
X004054Y012532D01*
X003973Y012727D01*
X003824Y012876D01*
X003629Y012957D01*
X003418Y012957D01*
X003224Y012876D01*
X003075Y012727D01*
X002994Y012532D01*
X002994Y012321D01*
X003017Y012266D02*
X002953Y012266D01*
X002992Y012167D02*
X003058Y012167D01*
X003030Y012069D02*
X003133Y012069D01*
X003069Y011970D02*
X003242Y011970D01*
X003107Y011872D02*
X004969Y011872D01*
X004896Y011970D02*
X003806Y011970D01*
X003915Y012069D02*
X004823Y012069D01*
X004749Y012167D02*
X003990Y012167D01*
X004031Y012266D02*
X004676Y012266D01*
X004603Y012364D02*
X004054Y012364D01*
X004054Y012463D02*
X004530Y012463D01*
X004457Y012561D02*
X004042Y012561D01*
X004001Y012660D02*
X004384Y012660D01*
X004310Y012758D02*
X003942Y012758D01*
X003844Y012857D02*
X004237Y012857D01*
X004164Y012955D02*
X003634Y012955D01*
X003414Y012955D02*
X002684Y012955D01*
X002695Y013054D02*
X002645Y013054D01*
X002628Y013152D02*
X002607Y013152D01*
X002587Y013251D02*
X002568Y013251D01*
X002547Y013349D02*
X002530Y013349D01*
X002518Y013448D02*
X002491Y013448D01*
X002925Y013743D02*
X002970Y013743D01*
X002992Y013842D02*
X002884Y013842D01*
X002843Y013940D02*
X002951Y013940D01*
X002910Y014039D02*
X002802Y014039D01*
X003181Y014579D02*
X005800Y011056D01*
X005262Y011478D02*
X005140Y011478D01*
X005189Y011576D02*
X003459Y011576D01*
X003184Y011675D02*
X005115Y011675D01*
X005042Y011773D02*
X003145Y011773D01*
X002994Y012463D02*
X002876Y012463D01*
X002838Y012561D02*
X003006Y012561D01*
X003047Y012660D02*
X002799Y012660D01*
X002761Y012758D02*
X003106Y012758D01*
X003204Y012857D02*
X002722Y012857D01*
X002873Y013054D02*
X004091Y013054D01*
X004018Y013152D02*
X003111Y013152D01*
X003807Y014039D02*
X004851Y014039D01*
X004816Y014137D02*
X003734Y014137D01*
X003661Y014236D02*
X004781Y014236D01*
X004746Y014334D02*
X003588Y014334D01*
X003515Y014433D02*
X004710Y014433D01*
X004675Y014531D02*
X003511Y014531D01*
X003511Y014630D02*
X004640Y014630D01*
X004605Y014728D02*
X003477Y014728D01*
X003401Y014827D02*
X004569Y014827D01*
X004688Y011478D02*
X003856Y011478D01*
X004253Y011379D02*
X004556Y011379D01*
X005243Y006848D02*
X005709Y006848D01*
X005792Y006750D02*
X005327Y006750D01*
X005411Y006651D02*
X005874Y006651D01*
X005957Y006553D02*
X005496Y006553D01*
X005584Y006454D02*
X006040Y006454D01*
X006122Y006356D02*
X005685Y006356D01*
X005785Y006257D02*
X006205Y006257D01*
X006287Y006159D02*
X005886Y006159D01*
X006675Y006257D02*
X007977Y006257D01*
X007746Y006159D02*
X006757Y006159D01*
X007601Y005765D02*
X008096Y005765D01*
X008217Y006553D02*
X007712Y006553D01*
X007701Y006541D02*
X007701Y006541D01*
X034015Y029109D02*
X034582Y029109D01*
X034420Y029011D02*
X034118Y029011D01*
X034225Y028912D02*
X034328Y028912D01*
X034286Y028814D02*
X034287Y028814D01*
X034450Y028223D02*
X034467Y028223D01*
D19*
X031430Y034520D03*
X008181Y034500D03*
X001351Y020209D03*
X002689Y016430D03*
X003181Y014579D03*
M02*
