G75*
%MOIN*%
%OFA0B0*%
%FSLAX24Y24*%
%IPPOS*%
%LPD*%
%AMOC8*
5,1,8,0,0,1.08239X$1,22.5*
%
%ADD10C,0.0010*%
%ADD11C,0.0800*%
%ADD12R,0.0800X0.0800*%
%ADD13C,0.0780*%
%ADD14C,0.0660*%
%ADD15C,0.0740*%
%ADD16C,0.0000*%
%ADD17C,0.0100*%
%ADD18C,0.0400*%
D10*
X000150Y019835D02*
X000156Y020318D01*
X000174Y020801D01*
X000203Y021283D01*
X000245Y021764D01*
X000298Y022245D01*
X000363Y022723D01*
X000440Y023200D01*
X000528Y023675D01*
X000628Y024148D01*
X000740Y024618D01*
X000863Y025085D01*
X000998Y025549D01*
X001144Y026010D01*
X001301Y026467D01*
X001469Y026920D01*
X001648Y027368D01*
X001839Y027812D01*
X002040Y028251D01*
X002252Y028686D01*
X002474Y029114D01*
X002707Y029538D01*
X002951Y029955D01*
X003204Y030366D01*
X003468Y030771D01*
X003741Y031170D01*
X004024Y031561D01*
X004316Y031946D01*
X004618Y032323D01*
X004929Y032693D01*
X005249Y033055D01*
X005578Y033409D01*
X005916Y033754D01*
X006261Y034092D01*
X006615Y034421D01*
X006977Y034741D01*
X007347Y035052D01*
X007724Y035354D01*
X008109Y035646D01*
X008500Y035929D01*
X008899Y036202D01*
X009304Y036466D01*
X009715Y036719D01*
X010132Y036963D01*
X010556Y037196D01*
X010984Y037418D01*
X011419Y037630D01*
X011858Y037831D01*
X012302Y038022D01*
X012750Y038201D01*
X013203Y038369D01*
X013660Y038526D01*
X014121Y038672D01*
X014585Y038807D01*
X015052Y038930D01*
X015522Y039042D01*
X015995Y039142D01*
X016470Y039230D01*
X016947Y039307D01*
X017425Y039372D01*
X017906Y039425D01*
X018387Y039467D01*
X018869Y039496D01*
X019352Y039514D01*
X019835Y039520D01*
X020318Y039514D01*
X020801Y039496D01*
X021283Y039467D01*
X021764Y039425D01*
X022245Y039372D01*
X022723Y039307D01*
X023200Y039230D01*
X023675Y039142D01*
X024148Y039042D01*
X024618Y038930D01*
X025085Y038807D01*
X025549Y038672D01*
X026010Y038526D01*
X026467Y038369D01*
X026920Y038201D01*
X027368Y038022D01*
X027812Y037831D01*
X028251Y037630D01*
X028686Y037418D01*
X029114Y037196D01*
X029538Y036963D01*
X029955Y036719D01*
X030366Y036466D01*
X030771Y036202D01*
X031170Y035929D01*
X031561Y035646D01*
X031946Y035354D01*
X032323Y035052D01*
X032693Y034741D01*
X033055Y034421D01*
X033409Y034092D01*
X033754Y033754D01*
X034092Y033409D01*
X034421Y033055D01*
X034741Y032693D01*
X035052Y032323D01*
X035354Y031946D01*
X035646Y031561D01*
X035929Y031170D01*
X036202Y030771D01*
X036466Y030366D01*
X036719Y029955D01*
X036963Y029538D01*
X037196Y029114D01*
X037418Y028686D01*
X037630Y028251D01*
X037831Y027812D01*
X038022Y027368D01*
X038201Y026920D01*
X038369Y026467D01*
X038526Y026010D01*
X038672Y025549D01*
X038807Y025085D01*
X038930Y024618D01*
X039042Y024148D01*
X039142Y023675D01*
X039230Y023200D01*
X039307Y022723D01*
X039372Y022245D01*
X039425Y021764D01*
X039467Y021283D01*
X039496Y020801D01*
X039514Y020318D01*
X039520Y019835D01*
X039514Y019352D01*
X039496Y018869D01*
X039467Y018387D01*
X039425Y017906D01*
X039372Y017425D01*
X039307Y016947D01*
X039230Y016470D01*
X039142Y015995D01*
X039042Y015522D01*
X038930Y015052D01*
X038807Y014585D01*
X038672Y014121D01*
X038526Y013660D01*
X038369Y013203D01*
X038201Y012750D01*
X038022Y012302D01*
X037831Y011858D01*
X037630Y011419D01*
X037418Y010984D01*
X037196Y010556D01*
X036963Y010132D01*
X036719Y009715D01*
X036466Y009304D01*
X036202Y008899D01*
X035929Y008500D01*
X035646Y008109D01*
X035354Y007724D01*
X035052Y007347D01*
X034741Y006977D01*
X034421Y006615D01*
X034092Y006261D01*
X033754Y005916D01*
X033409Y005578D01*
X033055Y005249D01*
X032693Y004929D01*
X032323Y004618D01*
X031946Y004316D01*
X031561Y004024D01*
X031170Y003741D01*
X030771Y003468D01*
X030366Y003204D01*
X029955Y002951D01*
X029538Y002707D01*
X029114Y002474D01*
X028686Y002252D01*
X028251Y002040D01*
X027812Y001839D01*
X027368Y001648D01*
X026920Y001469D01*
X026467Y001301D01*
X026010Y001144D01*
X025549Y000998D01*
X025085Y000863D01*
X024618Y000740D01*
X024148Y000628D01*
X023675Y000528D01*
X023200Y000440D01*
X022723Y000363D01*
X022245Y000298D01*
X021764Y000245D01*
X021283Y000203D01*
X020801Y000174D01*
X020318Y000156D01*
X019835Y000150D01*
X019352Y000156D01*
X018869Y000174D01*
X018387Y000203D01*
X017906Y000245D01*
X017425Y000298D01*
X016947Y000363D01*
X016470Y000440D01*
X015995Y000528D01*
X015522Y000628D01*
X015052Y000740D01*
X014585Y000863D01*
X014121Y000998D01*
X013660Y001144D01*
X013203Y001301D01*
X012750Y001469D01*
X012302Y001648D01*
X011858Y001839D01*
X011419Y002040D01*
X010984Y002252D01*
X010556Y002474D01*
X010132Y002707D01*
X009715Y002951D01*
X009304Y003204D01*
X008899Y003468D01*
X008500Y003741D01*
X008109Y004024D01*
X007724Y004316D01*
X007347Y004618D01*
X006977Y004929D01*
X006615Y005249D01*
X006261Y005578D01*
X005916Y005916D01*
X005578Y006261D01*
X005249Y006615D01*
X004929Y006977D01*
X004618Y007347D01*
X004316Y007724D01*
X004024Y008109D01*
X003741Y008500D01*
X003468Y008899D01*
X003204Y009304D01*
X002951Y009715D01*
X002707Y010132D01*
X002474Y010556D01*
X002252Y010984D01*
X002040Y011419D01*
X001839Y011858D01*
X001648Y012302D01*
X001469Y012750D01*
X001301Y013203D01*
X001144Y013660D01*
X000998Y014121D01*
X000863Y014585D01*
X000740Y015052D01*
X000628Y015522D01*
X000528Y015995D01*
X000440Y016470D01*
X000363Y016947D01*
X000298Y017425D01*
X000245Y017906D01*
X000203Y018387D01*
X000174Y018869D01*
X000156Y019352D01*
X000150Y019835D01*
X003890Y019835D02*
X003895Y020226D01*
X003909Y020617D01*
X003933Y021008D01*
X003967Y021398D01*
X004010Y021787D01*
X004063Y022175D01*
X004125Y022561D01*
X004196Y022946D01*
X004277Y023329D01*
X004368Y023709D01*
X004468Y024088D01*
X004577Y024464D01*
X004695Y024837D01*
X004822Y025207D01*
X004958Y025574D01*
X005104Y025937D01*
X005258Y026297D01*
X005421Y026652D01*
X005593Y027004D01*
X005773Y027351D01*
X005961Y027694D01*
X006159Y028032D01*
X006364Y028366D01*
X006577Y028694D01*
X006799Y029016D01*
X007028Y029333D01*
X007265Y029645D01*
X007509Y029950D01*
X007761Y030250D01*
X008021Y030543D01*
X008287Y030830D01*
X008560Y031110D01*
X008840Y031383D01*
X009127Y031649D01*
X009420Y031909D01*
X009720Y032161D01*
X010025Y032405D01*
X010337Y032642D01*
X010654Y032871D01*
X010976Y033093D01*
X011304Y033306D01*
X011638Y033511D01*
X011976Y033709D01*
X012319Y033897D01*
X012666Y034077D01*
X013018Y034249D01*
X013373Y034412D01*
X013733Y034566D01*
X014096Y034712D01*
X014463Y034848D01*
X014833Y034975D01*
X015206Y035093D01*
X015582Y035202D01*
X015961Y035302D01*
X016341Y035393D01*
X016724Y035474D01*
X017109Y035545D01*
X017495Y035607D01*
X017883Y035660D01*
X018272Y035703D01*
X018662Y035737D01*
X019053Y035761D01*
X019444Y035775D01*
X019835Y035780D01*
X020226Y035775D01*
X020617Y035761D01*
X021008Y035737D01*
X021398Y035703D01*
X021787Y035660D01*
X022175Y035607D01*
X022561Y035545D01*
X022946Y035474D01*
X023329Y035393D01*
X023709Y035302D01*
X024088Y035202D01*
X024464Y035093D01*
X024837Y034975D01*
X025207Y034848D01*
X025574Y034712D01*
X025937Y034566D01*
X026297Y034412D01*
X026652Y034249D01*
X027004Y034077D01*
X027351Y033897D01*
X027694Y033709D01*
X028032Y033511D01*
X028366Y033306D01*
X028694Y033093D01*
X029016Y032871D01*
X029333Y032642D01*
X029645Y032405D01*
X029950Y032161D01*
X030250Y031909D01*
X030543Y031649D01*
X030830Y031383D01*
X031110Y031110D01*
X031383Y030830D01*
X031649Y030543D01*
X031909Y030250D01*
X032161Y029950D01*
X032405Y029645D01*
X032642Y029333D01*
X032871Y029016D01*
X033093Y028694D01*
X033306Y028366D01*
X033511Y028032D01*
X033709Y027694D01*
X033897Y027351D01*
X034077Y027004D01*
X034249Y026652D01*
X034412Y026297D01*
X034566Y025937D01*
X034712Y025574D01*
X034848Y025207D01*
X034975Y024837D01*
X035093Y024464D01*
X035202Y024088D01*
X035302Y023709D01*
X035393Y023329D01*
X035474Y022946D01*
X035545Y022561D01*
X035607Y022175D01*
X035660Y021787D01*
X035703Y021398D01*
X035737Y021008D01*
X035761Y020617D01*
X035775Y020226D01*
X035780Y019835D01*
X035775Y019444D01*
X035761Y019053D01*
X035737Y018662D01*
X035703Y018272D01*
X035660Y017883D01*
X035607Y017495D01*
X035545Y017109D01*
X035474Y016724D01*
X035393Y016341D01*
X035302Y015961D01*
X035202Y015582D01*
X035093Y015206D01*
X034975Y014833D01*
X034848Y014463D01*
X034712Y014096D01*
X034566Y013733D01*
X034412Y013373D01*
X034249Y013018D01*
X034077Y012666D01*
X033897Y012319D01*
X033709Y011976D01*
X033511Y011638D01*
X033306Y011304D01*
X033093Y010976D01*
X032871Y010654D01*
X032642Y010337D01*
X032405Y010025D01*
X032161Y009720D01*
X031909Y009420D01*
X031649Y009127D01*
X031383Y008840D01*
X031110Y008560D01*
X030830Y008287D01*
X030543Y008021D01*
X030250Y007761D01*
X029950Y007509D01*
X029645Y007265D01*
X029333Y007028D01*
X029016Y006799D01*
X028694Y006577D01*
X028366Y006364D01*
X028032Y006159D01*
X027694Y005961D01*
X027351Y005773D01*
X027004Y005593D01*
X026652Y005421D01*
X026297Y005258D01*
X025937Y005104D01*
X025574Y004958D01*
X025207Y004822D01*
X024837Y004695D01*
X024464Y004577D01*
X024088Y004468D01*
X023709Y004368D01*
X023329Y004277D01*
X022946Y004196D01*
X022561Y004125D01*
X022175Y004063D01*
X021787Y004010D01*
X021398Y003967D01*
X021008Y003933D01*
X020617Y003909D01*
X020226Y003895D01*
X019835Y003890D01*
X019444Y003895D01*
X019053Y003909D01*
X018662Y003933D01*
X018272Y003967D01*
X017883Y004010D01*
X017495Y004063D01*
X017109Y004125D01*
X016724Y004196D01*
X016341Y004277D01*
X015961Y004368D01*
X015582Y004468D01*
X015206Y004577D01*
X014833Y004695D01*
X014463Y004822D01*
X014096Y004958D01*
X013733Y005104D01*
X013373Y005258D01*
X013018Y005421D01*
X012666Y005593D01*
X012319Y005773D01*
X011976Y005961D01*
X011638Y006159D01*
X011304Y006364D01*
X010976Y006577D01*
X010654Y006799D01*
X010337Y007028D01*
X010025Y007265D01*
X009720Y007509D01*
X009420Y007761D01*
X009127Y008021D01*
X008840Y008287D01*
X008560Y008560D01*
X008287Y008840D01*
X008021Y009127D01*
X007761Y009420D01*
X007509Y009720D01*
X007265Y010025D01*
X007028Y010337D01*
X006799Y010654D01*
X006577Y010976D01*
X006364Y011304D01*
X006159Y011638D01*
X005961Y011976D01*
X005773Y012319D01*
X005593Y012666D01*
X005421Y013018D01*
X005258Y013373D01*
X005104Y013733D01*
X004958Y014096D01*
X004822Y014463D01*
X004695Y014833D01*
X004577Y015206D01*
X004468Y015582D01*
X004368Y015961D01*
X004277Y016341D01*
X004196Y016724D01*
X004125Y017109D01*
X004063Y017495D01*
X004010Y017883D01*
X003967Y018272D01*
X003933Y018662D01*
X003909Y019053D01*
X003895Y019444D01*
X003890Y019835D01*
D11*
X003524Y012427D03*
D12*
G36*
X002781Y013178D02*
X002475Y013916D01*
X003213Y014222D01*
X003519Y013484D01*
X002781Y013178D01*
G37*
D13*
X003859Y015471D03*
X001402Y017191D03*
D14*
X002209Y021808D03*
X003205Y021721D03*
X003377Y022935D03*
X002392Y023109D03*
X016394Y037406D03*
X017379Y037579D03*
X036853Y025817D03*
X037195Y024877D03*
X014267Y003002D03*
X012812Y003605D03*
D15*
X010189Y005111D03*
X009323Y005611D03*
X008457Y006111D03*
X004048Y010530D03*
X004914Y011030D03*
X003206Y023983D03*
X001883Y024416D03*
X004574Y027742D03*
X004914Y028640D03*
X004048Y029140D03*
X003251Y028175D03*
X008861Y033592D03*
X009045Y034995D03*
X010447Y034810D03*
X011530Y035364D03*
X015156Y037054D03*
X019835Y037052D03*
X019835Y038052D03*
X022612Y037286D03*
X026476Y036250D03*
X028134Y035237D03*
X029000Y034737D03*
X029866Y034237D03*
X034756Y028640D03*
X035622Y029140D03*
X037532Y020835D03*
X037532Y019835D03*
X037532Y018835D03*
X037190Y016946D03*
X036496Y013007D03*
X034756Y011030D03*
X035622Y010530D03*
X030815Y005315D03*
X027351Y003315D03*
X025258Y002495D03*
X024292Y002237D03*
X023326Y001978D03*
X019835Y001619D03*
X019835Y002619D03*
D16*
X006587Y007237D02*
X006589Y007287D01*
X006595Y007337D01*
X006605Y007387D01*
X006618Y007435D01*
X006635Y007483D01*
X006656Y007529D01*
X006680Y007573D01*
X006708Y007615D01*
X006739Y007655D01*
X006773Y007692D01*
X006810Y007727D01*
X006849Y007758D01*
X006890Y007787D01*
X006934Y007812D01*
X006980Y007834D01*
X007027Y007852D01*
X007075Y007866D01*
X007124Y007877D01*
X007174Y007884D01*
X007224Y007887D01*
X007275Y007886D01*
X007325Y007881D01*
X007375Y007872D01*
X007423Y007860D01*
X007471Y007843D01*
X007517Y007823D01*
X007562Y007800D01*
X007605Y007773D01*
X007645Y007743D01*
X007683Y007710D01*
X007718Y007674D01*
X007751Y007635D01*
X007780Y007594D01*
X007806Y007551D01*
X007829Y007506D01*
X007848Y007459D01*
X007863Y007411D01*
X007875Y007362D01*
X007883Y007312D01*
X007887Y007262D01*
X007887Y007212D01*
X007883Y007162D01*
X007875Y007112D01*
X007863Y007063D01*
X007848Y007015D01*
X007829Y006968D01*
X007806Y006923D01*
X007780Y006880D01*
X007751Y006839D01*
X007718Y006800D01*
X007683Y006764D01*
X007645Y006731D01*
X007605Y006701D01*
X007562Y006674D01*
X007517Y006651D01*
X007471Y006631D01*
X007423Y006614D01*
X007375Y006602D01*
X007325Y006593D01*
X007275Y006588D01*
X007224Y006587D01*
X007174Y006590D01*
X007124Y006597D01*
X007075Y006608D01*
X007027Y006622D01*
X006980Y006640D01*
X006934Y006662D01*
X006890Y006687D01*
X006849Y006716D01*
X006810Y006747D01*
X006773Y006782D01*
X006739Y006819D01*
X006708Y006859D01*
X006680Y006901D01*
X006656Y006945D01*
X006635Y006991D01*
X006618Y007039D01*
X006605Y007087D01*
X006595Y007137D01*
X006589Y007187D01*
X006587Y007237D01*
X006587Y032433D02*
X006589Y032483D01*
X006595Y032533D01*
X006605Y032583D01*
X006618Y032631D01*
X006635Y032679D01*
X006656Y032725D01*
X006680Y032769D01*
X006708Y032811D01*
X006739Y032851D01*
X006773Y032888D01*
X006810Y032923D01*
X006849Y032954D01*
X006890Y032983D01*
X006934Y033008D01*
X006980Y033030D01*
X007027Y033048D01*
X007075Y033062D01*
X007124Y033073D01*
X007174Y033080D01*
X007224Y033083D01*
X007275Y033082D01*
X007325Y033077D01*
X007375Y033068D01*
X007423Y033056D01*
X007471Y033039D01*
X007517Y033019D01*
X007562Y032996D01*
X007605Y032969D01*
X007645Y032939D01*
X007683Y032906D01*
X007718Y032870D01*
X007751Y032831D01*
X007780Y032790D01*
X007806Y032747D01*
X007829Y032702D01*
X007848Y032655D01*
X007863Y032607D01*
X007875Y032558D01*
X007883Y032508D01*
X007887Y032458D01*
X007887Y032408D01*
X007883Y032358D01*
X007875Y032308D01*
X007863Y032259D01*
X007848Y032211D01*
X007829Y032164D01*
X007806Y032119D01*
X007780Y032076D01*
X007751Y032035D01*
X007718Y031996D01*
X007683Y031960D01*
X007645Y031927D01*
X007605Y031897D01*
X007562Y031870D01*
X007517Y031847D01*
X007471Y031827D01*
X007423Y031810D01*
X007375Y031798D01*
X007325Y031789D01*
X007275Y031784D01*
X007224Y031783D01*
X007174Y031786D01*
X007124Y031793D01*
X007075Y031804D01*
X007027Y031818D01*
X006980Y031836D01*
X006934Y031858D01*
X006890Y031883D01*
X006849Y031912D01*
X006810Y031943D01*
X006773Y031978D01*
X006739Y032015D01*
X006708Y032055D01*
X006680Y032097D01*
X006656Y032141D01*
X006635Y032187D01*
X006618Y032235D01*
X006605Y032283D01*
X006595Y032333D01*
X006589Y032383D01*
X006587Y032433D01*
X031783Y032433D02*
X031785Y032483D01*
X031791Y032533D01*
X031801Y032583D01*
X031814Y032631D01*
X031831Y032679D01*
X031852Y032725D01*
X031876Y032769D01*
X031904Y032811D01*
X031935Y032851D01*
X031969Y032888D01*
X032006Y032923D01*
X032045Y032954D01*
X032086Y032983D01*
X032130Y033008D01*
X032176Y033030D01*
X032223Y033048D01*
X032271Y033062D01*
X032320Y033073D01*
X032370Y033080D01*
X032420Y033083D01*
X032471Y033082D01*
X032521Y033077D01*
X032571Y033068D01*
X032619Y033056D01*
X032667Y033039D01*
X032713Y033019D01*
X032758Y032996D01*
X032801Y032969D01*
X032841Y032939D01*
X032879Y032906D01*
X032914Y032870D01*
X032947Y032831D01*
X032976Y032790D01*
X033002Y032747D01*
X033025Y032702D01*
X033044Y032655D01*
X033059Y032607D01*
X033071Y032558D01*
X033079Y032508D01*
X033083Y032458D01*
X033083Y032408D01*
X033079Y032358D01*
X033071Y032308D01*
X033059Y032259D01*
X033044Y032211D01*
X033025Y032164D01*
X033002Y032119D01*
X032976Y032076D01*
X032947Y032035D01*
X032914Y031996D01*
X032879Y031960D01*
X032841Y031927D01*
X032801Y031897D01*
X032758Y031870D01*
X032713Y031847D01*
X032667Y031827D01*
X032619Y031810D01*
X032571Y031798D01*
X032521Y031789D01*
X032471Y031784D01*
X032420Y031783D01*
X032370Y031786D01*
X032320Y031793D01*
X032271Y031804D01*
X032223Y031818D01*
X032176Y031836D01*
X032130Y031858D01*
X032086Y031883D01*
X032045Y031912D01*
X032006Y031943D01*
X031969Y031978D01*
X031935Y032015D01*
X031904Y032055D01*
X031876Y032097D01*
X031852Y032141D01*
X031831Y032187D01*
X031814Y032235D01*
X031801Y032283D01*
X031791Y032333D01*
X031785Y032383D01*
X031783Y032433D01*
X031783Y007237D02*
X031785Y007287D01*
X031791Y007337D01*
X031801Y007387D01*
X031814Y007435D01*
X031831Y007483D01*
X031852Y007529D01*
X031876Y007573D01*
X031904Y007615D01*
X031935Y007655D01*
X031969Y007692D01*
X032006Y007727D01*
X032045Y007758D01*
X032086Y007787D01*
X032130Y007812D01*
X032176Y007834D01*
X032223Y007852D01*
X032271Y007866D01*
X032320Y007877D01*
X032370Y007884D01*
X032420Y007887D01*
X032471Y007886D01*
X032521Y007881D01*
X032571Y007872D01*
X032619Y007860D01*
X032667Y007843D01*
X032713Y007823D01*
X032758Y007800D01*
X032801Y007773D01*
X032841Y007743D01*
X032879Y007710D01*
X032914Y007674D01*
X032947Y007635D01*
X032976Y007594D01*
X033002Y007551D01*
X033025Y007506D01*
X033044Y007459D01*
X033059Y007411D01*
X033071Y007362D01*
X033079Y007312D01*
X033083Y007262D01*
X033083Y007212D01*
X033079Y007162D01*
X033071Y007112D01*
X033059Y007063D01*
X033044Y007015D01*
X033025Y006968D01*
X033002Y006923D01*
X032976Y006880D01*
X032947Y006839D01*
X032914Y006800D01*
X032879Y006764D01*
X032841Y006731D01*
X032801Y006701D01*
X032758Y006674D01*
X032713Y006651D01*
X032667Y006631D01*
X032619Y006614D01*
X032571Y006602D01*
X032521Y006593D01*
X032471Y006588D01*
X032420Y006587D01*
X032370Y006590D01*
X032320Y006597D01*
X032271Y006608D01*
X032223Y006622D01*
X032176Y006640D01*
X032130Y006662D01*
X032086Y006687D01*
X032045Y006716D01*
X032006Y006747D01*
X031969Y006782D01*
X031935Y006819D01*
X031904Y006859D01*
X031876Y006901D01*
X031852Y006945D01*
X031831Y006991D01*
X031814Y007039D01*
X031801Y007087D01*
X031791Y007137D01*
X031785Y007187D01*
X031783Y007237D01*
D17*
X007977Y006257D02*
X006674Y006257D01*
X006592Y006356D02*
X008017Y006356D01*
X008033Y006394D02*
X007957Y006210D01*
X007957Y006011D01*
X008033Y005827D01*
X008174Y005687D01*
X008358Y005611D01*
X008557Y005611D01*
X008740Y005687D01*
X008865Y005812D01*
X008823Y005710D01*
X008823Y005511D01*
X008899Y005327D01*
X009040Y005187D01*
X009224Y005111D01*
X009423Y005111D01*
X009606Y005187D01*
X009731Y005312D01*
X009689Y005210D01*
X009689Y005154D01*
X008330Y004761D01*
X007551Y005211D01*
X003443Y010110D01*
X003674Y010197D01*
X003764Y010106D01*
X003948Y010030D01*
X004147Y010030D01*
X004331Y010106D01*
X004472Y010247D01*
X004548Y010430D01*
X004548Y010629D01*
X004506Y010731D01*
X004630Y010606D01*
X004814Y010530D01*
X005013Y010530D01*
X005162Y010592D01*
X008582Y007773D01*
X008583Y007771D01*
X008640Y007726D01*
X008695Y007680D01*
X008698Y007680D01*
X012647Y004579D01*
X012665Y004546D01*
X012704Y004534D01*
X012735Y004510D01*
X012772Y004514D01*
X019335Y002578D01*
X019335Y002519D01*
X019411Y002335D01*
X019552Y002195D01*
X019736Y002119D01*
X019934Y002119D01*
X020118Y002195D01*
X020259Y002335D01*
X020335Y002519D01*
X020335Y002718D01*
X020259Y002902D01*
X020118Y003042D01*
X019934Y003119D01*
X019736Y003119D01*
X019552Y003042D01*
X019434Y002924D01*
X012872Y004860D01*
X008865Y008007D01*
X005389Y010871D01*
X005414Y010930D01*
X005414Y011129D01*
X005338Y011313D01*
X005197Y011454D01*
X005013Y011530D01*
X004814Y011530D01*
X004630Y011454D01*
X004490Y011313D01*
X004414Y011129D01*
X004414Y010930D01*
X004456Y010829D01*
X004331Y010954D01*
X004147Y011030D01*
X003948Y011030D01*
X003764Y010954D01*
X003624Y010813D01*
X003548Y010629D01*
X003548Y010534D01*
X003248Y010422D01*
X000999Y016521D01*
X000999Y016858D01*
X001107Y016751D01*
X001298Y016671D01*
X001505Y016671D01*
X001696Y016751D01*
X001842Y016897D01*
X001922Y017088D01*
X001922Y017295D01*
X001842Y017486D01*
X002509Y017486D01*
X002509Y017388D02*
X001883Y017388D01*
X001842Y017486D02*
X001839Y017489D01*
X002354Y018202D01*
X002397Y018245D01*
X002397Y018261D01*
X002406Y018274D01*
X002509Y018274D01*
X002509Y018176D02*
X002335Y018176D01*
X002406Y018274D02*
X002397Y018334D01*
X002390Y021385D01*
X002470Y021418D01*
X002509Y021458D01*
X002509Y016712D01*
X002502Y016709D01*
X002410Y016616D01*
X002359Y016495D01*
X002359Y016364D01*
X002410Y016243D01*
X002502Y016150D01*
X002624Y016100D01*
X002755Y016100D01*
X002876Y016150D01*
X002969Y016243D01*
X002990Y016294D01*
X003000Y014861D01*
X002995Y014859D01*
X002902Y014766D01*
X002851Y014645D01*
X002851Y014513D01*
X002902Y014392D01*
X002995Y014299D01*
X003001Y014297D01*
X002832Y014227D01*
X003024Y013765D01*
X003486Y013957D01*
X003347Y014291D01*
X003368Y014299D01*
X003461Y014392D01*
X003511Y014513D01*
X003511Y014645D01*
X003461Y014766D01*
X003368Y014859D01*
X003360Y014863D01*
X003357Y015325D01*
X003418Y015176D01*
X003564Y015030D01*
X003677Y014983D01*
X003671Y012944D01*
X003669Y012941D01*
X003629Y012957D01*
X003418Y012957D01*
X003224Y012876D01*
X003075Y012727D01*
X002994Y012532D01*
X002994Y012321D01*
X003075Y012127D01*
X003224Y011978D01*
X003418Y011897D01*
X003629Y011897D01*
X003824Y011978D01*
X003973Y012127D01*
X004054Y012321D01*
X004054Y012532D01*
X003973Y012727D01*
X003965Y012736D01*
X003989Y012769D01*
X004031Y012811D01*
X004031Y012828D01*
X004041Y012843D01*
X004031Y012901D01*
X004037Y014982D01*
X004154Y015030D01*
X004300Y015176D01*
X004379Y015367D01*
X004379Y015441D01*
X004448Y015167D01*
X004979Y013682D01*
X004979Y013682D01*
X005654Y012255D01*
X006465Y010902D01*
X006465Y010902D01*
X007405Y009634D01*
X008465Y008465D01*
X009634Y007405D01*
X010902Y006465D01*
X012255Y005654D01*
X013682Y004979D01*
X015167Y004448D01*
X016698Y004064D01*
X018259Y003833D01*
X019835Y003755D01*
X021411Y003833D01*
X022972Y004064D01*
X024503Y004448D01*
X025989Y004979D01*
X027415Y005654D01*
X028769Y006465D01*
X030036Y007405D01*
X031205Y008465D01*
X032265Y009634D01*
X033205Y010902D01*
X034016Y012255D01*
X034691Y013682D01*
X035223Y015167D01*
X035606Y016698D01*
X035837Y018259D01*
X035915Y019835D01*
X035837Y021411D01*
X035606Y022972D01*
X035606Y022972D01*
X035223Y024503D01*
X034691Y025989D01*
X034016Y027415D01*
X033205Y028769D01*
X032265Y030036D01*
X031205Y031205D01*
X030036Y032265D01*
X028769Y033205D01*
X028769Y033205D01*
X027415Y034016D01*
X025989Y034691D01*
X025989Y034691D01*
X024503Y035223D01*
X024503Y035223D01*
X022972Y035606D01*
X021411Y035837D01*
X019835Y035915D01*
X018259Y035837D01*
X016698Y035606D01*
X015167Y035223D01*
X013682Y034691D01*
X012255Y034016D01*
X010902Y033205D01*
X009634Y032265D01*
X008465Y031205D01*
X007405Y030036D01*
X006465Y028769D01*
X005654Y027415D01*
X005654Y027415D01*
X004979Y025989D01*
X004979Y025989D01*
X004448Y024503D01*
X004448Y024503D01*
X004064Y022972D01*
X003968Y022322D01*
X004226Y024278D01*
X004680Y027245D01*
X004857Y027318D01*
X004998Y027459D01*
X005074Y027643D01*
X005074Y027816D01*
X005841Y028246D01*
X005885Y028253D01*
X005904Y028281D01*
X005933Y028297D01*
X005945Y028340D01*
X007878Y031104D01*
X011031Y033362D01*
X011086Y033390D01*
X011091Y033404D01*
X011103Y033413D01*
X011113Y033474D01*
X011559Y034864D01*
X011630Y034864D01*
X011814Y034940D01*
X011954Y035081D01*
X012030Y035264D01*
X012030Y035463D01*
X011954Y035647D01*
X011814Y035788D01*
X011630Y035864D01*
X011431Y035864D01*
X011247Y035788D01*
X011106Y035647D01*
X011030Y035463D01*
X011030Y035264D01*
X011106Y035081D01*
X011215Y034972D01*
X010784Y033628D01*
X007677Y031403D01*
X007644Y031397D01*
X007619Y031361D01*
X007583Y031336D01*
X007578Y031302D01*
X005656Y028555D01*
X005348Y028382D01*
X005414Y028541D01*
X005414Y028740D01*
X005338Y028923D01*
X005197Y029064D01*
X005013Y029140D01*
X004814Y029140D01*
X004630Y029064D01*
X004506Y028939D01*
X004548Y029041D01*
X004548Y029240D01*
X004472Y029423D01*
X004331Y029564D01*
X004147Y029640D01*
X003948Y029640D01*
X003764Y029564D01*
X003674Y029473D01*
X003443Y029560D01*
X007652Y034580D01*
X008574Y035163D01*
X008545Y035094D01*
X008545Y034895D01*
X008621Y034711D01*
X008762Y034571D01*
X008946Y034495D01*
X009145Y034495D01*
X009328Y034571D01*
X009469Y034711D01*
X009545Y034895D01*
X009545Y035049D01*
X011863Y036238D01*
X014725Y036788D01*
X014732Y036771D01*
X014872Y036630D01*
X015056Y036554D01*
X015255Y036554D01*
X015439Y036630D01*
X015579Y036771D01*
X015656Y036955D01*
X015656Y037154D01*
X015579Y037338D01*
X015439Y037478D01*
X015255Y037554D01*
X015056Y037554D01*
X014872Y037478D01*
X014732Y037338D01*
X014656Y037154D01*
X014656Y037141D01*
X011815Y036595D01*
X011788Y036604D01*
X011744Y036582D01*
X011696Y036573D01*
X011680Y036549D01*
X009379Y035368D01*
X009328Y035418D01*
X009145Y035495D01*
X009098Y035495D01*
X012421Y037597D01*
X019655Y038911D01*
X019655Y038518D01*
X019552Y038475D01*
X019411Y038335D01*
X019335Y038151D01*
X019335Y037952D01*
X019411Y037768D01*
X019552Y037628D01*
X019736Y037552D01*
X019552Y037475D01*
X019411Y037335D01*
X019408Y037327D01*
X017839Y037665D01*
X017839Y037671D01*
X017769Y037840D01*
X017639Y037969D01*
X017470Y038039D01*
X017287Y038039D01*
X017118Y037969D01*
X016989Y037840D01*
X016919Y037671D01*
X016919Y037488D01*
X016989Y037319D01*
X017118Y037189D01*
X017287Y037119D01*
X017470Y037119D01*
X017639Y037189D01*
X017763Y037313D01*
X019335Y036975D01*
X019335Y036952D01*
X019411Y036768D01*
X019552Y036628D01*
X019736Y036552D01*
X019934Y036552D01*
X020118Y036628D01*
X020238Y036748D01*
X022947Y035963D01*
X028556Y033814D01*
X033926Y028698D01*
X033952Y028655D01*
X033978Y028648D01*
X033997Y028630D01*
X034047Y028631D01*
X034256Y028579D01*
X034256Y028541D01*
X034332Y028357D01*
X034473Y028216D01*
X034657Y028140D01*
X034743Y028140D01*
X037205Y021216D01*
X037108Y021118D01*
X037032Y020934D01*
X035861Y020934D01*
X035856Y021032D02*
X037072Y021032D01*
X037032Y020934D02*
X037032Y020736D01*
X037101Y020569D01*
X036443Y019713D01*
X036407Y019689D01*
X036400Y019656D01*
X036379Y019630D01*
X036385Y019586D01*
X034678Y011530D01*
X034657Y011530D01*
X034473Y011454D01*
X034332Y011313D01*
X034256Y011129D01*
X034256Y010930D01*
X034332Y010747D01*
X034473Y010606D01*
X034657Y010530D01*
X034856Y010530D01*
X035040Y010606D01*
X035164Y010731D01*
X035122Y010629D01*
X035122Y010430D01*
X035199Y010247D01*
X035339Y010106D01*
X035523Y010030D01*
X035722Y010030D01*
X035906Y010106D01*
X035996Y010197D01*
X036227Y010110D01*
X032119Y005211D01*
X026386Y001896D01*
X020015Y000759D01*
X020015Y001152D01*
X020118Y001195D01*
X020259Y001335D01*
X020335Y001519D01*
X020335Y001718D01*
X020259Y001902D01*
X020118Y002042D01*
X019934Y002119D01*
X019736Y002119D01*
X019552Y002042D01*
X019411Y001902D01*
X019335Y001718D01*
X019335Y001519D01*
X019411Y001335D01*
X019552Y001195D01*
X019655Y001152D01*
X019655Y000759D01*
X013284Y001896D01*
X008762Y004511D01*
X009786Y004807D01*
X009906Y004687D01*
X010090Y004611D01*
X010289Y004611D01*
X010472Y004687D01*
X010613Y004827D01*
X010689Y005011D01*
X010689Y005210D01*
X010613Y005394D01*
X010472Y005535D01*
X010289Y005611D01*
X010090Y005611D01*
X009906Y005535D01*
X009781Y005410D01*
X009823Y005511D01*
X009823Y005710D01*
X009747Y005894D01*
X009606Y006035D01*
X009423Y006111D01*
X009224Y006111D01*
X009040Y006035D01*
X008915Y005910D01*
X008957Y006011D01*
X008957Y006210D01*
X008881Y006394D01*
X008740Y006535D01*
X008557Y006611D01*
X008358Y006611D01*
X008174Y006535D01*
X008033Y006394D01*
X008093Y006454D02*
X007490Y006454D01*
X007400Y006417D02*
X007701Y006541D01*
X007932Y006772D01*
X007932Y006772D01*
X007932Y006772D01*
X008057Y007074D01*
X008057Y007400D01*
X007932Y007701D01*
X007932Y007701D01*
X007701Y007932D01*
X007400Y008057D01*
X007074Y008057D01*
X006772Y007932D01*
X006541Y007701D01*
X006417Y007400D01*
X006417Y007074D01*
X006541Y006772D01*
X006772Y006541D01*
X006772Y006541D01*
X007074Y006417D01*
X007199Y006417D01*
X007400Y006417D01*
X007712Y006553D02*
X008217Y006553D01*
X007909Y006750D02*
X009883Y006750D01*
X009758Y006848D02*
X007963Y006848D01*
X008004Y006947D02*
X009632Y006947D01*
X009507Y007045D02*
X008045Y007045D01*
X008057Y007144D02*
X009382Y007144D01*
X009256Y007242D02*
X008057Y007242D01*
X008057Y007341D02*
X009131Y007341D01*
X009005Y007439D02*
X008040Y007439D01*
X008000Y007538D02*
X008880Y007538D01*
X008754Y007636D02*
X007959Y007636D01*
X007898Y007735D02*
X008629Y007735D01*
X008510Y007833D02*
X007800Y007833D01*
X007701Y007932D02*
X008390Y007932D01*
X008271Y008030D02*
X007464Y008030D01*
X007701Y007932D02*
X007701Y007932D01*
X008032Y008227D02*
X005022Y008227D01*
X004940Y008326D02*
X007912Y008326D01*
X007793Y008424D02*
X004857Y008424D01*
X004775Y008523D02*
X007673Y008523D01*
X007554Y008621D02*
X004692Y008621D01*
X004609Y008720D02*
X007434Y008720D01*
X007315Y008818D02*
X004527Y008818D01*
X004444Y008917D02*
X007195Y008917D01*
X007076Y009015D02*
X004362Y009015D01*
X004279Y009114D02*
X006956Y009114D01*
X006837Y009212D02*
X004196Y009212D01*
X004114Y009311D02*
X006717Y009311D01*
X006598Y009409D02*
X004031Y009409D01*
X003949Y009508D02*
X006478Y009508D01*
X006359Y009606D02*
X003866Y009606D01*
X003784Y009705D02*
X006239Y009705D01*
X006119Y009803D02*
X003701Y009803D01*
X003618Y009902D02*
X006000Y009902D01*
X005880Y010000D02*
X003536Y010000D01*
X003453Y010099D02*
X003783Y010099D01*
X004048Y010530D02*
X003142Y010189D01*
X000819Y016489D01*
X000819Y023181D01*
X003142Y029481D01*
X004048Y029140D01*
X004240Y029602D02*
X006388Y029602D01*
X006457Y029700D02*
X003561Y029700D01*
X003478Y029602D02*
X003855Y029602D01*
X003704Y029503D02*
X003594Y029503D01*
X003643Y029799D02*
X006526Y029799D01*
X006595Y029897D02*
X003726Y029897D01*
X003809Y029996D02*
X006664Y029996D01*
X006733Y030094D02*
X003891Y030094D01*
X003974Y030193D02*
X006801Y030193D01*
X006870Y030291D02*
X004056Y030291D01*
X004139Y030390D02*
X006939Y030390D01*
X007008Y030488D02*
X004222Y030488D01*
X004304Y030587D02*
X007077Y030587D01*
X007146Y030685D02*
X004387Y030685D01*
X004469Y030784D02*
X007215Y030784D01*
X007284Y030882D02*
X004552Y030882D01*
X004634Y030981D02*
X007352Y030981D01*
X007421Y031079D02*
X004717Y031079D01*
X004800Y031178D02*
X007490Y031178D01*
X007559Y031276D02*
X004882Y031276D01*
X004965Y031375D02*
X007628Y031375D01*
X007775Y031473D02*
X005047Y031473D01*
X005130Y031572D02*
X007913Y031572D01*
X008050Y031670D02*
X007536Y031670D01*
X007400Y031613D02*
X007701Y031738D01*
X007932Y031969D01*
X008057Y032270D01*
X008057Y032597D01*
X007932Y032898D01*
X007701Y033129D01*
X007400Y033253D01*
X007074Y033253D01*
X006772Y033129D01*
X006541Y032898D01*
X006417Y032597D01*
X006417Y032270D01*
X006541Y031969D01*
X006772Y031738D01*
X006772Y031738D01*
X007074Y031613D01*
X007274Y031613D01*
X007400Y031613D01*
X007400Y031613D01*
X007701Y031738D02*
X007701Y031738D01*
X007731Y031769D02*
X008188Y031769D01*
X008325Y031867D02*
X007830Y031867D01*
X007928Y031966D02*
X008463Y031966D01*
X008600Y032064D02*
X007971Y032064D01*
X007932Y031969D02*
X007932Y031969D01*
X008012Y032163D02*
X008738Y032163D01*
X008875Y032261D02*
X008053Y032261D01*
X008057Y032360D02*
X009013Y032360D01*
X009151Y032458D02*
X008057Y032458D01*
X008057Y032557D02*
X009288Y032557D01*
X009426Y032655D02*
X008032Y032655D01*
X007992Y032754D02*
X009563Y032754D01*
X009701Y032852D02*
X007951Y032852D01*
X007932Y032898D02*
X007932Y032898D01*
X007879Y032951D02*
X009838Y032951D01*
X009976Y033049D02*
X007781Y033049D01*
X007701Y033129D02*
X007701Y033129D01*
X007655Y033148D02*
X008628Y033148D01*
X008577Y033169D02*
X008761Y033092D01*
X008960Y033092D01*
X009144Y033169D01*
X009284Y033309D01*
X009361Y033493D01*
X009361Y033692D01*
X009284Y033876D01*
X009144Y034016D01*
X008960Y034092D01*
X008761Y034092D01*
X008723Y034077D01*
X008491Y034386D01*
X008511Y034435D01*
X008511Y034566D01*
X008461Y034687D01*
X008368Y034780D01*
X008247Y034830D01*
X008116Y034830D01*
X007995Y034780D01*
X007902Y034687D01*
X007851Y034566D01*
X007851Y034435D01*
X007902Y034313D01*
X007995Y034221D01*
X008116Y034170D01*
X008204Y034170D01*
X008432Y033865D01*
X008361Y033692D01*
X008361Y033493D01*
X008437Y033309D01*
X008577Y033169D01*
X008500Y033246D02*
X007418Y033246D01*
X007056Y033246D02*
X006534Y033246D01*
X006616Y033345D02*
X008422Y033345D01*
X008381Y033443D02*
X006699Y033443D01*
X006781Y033542D02*
X008361Y033542D01*
X008361Y033640D02*
X006864Y033640D01*
X006947Y033739D02*
X008380Y033739D01*
X008421Y033837D02*
X007029Y033837D01*
X007112Y033936D02*
X008379Y033936D01*
X008305Y034034D02*
X007194Y034034D01*
X007277Y034133D02*
X008232Y034133D01*
X007984Y034231D02*
X007359Y034231D01*
X007442Y034330D02*
X007895Y034330D01*
X007854Y034428D02*
X007525Y034428D01*
X007607Y034527D02*
X007851Y034527D01*
X007876Y034625D02*
X007723Y034625D01*
X007879Y034724D02*
X007938Y034724D01*
X008035Y034822D02*
X008096Y034822D01*
X008190Y034921D02*
X008545Y034921D01*
X008545Y035019D02*
X008346Y035019D01*
X008502Y035118D02*
X008555Y035118D01*
X008575Y034822D02*
X008267Y034822D01*
X008425Y034724D02*
X008616Y034724D01*
X008708Y034625D02*
X008487Y034625D01*
X008511Y034527D02*
X008868Y034527D01*
X009222Y034527D02*
X010158Y034527D01*
X010127Y034625D02*
X010286Y034625D01*
X010255Y034724D02*
X010414Y034724D01*
X010438Y034742D02*
X010066Y034456D01*
X010109Y034413D01*
X010175Y034365D01*
X010248Y034328D01*
X010326Y034303D01*
X010406Y034290D01*
X010488Y034290D01*
X010569Y034303D01*
X010647Y034328D01*
X010720Y034365D01*
X010725Y034369D01*
X010438Y034742D01*
X010379Y034819D01*
X010093Y035192D01*
X010051Y035149D01*
X010003Y035082D01*
X009965Y035010D01*
X009940Y034932D01*
X009927Y034851D01*
X009927Y034769D01*
X009940Y034688D01*
X009965Y034610D01*
X010003Y034537D01*
X010006Y034532D01*
X010379Y034819D01*
X010456Y034878D01*
X010170Y035251D01*
X010175Y035255D01*
X010248Y035292D01*
X010326Y035317D01*
X010406Y035330D01*
X010488Y035330D01*
X010569Y035317D01*
X010647Y035292D01*
X010720Y035255D01*
X010786Y035207D01*
X010829Y035164D01*
X010456Y034878D01*
X010515Y034801D01*
X010801Y034428D01*
X010844Y034471D01*
X010892Y034537D01*
X010929Y034610D01*
X010954Y034688D01*
X010967Y034769D01*
X010967Y034851D01*
X010954Y034932D01*
X010929Y035010D01*
X010892Y035082D01*
X010888Y035087D01*
X010515Y034801D01*
X010438Y034742D01*
X010453Y034724D02*
X010575Y034724D01*
X010543Y034822D02*
X010499Y034822D01*
X010512Y034921D02*
X010671Y034921D01*
X010640Y035019D02*
X010799Y035019D01*
X010769Y035118D02*
X011091Y035118D01*
X011050Y035216D02*
X010773Y035216D01*
X010577Y035315D02*
X011030Y035315D01*
X011030Y035413D02*
X010255Y035413D01*
X010318Y035315D02*
X010063Y035315D01*
X010197Y035216D02*
X009871Y035216D01*
X010028Y035118D02*
X009679Y035118D01*
X009545Y035019D02*
X009970Y035019D01*
X009938Y034921D02*
X009545Y034921D01*
X009515Y034822D02*
X009927Y034822D01*
X009934Y034724D02*
X009474Y034724D01*
X009383Y034625D02*
X009961Y034625D01*
X010094Y034428D02*
X008509Y034428D01*
X008534Y034330D02*
X010245Y034330D01*
X010650Y034330D02*
X011009Y034330D01*
X011041Y034428D02*
X010679Y034428D01*
X010726Y034527D02*
X010604Y034527D01*
X010650Y034625D02*
X010528Y034625D01*
X010384Y034822D02*
X010377Y034822D01*
X010423Y034921D02*
X010301Y034921D01*
X010348Y035019D02*
X010226Y035019D01*
X010272Y035118D02*
X010150Y035118D01*
X010447Y035512D02*
X011050Y035512D01*
X011091Y035610D02*
X010639Y035610D01*
X010831Y035709D02*
X011168Y035709D01*
X011294Y035807D02*
X011023Y035807D01*
X011215Y035906D02*
X019645Y035906D01*
X019835Y035915D02*
X019835Y035915D01*
X020025Y035906D02*
X023098Y035906D01*
X023004Y036134D02*
X028654Y033969D01*
X034067Y028811D01*
X034756Y028640D01*
X037532Y020835D01*
X036567Y019579D01*
X034756Y011030D01*
X034398Y011379D02*
X033491Y011379D01*
X033432Y011281D02*
X034319Y011281D01*
X034278Y011182D02*
X033373Y011182D01*
X033314Y011084D02*
X034256Y011084D01*
X034256Y010985D02*
X033255Y010985D01*
X033194Y010887D02*
X034275Y010887D01*
X034315Y010788D02*
X033121Y010788D01*
X033048Y010690D02*
X034390Y010690D01*
X034509Y010591D02*
X032975Y010591D01*
X032902Y010493D02*
X035122Y010493D01*
X035122Y010591D02*
X035003Y010591D01*
X035123Y010690D02*
X035147Y010690D01*
X035137Y010394D02*
X032829Y010394D01*
X032756Y010296D02*
X035178Y010296D01*
X035248Y010197D02*
X032682Y010197D01*
X032609Y010099D02*
X035357Y010099D01*
X035622Y010530D02*
X036528Y010189D01*
X032237Y005071D01*
X026449Y001725D01*
X019835Y000544D01*
X019835Y001619D01*
X019379Y001825D02*
X013686Y001825D01*
X013238Y001923D02*
X019432Y001923D01*
X019531Y002022D02*
X013067Y002022D01*
X012897Y002120D02*
X019732Y002120D01*
X019938Y002120D02*
X022825Y002120D01*
X022819Y002100D02*
X022806Y002019D01*
X022806Y001937D01*
X022816Y001872D01*
X023289Y001999D01*
X023305Y001941D01*
X023363Y001957D01*
X023489Y001484D01*
X023525Y001496D01*
X023598Y001533D01*
X023665Y001581D01*
X023722Y001639D01*
X023771Y001705D01*
X023808Y001778D01*
X023833Y001856D01*
X023846Y001937D01*
X023846Y002007D01*
X023868Y001953D01*
X024009Y001813D01*
X024192Y001737D01*
X024391Y001737D01*
X024575Y001813D01*
X024716Y001953D01*
X024792Y002137D01*
X024792Y002314D01*
X024834Y002212D01*
X024974Y002072D01*
X025158Y001995D01*
X025357Y001995D01*
X025541Y002072D01*
X025682Y002212D01*
X025758Y002396D01*
X025758Y002498D01*
X026982Y002977D01*
X027068Y002891D01*
X027252Y002815D01*
X027450Y002815D01*
X027634Y002891D01*
X027775Y003032D01*
X027851Y003216D01*
X027851Y003415D01*
X027775Y003599D01*
X027634Y003739D01*
X027450Y003815D01*
X027252Y003815D01*
X027068Y003739D01*
X026927Y003599D01*
X026851Y003415D01*
X026851Y003313D01*
X025627Y002833D01*
X025541Y002919D01*
X025357Y002995D01*
X025158Y002995D01*
X024974Y002919D01*
X024834Y002779D01*
X024758Y002595D01*
X024758Y002418D01*
X024716Y002520D01*
X024575Y002660D01*
X024391Y002737D01*
X024192Y002737D01*
X024009Y002660D01*
X023868Y002520D01*
X023792Y002336D01*
X023792Y002209D01*
X023771Y002250D01*
X023722Y002317D01*
X023792Y002317D01*
X023722Y002317D02*
X023665Y002374D01*
X023598Y002423D01*
X023525Y002460D01*
X023448Y002485D01*
X023367Y002498D01*
X023285Y002498D01*
X023220Y002488D01*
X023347Y002015D01*
X023289Y001999D01*
X023162Y002471D01*
X023126Y002460D01*
X023053Y002423D01*
X022987Y002374D01*
X022929Y002317D01*
X022881Y002250D01*
X022844Y002177D01*
X022819Y002100D01*
X022806Y002022D02*
X020139Y002022D01*
X020238Y001923D02*
X022808Y001923D01*
X022832Y001814D02*
X022844Y001778D01*
X022881Y001705D01*
X022929Y001639D01*
X022987Y001581D01*
X023053Y001533D01*
X023126Y001496D01*
X023204Y001471D01*
X023285Y001458D01*
X023367Y001458D01*
X023431Y001468D01*
X023305Y001941D01*
X022832Y001814D01*
X022870Y001825D02*
X020291Y001825D01*
X020332Y001726D02*
X022870Y001726D01*
X022941Y001628D02*
X020335Y001628D01*
X020335Y001529D02*
X023061Y001529D01*
X023226Y001332D02*
X020256Y001332D01*
X020298Y001431D02*
X023777Y001431D01*
X023711Y001628D02*
X024880Y001628D01*
X024587Y001825D02*
X025984Y001825D01*
X026432Y001923D02*
X024685Y001923D01*
X024744Y002022D02*
X025095Y002022D01*
X024926Y002120D02*
X024785Y002120D01*
X024792Y002219D02*
X024831Y002219D01*
X024758Y002514D02*
X024718Y002514D01*
X024765Y002613D02*
X024623Y002613D01*
X024453Y002711D02*
X024806Y002711D01*
X024865Y002810D02*
X020297Y002810D01*
X020335Y002711D02*
X024130Y002711D01*
X023961Y002613D02*
X020335Y002613D01*
X020333Y002514D02*
X023865Y002514D01*
X023825Y002416D02*
X023608Y002416D01*
X023787Y002219D02*
X023792Y002219D01*
X023844Y001923D02*
X023898Y001923D01*
X023823Y001825D02*
X023997Y001825D01*
X023781Y001726D02*
X025432Y001726D01*
X025420Y002022D02*
X026603Y002022D01*
X026773Y002120D02*
X025589Y002120D01*
X025684Y002219D02*
X026943Y002219D01*
X027114Y002317D02*
X025725Y002317D01*
X025758Y002416D02*
X027284Y002416D01*
X027454Y002514D02*
X025799Y002514D01*
X026050Y002613D02*
X027625Y002613D01*
X027795Y002711D02*
X026302Y002711D01*
X026553Y002810D02*
X027966Y002810D01*
X028136Y002908D02*
X027651Y002908D01*
X027749Y003007D02*
X028306Y003007D01*
X028477Y003105D02*
X027805Y003105D01*
X027846Y003204D02*
X028647Y003204D01*
X028817Y003302D02*
X027851Y003302D01*
X027851Y003401D02*
X028988Y003401D01*
X029158Y003499D02*
X027816Y003499D01*
X027775Y003598D02*
X029328Y003598D01*
X029499Y003696D02*
X027677Y003696D01*
X027501Y003795D02*
X029669Y003795D01*
X029839Y003893D02*
X021818Y003893D01*
X021411Y003833D02*
X021411Y003833D01*
X020636Y003795D02*
X027201Y003795D01*
X027025Y003696D02*
X016818Y003696D01*
X016484Y003795D02*
X019034Y003795D01*
X018259Y003833D02*
X018259Y003833D01*
X017852Y003893D02*
X016150Y003893D01*
X016201Y004189D02*
X015149Y004189D01*
X015167Y004448D02*
X015167Y004448D01*
X015065Y004484D02*
X014147Y004484D01*
X014240Y004780D02*
X013145Y004780D01*
X012849Y004878D02*
X013964Y004878D01*
X013689Y004977D02*
X012724Y004977D01*
X012598Y005075D02*
X013479Y005075D01*
X013682Y004979D02*
X013682Y004979D01*
X013479Y004681D02*
X014515Y004681D01*
X014790Y004583D02*
X013813Y004583D01*
X013876Y004189D02*
X009320Y004189D01*
X009490Y004090D02*
X014210Y004090D01*
X014544Y003992D02*
X013076Y003992D01*
X013073Y003995D02*
X012904Y004065D01*
X012721Y004065D01*
X012552Y003995D01*
X012422Y003865D01*
X012352Y003696D01*
X010171Y003696D01*
X010001Y003795D02*
X012393Y003795D01*
X012352Y003696D02*
X012352Y003513D01*
X012422Y003344D01*
X012552Y003215D01*
X012721Y003145D01*
X012904Y003145D01*
X013073Y003215D01*
X013202Y003344D01*
X013272Y003513D01*
X013272Y003696D01*
X015546Y003696D01*
X015880Y003598D02*
X013272Y003598D01*
X013272Y003696D02*
X013202Y003865D01*
X013073Y003995D01*
X013175Y003893D02*
X014878Y003893D01*
X015212Y003795D02*
X013232Y003795D01*
X013266Y003499D02*
X016214Y003499D01*
X016548Y003401D02*
X014536Y003401D01*
X014519Y003413D02*
X014477Y003434D01*
X014305Y003018D01*
X014252Y003040D01*
X014424Y003456D01*
X014380Y003470D01*
X014305Y003482D01*
X014229Y003482D01*
X014155Y003470D01*
X014083Y003447D01*
X014016Y003413D01*
X013955Y003368D01*
X013901Y003315D01*
X013857Y003254D01*
X013835Y003212D01*
X014252Y003040D01*
X014230Y002987D01*
X013813Y003159D01*
X013799Y003115D01*
X013787Y003040D01*
X013787Y002964D01*
X013799Y002890D01*
X013822Y002818D01*
X013857Y002751D01*
X013901Y002690D01*
X013955Y002636D01*
X014016Y002592D01*
X014057Y002570D01*
X014230Y002987D01*
X014283Y002965D01*
X014305Y003018D01*
X014721Y002845D01*
X014735Y002890D01*
X014747Y002964D01*
X014747Y003040D01*
X014735Y003115D01*
X014712Y003186D01*
X014678Y003254D01*
X014633Y003315D01*
X014580Y003368D01*
X014519Y003413D01*
X014463Y003401D02*
X014401Y003401D01*
X014423Y003302D02*
X014360Y003302D01*
X014382Y003204D02*
X014319Y003204D01*
X014341Y003105D02*
X014279Y003105D01*
X014300Y003007D02*
X014332Y003007D01*
X014283Y002965D02*
X014699Y002792D01*
X014678Y002751D01*
X014633Y002690D01*
X014580Y002636D01*
X014519Y002592D01*
X014451Y002557D01*
X014380Y002534D01*
X014305Y002522D01*
X014229Y002522D01*
X014155Y002534D01*
X014110Y002548D01*
X014283Y002965D01*
X014238Y003007D02*
X014182Y003007D01*
X014197Y002908D02*
X014259Y002908D01*
X014219Y002810D02*
X014156Y002810D01*
X014178Y002711D02*
X014115Y002711D01*
X014137Y002613D02*
X014075Y002613D01*
X013987Y002613D02*
X012045Y002613D01*
X011875Y002711D02*
X013885Y002711D01*
X013827Y002810D02*
X011705Y002810D01*
X011534Y002908D02*
X013796Y002908D01*
X013787Y003007D02*
X011364Y003007D01*
X011194Y003105D02*
X013798Y003105D01*
X013856Y003204D02*
X013045Y003204D01*
X013160Y003302D02*
X013892Y003302D01*
X013999Y003401D02*
X013226Y003401D01*
X012579Y003204D02*
X011023Y003204D01*
X010853Y003302D02*
X012465Y003302D01*
X012399Y003401D02*
X010682Y003401D01*
X010512Y003499D02*
X012358Y003499D01*
X012352Y003598D02*
X010342Y003598D01*
X009831Y003893D02*
X012450Y003893D01*
X012548Y003992D02*
X009660Y003992D01*
X009149Y004287D02*
X013542Y004287D01*
X013208Y004386D02*
X008979Y004386D01*
X008809Y004484D02*
X012874Y004484D01*
X012788Y004697D02*
X019835Y002619D01*
X019378Y002416D02*
X012386Y002416D01*
X012216Y002514D02*
X019337Y002514D01*
X019219Y002613D02*
X014547Y002613D01*
X014649Y002711D02*
X018885Y002711D01*
X018551Y002810D02*
X014657Y002810D01*
X014738Y002908D02*
X018217Y002908D01*
X017883Y003007D02*
X014747Y003007D01*
X014737Y003105D02*
X017549Y003105D01*
X017216Y003204D02*
X014703Y003204D01*
X014643Y003302D02*
X016882Y003302D01*
X017152Y003598D02*
X026927Y003598D01*
X026886Y003499D02*
X017486Y003499D01*
X017820Y003401D02*
X026851Y003401D01*
X026823Y003302D02*
X018154Y003302D01*
X018488Y003204D02*
X026572Y003204D01*
X026320Y003105D02*
X019967Y003105D01*
X020154Y003007D02*
X026069Y003007D01*
X025817Y002908D02*
X025552Y002908D01*
X025258Y002495D02*
X027351Y003315D01*
X027051Y002908D02*
X026805Y002908D01*
X025155Y004681D02*
X031202Y004681D01*
X031032Y004583D02*
X024880Y004583D01*
X024605Y004484D02*
X030861Y004484D01*
X030691Y004386D02*
X024255Y004386D01*
X024503Y004448D02*
X024503Y004448D01*
X023862Y004287D02*
X030521Y004287D01*
X030350Y004189D02*
X023469Y004189D01*
X023075Y004090D02*
X030180Y004090D01*
X030010Y003992D02*
X022483Y003992D01*
X022972Y004064D02*
X022972Y004064D01*
X023044Y002416D02*
X020292Y002416D01*
X020241Y002317D02*
X022930Y002317D01*
X022865Y002219D02*
X020142Y002219D01*
X019528Y002219D02*
X012727Y002219D01*
X012556Y002317D02*
X019429Y002317D01*
X019338Y001726D02*
X014238Y001726D01*
X014790Y001628D02*
X019335Y001628D01*
X019335Y001529D02*
X015341Y001529D01*
X015893Y001431D02*
X019372Y001431D01*
X019414Y001332D02*
X016444Y001332D01*
X016996Y001234D02*
X019513Y001234D01*
X019655Y001135D02*
X017548Y001135D01*
X018099Y001037D02*
X019655Y001037D01*
X019655Y000938D02*
X018651Y000938D01*
X019202Y000840D02*
X019655Y000840D01*
X019835Y000544D02*
X013221Y001725D01*
X008306Y004567D01*
X010189Y005111D01*
X009841Y005469D02*
X009806Y005469D01*
X009823Y005568D02*
X009986Y005568D01*
X009823Y005666D02*
X011263Y005666D01*
X011388Y005568D02*
X010393Y005568D01*
X010538Y005469D02*
X011514Y005469D01*
X011639Y005371D02*
X010623Y005371D01*
X010664Y005272D02*
X011765Y005272D01*
X011890Y005174D02*
X010689Y005174D01*
X010689Y005075D02*
X012015Y005075D01*
X012141Y004977D02*
X010675Y004977D01*
X010634Y004878D02*
X012266Y004878D01*
X012392Y004780D02*
X010565Y004780D01*
X010459Y004681D02*
X012517Y004681D01*
X012642Y004583D02*
X009009Y004583D01*
X009350Y004681D02*
X009920Y004681D01*
X009813Y004780D02*
X009691Y004780D01*
X009689Y005174D02*
X009574Y005174D01*
X009692Y005272D02*
X009715Y005272D01*
X009417Y005075D02*
X007787Y005075D01*
X007957Y004977D02*
X009076Y004977D01*
X009072Y005174D02*
X007616Y005174D01*
X007500Y005272D02*
X008955Y005272D01*
X008881Y005371D02*
X007417Y005371D01*
X007335Y005469D02*
X008841Y005469D01*
X008823Y005568D02*
X007252Y005568D01*
X007170Y005666D02*
X008224Y005666D01*
X008096Y005765D02*
X007087Y005765D01*
X007005Y005863D02*
X008019Y005863D01*
X007978Y005962D02*
X006922Y005962D01*
X006839Y006060D02*
X007957Y006060D01*
X007957Y006159D02*
X006757Y006159D01*
X006983Y006454D02*
X006509Y006454D01*
X006426Y006553D02*
X006761Y006553D01*
X006663Y006651D02*
X006344Y006651D01*
X006261Y006750D02*
X006564Y006750D01*
X006541Y006772D02*
X006541Y006772D01*
X006510Y006848D02*
X006179Y006848D01*
X006096Y006947D02*
X006469Y006947D01*
X006428Y007045D02*
X006013Y007045D01*
X005931Y007144D02*
X006417Y007144D01*
X006417Y007242D02*
X005848Y007242D01*
X005766Y007341D02*
X006417Y007341D01*
X006433Y007439D02*
X005683Y007439D01*
X005600Y007538D02*
X006474Y007538D01*
X006514Y007636D02*
X005518Y007636D01*
X005435Y007735D02*
X006575Y007735D01*
X006541Y007701D02*
X006541Y007701D01*
X006673Y007833D02*
X005353Y007833D01*
X005270Y007932D02*
X006772Y007932D01*
X006772Y007932D01*
X007009Y008030D02*
X005188Y008030D01*
X005105Y008129D02*
X008151Y008129D01*
X008359Y008424D02*
X008510Y008424D01*
X008465Y008465D02*
X008465Y008465D01*
X008465Y008465D01*
X008413Y008523D02*
X008239Y008523D01*
X008323Y008621D02*
X008120Y008621D01*
X008234Y008720D02*
X008000Y008720D01*
X007881Y008818D02*
X008145Y008818D01*
X008055Y008917D02*
X007761Y008917D01*
X007642Y009015D02*
X007966Y009015D01*
X007877Y009114D02*
X007522Y009114D01*
X007403Y009212D02*
X007788Y009212D01*
X007698Y009311D02*
X007283Y009311D01*
X007164Y009409D02*
X007609Y009409D01*
X007520Y009508D02*
X007044Y009508D01*
X006925Y009606D02*
X007431Y009606D01*
X007405Y009634D02*
X007405Y009634D01*
X007353Y009705D02*
X006805Y009705D01*
X006686Y009803D02*
X007280Y009803D01*
X007207Y009902D02*
X006566Y009902D01*
X006446Y010000D02*
X007134Y010000D01*
X007061Y010099D02*
X006327Y010099D01*
X006207Y010197D02*
X006988Y010197D01*
X006915Y010296D02*
X006088Y010296D01*
X005968Y010394D02*
X006841Y010394D01*
X006768Y010493D02*
X005849Y010493D01*
X005729Y010591D02*
X006695Y010591D01*
X006622Y010690D02*
X005610Y010690D01*
X005490Y010788D02*
X006549Y010788D01*
X006476Y010887D02*
X005396Y010887D01*
X005414Y010985D02*
X006415Y010985D01*
X006356Y011084D02*
X005414Y011084D01*
X005392Y011182D02*
X006297Y011182D01*
X006238Y011281D02*
X005351Y011281D01*
X005272Y011379D02*
X006179Y011379D01*
X006120Y011478D02*
X005140Y011478D01*
X004688Y011478D02*
X002859Y011478D01*
X002823Y011576D02*
X006061Y011576D01*
X006002Y011675D02*
X002786Y011675D01*
X002750Y011773D02*
X005943Y011773D01*
X005884Y011872D02*
X002714Y011872D01*
X002677Y011970D02*
X003242Y011970D01*
X003133Y012069D02*
X002641Y012069D01*
X002605Y012167D02*
X003058Y012167D01*
X003017Y012266D02*
X002568Y012266D01*
X002532Y012364D02*
X002994Y012364D01*
X002994Y012463D02*
X002496Y012463D01*
X002459Y012561D02*
X003006Y012561D01*
X003047Y012660D02*
X002423Y012660D01*
X002387Y012758D02*
X003106Y012758D01*
X003204Y012857D02*
X002350Y012857D01*
X002314Y012955D02*
X003414Y012955D01*
X003634Y012955D02*
X003671Y012955D01*
X003671Y013054D02*
X002873Y013054D01*
X002819Y013031D02*
X003161Y013173D01*
X002970Y013635D01*
X003062Y013673D01*
X003024Y013765D01*
X002931Y013727D01*
X002970Y013635D01*
X002508Y013443D01*
X002649Y013102D01*
X002673Y013070D01*
X002704Y013046D01*
X002741Y013031D01*
X002780Y013026D01*
X002819Y013031D01*
X002695Y013054D02*
X002278Y013054D01*
X002241Y013152D02*
X002628Y013152D01*
X002587Y013251D02*
X002205Y013251D01*
X002169Y013349D02*
X002547Y013349D01*
X002518Y013448D02*
X002133Y013448D01*
X002096Y013546D02*
X002465Y013546D01*
X002469Y013536D02*
X002931Y013727D01*
X002740Y014189D01*
X002398Y014047D01*
X002367Y014023D01*
X002343Y013992D01*
X002328Y013956D01*
X002323Y013916D01*
X002328Y013877D01*
X002469Y013536D01*
X002494Y013546D02*
X002756Y013546D01*
X002732Y013645D02*
X002965Y013645D01*
X002994Y013645D02*
X003074Y013645D01*
X003062Y013673D02*
X003253Y013211D01*
X003595Y013352D01*
X003626Y013376D01*
X003650Y013408D01*
X003665Y013444D01*
X003670Y013483D01*
X003665Y013523D01*
X003524Y013864D01*
X003062Y013673D01*
X003033Y013743D02*
X003231Y013743D01*
X003208Y013842D02*
X003469Y013842D01*
X003533Y013842D02*
X003674Y013842D01*
X003674Y013940D02*
X003446Y013940D01*
X003452Y014039D02*
X003674Y014039D01*
X003675Y014137D02*
X003411Y014137D01*
X003370Y014236D02*
X003675Y014236D01*
X003675Y014334D02*
X003403Y014334D01*
X003478Y014433D02*
X003676Y014433D01*
X003676Y014531D02*
X003511Y014531D01*
X003511Y014630D02*
X003676Y014630D01*
X003677Y014728D02*
X003477Y014728D01*
X003401Y014827D02*
X003677Y014827D01*
X003677Y014925D02*
X003359Y014925D01*
X003359Y015024D02*
X003580Y015024D01*
X003472Y015122D02*
X003358Y015122D01*
X003357Y015221D02*
X003400Y015221D01*
X003359Y015319D02*
X003357Y015319D01*
X002997Y015319D02*
X001442Y015319D01*
X001406Y015418D02*
X002996Y015418D01*
X002995Y015516D02*
X001370Y015516D01*
X001333Y015615D02*
X002995Y015615D01*
X002994Y015713D02*
X001297Y015713D01*
X001261Y015812D02*
X002993Y015812D01*
X002993Y015910D02*
X001224Y015910D01*
X001188Y016009D02*
X002992Y016009D01*
X002992Y016107D02*
X002773Y016107D01*
X002606Y016107D02*
X001152Y016107D01*
X001116Y016206D02*
X002447Y016206D01*
X002384Y016304D02*
X001079Y016304D01*
X001043Y016403D02*
X002359Y016403D01*
X002362Y016501D02*
X001007Y016501D01*
X000999Y016600D02*
X002403Y016600D01*
X002491Y016698D02*
X001569Y016698D01*
X001742Y016797D02*
X002509Y016797D01*
X002509Y016895D02*
X001841Y016895D01*
X001882Y016994D02*
X002509Y016994D01*
X002509Y017092D02*
X001922Y017092D01*
X001922Y017191D02*
X002509Y017191D01*
X002509Y017289D02*
X001922Y017289D01*
X001908Y017585D02*
X002509Y017585D01*
X002509Y017683D02*
X001979Y017683D01*
X002050Y017782D02*
X002509Y017782D01*
X002509Y017880D02*
X002121Y017880D01*
X002193Y017979D02*
X002509Y017979D01*
X002509Y018077D02*
X002264Y018077D01*
X002217Y018319D02*
X002209Y021808D01*
X001749Y021820D02*
X001531Y021820D01*
X001531Y021722D02*
X001749Y021722D01*
X001749Y021716D02*
X001819Y021547D01*
X001948Y021418D01*
X002030Y021384D01*
X002037Y018377D01*
X001544Y017695D01*
X001505Y017711D01*
X001298Y017711D01*
X001107Y017632D01*
X000999Y017525D01*
X000999Y023149D01*
X001408Y024257D01*
X001459Y024133D01*
X001600Y023992D01*
X001784Y023916D01*
X001983Y023916D01*
X002167Y023992D01*
X002307Y024133D01*
X002383Y024317D01*
X002383Y024516D01*
X002307Y024700D01*
X002167Y024840D01*
X001983Y024916D01*
X001784Y024916D01*
X001627Y024851D01*
X002775Y027965D01*
X002807Y027903D01*
X002855Y027836D01*
X002913Y027778D01*
X002979Y027730D01*
X002688Y027730D01*
X002652Y027632D02*
X003636Y027632D01*
X003672Y027730D02*
X003523Y027730D01*
X003524Y027730D02*
X003590Y027778D01*
X003648Y027836D01*
X003696Y027903D01*
X003726Y027961D01*
X003274Y028126D01*
X003110Y027674D01*
X003130Y027668D01*
X003210Y027655D01*
X003292Y027655D01*
X003373Y027668D01*
X003451Y027693D01*
X003524Y027730D01*
X003640Y027829D02*
X003709Y027829D01*
X003709Y027927D02*
X003746Y027927D01*
X003782Y028026D02*
X003549Y028026D01*
X003504Y028124D02*
X003279Y028124D01*
X003274Y028126D02*
X003301Y028198D01*
X003752Y028034D01*
X003759Y028053D01*
X003771Y028134D01*
X003771Y028216D01*
X003759Y028297D01*
X003733Y028375D01*
X003696Y028448D01*
X003648Y028514D01*
X003590Y028572D01*
X003524Y028620D01*
X003465Y028650D01*
X003301Y028198D01*
X003228Y028225D01*
X003393Y028676D01*
X003373Y028682D01*
X003292Y028695D01*
X003210Y028695D01*
X003130Y028682D01*
X003052Y028657D01*
X003025Y028643D01*
X003248Y029248D01*
X003548Y029136D01*
X003548Y029041D01*
X003624Y028857D01*
X003764Y028716D01*
X003948Y028640D01*
X004147Y028640D01*
X004331Y028716D01*
X004456Y028841D01*
X004414Y028740D01*
X004414Y028541D01*
X004414Y028541D01*
X003903Y028222D01*
X003846Y028196D01*
X003841Y028184D01*
X003830Y028177D01*
X003816Y028115D01*
X002387Y024280D01*
X002358Y024225D01*
X002362Y024211D01*
X002357Y024198D01*
X002383Y024142D01*
X002563Y023536D01*
X002483Y023569D01*
X002300Y023569D01*
X002131Y023499D01*
X002002Y023369D01*
X001932Y023200D01*
X001932Y023017D01*
X001944Y022988D01*
X001289Y022476D01*
X001276Y022476D01*
X001231Y022431D01*
X001181Y022392D01*
X001180Y022379D01*
X001171Y022370D01*
X001171Y022307D01*
X001163Y022244D01*
X001171Y022234D01*
X001171Y020492D01*
X001164Y020489D01*
X001071Y020396D01*
X001021Y020275D01*
X001021Y020143D01*
X001071Y020022D01*
X001164Y019929D01*
X001285Y019879D01*
X001416Y019879D01*
X001538Y019929D01*
X001631Y020022D01*
X001681Y020143D01*
X001681Y020275D01*
X001631Y020396D01*
X001538Y020489D01*
X001531Y020492D01*
X001531Y022208D01*
X002166Y022704D01*
X002300Y022649D01*
X002483Y022649D01*
X002652Y022719D01*
X002563Y022105D01*
X002470Y022198D01*
X002300Y022268D01*
X002117Y022268D01*
X001948Y022198D01*
X001819Y022068D01*
X001749Y021899D01*
X001749Y021716D01*
X001788Y021623D02*
X001531Y021623D01*
X001531Y021525D02*
X001842Y021525D01*
X001940Y021426D02*
X001531Y021426D01*
X001531Y021328D02*
X002030Y021328D01*
X002030Y021229D02*
X001531Y021229D01*
X001531Y021131D02*
X002031Y021131D01*
X002031Y021032D02*
X001531Y021032D01*
X001531Y020934D02*
X002031Y020934D01*
X002031Y020835D02*
X001531Y020835D01*
X001531Y020737D02*
X002031Y020737D01*
X002032Y020638D02*
X001531Y020638D01*
X001531Y020540D02*
X002032Y020540D01*
X002032Y020441D02*
X001585Y020441D01*
X001653Y020343D02*
X002032Y020343D01*
X002033Y020244D02*
X001681Y020244D01*
X001681Y020146D02*
X002033Y020146D01*
X002033Y020047D02*
X001641Y020047D01*
X001557Y019949D02*
X002033Y019949D01*
X002033Y019850D02*
X000999Y019850D01*
X000999Y019752D02*
X002034Y019752D01*
X002034Y019653D02*
X000999Y019653D01*
X000999Y019555D02*
X002034Y019555D01*
X002034Y019456D02*
X000999Y019456D01*
X000999Y019358D02*
X002035Y019358D01*
X002035Y019259D02*
X000999Y019259D01*
X000999Y019161D02*
X002035Y019161D01*
X002035Y019062D02*
X000999Y019062D01*
X000999Y018964D02*
X002035Y018964D01*
X002036Y018865D02*
X000999Y018865D01*
X000999Y018767D02*
X002036Y018767D01*
X002036Y018668D02*
X000999Y018668D01*
X000999Y018570D02*
X002036Y018570D01*
X002037Y018471D02*
X000999Y018471D01*
X000999Y018373D02*
X002033Y018373D01*
X001962Y018274D02*
X000999Y018274D01*
X000999Y018176D02*
X001891Y018176D01*
X001820Y018077D02*
X000999Y018077D01*
X000999Y017979D02*
X001748Y017979D01*
X001677Y017880D02*
X000999Y017880D01*
X000999Y017782D02*
X001606Y017782D01*
X001230Y017683D02*
X000999Y017683D01*
X000999Y017585D02*
X001059Y017585D01*
X001402Y017191D02*
X002217Y018319D01*
X002397Y018373D02*
X002509Y018373D01*
X002509Y018471D02*
X002397Y018471D01*
X002396Y018570D02*
X002509Y018570D01*
X002509Y018668D02*
X002396Y018668D01*
X002396Y018767D02*
X002509Y018767D01*
X002509Y018865D02*
X002396Y018865D01*
X002395Y018964D02*
X002509Y018964D01*
X002509Y019062D02*
X002395Y019062D01*
X002395Y019161D02*
X002509Y019161D01*
X002509Y019259D02*
X002395Y019259D01*
X002395Y019358D02*
X002509Y019358D01*
X002509Y019456D02*
X002394Y019456D01*
X002394Y019555D02*
X002509Y019555D01*
X002509Y019653D02*
X002394Y019653D01*
X002394Y019752D02*
X002509Y019752D01*
X002509Y019850D02*
X002393Y019850D01*
X002393Y019949D02*
X002509Y019949D01*
X002509Y020047D02*
X002393Y020047D01*
X002393Y020146D02*
X002509Y020146D01*
X002509Y020244D02*
X002393Y020244D01*
X002392Y020343D02*
X002509Y020343D01*
X002509Y020441D02*
X002392Y020441D01*
X002392Y020540D02*
X002509Y020540D01*
X002509Y020638D02*
X002392Y020638D01*
X002391Y020737D02*
X002509Y020737D01*
X002509Y020835D02*
X002391Y020835D01*
X002391Y020934D02*
X002509Y020934D01*
X002509Y021032D02*
X002391Y021032D01*
X002391Y021131D02*
X002509Y021131D01*
X002509Y021229D02*
X002390Y021229D01*
X002390Y021328D02*
X002509Y021328D01*
X002509Y021426D02*
X002478Y021426D01*
X002689Y021725D02*
X002886Y023083D01*
X002552Y024205D01*
X003989Y028063D01*
X004914Y028640D01*
X005383Y028814D02*
X005837Y028814D01*
X005906Y028912D02*
X005342Y028912D01*
X005250Y029011D02*
X005975Y029011D01*
X006044Y029109D02*
X005088Y029109D01*
X004739Y029109D02*
X004548Y029109D01*
X004548Y029208D02*
X006113Y029208D01*
X006182Y029306D02*
X004520Y029306D01*
X004479Y029405D02*
X006250Y029405D01*
X006319Y029503D02*
X004392Y029503D01*
X004535Y029011D02*
X004577Y029011D01*
X004444Y028814D02*
X004428Y028814D01*
X004414Y028715D02*
X004328Y028715D01*
X004414Y028617D02*
X003528Y028617D01*
X003453Y028617D02*
X003371Y028617D01*
X003335Y028518D02*
X003417Y028518D01*
X003381Y028420D02*
X003299Y028420D01*
X003263Y028321D02*
X003346Y028321D01*
X003310Y028223D02*
X003234Y028223D01*
X003202Y028152D02*
X003274Y028126D01*
X003274Y028124D02*
X003192Y028124D01*
X003202Y028152D02*
X003038Y027700D01*
X002979Y027730D01*
X003048Y027730D02*
X003130Y027730D01*
X003166Y027829D02*
X003084Y027829D01*
X003120Y027927D02*
X003202Y027927D01*
X003238Y028026D02*
X003156Y028026D01*
X002862Y027829D02*
X002725Y027829D01*
X002761Y027927D02*
X002794Y027927D01*
X002616Y027533D02*
X003599Y027533D01*
X003562Y027435D02*
X002579Y027435D01*
X002543Y027336D02*
X003526Y027336D01*
X003489Y027238D02*
X002507Y027238D01*
X002470Y027139D02*
X003452Y027139D01*
X003416Y027041D02*
X002434Y027041D01*
X002398Y026942D02*
X003379Y026942D01*
X003342Y026844D02*
X002362Y026844D01*
X002325Y026745D02*
X003305Y026745D01*
X003269Y026647D02*
X002289Y026647D01*
X002253Y026548D02*
X003232Y026548D01*
X003195Y026450D02*
X002216Y026450D01*
X002180Y026351D02*
X003159Y026351D01*
X003122Y026253D02*
X002144Y026253D01*
X002107Y026154D02*
X003085Y026154D01*
X003049Y026056D02*
X002071Y026056D01*
X002035Y025957D02*
X003012Y025957D01*
X002975Y025859D02*
X001998Y025859D01*
X001962Y025760D02*
X002939Y025760D01*
X002902Y025662D02*
X001926Y025662D01*
X001889Y025563D02*
X002865Y025563D01*
X002829Y025465D02*
X001853Y025465D01*
X001817Y025366D02*
X002792Y025366D01*
X002755Y025268D02*
X001780Y025268D01*
X001744Y025169D02*
X002719Y025169D01*
X002682Y025071D02*
X001708Y025071D01*
X001671Y024972D02*
X002645Y024972D01*
X002608Y024874D02*
X002086Y024874D01*
X002232Y024775D02*
X002572Y024775D01*
X002535Y024677D02*
X002317Y024677D01*
X002357Y024578D02*
X002498Y024578D01*
X002462Y024480D02*
X002383Y024480D01*
X002383Y024381D02*
X002425Y024381D01*
X002388Y024283D02*
X002369Y024283D01*
X002363Y024184D02*
X002328Y024184D01*
X002260Y024086D02*
X002399Y024086D01*
X002429Y023987D02*
X002154Y023987D01*
X002458Y023889D02*
X001272Y023889D01*
X001308Y023987D02*
X001613Y023987D01*
X001507Y024086D02*
X001345Y024086D01*
X001381Y024184D02*
X001438Y024184D01*
X001236Y023790D02*
X002488Y023790D01*
X002517Y023692D02*
X001199Y023692D01*
X001163Y023593D02*
X002546Y023593D01*
X002933Y023555D02*
X003022Y023259D01*
X003064Y023301D01*
X003125Y023346D01*
X003192Y023380D01*
X003264Y023403D01*
X003339Y023415D01*
X003414Y023415D01*
X003430Y023413D01*
X003352Y022970D01*
X003411Y022960D01*
X003490Y023403D01*
X003561Y023380D01*
X003628Y023346D01*
X003689Y023301D01*
X003729Y023262D01*
X003860Y024255D01*
X003858Y024257D01*
X003869Y024329D01*
X003879Y024401D01*
X003881Y024402D01*
X004325Y027304D01*
X004291Y027318D01*
X004150Y027459D01*
X004074Y027643D01*
X004074Y027778D01*
X002741Y024199D01*
X002747Y024181D01*
X002782Y024266D01*
X002923Y024407D01*
X003107Y024483D01*
X003306Y024483D01*
X003489Y024407D01*
X003630Y024266D01*
X003706Y024083D01*
X003706Y023884D01*
X003630Y023700D01*
X003489Y023559D01*
X003306Y023483D01*
X003107Y023483D01*
X002933Y023555D01*
X002951Y023495D02*
X003079Y023495D01*
X002981Y023396D02*
X003242Y023396D01*
X003333Y023495D02*
X003759Y023495D01*
X003772Y023593D02*
X003523Y023593D01*
X003622Y023692D02*
X003785Y023692D01*
X003798Y023790D02*
X003667Y023790D01*
X003706Y023889D02*
X003811Y023889D01*
X003824Y023987D02*
X003706Y023987D01*
X003705Y024086D02*
X003837Y024086D01*
X003850Y024184D02*
X003664Y024184D01*
X003614Y024283D02*
X003862Y024283D01*
X003876Y024381D02*
X003515Y024381D01*
X003314Y024480D02*
X003892Y024480D01*
X003908Y024578D02*
X002883Y024578D01*
X002919Y024677D02*
X003923Y024677D01*
X003938Y024775D02*
X002956Y024775D01*
X002993Y024874D02*
X003953Y024874D01*
X003968Y024972D02*
X003029Y024972D01*
X003066Y025071D02*
X003983Y025071D01*
X003998Y025169D02*
X003103Y025169D01*
X003139Y025268D02*
X004013Y025268D01*
X004028Y025366D02*
X003176Y025366D01*
X003213Y025465D02*
X004043Y025465D01*
X004058Y025563D02*
X003249Y025563D01*
X003286Y025662D02*
X004074Y025662D01*
X004089Y025760D02*
X003323Y025760D01*
X003359Y025859D02*
X004104Y025859D01*
X004119Y025957D02*
X003396Y025957D01*
X003433Y026056D02*
X004134Y026056D01*
X004149Y026154D02*
X003470Y026154D01*
X003506Y026253D02*
X004164Y026253D01*
X004179Y026351D02*
X003543Y026351D01*
X003580Y026450D02*
X004194Y026450D01*
X004209Y026548D02*
X003616Y026548D01*
X003653Y026647D02*
X004224Y026647D01*
X004239Y026745D02*
X003690Y026745D01*
X003726Y026844D02*
X004255Y026844D01*
X004270Y026942D02*
X003763Y026942D01*
X003800Y027041D02*
X004285Y027041D01*
X004300Y027139D02*
X003836Y027139D01*
X003873Y027238D02*
X004315Y027238D01*
X004273Y027336D02*
X003910Y027336D01*
X003946Y027435D02*
X004175Y027435D01*
X004120Y027533D02*
X003983Y027533D01*
X004020Y027632D02*
X004079Y027632D01*
X004074Y027730D02*
X004057Y027730D01*
X003818Y028124D02*
X003770Y028124D01*
X003770Y028223D02*
X003904Y028223D01*
X003751Y028321D02*
X004062Y028321D01*
X004220Y028420D02*
X003710Y028420D01*
X003644Y028518D02*
X004378Y028518D01*
X005097Y027829D02*
X005902Y027829D01*
X005961Y027927D02*
X005273Y027927D01*
X005448Y028026D02*
X006020Y028026D01*
X006079Y028124D02*
X005624Y028124D01*
X005800Y028223D02*
X006138Y028223D01*
X006197Y028321D02*
X005940Y028321D01*
X006001Y028420D02*
X006256Y028420D01*
X006315Y028518D02*
X006070Y028518D01*
X006139Y028617D02*
X006374Y028617D01*
X006433Y028715D02*
X006208Y028715D01*
X006276Y028814D02*
X006499Y028814D01*
X006572Y028912D02*
X006345Y028912D01*
X006414Y029011D02*
X006645Y029011D01*
X006718Y029109D02*
X006483Y029109D01*
X006552Y029208D02*
X006791Y029208D01*
X006864Y029306D02*
X006621Y029306D01*
X006690Y029405D02*
X006937Y029405D01*
X007010Y029503D02*
X006759Y029503D01*
X006827Y029602D02*
X007083Y029602D01*
X007156Y029700D02*
X006896Y029700D01*
X006965Y029799D02*
X007229Y029799D01*
X007302Y029897D02*
X007034Y029897D01*
X007103Y029996D02*
X007375Y029996D01*
X007458Y030094D02*
X007172Y030094D01*
X007241Y030193D02*
X007547Y030193D01*
X007636Y030291D02*
X007310Y030291D01*
X007378Y030390D02*
X007726Y030390D01*
X007815Y030488D02*
X007447Y030488D01*
X007516Y030587D02*
X007904Y030587D01*
X007993Y030685D02*
X007585Y030685D01*
X007654Y030784D02*
X008083Y030784D01*
X008172Y030882D02*
X007723Y030882D01*
X007792Y030981D02*
X008261Y030981D01*
X008351Y031079D02*
X007861Y031079D01*
X007981Y031178D02*
X008440Y031178D01*
X008465Y031205D02*
X008465Y031205D01*
X008543Y031276D02*
X008118Y031276D01*
X008256Y031375D02*
X008652Y031375D01*
X008760Y031473D02*
X008393Y031473D01*
X008531Y031572D02*
X008869Y031572D01*
X008978Y031670D02*
X008668Y031670D01*
X008806Y031769D02*
X009086Y031769D01*
X009195Y031867D02*
X008944Y031867D01*
X009081Y031966D02*
X009304Y031966D01*
X009219Y032064D02*
X009412Y032064D01*
X009356Y032163D02*
X009521Y032163D01*
X009494Y032261D02*
X009630Y032261D01*
X009634Y032265D02*
X009634Y032265D01*
X009631Y032360D02*
X009762Y032360D01*
X009769Y032458D02*
X009894Y032458D01*
X009907Y032557D02*
X010027Y032557D01*
X010044Y032655D02*
X010160Y032655D01*
X010182Y032754D02*
X010293Y032754D01*
X010319Y032852D02*
X010426Y032852D01*
X010457Y032951D02*
X010559Y032951D01*
X010594Y033049D02*
X010691Y033049D01*
X010732Y033148D02*
X010824Y033148D01*
X010869Y033246D02*
X010970Y033246D01*
X011007Y033345D02*
X011134Y033345D01*
X011108Y033443D02*
X011299Y033443D01*
X011135Y033542D02*
X011463Y033542D01*
X011627Y033640D02*
X011166Y033640D01*
X011198Y033739D02*
X011792Y033739D01*
X011956Y033837D02*
X011229Y033837D01*
X011261Y033936D02*
X012120Y033936D01*
X012293Y034034D02*
X011293Y034034D01*
X011324Y034133D02*
X012501Y034133D01*
X012709Y034231D02*
X011356Y034231D01*
X011387Y034330D02*
X012918Y034330D01*
X013126Y034428D02*
X011419Y034428D01*
X011451Y034527D02*
X013334Y034527D01*
X013542Y034625D02*
X011482Y034625D01*
X011514Y034724D02*
X013773Y034724D01*
X014048Y034822D02*
X011546Y034822D01*
X011767Y034921D02*
X014323Y034921D01*
X014599Y035019D02*
X011893Y035019D01*
X011970Y035118D02*
X014874Y035118D01*
X015149Y035216D02*
X012010Y035216D01*
X012030Y035315D02*
X015535Y035315D01*
X015928Y035413D02*
X012030Y035413D01*
X012010Y035512D02*
X016321Y035512D01*
X016726Y035610D02*
X011969Y035610D01*
X011893Y035709D02*
X017390Y035709D01*
X018054Y035807D02*
X011767Y035807D01*
X011599Y036103D02*
X022466Y036103D01*
X022126Y036201D02*
X011791Y036201D01*
X011804Y036410D02*
X015156Y037054D01*
X015502Y036694D02*
X019486Y036694D01*
X019401Y036792D02*
X015588Y036792D01*
X015629Y036891D02*
X019361Y036891D01*
X019269Y036989D02*
X016590Y036989D01*
X016654Y037016D02*
X016784Y037145D01*
X016854Y037314D01*
X016854Y037497D01*
X016784Y037666D01*
X016654Y037796D01*
X016485Y037866D01*
X016302Y037866D01*
X016133Y037796D01*
X016004Y037666D01*
X015934Y037497D01*
X015934Y037314D01*
X016004Y037145D01*
X016133Y037016D01*
X016302Y036946D01*
X016485Y036946D01*
X016654Y037016D01*
X016726Y037088D02*
X018810Y037088D01*
X018690Y037482D02*
X019567Y037482D01*
X019667Y037580D02*
X018232Y037580D01*
X017835Y037679D02*
X019501Y037679D01*
X019408Y037777D02*
X017795Y037777D01*
X017733Y037876D02*
X019367Y037876D01*
X019335Y037974D02*
X017628Y037974D01*
X017379Y037579D02*
X019835Y037052D01*
X023004Y036134D01*
X023062Y036305D02*
X022999Y036329D01*
X022991Y036325D01*
X020335Y037094D01*
X020335Y037151D01*
X020259Y037335D01*
X020118Y037475D01*
X019934Y037552D01*
X019736Y037552D01*
X019934Y037552D01*
X020118Y037628D01*
X020243Y037752D01*
X022112Y037237D01*
X022112Y037186D01*
X020321Y037186D01*
X020358Y037088D02*
X022153Y037088D01*
X022188Y037003D02*
X022329Y036862D01*
X022512Y036786D01*
X022711Y036786D01*
X022895Y036862D01*
X023036Y037003D01*
X023112Y037186D01*
X027403Y037186D01*
X027573Y037088D02*
X023071Y037088D01*
X023112Y037186D02*
X023112Y037385D01*
X023036Y037569D01*
X022895Y037710D01*
X022711Y037786D01*
X022512Y037786D01*
X022329Y037710D01*
X022204Y037585D01*
X020335Y038100D01*
X020335Y038151D01*
X020259Y038335D01*
X020118Y038475D01*
X020015Y038518D01*
X020015Y038911D01*
X026386Y037774D01*
X031442Y034850D01*
X031364Y034850D01*
X031282Y034816D01*
X029465Y035886D01*
X029458Y035901D01*
X029402Y035923D01*
X029350Y035953D01*
X029334Y035949D01*
X029319Y035955D01*
X029264Y035931D01*
X029206Y035916D01*
X029198Y035902D01*
X028489Y035589D01*
X028418Y035660D01*
X028234Y035737D01*
X028035Y035737D01*
X027851Y035660D01*
X027710Y035520D01*
X027634Y035336D01*
X027634Y035137D01*
X027710Y034953D01*
X027851Y034813D01*
X028035Y034737D01*
X028234Y034737D01*
X028418Y034813D01*
X028542Y034938D01*
X028500Y034836D01*
X028500Y034637D01*
X028577Y034453D01*
X028717Y034313D01*
X028901Y034237D01*
X029100Y034237D01*
X029284Y034313D01*
X029408Y034438D01*
X029366Y034336D01*
X029366Y034137D01*
X029443Y033953D01*
X029583Y033813D01*
X029767Y033737D01*
X029966Y033737D01*
X030150Y033813D01*
X030290Y033953D01*
X030366Y034137D01*
X030366Y034336D01*
X030290Y034520D01*
X030150Y034660D01*
X029966Y034737D01*
X029767Y034737D01*
X029583Y034660D01*
X029458Y034536D01*
X029500Y034637D01*
X029500Y034836D01*
X029424Y035020D01*
X029284Y035160D01*
X029100Y035237D01*
X028901Y035237D01*
X028717Y035160D01*
X028592Y035036D01*
X028634Y035137D01*
X028634Y035260D01*
X029311Y035558D01*
X031100Y034505D01*
X031100Y034454D01*
X031150Y034333D01*
X031243Y034240D01*
X031364Y034190D01*
X031495Y034190D01*
X031616Y034240D01*
X031709Y034333D01*
X031760Y034454D01*
X031760Y034586D01*
X031715Y034692D01*
X032119Y034459D01*
X036245Y029537D01*
X036010Y029459D01*
X035906Y029564D01*
X035722Y029640D01*
X035523Y029640D01*
X035339Y029564D01*
X035199Y029423D01*
X035122Y029240D01*
X035122Y029041D01*
X035164Y028939D01*
X035040Y029064D01*
X034856Y029140D01*
X034657Y029140D01*
X034473Y029064D01*
X034339Y028929D01*
X034157Y028975D01*
X028804Y034075D01*
X028788Y034110D01*
X028752Y034124D01*
X028724Y034151D01*
X028685Y034150D01*
X023130Y036279D01*
X023126Y036286D01*
X023062Y036305D01*
X023081Y036300D02*
X025976Y036300D01*
X025976Y036350D02*
X025976Y036151D01*
X026052Y035967D01*
X026192Y035827D01*
X026376Y035750D01*
X026575Y035750D01*
X026759Y035827D01*
X026899Y035967D01*
X026976Y036151D01*
X026976Y036350D01*
X026899Y036534D01*
X026759Y036674D01*
X026575Y036750D01*
X026376Y036750D01*
X026192Y036674D01*
X026052Y036534D01*
X025976Y036350D01*
X025996Y036398D02*
X022740Y036398D01*
X022400Y036497D02*
X026036Y036497D01*
X026113Y036595D02*
X022060Y036595D01*
X021719Y036694D02*
X026239Y036694D01*
X026712Y036694D02*
X028254Y036694D01*
X028084Y036792D02*
X022727Y036792D01*
X022924Y036891D02*
X027914Y036891D01*
X027743Y036989D02*
X023022Y036989D01*
X023112Y037285D02*
X027232Y037285D01*
X027062Y037383D02*
X023112Y037383D01*
X023072Y037482D02*
X026892Y037482D01*
X026721Y037580D02*
X023025Y037580D01*
X022926Y037679D02*
X026551Y037679D01*
X026367Y037777D02*
X022732Y037777D01*
X022492Y037777D02*
X021507Y037777D01*
X021150Y037876D02*
X025815Y037876D01*
X026449Y037945D02*
X032237Y034599D01*
X036528Y029481D01*
X036541Y029446D01*
X035622Y029140D01*
X035430Y029602D02*
X033499Y029602D01*
X033396Y029700D02*
X036109Y029700D01*
X036027Y029799D02*
X033292Y029799D01*
X033189Y029897D02*
X035944Y029897D01*
X035861Y029996D02*
X033085Y029996D01*
X032982Y030094D02*
X035779Y030094D01*
X035696Y030193D02*
X032879Y030193D01*
X032775Y030291D02*
X035614Y030291D01*
X035531Y030390D02*
X032672Y030390D01*
X032568Y030488D02*
X035448Y030488D01*
X035366Y030587D02*
X032465Y030587D01*
X032362Y030685D02*
X035283Y030685D01*
X035201Y030784D02*
X032258Y030784D01*
X032155Y030882D02*
X035118Y030882D01*
X035035Y030981D02*
X032051Y030981D01*
X031948Y031079D02*
X034953Y031079D01*
X034870Y031178D02*
X031845Y031178D01*
X031741Y031276D02*
X034788Y031276D01*
X034705Y031375D02*
X031638Y031375D01*
X031535Y031473D02*
X034623Y031473D01*
X034540Y031572D02*
X031431Y031572D01*
X031328Y031670D02*
X032134Y031670D01*
X032270Y031613D02*
X032396Y031613D01*
X032597Y031613D01*
X032898Y031738D01*
X033129Y031969D01*
X033253Y032270D01*
X033253Y032597D01*
X033129Y032898D01*
X032898Y033129D01*
X032597Y033253D01*
X032270Y033253D01*
X031969Y033129D01*
X031969Y033129D01*
X031738Y032898D01*
X031613Y032597D01*
X031613Y032270D01*
X031738Y031969D01*
X031738Y031969D01*
X031969Y031738D01*
X032270Y031613D01*
X031969Y031738D02*
X031969Y031738D01*
X031969Y031738D01*
X031939Y031769D02*
X031224Y031769D01*
X031121Y031867D02*
X031840Y031867D01*
X031742Y031966D02*
X031018Y031966D01*
X030914Y032064D02*
X031699Y032064D01*
X031658Y032163D02*
X030811Y032163D01*
X030707Y032261D02*
X031617Y032261D01*
X031613Y032360D02*
X030604Y032360D01*
X030501Y032458D02*
X031613Y032458D01*
X031613Y032557D02*
X030397Y032557D01*
X030294Y032655D02*
X031638Y032655D01*
X031679Y032754D02*
X030191Y032754D01*
X030087Y032852D02*
X031719Y032852D01*
X031738Y032898D02*
X031738Y032898D01*
X031791Y032951D02*
X029984Y032951D01*
X029880Y033049D02*
X031889Y033049D01*
X032015Y033148D02*
X029777Y033148D01*
X029674Y033246D02*
X032253Y033246D01*
X032614Y033246D02*
X033136Y033246D01*
X033219Y033148D02*
X032852Y033148D01*
X032898Y033129D02*
X032898Y033129D01*
X032978Y033049D02*
X033301Y033049D01*
X033384Y032951D02*
X033076Y032951D01*
X033129Y032898D02*
X033129Y032898D01*
X033148Y032852D02*
X033466Y032852D01*
X033549Y032754D02*
X033188Y032754D01*
X033229Y032655D02*
X033631Y032655D01*
X033714Y032557D02*
X033253Y032557D01*
X033253Y032458D02*
X033797Y032458D01*
X033879Y032360D02*
X033253Y032360D01*
X033250Y032261D02*
X033962Y032261D01*
X034044Y032163D02*
X033209Y032163D01*
X033168Y032064D02*
X034127Y032064D01*
X034210Y031966D02*
X033125Y031966D01*
X033129Y031969D02*
X033129Y031969D01*
X033027Y031867D02*
X034292Y031867D01*
X034375Y031769D02*
X032928Y031769D01*
X032898Y031738D02*
X032898Y031738D01*
X032733Y031670D02*
X034457Y031670D01*
X032770Y029799D02*
X032441Y029799D01*
X032368Y029897D02*
X032667Y029897D01*
X032563Y029996D02*
X032295Y029996D01*
X032265Y030036D02*
X032265Y030036D01*
X032212Y030094D02*
X032460Y030094D01*
X032357Y030193D02*
X032123Y030193D01*
X032034Y030291D02*
X032253Y030291D01*
X032150Y030390D02*
X031945Y030390D01*
X031855Y030488D02*
X032047Y030488D01*
X031943Y030587D02*
X031766Y030587D01*
X031840Y030685D02*
X031677Y030685D01*
X031736Y030784D02*
X031587Y030784D01*
X031633Y030882D02*
X031498Y030882D01*
X031530Y030981D02*
X031409Y030981D01*
X031426Y031079D02*
X031320Y031079D01*
X031323Y031178D02*
X031230Y031178D01*
X031205Y031205D02*
X031205Y031205D01*
X031219Y031276D02*
X031127Y031276D01*
X031116Y031375D02*
X031018Y031375D01*
X031013Y031473D02*
X030910Y031473D01*
X030909Y031572D02*
X030801Y031572D01*
X030806Y031670D02*
X030692Y031670D01*
X030702Y031769D02*
X030584Y031769D01*
X030599Y031867D02*
X030475Y031867D01*
X030496Y031966D02*
X030366Y031966D01*
X030392Y032064D02*
X030258Y032064D01*
X030289Y032163D02*
X030149Y032163D01*
X030186Y032261D02*
X030040Y032261D01*
X030036Y032265D02*
X030036Y032265D01*
X030082Y032360D02*
X029908Y032360D01*
X029979Y032458D02*
X029776Y032458D01*
X029875Y032557D02*
X029643Y032557D01*
X029772Y032655D02*
X029510Y032655D01*
X029377Y032754D02*
X029669Y032754D01*
X029565Y032852D02*
X029244Y032852D01*
X029112Y032951D02*
X029462Y032951D01*
X029358Y033049D02*
X028979Y033049D01*
X028846Y033148D02*
X029255Y033148D01*
X029152Y033246D02*
X028700Y033246D01*
X028536Y033345D02*
X029048Y033345D01*
X028945Y033443D02*
X028371Y033443D01*
X028207Y033542D02*
X028842Y033542D01*
X028738Y033640D02*
X028043Y033640D01*
X027878Y033739D02*
X028635Y033739D01*
X028495Y033837D02*
X027714Y033837D01*
X027550Y033936D02*
X028238Y033936D01*
X027981Y034034D02*
X027377Y034034D01*
X027415Y034016D02*
X027415Y034016D01*
X027467Y034231D02*
X026961Y034231D01*
X026953Y034428D02*
X026544Y034428D01*
X026696Y034527D02*
X026336Y034527D01*
X026439Y034625D02*
X026128Y034625D01*
X026182Y034724D02*
X025897Y034724D01*
X025925Y034822D02*
X025622Y034822D01*
X025668Y034921D02*
X025347Y034921D01*
X025411Y035019D02*
X025071Y035019D01*
X025154Y035118D02*
X024796Y035118D01*
X024897Y035216D02*
X024521Y035216D01*
X024640Y035315D02*
X024135Y035315D01*
X024126Y035512D02*
X023349Y035512D01*
X023355Y035807D02*
X021616Y035807D01*
X021411Y035837D02*
X021411Y035837D01*
X021445Y036398D02*
X012696Y036398D01*
X012838Y036792D02*
X011149Y036792D01*
X011304Y036891D02*
X013351Y036891D01*
X013208Y036497D02*
X021105Y036497D01*
X020765Y036595D02*
X020040Y036595D01*
X020184Y036694D02*
X020424Y036694D01*
X020698Y036989D02*
X022201Y036989D01*
X022188Y037003D02*
X022112Y037186D01*
X021939Y037285D02*
X020280Y037285D01*
X020211Y037383D02*
X021582Y037383D01*
X021225Y037482D02*
X020103Y037482D01*
X020003Y037580D02*
X020868Y037580D01*
X020510Y037679D02*
X020169Y037679D01*
X020436Y038073D02*
X024712Y038073D01*
X025264Y037974D02*
X020793Y037974D01*
X020327Y038171D02*
X024161Y038171D01*
X023609Y038270D02*
X020286Y038270D01*
X020226Y038368D02*
X023057Y038368D01*
X022506Y038467D02*
X020127Y038467D01*
X020015Y038565D02*
X021954Y038565D01*
X021403Y038664D02*
X020015Y038664D01*
X020015Y038762D02*
X020851Y038762D01*
X020299Y038861D02*
X020015Y038861D01*
X019835Y039126D02*
X019835Y038052D01*
X022612Y037286D01*
X022298Y037679D02*
X021864Y037679D01*
X022300Y036891D02*
X021039Y036891D01*
X021379Y036792D02*
X022497Y036792D01*
X022807Y036004D02*
X011407Y036004D01*
X011194Y036300D02*
X010370Y036300D01*
X010526Y036398D02*
X011386Y036398D01*
X011578Y036497D02*
X010682Y036497D01*
X010837Y036595D02*
X011770Y036595D01*
X011804Y036410D02*
X009045Y034995D01*
X009334Y035413D02*
X009467Y035413D01*
X009659Y035512D02*
X009125Y035512D01*
X009280Y035610D02*
X009851Y035610D01*
X010043Y035709D02*
X009436Y035709D01*
X009592Y035807D02*
X010235Y035807D01*
X010426Y035906D02*
X009747Y035906D01*
X009903Y036004D02*
X010618Y036004D01*
X010810Y036103D02*
X010059Y036103D01*
X010214Y036201D02*
X011002Y036201D01*
X010993Y036694D02*
X012326Y036694D01*
X012183Y036300D02*
X021786Y036300D01*
X022280Y035709D02*
X023612Y035709D01*
X023869Y035610D02*
X022944Y035610D01*
X022972Y035606D02*
X022972Y035606D01*
X023333Y036201D02*
X025976Y036201D01*
X025996Y036103D02*
X023590Y036103D01*
X023847Y036004D02*
X026036Y036004D01*
X026113Y035906D02*
X024104Y035906D01*
X024361Y035807D02*
X026239Y035807D01*
X026712Y035807D02*
X028983Y035807D01*
X029200Y035906D02*
X026838Y035906D01*
X026915Y036004D02*
X029447Y036004D01*
X029446Y035906D02*
X029617Y035906D01*
X029598Y035807D02*
X029787Y035807D01*
X029766Y035709D02*
X029958Y035709D01*
X029933Y035610D02*
X030128Y035610D01*
X030100Y035512D02*
X030298Y035512D01*
X030268Y035413D02*
X030469Y035413D01*
X030435Y035315D02*
X030639Y035315D01*
X030602Y035216D02*
X030810Y035216D01*
X030769Y035118D02*
X030980Y035118D01*
X030937Y035019D02*
X031150Y035019D01*
X031104Y034921D02*
X031321Y034921D01*
X031296Y034822D02*
X031271Y034822D01*
X031430Y034520D02*
X029323Y035760D01*
X028134Y035237D01*
X027666Y035413D02*
X025389Y035413D01*
X025646Y035315D02*
X027634Y035315D01*
X027634Y035216D02*
X025903Y035216D01*
X026160Y035118D02*
X027642Y035118D01*
X027683Y035019D02*
X026417Y035019D01*
X026674Y034921D02*
X027743Y034921D01*
X027842Y034822D02*
X026931Y034822D01*
X027188Y034724D02*
X028500Y034724D01*
X028500Y034822D02*
X028427Y034822D01*
X028525Y034921D02*
X028535Y034921D01*
X028626Y035118D02*
X028674Y035118D01*
X028634Y035216D02*
X028851Y035216D01*
X028758Y035315D02*
X029725Y035315D01*
X029558Y035413D02*
X028982Y035413D01*
X029205Y035512D02*
X029391Y035512D01*
X029149Y035216D02*
X029893Y035216D01*
X030060Y035118D02*
X029327Y035118D01*
X029425Y035019D02*
X030227Y035019D01*
X030395Y034921D02*
X029465Y034921D01*
X029500Y034822D02*
X030562Y034822D01*
X030729Y034724D02*
X029997Y034724D01*
X030185Y034625D02*
X030896Y034625D01*
X031064Y034527D02*
X030284Y034527D01*
X030328Y034428D02*
X031110Y034428D01*
X031153Y034330D02*
X030366Y034330D01*
X030366Y034231D02*
X031265Y034231D01*
X031594Y034231D02*
X032310Y034231D01*
X032393Y034133D02*
X030365Y034133D01*
X030324Y034034D02*
X032475Y034034D01*
X032558Y033936D02*
X030272Y033936D01*
X030174Y033837D02*
X032640Y033837D01*
X032723Y033739D02*
X029971Y033739D01*
X029762Y033739D02*
X029157Y033739D01*
X029053Y033837D02*
X029559Y033837D01*
X029460Y033936D02*
X028950Y033936D01*
X028846Y034034D02*
X029409Y034034D01*
X029368Y034133D02*
X028743Y034133D01*
X028700Y034330D02*
X028216Y034330D01*
X028473Y034231D02*
X029366Y034231D01*
X029366Y034330D02*
X029300Y034330D01*
X029399Y034428D02*
X029405Y034428D01*
X029495Y034625D02*
X029548Y034625D01*
X029500Y034724D02*
X029736Y034724D01*
X028602Y034428D02*
X027959Y034428D01*
X027702Y034527D02*
X028546Y034527D01*
X028505Y034625D02*
X027445Y034625D01*
X027210Y034330D02*
X026753Y034330D01*
X027169Y034133D02*
X027724Y034133D01*
X027707Y035512D02*
X025132Y035512D01*
X024875Y035610D02*
X027801Y035610D01*
X027967Y035709D02*
X024618Y035709D01*
X024383Y035413D02*
X023742Y035413D01*
X026449Y037945D02*
X019835Y039126D01*
X012355Y037768D01*
X007532Y034717D01*
X003142Y029481D01*
X003233Y029208D02*
X003357Y029208D01*
X003197Y029109D02*
X003548Y029109D01*
X003560Y029011D02*
X003161Y029011D01*
X003124Y028912D02*
X003601Y028912D01*
X003667Y028814D02*
X003088Y028814D01*
X003052Y028715D02*
X003767Y028715D01*
X004574Y027742D02*
X004048Y024304D01*
X003162Y017591D01*
X003181Y014579D01*
X002960Y014334D02*
X001806Y014334D01*
X001842Y014236D02*
X002852Y014236D01*
X002870Y014137D02*
X002761Y014137D01*
X002802Y014039D02*
X002910Y014039D01*
X002951Y013940D02*
X002843Y013940D01*
X002884Y013842D02*
X002992Y013842D01*
X002970Y013743D02*
X002925Y013743D01*
X003006Y013546D02*
X003114Y013546D01*
X003155Y013448D02*
X003047Y013448D01*
X003088Y013349D02*
X003196Y013349D01*
X003237Y013251D02*
X003129Y013251D01*
X003111Y013152D02*
X003672Y013152D01*
X003672Y013251D02*
X003349Y013251D01*
X003587Y013349D02*
X003672Y013349D01*
X003666Y013448D02*
X003673Y013448D01*
X003673Y013546D02*
X003656Y013546D01*
X003673Y013645D02*
X003615Y013645D01*
X003574Y013743D02*
X003674Y013743D01*
X004034Y013743D02*
X004957Y013743D01*
X004922Y013842D02*
X004034Y013842D01*
X004034Y013940D02*
X004887Y013940D01*
X004851Y014039D02*
X004034Y014039D01*
X004035Y014137D02*
X004816Y014137D01*
X004781Y014236D02*
X004035Y014236D01*
X004035Y014334D02*
X004746Y014334D01*
X004710Y014433D02*
X004036Y014433D01*
X004036Y014531D02*
X004675Y014531D01*
X004640Y014630D02*
X004036Y014630D01*
X004037Y014728D02*
X004605Y014728D01*
X004569Y014827D02*
X004037Y014827D01*
X004037Y014925D02*
X004534Y014925D01*
X004499Y015024D02*
X004138Y015024D01*
X004246Y015122D02*
X004464Y015122D01*
X004448Y015167D02*
X004448Y015167D01*
X004434Y015221D02*
X004318Y015221D01*
X004359Y015319D02*
X004410Y015319D01*
X004385Y015418D02*
X004379Y015418D01*
X003859Y015471D02*
X003851Y012886D01*
X003524Y012427D01*
X003915Y012069D02*
X005766Y012069D01*
X005707Y012167D02*
X003990Y012167D01*
X004031Y012266D02*
X005649Y012266D01*
X005654Y012255D02*
X005654Y012255D01*
X005602Y012364D02*
X004054Y012364D01*
X004054Y012463D02*
X005556Y012463D01*
X005509Y012561D02*
X004042Y012561D01*
X004001Y012660D02*
X005463Y012660D01*
X005416Y012758D02*
X003980Y012758D01*
X004038Y012857D02*
X005369Y012857D01*
X005323Y012955D02*
X004031Y012955D01*
X004031Y013054D02*
X005276Y013054D01*
X005230Y013152D02*
X004032Y013152D01*
X004032Y013251D02*
X005183Y013251D01*
X005136Y013349D02*
X004032Y013349D01*
X004033Y013448D02*
X005090Y013448D01*
X005043Y013546D02*
X004033Y013546D01*
X004033Y013645D02*
X004997Y013645D01*
X005825Y011970D02*
X003806Y011970D01*
X004556Y011379D02*
X002895Y011379D01*
X002932Y011281D02*
X004476Y011281D01*
X004436Y011182D02*
X002968Y011182D01*
X003004Y011084D02*
X004414Y011084D01*
X004414Y010985D02*
X004256Y010985D01*
X004398Y010887D02*
X004432Y010887D01*
X004523Y010690D02*
X004547Y010690D01*
X004548Y010591D02*
X004667Y010591D01*
X004548Y010493D02*
X005283Y010493D01*
X005163Y010591D02*
X005161Y010591D01*
X005402Y010394D02*
X004533Y010394D01*
X004492Y010296D02*
X005522Y010296D01*
X005641Y010197D02*
X004422Y010197D01*
X004313Y010099D02*
X005761Y010099D01*
X004914Y011030D02*
X008752Y007867D01*
X012788Y004697D01*
X012473Y005174D02*
X013271Y005174D01*
X013062Y005272D02*
X012347Y005272D01*
X012222Y005371D02*
X012854Y005371D01*
X012646Y005469D02*
X012097Y005469D01*
X011971Y005568D02*
X012438Y005568D01*
X012255Y005654D02*
X012255Y005654D01*
X012235Y005666D02*
X011846Y005666D01*
X011720Y005765D02*
X012070Y005765D01*
X011906Y005863D02*
X011595Y005863D01*
X011469Y005962D02*
X011742Y005962D01*
X011577Y006060D02*
X011344Y006060D01*
X011413Y006159D02*
X011219Y006159D01*
X011249Y006257D02*
X011093Y006257D01*
X011084Y006356D02*
X010968Y006356D01*
X010920Y006454D02*
X010842Y006454D01*
X010902Y006465D02*
X010902Y006465D01*
X010784Y006553D02*
X010717Y006553D01*
X010651Y006651D02*
X010591Y006651D01*
X010518Y006750D02*
X010466Y006750D01*
X010385Y006848D02*
X010341Y006848D01*
X010252Y006947D02*
X010215Y006947D01*
X010120Y007045D02*
X010090Y007045D01*
X009987Y007144D02*
X009964Y007144D01*
X009854Y007242D02*
X009839Y007242D01*
X009721Y007341D02*
X009714Y007341D01*
X009634Y007405D02*
X009634Y007405D01*
X009597Y007439D02*
X009588Y007439D01*
X009488Y007538D02*
X009463Y007538D01*
X009379Y007636D02*
X009337Y007636D01*
X009271Y007735D02*
X009212Y007735D01*
X009162Y007833D02*
X009086Y007833D01*
X009053Y007932D02*
X008961Y007932D01*
X008945Y008030D02*
X008837Y008030D01*
X008836Y008129D02*
X008717Y008129D01*
X008727Y008227D02*
X008598Y008227D01*
X008619Y008326D02*
X008478Y008326D01*
X008697Y006553D02*
X010134Y006553D01*
X010009Y006651D02*
X007811Y006651D01*
X008690Y005666D02*
X008823Y005666D01*
X008818Y005765D02*
X008846Y005765D01*
X008937Y005962D02*
X008967Y005962D01*
X008957Y006060D02*
X009102Y006060D01*
X008957Y006159D02*
X010636Y006159D01*
X010510Y006257D02*
X008938Y006257D01*
X008897Y006356D02*
X010385Y006356D01*
X010259Y006454D02*
X008821Y006454D01*
X009545Y006060D02*
X010761Y006060D01*
X010887Y005962D02*
X009679Y005962D01*
X009760Y005863D02*
X011012Y005863D01*
X011137Y005765D02*
X009801Y005765D01*
X008735Y004878D02*
X008127Y004878D01*
X008298Y004780D02*
X008394Y004780D01*
X008306Y004567D02*
X007433Y005071D01*
X003142Y010189D01*
X003222Y010493D02*
X003437Y010493D01*
X003548Y010591D02*
X003186Y010591D01*
X003150Y010690D02*
X003573Y010690D01*
X003613Y010788D02*
X003113Y010788D01*
X003077Y010887D02*
X003697Y010887D01*
X003840Y010985D02*
X003041Y010985D01*
X002424Y013645D02*
X002060Y013645D01*
X002024Y013743D02*
X002383Y013743D01*
X002343Y013842D02*
X001987Y013842D01*
X001951Y013940D02*
X002326Y013940D01*
X002387Y014039D02*
X001915Y014039D01*
X001878Y014137D02*
X002615Y014137D01*
X002885Y014433D02*
X001769Y014433D01*
X001733Y014531D02*
X002851Y014531D01*
X002851Y014630D02*
X001697Y014630D01*
X001660Y014728D02*
X002886Y014728D01*
X002962Y014827D02*
X001624Y014827D01*
X001588Y014925D02*
X002999Y014925D01*
X002999Y015024D02*
X001551Y015024D01*
X001515Y015122D02*
X002998Y015122D01*
X002997Y015221D02*
X001479Y015221D01*
X002689Y016430D02*
X002689Y021725D01*
X002869Y021378D02*
X002892Y021354D01*
X002954Y021310D01*
X003021Y021276D01*
X003093Y021252D01*
X003134Y021246D01*
X003173Y021693D01*
X003232Y021688D01*
X003193Y021241D01*
X003243Y021241D01*
X003318Y021252D01*
X003389Y021276D01*
X003457Y021310D01*
X003473Y021322D01*
X002991Y017674D01*
X002981Y017664D01*
X002982Y017602D01*
X002974Y017541D01*
X002982Y017529D01*
X002988Y016570D01*
X002969Y016616D01*
X002876Y016709D01*
X002869Y016712D01*
X002869Y021378D01*
X002869Y021328D02*
X002930Y021328D01*
X002869Y021229D02*
X003460Y021229D01*
X003447Y021131D02*
X002869Y021131D01*
X002869Y021032D02*
X003434Y021032D01*
X003421Y020934D02*
X002869Y020934D01*
X002869Y020835D02*
X003408Y020835D01*
X003395Y020737D02*
X002869Y020737D01*
X002869Y020638D02*
X003382Y020638D01*
X003369Y020540D02*
X002869Y020540D01*
X002869Y020441D02*
X003356Y020441D01*
X003343Y020343D02*
X002869Y020343D01*
X002869Y020244D02*
X003330Y020244D01*
X003317Y020146D02*
X002869Y020146D01*
X002869Y020047D02*
X003304Y020047D01*
X003291Y019949D02*
X002869Y019949D01*
X002869Y019850D02*
X003278Y019850D01*
X003265Y019752D02*
X002869Y019752D01*
X002869Y019653D02*
X003252Y019653D01*
X003239Y019555D02*
X002869Y019555D01*
X002869Y019456D02*
X003226Y019456D01*
X003213Y019358D02*
X002869Y019358D01*
X002869Y019259D02*
X003200Y019259D01*
X003187Y019161D02*
X002869Y019161D01*
X002869Y019062D02*
X003174Y019062D01*
X003161Y018964D02*
X002869Y018964D01*
X002869Y018865D02*
X003148Y018865D01*
X003135Y018767D02*
X002869Y018767D01*
X002869Y018668D02*
X003122Y018668D01*
X003109Y018570D02*
X002869Y018570D01*
X002869Y018471D02*
X003096Y018471D01*
X003083Y018373D02*
X002869Y018373D01*
X002869Y018274D02*
X003070Y018274D01*
X003057Y018176D02*
X002869Y018176D01*
X002869Y018077D02*
X003044Y018077D01*
X003031Y017979D02*
X002869Y017979D01*
X002869Y017880D02*
X003018Y017880D01*
X003005Y017782D02*
X002869Y017782D01*
X002869Y017683D02*
X002992Y017683D01*
X002979Y017585D02*
X002869Y017585D01*
X002869Y017486D02*
X002982Y017486D01*
X002983Y017388D02*
X002869Y017388D01*
X002869Y017289D02*
X002984Y017289D01*
X002984Y017191D02*
X002869Y017191D01*
X002869Y017092D02*
X002985Y017092D01*
X002986Y016994D02*
X002869Y016994D01*
X002869Y016895D02*
X002986Y016895D01*
X002987Y016797D02*
X002869Y016797D01*
X002888Y016698D02*
X002988Y016698D01*
X002976Y016600D02*
X002988Y016600D01*
X002991Y016206D02*
X002932Y016206D01*
X001234Y016698D02*
X000999Y016698D01*
X000999Y016797D02*
X001061Y016797D01*
X000999Y019949D02*
X001145Y019949D01*
X001061Y020047D02*
X000999Y020047D01*
X000999Y020146D02*
X001021Y020146D01*
X001021Y020244D02*
X000999Y020244D01*
X000999Y020343D02*
X001049Y020343D01*
X000999Y020441D02*
X001116Y020441D01*
X001171Y020540D02*
X000999Y020540D01*
X000999Y020638D02*
X001171Y020638D01*
X001171Y020737D02*
X000999Y020737D01*
X000999Y020835D02*
X001171Y020835D01*
X001171Y020934D02*
X000999Y020934D01*
X000999Y021032D02*
X001171Y021032D01*
X001171Y021131D02*
X000999Y021131D01*
X000999Y021229D02*
X001171Y021229D01*
X001171Y021328D02*
X000999Y021328D01*
X000999Y021426D02*
X001171Y021426D01*
X001171Y021525D02*
X000999Y021525D01*
X000999Y021623D02*
X001171Y021623D01*
X001171Y021722D02*
X000999Y021722D01*
X000999Y021820D02*
X001171Y021820D01*
X001171Y021919D02*
X000999Y021919D01*
X000999Y022017D02*
X001171Y022017D01*
X001171Y022116D02*
X000999Y022116D01*
X000999Y022214D02*
X001171Y022214D01*
X001171Y022313D02*
X000999Y022313D01*
X000999Y022411D02*
X001206Y022411D01*
X001332Y022510D02*
X000999Y022510D01*
X000999Y022608D02*
X001458Y022608D01*
X001584Y022707D02*
X000999Y022707D01*
X000999Y022805D02*
X001711Y022805D01*
X001837Y022904D02*
X000999Y022904D01*
X000999Y023002D02*
X001938Y023002D01*
X001932Y023101D02*
X000999Y023101D01*
X001018Y023199D02*
X001932Y023199D01*
X001972Y023298D02*
X001054Y023298D01*
X001090Y023396D02*
X002028Y023396D01*
X002127Y023495D02*
X001127Y023495D01*
X001351Y022296D02*
X001351Y020209D01*
X003141Y021328D02*
X003201Y021328D01*
X003210Y021426D02*
X003149Y021426D01*
X003158Y021525D02*
X003218Y021525D01*
X003227Y021623D02*
X003167Y021623D01*
X003178Y021753D02*
X003217Y022201D01*
X003167Y022201D01*
X003093Y022189D01*
X003021Y022165D01*
X002954Y022131D01*
X002927Y022112D01*
X003003Y022633D01*
X003011Y022623D01*
X003064Y022569D01*
X003125Y022525D01*
X003192Y022490D01*
X003264Y022467D01*
X003342Y022911D01*
X003401Y022900D01*
X003323Y022458D01*
X003339Y022455D01*
X003414Y022455D01*
X003489Y022467D01*
X003561Y022490D01*
X003628Y022525D01*
X003632Y022527D01*
X003567Y022038D01*
X003518Y022087D01*
X003457Y022131D01*
X003389Y022165D01*
X003318Y022189D01*
X003277Y022195D01*
X003238Y021748D01*
X003178Y021753D01*
X003184Y021820D02*
X003244Y021820D01*
X003253Y021919D02*
X003192Y021919D01*
X003201Y022017D02*
X003261Y022017D01*
X003270Y022116D02*
X003210Y022116D01*
X003478Y022116D02*
X003577Y022116D01*
X003590Y022214D02*
X002942Y022214D01*
X002928Y022116D02*
X002932Y022116D01*
X002956Y022313D02*
X003603Y022313D01*
X003616Y022411D02*
X002971Y022411D01*
X002985Y022510D02*
X003155Y022510D01*
X003271Y022510D02*
X003332Y022510D01*
X003349Y022608D02*
X003289Y022608D01*
X003306Y022707D02*
X003367Y022707D01*
X003384Y022805D02*
X003323Y022805D01*
X003341Y022904D02*
X003383Y022904D01*
X003358Y023002D02*
X003419Y023002D01*
X003436Y023101D02*
X003375Y023101D01*
X003393Y023199D02*
X003454Y023199D01*
X003471Y023298D02*
X003410Y023298D01*
X003427Y023396D02*
X003488Y023396D01*
X003512Y023396D02*
X003746Y023396D01*
X003733Y023298D02*
X003693Y023298D01*
X004083Y023199D02*
X004121Y023199D01*
X004096Y023101D02*
X004070Y023101D01*
X004057Y023002D02*
X004072Y023002D01*
X004064Y022972D02*
X004064Y022972D01*
X004054Y022904D02*
X004044Y022904D01*
X004031Y022805D02*
X004039Y022805D01*
X004025Y022707D02*
X004018Y022707D01*
X004005Y022608D02*
X004010Y022608D01*
X003996Y022510D02*
X003992Y022510D01*
X003979Y022411D02*
X003981Y022411D01*
X003629Y022510D02*
X003599Y022510D01*
X003025Y022608D02*
X002999Y022608D01*
X002650Y022707D02*
X002623Y022707D01*
X002635Y022608D02*
X002043Y022608D01*
X001917Y022510D02*
X002621Y022510D01*
X002607Y022411D02*
X001791Y022411D01*
X001665Y022313D02*
X002593Y022313D01*
X002578Y022214D02*
X002430Y022214D01*
X002552Y022116D02*
X002564Y022116D01*
X001988Y022214D02*
X001539Y022214D01*
X001531Y022116D02*
X001866Y022116D01*
X001798Y022017D02*
X001531Y022017D01*
X001531Y021919D02*
X001757Y021919D01*
X001351Y022296D02*
X002392Y023109D01*
X003010Y023298D02*
X003060Y023298D01*
X002746Y024184D02*
X002748Y024184D01*
X002772Y024283D02*
X002798Y024283D01*
X002809Y024381D02*
X002897Y024381D01*
X002846Y024480D02*
X003098Y024480D01*
X004227Y024283D02*
X004392Y024283D01*
X004417Y024381D02*
X004242Y024381D01*
X004257Y024480D02*
X004442Y024480D01*
X004474Y024578D02*
X004272Y024578D01*
X004287Y024677D02*
X004510Y024677D01*
X004545Y024775D02*
X004302Y024775D01*
X004317Y024874D02*
X004580Y024874D01*
X004615Y024972D02*
X004332Y024972D01*
X004347Y025071D02*
X004651Y025071D01*
X004686Y025169D02*
X004362Y025169D01*
X004377Y025268D02*
X004721Y025268D01*
X004756Y025366D02*
X004392Y025366D01*
X004408Y025465D02*
X004792Y025465D01*
X004827Y025563D02*
X004423Y025563D01*
X004438Y025662D02*
X004862Y025662D01*
X004897Y025760D02*
X004453Y025760D01*
X004468Y025859D02*
X004933Y025859D01*
X004968Y025957D02*
X004483Y025957D01*
X004498Y026056D02*
X005011Y026056D01*
X005057Y026154D02*
X004513Y026154D01*
X004528Y026253D02*
X005104Y026253D01*
X005151Y026351D02*
X004543Y026351D01*
X004558Y026450D02*
X005197Y026450D01*
X005244Y026548D02*
X004573Y026548D01*
X004589Y026647D02*
X005290Y026647D01*
X005337Y026745D02*
X004604Y026745D01*
X004619Y026844D02*
X005384Y026844D01*
X005430Y026942D02*
X004634Y026942D01*
X004649Y027041D02*
X005477Y027041D01*
X005523Y027139D02*
X004664Y027139D01*
X004679Y027238D02*
X005570Y027238D01*
X005616Y027336D02*
X004875Y027336D01*
X004974Y027435D02*
X005666Y027435D01*
X005725Y027533D02*
X005029Y027533D01*
X005070Y027632D02*
X005784Y027632D01*
X005843Y027730D02*
X005074Y027730D01*
X004574Y027742D02*
X005780Y028418D01*
X007748Y031233D01*
X010937Y033516D01*
X011530Y035364D01*
X011168Y035019D02*
X010924Y035019D01*
X010956Y034921D02*
X011199Y034921D01*
X011167Y034822D02*
X010967Y034822D01*
X010960Y034724D02*
X011136Y034724D01*
X011104Y034625D02*
X010934Y034625D01*
X010884Y034527D02*
X011073Y034527D01*
X010978Y034231D02*
X008608Y034231D01*
X008681Y034133D02*
X010946Y034133D01*
X010915Y034034D02*
X009101Y034034D01*
X009225Y033936D02*
X010883Y033936D01*
X010851Y033837D02*
X009300Y033837D01*
X009341Y033739D02*
X010820Y033739D01*
X010788Y033640D02*
X009361Y033640D01*
X009361Y033542D02*
X010664Y033542D01*
X010526Y033443D02*
X009340Y033443D01*
X009299Y033345D02*
X010389Y033345D01*
X010251Y033246D02*
X009221Y033246D01*
X009093Y033148D02*
X010114Y033148D01*
X008861Y033592D02*
X008181Y034500D01*
X006818Y033148D02*
X006451Y033148D01*
X006369Y033049D02*
X006693Y033049D01*
X006772Y033129D02*
X006772Y033129D01*
X006594Y032951D02*
X006286Y032951D01*
X006203Y032852D02*
X006522Y032852D01*
X006541Y032898D02*
X006541Y032898D01*
X006482Y032754D02*
X006121Y032754D01*
X006038Y032655D02*
X006441Y032655D01*
X006417Y032557D02*
X005956Y032557D01*
X005873Y032458D02*
X006417Y032458D01*
X006417Y032360D02*
X005790Y032360D01*
X005708Y032261D02*
X006420Y032261D01*
X006461Y032163D02*
X005625Y032163D01*
X005543Y032064D02*
X006502Y032064D01*
X006541Y031969D02*
X006541Y031969D01*
X006545Y031966D02*
X005460Y031966D01*
X005378Y031867D02*
X006643Y031867D01*
X006742Y031769D02*
X005295Y031769D01*
X005212Y031670D02*
X006937Y031670D01*
X005768Y028715D02*
X005414Y028715D01*
X005414Y028617D02*
X005699Y028617D01*
X005591Y028518D02*
X005404Y028518D01*
X005415Y028420D02*
X005364Y028420D01*
X001681Y024874D02*
X001635Y024874D01*
X004213Y024184D02*
X004368Y024184D01*
X004343Y024086D02*
X004200Y024086D01*
X004187Y023987D02*
X004318Y023987D01*
X004294Y023889D02*
X004174Y023889D01*
X004161Y023790D02*
X004269Y023790D01*
X004244Y023692D02*
X004148Y023692D01*
X004135Y023593D02*
X004220Y023593D01*
X004195Y023495D02*
X004122Y023495D01*
X004109Y023396D02*
X004170Y023396D01*
X004146Y023298D02*
X004096Y023298D01*
X013720Y036595D02*
X014958Y036595D01*
X014809Y036694D02*
X014233Y036694D01*
X014375Y037088D02*
X011616Y037088D01*
X011771Y037186D02*
X014669Y037186D01*
X014710Y037285D02*
X011927Y037285D01*
X012083Y037383D02*
X014777Y037383D01*
X014881Y037482D02*
X012239Y037482D01*
X012394Y037580D02*
X015968Y037580D01*
X015934Y037482D02*
X015430Y037482D01*
X015534Y037383D02*
X015934Y037383D01*
X015946Y037285D02*
X015601Y037285D01*
X015642Y037186D02*
X015987Y037186D01*
X016061Y037088D02*
X015656Y037088D01*
X015656Y036989D02*
X016198Y036989D01*
X016016Y037679D02*
X012869Y037679D01*
X013412Y037777D02*
X016115Y037777D01*
X016124Y038270D02*
X019384Y038270D01*
X019343Y038171D02*
X015582Y038171D01*
X015039Y038073D02*
X019335Y038073D01*
X019444Y038368D02*
X016666Y038368D01*
X017209Y038467D02*
X019543Y038467D01*
X019655Y038565D02*
X017751Y038565D01*
X018294Y038664D02*
X019655Y038664D01*
X019655Y038762D02*
X018836Y038762D01*
X019379Y038861D02*
X019655Y038861D01*
X019459Y037383D02*
X019149Y037383D01*
X018352Y037186D02*
X017631Y037186D01*
X017734Y037285D02*
X017894Y037285D01*
X017126Y037186D02*
X016801Y037186D01*
X016842Y037285D02*
X017023Y037285D01*
X016962Y037383D02*
X016854Y037383D01*
X016854Y037482D02*
X016921Y037482D01*
X016919Y037580D02*
X016819Y037580D01*
X016771Y037679D02*
X016922Y037679D01*
X016963Y037777D02*
X016673Y037777D01*
X017024Y037876D02*
X013954Y037876D01*
X014497Y037974D02*
X017130Y037974D01*
X015353Y036595D02*
X019631Y036595D01*
X013863Y036989D02*
X011460Y036989D01*
X026838Y036595D02*
X028425Y036595D01*
X028595Y036497D02*
X026915Y036497D01*
X026956Y036398D02*
X028765Y036398D01*
X028936Y036300D02*
X026976Y036300D01*
X026976Y036201D02*
X029106Y036201D01*
X029276Y036103D02*
X026955Y036103D01*
X028301Y035709D02*
X028759Y035709D01*
X028536Y035610D02*
X028468Y035610D01*
X029260Y033640D02*
X032806Y033640D01*
X032888Y033542D02*
X029363Y033542D01*
X029467Y033443D02*
X032971Y033443D01*
X033053Y033345D02*
X029570Y033345D01*
X031706Y034330D02*
X032227Y034330D01*
X032145Y034428D02*
X031749Y034428D01*
X031760Y034527D02*
X032002Y034527D01*
X031832Y034625D02*
X031743Y034625D01*
X032514Y029700D02*
X032874Y029700D01*
X032977Y029602D02*
X032587Y029602D01*
X032660Y029503D02*
X033080Y029503D01*
X033184Y029405D02*
X032733Y029405D01*
X032806Y029306D02*
X033287Y029306D01*
X033391Y029208D02*
X032879Y029208D01*
X032952Y029109D02*
X033494Y029109D01*
X033597Y029011D02*
X033025Y029011D01*
X033099Y028912D02*
X033701Y028912D01*
X033804Y028814D02*
X033172Y028814D01*
X033205Y028769D02*
X033205Y028769D01*
X033237Y028715D02*
X033907Y028715D01*
X034105Y028617D02*
X033296Y028617D01*
X033355Y028518D02*
X034266Y028518D01*
X034307Y028420D02*
X033414Y028420D01*
X033473Y028321D02*
X034368Y028321D01*
X034467Y028223D02*
X033532Y028223D01*
X033591Y028124D02*
X034749Y028124D01*
X034784Y028026D02*
X033650Y028026D01*
X033709Y027927D02*
X034819Y027927D01*
X034854Y027829D02*
X033768Y027829D01*
X033827Y027730D02*
X034889Y027730D01*
X034924Y027632D02*
X033886Y027632D01*
X033945Y027533D02*
X034959Y027533D01*
X034994Y027435D02*
X034005Y027435D01*
X034016Y027415D02*
X034016Y027415D01*
X034054Y027336D02*
X035029Y027336D01*
X035064Y027238D02*
X034100Y027238D01*
X034147Y027139D02*
X035099Y027139D01*
X035134Y027041D02*
X034193Y027041D01*
X034240Y026942D02*
X035169Y026942D01*
X035204Y026844D02*
X034287Y026844D01*
X034333Y026745D02*
X035239Y026745D01*
X035274Y026647D02*
X034380Y026647D01*
X034426Y026548D02*
X035309Y026548D01*
X035344Y026450D02*
X034473Y026450D01*
X034519Y026351D02*
X035379Y026351D01*
X035414Y026253D02*
X034566Y026253D01*
X034613Y026154D02*
X035449Y026154D01*
X035484Y026056D02*
X034659Y026056D01*
X034691Y025989D02*
X034691Y025989D01*
X034702Y025957D02*
X035519Y025957D01*
X035554Y025859D02*
X034737Y025859D01*
X034773Y025760D02*
X035589Y025760D01*
X035625Y025662D02*
X034808Y025662D01*
X034843Y025563D02*
X035660Y025563D01*
X035695Y025465D02*
X034878Y025465D01*
X034914Y025366D02*
X035730Y025366D01*
X035765Y025268D02*
X034949Y025268D01*
X034984Y025169D02*
X035800Y025169D01*
X035835Y025071D02*
X035019Y025071D01*
X035055Y024972D02*
X035870Y024972D01*
X035905Y024874D02*
X035090Y024874D01*
X035125Y024775D02*
X035940Y024775D01*
X035975Y024677D02*
X035160Y024677D01*
X035196Y024578D02*
X036010Y024578D01*
X036045Y024480D02*
X035228Y024480D01*
X035223Y024503D02*
X035223Y024503D01*
X035253Y024381D02*
X036080Y024381D01*
X036115Y024283D02*
X035278Y024283D01*
X035302Y024184D02*
X036150Y024184D01*
X036185Y024086D02*
X035327Y024086D01*
X035352Y023987D02*
X036220Y023987D01*
X036255Y023889D02*
X035376Y023889D01*
X035401Y023790D02*
X036290Y023790D01*
X036325Y023692D02*
X035426Y023692D01*
X035450Y023593D02*
X036360Y023593D01*
X036395Y023495D02*
X035475Y023495D01*
X035500Y023396D02*
X036430Y023396D01*
X036465Y023298D02*
X035524Y023298D01*
X035549Y023199D02*
X036500Y023199D01*
X036535Y023101D02*
X035574Y023101D01*
X035598Y023002D02*
X036570Y023002D01*
X036605Y022904D02*
X035616Y022904D01*
X035631Y022805D02*
X036640Y022805D01*
X036675Y022707D02*
X035645Y022707D01*
X035660Y022608D02*
X036710Y022608D01*
X036745Y022510D02*
X035675Y022510D01*
X035689Y022411D02*
X036780Y022411D01*
X036815Y022313D02*
X035704Y022313D01*
X035718Y022214D02*
X036850Y022214D01*
X036885Y022116D02*
X035733Y022116D01*
X035748Y022017D02*
X036921Y022017D01*
X036956Y021919D02*
X035762Y021919D01*
X035777Y021820D02*
X036991Y021820D01*
X037026Y021722D02*
X035791Y021722D01*
X035806Y021623D02*
X037061Y021623D01*
X037096Y021525D02*
X035821Y021525D01*
X035835Y021426D02*
X037131Y021426D01*
X037166Y021328D02*
X035842Y021328D01*
X035837Y021411D02*
X035837Y021411D01*
X035846Y021229D02*
X037201Y021229D01*
X037120Y021131D02*
X035851Y021131D01*
X035866Y020835D02*
X037032Y020835D01*
X037032Y020737D02*
X035871Y020737D01*
X035875Y020638D02*
X037072Y020638D01*
X037078Y020540D02*
X035880Y020540D01*
X035885Y020441D02*
X037002Y020441D01*
X036927Y020343D02*
X035890Y020343D01*
X035895Y020244D02*
X036851Y020244D01*
X036775Y020146D02*
X035900Y020146D01*
X035905Y020047D02*
X036700Y020047D01*
X036624Y019949D02*
X035909Y019949D01*
X035914Y019850D02*
X036548Y019850D01*
X036473Y019752D02*
X035911Y019752D01*
X035915Y019835D02*
X035915Y019835D01*
X035906Y019653D02*
X036397Y019653D01*
X036378Y019555D02*
X035901Y019555D01*
X035896Y019456D02*
X036357Y019456D01*
X036336Y019358D02*
X035891Y019358D01*
X035887Y019259D02*
X036316Y019259D01*
X036295Y019161D02*
X035882Y019161D01*
X035877Y019062D02*
X036274Y019062D01*
X036253Y018964D02*
X035872Y018964D01*
X035867Y018865D02*
X036232Y018865D01*
X036211Y018767D02*
X035862Y018767D01*
X035858Y018668D02*
X036190Y018668D01*
X036169Y018570D02*
X035853Y018570D01*
X035848Y018471D02*
X036149Y018471D01*
X036128Y018373D02*
X035843Y018373D01*
X035838Y018274D02*
X036107Y018274D01*
X036086Y018176D02*
X035825Y018176D01*
X035811Y018077D02*
X036065Y018077D01*
X036044Y017979D02*
X035796Y017979D01*
X035781Y017880D02*
X036023Y017880D01*
X036003Y017782D02*
X035767Y017782D01*
X035752Y017683D02*
X035982Y017683D01*
X035961Y017585D02*
X035737Y017585D01*
X035723Y017486D02*
X035940Y017486D01*
X035919Y017388D02*
X035708Y017388D01*
X035694Y017289D02*
X035898Y017289D01*
X035877Y017191D02*
X035679Y017191D01*
X035664Y017092D02*
X035856Y017092D01*
X035836Y016994D02*
X035650Y016994D01*
X035635Y016895D02*
X035815Y016895D01*
X035794Y016797D02*
X035621Y016797D01*
X035606Y016698D02*
X035773Y016698D01*
X035752Y016600D02*
X035581Y016600D01*
X035557Y016501D02*
X035731Y016501D01*
X035710Y016403D02*
X035532Y016403D01*
X035507Y016304D02*
X035690Y016304D01*
X035669Y016206D02*
X035483Y016206D01*
X035458Y016107D02*
X035648Y016107D01*
X035627Y016009D02*
X035433Y016009D01*
X035409Y015910D02*
X035606Y015910D01*
X035585Y015812D02*
X035384Y015812D01*
X035359Y015713D02*
X035564Y015713D01*
X035544Y015615D02*
X035335Y015615D01*
X035310Y015516D02*
X035523Y015516D01*
X035502Y015418D02*
X035285Y015418D01*
X035261Y015319D02*
X035481Y015319D01*
X035460Y015221D02*
X035236Y015221D01*
X035206Y015122D02*
X035439Y015122D01*
X035418Y015024D02*
X035171Y015024D01*
X035136Y014925D02*
X035397Y014925D01*
X035377Y014827D02*
X035101Y014827D01*
X035065Y014728D02*
X035356Y014728D01*
X035335Y014630D02*
X035030Y014630D01*
X034995Y014531D02*
X035314Y014531D01*
X035293Y014433D02*
X034960Y014433D01*
X034924Y014334D02*
X035272Y014334D01*
X035251Y014236D02*
X034889Y014236D01*
X034854Y014137D02*
X035231Y014137D01*
X035210Y014039D02*
X034819Y014039D01*
X034783Y013940D02*
X035189Y013940D01*
X035168Y013842D02*
X034748Y013842D01*
X034713Y013743D02*
X035147Y013743D01*
X035126Y013645D02*
X034673Y013645D01*
X034627Y013546D02*
X035105Y013546D01*
X035084Y013448D02*
X034580Y013448D01*
X034534Y013349D02*
X035064Y013349D01*
X035043Y013251D02*
X034487Y013251D01*
X034440Y013152D02*
X035022Y013152D01*
X035001Y013054D02*
X034394Y013054D01*
X034347Y012955D02*
X034980Y012955D01*
X034959Y012857D02*
X034301Y012857D01*
X034254Y012758D02*
X034938Y012758D01*
X034918Y012660D02*
X034208Y012660D01*
X034161Y012561D02*
X034897Y012561D01*
X034876Y012463D02*
X034114Y012463D01*
X034068Y012364D02*
X034855Y012364D01*
X034834Y012266D02*
X034021Y012266D01*
X033963Y012167D02*
X034813Y012167D01*
X034792Y012069D02*
X033904Y012069D01*
X033845Y011970D02*
X034772Y011970D01*
X034751Y011872D02*
X033786Y011872D01*
X033727Y011773D02*
X034730Y011773D01*
X034709Y011675D02*
X033668Y011675D01*
X033609Y011576D02*
X034688Y011576D01*
X034530Y011478D02*
X033550Y011478D01*
X032536Y010000D02*
X036134Y010000D01*
X036052Y009902D02*
X032463Y009902D01*
X032390Y009803D02*
X035969Y009803D01*
X035887Y009705D02*
X032317Y009705D01*
X032240Y009606D02*
X035804Y009606D01*
X035721Y009508D02*
X032150Y009508D01*
X032061Y009409D02*
X035639Y009409D01*
X035556Y009311D02*
X031972Y009311D01*
X031882Y009212D02*
X035474Y009212D01*
X035391Y009114D02*
X031793Y009114D01*
X031704Y009015D02*
X035308Y009015D01*
X035226Y008917D02*
X031615Y008917D01*
X031525Y008818D02*
X035143Y008818D01*
X035061Y008720D02*
X031436Y008720D01*
X031347Y008621D02*
X034978Y008621D01*
X034895Y008523D02*
X031258Y008523D01*
X031205Y008465D02*
X031205Y008465D01*
X031160Y008424D02*
X034813Y008424D01*
X034730Y008326D02*
X031052Y008326D01*
X030943Y008227D02*
X034648Y008227D01*
X034565Y008129D02*
X030834Y008129D01*
X030725Y008030D02*
X032206Y008030D01*
X032270Y008057D02*
X031969Y007932D01*
X031738Y007701D01*
X031613Y007400D01*
X031613Y007074D01*
X031738Y006772D01*
X031969Y006541D01*
X032270Y006417D01*
X032396Y006417D01*
X032597Y006417D01*
X032898Y006541D01*
X033129Y006772D01*
X033253Y007074D01*
X033253Y007400D01*
X033129Y007701D01*
X032898Y007932D01*
X032597Y008057D01*
X032270Y008057D01*
X031969Y007932D02*
X031969Y007932D01*
X030617Y007932D01*
X030508Y007833D02*
X031870Y007833D01*
X031772Y007735D02*
X030399Y007735D01*
X030291Y007636D02*
X031711Y007636D01*
X031738Y007701D02*
X031738Y007701D01*
X031671Y007538D02*
X030182Y007538D01*
X030073Y007439D02*
X031630Y007439D01*
X031613Y007341D02*
X029949Y007341D01*
X029816Y007242D02*
X031613Y007242D01*
X031613Y007144D02*
X029683Y007144D01*
X029550Y007045D02*
X031625Y007045D01*
X031666Y006947D02*
X029418Y006947D01*
X029285Y006848D02*
X031707Y006848D01*
X031738Y006772D02*
X031738Y006772D01*
X031761Y006750D02*
X029152Y006750D01*
X029019Y006651D02*
X031859Y006651D01*
X031958Y006553D02*
X028886Y006553D01*
X028750Y006454D02*
X032180Y006454D01*
X031969Y006541D02*
X031969Y006541D01*
X032687Y006454D02*
X033161Y006454D01*
X033079Y006356D02*
X028586Y006356D01*
X028421Y006257D02*
X032996Y006257D01*
X032913Y006159D02*
X028257Y006159D01*
X028093Y006060D02*
X032831Y006060D01*
X032748Y005962D02*
X027928Y005962D01*
X027764Y005863D02*
X032666Y005863D01*
X032583Y005765D02*
X031037Y005765D01*
X031098Y005739D02*
X030915Y005815D01*
X030716Y005815D01*
X030532Y005739D01*
X030391Y005599D01*
X030315Y005415D01*
X030315Y005216D01*
X030391Y005032D01*
X030532Y004891D01*
X030716Y004815D01*
X030915Y004815D01*
X031098Y004891D01*
X031239Y005032D01*
X031315Y005216D01*
X031315Y005415D01*
X031239Y005599D01*
X031098Y005739D01*
X031172Y005666D02*
X032500Y005666D01*
X032418Y005568D02*
X031252Y005568D01*
X031293Y005469D02*
X032335Y005469D01*
X032253Y005371D02*
X031315Y005371D01*
X031315Y005272D02*
X032170Y005272D01*
X032054Y005174D02*
X031298Y005174D01*
X031257Y005075D02*
X031884Y005075D01*
X031713Y004977D02*
X031183Y004977D01*
X031066Y004878D02*
X031543Y004878D01*
X031372Y004780D02*
X025431Y004780D01*
X025706Y004878D02*
X030564Y004878D01*
X030447Y004977D02*
X025981Y004977D01*
X025989Y004979D02*
X025989Y004979D01*
X026191Y005075D02*
X030373Y005075D01*
X030333Y005174D02*
X026399Y005174D01*
X026608Y005272D02*
X030315Y005272D01*
X030315Y005371D02*
X026816Y005371D01*
X027024Y005469D02*
X030338Y005469D01*
X030378Y005568D02*
X027233Y005568D01*
X027435Y005666D02*
X030459Y005666D01*
X030593Y005765D02*
X027600Y005765D01*
X024963Y002908D02*
X020253Y002908D01*
X019703Y003105D02*
X018822Y003105D01*
X019156Y003007D02*
X019516Y003007D01*
X019835Y003755D02*
X019835Y003755D01*
X020157Y001234D02*
X022674Y001234D01*
X023005Y001923D02*
X023237Y001923D01*
X023309Y001923D02*
X023372Y001923D01*
X023398Y001825D02*
X023336Y001825D01*
X023362Y001726D02*
X023424Y001726D01*
X023451Y001628D02*
X023389Y001628D01*
X023415Y001529D02*
X023477Y001529D01*
X023590Y001529D02*
X024329Y001529D01*
X023345Y002022D02*
X023283Y002022D01*
X023257Y002120D02*
X023319Y002120D01*
X023292Y002219D02*
X023230Y002219D01*
X023204Y002317D02*
X023266Y002317D01*
X023240Y002416D02*
X023177Y002416D01*
X022122Y001135D02*
X020015Y001135D01*
X020015Y001037D02*
X021571Y001037D01*
X021019Y000938D02*
X020015Y000938D01*
X020015Y000840D02*
X020468Y000840D01*
X017188Y003992D02*
X015817Y003992D01*
X015808Y004287D02*
X014815Y004287D01*
X014481Y004386D02*
X015415Y004386D01*
X015483Y004090D02*
X016595Y004090D01*
X016698Y004064D02*
X016698Y004064D01*
X014570Y002908D02*
X014420Y002908D01*
X014094Y003105D02*
X013944Y003105D01*
X032898Y006541D02*
X032898Y006541D01*
X032909Y006553D02*
X033244Y006553D01*
X033326Y006651D02*
X033008Y006651D01*
X033106Y006750D02*
X033409Y006750D01*
X033491Y006848D02*
X033160Y006848D01*
X033201Y006947D02*
X033574Y006947D01*
X033657Y007045D02*
X033242Y007045D01*
X033253Y007144D02*
X033739Y007144D01*
X033822Y007242D02*
X033253Y007242D01*
X033253Y007341D02*
X033904Y007341D01*
X033987Y007439D02*
X033237Y007439D01*
X033196Y007538D02*
X034070Y007538D01*
X034152Y007636D02*
X033156Y007636D01*
X033129Y007701D02*
X033129Y007701D01*
X033095Y007735D02*
X034235Y007735D01*
X034317Y007833D02*
X032997Y007833D01*
X032898Y007932D02*
X034400Y007932D01*
X034483Y008030D02*
X032661Y008030D01*
X032898Y007932D02*
X032898Y007932D01*
X032898Y007932D01*
X035622Y010530D02*
X035760Y010780D01*
X036496Y013007D01*
X036528Y010189D02*
X038851Y016489D01*
X038851Y023181D01*
X036541Y029446D01*
X036192Y029602D02*
X035815Y029602D01*
X035967Y029503D02*
X036142Y029503D01*
X035278Y029503D02*
X033602Y029503D01*
X033706Y029405D02*
X035191Y029405D01*
X035150Y029306D02*
X033809Y029306D01*
X033912Y029208D02*
X035122Y029208D01*
X035122Y029109D02*
X034931Y029109D01*
X035093Y029011D02*
X035135Y029011D01*
X034582Y029109D02*
X034016Y029109D01*
X034119Y029011D02*
X034420Y029011D01*
X037532Y019835D02*
X038221Y019126D01*
X038221Y017493D01*
X037675Y016946D01*
X037190Y016946D01*
X036217Y010099D02*
X035887Y010099D01*
D18*
X031430Y034520D03*
X008181Y034500D03*
X001351Y020209D03*
X002689Y016430D03*
X003181Y014579D03*
M02*
