G75*
%MOIN*%
%OFA0B0*%
%FSLAX24Y24*%
%IPPOS*%
%LPD*%
%AMOC8*
5,1,8,0,0,1.08239X$1,22.5*
%
%ADD10C,0.0050*%
%ADD11C,0.0080*%
%ADD12C,0.0100*%
%ADD13C,0.0060*%
%ADD14R,0.0539X0.0001*%
%ADD15R,0.0550X0.0001*%
%ADD16R,0.0556X0.0001*%
%ADD17R,0.0555X0.0001*%
%ADD18R,0.0561X0.0001*%
%ADD19R,0.0560X0.0001*%
%ADD20R,0.0564X0.0001*%
%ADD21R,0.0564X0.0001*%
%ADD22R,0.0568X0.0001*%
%ADD23R,0.0567X0.0001*%
%ADD24R,0.0570X0.0001*%
%ADD25R,0.0574X0.0001*%
%ADD26R,0.0576X0.0001*%
%ADD27R,0.0576X0.0001*%
%ADD28R,0.0578X0.0001*%
%ADD29R,0.0581X0.0001*%
%ADD30R,0.0580X0.0001*%
%ADD31R,0.0583X0.0001*%
%ADD32R,0.0582X0.0001*%
%ADD33R,0.0585X0.0001*%
%ADD34R,0.0586X0.0001*%
%ADD35R,0.0588X0.0001*%
%ADD36R,0.0590X0.0001*%
%ADD37R,0.0591X0.0001*%
%ADD38R,0.0593X0.0001*%
%ADD39R,0.0594X0.0001*%
%ADD40R,0.0596X0.0001*%
%ADD41R,0.0595X0.0001*%
%ADD42R,0.0597X0.0001*%
%ADD43R,0.0598X0.0001*%
%ADD44R,0.0598X0.0001*%
%ADD45R,0.0599X0.0001*%
%ADD46R,0.0601X0.0001*%
%ADD47R,0.0600X0.0001*%
%ADD48R,0.0601X0.0001*%
%ADD49R,0.0602X0.0001*%
%ADD50R,0.0602X0.0001*%
%ADD51R,0.0603X0.0001*%
%ADD52R,0.0604X0.0001*%
%ADD53R,0.0604X0.0001*%
%ADD54R,0.0605X0.0001*%
%ADD55R,0.0606X0.0001*%
%ADD56R,0.0606X0.0001*%
%ADD57R,0.0607X0.0001*%
%ADD58R,0.0607X0.0001*%
%ADD59R,0.0609X0.0001*%
%ADD60R,0.0608X0.0001*%
%ADD61R,0.0609X0.0001*%
%ADD62R,0.0610X0.0001*%
%ADD63R,0.0610X0.0001*%
%ADD64R,0.0610X0.0001*%
%ADD65R,0.0611X0.0001*%
%ADD66R,0.0611X0.0001*%
%ADD67R,0.0611X0.0001*%
%ADD68R,0.0612X0.0001*%
%ADD69R,0.0612X0.0001*%
%ADD70R,0.0613X0.0001*%
%ADD71R,0.0613X0.0001*%
%ADD72R,0.0611X0.0001*%
%ADD73R,0.0606X0.0001*%
%ADD74R,0.0610X0.0001*%
%ADD75R,0.0604X0.0001*%
%ADD76R,0.0603X0.0001*%
%ADD77R,0.0608X0.0001*%
%ADD78R,0.0602X0.0001*%
%ADD79R,0.0599X0.0001*%
%ADD80R,0.0606X0.0001*%
%ADD81R,0.0598X0.0001*%
%ADD82R,0.0604X0.0001*%
%ADD83R,0.0596X0.0001*%
%ADD84R,0.0594X0.0001*%
%ADD85R,0.0602X0.0001*%
%ADD86R,0.0594X0.0001*%
%ADD87R,0.0592X0.0001*%
%ADD88R,0.0600X0.0001*%
%ADD89R,0.0590X0.0001*%
%ADD90R,0.0589X0.0001*%
%ADD91R,0.0598X0.0001*%
%ADD92R,0.0587X0.0001*%
%ADD93R,0.0586X0.0001*%
%ADD94R,0.0595X0.0001*%
%ADD95R,0.0582X0.0001*%
%ADD96R,0.0579X0.0001*%
%ADD97R,0.0591X0.0001*%
%ADD98R,0.0577X0.0001*%
%ADD99R,0.0590X0.0001*%
%ADD100R,0.0574X0.0001*%
%ADD101R,0.0571X0.0001*%
%ADD102R,0.0569X0.0001*%
%ADD103R,0.0584X0.0001*%
%ADD104R,0.0566X0.0001*%
%ADD105R,0.0562X0.0001*%
%ADD106R,0.0581X0.0001*%
%ADD107R,0.0557X0.0001*%
%ADD108R,0.0552X0.0001*%
%ADD109R,0.0576X0.0001*%
%ADD110R,0.0544X0.0001*%
%ADD111R,0.0413X0.0001*%
%ADD112R,0.0570X0.0001*%
%ADD113R,0.0412X0.0001*%
%ADD114R,0.0412X0.0001*%
%ADD115R,0.0564X0.0001*%
%ADD116R,0.0555X0.0001*%
%ADD117R,0.0411X0.0001*%
%ADD118R,0.0411X0.0001*%
%ADD119R,0.0540X0.0001*%
%ADD120R,0.0383X0.0001*%
%ADD121R,0.0410X0.0001*%
%ADD122R,0.0410X0.0001*%
%ADD123R,0.0383X0.0001*%
%ADD124R,0.0382X0.0001*%
%ADD125R,0.0410X0.0001*%
%ADD126R,0.0409X0.0001*%
%ADD127R,0.0382X0.0001*%
%ADD128R,0.0409X0.0001*%
%ADD129R,0.0382X0.0001*%
%ADD130R,0.0408X0.0001*%
%ADD131R,0.0408X0.0001*%
%ADD132R,0.0381X0.0001*%
%ADD133R,0.0381X0.0001*%
%ADD134R,0.0407X0.0001*%
%ADD135R,0.0407X0.0001*%
%ADD136R,0.0380X0.0001*%
%ADD137R,0.0380X0.0001*%
%ADD138R,0.0406X0.0001*%
%ADD139R,0.0406X0.0001*%
%ADD140R,0.0379X0.0001*%
%ADD141R,0.0406X0.0001*%
%ADD142R,0.0406X0.0001*%
%ADD143R,0.0379X0.0001*%
%ADD144R,0.0405X0.0001*%
%ADD145R,0.0378X0.0001*%
%ADD146R,0.0404X0.0001*%
%ADD147R,0.0378X0.0001*%
%ADD148R,0.0404X0.0001*%
%ADD149R,0.0378X0.0001*%
%ADD150R,0.0403X0.0001*%
%ADD151R,0.0403X0.0001*%
%ADD152R,0.0377X0.0001*%
%ADD153R,0.0377X0.0001*%
%ADD154R,0.0402X0.0001*%
%ADD155R,0.0402X0.0001*%
%ADD156R,0.0376X0.0001*%
%ADD157R,0.0376X0.0001*%
%ADD158R,0.0402X0.0001*%
%ADD159R,0.0402X0.0001*%
%ADD160R,0.0375X0.0001*%
%ADD161R,0.0401X0.0001*%
%ADD162R,0.0375X0.0001*%
%ADD163R,0.0400X0.0001*%
%ADD164R,0.0400X0.0001*%
%ADD165R,0.0374X0.0001*%
%ADD166R,0.0399X0.0001*%
%ADD167R,0.0374X0.0001*%
%ADD168R,0.0399X0.0001*%
%ADD169R,0.0374X0.0001*%
%ADD170R,0.0398X0.0001*%
%ADD171R,0.0398X0.0001*%
%ADD172R,0.0374X0.0001*%
%ADD173R,0.0373X0.0001*%
%ADD174R,0.0398X0.0001*%
%ADD175R,0.0398X0.0001*%
%ADD176R,0.0372X0.0001*%
%ADD177R,0.0397X0.0001*%
%ADD178R,0.0372X0.0001*%
%ADD179R,0.0396X0.0001*%
%ADD180R,0.0371X0.0001*%
%ADD181R,0.0396X0.0001*%
%ADD182R,0.0371X0.0001*%
%ADD183R,0.0395X0.0001*%
%ADD184R,0.0370X0.0001*%
%ADD185R,0.0395X0.0001*%
%ADD186R,0.0370X0.0001*%
%ADD187R,0.0394X0.0001*%
%ADD188R,0.0394X0.0001*%
%ADD189R,0.0370X0.0001*%
%ADD190R,0.0394X0.0001*%
%ADD191R,0.0394X0.0001*%
%ADD192R,0.0370X0.0001*%
%ADD193R,0.0369X0.0001*%
%ADD194R,0.0393X0.0001*%
%ADD195R,0.0393X0.0001*%
%ADD196R,0.0369X0.0001*%
%ADD197R,0.0392X0.0001*%
%ADD198R,0.0368X0.0001*%
%ADD199R,0.0391X0.0001*%
%ADD200R,0.0367X0.0001*%
%ADD201R,0.0391X0.0001*%
%ADD202R,0.0367X0.0001*%
%ADD203R,0.0390X0.0001*%
%ADD204R,0.0390X0.0001*%
%ADD205R,0.0366X0.0001*%
%ADD206R,0.0366X0.0001*%
%ADD207R,0.0390X0.0001*%
%ADD208R,0.0390X0.0001*%
%ADD209R,0.0366X0.0001*%
%ADD210R,0.0366X0.0001*%
%ADD211R,0.0389X0.0001*%
%ADD212R,0.0389X0.0001*%
%ADD213R,0.0388X0.0001*%
%ADD214R,0.0365X0.0001*%
%ADD215R,0.0388X0.0001*%
%ADD216R,0.0365X0.0001*%
%ADD217R,0.0387X0.0001*%
%ADD218R,0.0364X0.0001*%
%ADD219R,0.0386X0.0001*%
%ADD220R,0.0364X0.0001*%
%ADD221R,0.0386X0.0001*%
%ADD222R,0.0363X0.0001*%
%ADD223R,0.0386X0.0001*%
%ADD224R,0.0386X0.0001*%
%ADD225R,0.0362X0.0001*%
%ADD226R,0.0362X0.0001*%
%ADD227R,0.0385X0.0001*%
%ADD228R,0.0385X0.0001*%
%ADD229R,0.0362X0.0001*%
%ADD230R,0.0384X0.0001*%
%ADD231R,0.0362X0.0001*%
%ADD232R,0.0384X0.0001*%
%ADD233R,0.0361X0.0001*%
%ADD234R,0.0361X0.0001*%
%ADD235R,0.0382X0.0001*%
%ADD236R,0.0360X0.0001*%
%ADD237R,0.0360X0.0001*%
%ADD238R,0.0359X0.0001*%
%ADD239R,0.0359X0.0001*%
%ADD240R,0.0358X0.0001*%
%ADD241R,0.0358X0.0001*%
%ADD242R,0.0379X0.0001*%
%ADD243R,0.0358X0.0001*%
%ADD244R,0.0357X0.0001*%
%ADD245R,0.0357X0.0001*%
%ADD246R,0.0378X0.0001*%
%ADD247R,0.0356X0.0001*%
%ADD248R,0.0356X0.0001*%
%ADD249R,0.0355X0.0001*%
%ADD250R,0.0376X0.0001*%
%ADD251R,0.0376X0.0001*%
%ADD252R,0.0355X0.0001*%
%ADD253R,0.0354X0.0001*%
%ADD254R,0.0354X0.0001*%
%ADD255R,0.0354X0.0001*%
%ADD256R,0.0353X0.0001*%
%ADD257R,0.0353X0.0001*%
%ADD258R,0.0373X0.0001*%
%ADD259R,0.0373X0.0001*%
%ADD260R,0.0352X0.0001*%
%ADD261R,0.0352X0.0001*%
%ADD262R,0.0351X0.0001*%
%ADD263R,0.0351X0.0001*%
%ADD264R,0.0350X0.0001*%
%ADD265R,0.0350X0.0001*%
%ADD266R,0.0370X0.0001*%
%ADD267R,0.0350X0.0001*%
%ADD268R,0.0350X0.0001*%
%ADD269R,0.0349X0.0001*%
%ADD270R,0.0368X0.0001*%
%ADD271R,0.0348X0.0001*%
%ADD272R,0.0348X0.0001*%
%ADD273R,0.0347X0.0001*%
%ADD274R,0.0347X0.0001*%
%ADD275R,0.0346X0.0001*%
%ADD276R,0.0346X0.0001*%
%ADD277R,0.0346X0.0001*%
%ADD278R,0.0346X0.0001*%
%ADD279R,0.0345X0.0001*%
%ADD280R,0.0363X0.0001*%
%ADD281R,0.0345X0.0001*%
%ADD282R,0.0344X0.0001*%
%ADD283R,0.0343X0.0001*%
%ADD284R,0.0343X0.0001*%
%ADD285R,0.0342X0.0001*%
%ADD286R,0.0342X0.0001*%
%ADD287R,0.0342X0.0001*%
%ADD288R,0.0342X0.0001*%
%ADD289R,0.0359X0.0001*%
%ADD290R,0.0359X0.0001*%
%ADD291R,0.0341X0.0001*%
%ADD292R,0.0358X0.0001*%
%ADD293R,0.0341X0.0001*%
%ADD294R,0.0340X0.0001*%
%ADD295R,0.0340X0.0001*%
%ADD296R,0.0339X0.0001*%
%ADD297R,0.0356X0.0001*%
%ADD298R,0.0338X0.0001*%
%ADD299R,0.0356X0.0001*%
%ADD300R,0.0338X0.0001*%
%ADD301R,0.0338X0.0001*%
%ADD302R,0.0338X0.0001*%
%ADD303R,0.0337X0.0001*%
%ADD304R,0.0337X0.0001*%
%ADD305R,0.0354X0.0001*%
%ADD306R,0.0353X0.0001*%
%ADD307R,0.0336X0.0001*%
%ADD308R,0.0353X0.0001*%
%ADD309R,0.0336X0.0001*%
%ADD310R,0.0335X0.0001*%
%ADD311R,0.0335X0.0001*%
%ADD312R,0.0334X0.0001*%
%ADD313R,0.0334X0.0001*%
%ADD314R,0.0334X0.0001*%
%ADD315R,0.0350X0.0001*%
%ADD316R,0.0350X0.0001*%
%ADD317R,0.0333X0.0001*%
%ADD318R,0.0333X0.0001*%
%ADD319R,0.0349X0.0001*%
%ADD320R,0.0332X0.0001*%
%ADD321R,0.0332X0.0001*%
%ADD322R,0.0331X0.0001*%
%ADD323R,0.0331X0.0001*%
%ADD324R,0.0330X0.0001*%
%ADD325R,0.0330X0.0001*%
%ADD326R,0.0330X0.0001*%
%ADD327R,0.0329X0.0001*%
%ADD328R,0.0329X0.0001*%
%ADD329R,0.0328X0.0001*%
%ADD330R,0.0328X0.0001*%
%ADD331R,0.0327X0.0001*%
%ADD332R,0.0327X0.0001*%
%ADD333R,0.0326X0.0001*%
%ADD334R,0.0326X0.0001*%
%ADD335R,0.0326X0.0001*%
%ADD336R,0.0326X0.0001*%
%ADD337R,0.0339X0.0001*%
%ADD338R,0.0325X0.0001*%
%ADD339R,0.0324X0.0001*%
%ADD340R,0.0324X0.0001*%
%ADD341R,0.0323X0.0001*%
%ADD342R,0.0323X0.0001*%
%ADD343R,0.0322X0.0001*%
%ADD344R,0.0322X0.0001*%
%ADD345R,0.0336X0.0001*%
%ADD346R,0.0336X0.0001*%
%ADD347R,0.0322X0.0001*%
%ADD348R,0.0334X0.0001*%
%ADD349R,0.0322X0.0001*%
%ADD350R,0.0321X0.0001*%
%ADD351R,0.0321X0.0001*%
%ADD352R,0.0320X0.0001*%
%ADD353R,0.0333X0.0001*%
%ADD354R,0.0333X0.0001*%
%ADD355R,0.0319X0.0001*%
%ADD356R,0.0319X0.0001*%
%ADD357R,0.0318X0.0001*%
%ADD358R,0.0318X0.0001*%
%ADD359R,0.0318X0.0001*%
%ADD360R,0.0318X0.0001*%
%ADD361R,0.0330X0.0001*%
%ADD362R,0.0330X0.0001*%
%ADD363R,0.0317X0.0001*%
%ADD364R,0.0317X0.0001*%
%ADD365R,0.0316X0.0001*%
%ADD366R,0.0316X0.0001*%
%ADD367R,0.0315X0.0001*%
%ADD368R,0.0314X0.0001*%
%ADD369R,0.0314X0.0001*%
%ADD370R,0.0314X0.0001*%
%ADD371R,0.0314X0.0001*%
%ADD372R,0.0325X0.0001*%
%ADD373R,0.0313X0.0001*%
%ADD374R,0.0313X0.0001*%
%ADD375R,0.0312X0.0001*%
%ADD376R,0.0312X0.0001*%
%ADD377R,0.0311X0.0001*%
%ADD378R,0.0311X0.0001*%
%ADD379R,0.0310X0.0001*%
%ADD380R,0.0310X0.0001*%
%ADD381R,0.0310X0.0001*%
%ADD382R,0.0320X0.0001*%
%ADD383R,0.0309X0.0001*%
%ADD384R,0.0309X0.0001*%
%ADD385R,0.0319X0.0001*%
%ADD386R,0.0319X0.0001*%
%ADD387R,0.0308X0.0001*%
%ADD388R,0.0308X0.0001*%
%ADD389R,0.0307X0.0001*%
%ADD390R,0.0307X0.0001*%
%ADD391R,0.0306X0.0001*%
%ADD392R,0.0316X0.0001*%
%ADD393R,0.0306X0.0001*%
%ADD394R,0.0316X0.0001*%
%ADD395R,0.0306X0.0001*%
%ADD396R,0.0315X0.0001*%
%ADD397R,0.0305X0.0001*%
%ADD398R,0.0305X0.0001*%
%ADD399R,0.0304X0.0001*%
%ADD400R,0.0304X0.0001*%
%ADD401R,0.0313X0.0001*%
%ADD402R,0.0303X0.0001*%
%ADD403R,0.0313X0.0001*%
%ADD404R,0.0303X0.0001*%
%ADD405R,0.0302X0.0001*%
%ADD406R,0.0302X0.0001*%
%ADD407R,0.0302X0.0001*%
%ADD408R,0.0310X0.0001*%
%ADD409R,0.0302X0.0001*%
%ADD410R,0.0301X0.0001*%
%ADD411R,0.0310X0.0001*%
%ADD412R,0.0300X0.0001*%
%ADD413R,0.0300X0.0001*%
%ADD414R,0.0299X0.0001*%
%ADD415R,0.0299X0.0001*%
%ADD416R,0.0298X0.0001*%
%ADD417R,0.0298X0.0001*%
%ADD418R,0.0298X0.0001*%
%ADD419R,0.0306X0.0001*%
%ADD420R,0.0298X0.0001*%
%ADD421R,0.0297X0.0001*%
%ADD422R,0.0297X0.0001*%
%ADD423R,0.0296X0.0001*%
%ADD424R,0.0295X0.0001*%
%ADD425R,0.0295X0.0001*%
%ADD426R,0.0294X0.0001*%
%ADD427R,0.0294X0.0001*%
%ADD428R,0.0294X0.0001*%
%ADD429R,0.0294X0.0001*%
%ADD430R,0.0301X0.0001*%
%ADD431R,0.0293X0.0001*%
%ADD432R,0.0299X0.0001*%
%ADD433R,0.0293X0.0001*%
%ADD434R,0.0299X0.0001*%
%ADD435R,0.0292X0.0001*%
%ADD436R,0.0292X0.0001*%
%ADD437R,0.0291X0.0001*%
%ADD438R,0.0290X0.0001*%
%ADD439R,0.0290X0.0001*%
%ADD440R,0.0290X0.0001*%
%ADD441R,0.0296X0.0001*%
%ADD442R,0.0290X0.0001*%
%ADD443R,0.0289X0.0001*%
%ADD444R,0.0289X0.0001*%
%ADD445R,0.0288X0.0001*%
%ADD446R,0.0288X0.0001*%
%ADD447R,0.0287X0.0001*%
%ADD448R,0.0293X0.0001*%
%ADD449R,0.0293X0.0001*%
%ADD450R,0.0287X0.0001*%
%ADD451R,0.0286X0.0001*%
%ADD452R,0.0291X0.0001*%
%ADD453R,0.0286X0.0001*%
%ADD454R,0.0286X0.0001*%
%ADD455R,0.0285X0.0001*%
%ADD456R,0.0285X0.0001*%
%ADD457R,0.0290X0.0001*%
%ADD458R,0.0290X0.0001*%
%ADD459R,0.0284X0.0001*%
%ADD460R,0.0284X0.0001*%
%ADD461R,0.0283X0.0001*%
%ADD462R,0.0283X0.0001*%
%ADD463R,0.0282X0.0001*%
%ADD464R,0.0286X0.0001*%
%ADD465R,0.0282X0.0001*%
%ADD466R,0.0282X0.0001*%
%ADD467R,0.0281X0.0001*%
%ADD468R,0.0281X0.0001*%
%ADD469R,0.0280X0.0001*%
%ADD470R,0.0280X0.0001*%
%ADD471R,0.0279X0.0001*%
%ADD472R,0.0279X0.0001*%
%ADD473R,0.0278X0.0001*%
%ADD474R,0.0282X0.0001*%
%ADD475R,0.0278X0.0001*%
%ADD476R,0.0278X0.0001*%
%ADD477R,0.0278X0.0001*%
%ADD478R,0.0277X0.0001*%
%ADD479R,0.0276X0.0001*%
%ADD480R,0.0279X0.0001*%
%ADD481R,0.0276X0.0001*%
%ADD482R,0.0275X0.0001*%
%ADD483R,0.0275X0.0001*%
%ADD484R,0.0274X0.0001*%
%ADD485R,0.0274X0.0001*%
%ADD486R,0.0277X0.0001*%
%ADD487R,0.0274X0.0001*%
%ADD488R,0.0276X0.0001*%
%ADD489R,0.0276X0.0001*%
%ADD490R,0.0274X0.0001*%
%ADD491R,0.0273X0.0001*%
%ADD492R,0.0273X0.0001*%
%ADD493R,0.0272X0.0001*%
%ADD494R,0.0271X0.0001*%
%ADD495R,0.0271X0.0001*%
%ADD496R,0.0273X0.0001*%
%ADD497R,0.0273X0.0001*%
%ADD498R,0.0270X0.0001*%
%ADD499R,0.0270X0.0001*%
%ADD500R,0.0272X0.0001*%
%ADD501R,0.0270X0.0001*%
%ADD502R,0.0270X0.0001*%
%ADD503R,0.0269X0.0001*%
%ADD504R,0.0269X0.0001*%
%ADD505R,0.0270X0.0001*%
%ADD506R,0.0268X0.0001*%
%ADD507R,0.0268X0.0001*%
%ADD508R,0.0267X0.0001*%
%ADD509R,0.0266X0.0001*%
%ADD510R,0.0266X0.0001*%
%ADD511R,0.0267X0.0001*%
%ADD512R,0.0266X0.0001*%
%ADD513R,0.0266X0.0001*%
%ADD514R,0.0265X0.0001*%
%ADD515R,0.0265X0.0001*%
%ADD516R,0.0264X0.0001*%
%ADD517R,0.0264X0.0001*%
%ADD518R,0.0263X0.0001*%
%ADD519R,0.0263X0.0001*%
%ADD520R,0.0262X0.0001*%
%ADD521R,0.0262X0.0001*%
%ADD522R,0.0262X0.0001*%
%ADD523R,0.0262X0.0001*%
%ADD524R,0.0261X0.0001*%
%ADD525R,0.0261X0.0001*%
%ADD526R,0.0260X0.0001*%
%ADD527R,0.0260X0.0001*%
%ADD528R,0.0259X0.0001*%
%ADD529R,0.0259X0.0001*%
%ADD530R,0.0259X0.0001*%
%ADD531R,0.0258X0.0001*%
%ADD532R,0.0258X0.0001*%
%ADD533R,0.0259X0.0001*%
%ADD534R,0.0258X0.0001*%
%ADD535R,0.0258X0.0001*%
%ADD536R,0.0257X0.0001*%
%ADD537R,0.0256X0.0001*%
%ADD538R,0.0257X0.0001*%
%ADD539R,0.0256X0.0001*%
%ADD540R,0.0255X0.0001*%
%ADD541R,0.0255X0.0001*%
%ADD542R,0.0256X0.0001*%
%ADD543R,0.0256X0.0001*%
%ADD544R,0.0254X0.0001*%
%ADD545R,0.0254X0.0001*%
%ADD546R,0.0254X0.0001*%
%ADD547R,0.0254X0.0001*%
%ADD548R,0.0253X0.0001*%
%ADD549R,0.0253X0.0001*%
%ADD550R,0.0252X0.0001*%
%ADD551R,0.0251X0.0001*%
%ADD552R,0.0251X0.0001*%
%ADD553R,0.0253X0.0001*%
%ADD554R,0.0250X0.0001*%
%ADD555R,0.0250X0.0001*%
%ADD556R,0.0252X0.0001*%
%ADD557R,0.0250X0.0001*%
%ADD558R,0.0250X0.0001*%
%ADD559R,0.0249X0.0001*%
%ADD560R,0.0249X0.0001*%
%ADD561R,0.0248X0.0001*%
%ADD562R,0.0247X0.0001*%
%ADD563R,0.0247X0.0001*%
%ADD564R,0.0250X0.0001*%
%ADD565R,0.0246X0.0001*%
%ADD566R,0.0246X0.0001*%
%ADD567R,0.0250X0.0001*%
%ADD568R,0.0246X0.0001*%
%ADD569R,0.0246X0.0001*%
%ADD570R,0.0245X0.0001*%
%ADD571R,0.0245X0.0001*%
%ADD572R,0.0244X0.0001*%
%ADD573R,0.0243X0.0001*%
%ADD574R,0.0243X0.0001*%
%ADD575R,0.0242X0.0001*%
%ADD576R,0.0242X0.0001*%
%ADD577R,0.0242X0.0001*%
%ADD578R,0.0242X0.0001*%
%ADD579R,0.0241X0.0001*%
%ADD580R,0.0241X0.0001*%
%ADD581R,0.0240X0.0001*%
%ADD582R,0.0240X0.0001*%
%ADD583R,0.0244X0.0001*%
%ADD584R,0.0239X0.0001*%
%ADD585R,0.0238X0.0001*%
%ADD586R,0.0238X0.0001*%
%ADD587R,0.0238X0.0001*%
%ADD588R,0.0238X0.0001*%
%ADD589R,0.0237X0.0001*%
%ADD590R,0.0237X0.0001*%
%ADD591R,0.0415X0.0001*%
%ADD592R,0.0415X0.0001*%
%ADD593R,0.1389X0.0001*%
%ADD594R,0.1389X0.0001*%
%ADD595R,0.0514X0.0001*%
%ADD596R,0.0489X0.0001*%
%ADD597R,0.0514X0.0001*%
%ADD598R,0.0489X0.0001*%
%ADD599R,0.1388X0.0001*%
%ADD600R,0.1388X0.0001*%
%ADD601R,0.1387X0.0001*%
%ADD602R,0.1387X0.0001*%
%ADD603R,0.1386X0.0001*%
%ADD604R,0.1386X0.0001*%
%ADD605R,0.1386X0.0001*%
%ADD606R,0.1385X0.0001*%
%ADD607R,0.1384X0.0001*%
%ADD608R,0.1384X0.0001*%
%ADD609R,0.1383X0.0001*%
%ADD610R,0.1383X0.0001*%
%ADD611R,0.1382X0.0001*%
%ADD612R,0.1382X0.0001*%
%ADD613R,0.1382X0.0001*%
%ADD614R,0.1381X0.0001*%
%ADD615R,0.1381X0.0001*%
%ADD616R,0.1380X0.0001*%
%ADD617R,0.1379X0.0001*%
%ADD618R,0.1379X0.0001*%
%ADD619R,0.1378X0.0001*%
%ADD620R,0.1378X0.0001*%
%ADD621R,0.1378X0.0001*%
%ADD622R,0.1376X0.0001*%
%ADD623R,0.1376X0.0001*%
%ADD624R,0.1374X0.0001*%
%ADD625R,0.1374X0.0001*%
%ADD626R,0.1373X0.0001*%
%ADD627R,0.1373X0.0001*%
%ADD628R,0.1371X0.0001*%
%ADD629R,0.1371X0.0001*%
%ADD630R,0.1370X0.0001*%
%ADD631R,0.1370X0.0001*%
%ADD632R,0.1369X0.0001*%
%ADD633R,0.1368X0.0001*%
%ADD634R,0.1368X0.0001*%
%ADD635R,0.1367X0.0001*%
%ADD636R,0.1366X0.0001*%
%ADD637R,0.1366X0.0001*%
%ADD638R,0.1365X0.0001*%
%ADD639R,0.1364X0.0001*%
%ADD640R,0.1363X0.0001*%
%ADD641R,0.1363X0.0001*%
%ADD642R,0.1362X0.0001*%
%ADD643R,0.1362X0.0001*%
%ADD644R,0.1362X0.0001*%
%ADD645R,0.1361X0.0001*%
%ADD646R,0.1360X0.0001*%
%ADD647R,0.1359X0.0001*%
%ADD648R,0.1358X0.0001*%
%ADD649R,0.1358X0.0001*%
%ADD650R,0.1358X0.0001*%
%ADD651R,0.1357X0.0001*%
%ADD652R,0.1357X0.0001*%
%ADD653R,0.1356X0.0001*%
%ADD654R,0.1355X0.0001*%
%ADD655R,0.1354X0.0001*%
%ADD656R,0.1354X0.0001*%
%ADD657R,0.1354X0.0001*%
%ADD658R,0.1353X0.0001*%
%ADD659R,0.1352X0.0001*%
%ADD660R,0.1351X0.0001*%
%ADD661R,0.1350X0.0001*%
%ADD662R,0.1348X0.0001*%
%ADD663R,0.1346X0.0001*%
%ADD664R,0.1344X0.0001*%
%ADD665R,0.1342X0.0001*%
%ADD666R,0.1341X0.0001*%
%ADD667R,0.1339X0.0001*%
%ADD668R,0.1338X0.0001*%
%ADD669R,0.1336X0.0001*%
%ADD670R,0.1334X0.0001*%
%ADD671R,0.1333X0.0001*%
%ADD672R,0.1331X0.0001*%
%ADD673R,0.1330X0.0001*%
%ADD674R,0.1328X0.0001*%
%ADD675R,0.1326X0.0001*%
%ADD676R,0.1325X0.0001*%
%ADD677R,0.1323X0.0001*%
%ADD678R,0.1322X0.0001*%
%ADD679R,0.1320X0.0001*%
%ADD680R,0.1318X0.0001*%
%ADD681R,0.1317X0.0001*%
%ADD682R,0.1315X0.0001*%
%ADD683R,0.1314X0.0001*%
%ADD684R,0.1312X0.0001*%
%ADD685R,0.1310X0.0001*%
%ADD686R,0.1309X0.0001*%
%ADD687R,0.1307X0.0001*%
%ADD688R,0.1306X0.0001*%
%ADD689R,0.1304X0.0001*%
%ADD690R,0.1302X0.0001*%
%ADD691R,0.1301X0.0001*%
%ADD692R,0.1299X0.0001*%
%ADD693R,0.1298X0.0001*%
%ADD694R,0.1296X0.0001*%
%ADD695R,0.1294X0.0001*%
%ADD696R,0.1292X0.0001*%
%ADD697R,0.1290X0.0001*%
%ADD698R,0.1289X0.0001*%
%ADD699R,0.1287X0.0001*%
%ADD700R,0.1286X0.0001*%
%ADD701R,0.1284X0.0001*%
%ADD702R,0.1282X0.0001*%
%ADD703R,0.1281X0.0001*%
%ADD704R,0.1279X0.0001*%
%ADD705R,0.1278X0.0001*%
%ADD706R,0.1276X0.0001*%
%ADD707R,0.1274X0.0001*%
%ADD708R,0.1273X0.0001*%
%ADD709R,0.1271X0.0001*%
%ADD710R,0.1270X0.0001*%
%ADD711R,0.1268X0.0001*%
%ADD712R,0.1266X0.0001*%
%ADD713R,0.1264X0.0001*%
%ADD714R,0.1262X0.0001*%
%ADD715R,0.1261X0.0001*%
%ADD716R,0.1259X0.0001*%
%ADD717R,0.1258X0.0001*%
%ADD718R,0.1256X0.0001*%
%ADD719R,0.1254X0.0001*%
%ADD720R,0.1253X0.0001*%
%ADD721R,0.1251X0.0001*%
%ADD722R,0.1250X0.0001*%
%ADD723R,0.1248X0.0001*%
%ADD724R,0.1246X0.0001*%
%ADD725R,0.1245X0.0001*%
%ADD726R,0.1243X0.0001*%
%ADD727R,0.1242X0.0001*%
%ADD728R,0.1240X0.0001*%
%ADD729R,0.1238X0.0001*%
%ADD730R,0.1237X0.0001*%
%ADD731R,0.1235X0.0001*%
%ADD732R,0.1234X0.0001*%
%ADD733R,0.1232X0.0001*%
%ADD734R,0.1230X0.0001*%
%ADD735R,0.1229X0.0001*%
%ADD736R,0.1227X0.0001*%
%ADD737R,0.1226X0.0001*%
%ADD738R,0.1224X0.0001*%
%ADD739R,0.1222X0.0001*%
%ADD740R,0.1221X0.0001*%
%ADD741R,0.1219X0.0001*%
%ADD742R,0.1218X0.0001*%
%ADD743R,0.1216X0.0001*%
%ADD744R,0.1214X0.0001*%
%ADD745R,0.1212X0.0001*%
%ADD746R,0.1210X0.0001*%
%ADD747R,0.1209X0.0001*%
%ADD748R,0.1207X0.0001*%
%ADD749R,0.1206X0.0001*%
%ADD750R,0.1204X0.0001*%
%ADD751R,0.1202X0.0001*%
%ADD752R,0.1201X0.0001*%
%ADD753R,0.1199X0.0001*%
%ADD754R,0.1198X0.0001*%
%ADD755R,0.1196X0.0001*%
%ADD756R,0.1194X0.0001*%
%ADD757R,0.1193X0.0001*%
%ADD758R,0.1191X0.0001*%
%ADD759R,0.1190X0.0001*%
%ADD760R,0.1188X0.0001*%
%ADD761R,0.1186X0.0001*%
%ADD762R,0.1184X0.0001*%
%ADD763R,0.1182X0.0001*%
%ADD764R,0.1181X0.0001*%
%ADD765R,0.1179X0.0001*%
%ADD766R,0.1178X0.0001*%
%ADD767R,0.1176X0.0001*%
%ADD768R,0.1174X0.0001*%
%ADD769R,0.1173X0.0001*%
%ADD770R,0.1171X0.0001*%
%ADD771R,0.1170X0.0001*%
%ADD772R,0.1168X0.0001*%
%ADD773R,0.1166X0.0001*%
%ADD774R,0.1165X0.0001*%
%ADD775R,0.1163X0.0001*%
%ADD776R,0.1162X0.0001*%
%ADD777R,0.1160X0.0001*%
%ADD778R,0.1158X0.0001*%
%ADD779R,0.1157X0.0001*%
%ADD780R,0.1155X0.0001*%
%ADD781R,0.1154X0.0001*%
%ADD782R,0.1152X0.0001*%
%ADD783R,0.1150X0.0001*%
%ADD784R,0.1149X0.0001*%
%ADD785R,0.1147X0.0001*%
%ADD786R,0.1146X0.0001*%
%ADD787R,0.1144X0.0001*%
%ADD788R,0.1142X0.0001*%
%ADD789R,0.1141X0.0001*%
%ADD790R,0.1139X0.0001*%
%ADD791R,0.1138X0.0001*%
%ADD792R,0.1136X0.0001*%
%ADD793R,0.1134X0.0001*%
%ADD794R,0.1132X0.0001*%
%ADD795R,0.1130X0.0001*%
%ADD796R,0.1129X0.0001*%
%ADD797R,0.1127X0.0001*%
%ADD798R,0.1126X0.0001*%
%ADD799R,0.1124X0.0001*%
%ADD800R,0.1122X0.0001*%
%ADD801R,0.1121X0.0001*%
%ADD802R,0.1119X0.0001*%
%ADD803R,0.1118X0.0001*%
%ADD804R,0.1116X0.0001*%
%ADD805R,0.1114X0.0001*%
%ADD806R,0.1113X0.0001*%
%ADD807R,0.1111X0.0001*%
%ADD808R,0.1110X0.0001*%
%ADD809R,0.1107X0.0001*%
%ADD810R,0.1106X0.0001*%
%ADD811R,0.1104X0.0001*%
%ADD812R,0.1102X0.0001*%
%ADD813R,0.1101X0.0001*%
%ADD814R,0.1099X0.0001*%
%ADD815R,0.1098X0.0001*%
%ADD816R,0.1096X0.0001*%
%ADD817R,0.1094X0.0001*%
%ADD818R,0.1093X0.0001*%
%ADD819R,0.1091X0.0001*%
%ADD820R,0.1090X0.0001*%
%ADD821R,0.1088X0.0001*%
%ADD822R,0.1086X0.0001*%
%ADD823R,0.1085X0.0001*%
%ADD824R,0.1083X0.0001*%
%ADD825R,0.1082X0.0001*%
%ADD826R,0.1080X0.0001*%
%ADD827R,0.1078X0.0001*%
%ADD828R,0.1077X0.0001*%
%ADD829R,0.1075X0.0001*%
%ADD830R,0.1074X0.0001*%
%ADD831R,0.1072X0.0001*%
%ADD832R,0.1070X0.0001*%
%ADD833R,0.1069X0.0001*%
%ADD834R,0.1067X0.0001*%
%ADD835R,0.1066X0.0001*%
%ADD836R,0.1064X0.0001*%
%ADD837R,0.1062X0.0001*%
%ADD838R,0.1061X0.0001*%
%ADD839R,0.1059X0.0001*%
%ADD840R,0.1058X0.0001*%
%ADD841R,0.1056X0.0001*%
%ADD842R,0.1054X0.0001*%
%ADD843R,0.1052X0.0001*%
%ADD844R,0.1050X0.0001*%
%ADD845R,0.1049X0.0001*%
%ADD846R,0.1047X0.0001*%
%ADD847R,0.1046X0.0001*%
%ADD848R,0.1044X0.0001*%
%ADD849R,0.1042X0.0001*%
%ADD850R,0.1041X0.0001*%
%ADD851R,0.1039X0.0001*%
%ADD852R,0.1038X0.0001*%
%ADD853R,0.1036X0.0001*%
%ADD854R,0.1034X0.0001*%
%ADD855R,0.1033X0.0001*%
%ADD856R,0.1031X0.0001*%
%ADD857R,0.1030X0.0001*%
%ADD858R,0.1027X0.0001*%
%ADD859R,0.1026X0.0001*%
%ADD860R,0.1024X0.0001*%
%ADD861R,0.1022X0.0001*%
%ADD862R,0.1021X0.0001*%
%ADD863R,0.1019X0.0001*%
%ADD864R,0.1018X0.0001*%
%ADD865R,0.1016X0.0001*%
%ADD866R,0.1014X0.0001*%
%ADD867R,0.1013X0.0001*%
%ADD868R,0.1011X0.0001*%
%ADD869R,0.1010X0.0001*%
%ADD870R,0.1008X0.0001*%
%ADD871R,0.1006X0.0001*%
%ADD872R,0.1005X0.0001*%
%ADD873R,0.1003X0.0001*%
%ADD874R,0.1002X0.0001*%
%ADD875R,0.1000X0.0001*%
%ADD876R,0.0998X0.0001*%
%ADD877R,0.0997X0.0001*%
%ADD878R,0.0995X0.0001*%
%ADD879R,0.0994X0.0001*%
%ADD880R,0.0992X0.0001*%
%ADD881R,0.0990X0.0001*%
%ADD882R,0.0989X0.0001*%
%ADD883R,0.0987X0.0001*%
%ADD884R,0.0986X0.0001*%
%ADD885R,0.0984X0.0001*%
%ADD886R,0.0982X0.0001*%
%ADD887R,0.0981X0.0001*%
%ADD888R,0.0979X0.0001*%
%ADD889R,0.0978X0.0001*%
%ADD890R,0.0976X0.0001*%
%ADD891R,0.0974X0.0001*%
%ADD892R,0.0972X0.0001*%
%ADD893R,0.0970X0.0001*%
%ADD894R,0.0969X0.0001*%
%ADD895R,0.0967X0.0001*%
%ADD896R,0.0966X0.0001*%
%ADD897R,0.0964X0.0001*%
%ADD898R,0.0962X0.0001*%
%ADD899R,0.0961X0.0001*%
%ADD900R,0.0959X0.0001*%
%ADD901R,0.0958X0.0001*%
%ADD902R,0.0956X0.0001*%
%ADD903R,0.0954X0.0001*%
%ADD904R,0.0953X0.0001*%
%ADD905R,0.0951X0.0001*%
%ADD906R,0.0950X0.0001*%
%ADD907R,0.0947X0.0001*%
%ADD908R,0.0946X0.0001*%
%ADD909R,0.0944X0.0001*%
%ADD910R,0.0942X0.0001*%
%ADD911R,0.0941X0.0001*%
%ADD912R,0.0939X0.0001*%
%ADD913R,0.0938X0.0001*%
%ADD914R,0.0936X0.0001*%
%ADD915R,0.0934X0.0001*%
%ADD916R,0.0933X0.0001*%
%ADD917R,0.0931X0.0001*%
%ADD918R,0.0930X0.0001*%
%ADD919R,0.0928X0.0001*%
%ADD920R,0.0926X0.0001*%
%ADD921R,0.0925X0.0001*%
%ADD922R,0.0923X0.0001*%
%ADD923R,0.0922X0.0001*%
%ADD924R,0.0920X0.0001*%
%ADD925R,0.0918X0.0001*%
%ADD926R,0.0917X0.0001*%
%ADD927R,0.0914X0.0001*%
%ADD928R,0.0909X0.0001*%
%ADD929R,0.0905X0.0001*%
%ADD930R,0.0901X0.0001*%
%ADD931R,0.0896X0.0001*%
%ADD932R,0.0891X0.0001*%
%ADD933R,0.0886X0.0001*%
%ADD934R,0.0882X0.0001*%
%ADD935R,0.0876X0.0001*%
%ADD936R,0.0871X0.0001*%
%ADD937R,0.0866X0.0001*%
%ADD938R,0.0860X0.0001*%
%ADD939R,0.0854X0.0001*%
%ADD940R,0.0848X0.0001*%
%ADD941R,0.0842X0.0001*%
%ADD942R,0.0835X0.0001*%
%ADD943R,0.0829X0.0001*%
%ADD944R,0.0821X0.0001*%
%ADD945R,0.0813X0.0001*%
%ADD946R,0.0804X0.0001*%
%ADD947R,0.0794X0.0001*%
%ADD948R,0.0782X0.0001*%
%ADD949R,0.0763X0.0001*%
%ADD950C,0.0000*%
%ADD951C,0.0120*%
D10*
X000520Y002792D02*
X000820Y002792D01*
X000670Y002792D02*
X000670Y003242D01*
X000820Y003092D01*
X000980Y003167D02*
X000980Y002867D01*
X001055Y002792D01*
X001281Y002792D01*
X001281Y003242D01*
X001055Y003242D01*
X000980Y003167D01*
X003495Y004759D02*
X003795Y004759D01*
X003645Y004909D02*
X003645Y004609D01*
X003609Y005944D02*
X003609Y006244D01*
X002884Y007160D02*
X002884Y007610D01*
X002659Y007610D01*
X002584Y007535D01*
X002584Y007385D01*
X002659Y007310D01*
X002884Y007310D01*
X002424Y007385D02*
X002124Y007385D01*
X002124Y007460D02*
X002124Y007160D01*
X001963Y007160D02*
X001963Y007610D01*
X001663Y007160D01*
X001663Y007610D01*
X001503Y007610D02*
X001503Y007160D01*
X001203Y007160D01*
X001043Y007160D02*
X001043Y007610D01*
X001203Y007610D02*
X001503Y007610D01*
X001503Y007385D02*
X001353Y007385D01*
X001043Y007160D02*
X000742Y007160D01*
X002124Y007460D02*
X002274Y007610D01*
X002424Y007460D01*
X002424Y007160D01*
X002322Y010931D02*
X001872Y010931D01*
X001872Y011156D01*
X001947Y011231D01*
X002022Y011231D01*
X002097Y011156D01*
X002097Y010931D01*
X002322Y010931D02*
X002322Y011156D01*
X002247Y011231D01*
X002172Y011231D01*
X002097Y011156D01*
X002872Y011231D02*
X002872Y010931D01*
X003322Y010931D01*
X003322Y011231D01*
X003097Y011081D02*
X003097Y010931D01*
X001322Y011006D02*
X001247Y010931D01*
X000947Y010931D01*
X000872Y011006D01*
X000872Y011156D01*
X000947Y011231D01*
X001247Y011231D02*
X001322Y011156D01*
X001322Y011006D01*
X001178Y012958D02*
X000877Y012958D01*
X000802Y013033D01*
X000802Y013183D01*
X000877Y013259D01*
X001178Y013259D01*
X001253Y013183D01*
X001253Y013033D01*
X001178Y012958D01*
X000952Y013108D02*
X000802Y013259D01*
X000802Y013419D02*
X000802Y013719D01*
X000802Y013569D02*
X001253Y013569D01*
X001103Y013419D01*
X001818Y016625D02*
X001743Y016700D01*
X001743Y016850D01*
X001818Y016925D01*
X001968Y017085D02*
X001968Y017386D01*
X002193Y017310D02*
X001968Y017085D01*
X002118Y016925D02*
X002193Y016850D01*
X002193Y016700D01*
X002118Y016625D01*
X001818Y016625D01*
X001743Y017310D02*
X002193Y017310D01*
X002103Y021690D02*
X002103Y021915D01*
X002178Y021990D01*
X002328Y021990D01*
X002404Y021915D01*
X002404Y021690D01*
X001953Y021690D01*
X002103Y021840D02*
X001953Y021990D01*
X002028Y022150D02*
X001953Y022225D01*
X001953Y022375D01*
X002028Y022450D01*
X002103Y022450D01*
X002178Y022375D01*
X002178Y022150D01*
X002028Y022150D01*
X002178Y022150D02*
X002328Y022300D01*
X002404Y022450D01*
X000751Y023562D02*
X000451Y023562D01*
X000601Y023787D02*
X000751Y023787D01*
X000751Y023562D02*
X000751Y024013D01*
X000451Y024013D01*
X000526Y024562D02*
X000751Y024562D01*
X000751Y025013D01*
X000526Y025013D01*
X000451Y024938D01*
X000451Y024862D01*
X000526Y024787D01*
X000751Y024787D01*
X000526Y024787D02*
X000451Y024712D01*
X000451Y024637D01*
X000526Y024562D01*
X000526Y025562D02*
X000451Y025637D01*
X000526Y025562D02*
X000676Y025562D01*
X000751Y025637D01*
X000751Y025938D01*
X000676Y026013D01*
X000526Y026013D01*
X000451Y025938D01*
X002084Y026050D02*
X002384Y026050D01*
X002159Y026275D01*
X002159Y025824D01*
X002545Y025824D02*
X002695Y025975D01*
X002845Y025899D02*
X002845Y026200D01*
X002770Y026275D01*
X002620Y026275D01*
X002545Y026200D01*
X002545Y025899D01*
X002620Y025824D01*
X002770Y025824D01*
X002845Y025899D01*
X003198Y027178D02*
X003122Y027253D01*
X003122Y027403D01*
X003198Y027478D01*
X003122Y027638D02*
X003423Y027938D01*
X003498Y027938D01*
X003573Y027863D01*
X003573Y027713D01*
X003498Y027638D01*
X003498Y027478D02*
X003573Y027403D01*
X003573Y027253D01*
X003498Y027178D01*
X003198Y027178D01*
X003122Y027638D02*
X003122Y027938D01*
X009745Y029115D02*
X019745Y029115D01*
X019745Y024981D02*
X009745Y024981D01*
X024376Y025915D02*
X024376Y026066D01*
X024451Y026141D01*
X024376Y025915D02*
X024451Y025840D01*
X024751Y025840D01*
X024826Y025915D01*
X024826Y026066D01*
X024751Y026141D01*
X025376Y026066D02*
X025376Y025840D01*
X025826Y025840D01*
X025826Y026066D01*
X025751Y026141D01*
X025676Y026141D01*
X025601Y026066D01*
X025601Y025840D01*
X025601Y026066D02*
X025526Y026141D01*
X025451Y026141D01*
X025376Y026066D01*
X026376Y026141D02*
X026376Y025840D01*
X026826Y025840D01*
X026826Y026141D01*
X026601Y025991D02*
X026601Y025840D01*
X025854Y024787D02*
X025854Y024487D01*
X025889Y023452D02*
X025889Y023152D01*
X026039Y023302D02*
X025739Y023302D01*
X026704Y022252D02*
X027004Y022252D01*
X026854Y022252D02*
X026854Y021802D01*
X027315Y021802D02*
X027315Y022252D01*
X027465Y022252D02*
X027164Y022252D01*
X027625Y022102D02*
X027625Y021802D01*
X027625Y022027D02*
X027925Y022027D01*
X027925Y022102D02*
X027775Y022252D01*
X027625Y022102D01*
X027925Y022102D02*
X027925Y021802D01*
X028085Y021877D02*
X028160Y021802D01*
X028385Y021802D01*
X028385Y022252D01*
X028160Y022252D01*
X028085Y022177D01*
X028085Y022102D01*
X028160Y022027D01*
X028385Y022027D01*
X028160Y022027D02*
X028085Y021952D01*
X028085Y021877D01*
X027971Y018197D02*
X028046Y018122D01*
X028046Y017822D01*
X027971Y017746D01*
X027821Y017746D01*
X027746Y017822D01*
X027586Y017822D02*
X027511Y017746D01*
X027361Y017746D01*
X027286Y017822D01*
X027286Y017897D01*
X027361Y017972D01*
X027436Y017972D01*
X027361Y017972D02*
X027286Y018047D01*
X027286Y018122D01*
X027361Y018197D01*
X027511Y018197D01*
X027586Y018122D01*
X027746Y018122D02*
X027821Y018197D01*
X027971Y018197D01*
X028125Y013809D02*
X028125Y013509D01*
X028425Y013809D01*
X028501Y013809D01*
X028576Y013734D01*
X028576Y013584D01*
X028501Y013509D01*
X028501Y013349D02*
X028200Y013349D01*
X028125Y013274D01*
X028125Y013124D01*
X028200Y013049D01*
X028501Y013049D01*
X028576Y013124D01*
X028576Y013274D01*
X028501Y013349D01*
X028275Y013199D02*
X028125Y013349D01*
X028029Y011164D02*
X028029Y010864D01*
X028480Y010864D01*
X028480Y011164D01*
X028254Y011014D02*
X028254Y010864D01*
X027480Y010864D02*
X027480Y011089D01*
X027404Y011164D01*
X027329Y011164D01*
X027254Y011089D01*
X027254Y010864D01*
X027029Y010864D02*
X027029Y011089D01*
X027104Y011164D01*
X027179Y011164D01*
X027254Y011089D01*
X027029Y010864D02*
X027480Y010864D01*
X026480Y010939D02*
X026404Y010864D01*
X026104Y010864D01*
X026029Y010939D01*
X026029Y011089D01*
X026104Y011164D01*
X026404Y011164D02*
X026480Y011089D01*
X026480Y010939D01*
X026293Y006470D02*
X026293Y006170D01*
X026068Y006170D01*
X026143Y006320D01*
X026143Y006395D01*
X026068Y006470D01*
X025918Y006470D01*
X025843Y006395D01*
X025843Y006245D01*
X025918Y006170D01*
X025843Y006010D02*
X025993Y005860D01*
X025993Y005935D02*
X025993Y005710D01*
X025843Y005710D02*
X026293Y005710D01*
X026293Y005935D01*
X026218Y006010D01*
X026068Y006010D01*
X025993Y005935D01*
X028599Y005970D02*
X028749Y005820D01*
X028749Y005895D02*
X028749Y005670D01*
X028599Y005670D02*
X029049Y005670D01*
X029049Y005895D01*
X028974Y005970D01*
X028824Y005970D01*
X028749Y005895D01*
X028674Y006131D02*
X028599Y006131D01*
X028674Y006131D02*
X028974Y006431D01*
X029049Y006431D01*
X029049Y006131D01*
X026787Y000818D02*
X026787Y000593D01*
X026712Y000518D01*
X026637Y000593D01*
X026562Y000518D01*
X026487Y000593D01*
X026487Y000818D01*
X026327Y000818D02*
X026327Y000593D01*
X026252Y000518D01*
X026176Y000593D01*
X026101Y000518D01*
X026026Y000593D01*
X026026Y000818D01*
X025866Y000818D02*
X025866Y000593D01*
X025791Y000518D01*
X025716Y000593D01*
X025641Y000518D01*
X025566Y000593D01*
X025566Y000818D01*
X025406Y000593D02*
X025331Y000593D01*
X025331Y000518D01*
X025406Y000518D01*
X025406Y000593D01*
X025176Y000593D02*
X025101Y000518D01*
X024875Y000518D01*
X024875Y000743D01*
X024950Y000818D01*
X025101Y000818D01*
X025101Y000668D02*
X024875Y000668D01*
X024715Y000593D02*
X024640Y000518D01*
X024415Y000518D01*
X024255Y000518D02*
X024255Y000818D01*
X024255Y000668D02*
X024105Y000818D01*
X024030Y000818D01*
X023871Y000743D02*
X023871Y000593D01*
X023796Y000518D01*
X023646Y000518D01*
X023571Y000593D01*
X023571Y000743D01*
X023646Y000818D01*
X023796Y000818D01*
X023871Y000743D01*
X023411Y000818D02*
X023186Y000818D01*
X023111Y000743D01*
X023111Y000593D01*
X023186Y000518D01*
X023411Y000518D01*
X023411Y000968D01*
X022950Y000743D02*
X022950Y000593D01*
X022875Y000518D01*
X022725Y000518D01*
X022650Y000593D01*
X022650Y000743D01*
X022725Y000818D01*
X022875Y000818D01*
X022950Y000743D01*
X022490Y000818D02*
X022340Y000818D01*
X022415Y000893D02*
X022415Y000593D01*
X022340Y000518D01*
X022183Y000518D02*
X022033Y000518D01*
X022108Y000518D02*
X022108Y000818D01*
X022183Y000818D01*
X022108Y000968D02*
X022108Y001044D01*
X021876Y000743D02*
X021801Y000818D01*
X021576Y000818D01*
X021416Y000593D02*
X021416Y000518D01*
X021341Y000518D01*
X021341Y000593D01*
X021416Y000593D01*
X021576Y000518D02*
X021801Y000518D01*
X021876Y000593D01*
X021876Y000743D01*
X021186Y000743D02*
X021186Y000593D01*
X021111Y000518D01*
X020885Y000518D01*
X020725Y000593D02*
X020650Y000518D01*
X020500Y000518D01*
X020425Y000593D01*
X020425Y000743D01*
X020500Y000818D01*
X020650Y000818D01*
X020725Y000743D01*
X020725Y000593D01*
X020885Y000818D02*
X021111Y000818D01*
X021186Y000743D01*
X020265Y000818D02*
X020265Y000518D01*
X020115Y000518D02*
X020115Y000743D01*
X020040Y000818D01*
X019965Y000743D01*
X019965Y000518D01*
X019745Y000375D02*
X009745Y000375D01*
X009745Y004509D02*
X019745Y004509D01*
X020190Y000818D02*
X020115Y000743D01*
X020190Y000818D02*
X020265Y000818D01*
X024415Y000818D02*
X024640Y000818D01*
X024715Y000743D01*
X024715Y000593D01*
X025101Y000668D02*
X025176Y000593D01*
X004655Y000936D02*
X004580Y000861D01*
X004430Y000861D01*
X004355Y000936D01*
X004195Y000861D02*
X003894Y000861D01*
X004045Y000861D02*
X004045Y001311D01*
X004195Y001161D01*
X004355Y001236D02*
X004430Y001311D01*
X004580Y001311D01*
X004655Y001236D01*
X004655Y000936D01*
X026310Y028143D02*
X026235Y028218D01*
X026235Y028368D01*
X026310Y028444D01*
X026611Y028444D01*
X026686Y028368D01*
X026686Y028218D01*
X026611Y028143D01*
X026310Y028143D01*
X026386Y028293D02*
X026235Y028444D01*
X026310Y028604D02*
X026235Y028679D01*
X026235Y028829D01*
X026310Y028904D01*
X026386Y028904D01*
X026461Y028829D01*
X026461Y028754D01*
X026461Y028829D02*
X026536Y028904D01*
X026611Y028904D01*
X026686Y028829D01*
X026686Y028679D01*
X026611Y028604D01*
D11*
X026651Y027476D02*
X026625Y027535D01*
X026596Y027592D01*
X026564Y027647D01*
X026528Y027701D01*
X026490Y027752D01*
X026448Y027800D01*
X026404Y027846D01*
X026356Y027890D01*
X026307Y027930D01*
X026255Y027968D01*
X026201Y028002D01*
X026145Y028033D01*
X026087Y028061D01*
X026027Y028085D01*
X025967Y028106D01*
X025905Y028123D01*
X025842Y028136D01*
X025779Y028145D01*
X025715Y028151D01*
X025651Y028153D01*
X025587Y028151D01*
X025523Y028145D01*
X025460Y028136D01*
X025397Y028123D01*
X025335Y028106D01*
X025275Y028085D01*
X025215Y028061D01*
X025157Y028033D01*
X025101Y028002D01*
X025047Y027968D01*
X024995Y027930D01*
X024946Y027890D01*
X024898Y027846D01*
X024854Y027800D01*
X024812Y027752D01*
X024774Y027701D01*
X024738Y027647D01*
X024706Y027592D01*
X024677Y027535D01*
X024651Y027476D01*
X024651Y026676D02*
X024659Y026639D01*
X024669Y026604D01*
X024683Y026569D01*
X024699Y026536D01*
X024718Y026504D01*
X024740Y026474D01*
X024765Y026446D01*
X024791Y026420D01*
X024820Y026397D01*
X024851Y026376D01*
X026451Y026376D01*
X026450Y026376D02*
X026481Y026397D01*
X026510Y026420D01*
X026536Y026446D01*
X026561Y026474D01*
X026583Y026504D01*
X026602Y026536D01*
X026618Y026569D01*
X026632Y026604D01*
X026642Y026639D01*
X026650Y026676D01*
X026757Y025473D02*
X026221Y025473D01*
X026221Y022521D01*
X026757Y022521D01*
X026757Y025473D01*
X028977Y025473D01*
X028977Y022521D01*
X026757Y022521D01*
X026789Y017607D02*
X028489Y017607D01*
X028506Y017605D01*
X028523Y017601D01*
X028539Y017594D01*
X028553Y017584D01*
X028566Y017571D01*
X028576Y017557D01*
X028583Y017541D01*
X028587Y017524D01*
X028589Y017507D01*
X028589Y016707D01*
X028587Y016690D01*
X028583Y016673D01*
X028576Y016657D01*
X028566Y016643D01*
X028553Y016630D01*
X028539Y016620D01*
X028523Y016613D01*
X028506Y016609D01*
X028489Y016607D01*
X026789Y016607D01*
X026772Y016609D01*
X026755Y016613D01*
X026739Y016620D01*
X026725Y016630D01*
X026712Y016643D01*
X026702Y016657D01*
X026695Y016673D01*
X026691Y016690D01*
X026689Y016707D01*
X026689Y017507D01*
X026691Y017524D01*
X026695Y017541D01*
X026702Y017557D01*
X026712Y017571D01*
X026725Y017584D01*
X026739Y017594D01*
X026755Y017601D01*
X026772Y017605D01*
X026789Y017607D01*
X026304Y012499D02*
X026330Y012558D01*
X026359Y012615D01*
X026391Y012670D01*
X026427Y012724D01*
X026465Y012775D01*
X026507Y012823D01*
X026551Y012869D01*
X026599Y012913D01*
X026648Y012953D01*
X026700Y012991D01*
X026754Y013025D01*
X026810Y013056D01*
X026868Y013084D01*
X026928Y013108D01*
X026988Y013129D01*
X027050Y013146D01*
X027113Y013159D01*
X027176Y013168D01*
X027240Y013174D01*
X027304Y013176D01*
X027368Y013174D01*
X027432Y013168D01*
X027495Y013159D01*
X027558Y013146D01*
X027620Y013129D01*
X027680Y013108D01*
X027740Y013084D01*
X027798Y013056D01*
X027854Y013025D01*
X027908Y012991D01*
X027960Y012953D01*
X028009Y012913D01*
X028057Y012869D01*
X028101Y012823D01*
X028143Y012775D01*
X028181Y012724D01*
X028217Y012670D01*
X028249Y012615D01*
X028278Y012558D01*
X028304Y012499D01*
X028304Y011700D02*
X028296Y011663D01*
X028286Y011628D01*
X028272Y011593D01*
X028256Y011560D01*
X028237Y011528D01*
X028215Y011498D01*
X028190Y011470D01*
X028164Y011444D01*
X028135Y011421D01*
X028104Y011400D01*
X028104Y011399D02*
X026504Y011399D01*
X026504Y011400D02*
X026473Y011421D01*
X026444Y011444D01*
X026418Y011470D01*
X026393Y011498D01*
X026371Y011528D01*
X026352Y011560D01*
X026336Y011593D01*
X026322Y011628D01*
X026312Y011663D01*
X026304Y011700D01*
X026399Y007225D02*
X026399Y004745D01*
X027344Y004745D01*
X027344Y007225D01*
X026399Y007225D01*
X027540Y007225D02*
X027540Y004745D01*
X028485Y004745D01*
X028485Y007225D01*
X027540Y007225D01*
X005260Y002310D02*
X005260Y001510D01*
X005258Y001493D01*
X005254Y001476D01*
X005247Y001460D01*
X005237Y001446D01*
X005224Y001433D01*
X005210Y001423D01*
X005194Y001416D01*
X005177Y001412D01*
X005160Y001410D01*
X003460Y001410D01*
X003443Y001412D01*
X003426Y001416D01*
X003410Y001423D01*
X003396Y001433D01*
X003383Y001446D01*
X003373Y001460D01*
X003366Y001476D01*
X003362Y001493D01*
X003360Y001510D01*
X003360Y002310D01*
X003362Y002327D01*
X003366Y002344D01*
X003373Y002360D01*
X003383Y002374D01*
X003396Y002387D01*
X003410Y002397D01*
X003426Y002404D01*
X003443Y002408D01*
X003460Y002410D01*
X005160Y002410D01*
X005177Y002408D01*
X005194Y002404D01*
X005210Y002397D01*
X005224Y002387D01*
X005237Y002374D01*
X005247Y002360D01*
X005254Y002344D01*
X005258Y002327D01*
X005260Y002310D01*
X003269Y003977D02*
X002733Y003977D01*
X002733Y006930D01*
X003269Y006930D01*
X003269Y003977D01*
X002733Y003977D02*
X000513Y003977D01*
X000513Y006930D01*
X002733Y006930D01*
X002947Y011466D02*
X001347Y011466D01*
X001347Y011467D02*
X001316Y011488D01*
X001287Y011511D01*
X001261Y011537D01*
X001236Y011565D01*
X001214Y011595D01*
X001195Y011627D01*
X001179Y011660D01*
X001165Y011695D01*
X001155Y011730D01*
X001147Y011767D01*
X001147Y012566D02*
X001173Y012625D01*
X001202Y012682D01*
X001234Y012737D01*
X001270Y012791D01*
X001308Y012842D01*
X001350Y012890D01*
X001394Y012936D01*
X001442Y012980D01*
X001491Y013020D01*
X001543Y013058D01*
X001597Y013092D01*
X001653Y013123D01*
X001711Y013151D01*
X001771Y013175D01*
X001831Y013196D01*
X001893Y013213D01*
X001956Y013226D01*
X002019Y013235D01*
X002083Y013241D01*
X002147Y013243D01*
X002211Y013241D01*
X002275Y013235D01*
X002338Y013226D01*
X002401Y013213D01*
X002463Y013196D01*
X002523Y013175D01*
X002583Y013151D01*
X002641Y013123D01*
X002697Y013092D01*
X002751Y013058D01*
X002803Y013020D01*
X002852Y012980D01*
X002900Y012936D01*
X002944Y012890D01*
X002986Y012842D01*
X003024Y012791D01*
X003060Y012737D01*
X003092Y012682D01*
X003121Y012625D01*
X003147Y012566D01*
X003147Y011767D02*
X003139Y011730D01*
X003129Y011695D01*
X003115Y011660D01*
X003099Y011627D01*
X003080Y011595D01*
X003058Y011565D01*
X003033Y011537D01*
X003007Y011511D01*
X002978Y011488D01*
X002947Y011467D01*
X003236Y016122D02*
X002436Y016122D01*
X002419Y016124D01*
X002402Y016128D01*
X002386Y016135D01*
X002372Y016145D01*
X002359Y016158D01*
X002349Y016172D01*
X002342Y016188D01*
X002338Y016205D01*
X002336Y016222D01*
X002336Y017922D01*
X002338Y017939D01*
X002342Y017956D01*
X002349Y017972D01*
X002359Y017986D01*
X002372Y017999D01*
X002386Y018009D01*
X002402Y018016D01*
X002419Y018020D01*
X002436Y018022D01*
X003236Y018022D01*
X003253Y018020D01*
X003270Y018016D01*
X003286Y018009D01*
X003300Y017999D01*
X003313Y017986D01*
X003323Y017972D01*
X003330Y017956D01*
X003334Y017939D01*
X003336Y017922D01*
X003336Y016222D01*
X003334Y016205D01*
X003330Y016188D01*
X003323Y016172D01*
X003313Y016158D01*
X003300Y016145D01*
X003286Y016135D01*
X003270Y016128D01*
X003253Y016124D01*
X003236Y016122D01*
X003532Y020922D02*
X002588Y020922D01*
X002588Y023403D01*
X003532Y023403D01*
X003532Y020922D01*
X001176Y023737D02*
X001139Y023745D01*
X001104Y023755D01*
X001069Y023769D01*
X001036Y023785D01*
X001004Y023804D01*
X000974Y023826D01*
X000946Y023851D01*
X000920Y023877D01*
X000897Y023906D01*
X000876Y023937D01*
X000876Y025537D01*
X000897Y025568D01*
X000920Y025597D01*
X000946Y025623D01*
X000974Y025648D01*
X001004Y025670D01*
X001036Y025689D01*
X001069Y025705D01*
X001104Y025719D01*
X001139Y025729D01*
X001176Y025737D01*
X001976Y025737D02*
X002035Y025711D01*
X002092Y025682D01*
X002147Y025650D01*
X002201Y025614D01*
X002252Y025576D01*
X002300Y025534D01*
X002346Y025490D01*
X002390Y025442D01*
X002430Y025393D01*
X002468Y025341D01*
X002502Y025287D01*
X002533Y025231D01*
X002561Y025173D01*
X002585Y025113D01*
X002606Y025053D01*
X002623Y024991D01*
X002636Y024928D01*
X002645Y024865D01*
X002651Y024801D01*
X002653Y024737D01*
X002651Y024673D01*
X002645Y024609D01*
X002636Y024546D01*
X002623Y024483D01*
X002606Y024421D01*
X002585Y024361D01*
X002561Y024301D01*
X002533Y024243D01*
X002502Y024187D01*
X002468Y024133D01*
X002430Y024081D01*
X002390Y024032D01*
X002346Y023984D01*
X002300Y023940D01*
X002252Y023898D01*
X002201Y023860D01*
X002147Y023824D01*
X002092Y023792D01*
X002035Y023763D01*
X001976Y023737D01*
X003851Y026612D02*
X004651Y026612D01*
X004668Y026614D01*
X004685Y026618D01*
X004701Y026625D01*
X004715Y026635D01*
X004728Y026648D01*
X004738Y026662D01*
X004745Y026678D01*
X004749Y026695D01*
X004751Y026712D01*
X004751Y028412D01*
X004749Y028429D01*
X004745Y028446D01*
X004738Y028462D01*
X004728Y028476D01*
X004715Y028489D01*
X004701Y028499D01*
X004685Y028506D01*
X004668Y028510D01*
X004651Y028512D01*
X003851Y028512D01*
X003834Y028510D01*
X003817Y028506D01*
X003801Y028499D01*
X003787Y028489D01*
X003774Y028476D01*
X003764Y028462D01*
X003757Y028446D01*
X003753Y028429D01*
X003751Y028412D01*
X003751Y026712D01*
X003753Y026695D01*
X003757Y026678D01*
X003764Y026662D01*
X003774Y026648D01*
X003787Y026635D01*
X003801Y026625D01*
X003817Y026618D01*
X003834Y026614D01*
X003851Y026612D01*
D12*
X002578Y003032D02*
X002578Y002532D01*
X003678Y002532D01*
X003678Y003532D01*
X004078Y003532D01*
X004078Y002982D01*
X004328Y002982D01*
X004078Y002982D02*
X004078Y002532D01*
X003678Y002532D01*
X004210Y002210D02*
X004210Y001910D01*
X004210Y001610D01*
X004410Y001610D02*
X004410Y001910D01*
X004410Y002210D01*
X003678Y003532D02*
X002578Y003532D01*
X002578Y003032D01*
X002328Y003032D01*
X002536Y016972D02*
X002836Y016972D01*
X003136Y016972D01*
X003136Y017172D02*
X002836Y017172D01*
X002536Y017172D01*
X003951Y027462D02*
X004251Y027462D01*
X004551Y027462D01*
X004551Y027662D02*
X004251Y027662D01*
X003951Y027662D01*
X027539Y017407D02*
X027539Y017107D01*
X027539Y016807D01*
X027739Y016807D02*
X027739Y017107D01*
X027739Y017407D01*
D13*
X027739Y017107D02*
X027789Y017107D01*
X027539Y017107D02*
X027489Y017107D01*
X004460Y001910D02*
X004410Y001910D01*
X004210Y001910D02*
X004160Y001910D01*
X002836Y016922D02*
X002836Y016972D01*
X002836Y017172D02*
X002836Y017222D01*
X004251Y027412D02*
X004251Y027462D01*
X004251Y027662D02*
X004251Y027712D01*
D14*
X025495Y001116D03*
X026482Y001116D03*
D15*
X026481Y001117D03*
X025495Y001117D03*
X025495Y001520D03*
D16*
X026481Y001117D03*
D17*
X025495Y001117D03*
D18*
X026481Y001118D03*
D19*
X025495Y001118D03*
X025495Y001518D03*
D20*
X026481Y001119D03*
D21*
X025495Y001119D03*
D22*
X026482Y001120D03*
D23*
X025495Y001120D03*
X025495Y001517D03*
D24*
X025495Y001121D03*
X026481Y001121D03*
D25*
X026481Y001121D03*
X025495Y001121D03*
X025495Y001515D03*
D26*
X026482Y001122D03*
D27*
X025495Y001122D03*
D28*
X025495Y001123D03*
X025495Y001513D03*
X026481Y001123D03*
D29*
X026482Y001124D03*
D30*
X025495Y001124D03*
D31*
X026481Y001125D03*
X026481Y001506D03*
D32*
X025495Y001512D03*
X025495Y001125D03*
D33*
X025495Y001125D03*
X026481Y001125D03*
D34*
X026481Y001126D03*
X025495Y001126D03*
X025495Y001510D03*
D35*
X025495Y001509D03*
X025495Y001127D03*
X026481Y001127D03*
D36*
X026481Y001128D03*
X025495Y001128D03*
D37*
X025495Y001129D03*
X026481Y001129D03*
D38*
X026481Y001129D03*
X025495Y001129D03*
X025495Y001507D03*
D39*
X025495Y001130D03*
X026481Y001130D03*
D40*
X026481Y001131D03*
D41*
X025495Y001131D03*
D42*
X025495Y001132D03*
X025495Y001505D03*
X026482Y001132D03*
D43*
X026482Y001133D03*
X026482Y001498D03*
D44*
X025495Y001133D03*
D45*
X025495Y001133D03*
X025495Y001503D03*
X026481Y001133D03*
D46*
X026481Y001134D03*
D47*
X025495Y001134D03*
D48*
X025495Y001135D03*
X025495Y001501D03*
X026481Y001497D03*
X026481Y001135D03*
D49*
X026481Y001136D03*
X026481Y001495D03*
D50*
X025495Y001500D03*
X025495Y001137D03*
X025495Y001136D03*
D51*
X026482Y001137D03*
D52*
X026481Y001137D03*
D53*
X025495Y001137D03*
D54*
X025495Y001138D03*
X025495Y001498D03*
X026482Y001493D03*
X026482Y001138D03*
D55*
X026481Y001139D03*
X026481Y001492D03*
X025495Y001497D03*
X025495Y001140D03*
X025495Y001139D03*
D56*
X026482Y001140D03*
D57*
X026481Y001141D03*
X025495Y001141D03*
D58*
X025495Y001141D03*
X025495Y001495D03*
X025495Y001496D03*
X026481Y001490D03*
X026481Y001141D03*
D59*
X026481Y001142D03*
X026481Y001143D03*
X026481Y001489D03*
X025495Y001493D03*
X025495Y001493D03*
X025495Y001143D03*
D60*
X025495Y001142D03*
X026482Y001489D03*
D61*
X026481Y001488D03*
X026481Y001144D03*
X025495Y001144D03*
D62*
X026482Y001145D03*
X026482Y001487D03*
D63*
X025495Y001492D03*
X025495Y001145D03*
D64*
X025495Y001145D03*
X025495Y001146D03*
X025495Y001147D03*
X025495Y001489D03*
X025495Y001490D03*
X026481Y001486D03*
X026481Y001485D03*
X026481Y001485D03*
X026481Y001146D03*
X026481Y001145D03*
D65*
X026482Y001147D03*
D66*
X026482Y001148D03*
X026482Y001484D03*
D67*
X025495Y001148D03*
D68*
X025495Y001149D03*
X025495Y001149D03*
X025495Y001150D03*
X025495Y001152D03*
X025495Y001485D03*
X025495Y001485D03*
X025495Y001486D03*
X025495Y001487D03*
X026481Y001483D03*
X026481Y001482D03*
X026481Y001481D03*
X026481Y001480D03*
X026481Y001150D03*
X026481Y001149D03*
X026481Y001149D03*
D69*
X026481Y001151D03*
X026481Y001481D03*
X025495Y001488D03*
X025495Y001151D03*
D70*
X025495Y001153D03*
X025495Y001153D03*
X025495Y001155D03*
X025495Y001156D03*
X025495Y001157D03*
X025495Y001158D03*
X025495Y001159D03*
X025495Y001160D03*
X025495Y001161D03*
X025495Y001162D03*
X025495Y001163D03*
X025495Y001165D03*
X025495Y001165D03*
X025495Y001166D03*
X025495Y001167D03*
X025495Y001169D03*
X025495Y001169D03*
X025495Y001170D03*
X025495Y001172D03*
X025495Y001173D03*
X025495Y001173D03*
X025495Y001175D03*
X025495Y001176D03*
X025495Y001177D03*
X025495Y001178D03*
X025495Y001179D03*
X025495Y001180D03*
X025495Y001181D03*
X025495Y001182D03*
X025495Y001183D03*
X025495Y001185D03*
X025495Y001185D03*
X025495Y001186D03*
X025495Y001187D03*
X025495Y001189D03*
X025495Y001189D03*
X025495Y001190D03*
X025495Y001192D03*
X025495Y001193D03*
X025495Y001193D03*
X025495Y001195D03*
X025495Y001196D03*
X025495Y001197D03*
X025495Y001198D03*
X025495Y001199D03*
X025495Y001200D03*
X025495Y001201D03*
X025495Y001202D03*
X025495Y001203D03*
X025495Y001205D03*
X025495Y001205D03*
X025495Y001206D03*
X025495Y001207D03*
X025495Y001209D03*
X025495Y001209D03*
X025495Y001210D03*
X025495Y001212D03*
X025495Y001213D03*
X025495Y001213D03*
X025495Y001215D03*
X025495Y001216D03*
X025495Y001217D03*
X025495Y001218D03*
X025495Y001219D03*
X025495Y001220D03*
X025495Y001221D03*
X025495Y001222D03*
X025495Y001223D03*
X025495Y001225D03*
X025495Y001225D03*
X025495Y001226D03*
X025495Y001227D03*
X025495Y001229D03*
X025495Y001229D03*
X025495Y001230D03*
X025495Y001232D03*
X025495Y001233D03*
X025495Y001233D03*
X025495Y001235D03*
X025495Y001236D03*
X025495Y001237D03*
X025495Y001238D03*
X025495Y001239D03*
X025495Y001240D03*
X025495Y001241D03*
X025495Y001242D03*
X025495Y001243D03*
X025495Y001245D03*
X025495Y001245D03*
X025495Y001246D03*
X025495Y001247D03*
X025495Y001249D03*
X025495Y001249D03*
X025495Y001250D03*
X025495Y001252D03*
X025495Y001253D03*
X025495Y001253D03*
X025495Y001255D03*
X025495Y001256D03*
X025495Y001257D03*
X025495Y001258D03*
X025495Y001259D03*
X025495Y001260D03*
X025495Y001261D03*
X025495Y001262D03*
X025495Y001263D03*
X025495Y001265D03*
X025495Y001265D03*
X025495Y001266D03*
X025495Y001267D03*
X025495Y001269D03*
X025495Y001269D03*
X025495Y001270D03*
X025495Y001272D03*
X025495Y001273D03*
X025495Y001273D03*
X025495Y001275D03*
X025495Y001276D03*
X025495Y001277D03*
X025495Y001278D03*
X025495Y001279D03*
X025495Y001280D03*
X025495Y001281D03*
X025495Y001282D03*
X025495Y001283D03*
X025495Y001285D03*
X025495Y001285D03*
X025495Y001286D03*
X025495Y001287D03*
X025495Y001289D03*
X025495Y001289D03*
X025495Y001290D03*
X025495Y001292D03*
X025495Y001293D03*
X025495Y001293D03*
X025495Y001295D03*
X025495Y001296D03*
X025495Y001297D03*
X025495Y001298D03*
X025495Y001299D03*
X025495Y001300D03*
X025495Y001301D03*
X025495Y001302D03*
X025495Y001303D03*
X025495Y001305D03*
X025495Y001305D03*
X025495Y001306D03*
X025495Y001307D03*
X025495Y001309D03*
X025495Y001309D03*
X025495Y001310D03*
X025495Y001312D03*
X025495Y001313D03*
X025495Y001313D03*
X025495Y001315D03*
X025495Y001316D03*
X025495Y001317D03*
X025495Y001318D03*
X025495Y001319D03*
X025495Y001320D03*
X025495Y001321D03*
X025495Y001322D03*
X025495Y001323D03*
X025495Y001325D03*
X025495Y001325D03*
X025495Y001326D03*
X025495Y001327D03*
X025495Y001329D03*
X025495Y001329D03*
X025495Y001330D03*
X025495Y001332D03*
X025495Y001333D03*
X025495Y001333D03*
X025495Y001335D03*
X025495Y001336D03*
X025495Y001337D03*
X025495Y001338D03*
X025495Y001339D03*
X025495Y001340D03*
X025495Y001341D03*
X025495Y001342D03*
X025495Y001343D03*
X025495Y001345D03*
X025495Y001345D03*
X025495Y001346D03*
X025495Y001347D03*
X025495Y001349D03*
X025495Y001349D03*
X025495Y001350D03*
X025495Y001352D03*
X025495Y001353D03*
X025495Y001353D03*
X025495Y001355D03*
X025495Y001356D03*
X025495Y001357D03*
X025495Y001358D03*
X025495Y001359D03*
X025495Y001360D03*
X025495Y001361D03*
X025495Y001362D03*
X025495Y001363D03*
X025495Y001365D03*
X025495Y001365D03*
X025495Y001366D03*
X025495Y001367D03*
X025495Y001369D03*
X025495Y001369D03*
X025495Y001370D03*
X025495Y001372D03*
X025495Y001373D03*
X025495Y001373D03*
X025495Y001375D03*
X025495Y001376D03*
X025495Y001377D03*
X025495Y001378D03*
X025495Y001379D03*
X025495Y001380D03*
X025495Y001381D03*
X025495Y001382D03*
X025495Y001383D03*
X025495Y001385D03*
X025495Y001385D03*
X025495Y001386D03*
X025495Y001387D03*
X025495Y001389D03*
X025495Y001389D03*
X025495Y001390D03*
X025495Y001392D03*
X025495Y001393D03*
X025495Y001393D03*
X025495Y001395D03*
X025495Y001396D03*
X025495Y001397D03*
X025495Y001398D03*
X025495Y001399D03*
X025495Y001400D03*
X025495Y001401D03*
X025495Y001402D03*
X025495Y001403D03*
X025495Y001405D03*
X025495Y001405D03*
X025495Y001406D03*
X025495Y001407D03*
X025495Y001409D03*
X025495Y001409D03*
X025495Y001410D03*
X025495Y001412D03*
X025495Y001413D03*
X025495Y001413D03*
X025495Y001415D03*
X025495Y001416D03*
X025495Y001417D03*
X025495Y001418D03*
X025495Y001419D03*
X025495Y001420D03*
X025495Y001421D03*
X025495Y001422D03*
X025495Y001423D03*
X025495Y001425D03*
X025495Y001425D03*
X025495Y001426D03*
X025495Y001427D03*
X025495Y001429D03*
X025495Y001429D03*
X025495Y001430D03*
X025495Y001432D03*
X025495Y001433D03*
X025495Y001433D03*
X025495Y001435D03*
X025495Y001436D03*
X025495Y001437D03*
X025495Y001438D03*
X025495Y001439D03*
X025495Y001440D03*
X025495Y001441D03*
X025495Y001442D03*
X025495Y001443D03*
X025495Y001445D03*
X025495Y001445D03*
X025495Y001446D03*
X025495Y001447D03*
X025495Y001449D03*
X025495Y001449D03*
X025495Y001450D03*
X025495Y001452D03*
X025495Y001453D03*
X025495Y001453D03*
X025495Y001455D03*
X025495Y001456D03*
X025495Y001457D03*
X025495Y001458D03*
X025495Y001459D03*
X025495Y001460D03*
X025495Y001461D03*
X025495Y001462D03*
X025495Y001463D03*
X025495Y001465D03*
X025495Y001465D03*
X025495Y001466D03*
X025495Y001467D03*
X025495Y001469D03*
X025495Y001469D03*
X025495Y001470D03*
X025495Y001472D03*
X025495Y001473D03*
X025495Y001473D03*
X025495Y001475D03*
X025495Y001476D03*
X025495Y001477D03*
X025495Y001478D03*
X025495Y001479D03*
X025495Y001480D03*
X025495Y001481D03*
X025495Y001482D03*
X025495Y001483D03*
X026482Y001479D03*
X026482Y001478D03*
X026482Y001477D03*
X026482Y001476D03*
X026482Y001475D03*
X026482Y001473D03*
X026482Y001473D03*
X026482Y001472D03*
X026482Y001470D03*
X026482Y001469D03*
X026482Y001469D03*
X026482Y001467D03*
X026482Y001466D03*
X026482Y001465D03*
X026482Y001465D03*
X026482Y001463D03*
X026482Y001462D03*
X026482Y001461D03*
X026482Y001460D03*
X026482Y001459D03*
X026482Y001458D03*
X026482Y001457D03*
X026482Y001456D03*
X026482Y001455D03*
X026482Y001453D03*
X026482Y001453D03*
X026482Y001452D03*
X026482Y001450D03*
X026482Y001449D03*
X026482Y001449D03*
X026482Y001447D03*
X026482Y001446D03*
X026482Y001445D03*
X026482Y001445D03*
X026482Y001443D03*
X026482Y001442D03*
X026482Y001441D03*
X026482Y001440D03*
X026482Y001439D03*
X026482Y001438D03*
X026482Y001437D03*
X026482Y001436D03*
X026482Y001435D03*
X026482Y001433D03*
X026482Y001433D03*
X026482Y001432D03*
X026482Y001430D03*
X026482Y001429D03*
X026482Y001429D03*
X026482Y001427D03*
X026482Y001426D03*
X026482Y001425D03*
X026482Y001425D03*
X026482Y001423D03*
X026482Y001422D03*
X026482Y001421D03*
X026482Y001420D03*
X026482Y001419D03*
X026482Y001418D03*
X026482Y001417D03*
X026482Y001416D03*
X026482Y001415D03*
X026482Y001413D03*
X026482Y001413D03*
X026482Y001412D03*
X026482Y001410D03*
X026482Y001409D03*
X026482Y001409D03*
X026482Y001407D03*
X026482Y001406D03*
X026482Y001405D03*
X026482Y001405D03*
X026482Y001403D03*
X026482Y001402D03*
X026482Y001401D03*
X026482Y001400D03*
X026482Y001399D03*
X026482Y001398D03*
X026482Y001397D03*
X026482Y001396D03*
X026482Y001395D03*
X026482Y001393D03*
X026482Y001393D03*
X026482Y001392D03*
X026482Y001390D03*
X026482Y001389D03*
X026482Y001389D03*
X026482Y001387D03*
X026482Y001386D03*
X026482Y001385D03*
X026482Y001385D03*
X026482Y001383D03*
X026482Y001382D03*
X026482Y001381D03*
X026482Y001380D03*
X026482Y001379D03*
X026482Y001378D03*
X026482Y001377D03*
X026482Y001376D03*
X026482Y001375D03*
X026482Y001373D03*
X026482Y001373D03*
X026482Y001372D03*
X026482Y001370D03*
X026482Y001369D03*
X026482Y001369D03*
X026482Y001367D03*
X026482Y001366D03*
X026482Y001365D03*
X026482Y001365D03*
X026482Y001363D03*
X026482Y001362D03*
X026482Y001361D03*
X026482Y001360D03*
X026482Y001359D03*
X026482Y001358D03*
X026482Y001357D03*
X026482Y001356D03*
X026482Y001355D03*
X026482Y001353D03*
X026482Y001353D03*
X026482Y001352D03*
X026482Y001350D03*
X026482Y001349D03*
X026482Y001349D03*
X026482Y001347D03*
X026482Y001346D03*
X026482Y001345D03*
X026482Y001345D03*
X026482Y001343D03*
X026482Y001342D03*
X026482Y001341D03*
X026482Y001340D03*
X026482Y001339D03*
X026482Y001338D03*
X026482Y001337D03*
X026482Y001336D03*
X026482Y001335D03*
X026482Y001333D03*
X026482Y001333D03*
X026482Y001332D03*
X026482Y001330D03*
X026482Y001329D03*
X026482Y001329D03*
X026482Y001327D03*
X026482Y001326D03*
X026482Y001325D03*
X026482Y001325D03*
X026482Y001323D03*
X026482Y001322D03*
X026482Y001321D03*
X026482Y001320D03*
X026482Y001319D03*
X026482Y001318D03*
X026482Y001317D03*
X026482Y001316D03*
X026482Y001315D03*
X026482Y001313D03*
X026482Y001313D03*
X026482Y001312D03*
X026482Y001310D03*
X026482Y001309D03*
X026482Y001309D03*
X026482Y001307D03*
X026482Y001306D03*
X026482Y001305D03*
X026482Y001305D03*
X026482Y001303D03*
X026482Y001302D03*
X026482Y001301D03*
X026482Y001300D03*
X026482Y001299D03*
X026482Y001298D03*
X026482Y001297D03*
X026482Y001296D03*
X026482Y001295D03*
X026482Y001293D03*
X026482Y001293D03*
X026482Y001292D03*
X026482Y001290D03*
X026482Y001289D03*
X026482Y001289D03*
X026482Y001287D03*
X026482Y001286D03*
X026482Y001285D03*
X026482Y001285D03*
X026482Y001283D03*
X026482Y001282D03*
X026482Y001281D03*
X026482Y001280D03*
X026482Y001279D03*
X026482Y001278D03*
X026482Y001277D03*
X026482Y001276D03*
X026482Y001275D03*
X026482Y001273D03*
X026482Y001273D03*
X026482Y001272D03*
X026482Y001270D03*
X026482Y001269D03*
X026482Y001269D03*
X026482Y001267D03*
X026482Y001266D03*
X026482Y001265D03*
X026482Y001265D03*
X026482Y001263D03*
X026482Y001262D03*
X026482Y001261D03*
X026482Y001260D03*
X026482Y001259D03*
X026482Y001258D03*
X026482Y001257D03*
X026482Y001256D03*
X026482Y001255D03*
X026482Y001253D03*
X026482Y001253D03*
X026482Y001252D03*
X026482Y001250D03*
X026482Y001249D03*
X026482Y001249D03*
X026482Y001247D03*
X026482Y001246D03*
X026482Y001245D03*
X026482Y001245D03*
X026482Y001243D03*
X026482Y001242D03*
X026482Y001241D03*
X026482Y001240D03*
X026482Y001239D03*
X026482Y001238D03*
X026482Y001237D03*
X026482Y001236D03*
X026482Y001235D03*
X026482Y001233D03*
X026482Y001233D03*
X026482Y001232D03*
X026482Y001230D03*
X026482Y001229D03*
X026482Y001229D03*
X026482Y001227D03*
X026482Y001226D03*
X026482Y001225D03*
X026482Y001225D03*
X026482Y001223D03*
X026482Y001222D03*
X026482Y001221D03*
X026482Y001220D03*
X026482Y001219D03*
X026482Y001218D03*
X026482Y001217D03*
X026482Y001216D03*
X026482Y001215D03*
X026482Y001213D03*
X026482Y001213D03*
X026482Y001212D03*
X026482Y001210D03*
X026482Y001209D03*
X026482Y001209D03*
X026482Y001207D03*
X026482Y001206D03*
X026482Y001205D03*
X026482Y001205D03*
X026482Y001203D03*
X026482Y001202D03*
X026482Y001201D03*
X026482Y001200D03*
X026482Y001199D03*
X026482Y001198D03*
X026482Y001197D03*
X026482Y001196D03*
X026482Y001195D03*
X026482Y001193D03*
X026482Y001193D03*
X026482Y001192D03*
X026482Y001190D03*
X026482Y001189D03*
X026482Y001189D03*
X026482Y001187D03*
X026482Y001186D03*
X026482Y001185D03*
X026482Y001185D03*
X026482Y001183D03*
X026482Y001182D03*
X026482Y001181D03*
X026482Y001180D03*
X026482Y001179D03*
X026482Y001178D03*
X026482Y001177D03*
X026482Y001176D03*
X026482Y001175D03*
X026482Y001173D03*
X026482Y001173D03*
X026482Y001172D03*
X026482Y001170D03*
X026482Y001169D03*
X026482Y001169D03*
X026482Y001167D03*
X026482Y001166D03*
X026482Y001165D03*
X026482Y001165D03*
X026482Y001163D03*
X026482Y001162D03*
X026482Y001161D03*
X026482Y001160D03*
X026482Y001159D03*
X026482Y001158D03*
X026482Y001157D03*
X026482Y001156D03*
X026482Y001155D03*
X026482Y001153D03*
X026482Y001153D03*
X026482Y001152D03*
D71*
X026482Y001154D03*
X026482Y001157D03*
X026482Y001161D03*
X026482Y001164D03*
X026482Y001168D03*
X026482Y001171D03*
X026482Y001174D03*
X026482Y001177D03*
X026482Y001181D03*
X026482Y001184D03*
X026482Y001188D03*
X026482Y001191D03*
X026482Y001194D03*
X026482Y001197D03*
X026482Y001201D03*
X026482Y001204D03*
X026482Y001208D03*
X026482Y001211D03*
X026482Y001214D03*
X026482Y001217D03*
X026482Y001221D03*
X026482Y001224D03*
X026482Y001228D03*
X026482Y001231D03*
X026482Y001234D03*
X026482Y001237D03*
X026482Y001241D03*
X026482Y001244D03*
X026482Y001248D03*
X026482Y001251D03*
X026482Y001254D03*
X026482Y001257D03*
X026482Y001261D03*
X026482Y001264D03*
X026482Y001268D03*
X026482Y001271D03*
X026482Y001274D03*
X026482Y001277D03*
X026482Y001281D03*
X026482Y001284D03*
X026482Y001288D03*
X026482Y001291D03*
X026482Y001294D03*
X026482Y001297D03*
X026482Y001301D03*
X026482Y001304D03*
X026482Y001308D03*
X026482Y001311D03*
X026482Y001314D03*
X026482Y001317D03*
X026482Y001321D03*
X026482Y001324D03*
X026482Y001328D03*
X026482Y001331D03*
X026482Y001334D03*
X026482Y001337D03*
X026482Y001341D03*
X026482Y001344D03*
X026482Y001348D03*
X026482Y001351D03*
X026482Y001354D03*
X026482Y001357D03*
X026482Y001361D03*
X026482Y001364D03*
X026482Y001368D03*
X026482Y001371D03*
X026482Y001374D03*
X026482Y001377D03*
X026482Y001381D03*
X026482Y001384D03*
X026482Y001388D03*
X026482Y001391D03*
X026482Y001394D03*
X026482Y001397D03*
X026482Y001401D03*
X026482Y001404D03*
X026482Y001408D03*
X026482Y001411D03*
X026482Y001414D03*
X026482Y001417D03*
X026482Y001421D03*
X026482Y001424D03*
X026482Y001428D03*
X026482Y001431D03*
X026482Y001434D03*
X026482Y001437D03*
X026482Y001441D03*
X026482Y001444D03*
X026482Y001448D03*
X026482Y001451D03*
X026482Y001454D03*
X026482Y001457D03*
X026482Y001461D03*
X026482Y001464D03*
X026482Y001468D03*
X026482Y001471D03*
X026482Y001474D03*
X026482Y001477D03*
X025495Y001477D03*
X025495Y001474D03*
X025495Y001471D03*
X025495Y001468D03*
X025495Y001464D03*
X025495Y001461D03*
X025495Y001457D03*
X025495Y001454D03*
X025495Y001451D03*
X025495Y001448D03*
X025495Y001444D03*
X025495Y001441D03*
X025495Y001437D03*
X025495Y001434D03*
X025495Y001431D03*
X025495Y001428D03*
X025495Y001424D03*
X025495Y001421D03*
X025495Y001417D03*
X025495Y001414D03*
X025495Y001411D03*
X025495Y001408D03*
X025495Y001404D03*
X025495Y001401D03*
X025495Y001397D03*
X025495Y001394D03*
X025495Y001391D03*
X025495Y001388D03*
X025495Y001384D03*
X025495Y001381D03*
X025495Y001377D03*
X025495Y001374D03*
X025495Y001371D03*
X025495Y001368D03*
X025495Y001364D03*
X025495Y001361D03*
X025495Y001357D03*
X025495Y001354D03*
X025495Y001351D03*
X025495Y001348D03*
X025495Y001344D03*
X025495Y001341D03*
X025495Y001337D03*
X025495Y001334D03*
X025495Y001331D03*
X025495Y001328D03*
X025495Y001324D03*
X025495Y001321D03*
X025495Y001317D03*
X025495Y001314D03*
X025495Y001311D03*
X025495Y001308D03*
X025495Y001304D03*
X025495Y001301D03*
X025495Y001297D03*
X025495Y001294D03*
X025495Y001291D03*
X025495Y001288D03*
X025495Y001284D03*
X025495Y001281D03*
X025495Y001277D03*
X025495Y001274D03*
X025495Y001271D03*
X025495Y001268D03*
X025495Y001264D03*
X025495Y001261D03*
X025495Y001257D03*
X025495Y001254D03*
X025495Y001251D03*
X025495Y001248D03*
X025495Y001244D03*
X025495Y001241D03*
X025495Y001237D03*
X025495Y001234D03*
X025495Y001231D03*
X025495Y001228D03*
X025495Y001224D03*
X025495Y001221D03*
X025495Y001217D03*
X025495Y001214D03*
X025495Y001211D03*
X025495Y001208D03*
X025495Y001204D03*
X025495Y001201D03*
X025495Y001197D03*
X025495Y001194D03*
X025495Y001191D03*
X025495Y001188D03*
X025495Y001184D03*
X025495Y001181D03*
X025495Y001177D03*
X025495Y001174D03*
X025495Y001171D03*
X025495Y001168D03*
X025495Y001164D03*
X025495Y001161D03*
X025495Y001157D03*
X025495Y001154D03*
X025495Y001481D03*
X025495Y001484D03*
D72*
X025495Y001489D03*
D73*
X026482Y001491D03*
D74*
X025495Y001491D03*
D75*
X026481Y001493D03*
D76*
X026482Y001494D03*
D77*
X025495Y001494D03*
D78*
X026482Y001496D03*
D79*
X026481Y001497D03*
D80*
X025495Y001497D03*
D81*
X026481Y001499D03*
D82*
X025495Y001499D03*
D83*
X026481Y001500D03*
D84*
X026481Y001501D03*
D85*
X025495Y001501D03*
D86*
X025495Y001506D03*
X026482Y001501D03*
D87*
X026482Y001502D03*
D88*
X025495Y001502D03*
D89*
X026482Y001503D03*
D90*
X026482Y001504D03*
D91*
X025495Y001504D03*
D92*
X026482Y001505D03*
D93*
X026482Y001505D03*
D94*
X025495Y001505D03*
D95*
X026481Y001507D03*
D96*
X026482Y001508D03*
D97*
X025495Y001508D03*
D98*
X026481Y001509D03*
D99*
X025495Y001509D03*
D100*
X026482Y001509D03*
D101*
X026482Y001510D03*
D102*
X026481Y001511D03*
D103*
X025495Y001511D03*
D104*
X026481Y001512D03*
D105*
X026482Y001513D03*
D106*
X025495Y001513D03*
D107*
X026482Y001513D03*
D108*
X026482Y001514D03*
D109*
X025495Y001514D03*
D110*
X026482Y001515D03*
D111*
X026479Y001516D03*
D112*
X025495Y001516D03*
D113*
X026480Y001517D03*
X026480Y001518D03*
X026480Y001519D03*
D114*
X026480Y001517D03*
D115*
X025495Y001517D03*
D116*
X025495Y001519D03*
D117*
X026480Y001520D03*
X026480Y001521D03*
D118*
X026480Y001521D03*
D119*
X025495Y001521D03*
D120*
X025489Y001521D03*
X025489Y001522D03*
X025489Y001523D03*
X026494Y001615D03*
X026494Y001616D03*
X026494Y001617D03*
D121*
X026481Y001525D03*
X026481Y001523D03*
X026481Y001522D03*
D122*
X026481Y001524D03*
D123*
X025489Y001524D03*
D124*
X025488Y001525D03*
X025488Y001525D03*
X025488Y001526D03*
X025488Y001527D03*
X026495Y001618D03*
X026495Y001619D03*
X026495Y001620D03*
D125*
X026481Y001527D03*
X026481Y001526D03*
X026481Y001525D03*
D126*
X026481Y001528D03*
D127*
X026495Y001621D03*
X025488Y001528D03*
D128*
X026481Y001529D03*
X026481Y001529D03*
D129*
X026495Y001621D03*
X026495Y001622D03*
X025488Y001530D03*
X025488Y001529D03*
X025488Y001529D03*
D130*
X026482Y001530D03*
X026482Y001532D03*
X026482Y001533D03*
D131*
X026482Y001531D03*
D132*
X026495Y001624D03*
X025487Y001531D03*
D133*
X025487Y001532D03*
X025487Y001533D03*
X025487Y001533D03*
X026495Y001623D03*
X026495Y001625D03*
D134*
X026482Y001535D03*
X026482Y001533D03*
D135*
X026482Y001534D03*
D136*
X026496Y001628D03*
X025487Y001537D03*
X025487Y001534D03*
D137*
X025487Y001535D03*
X025487Y001536D03*
X025487Y001537D03*
X026496Y001625D03*
X026496Y001626D03*
X026496Y001627D03*
D138*
X026483Y001538D03*
X026483Y001537D03*
X026483Y001536D03*
D139*
X026483Y001537D03*
D140*
X025487Y001538D03*
X025487Y001539D03*
X025487Y001540D03*
D141*
X026483Y001540D03*
X026483Y001539D03*
D142*
X026483Y001541D03*
D143*
X025487Y001541D03*
D144*
X026483Y001542D03*
X026483Y001541D03*
X026483Y001543D03*
D145*
X026497Y001632D03*
X026497Y001633D03*
X026497Y001633D03*
X025486Y001543D03*
X025486Y001542D03*
X025486Y001541D03*
D146*
X026484Y001544D03*
D147*
X026497Y001631D03*
X025486Y001544D03*
D148*
X026484Y001545D03*
X026484Y001545D03*
X026484Y001546D03*
D149*
X026497Y001635D03*
X026497Y001636D03*
X025486Y001547D03*
X025486Y001546D03*
X025486Y001545D03*
X025486Y001545D03*
D150*
X026484Y001547D03*
X026484Y001549D03*
D151*
X026484Y001548D03*
D152*
X026497Y001637D03*
X025485Y001548D03*
D153*
X025485Y001549D03*
X025485Y001549D03*
X025485Y001550D03*
X026497Y001637D03*
X026497Y001638D03*
D154*
X026485Y001552D03*
X026485Y001550D03*
X026485Y001549D03*
D155*
X026485Y001551D03*
D156*
X025485Y001551D03*
D157*
X025485Y001552D03*
X025485Y001553D03*
X025485Y001553D03*
D158*
X026485Y001553D03*
X026485Y001553D03*
D159*
X026485Y001554D03*
D160*
X026498Y001644D03*
X025485Y001557D03*
X025485Y001554D03*
D161*
X026485Y001555D03*
X026485Y001556D03*
X026485Y001557D03*
D162*
X026498Y001642D03*
X026498Y001643D03*
X025485Y001557D03*
X025485Y001556D03*
X025485Y001555D03*
D163*
X026486Y001557D03*
D164*
X026486Y001558D03*
X026486Y001559D03*
X026486Y001560D03*
D165*
X026499Y001645D03*
X026499Y001645D03*
X026499Y001646D03*
X026499Y001647D03*
X025484Y001560D03*
X025484Y001559D03*
X025484Y001558D03*
D166*
X026486Y001561D03*
D167*
X025484Y001561D03*
D168*
X026486Y001562D03*
X026486Y001561D03*
D169*
X026499Y001649D03*
X026499Y001649D03*
X025484Y001563D03*
X025484Y001562D03*
X025484Y001561D03*
D170*
X026487Y001563D03*
X026487Y001565D03*
X026487Y001565D03*
D171*
X026487Y001564D03*
D172*
X026499Y001648D03*
X025484Y001564D03*
D173*
X025483Y001565D03*
X025483Y001565D03*
X025483Y001566D03*
X025483Y001567D03*
D174*
X026487Y001567D03*
X026487Y001566D03*
D175*
X026487Y001568D03*
D176*
X026500Y001654D03*
X025483Y001568D03*
D177*
X026487Y001569D03*
X026487Y001569D03*
X026487Y001570D03*
D178*
X026500Y001653D03*
X026500Y001653D03*
X026500Y001655D03*
X025483Y001570D03*
X025483Y001569D03*
X025483Y001569D03*
D179*
X026488Y001571D03*
D180*
X026500Y001657D03*
X025483Y001571D03*
D181*
X026488Y001572D03*
X026488Y001573D03*
X026488Y001573D03*
D182*
X026500Y001656D03*
X026500Y001657D03*
X025483Y001573D03*
X025483Y001573D03*
X025483Y001572D03*
D183*
X026488Y001574D03*
D184*
X026501Y001661D03*
X025482Y001577D03*
X025482Y001574D03*
D185*
X026488Y001575D03*
X026488Y001576D03*
D186*
X026501Y001658D03*
X026501Y001659D03*
X026501Y001660D03*
X025482Y001577D03*
X025482Y001576D03*
X025482Y001575D03*
D187*
X026489Y001577D03*
X026489Y001578D03*
X026489Y001579D03*
D188*
X026489Y001577D03*
D189*
X025482Y001578D03*
X025482Y001579D03*
X025482Y001580D03*
D190*
X026489Y001581D03*
X026489Y001580D03*
D191*
X026489Y001581D03*
D192*
X025482Y001581D03*
D193*
X025481Y001581D03*
X025481Y001582D03*
X025481Y001583D03*
X026501Y001665D03*
X026501Y001665D03*
D194*
X026489Y001583D03*
X026489Y001582D03*
D195*
X026489Y001584D03*
D196*
X026501Y001664D03*
X025481Y001584D03*
D197*
X026490Y001585D03*
X026490Y001585D03*
X026490Y001586D03*
X026490Y001587D03*
D198*
X026502Y001666D03*
X026502Y001667D03*
X026502Y001669D03*
X025481Y001587D03*
X025481Y001586D03*
X025481Y001585D03*
X025481Y001585D03*
D199*
X026490Y001588D03*
D200*
X026502Y001671D03*
X025481Y001588D03*
D201*
X026490Y001589D03*
X026490Y001589D03*
D202*
X026502Y001669D03*
X026502Y001670D03*
X025481Y001590D03*
X025481Y001589D03*
X025481Y001589D03*
D203*
X026491Y001590D03*
X026491Y001592D03*
X026491Y001593D03*
D204*
X026491Y001591D03*
D205*
X026503Y001674D03*
X025480Y001591D03*
D206*
X025480Y001592D03*
X025480Y001593D03*
X025480Y001593D03*
X026503Y001672D03*
X026503Y001673D03*
X026503Y001673D03*
D207*
X026491Y001595D03*
X026491Y001593D03*
D208*
X026491Y001594D03*
D209*
X025480Y001594D03*
X025480Y001597D03*
D210*
X025480Y001597D03*
X025480Y001596D03*
X025480Y001595D03*
X026503Y001675D03*
X026503Y001676D03*
X026503Y001677D03*
D211*
X026491Y001597D03*
X026491Y001596D03*
D212*
X026491Y001597D03*
D213*
X026492Y001598D03*
X026492Y001599D03*
X026492Y001600D03*
D214*
X026503Y001678D03*
X026503Y001679D03*
X025479Y001600D03*
X025479Y001599D03*
X025479Y001598D03*
D215*
X026492Y001601D03*
D216*
X026503Y001677D03*
X025479Y001601D03*
D217*
X026492Y001602D03*
X026492Y001601D03*
X026492Y001603D03*
D218*
X026504Y001680D03*
X026504Y001681D03*
X026504Y001682D03*
X025479Y001603D03*
X025479Y001602D03*
X025479Y001601D03*
D219*
X026493Y001604D03*
D220*
X026504Y001681D03*
X025479Y001604D03*
D221*
X026493Y001605D03*
X026493Y001605D03*
X026493Y001606D03*
D222*
X026504Y001683D03*
X026504Y001685D03*
X025479Y001607D03*
X025479Y001606D03*
X025479Y001605D03*
X025479Y001605D03*
D223*
X026493Y001607D03*
X026493Y001609D03*
D224*
X026493Y001608D03*
D225*
X026505Y001688D03*
X025478Y001608D03*
D226*
X025478Y001609D03*
X025478Y001609D03*
X025478Y001610D03*
X026505Y001685D03*
X026505Y001686D03*
X026505Y001687D03*
D227*
X026493Y001610D03*
X026493Y001609D03*
D228*
X026493Y001611D03*
D229*
X025478Y001611D03*
D230*
X026494Y001612D03*
X026494Y001613D03*
X026494Y001613D03*
D231*
X026505Y001689D03*
X026505Y001689D03*
X026505Y001690D03*
X025478Y001613D03*
X025478Y001613D03*
X025478Y001612D03*
D232*
X026494Y001614D03*
D233*
X026505Y001691D03*
X025477Y001617D03*
X025477Y001614D03*
D234*
X025477Y001615D03*
X025477Y001616D03*
X025477Y001617D03*
X026505Y001692D03*
X026505Y001693D03*
X026505Y001693D03*
D235*
X026495Y001617D03*
D236*
X026506Y001695D03*
X026506Y001696D03*
X025477Y001620D03*
X025477Y001619D03*
X025477Y001618D03*
D237*
X025477Y001621D03*
X026506Y001694D03*
D238*
X025477Y001623D03*
X025477Y001622D03*
X025477Y001621D03*
D239*
X025477Y001624D03*
D240*
X025476Y001625D03*
X025476Y001625D03*
X025476Y001626D03*
X025476Y001627D03*
X026507Y001699D03*
X026507Y001700D03*
X026507Y001701D03*
D241*
X026507Y001704D03*
X025476Y001628D03*
D242*
X026496Y001629D03*
X026496Y001629D03*
X026496Y001630D03*
D243*
X026507Y001702D03*
X026507Y001703D03*
X025476Y001630D03*
X025476Y001629D03*
X025476Y001629D03*
D244*
X025475Y001631D03*
D245*
X025475Y001632D03*
X025475Y001633D03*
X025475Y001633D03*
X026507Y001705D03*
X026507Y001705D03*
X026507Y001706D03*
X026507Y001707D03*
D246*
X026497Y001634D03*
D247*
X025475Y001634D03*
X025475Y001637D03*
D248*
X025475Y001637D03*
X025475Y001636D03*
X025475Y001635D03*
D249*
X025475Y001638D03*
X025475Y001639D03*
X025475Y001640D03*
X026508Y001710D03*
X026508Y001712D03*
D250*
X026498Y001641D03*
X026498Y001640D03*
X026498Y001639D03*
D251*
X026498Y001641D03*
D252*
X026508Y001711D03*
X025475Y001641D03*
D253*
X025474Y001641D03*
X025474Y001642D03*
X025474Y001643D03*
X026509Y001713D03*
X026509Y001713D03*
X026509Y001715D03*
D254*
X026509Y001714D03*
X025474Y001644D03*
D255*
X025474Y001645D03*
X025474Y001645D03*
X025474Y001646D03*
X025474Y001647D03*
X026509Y001716D03*
X026509Y001717D03*
D256*
X025473Y001648D03*
D257*
X025473Y001649D03*
X025473Y001649D03*
X025473Y001650D03*
D258*
X026499Y001650D03*
X026499Y001652D03*
D259*
X026499Y001651D03*
D260*
X025473Y001651D03*
D261*
X025473Y001652D03*
X025473Y001653D03*
X025473Y001653D03*
X026510Y001721D03*
X026510Y001722D03*
X026510Y001723D03*
D262*
X026510Y001724D03*
X025473Y001657D03*
X025473Y001654D03*
D263*
X025473Y001655D03*
X025473Y001656D03*
X025473Y001657D03*
X026510Y001725D03*
X026510Y001725D03*
D264*
X026511Y001726D03*
X026511Y001727D03*
X026511Y001729D03*
X025472Y001660D03*
X025472Y001659D03*
X025472Y001658D03*
D265*
X025472Y001661D03*
X026511Y001728D03*
D266*
X026501Y001663D03*
X026501Y001662D03*
X026501Y001661D03*
D267*
X025472Y001662D03*
X025472Y001661D03*
X025472Y001663D03*
D268*
X025472Y001664D03*
D269*
X025471Y001665D03*
X025471Y001665D03*
X025471Y001666D03*
X025471Y001667D03*
X026511Y001732D03*
X026511Y001733D03*
X026511Y001733D03*
D270*
X026502Y001668D03*
D271*
X025471Y001668D03*
D272*
X025471Y001669D03*
X025471Y001669D03*
X025471Y001670D03*
X026512Y001735D03*
X026512Y001736D03*
X026512Y001737D03*
D273*
X026512Y001737D03*
X025471Y001671D03*
D274*
X025471Y001672D03*
X025471Y001673D03*
X025471Y001673D03*
X026512Y001738D03*
X026512Y001739D03*
D275*
X026513Y001741D03*
X025470Y001677D03*
X025470Y001674D03*
D276*
X025470Y001675D03*
X025470Y001676D03*
X025470Y001677D03*
X026513Y001740D03*
X026513Y001741D03*
X026513Y001742D03*
D277*
X026513Y001743D03*
X026513Y001745D03*
X025470Y001680D03*
X025470Y001679D03*
X025470Y001678D03*
D278*
X025470Y001681D03*
X026513Y001744D03*
D279*
X026513Y001745D03*
X026513Y001746D03*
X026513Y001747D03*
X025469Y001683D03*
X025469Y001682D03*
X025469Y001681D03*
D280*
X026504Y001684D03*
D281*
X026513Y001748D03*
X025469Y001684D03*
D282*
X025469Y001685D03*
X025469Y001685D03*
X025469Y001686D03*
X025469Y001687D03*
X026514Y001749D03*
X026514Y001749D03*
X026514Y001750D03*
D283*
X026514Y001751D03*
X025469Y001688D03*
D284*
X025469Y001689D03*
X025469Y001689D03*
X025469Y001690D03*
X026514Y001752D03*
X026514Y001753D03*
D285*
X026515Y001754D03*
X025468Y001691D03*
D286*
X025468Y001692D03*
X025468Y001693D03*
X025468Y001693D03*
X026515Y001753D03*
X026515Y001755D03*
X026515Y001756D03*
D287*
X026515Y001757D03*
X025468Y001697D03*
X025468Y001694D03*
D288*
X025468Y001695D03*
X025468Y001696D03*
X025468Y001697D03*
X026515Y001757D03*
X026515Y001758D03*
D289*
X026506Y001698D03*
X026506Y001697D03*
D290*
X026506Y001697D03*
D291*
X026515Y001759D03*
X026515Y001760D03*
X026515Y001761D03*
X025467Y001700D03*
X025467Y001699D03*
X025467Y001698D03*
D292*
X026507Y001701D03*
D293*
X026515Y001761D03*
X025467Y001701D03*
D294*
X025467Y001701D03*
X025467Y001702D03*
X025467Y001703D03*
X026516Y001762D03*
X026516Y001763D03*
D295*
X026516Y001764D03*
X025467Y001704D03*
D296*
X025467Y001705D03*
X025467Y001705D03*
X025467Y001706D03*
X025467Y001707D03*
D297*
X026508Y001708D03*
D298*
X026517Y001768D03*
X025466Y001708D03*
D299*
X026508Y001709D03*
X026508Y001709D03*
D300*
X026517Y001767D03*
X026517Y001769D03*
X026517Y001769D03*
X025466Y001710D03*
X025466Y001709D03*
X025466Y001709D03*
D301*
X025466Y001711D03*
X026517Y001771D03*
D302*
X026517Y001772D03*
X026517Y001770D03*
X025466Y001713D03*
X025466Y001713D03*
X025466Y001712D03*
D303*
X025465Y001714D03*
X025465Y001717D03*
X026517Y001774D03*
D304*
X026517Y001773D03*
X026517Y001773D03*
X026517Y001775D03*
X025465Y001717D03*
X025465Y001716D03*
X025465Y001715D03*
D305*
X026509Y001717D03*
D306*
X026509Y001718D03*
X026509Y001719D03*
X026509Y001720D03*
D307*
X025465Y001720D03*
X025465Y001719D03*
X025465Y001718D03*
D308*
X026509Y001721D03*
D309*
X025465Y001721D03*
D310*
X025465Y001721D03*
X025465Y001722D03*
X025465Y001723D03*
X026518Y001778D03*
X026518Y001779D03*
X026518Y001780D03*
D311*
X025465Y001724D03*
D312*
X025464Y001725D03*
X025464Y001725D03*
X025464Y001726D03*
X025464Y001727D03*
X026519Y001781D03*
X026519Y001782D03*
X026519Y001783D03*
D313*
X026519Y001784D03*
X025464Y001728D03*
D314*
X025464Y001729D03*
X025464Y001729D03*
X025464Y001730D03*
X026519Y001785D03*
X026519Y001785D03*
D315*
X026511Y001730D03*
X026511Y001729D03*
D316*
X026511Y001731D03*
D317*
X025463Y001731D03*
D318*
X025463Y001732D03*
X025463Y001733D03*
X025463Y001733D03*
D319*
X026511Y001734D03*
D320*
X026520Y001791D03*
X025463Y001737D03*
X025463Y001734D03*
D321*
X025463Y001735D03*
X025463Y001736D03*
X025463Y001737D03*
X026520Y001789D03*
X026520Y001790D03*
D322*
X026520Y001792D03*
X026520Y001793D03*
X026520Y001793D03*
X025463Y001740D03*
X025463Y001739D03*
X025463Y001738D03*
D323*
X025463Y001741D03*
D324*
X025462Y001741D03*
X025462Y001742D03*
X025462Y001743D03*
X026521Y001795D03*
X026521Y001796D03*
X026521Y001797D03*
D325*
X026521Y001794D03*
X025462Y001744D03*
D326*
X025462Y001745D03*
X025462Y001745D03*
X025462Y001746D03*
X025462Y001747D03*
D327*
X025461Y001748D03*
X026521Y001801D03*
D328*
X026521Y001801D03*
X026521Y001802D03*
X026521Y001800D03*
X025461Y001750D03*
X025461Y001749D03*
X025461Y001749D03*
D329*
X025461Y001751D03*
X026522Y001804D03*
D330*
X026522Y001805D03*
X026522Y001803D03*
X025461Y001753D03*
X025461Y001753D03*
X025461Y001752D03*
D331*
X025461Y001754D03*
X025461Y001757D03*
D332*
X025461Y001757D03*
X025461Y001756D03*
X025461Y001755D03*
X026522Y001805D03*
X026522Y001806D03*
X026522Y001807D03*
D333*
X026523Y001809D03*
X026523Y001809D03*
X026523Y001810D03*
X025460Y001760D03*
X025460Y001759D03*
X025460Y001758D03*
D334*
X025460Y001761D03*
X026523Y001808D03*
D335*
X026523Y001812D03*
X026523Y001813D03*
X025460Y001763D03*
X025460Y001762D03*
X025460Y001761D03*
D336*
X025460Y001764D03*
X026523Y001811D03*
D337*
X026516Y001766D03*
X026516Y001765D03*
X026516Y001765D03*
D338*
X026523Y001813D03*
X026523Y001815D03*
X026523Y001816D03*
X025459Y001767D03*
X025459Y001766D03*
X025459Y001765D03*
X025459Y001765D03*
D339*
X025459Y001768D03*
X026524Y001817D03*
D340*
X026524Y001817D03*
X026524Y001818D03*
X025459Y001770D03*
X025459Y001769D03*
X025459Y001769D03*
D341*
X025459Y001771D03*
X026524Y001821D03*
D342*
X026524Y001820D03*
X026524Y001819D03*
X025459Y001773D03*
X025459Y001773D03*
X025459Y001772D03*
D343*
X025458Y001774D03*
X025458Y001777D03*
X026525Y001824D03*
D344*
X026525Y001823D03*
X026525Y001822D03*
X026525Y001821D03*
X025458Y001777D03*
X025458Y001776D03*
X025458Y001775D03*
D345*
X026518Y001777D03*
X026518Y001776D03*
D346*
X026518Y001777D03*
D347*
X026525Y001825D03*
X026525Y001825D03*
X026525Y001826D03*
X025458Y001780D03*
X025458Y001779D03*
X025458Y001778D03*
D348*
X026519Y001781D03*
D349*
X025458Y001781D03*
D350*
X025457Y001781D03*
X025457Y001782D03*
X025457Y001783D03*
X026525Y001827D03*
X026525Y001829D03*
X026525Y001829D03*
D351*
X026525Y001828D03*
X025457Y001784D03*
D352*
X025457Y001785D03*
X025457Y001785D03*
X025457Y001786D03*
X025457Y001787D03*
X026526Y001830D03*
X026526Y001832D03*
D353*
X026519Y001789D03*
X026519Y001787D03*
X026519Y001786D03*
D354*
X026519Y001788D03*
D355*
X025457Y001788D03*
D356*
X025457Y001789D03*
X025457Y001789D03*
X025457Y001790D03*
D357*
X025456Y001791D03*
X026527Y001837D03*
D358*
X026527Y001837D03*
X026527Y001836D03*
X026527Y001835D03*
X025456Y001793D03*
X025456Y001793D03*
X025456Y001792D03*
D359*
X025456Y001794D03*
X025456Y001797D03*
D360*
X025456Y001797D03*
X025456Y001796D03*
X025456Y001795D03*
X026527Y001838D03*
X026527Y001839D03*
X026527Y001840D03*
D361*
X026521Y001797D03*
D362*
X026521Y001798D03*
X026521Y001799D03*
D363*
X026527Y001841D03*
X026527Y001842D03*
X026527Y001843D03*
X025455Y001800D03*
X025455Y001799D03*
X025455Y001798D03*
D364*
X025455Y001801D03*
X026527Y001841D03*
D365*
X025455Y001803D03*
X025455Y001802D03*
X025455Y001801D03*
D366*
X025455Y001804D03*
D367*
X025455Y001805D03*
X025455Y001805D03*
X025455Y001806D03*
X025455Y001807D03*
X026528Y001846D03*
X026528Y001847D03*
D368*
X026529Y001851D03*
X025454Y001808D03*
D369*
X025454Y001809D03*
X025454Y001809D03*
X025454Y001810D03*
X026529Y001849D03*
X026529Y001849D03*
X026529Y001850D03*
D370*
X025454Y001811D03*
D371*
X025454Y001812D03*
X025454Y001813D03*
X025454Y001813D03*
X026529Y001852D03*
X026529Y001853D03*
X026529Y001853D03*
D372*
X026523Y001814D03*
D373*
X025453Y001814D03*
X025453Y001817D03*
D374*
X025453Y001817D03*
X025453Y001816D03*
X025453Y001815D03*
D375*
X025453Y001818D03*
X025453Y001819D03*
X025453Y001820D03*
X026530Y001858D03*
X026530Y001859D03*
D376*
X026530Y001857D03*
X025453Y001821D03*
D377*
X025453Y001821D03*
X025453Y001822D03*
X025453Y001823D03*
X026530Y001860D03*
X026530Y001861D03*
D378*
X026530Y001861D03*
X025453Y001824D03*
D379*
X025452Y001825D03*
X025452Y001825D03*
X025452Y001826D03*
X025452Y001827D03*
X026531Y001862D03*
X026531Y001863D03*
X026531Y001865D03*
D380*
X025452Y001828D03*
D381*
X025452Y001829D03*
X025452Y001829D03*
X025452Y001830D03*
D382*
X026526Y001831D03*
D383*
X026531Y001868D03*
X025451Y001831D03*
D384*
X025451Y001832D03*
X025451Y001833D03*
X025451Y001833D03*
X026531Y001869D03*
X026531Y001869D03*
X026531Y001870D03*
D385*
X026526Y001833D03*
X026526Y001833D03*
D386*
X026526Y001834D03*
D387*
X026532Y001871D03*
X025451Y001837D03*
X025451Y001834D03*
D388*
X025451Y001835D03*
X025451Y001836D03*
X025451Y001837D03*
X026532Y001872D03*
X026532Y001873D03*
D389*
X026532Y001873D03*
X026532Y001875D03*
X025451Y001840D03*
X025451Y001839D03*
X025451Y001838D03*
D390*
X025451Y001841D03*
X026532Y001874D03*
D391*
X026533Y001876D03*
X026533Y001877D03*
X026533Y001878D03*
X025450Y001843D03*
X025450Y001842D03*
X025450Y001841D03*
D392*
X026528Y001844D03*
D393*
X026533Y001877D03*
X025450Y001844D03*
D394*
X026528Y001845D03*
X026528Y001845D03*
D395*
X026533Y001879D03*
X026533Y001880D03*
X025450Y001847D03*
X025450Y001846D03*
X025450Y001845D03*
X025450Y001845D03*
D396*
X026528Y001848D03*
D397*
X026533Y001884D03*
X025449Y001848D03*
D398*
X025449Y001849D03*
X025449Y001849D03*
X025449Y001850D03*
X026533Y001881D03*
X026533Y001882D03*
X026533Y001883D03*
D399*
X025449Y001851D03*
D400*
X025449Y001852D03*
X025449Y001853D03*
X025449Y001853D03*
X026534Y001885D03*
X026534Y001885D03*
X026534Y001886D03*
D401*
X026529Y001854D03*
D402*
X026534Y001888D03*
X025449Y001857D03*
X025449Y001854D03*
D403*
X026529Y001855D03*
X026529Y001856D03*
X026529Y001857D03*
D404*
X026534Y001887D03*
X026534Y001889D03*
X025449Y001857D03*
X025449Y001856D03*
X025449Y001855D03*
D405*
X025448Y001858D03*
X025448Y001859D03*
X025448Y001860D03*
X026535Y001889D03*
X026535Y001890D03*
X026535Y001892D03*
D406*
X026535Y001891D03*
X025448Y001861D03*
D407*
X025448Y001861D03*
X025448Y001862D03*
X025448Y001863D03*
X026535Y001893D03*
X026535Y001893D03*
D408*
X026531Y001864D03*
D409*
X026535Y001894D03*
X025448Y001864D03*
D410*
X025447Y001865D03*
X025447Y001865D03*
X025447Y001866D03*
X025447Y001867D03*
X026535Y001895D03*
X026535Y001896D03*
X026535Y001897D03*
D411*
X026531Y001867D03*
X026531Y001866D03*
X026531Y001865D03*
D412*
X025447Y001868D03*
D413*
X025447Y001869D03*
X025447Y001869D03*
X025447Y001870D03*
X026536Y001898D03*
X026536Y001899D03*
X026536Y001900D03*
D414*
X025447Y001871D03*
D415*
X025447Y001872D03*
X025447Y001873D03*
X025447Y001873D03*
D416*
X025446Y001874D03*
X025446Y001877D03*
X026537Y001904D03*
D417*
X026537Y001905D03*
X026537Y001905D03*
X026537Y001903D03*
X025446Y001877D03*
X025446Y001876D03*
X025446Y001875D03*
D418*
X025446Y001878D03*
X025446Y001879D03*
X025446Y001880D03*
X026537Y001906D03*
X026537Y001907D03*
D419*
X026533Y001881D03*
D420*
X026537Y001908D03*
X025446Y001881D03*
D421*
X025445Y001881D03*
X025445Y001882D03*
X025445Y001883D03*
X026537Y001909D03*
X026537Y001909D03*
X026537Y001910D03*
D422*
X026537Y001911D03*
X025445Y001884D03*
D423*
X025445Y001885D03*
X025445Y001885D03*
X025445Y001886D03*
X025445Y001887D03*
D424*
X025445Y001888D03*
X026538Y001914D03*
D425*
X026538Y001915D03*
X026538Y001916D03*
X025445Y001890D03*
X025445Y001889D03*
X025445Y001889D03*
D426*
X025444Y001891D03*
X026539Y001917D03*
D427*
X026539Y001917D03*
X026539Y001918D03*
X026539Y001919D03*
X025444Y001893D03*
X025444Y001893D03*
X025444Y001892D03*
D428*
X025444Y001894D03*
X025444Y001897D03*
X026539Y001921D03*
D429*
X026539Y001921D03*
X026539Y001920D03*
X025444Y001897D03*
X025444Y001896D03*
X025444Y001895D03*
D430*
X026535Y001897D03*
D431*
X025443Y001898D03*
X025443Y001899D03*
X025443Y001900D03*
D432*
X026536Y001901D03*
D433*
X025443Y001901D03*
D434*
X026536Y001902D03*
X026536Y001901D03*
D435*
X026540Y001925D03*
X026540Y001926D03*
X026540Y001927D03*
X025443Y001903D03*
X025443Y001902D03*
X025443Y001901D03*
D436*
X025443Y001904D03*
D437*
X025443Y001905D03*
X025443Y001905D03*
X025443Y001906D03*
X025443Y001907D03*
X026540Y001929D03*
X026540Y001929D03*
D438*
X026541Y001931D03*
X025442Y001908D03*
D439*
X025442Y001909D03*
X025442Y001909D03*
X025442Y001910D03*
X026541Y001930D03*
X026541Y001932D03*
X026541Y001933D03*
D440*
X025442Y001911D03*
D441*
X026538Y001913D03*
X026538Y001913D03*
X026538Y001912D03*
D442*
X025442Y001913D03*
X025442Y001913D03*
X025442Y001912D03*
D443*
X025441Y001914D03*
X025441Y001917D03*
X026541Y001937D03*
D444*
X026541Y001937D03*
X026541Y001938D03*
X026541Y001936D03*
X025441Y001917D03*
X025441Y001916D03*
X025441Y001915D03*
D445*
X025441Y001918D03*
X025441Y001919D03*
X025441Y001920D03*
X026542Y001939D03*
X026542Y001940D03*
D446*
X026542Y001941D03*
X025441Y001921D03*
D447*
X025441Y001921D03*
X025441Y001922D03*
X025441Y001923D03*
X026542Y001941D03*
X026542Y001942D03*
X026542Y001943D03*
D448*
X026539Y001925D03*
X026539Y001923D03*
X026539Y001922D03*
D449*
X026539Y001924D03*
D450*
X025441Y001924D03*
D451*
X025440Y001925D03*
X025440Y001925D03*
X025440Y001926D03*
X025440Y001927D03*
X026543Y001945D03*
X026543Y001945D03*
X026543Y001946D03*
D452*
X026540Y001928D03*
D453*
X026543Y001948D03*
X025440Y001928D03*
D454*
X025440Y001929D03*
X025440Y001929D03*
X025440Y001930D03*
X026543Y001947D03*
X026543Y001949D03*
D455*
X026543Y001951D03*
X025439Y001931D03*
D456*
X025439Y001932D03*
X025439Y001933D03*
X025439Y001933D03*
X026543Y001949D03*
X026543Y001950D03*
X026543Y001952D03*
D457*
X026541Y001935D03*
X026541Y001933D03*
D458*
X026541Y001934D03*
D459*
X026544Y001954D03*
X025439Y001937D03*
X025439Y001934D03*
D460*
X025439Y001935D03*
X025439Y001936D03*
X025439Y001937D03*
X026544Y001953D03*
X026544Y001953D03*
D461*
X026544Y001955D03*
X026544Y001956D03*
X026544Y001957D03*
X025439Y001940D03*
X025439Y001939D03*
X025439Y001938D03*
D462*
X025439Y001941D03*
D463*
X025438Y001941D03*
X025438Y001942D03*
X025438Y001943D03*
X026545Y001958D03*
X026545Y001959D03*
X026545Y001960D03*
D464*
X026543Y001944D03*
D465*
X026545Y001957D03*
X025438Y001944D03*
D466*
X025438Y001945D03*
X025438Y001945D03*
X025438Y001946D03*
X025438Y001947D03*
X026545Y001961D03*
X026545Y001962D03*
D467*
X026545Y001964D03*
X025437Y001948D03*
D468*
X025437Y001949D03*
X025437Y001949D03*
X025437Y001950D03*
X026545Y001963D03*
X026545Y001965D03*
X026545Y001965D03*
D469*
X026546Y001968D03*
X025437Y001951D03*
D470*
X025437Y001952D03*
X025437Y001953D03*
X025437Y001953D03*
X026546Y001966D03*
X026546Y001967D03*
D471*
X025437Y001957D03*
X025437Y001954D03*
D472*
X025437Y001955D03*
X025437Y001956D03*
X025437Y001957D03*
D473*
X025436Y001958D03*
X025436Y001959D03*
X025436Y001960D03*
X026547Y001972D03*
X026547Y001973D03*
X026547Y001973D03*
D474*
X026545Y001961D03*
D475*
X026547Y001971D03*
X025436Y001961D03*
D476*
X025436Y001961D03*
X025436Y001962D03*
X025436Y001963D03*
X026547Y001975D03*
X026547Y001976D03*
D477*
X026547Y001974D03*
X025436Y001964D03*
D478*
X025435Y001965D03*
X025435Y001965D03*
X025435Y001966D03*
X025435Y001967D03*
X026547Y001977D03*
X026547Y001978D03*
X026547Y001979D03*
D479*
X025435Y001968D03*
D480*
X026546Y001969D03*
X026546Y001969D03*
X026546Y001970D03*
D481*
X025435Y001970D03*
X025435Y001969D03*
X025435Y001969D03*
D482*
X025435Y001971D03*
X026548Y001984D03*
D483*
X026548Y001983D03*
X026548Y001982D03*
X025435Y001973D03*
X025435Y001973D03*
X025435Y001972D03*
D484*
X025434Y001974D03*
X025434Y001977D03*
D485*
X025434Y001977D03*
X025434Y001976D03*
X025434Y001975D03*
X026549Y001985D03*
X026549Y001985D03*
X026549Y001986D03*
X026549Y001987D03*
D486*
X026547Y001977D03*
D487*
X026549Y001989D03*
X026549Y001989D03*
X025434Y001980D03*
X025434Y001979D03*
X025434Y001978D03*
D488*
X026548Y001980D03*
X026548Y001981D03*
D489*
X026548Y001981D03*
D490*
X026549Y001988D03*
X025434Y001981D03*
D491*
X025433Y001981D03*
X025433Y001982D03*
X025433Y001983D03*
D492*
X025433Y001984D03*
D493*
X025433Y001985D03*
X025433Y001985D03*
X025433Y001986D03*
X025433Y001987D03*
X026550Y001993D03*
X026550Y001995D03*
D494*
X026550Y001997D03*
X025433Y001988D03*
D495*
X025433Y001989D03*
X025433Y001989D03*
X025433Y001990D03*
X026550Y001996D03*
X026550Y001997D03*
D496*
X026549Y001993D03*
X026549Y001992D03*
X026549Y001990D03*
D497*
X026549Y001991D03*
D498*
X026551Y002001D03*
X025432Y001991D03*
D499*
X025432Y001992D03*
X025432Y001993D03*
X025432Y001993D03*
X026551Y001998D03*
X026551Y001999D03*
X026551Y002000D03*
D500*
X026550Y001994D03*
D501*
X025432Y001994D03*
X025432Y001997D03*
D502*
X025432Y001997D03*
X025432Y001996D03*
X025432Y001995D03*
D503*
X025431Y001998D03*
X025431Y001999D03*
X025431Y002000D03*
X026551Y002005D03*
X026551Y002005D03*
X026551Y002006D03*
D504*
X026551Y002004D03*
X025431Y002001D03*
D505*
X026551Y002002D03*
X026551Y002001D03*
X026551Y002003D03*
D506*
X026552Y002007D03*
X026552Y002009D03*
X025431Y002003D03*
X025431Y002002D03*
X025431Y002001D03*
D507*
X025431Y002004D03*
X026552Y002008D03*
D508*
X026552Y002009D03*
X026552Y002010D03*
X025431Y002007D03*
X025431Y002006D03*
X025431Y002005D03*
X025431Y002005D03*
D509*
X025430Y002008D03*
X026553Y002014D03*
D510*
X026553Y002013D03*
X026553Y002013D03*
X026553Y002012D03*
X025430Y002010D03*
X025430Y002009D03*
X025430Y002009D03*
D511*
X026552Y002011D03*
D512*
X025430Y002011D03*
D513*
X025430Y002012D03*
X025430Y002013D03*
X025430Y002013D03*
X026553Y002015D03*
X026553Y002016D03*
X026553Y002017D03*
D514*
X026553Y002017D03*
X025429Y002017D03*
X025429Y002014D03*
D515*
X025429Y002015D03*
X025429Y002016D03*
X025429Y002017D03*
X026553Y002018D03*
X026553Y002019D03*
X026553Y002020D03*
D516*
X026554Y002021D03*
X026554Y002022D03*
X025429Y002020D03*
X025429Y002019D03*
X025429Y002018D03*
D517*
X025429Y002021D03*
X026554Y002021D03*
D518*
X026554Y002023D03*
X026554Y002025D03*
X025429Y002023D03*
X025429Y002022D03*
X025429Y002021D03*
D519*
X025429Y002024D03*
X026554Y002024D03*
D520*
X026555Y002025D03*
X026555Y002026D03*
X026555Y002027D03*
X025428Y002027D03*
X025428Y002026D03*
X025428Y002025D03*
X025428Y002025D03*
D521*
X026555Y002028D03*
D522*
X025428Y002028D03*
D523*
X025428Y002029D03*
X025428Y002029D03*
X025428Y002030D03*
X026555Y002030D03*
X026555Y002029D03*
X026555Y002029D03*
D524*
X026555Y002031D03*
X025427Y002031D03*
D525*
X025427Y002032D03*
X025427Y002033D03*
X025427Y002033D03*
X026555Y002033D03*
X026555Y002033D03*
X026555Y002032D03*
D526*
X026556Y002034D03*
X025427Y002034D03*
X025427Y002037D03*
D527*
X025427Y002037D03*
X025427Y002036D03*
X025427Y002035D03*
X026556Y002036D03*
X026556Y002035D03*
D528*
X026556Y002037D03*
X026556Y002038D03*
D529*
X026556Y002037D03*
D530*
X025427Y002038D03*
X025427Y002039D03*
X025427Y002040D03*
D531*
X025426Y002041D03*
X025426Y002042D03*
X025426Y002043D03*
X026557Y002041D03*
X026557Y002040D03*
X026557Y002039D03*
D532*
X026557Y002041D03*
X025426Y002044D03*
D533*
X025427Y002041D03*
D534*
X025426Y002045D03*
X025426Y002045D03*
X025426Y002046D03*
X025426Y002047D03*
X026557Y002043D03*
X026557Y002042D03*
D535*
X026557Y002044D03*
D536*
X026557Y002045D03*
X026557Y002045D03*
X026557Y002046D03*
X026557Y002047D03*
X025425Y002049D03*
X025425Y002049D03*
X025425Y002050D03*
D537*
X026558Y002048D03*
D538*
X025425Y002048D03*
D539*
X026558Y002049D03*
X026558Y002049D03*
D540*
X026558Y002050D03*
X026558Y002052D03*
X025425Y002055D03*
X025425Y002056D03*
X025425Y002057D03*
D541*
X025425Y002057D03*
X025425Y002054D03*
X026558Y002051D03*
D542*
X025425Y002051D03*
D543*
X025425Y002052D03*
X025425Y002053D03*
X025425Y002053D03*
D544*
X025424Y002058D03*
X025424Y002059D03*
X025424Y002060D03*
X026559Y002055D03*
X026559Y002053D03*
X026559Y002053D03*
D545*
X026559Y002054D03*
X025424Y002061D03*
D546*
X025424Y002061D03*
X025424Y002062D03*
X025424Y002063D03*
X026559Y002057D03*
X026559Y002056D03*
D547*
X026559Y002057D03*
X025424Y002064D03*
D548*
X026559Y002060D03*
X026559Y002059D03*
X026559Y002058D03*
D549*
X026559Y002061D03*
D550*
X026560Y002061D03*
X026560Y002062D03*
X026560Y002063D03*
X025423Y002069D03*
X025423Y002069D03*
X025423Y002070D03*
D551*
X025423Y002071D03*
X026560Y002064D03*
D552*
X026560Y002065D03*
X026560Y002065D03*
X025423Y002072D03*
X025423Y002073D03*
X025423Y002073D03*
D553*
X025423Y002067D03*
X025423Y002066D03*
X025423Y002065D03*
X025423Y002065D03*
D554*
X025422Y002075D03*
X025422Y002076D03*
X025422Y002077D03*
X026561Y002069D03*
X026561Y002067D03*
X026561Y002066D03*
D555*
X026561Y002068D03*
X025422Y002074D03*
X025422Y002077D03*
D556*
X025423Y002068D03*
D557*
X026561Y002069D03*
X026561Y002070D03*
D558*
X026561Y002071D03*
D559*
X026561Y002072D03*
X026561Y002073D03*
X026561Y002073D03*
X025421Y002081D03*
X025421Y002082D03*
X025421Y002083D03*
D560*
X025421Y002084D03*
X026561Y002074D03*
D561*
X026562Y002075D03*
X026562Y002076D03*
X026562Y002077D03*
X025421Y002085D03*
X025421Y002085D03*
X025421Y002086D03*
X025421Y002087D03*
D562*
X025421Y002088D03*
X026562Y002077D03*
D563*
X026562Y002078D03*
X026562Y002079D03*
X025421Y002089D03*
X025421Y002089D03*
X025421Y002090D03*
D564*
X025422Y002080D03*
X025422Y002079D03*
X025422Y002078D03*
D565*
X025420Y002092D03*
X025420Y002093D03*
X025420Y002093D03*
X026563Y002082D03*
X026563Y002081D03*
X026563Y002080D03*
D566*
X026563Y002081D03*
X025420Y002091D03*
D567*
X025422Y002081D03*
D568*
X025420Y002095D03*
X025420Y002096D03*
X025420Y002097D03*
X026563Y002085D03*
X026563Y002083D03*
D569*
X026563Y002084D03*
X025420Y002094D03*
X025420Y002097D03*
D570*
X025419Y002098D03*
X025419Y002099D03*
X025419Y002100D03*
X026563Y002087D03*
X026563Y002086D03*
X026563Y002085D03*
D571*
X026563Y002088D03*
X025419Y002101D03*
D572*
X025419Y002101D03*
X025419Y002102D03*
X025419Y002103D03*
X026564Y002090D03*
X026564Y002089D03*
X026564Y002089D03*
D573*
X026564Y002091D03*
D574*
X026564Y002092D03*
X026564Y002093D03*
X025419Y002105D03*
X025419Y002105D03*
X025419Y002106D03*
X025419Y002107D03*
D575*
X025418Y002109D03*
X025418Y002109D03*
X025418Y002110D03*
X026565Y002096D03*
X026565Y002095D03*
X026565Y002093D03*
D576*
X026565Y002094D03*
X025418Y002108D03*
D577*
X025418Y002112D03*
X025418Y002113D03*
X025418Y002113D03*
X026565Y002098D03*
X026565Y002097D03*
D578*
X026565Y002097D03*
X025418Y002111D03*
D579*
X025417Y002115D03*
X026565Y002101D03*
X026565Y002100D03*
X026565Y002099D03*
D580*
X026565Y002101D03*
X025417Y002114D03*
D581*
X026566Y002103D03*
X026566Y002102D03*
D582*
X026566Y002104D03*
D583*
X025419Y002104D03*
D584*
X026566Y002105D03*
X026566Y002105D03*
X026566Y002106D03*
X026566Y002107D03*
D585*
X026567Y002108D03*
D586*
X026567Y002109D03*
X026567Y002109D03*
D587*
X026567Y002110D03*
X026567Y002112D03*
D588*
X026567Y002111D03*
D589*
X026567Y002113D03*
X026567Y002113D03*
X026567Y002115D03*
D590*
X026567Y002114D03*
D591*
X026478Y002116D03*
X026478Y002117D03*
X026478Y002118D03*
X026478Y002119D03*
X026478Y002120D03*
X026478Y002121D03*
X026478Y002122D03*
X026478Y002123D03*
X026478Y002125D03*
X026478Y002125D03*
X026478Y002126D03*
X026478Y002127D03*
X026478Y002129D03*
X026478Y002129D03*
X026478Y002130D03*
X026478Y002132D03*
X026478Y002133D03*
X026478Y002133D03*
X026478Y002135D03*
X026478Y002136D03*
X026478Y002137D03*
X026478Y002138D03*
X026478Y002139D03*
X026478Y002140D03*
X026478Y002141D03*
X026478Y002142D03*
X026478Y002143D03*
X026478Y002145D03*
X026478Y002145D03*
X026478Y002146D03*
X026478Y002147D03*
X026478Y002149D03*
X026478Y002149D03*
X026478Y002150D03*
X026478Y002152D03*
X026478Y002153D03*
X026478Y002153D03*
X026478Y002155D03*
X026478Y002156D03*
X026478Y002157D03*
X025505Y002157D03*
X025505Y002156D03*
X025505Y002155D03*
X025505Y002153D03*
X025505Y002153D03*
X025505Y002152D03*
X025505Y002150D03*
X025505Y002149D03*
X025505Y002149D03*
X025505Y002147D03*
X025505Y002146D03*
X025505Y002145D03*
X025505Y002145D03*
X025505Y002143D03*
X025505Y002142D03*
X025505Y002141D03*
X025505Y002140D03*
X025505Y002139D03*
X025505Y002138D03*
X025505Y002137D03*
X025505Y002136D03*
X025505Y002135D03*
X025505Y002133D03*
X025505Y002133D03*
X025505Y002132D03*
X025505Y002130D03*
X025505Y002129D03*
X025505Y002129D03*
X025505Y002127D03*
X025505Y002126D03*
X025505Y002125D03*
X025505Y002125D03*
X025505Y002123D03*
X025505Y002122D03*
X025505Y002121D03*
X025505Y002120D03*
X025505Y002119D03*
X025505Y002118D03*
X025505Y002117D03*
X025505Y002116D03*
D592*
X025505Y002117D03*
X025505Y002121D03*
X025505Y002124D03*
X025505Y002128D03*
X025505Y002131D03*
X025505Y002134D03*
X025505Y002137D03*
X025505Y002141D03*
X025505Y002144D03*
X025505Y002148D03*
X025505Y002151D03*
X025505Y002154D03*
X026478Y002154D03*
X026478Y002151D03*
X026478Y002148D03*
X026478Y002144D03*
X026478Y002141D03*
X026478Y002137D03*
X026478Y002134D03*
X026478Y002131D03*
X026478Y002128D03*
X026478Y002124D03*
X026478Y002121D03*
X026478Y002117D03*
D593*
X025991Y002157D03*
X025991Y002161D03*
X025991Y002164D03*
X025991Y002168D03*
X025991Y002171D03*
X025991Y002174D03*
X025991Y002177D03*
X025991Y002181D03*
X025991Y002184D03*
X025991Y002188D03*
X025991Y002397D03*
X025991Y002401D03*
X025991Y002404D03*
X025991Y002408D03*
X025991Y002411D03*
X025991Y002414D03*
X025991Y002417D03*
X025991Y002421D03*
X025991Y002424D03*
X025991Y002428D03*
X025991Y002431D03*
X025991Y002434D03*
X025991Y002437D03*
X025991Y002441D03*
X025991Y002444D03*
X025991Y002448D03*
X025991Y002451D03*
D594*
X025991Y002452D03*
X025991Y002453D03*
X025991Y002453D03*
X025991Y002450D03*
X025991Y002449D03*
X025991Y002449D03*
X025991Y002447D03*
X025991Y002446D03*
X025991Y002445D03*
X025991Y002445D03*
X025991Y002443D03*
X025991Y002442D03*
X025991Y002441D03*
X025991Y002440D03*
X025991Y002439D03*
X025991Y002438D03*
X025991Y002437D03*
X025991Y002436D03*
X025991Y002435D03*
X025991Y002433D03*
X025991Y002433D03*
X025991Y002432D03*
X025991Y002430D03*
X025991Y002429D03*
X025991Y002429D03*
X025991Y002427D03*
X025991Y002426D03*
X025991Y002425D03*
X025991Y002425D03*
X025991Y002423D03*
X025991Y002422D03*
X025991Y002421D03*
X025991Y002420D03*
X025991Y002419D03*
X025991Y002418D03*
X025991Y002417D03*
X025991Y002416D03*
X025991Y002415D03*
X025991Y002413D03*
X025991Y002413D03*
X025991Y002412D03*
X025991Y002410D03*
X025991Y002409D03*
X025991Y002409D03*
X025991Y002407D03*
X025991Y002406D03*
X025991Y002405D03*
X025991Y002405D03*
X025991Y002403D03*
X025991Y002402D03*
X025991Y002401D03*
X025991Y002400D03*
X025991Y002399D03*
X025991Y002398D03*
X025991Y002397D03*
X025991Y002396D03*
X025991Y002189D03*
X025991Y002189D03*
X025991Y002187D03*
X025991Y002186D03*
X025991Y002185D03*
X025991Y002185D03*
X025991Y002183D03*
X025991Y002182D03*
X025991Y002181D03*
X025991Y002180D03*
X025991Y002179D03*
X025991Y002178D03*
X025991Y002177D03*
X025991Y002176D03*
X025991Y002175D03*
X025991Y002173D03*
X025991Y002173D03*
X025991Y002172D03*
X025991Y002170D03*
X025991Y002169D03*
X025991Y002169D03*
X025991Y002167D03*
X025991Y002166D03*
X025991Y002165D03*
X025991Y002165D03*
X025991Y002163D03*
X025991Y002162D03*
X025991Y002161D03*
X025991Y002160D03*
X025991Y002159D03*
X025991Y002158D03*
D595*
X026429Y002190D03*
X026429Y002192D03*
X026429Y002193D03*
X026429Y002193D03*
X026429Y002195D03*
X026429Y002196D03*
X026429Y002197D03*
X026429Y002198D03*
X026429Y002199D03*
X026429Y002200D03*
X026429Y002201D03*
X026429Y002202D03*
X026429Y002203D03*
X026429Y002205D03*
X026429Y002205D03*
X026429Y002206D03*
X026429Y002207D03*
X026429Y002209D03*
X026429Y002209D03*
X026429Y002210D03*
X026429Y002212D03*
X026429Y002213D03*
X026429Y002213D03*
X026429Y002215D03*
X026429Y002216D03*
X026429Y002217D03*
X026429Y002218D03*
X026429Y002219D03*
X026429Y002220D03*
X026429Y002221D03*
X026429Y002222D03*
X026429Y002223D03*
X026429Y002225D03*
X026429Y002225D03*
X026429Y002226D03*
X026429Y002227D03*
X026429Y002229D03*
X026429Y002229D03*
X026429Y002230D03*
X026429Y002232D03*
X026429Y002233D03*
X026429Y002233D03*
X026429Y002235D03*
X026429Y002236D03*
X026429Y002237D03*
X026429Y002238D03*
X026429Y002239D03*
X026429Y002240D03*
X026429Y002241D03*
X026429Y002242D03*
X026429Y002243D03*
X026429Y002245D03*
X026429Y002245D03*
X026429Y002246D03*
X026429Y002247D03*
X026429Y002249D03*
X026429Y002249D03*
X026429Y002250D03*
X026429Y002252D03*
X026429Y002253D03*
X026429Y002253D03*
X026429Y002255D03*
X026429Y002256D03*
X026429Y002257D03*
X026429Y002258D03*
X026429Y002259D03*
X026429Y002260D03*
X026429Y002261D03*
X026429Y002262D03*
X026429Y002263D03*
X026429Y002265D03*
X026429Y002265D03*
X026429Y002266D03*
X026429Y002267D03*
X026429Y002269D03*
X026429Y002269D03*
X026429Y002270D03*
X026429Y002272D03*
X026429Y002273D03*
X026429Y002273D03*
X026429Y002275D03*
X026429Y002276D03*
X026429Y002277D03*
X026429Y002278D03*
X026429Y002279D03*
X026429Y002280D03*
X026429Y002281D03*
X026429Y002282D03*
X026429Y002283D03*
X026429Y002285D03*
X026429Y002285D03*
X026429Y002286D03*
X026429Y002287D03*
X026429Y002289D03*
X026429Y002289D03*
X026429Y002290D03*
X026429Y002292D03*
X026429Y002293D03*
X026429Y002293D03*
X026429Y002295D03*
X026429Y002296D03*
X026429Y002297D03*
X026429Y002298D03*
X026429Y002299D03*
X026429Y002300D03*
X026429Y002301D03*
X026429Y002302D03*
X026429Y002303D03*
X026429Y002305D03*
X026429Y002305D03*
X026429Y002306D03*
X026429Y002307D03*
X026429Y002309D03*
X026429Y002309D03*
X026429Y002310D03*
X026429Y002312D03*
X026429Y002313D03*
X026429Y002313D03*
X026429Y002315D03*
X026429Y002316D03*
X026429Y002317D03*
X026429Y002318D03*
X026429Y002319D03*
X026429Y002320D03*
X026429Y002321D03*
X026429Y002322D03*
X026429Y002323D03*
X026429Y002325D03*
X026429Y002325D03*
X026429Y002326D03*
X026429Y002327D03*
X026429Y002329D03*
X026429Y002329D03*
X026429Y002330D03*
X026429Y002332D03*
X026429Y002333D03*
X026429Y002333D03*
X026429Y002335D03*
X026429Y002336D03*
X026429Y002337D03*
X026429Y002338D03*
X026429Y002339D03*
X026429Y002340D03*
X026429Y002341D03*
X026429Y002342D03*
X026429Y002343D03*
X026429Y002345D03*
X026429Y002345D03*
X026429Y002346D03*
X026429Y002347D03*
X026429Y002349D03*
X026429Y002349D03*
X026429Y002350D03*
X026429Y002352D03*
X026429Y002353D03*
X026429Y002353D03*
X026429Y002355D03*
X026429Y002356D03*
X026429Y002357D03*
X026429Y002358D03*
X026429Y002359D03*
X026429Y002360D03*
X026429Y002361D03*
X026429Y002362D03*
X026429Y002363D03*
X026429Y002365D03*
X026429Y002365D03*
X026429Y002366D03*
X026429Y002367D03*
X026429Y002369D03*
X026429Y002369D03*
X026429Y002370D03*
X026429Y002372D03*
X026429Y002373D03*
X026429Y002373D03*
X026429Y002375D03*
X026429Y002376D03*
X026429Y002377D03*
X026429Y002378D03*
X026429Y002379D03*
X026429Y002380D03*
X026429Y002381D03*
X026429Y002382D03*
X026429Y002383D03*
X026429Y002385D03*
X026429Y002385D03*
X026429Y002386D03*
X026429Y002387D03*
X026429Y002389D03*
X026429Y002389D03*
X026429Y002390D03*
X026429Y002392D03*
X026429Y002393D03*
X026429Y002393D03*
X026429Y002395D03*
D596*
X025541Y002395D03*
X025541Y002393D03*
X025541Y002393D03*
X025541Y002392D03*
X025541Y002390D03*
X025541Y002389D03*
X025541Y002389D03*
X025541Y002387D03*
X025541Y002386D03*
X025541Y002385D03*
X025541Y002385D03*
X025541Y002383D03*
X025541Y002382D03*
X025541Y002381D03*
X025541Y002380D03*
X025541Y002379D03*
X025541Y002378D03*
X025541Y002377D03*
X025541Y002376D03*
X025541Y002375D03*
X025541Y002373D03*
X025541Y002373D03*
X025541Y002372D03*
X025541Y002370D03*
X025541Y002369D03*
X025541Y002369D03*
X025541Y002367D03*
X025541Y002366D03*
X025541Y002365D03*
X025541Y002365D03*
X025541Y002363D03*
X025541Y002362D03*
X025541Y002361D03*
X025541Y002360D03*
X025541Y002359D03*
X025541Y002358D03*
X025541Y002357D03*
X025541Y002356D03*
X025541Y002355D03*
X025541Y002353D03*
X025541Y002353D03*
X025541Y002352D03*
X025541Y002350D03*
X025541Y002349D03*
X025541Y002349D03*
X025541Y002347D03*
X025541Y002346D03*
X025541Y002345D03*
X025541Y002345D03*
X025541Y002343D03*
X025541Y002342D03*
X025541Y002341D03*
X025541Y002340D03*
X025541Y002339D03*
X025541Y002338D03*
X025541Y002337D03*
X025541Y002336D03*
X025541Y002335D03*
X025541Y002333D03*
X025541Y002333D03*
X025541Y002332D03*
X025541Y002330D03*
X025541Y002329D03*
X025541Y002329D03*
X025541Y002327D03*
X025541Y002326D03*
X025541Y002325D03*
X025541Y002325D03*
X025541Y002323D03*
X025541Y002322D03*
X025541Y002321D03*
X025541Y002320D03*
X025541Y002319D03*
X025541Y002318D03*
X025541Y002317D03*
X025541Y002316D03*
X025541Y002315D03*
X025541Y002313D03*
X025541Y002313D03*
X025541Y002312D03*
X025541Y002310D03*
X025541Y002309D03*
X025541Y002309D03*
X025541Y002307D03*
X025541Y002306D03*
X025541Y002305D03*
X025541Y002305D03*
X025541Y002303D03*
X025541Y002302D03*
X025541Y002301D03*
X025541Y002300D03*
X025541Y002299D03*
X025541Y002298D03*
X025541Y002297D03*
X025541Y002296D03*
X025541Y002295D03*
X025541Y002293D03*
X025541Y002293D03*
X025541Y002292D03*
X025541Y002290D03*
X025541Y002289D03*
X025541Y002289D03*
X025541Y002287D03*
X025541Y002286D03*
X025541Y002285D03*
X025541Y002285D03*
X025541Y002283D03*
X025541Y002282D03*
X025541Y002281D03*
X025541Y002280D03*
X025541Y002279D03*
X025541Y002278D03*
X025541Y002277D03*
X025541Y002276D03*
X025541Y002275D03*
X025541Y002273D03*
X025541Y002273D03*
X025541Y002272D03*
X025541Y002270D03*
X025541Y002269D03*
X025541Y002269D03*
X025541Y002267D03*
X025541Y002266D03*
X025541Y002265D03*
X025541Y002265D03*
X025541Y002263D03*
X025541Y002262D03*
X025541Y002261D03*
X025541Y002260D03*
X025541Y002259D03*
X025541Y002258D03*
X025541Y002257D03*
X025541Y002256D03*
X025541Y002255D03*
X025541Y002253D03*
X025541Y002253D03*
X025541Y002252D03*
X025541Y002250D03*
X025541Y002249D03*
X025541Y002249D03*
X025541Y002247D03*
X025541Y002246D03*
X025541Y002245D03*
X025541Y002245D03*
X025541Y002243D03*
X025541Y002242D03*
X025541Y002241D03*
X025541Y002240D03*
X025541Y002239D03*
X025541Y002238D03*
X025541Y002237D03*
X025541Y002236D03*
X025541Y002235D03*
X025541Y002233D03*
X025541Y002233D03*
X025541Y002232D03*
X025541Y002230D03*
X025541Y002229D03*
X025541Y002229D03*
X025541Y002227D03*
X025541Y002226D03*
X025541Y002225D03*
X025541Y002225D03*
X025541Y002223D03*
X025541Y002222D03*
X025541Y002221D03*
X025541Y002220D03*
X025541Y002219D03*
X025541Y002218D03*
X025541Y002217D03*
X025541Y002216D03*
X025541Y002215D03*
X025541Y002213D03*
X025541Y002213D03*
X025541Y002212D03*
X025541Y002210D03*
X025541Y002209D03*
X025541Y002209D03*
X025541Y002207D03*
X025541Y002206D03*
X025541Y002205D03*
X025541Y002205D03*
X025541Y002203D03*
X025541Y002202D03*
X025541Y002201D03*
X025541Y002200D03*
X025541Y002199D03*
X025541Y002198D03*
X025541Y002197D03*
X025541Y002196D03*
X025541Y002195D03*
X025541Y002193D03*
X025541Y002193D03*
X025541Y002192D03*
X025541Y002190D03*
D597*
X026429Y002191D03*
X026429Y002194D03*
X026429Y002197D03*
X026429Y002201D03*
X026429Y002204D03*
X026429Y002208D03*
X026429Y002211D03*
X026429Y002214D03*
X026429Y002217D03*
X026429Y002221D03*
X026429Y002224D03*
X026429Y002228D03*
X026429Y002231D03*
X026429Y002234D03*
X026429Y002237D03*
X026429Y002241D03*
X026429Y002244D03*
X026429Y002248D03*
X026429Y002251D03*
X026429Y002254D03*
X026429Y002257D03*
X026429Y002261D03*
X026429Y002264D03*
X026429Y002268D03*
X026429Y002271D03*
X026429Y002274D03*
X026429Y002277D03*
X026429Y002281D03*
X026429Y002284D03*
X026429Y002288D03*
X026429Y002291D03*
X026429Y002294D03*
X026429Y002297D03*
X026429Y002301D03*
X026429Y002304D03*
X026429Y002308D03*
X026429Y002311D03*
X026429Y002314D03*
X026429Y002317D03*
X026429Y002321D03*
X026429Y002324D03*
X026429Y002328D03*
X026429Y002331D03*
X026429Y002334D03*
X026429Y002337D03*
X026429Y002341D03*
X026429Y002344D03*
X026429Y002348D03*
X026429Y002351D03*
X026429Y002354D03*
X026429Y002357D03*
X026429Y002361D03*
X026429Y002364D03*
X026429Y002368D03*
X026429Y002371D03*
X026429Y002374D03*
X026429Y002377D03*
X026429Y002381D03*
X026429Y002384D03*
X026429Y002388D03*
X026429Y002391D03*
X026429Y002394D03*
D598*
X025541Y002394D03*
X025541Y002391D03*
X025541Y002388D03*
X025541Y002384D03*
X025541Y002381D03*
X025541Y002377D03*
X025541Y002374D03*
X025541Y002371D03*
X025541Y002368D03*
X025541Y002364D03*
X025541Y002361D03*
X025541Y002357D03*
X025541Y002354D03*
X025541Y002351D03*
X025541Y002348D03*
X025541Y002344D03*
X025541Y002341D03*
X025541Y002337D03*
X025541Y002334D03*
X025541Y002331D03*
X025541Y002328D03*
X025541Y002324D03*
X025541Y002321D03*
X025541Y002317D03*
X025541Y002314D03*
X025541Y002311D03*
X025541Y002308D03*
X025541Y002304D03*
X025541Y002301D03*
X025541Y002297D03*
X025541Y002294D03*
X025541Y002291D03*
X025541Y002288D03*
X025541Y002284D03*
X025541Y002281D03*
X025541Y002277D03*
X025541Y002274D03*
X025541Y002271D03*
X025541Y002268D03*
X025541Y002264D03*
X025541Y002261D03*
X025541Y002257D03*
X025541Y002254D03*
X025541Y002251D03*
X025541Y002248D03*
X025541Y002244D03*
X025541Y002241D03*
X025541Y002237D03*
X025541Y002234D03*
X025541Y002231D03*
X025541Y002228D03*
X025541Y002224D03*
X025541Y002221D03*
X025541Y002217D03*
X025541Y002214D03*
X025541Y002211D03*
X025541Y002208D03*
X025541Y002204D03*
X025541Y002201D03*
X025541Y002197D03*
X025541Y002194D03*
X025541Y002191D03*
D599*
X025992Y002454D03*
D600*
X025992Y002455D03*
D601*
X025991Y002456D03*
X025991Y002457D03*
X025991Y002458D03*
X025991Y002459D03*
X025991Y002460D03*
D602*
X025991Y002461D03*
X025991Y002457D03*
D603*
X025991Y002461D03*
D604*
X025991Y002462D03*
X025991Y002463D03*
X025991Y002465D03*
X025991Y002465D03*
D605*
X025991Y002464D03*
D606*
X025991Y002466D03*
X025991Y002467D03*
D607*
X025991Y002468D03*
D608*
X025991Y002469D03*
X025991Y002469D03*
X025991Y002470D03*
D609*
X025991Y002471D03*
D610*
X025991Y002472D03*
D611*
X025991Y002473D03*
X025991Y002473D03*
D612*
X025991Y002474D03*
D613*
X025991Y002475D03*
X025991Y002476D03*
D614*
X025991Y002477D03*
X025991Y002478D03*
D615*
X025991Y002477D03*
D616*
X025991Y002479D03*
X025991Y002480D03*
D617*
X025991Y002481D03*
D618*
X025991Y002481D03*
X025991Y002482D03*
D619*
X025991Y002483D03*
D620*
X025991Y002484D03*
D621*
X025991Y002485D03*
X025991Y002485D03*
X025991Y002486D03*
D622*
X025991Y002487D03*
X025991Y002489D03*
X025991Y002489D03*
D623*
X025991Y002488D03*
D624*
X025991Y002490D03*
X025991Y002492D03*
X025991Y002493D03*
D625*
X025991Y002491D03*
D626*
X025991Y002493D03*
X025991Y002495D03*
X025991Y002496D03*
D627*
X025991Y002494D03*
D628*
X025991Y002497D03*
X025991Y002498D03*
X025991Y002499D03*
D629*
X025991Y002497D03*
D630*
X025991Y002500D03*
X025991Y002501D03*
D631*
X025991Y002501D03*
D632*
X025992Y002502D03*
D633*
X025991Y002503D03*
D634*
X025991Y002504D03*
D635*
X025992Y002505D03*
D636*
X025991Y002505D03*
X025991Y002506D03*
X025991Y002507D03*
D637*
X025992Y002508D03*
D638*
X025991Y002509D03*
X025991Y002509D03*
D639*
X025992Y002510D03*
D640*
X025991Y002511D03*
D641*
X025991Y002512D03*
D642*
X025992Y002513D03*
D643*
X025991Y002513D03*
D644*
X025991Y002514D03*
D645*
X025992Y002515D03*
D646*
X025991Y002516D03*
D647*
X025992Y002517D03*
D648*
X025991Y002517D03*
D649*
X025991Y002518D03*
D650*
X025992Y002519D03*
D651*
X025991Y002520D03*
D652*
X025991Y002521D03*
D653*
X025992Y002521D03*
D654*
X025991Y002522D03*
D655*
X025992Y002523D03*
D656*
X025991Y002524D03*
D657*
X025991Y002525D03*
D658*
X025992Y002525D03*
D659*
X025991Y002526D03*
D660*
X025992Y002527D03*
D661*
X025992Y002528D03*
D662*
X025992Y002529D03*
D663*
X025991Y002529D03*
D664*
X025991Y002530D03*
D665*
X025991Y002531D03*
D666*
X025991Y002532D03*
D667*
X025991Y002533D03*
D668*
X025991Y002533D03*
D669*
X025991Y002534D03*
D670*
X025991Y002535D03*
D671*
X025991Y002536D03*
D672*
X025991Y002537D03*
D673*
X025991Y002537D03*
D674*
X025991Y002538D03*
D675*
X025991Y002539D03*
D676*
X025991Y002540D03*
D677*
X025991Y002541D03*
D678*
X025991Y002541D03*
D679*
X025991Y002542D03*
D680*
X025991Y002543D03*
D681*
X025991Y002544D03*
D682*
X025991Y002545D03*
D683*
X025991Y002545D03*
D684*
X025991Y002546D03*
D685*
X025991Y002547D03*
D686*
X025991Y002548D03*
D687*
X025991Y002549D03*
D688*
X025991Y002549D03*
D689*
X025991Y002550D03*
D690*
X025991Y002551D03*
D691*
X025991Y002552D03*
D692*
X025991Y002553D03*
D693*
X025991Y002553D03*
D694*
X025991Y002554D03*
D695*
X025992Y002555D03*
D696*
X025992Y002556D03*
D697*
X025992Y002557D03*
D698*
X025992Y002557D03*
D699*
X025992Y002558D03*
D700*
X025992Y002559D03*
D701*
X025992Y002560D03*
D702*
X025992Y002561D03*
D703*
X025992Y002561D03*
D704*
X025992Y002562D03*
D705*
X025992Y002563D03*
D706*
X025992Y002564D03*
D707*
X025992Y002565D03*
D708*
X025992Y002565D03*
D709*
X025992Y002566D03*
D710*
X025992Y002567D03*
D711*
X025992Y002568D03*
D712*
X025991Y002569D03*
D713*
X025991Y002569D03*
D714*
X025991Y002570D03*
D715*
X025991Y002571D03*
D716*
X025991Y002572D03*
D717*
X025991Y002573D03*
D718*
X025991Y002573D03*
D719*
X025991Y002574D03*
D720*
X025991Y002575D03*
D721*
X025991Y002576D03*
D722*
X025991Y002577D03*
D723*
X025991Y002577D03*
D724*
X025991Y002578D03*
D725*
X025991Y002579D03*
D726*
X025991Y002580D03*
D727*
X025991Y002581D03*
D728*
X025991Y002581D03*
D729*
X025991Y002582D03*
D730*
X025991Y002583D03*
D731*
X025991Y002584D03*
D732*
X025991Y002585D03*
D733*
X025991Y002585D03*
D734*
X025991Y002586D03*
D735*
X025991Y002587D03*
D736*
X025991Y002588D03*
D737*
X025991Y002589D03*
D738*
X025991Y002589D03*
D739*
X025991Y002590D03*
D740*
X025991Y002591D03*
D741*
X025991Y002592D03*
D742*
X025991Y002593D03*
D743*
X025991Y002593D03*
D744*
X025992Y002594D03*
D745*
X025992Y002595D03*
D746*
X025992Y002596D03*
D747*
X025992Y002597D03*
D748*
X025992Y002597D03*
D749*
X025992Y002598D03*
D750*
X025992Y002599D03*
D751*
X025992Y002600D03*
D752*
X025992Y002601D03*
D753*
X025992Y002601D03*
D754*
X025992Y002602D03*
D755*
X025992Y002603D03*
D756*
X025992Y002604D03*
D757*
X025992Y002605D03*
D758*
X025992Y002605D03*
D759*
X025992Y002606D03*
D760*
X025992Y002607D03*
D761*
X025991Y002608D03*
D762*
X025991Y002609D03*
D763*
X025991Y002609D03*
D764*
X025991Y002610D03*
D765*
X025991Y002611D03*
D766*
X025991Y002612D03*
D767*
X025991Y002613D03*
D768*
X025991Y002613D03*
D769*
X025991Y002614D03*
D770*
X025991Y002615D03*
D771*
X025991Y002616D03*
D772*
X025991Y002617D03*
D773*
X025991Y002617D03*
D774*
X025991Y002618D03*
D775*
X025991Y002619D03*
D776*
X025991Y002620D03*
D777*
X025991Y002621D03*
D778*
X025991Y002621D03*
D779*
X025991Y002622D03*
D780*
X025991Y002623D03*
D781*
X025991Y002624D03*
D782*
X025991Y002625D03*
D783*
X025991Y002625D03*
D784*
X025991Y002626D03*
D785*
X025991Y002627D03*
D786*
X025991Y002628D03*
D787*
X025991Y002629D03*
D788*
X025991Y002629D03*
D789*
X025991Y002630D03*
D790*
X025991Y002631D03*
D791*
X025991Y002632D03*
D792*
X025991Y002633D03*
D793*
X025991Y002633D03*
D794*
X025992Y002634D03*
D795*
X025992Y002635D03*
D796*
X025992Y002636D03*
D797*
X025992Y002637D03*
D798*
X025992Y002637D03*
D799*
X025992Y002638D03*
D800*
X025992Y002639D03*
D801*
X025992Y002640D03*
D802*
X025992Y002641D03*
D803*
X025992Y002641D03*
D804*
X025992Y002642D03*
D805*
X025992Y002643D03*
D806*
X025992Y002644D03*
D807*
X025992Y002645D03*
D808*
X025992Y002645D03*
D809*
X025991Y002646D03*
D810*
X025991Y002647D03*
D811*
X025991Y002648D03*
D812*
X025991Y002649D03*
D813*
X025991Y002649D03*
D814*
X025991Y002650D03*
D815*
X025991Y002651D03*
D816*
X025991Y002652D03*
D817*
X025991Y002653D03*
D818*
X025991Y002653D03*
D819*
X025991Y002654D03*
D820*
X025991Y002655D03*
D821*
X025991Y002656D03*
D822*
X025991Y002657D03*
D823*
X025991Y002657D03*
D824*
X025991Y002658D03*
D825*
X025991Y002659D03*
D826*
X025991Y002660D03*
D827*
X025991Y002661D03*
D828*
X025991Y002661D03*
D829*
X025991Y002662D03*
D830*
X025991Y002663D03*
D831*
X025991Y002664D03*
D832*
X025991Y002665D03*
D833*
X025991Y002665D03*
D834*
X025991Y002666D03*
D835*
X025991Y002667D03*
D836*
X025991Y002668D03*
D837*
X025991Y002669D03*
D838*
X025991Y002669D03*
D839*
X025991Y002670D03*
D840*
X025991Y002671D03*
D841*
X025991Y002672D03*
D842*
X025991Y002673D03*
D843*
X025992Y002673D03*
D844*
X025992Y002674D03*
D845*
X025992Y002675D03*
D846*
X025992Y002676D03*
D847*
X025992Y002677D03*
D848*
X025992Y002677D03*
D849*
X025992Y002678D03*
D850*
X025992Y002679D03*
D851*
X025992Y002680D03*
D852*
X025992Y002681D03*
D853*
X025992Y002681D03*
D854*
X025992Y002682D03*
D855*
X025992Y002683D03*
D856*
X025992Y002684D03*
D857*
X025992Y002685D03*
D858*
X025991Y002685D03*
D859*
X025991Y002686D03*
D860*
X025991Y002687D03*
D861*
X025991Y002688D03*
D862*
X025991Y002689D03*
D863*
X025991Y002689D03*
D864*
X025991Y002690D03*
D865*
X025991Y002691D03*
D866*
X025991Y002692D03*
D867*
X025991Y002693D03*
D868*
X025991Y002693D03*
D869*
X025991Y002694D03*
D870*
X025991Y002695D03*
D871*
X025991Y002696D03*
D872*
X025991Y002697D03*
D873*
X025991Y002697D03*
D874*
X025991Y002698D03*
D875*
X025991Y002699D03*
D876*
X025991Y002700D03*
D877*
X025991Y002701D03*
D878*
X025991Y002701D03*
D879*
X025991Y002702D03*
D880*
X025991Y002703D03*
D881*
X025991Y002704D03*
D882*
X025991Y002705D03*
D883*
X025991Y002705D03*
D884*
X025991Y002706D03*
D885*
X025991Y002707D03*
D886*
X025991Y002708D03*
D887*
X025991Y002709D03*
D888*
X025991Y002709D03*
D889*
X025991Y002710D03*
D890*
X025991Y002711D03*
D891*
X025991Y002712D03*
D892*
X025992Y002713D03*
D893*
X025992Y002713D03*
D894*
X025992Y002714D03*
D895*
X025992Y002715D03*
D896*
X025992Y002716D03*
D897*
X025992Y002717D03*
D898*
X025992Y002717D03*
D899*
X025992Y002718D03*
D900*
X025992Y002719D03*
D901*
X025992Y002720D03*
D902*
X025992Y002721D03*
D903*
X025992Y002721D03*
D904*
X025992Y002722D03*
D905*
X025992Y002723D03*
D906*
X025992Y002724D03*
D907*
X025991Y002725D03*
D908*
X025991Y002725D03*
D909*
X025991Y002726D03*
D910*
X025991Y002727D03*
D911*
X025991Y002728D03*
D912*
X025991Y002729D03*
D913*
X025991Y002729D03*
D914*
X025991Y002730D03*
D915*
X025991Y002731D03*
D916*
X025991Y002732D03*
D917*
X025991Y002733D03*
D918*
X025991Y002733D03*
D919*
X025991Y002734D03*
D920*
X025991Y002735D03*
D921*
X025991Y002736D03*
D922*
X025991Y002737D03*
D923*
X025991Y002737D03*
D924*
X025991Y002738D03*
D925*
X025991Y002739D03*
D926*
X025991Y002740D03*
D927*
X025991Y002741D03*
D928*
X025991Y002741D03*
D929*
X025992Y002742D03*
D930*
X025991Y002743D03*
D931*
X025991Y002744D03*
D932*
X025991Y002745D03*
D933*
X025991Y002745D03*
D934*
X025991Y002746D03*
D935*
X025992Y002747D03*
D936*
X025992Y002748D03*
D937*
X025992Y002749D03*
D938*
X025992Y002749D03*
D939*
X025992Y002750D03*
D940*
X025992Y002751D03*
D941*
X025992Y002752D03*
D942*
X025992Y002753D03*
D943*
X025992Y002753D03*
D944*
X025992Y002754D03*
D945*
X025992Y002755D03*
D946*
X025993Y002756D03*
D947*
X025993Y002757D03*
D948*
X025993Y002757D03*
D949*
X025993Y002758D03*
D950*
X026797Y001073D02*
X026796Y001073D01*
X026796Y001072D01*
X026797Y001072D01*
X026798Y001072D01*
X026798Y001073D01*
X026798Y001073D01*
X026799Y001073D01*
X026799Y001073D01*
X026799Y001072D01*
X026799Y001073D01*
X026799Y001073D01*
X026800Y001073D01*
X026801Y001073D01*
X026801Y001072D01*
X026801Y001072D01*
X026801Y001072D01*
X026801Y001072D01*
X026801Y001072D01*
X026800Y001072D01*
X026799Y001072D01*
X026799Y001073D01*
X026798Y001073D02*
X026797Y001073D01*
X026798Y001073D02*
X026798Y001071D01*
X026802Y001072D02*
X026802Y001073D01*
X026802Y001073D01*
X026802Y001073D01*
X026803Y001073D01*
X026804Y001073D01*
X026804Y001073D01*
X026804Y001072D01*
X026804Y001072D01*
X026803Y001072D01*
X026802Y001072D01*
X026802Y001072D01*
X026802Y001072D01*
X026803Y001073D02*
X026803Y001072D01*
X026803Y001073D01*
X026803Y001072D02*
X026803Y001071D01*
X026804Y001071D01*
X026805Y001072D02*
X026805Y001072D01*
X026805Y001072D01*
X026805Y001073D01*
X026805Y001073D01*
X026805Y001073D01*
X026806Y001073D01*
X026806Y001072D01*
X026807Y001072D01*
X026808Y001072D01*
X026809Y001072D02*
X026809Y001072D01*
X026809Y001073D01*
X026809Y001073D01*
X026809Y001074D01*
X026810Y001073D02*
X026810Y001073D01*
X026810Y001073D01*
X026810Y001072D01*
X026811Y001072D01*
X026810Y001072D01*
X026810Y001072D01*
X026810Y001072D01*
X026811Y001073D02*
X026812Y001072D01*
X026812Y001073D01*
X026813Y001073D01*
X026814Y001073D01*
X026815Y001073D01*
X026815Y001073D01*
X026815Y001072D01*
X026815Y001072D01*
X026814Y001072D01*
X026813Y001072D01*
X026813Y001072D01*
X026812Y001072D01*
X026813Y001073D02*
X026813Y001073D01*
X026814Y001073D02*
X026814Y001072D01*
X026815Y001072D02*
X026816Y001072D01*
X026816Y001073D01*
X026815Y001073D01*
X026816Y001072D02*
X026816Y001072D01*
X026815Y001072D01*
X026816Y001072D02*
X026816Y001072D01*
X026816Y001073D02*
X026816Y001073D01*
X026817Y001073D02*
X026817Y001072D01*
X026817Y001072D01*
X026817Y001073D02*
X026817Y001073D01*
X026817Y001074D01*
X026818Y001073D02*
X026819Y001072D01*
X026819Y001073D02*
X026818Y001072D01*
X026819Y001073D02*
X026820Y001072D01*
X026821Y001072D02*
X026822Y001072D01*
X026822Y001073D01*
X026821Y001073D01*
X026821Y001073D01*
X026821Y001072D01*
X026822Y001072D01*
X026822Y001072D01*
X026822Y001073D01*
X026822Y001073D01*
X026823Y001073D01*
X026823Y001073D01*
X026823Y001073D01*
X026823Y001072D01*
X026823Y001073D01*
X026823Y001073D01*
X026824Y001073D02*
X026824Y001073D01*
X026825Y001073D01*
X026825Y001072D01*
X026825Y001072D01*
X026825Y001073D01*
X026825Y001073D01*
X026825Y001073D01*
X026826Y001073D01*
X026826Y001073D01*
X026826Y001072D01*
X026825Y001072D02*
X026824Y001072D01*
X026824Y001072D01*
X026824Y001073D01*
X026827Y001073D02*
X026828Y001072D01*
X026807Y001073D02*
X026806Y001073D01*
X026806Y001072D01*
X026805Y001072D01*
D951*
X019106Y002442D02*
X018519Y002442D01*
X011106Y002442D02*
X010519Y002442D01*
X010812Y002149D02*
X010812Y002736D01*
X010812Y026755D02*
X010812Y027342D01*
X010519Y027049D02*
X011106Y027049D01*
X018519Y027049D02*
X019106Y027049D01*
M02*
