%
M48
M72
T01C0.0236
T02C0.0315
T03C0.0320
T04C0.0354
T05C0.0394
T06C0.0400
T07C0.0670
T08C0.1300
%
T01
X3279Y13512
X11055Y27686
X19716Y26209
X26255Y4796
X18929Y2292
T02
X15484Y1701
X13909Y1701
T03
X7696Y1201
X7696Y2201
X4761Y1760
X3761Y1760
X2303Y9792
X1303Y9792
X1098Y12016
X2098Y12016
X3098Y12016
X2787Y16422
X2787Y17422
X2303Y19359
X1303Y19359
X1527Y23587
X1527Y24587
X1527Y25587
X4202Y26912
X4202Y27912
X7696Y27989
X7696Y26989
X21696Y26989
X21696Y27989
X24602Y26926
X25602Y26926
X26602Y26926
X27090Y19359
X28090Y19359
X28090Y16957
X27090Y16957
X27255Y11949
X26255Y11949
X28255Y11949
X28090Y9792
X27090Y9792
X21696Y2201
X21696Y1201
T04
X26822Y3835
X27964Y3835
X27964Y7835
X26822Y7835
X3011Y20012
X3011Y24012
T05
X1803Y15595
X2803Y14595
X1803Y13595
X1779Y2882
X4779Y2882
X26590Y14595
X27590Y13595
X27590Y15595
X15696Y27489
X14696Y26489
X13696Y27489
T06
X27590Y24536
X27590Y23158
X1803Y5993
X1803Y4615
T07
X6196Y2292
X9196Y2292
X20196Y2292
X23196Y2292
X23196Y26898
X20196Y26898
X9196Y26898
X6196Y26898
T08
X1326Y1225
X1326Y27965
X28066Y27965
X28066Y1225
M30
