G75*
%MOIN*%
%OFA0B0*%
%FSLAX24Y24*%
%IPPOS*%
%LPD*%
%AMOC8*
5,1,8,0,0,1.08239X$1,22.5*
%
%ADD10C,0.0010*%
%ADD11C,0.0800*%
%ADD12R,0.0800X0.0800*%
%ADD13C,0.0780*%
%ADD14C,0.0660*%
%ADD15C,0.0740*%
%ADD16C,0.0000*%
%ADD17C,0.1005*%
%ADD18C,0.0160*%
%ADD19C,0.0100*%
%ADD20C,0.0436*%
D10*
X000375Y000375D02*
X029115Y000375D01*
X029115Y029115D01*
X000375Y029115D01*
X000375Y000375D01*
X003918Y003918D02*
X025572Y003918D01*
X025572Y025572D01*
X003918Y025572D01*
X003918Y003918D01*
D11*
X001851Y004765D03*
X027639Y024686D03*
D12*
X027639Y023308D03*
X001851Y006143D03*
D13*
X001828Y003032D03*
X004828Y003032D03*
D14*
X004810Y001910D03*
X003810Y001910D03*
X013958Y001851D03*
X015532Y001851D03*
X002836Y016572D03*
X002836Y017572D03*
X004251Y027062D03*
X004251Y028062D03*
X027139Y017107D03*
X028139Y017107D03*
D15*
X027639Y015745D03*
X026639Y014745D03*
X027639Y013745D03*
X027304Y012099D03*
X026304Y012099D03*
X028304Y012099D03*
X028139Y009942D03*
X027139Y009942D03*
X026871Y007985D03*
X028013Y007985D03*
X028013Y003985D03*
X026871Y003985D03*
X021745Y002351D03*
X021745Y001351D03*
X007745Y001351D03*
X007745Y002351D03*
X002351Y009942D03*
X001351Y009942D03*
X001147Y012166D03*
X002147Y012166D03*
X003147Y012166D03*
X001851Y013745D03*
X002851Y014745D03*
X001851Y015745D03*
X001351Y019509D03*
X002351Y019509D03*
X003060Y020162D03*
X001576Y023737D03*
X001576Y024737D03*
X001576Y025737D03*
X003060Y024162D03*
X007745Y027139D03*
X007745Y028139D03*
X013745Y027639D03*
X014745Y026639D03*
X015745Y027639D03*
X021745Y028139D03*
X021745Y027139D03*
X024651Y027076D03*
X025651Y027076D03*
X026651Y027076D03*
X027139Y019509D03*
X028139Y019509D03*
D16*
X027465Y028115D02*
X027467Y028165D01*
X027473Y028215D01*
X027483Y028265D01*
X027496Y028313D01*
X027513Y028361D01*
X027534Y028407D01*
X027558Y028451D01*
X027586Y028493D01*
X027617Y028533D01*
X027651Y028570D01*
X027688Y028605D01*
X027727Y028636D01*
X027768Y028665D01*
X027812Y028690D01*
X027858Y028712D01*
X027905Y028730D01*
X027953Y028744D01*
X028002Y028755D01*
X028052Y028762D01*
X028102Y028765D01*
X028153Y028764D01*
X028203Y028759D01*
X028253Y028750D01*
X028301Y028738D01*
X028349Y028721D01*
X028395Y028701D01*
X028440Y028678D01*
X028483Y028651D01*
X028523Y028621D01*
X028561Y028588D01*
X028596Y028552D01*
X028629Y028513D01*
X028658Y028472D01*
X028684Y028429D01*
X028707Y028384D01*
X028726Y028337D01*
X028741Y028289D01*
X028753Y028240D01*
X028761Y028190D01*
X028765Y028140D01*
X028765Y028090D01*
X028761Y028040D01*
X028753Y027990D01*
X028741Y027941D01*
X028726Y027893D01*
X028707Y027846D01*
X028684Y027801D01*
X028658Y027758D01*
X028629Y027717D01*
X028596Y027678D01*
X028561Y027642D01*
X028523Y027609D01*
X028483Y027579D01*
X028440Y027552D01*
X028395Y027529D01*
X028349Y027509D01*
X028301Y027492D01*
X028253Y027480D01*
X028203Y027471D01*
X028153Y027466D01*
X028102Y027465D01*
X028052Y027468D01*
X028002Y027475D01*
X027953Y027486D01*
X027905Y027500D01*
X027858Y027518D01*
X027812Y027540D01*
X027768Y027565D01*
X027727Y027594D01*
X027688Y027625D01*
X027651Y027660D01*
X027617Y027697D01*
X027586Y027737D01*
X027558Y027779D01*
X027534Y027823D01*
X027513Y027869D01*
X027496Y027917D01*
X027483Y027965D01*
X027473Y028015D01*
X027467Y028065D01*
X027465Y028115D01*
X000725Y028115D02*
X000727Y028165D01*
X000733Y028215D01*
X000743Y028265D01*
X000756Y028313D01*
X000773Y028361D01*
X000794Y028407D01*
X000818Y028451D01*
X000846Y028493D01*
X000877Y028533D01*
X000911Y028570D01*
X000948Y028605D01*
X000987Y028636D01*
X001028Y028665D01*
X001072Y028690D01*
X001118Y028712D01*
X001165Y028730D01*
X001213Y028744D01*
X001262Y028755D01*
X001312Y028762D01*
X001362Y028765D01*
X001413Y028764D01*
X001463Y028759D01*
X001513Y028750D01*
X001561Y028738D01*
X001609Y028721D01*
X001655Y028701D01*
X001700Y028678D01*
X001743Y028651D01*
X001783Y028621D01*
X001821Y028588D01*
X001856Y028552D01*
X001889Y028513D01*
X001918Y028472D01*
X001944Y028429D01*
X001967Y028384D01*
X001986Y028337D01*
X002001Y028289D01*
X002013Y028240D01*
X002021Y028190D01*
X002025Y028140D01*
X002025Y028090D01*
X002021Y028040D01*
X002013Y027990D01*
X002001Y027941D01*
X001986Y027893D01*
X001967Y027846D01*
X001944Y027801D01*
X001918Y027758D01*
X001889Y027717D01*
X001856Y027678D01*
X001821Y027642D01*
X001783Y027609D01*
X001743Y027579D01*
X001700Y027552D01*
X001655Y027529D01*
X001609Y027509D01*
X001561Y027492D01*
X001513Y027480D01*
X001463Y027471D01*
X001413Y027466D01*
X001362Y027465D01*
X001312Y027468D01*
X001262Y027475D01*
X001213Y027486D01*
X001165Y027500D01*
X001118Y027518D01*
X001072Y027540D01*
X001028Y027565D01*
X000987Y027594D01*
X000948Y027625D01*
X000911Y027660D01*
X000877Y027697D01*
X000846Y027737D01*
X000818Y027779D01*
X000794Y027823D01*
X000773Y027869D01*
X000756Y027917D01*
X000743Y027965D01*
X000733Y028015D01*
X000727Y028065D01*
X000725Y028115D01*
X000725Y001375D02*
X000727Y001425D01*
X000733Y001475D01*
X000743Y001525D01*
X000756Y001573D01*
X000773Y001621D01*
X000794Y001667D01*
X000818Y001711D01*
X000846Y001753D01*
X000877Y001793D01*
X000911Y001830D01*
X000948Y001865D01*
X000987Y001896D01*
X001028Y001925D01*
X001072Y001950D01*
X001118Y001972D01*
X001165Y001990D01*
X001213Y002004D01*
X001262Y002015D01*
X001312Y002022D01*
X001362Y002025D01*
X001413Y002024D01*
X001463Y002019D01*
X001513Y002010D01*
X001561Y001998D01*
X001609Y001981D01*
X001655Y001961D01*
X001700Y001938D01*
X001743Y001911D01*
X001783Y001881D01*
X001821Y001848D01*
X001856Y001812D01*
X001889Y001773D01*
X001918Y001732D01*
X001944Y001689D01*
X001967Y001644D01*
X001986Y001597D01*
X002001Y001549D01*
X002013Y001500D01*
X002021Y001450D01*
X002025Y001400D01*
X002025Y001350D01*
X002021Y001300D01*
X002013Y001250D01*
X002001Y001201D01*
X001986Y001153D01*
X001967Y001106D01*
X001944Y001061D01*
X001918Y001018D01*
X001889Y000977D01*
X001856Y000938D01*
X001821Y000902D01*
X001783Y000869D01*
X001743Y000839D01*
X001700Y000812D01*
X001655Y000789D01*
X001609Y000769D01*
X001561Y000752D01*
X001513Y000740D01*
X001463Y000731D01*
X001413Y000726D01*
X001362Y000725D01*
X001312Y000728D01*
X001262Y000735D01*
X001213Y000746D01*
X001165Y000760D01*
X001118Y000778D01*
X001072Y000800D01*
X001028Y000825D01*
X000987Y000854D01*
X000948Y000885D01*
X000911Y000920D01*
X000877Y000957D01*
X000846Y000997D01*
X000818Y001039D01*
X000794Y001083D01*
X000773Y001129D01*
X000756Y001177D01*
X000743Y001225D01*
X000733Y001275D01*
X000727Y001325D01*
X000725Y001375D01*
X027465Y001375D02*
X027467Y001425D01*
X027473Y001475D01*
X027483Y001525D01*
X027496Y001573D01*
X027513Y001621D01*
X027534Y001667D01*
X027558Y001711D01*
X027586Y001753D01*
X027617Y001793D01*
X027651Y001830D01*
X027688Y001865D01*
X027727Y001896D01*
X027768Y001925D01*
X027812Y001950D01*
X027858Y001972D01*
X027905Y001990D01*
X027953Y002004D01*
X028002Y002015D01*
X028052Y002022D01*
X028102Y002025D01*
X028153Y002024D01*
X028203Y002019D01*
X028253Y002010D01*
X028301Y001998D01*
X028349Y001981D01*
X028395Y001961D01*
X028440Y001938D01*
X028483Y001911D01*
X028523Y001881D01*
X028561Y001848D01*
X028596Y001812D01*
X028629Y001773D01*
X028658Y001732D01*
X028684Y001689D01*
X028707Y001644D01*
X028726Y001597D01*
X028741Y001549D01*
X028753Y001500D01*
X028761Y001450D01*
X028765Y001400D01*
X028765Y001350D01*
X028761Y001300D01*
X028753Y001250D01*
X028741Y001201D01*
X028726Y001153D01*
X028707Y001106D01*
X028684Y001061D01*
X028658Y001018D01*
X028629Y000977D01*
X028596Y000938D01*
X028561Y000902D01*
X028523Y000869D01*
X028483Y000839D01*
X028440Y000812D01*
X028395Y000789D01*
X028349Y000769D01*
X028301Y000752D01*
X028253Y000740D01*
X028203Y000731D01*
X028153Y000726D01*
X028102Y000725D01*
X028052Y000728D01*
X028002Y000735D01*
X027953Y000746D01*
X027905Y000760D01*
X027858Y000778D01*
X027812Y000800D01*
X027768Y000825D01*
X027727Y000854D01*
X027688Y000885D01*
X027651Y000920D01*
X027617Y000957D01*
X027586Y000997D01*
X027558Y001039D01*
X027534Y001083D01*
X027513Y001129D01*
X027496Y001177D01*
X027483Y001225D01*
X027473Y001275D01*
X027467Y001325D01*
X027465Y001375D01*
D17*
X023245Y002442D03*
X020245Y002442D03*
X009245Y002442D03*
X006245Y002442D03*
X006245Y027048D03*
X009245Y027048D03*
X020245Y027048D03*
X023245Y027048D03*
D18*
X023997Y026556D02*
X023997Y027836D01*
X023694Y028139D01*
X021745Y028139D01*
X021745Y027139D02*
X021745Y025954D01*
X021832Y025867D01*
X025572Y025867D01*
X025769Y025670D01*
X025769Y019666D01*
X025769Y010218D01*
X025985Y009942D01*
X027139Y009942D01*
X027462Y009619D01*
X027462Y003525D01*
X027265Y003328D01*
X026556Y003328D01*
X026359Y003131D01*
X026359Y001064D01*
X026162Y000867D01*
X022619Y000867D01*
X022422Y001064D01*
X022422Y002245D01*
X022324Y002344D01*
X021930Y002344D01*
X021922Y002351D01*
X021745Y002351D01*
X021745Y001351D02*
X021745Y000757D01*
X021930Y000572D01*
X026359Y000572D01*
X026655Y000867D01*
X026655Y002737D01*
X026950Y003032D01*
X028721Y003032D01*
X028918Y003229D01*
X028918Y009824D01*
X028820Y009922D01*
X028158Y009922D01*
X028139Y009942D01*
X027304Y012099D02*
X027233Y012099D01*
X026639Y012694D01*
X026639Y014745D01*
X026639Y016107D01*
X026851Y016320D01*
X027934Y016320D01*
X028131Y016517D01*
X028131Y017099D01*
X028139Y017107D01*
X027139Y017107D02*
X027139Y019509D01*
X025926Y019509D01*
X025769Y019666D01*
X028139Y019509D02*
X028426Y019796D01*
X028426Y026162D01*
X028229Y026359D01*
X024194Y026359D01*
X023997Y026556D01*
X024651Y027076D02*
X024651Y028721D01*
X024454Y028918D01*
X011202Y028918D01*
X011103Y028820D01*
X011103Y027836D01*
X007745Y028139D02*
X007745Y028710D01*
X007757Y028721D01*
X007560Y028918D01*
X002954Y028918D01*
X002757Y028721D01*
X002757Y027462D01*
X002107Y026812D01*
X000769Y026812D01*
X000572Y026615D01*
X000572Y023603D01*
X000706Y023737D01*
X001576Y023737D01*
X001576Y024737D02*
X002863Y024737D01*
X003052Y024548D01*
X003052Y024170D01*
X003060Y024162D01*
X003721Y025670D02*
X003721Y019371D01*
X003584Y019509D01*
X002351Y019509D01*
X001351Y019509D02*
X001351Y015836D01*
X001458Y015729D01*
X001836Y015729D01*
X001851Y015745D01*
X002836Y016572D02*
X002851Y016556D01*
X002851Y014745D01*
X002851Y012871D01*
X002147Y012166D01*
X003147Y012166D02*
X003328Y012347D01*
X003328Y013662D01*
X003721Y010434D02*
X003229Y009942D01*
X003721Y009450D01*
X003721Y003820D01*
X003918Y003623D01*
X007658Y003623D01*
X007745Y003536D01*
X007769Y003536D01*
X007855Y003623D01*
X026064Y003623D01*
X026304Y003863D01*
X026304Y004946D01*
X021745Y001351D02*
X021733Y001340D01*
X021733Y000769D01*
X021536Y000572D01*
X007954Y000572D01*
X007757Y000769D01*
X007757Y001340D01*
X007745Y001351D01*
X007757Y000769D02*
X007560Y000572D01*
X003131Y000572D01*
X002934Y000769D01*
X002934Y002147D01*
X002639Y002442D01*
X002639Y005296D01*
X002442Y005493D01*
X000769Y005493D01*
X000572Y005690D01*
X000572Y009824D01*
X000670Y009922D01*
X001332Y009922D01*
X001351Y009942D01*
X000670Y009922D02*
X000572Y010021D01*
X000572Y019666D01*
X000729Y019509D01*
X001351Y019509D01*
X000572Y019666D02*
X000572Y023603D01*
X001576Y025737D02*
X001576Y026162D01*
X001792Y026379D01*
X002501Y026379D01*
X003145Y027062D01*
X004251Y027062D01*
X003918Y025867D02*
X003721Y025670D01*
X003918Y025867D02*
X007560Y025867D01*
X007745Y026052D01*
X007745Y027139D01*
X014745Y026639D02*
X019485Y026639D01*
X019765Y026359D01*
X028139Y019509D02*
X028178Y019469D01*
X028820Y019469D01*
X028918Y019371D01*
X028918Y013859D01*
X028804Y013745D01*
X027639Y013745D01*
X018977Y002442D02*
X009245Y002442D01*
X007745Y002351D02*
X007745Y003536D01*
X006245Y002442D02*
X006182Y002379D01*
X006182Y002048D01*
X006044Y001910D01*
X004810Y001910D01*
X004828Y001928D01*
X004828Y003032D01*
X001828Y003032D02*
X001828Y004741D01*
X001851Y004765D01*
X002351Y009942D02*
X003229Y009942D01*
X003721Y010434D02*
X003721Y017403D01*
X003552Y017572D01*
X002836Y017572D01*
X003721Y017403D02*
X003721Y019371D01*
D19*
X003511Y019284D02*
X003511Y017782D01*
X003247Y017782D01*
X003226Y017832D01*
X003096Y017962D01*
X002927Y018032D01*
X002744Y018032D01*
X002575Y017962D01*
X002446Y017832D01*
X002376Y017663D01*
X002376Y017480D01*
X002446Y017311D01*
X002575Y017182D01*
X002744Y017112D01*
X002927Y017112D01*
X003096Y017182D01*
X003226Y017311D01*
X003247Y017362D01*
X003465Y017362D01*
X003511Y017316D01*
X003511Y013963D01*
X003397Y014011D01*
X003259Y014011D01*
X003131Y013958D01*
X003061Y013888D01*
X003061Y014291D01*
X003135Y014321D01*
X003275Y014462D01*
X003351Y014646D01*
X003351Y014845D01*
X003275Y015028D01*
X003135Y015169D01*
X003061Y015199D01*
X003061Y016167D01*
X003096Y016182D01*
X003226Y016311D01*
X003296Y016480D01*
X003296Y016663D01*
X003226Y016832D01*
X003096Y016962D01*
X002927Y017032D01*
X002744Y017032D01*
X002575Y016962D01*
X002446Y016832D01*
X002376Y016663D01*
X002376Y016480D01*
X002446Y016311D01*
X002575Y016182D01*
X002641Y016154D01*
X002641Y015199D01*
X002568Y015169D01*
X002427Y015028D01*
X002351Y014845D01*
X002351Y014646D01*
X002427Y014462D01*
X002568Y014321D01*
X002641Y014291D01*
X002641Y012958D01*
X002319Y012636D01*
X002246Y012666D01*
X002047Y012666D01*
X001863Y012590D01*
X001723Y012450D01*
X001647Y012266D01*
X001647Y012067D01*
X001723Y011883D01*
X001863Y011742D01*
X002047Y011666D01*
X002246Y011666D01*
X002430Y011742D01*
X002571Y011883D01*
X002647Y012067D01*
X002723Y011883D01*
X002863Y011742D01*
X003047Y011666D01*
X003246Y011666D01*
X003430Y011742D01*
X003511Y011824D01*
X003511Y010521D01*
X003142Y010152D01*
X002806Y010152D01*
X002775Y010225D01*
X002635Y010366D01*
X002451Y010442D01*
X002252Y010442D01*
X002068Y010366D01*
X001927Y010225D01*
X001775Y010225D01*
X001635Y010366D01*
X001451Y010442D01*
X001252Y010442D01*
X001068Y010366D01*
X000927Y010225D01*
X000782Y010225D01*
X000782Y010132D02*
X000782Y011824D01*
X000863Y011742D01*
X001047Y011666D01*
X001246Y011666D01*
X001430Y011742D01*
X001571Y011883D01*
X001647Y012067D01*
X001647Y012266D01*
X001571Y012450D01*
X001430Y012590D01*
X001246Y012666D01*
X001047Y012666D01*
X000863Y012590D01*
X000782Y012509D01*
X000782Y019299D01*
X000897Y019299D01*
X000927Y019226D01*
X001068Y019085D01*
X001141Y019055D01*
X001141Y015749D01*
X001248Y015642D01*
X001371Y015519D01*
X001404Y015519D01*
X001427Y015462D01*
X001568Y015321D01*
X001752Y015245D01*
X001951Y015245D01*
X002135Y015321D01*
X002275Y015462D01*
X002351Y015646D01*
X002351Y015845D01*
X002275Y016028D01*
X002135Y016169D01*
X001951Y016245D01*
X001752Y016245D01*
X001568Y016169D01*
X001561Y016162D01*
X001561Y019055D01*
X001635Y019085D01*
X001775Y019226D01*
X001851Y019409D01*
X001927Y019226D01*
X002068Y019085D01*
X002252Y019009D01*
X002451Y019009D01*
X002635Y019085D01*
X002775Y019226D01*
X002806Y019299D01*
X003497Y019299D01*
X003511Y019284D01*
X003508Y019287D02*
X002801Y019287D01*
X002738Y019189D02*
X003511Y019189D01*
X003511Y019090D02*
X002640Y019090D01*
X002063Y019090D02*
X001640Y019090D01*
X001561Y018992D02*
X003511Y018992D01*
X003511Y018893D02*
X001561Y018893D01*
X001561Y018795D02*
X003511Y018795D01*
X003511Y018696D02*
X001561Y018696D01*
X001561Y018598D02*
X003511Y018598D01*
X003511Y018499D02*
X001561Y018499D01*
X001561Y018401D02*
X003511Y018401D01*
X003511Y018302D02*
X001561Y018302D01*
X001561Y018204D02*
X003511Y018204D01*
X003511Y018105D02*
X001561Y018105D01*
X001561Y018007D02*
X002683Y018007D01*
X002521Y017908D02*
X001561Y017908D01*
X001561Y017810D02*
X002436Y017810D01*
X002395Y017711D02*
X001561Y017711D01*
X001561Y017613D02*
X002376Y017613D01*
X002376Y017514D02*
X001561Y017514D01*
X001561Y017416D02*
X002402Y017416D01*
X002443Y017317D02*
X001561Y017317D01*
X001561Y017219D02*
X002538Y017219D01*
X002724Y017120D02*
X001561Y017120D01*
X001561Y017022D02*
X002719Y017022D01*
X002536Y016923D02*
X001561Y016923D01*
X001561Y016825D02*
X002442Y016825D01*
X002402Y016726D02*
X001561Y016726D01*
X001561Y016628D02*
X002376Y016628D01*
X002376Y016529D02*
X001561Y016529D01*
X001561Y016431D02*
X002396Y016431D01*
X002437Y016332D02*
X001561Y016332D01*
X001561Y016234D02*
X001724Y016234D01*
X001979Y016234D02*
X002523Y016234D01*
X002641Y016135D02*
X002169Y016135D01*
X002267Y016037D02*
X002641Y016037D01*
X002641Y015938D02*
X002313Y015938D01*
X002351Y015840D02*
X002641Y015840D01*
X002641Y015741D02*
X002351Y015741D01*
X002350Y015643D02*
X002641Y015643D01*
X002641Y015544D02*
X002309Y015544D01*
X002259Y015446D02*
X002641Y015446D01*
X002641Y015347D02*
X002160Y015347D01*
X001959Y015249D02*
X002641Y015249D01*
X002549Y015150D02*
X000782Y015150D01*
X000782Y015052D02*
X002451Y015052D01*
X002396Y014953D02*
X000782Y014953D01*
X000782Y014855D02*
X002356Y014855D01*
X002351Y014756D02*
X000782Y014756D01*
X000782Y014658D02*
X002351Y014658D01*
X002387Y014559D02*
X000782Y014559D01*
X000782Y014461D02*
X002429Y014461D01*
X002527Y014362D02*
X000782Y014362D01*
X000782Y014264D02*
X002641Y014264D01*
X002641Y014165D02*
X002139Y014165D01*
X002135Y014169D02*
X001951Y014245D01*
X001752Y014245D01*
X001568Y014169D01*
X001427Y014028D01*
X001351Y013845D01*
X001351Y013646D01*
X001427Y013462D01*
X001568Y013321D01*
X001752Y013245D01*
X001951Y013245D01*
X002135Y013321D01*
X002275Y013462D01*
X002351Y013646D01*
X002351Y013845D01*
X002275Y014028D01*
X002135Y014169D01*
X002237Y014067D02*
X002641Y014067D01*
X002641Y013968D02*
X002300Y013968D01*
X002341Y013870D02*
X002641Y013870D01*
X002641Y013771D02*
X002351Y013771D01*
X002351Y013673D02*
X002641Y013673D01*
X002641Y013574D02*
X002322Y013574D01*
X002281Y013476D02*
X002641Y013476D01*
X002641Y013377D02*
X002190Y013377D01*
X002032Y013279D02*
X002641Y013279D01*
X002641Y013180D02*
X000782Y013180D01*
X000782Y013082D02*
X002641Y013082D01*
X002641Y012983D02*
X000782Y012983D01*
X000782Y012885D02*
X002568Y012885D01*
X002469Y012786D02*
X000782Y012786D01*
X000782Y012688D02*
X002371Y012688D01*
X002669Y012392D02*
X002699Y012392D01*
X002720Y012443D02*
X002647Y012266D01*
X002647Y012067D01*
X002647Y012266D01*
X002616Y012339D01*
X002720Y012443D01*
X002658Y012294D02*
X002635Y012294D01*
X002647Y012195D02*
X002647Y012195D01*
X002647Y012097D02*
X002647Y012097D01*
X002675Y011998D02*
X002618Y011998D01*
X002577Y011900D02*
X002716Y011900D01*
X002805Y011801D02*
X002488Y011801D01*
X002333Y011703D02*
X002960Y011703D01*
X003333Y011703D02*
X003511Y011703D01*
X003511Y011801D02*
X003488Y011801D01*
X003511Y011604D02*
X000782Y011604D01*
X000782Y011506D02*
X003511Y011506D01*
X003511Y011407D02*
X000782Y011407D01*
X000782Y011309D02*
X003511Y011309D01*
X003511Y011210D02*
X000782Y011210D01*
X000782Y011112D02*
X003511Y011112D01*
X003511Y011013D02*
X000782Y011013D01*
X000782Y010915D02*
X003511Y010915D01*
X003511Y010816D02*
X000782Y010816D01*
X000782Y010718D02*
X003511Y010718D01*
X003511Y010619D02*
X000782Y010619D01*
X000782Y010521D02*
X003511Y010521D01*
X003412Y010422D02*
X002499Y010422D01*
X002677Y010324D02*
X003314Y010324D01*
X003215Y010225D02*
X002775Y010225D01*
X002806Y009732D02*
X003142Y009732D01*
X003511Y009363D01*
X003511Y003733D01*
X003708Y003536D01*
X003831Y003413D01*
X004473Y003413D01*
X004387Y003327D01*
X004308Y003136D01*
X004308Y002929D01*
X004387Y002738D01*
X004533Y002592D01*
X004618Y002557D01*
X004618Y002329D01*
X004549Y002300D01*
X004420Y002171D01*
X004350Y002002D01*
X004350Y001819D01*
X004420Y001650D01*
X004549Y001520D01*
X004719Y001450D01*
X004902Y001450D01*
X005071Y001520D01*
X005200Y001650D01*
X005221Y001700D01*
X006131Y001700D01*
X006240Y001809D01*
X006371Y001809D01*
X006603Y001906D01*
X006781Y002084D01*
X006878Y002316D01*
X006878Y002568D01*
X006781Y002800D01*
X006603Y002978D01*
X006371Y003074D01*
X006119Y003074D01*
X005887Y002978D01*
X005709Y002800D01*
X005613Y002568D01*
X005613Y002316D01*
X005694Y002120D01*
X005221Y002120D01*
X005200Y002171D01*
X005071Y002300D01*
X005038Y002314D01*
X005038Y002557D01*
X005122Y002592D01*
X005269Y002738D01*
X005348Y002929D01*
X005348Y003136D01*
X005269Y003327D01*
X005183Y003413D01*
X007535Y003413D01*
X007535Y002806D01*
X007462Y002775D01*
X007321Y002635D01*
X007245Y002451D01*
X007245Y002252D01*
X007321Y002068D01*
X007462Y001927D01*
X007646Y001851D01*
X007845Y001851D01*
X008028Y001927D01*
X008169Y002068D01*
X008245Y002252D01*
X008245Y002451D01*
X008169Y002635D01*
X008028Y002775D01*
X007955Y002806D01*
X007955Y003413D01*
X026151Y003413D01*
X026445Y003707D01*
X026447Y003702D01*
X026588Y003561D01*
X026645Y003538D01*
X026469Y003538D01*
X026346Y003415D01*
X026149Y003218D01*
X026149Y001151D01*
X026075Y001077D01*
X022706Y001077D01*
X022632Y001151D01*
X022632Y002269D01*
X022709Y002084D01*
X022887Y001906D01*
X023119Y001809D01*
X023371Y001809D01*
X023603Y001906D01*
X023781Y002084D01*
X023878Y002316D01*
X023878Y002568D01*
X023781Y002800D01*
X023603Y002978D01*
X023371Y003074D01*
X023119Y003074D01*
X022887Y002978D01*
X022709Y002800D01*
X022613Y002568D01*
X022613Y002352D01*
X022509Y002455D01*
X022411Y002554D01*
X022203Y002554D01*
X022169Y002635D01*
X022028Y002775D01*
X021845Y002851D01*
X021646Y002851D01*
X021462Y002775D01*
X021321Y002635D01*
X021245Y002451D01*
X021245Y002252D01*
X021321Y002068D01*
X021462Y001927D01*
X021646Y001851D01*
X021462Y001775D01*
X021321Y001635D01*
X021245Y001451D01*
X021245Y001252D01*
X021321Y001068D01*
X021462Y000927D01*
X021523Y000902D01*
X021523Y000856D01*
X021449Y000782D01*
X008041Y000782D01*
X007967Y000856D01*
X007967Y000902D01*
X008028Y000927D01*
X008169Y001068D01*
X008245Y001252D01*
X008245Y001451D01*
X008169Y001635D01*
X008028Y001775D01*
X007845Y001851D01*
X007646Y001851D01*
X007462Y001775D01*
X007321Y001635D01*
X007245Y001451D01*
X007245Y001252D01*
X007321Y001068D01*
X007462Y000927D01*
X007547Y000892D01*
X007547Y000856D01*
X007473Y000782D01*
X003218Y000782D01*
X003144Y000856D01*
X003144Y002234D01*
X003021Y002357D01*
X002849Y002529D01*
X002849Y005383D01*
X002726Y005506D01*
X002529Y005703D01*
X002396Y005703D01*
X002401Y005723D01*
X002401Y006093D01*
X001901Y006093D01*
X001901Y006193D01*
X001801Y006193D01*
X001801Y006093D01*
X001301Y006093D01*
X001301Y005723D01*
X001307Y005703D01*
X000856Y005703D01*
X000782Y005777D01*
X000782Y009712D01*
X000905Y009712D01*
X000927Y009659D01*
X001068Y009518D01*
X001252Y009442D01*
X001451Y009442D01*
X001635Y009518D01*
X001775Y009659D01*
X001851Y009842D01*
X001927Y009659D01*
X002068Y009518D01*
X002252Y009442D01*
X002451Y009442D01*
X002635Y009518D01*
X002775Y009659D01*
X002806Y009732D01*
X002751Y009634D02*
X003240Y009634D01*
X003339Y009536D02*
X002652Y009536D01*
X002051Y009536D02*
X001652Y009536D01*
X001751Y009634D02*
X001952Y009634D01*
X001897Y009733D02*
X001806Y009733D01*
X001847Y009831D02*
X001856Y009831D01*
X001851Y009842D02*
X001851Y010041D01*
X001775Y010225D01*
X001816Y010127D02*
X001887Y010127D01*
X001851Y010041D02*
X001927Y010225D01*
X002026Y010324D02*
X001677Y010324D01*
X001499Y010422D02*
X002204Y010422D01*
X001851Y010041D02*
X001851Y009842D01*
X001851Y009930D02*
X001851Y009930D01*
X001851Y010028D02*
X001851Y010028D01*
X001204Y010422D02*
X000782Y010422D01*
X000782Y010324D02*
X001026Y010324D01*
X000927Y010225D02*
X000889Y010132D01*
X000782Y010132D01*
X000782Y009634D02*
X000952Y009634D01*
X001051Y009536D02*
X000782Y009536D01*
X000782Y009437D02*
X003437Y009437D01*
X003511Y009339D02*
X000782Y009339D01*
X000782Y009240D02*
X003511Y009240D01*
X003511Y009142D02*
X000782Y009142D01*
X000782Y009043D02*
X003511Y009043D01*
X003511Y008945D02*
X000782Y008945D01*
X000782Y008846D02*
X003511Y008846D01*
X003511Y008748D02*
X000782Y008748D01*
X000782Y008649D02*
X003511Y008649D01*
X003511Y008551D02*
X000782Y008551D01*
X000782Y008452D02*
X003511Y008452D01*
X003511Y008354D02*
X000782Y008354D01*
X000782Y008255D02*
X003511Y008255D01*
X003511Y008157D02*
X000782Y008157D01*
X000782Y008058D02*
X003511Y008058D01*
X003511Y007960D02*
X000782Y007960D01*
X000782Y007861D02*
X003511Y007861D01*
X003511Y007763D02*
X000782Y007763D01*
X000782Y007664D02*
X003511Y007664D01*
X003511Y007566D02*
X000782Y007566D01*
X000782Y007467D02*
X003511Y007467D01*
X003511Y007369D02*
X000782Y007369D01*
X000782Y007270D02*
X003511Y007270D01*
X003511Y007172D02*
X000782Y007172D01*
X000782Y007073D02*
X003511Y007073D01*
X003511Y006975D02*
X000782Y006975D01*
X000782Y006876D02*
X003511Y006876D01*
X003511Y006778D02*
X000782Y006778D01*
X000782Y006679D02*
X001387Y006679D01*
X001393Y006682D02*
X001359Y006663D01*
X001331Y006635D01*
X001312Y006601D01*
X001301Y006562D01*
X001301Y006193D01*
X001801Y006193D01*
X001801Y006693D01*
X001432Y006693D01*
X001393Y006682D01*
X001306Y006581D02*
X000782Y006581D01*
X000782Y006482D02*
X001301Y006482D01*
X001301Y006384D02*
X000782Y006384D01*
X000782Y006285D02*
X001301Y006285D01*
X001301Y006088D02*
X000782Y006088D01*
X000782Y005990D02*
X001301Y005990D01*
X001301Y005891D02*
X000782Y005891D01*
X000782Y005793D02*
X001301Y005793D01*
X001801Y006187D02*
X000782Y006187D01*
X001801Y006285D02*
X001901Y006285D01*
X001901Y006193D02*
X001901Y006693D01*
X002271Y006693D01*
X002309Y006682D01*
X002343Y006663D01*
X002371Y006635D01*
X002391Y006601D01*
X002401Y006562D01*
X002401Y006193D01*
X001901Y006193D01*
X001901Y006187D02*
X003511Y006187D01*
X003511Y006285D02*
X002401Y006285D01*
X002401Y006384D02*
X003511Y006384D01*
X003511Y006482D02*
X002401Y006482D01*
X002397Y006581D02*
X003511Y006581D01*
X003511Y006679D02*
X002315Y006679D01*
X001901Y006679D02*
X001801Y006679D01*
X001801Y006581D02*
X001901Y006581D01*
X001901Y006482D02*
X001801Y006482D01*
X001801Y006384D02*
X001901Y006384D01*
X002401Y006088D02*
X003511Y006088D01*
X003511Y005990D02*
X002401Y005990D01*
X002401Y005891D02*
X003511Y005891D01*
X003511Y005793D02*
X002401Y005793D01*
X002538Y005694D02*
X003511Y005694D01*
X003511Y005596D02*
X002637Y005596D01*
X002735Y005497D02*
X003511Y005497D01*
X003511Y005399D02*
X002834Y005399D01*
X002849Y005300D02*
X003511Y005300D01*
X003511Y005202D02*
X002849Y005202D01*
X002849Y005103D02*
X003511Y005103D01*
X003511Y005005D02*
X002849Y005005D01*
X002849Y004906D02*
X003511Y004906D01*
X003511Y004808D02*
X002849Y004808D01*
X002849Y004709D02*
X003511Y004709D01*
X003511Y004611D02*
X002849Y004611D01*
X002849Y004512D02*
X003511Y004512D01*
X003511Y004414D02*
X002849Y004414D01*
X002849Y004315D02*
X003511Y004315D01*
X003511Y004217D02*
X002849Y004217D01*
X002849Y004118D02*
X003511Y004118D01*
X003511Y004020D02*
X002849Y004020D01*
X002849Y003921D02*
X003511Y003921D01*
X003511Y003823D02*
X002849Y003823D01*
X002849Y003724D02*
X003520Y003724D01*
X003619Y003626D02*
X002849Y003626D01*
X002849Y003527D02*
X003717Y003527D01*
X003816Y003429D02*
X002849Y003429D01*
X002849Y003330D02*
X004390Y003330D01*
X004347Y003232D02*
X002849Y003232D01*
X002849Y003133D02*
X004308Y003133D01*
X004308Y003035D02*
X002849Y003035D01*
X002849Y002936D02*
X004308Y002936D01*
X004346Y002838D02*
X002849Y002838D01*
X002849Y002739D02*
X004386Y002739D01*
X004484Y002641D02*
X002849Y002641D01*
X002849Y002542D02*
X004618Y002542D01*
X004618Y002444D02*
X002934Y002444D01*
X003033Y002345D02*
X003606Y002345D01*
X003626Y002355D02*
X003558Y002321D01*
X003497Y002277D01*
X003444Y002223D01*
X003400Y002162D01*
X003365Y002095D01*
X003342Y002023D01*
X003330Y001948D01*
X003330Y001940D01*
X003780Y001940D01*
X003780Y001880D01*
X003840Y001880D01*
X003840Y001430D01*
X003848Y001430D01*
X003922Y001442D01*
X003994Y001466D01*
X004062Y001500D01*
X004123Y001544D01*
X004176Y001598D01*
X004221Y001659D01*
X004255Y001726D01*
X004278Y001798D01*
X004290Y001873D01*
X004290Y001880D01*
X003840Y001880D01*
X003840Y001940D01*
X004290Y001940D01*
X004290Y001948D01*
X004278Y002023D01*
X004255Y002095D01*
X004221Y002162D01*
X004176Y002223D01*
X004123Y002277D01*
X004062Y002321D01*
X003994Y002355D01*
X003922Y002379D01*
X003848Y002390D01*
X003840Y002390D01*
X003840Y001940D01*
X003780Y001940D01*
X003780Y002390D01*
X003772Y002390D01*
X003698Y002379D01*
X003626Y002355D01*
X003780Y002345D02*
X003840Y002345D01*
X003840Y002247D02*
X003780Y002247D01*
X003780Y002148D02*
X003840Y002148D01*
X003840Y002050D02*
X003780Y002050D01*
X003780Y001951D02*
X003840Y001951D01*
X003780Y001880D02*
X003780Y001430D01*
X003772Y001430D01*
X003698Y001442D01*
X003626Y001466D01*
X003558Y001500D01*
X003497Y001544D01*
X003444Y001598D01*
X003400Y001659D01*
X003365Y001726D01*
X003342Y001798D01*
X003330Y001873D01*
X003330Y001880D01*
X003780Y001880D01*
X003780Y001853D02*
X003840Y001853D01*
X003840Y001754D02*
X003780Y001754D01*
X003780Y001656D02*
X003840Y001656D01*
X003840Y001557D02*
X003780Y001557D01*
X003780Y001459D02*
X003840Y001459D01*
X003972Y001459D02*
X004699Y001459D01*
X004513Y001557D02*
X004135Y001557D01*
X004218Y001656D02*
X004418Y001656D01*
X004377Y001754D02*
X004264Y001754D01*
X004287Y001853D02*
X004350Y001853D01*
X004350Y001951D02*
X004290Y001951D01*
X004270Y002050D02*
X004370Y002050D01*
X004411Y002148D02*
X004228Y002148D01*
X004153Y002247D02*
X004496Y002247D01*
X004618Y002345D02*
X004014Y002345D01*
X003467Y002247D02*
X003131Y002247D01*
X003144Y002148D02*
X003392Y002148D01*
X003351Y002050D02*
X003144Y002050D01*
X003144Y001951D02*
X003330Y001951D01*
X003333Y001853D02*
X003144Y001853D01*
X003144Y001754D02*
X003356Y001754D01*
X003402Y001656D02*
X003144Y001656D01*
X003144Y001557D02*
X003485Y001557D01*
X003648Y001459D02*
X003144Y001459D01*
X003144Y001360D02*
X007245Y001360D01*
X007245Y001262D02*
X003144Y001262D01*
X003144Y001163D02*
X007282Y001163D01*
X007325Y001065D02*
X003144Y001065D01*
X003144Y000966D02*
X007423Y000966D01*
X007547Y000868D02*
X003144Y000868D01*
X004921Y001459D02*
X007248Y001459D01*
X007289Y001557D02*
X005107Y001557D01*
X005202Y001656D02*
X007342Y001656D01*
X007441Y001754D02*
X006185Y001754D01*
X006475Y001853D02*
X007643Y001853D01*
X007847Y001853D02*
X009015Y001853D01*
X009119Y001809D02*
X009371Y001809D01*
X009603Y001906D01*
X009781Y002084D01*
X009843Y002232D01*
X013665Y002232D01*
X013645Y002218D01*
X013592Y002164D01*
X013547Y002103D01*
X013513Y002036D01*
X013489Y001964D01*
X013478Y001889D01*
X013478Y001880D01*
X013929Y001880D01*
X013929Y001823D01*
X013478Y001823D01*
X013478Y001814D01*
X013489Y001739D01*
X013513Y001667D01*
X013547Y001600D01*
X013592Y001539D01*
X013645Y001485D01*
X013706Y001441D01*
X013773Y001407D01*
X013845Y001383D01*
X013920Y001371D01*
X013929Y001371D01*
X013929Y001823D01*
X013986Y001823D01*
X013986Y001371D01*
X013995Y001371D01*
X014070Y001383D01*
X014142Y001407D01*
X014209Y001441D01*
X014270Y001485D01*
X014324Y001539D01*
X014368Y001600D01*
X014403Y001667D01*
X014426Y001739D01*
X014438Y001814D01*
X014438Y001823D01*
X013986Y001823D01*
X013986Y001880D01*
X014438Y001880D01*
X014438Y001889D01*
X014426Y001964D01*
X014403Y002036D01*
X014368Y002103D01*
X014324Y002164D01*
X014270Y002218D01*
X014251Y002232D01*
X015262Y002232D01*
X015143Y002112D01*
X015072Y001943D01*
X015072Y001760D01*
X015143Y001591D01*
X015272Y001461D01*
X015441Y001391D01*
X015624Y001391D01*
X015793Y001461D01*
X015922Y001591D01*
X015992Y001760D01*
X015992Y001943D01*
X015922Y002112D01*
X015802Y002232D01*
X018695Y002232D01*
X018780Y002147D01*
X018908Y002094D01*
X019047Y002094D01*
X019175Y002147D01*
X019272Y002245D01*
X019325Y002373D01*
X019325Y002511D01*
X019272Y002639D01*
X019175Y002737D01*
X019047Y002790D01*
X018908Y002790D01*
X018780Y002737D01*
X018695Y002652D01*
X009843Y002652D01*
X009781Y002800D01*
X009603Y002978D01*
X009371Y003074D01*
X009119Y003074D01*
X008887Y002978D01*
X008709Y002800D01*
X008613Y002568D01*
X008613Y002316D01*
X008709Y002084D01*
X008887Y001906D01*
X009119Y001809D01*
X008842Y001951D02*
X008052Y001951D01*
X008150Y002050D02*
X008743Y002050D01*
X008682Y002148D02*
X008202Y002148D01*
X008243Y002247D02*
X008641Y002247D01*
X008613Y002345D02*
X008245Y002345D01*
X008245Y002444D02*
X008613Y002444D01*
X008613Y002542D02*
X008207Y002542D01*
X008163Y002641D02*
X008643Y002641D01*
X008684Y002739D02*
X008065Y002739D01*
X007955Y002838D02*
X008746Y002838D01*
X008845Y002936D02*
X007955Y002936D01*
X007955Y003035D02*
X009023Y003035D01*
X009467Y003035D02*
X020023Y003035D01*
X020119Y003074D02*
X019887Y002978D01*
X019709Y002800D01*
X019613Y002568D01*
X019613Y002316D01*
X019709Y002084D01*
X019887Y001906D01*
X020119Y001809D01*
X020371Y001809D01*
X020603Y001906D01*
X020781Y002084D01*
X020878Y002316D01*
X020878Y002568D01*
X020781Y002800D01*
X020603Y002978D01*
X020371Y003074D01*
X020119Y003074D01*
X019845Y002936D02*
X009645Y002936D01*
X009744Y002838D02*
X019746Y002838D01*
X019684Y002739D02*
X019170Y002739D01*
X019271Y002641D02*
X019643Y002641D01*
X019613Y002542D02*
X019313Y002542D01*
X019325Y002444D02*
X019613Y002444D01*
X019613Y002345D02*
X019314Y002345D01*
X019273Y002247D02*
X019641Y002247D01*
X019682Y002148D02*
X019176Y002148D01*
X019743Y002050D02*
X015948Y002050D01*
X015989Y001951D02*
X019842Y001951D01*
X020015Y001853D02*
X015992Y001853D01*
X015990Y001754D02*
X021441Y001754D01*
X021342Y001656D02*
X015949Y001656D01*
X015889Y001557D02*
X021289Y001557D01*
X021248Y001459D02*
X015786Y001459D01*
X015279Y001459D02*
X014234Y001459D01*
X014337Y001557D02*
X015176Y001557D01*
X015116Y001656D02*
X014397Y001656D01*
X014428Y001754D02*
X015075Y001754D01*
X015072Y001853D02*
X013986Y001853D01*
X013929Y001853D02*
X009475Y001853D01*
X009649Y001951D02*
X013487Y001951D01*
X013520Y002050D02*
X009747Y002050D01*
X009808Y002148D02*
X013580Y002148D01*
X013487Y001754D02*
X008050Y001754D01*
X008148Y001656D02*
X013519Y001656D01*
X013578Y001557D02*
X008201Y001557D01*
X008242Y001459D02*
X013682Y001459D01*
X013929Y001459D02*
X013986Y001459D01*
X013986Y001557D02*
X013929Y001557D01*
X013929Y001656D02*
X013986Y001656D01*
X013986Y001754D02*
X013929Y001754D01*
X014428Y001951D02*
X015076Y001951D01*
X015117Y002050D02*
X014395Y002050D01*
X014335Y002148D02*
X015179Y002148D01*
X015886Y002148D02*
X018779Y002148D01*
X018785Y002739D02*
X009807Y002739D01*
X008245Y001360D02*
X021245Y001360D01*
X021245Y001262D02*
X008245Y001262D01*
X008208Y001163D02*
X021282Y001163D01*
X021325Y001065D02*
X008165Y001065D01*
X008067Y000966D02*
X021423Y000966D01*
X021523Y000868D02*
X007967Y000868D01*
X007438Y001951D02*
X006649Y001951D01*
X006747Y002050D02*
X007340Y002050D01*
X007288Y002148D02*
X006808Y002148D01*
X006849Y002247D02*
X007247Y002247D01*
X007245Y002345D02*
X006878Y002345D01*
X006878Y002444D02*
X007245Y002444D01*
X007283Y002542D02*
X006878Y002542D01*
X006847Y002641D02*
X007327Y002641D01*
X007426Y002739D02*
X006807Y002739D01*
X006744Y002838D02*
X007535Y002838D01*
X007535Y002936D02*
X006645Y002936D01*
X006467Y003035D02*
X007535Y003035D01*
X007535Y003133D02*
X005348Y003133D01*
X005348Y003035D02*
X006023Y003035D01*
X005845Y002936D02*
X005348Y002936D01*
X005310Y002838D02*
X005746Y002838D01*
X005684Y002739D02*
X005269Y002739D01*
X005171Y002641D02*
X005643Y002641D01*
X005613Y002542D02*
X005038Y002542D01*
X005038Y002444D02*
X005613Y002444D01*
X005613Y002345D02*
X005038Y002345D01*
X005125Y002247D02*
X005641Y002247D01*
X005682Y002148D02*
X005210Y002148D01*
X005308Y003232D02*
X007535Y003232D01*
X007535Y003330D02*
X005266Y003330D01*
X007955Y003330D02*
X026261Y003330D01*
X026166Y003429D02*
X026360Y003429D01*
X026265Y003527D02*
X026458Y003527D01*
X026524Y003626D02*
X026363Y003626D01*
X026163Y003232D02*
X007955Y003232D01*
X007955Y003133D02*
X026149Y003133D01*
X026149Y003035D02*
X023467Y003035D01*
X023645Y002936D02*
X026149Y002936D01*
X026149Y002838D02*
X023744Y002838D01*
X023807Y002739D02*
X026149Y002739D01*
X026149Y002641D02*
X023847Y002641D01*
X023878Y002542D02*
X026149Y002542D01*
X026149Y002444D02*
X023878Y002444D01*
X023878Y002345D02*
X026149Y002345D01*
X026149Y002247D02*
X023849Y002247D01*
X023808Y002148D02*
X026149Y002148D01*
X026149Y002050D02*
X023747Y002050D01*
X023649Y001951D02*
X026149Y001951D01*
X026149Y001853D02*
X023475Y001853D01*
X023015Y001853D02*
X022632Y001853D01*
X022632Y001951D02*
X022842Y001951D01*
X022743Y002050D02*
X022632Y002050D01*
X022632Y002148D02*
X022682Y002148D01*
X022641Y002247D02*
X022632Y002247D01*
X022613Y002444D02*
X022521Y002444D01*
X022613Y002542D02*
X022422Y002542D01*
X022643Y002641D02*
X022163Y002641D01*
X022065Y002739D02*
X022684Y002739D01*
X022746Y002838D02*
X021878Y002838D01*
X021612Y002838D02*
X020744Y002838D01*
X020807Y002739D02*
X021426Y002739D01*
X021327Y002641D02*
X020847Y002641D01*
X020878Y002542D02*
X021283Y002542D01*
X021245Y002444D02*
X020878Y002444D01*
X020878Y002345D02*
X021245Y002345D01*
X021247Y002247D02*
X020849Y002247D01*
X020808Y002148D02*
X021288Y002148D01*
X021340Y002050D02*
X020747Y002050D01*
X020649Y001951D02*
X021438Y001951D01*
X021643Y001853D02*
X020475Y001853D01*
X020645Y002936D02*
X022845Y002936D01*
X023023Y003035D02*
X020467Y003035D01*
X021646Y001851D02*
X021845Y001851D01*
X021646Y001851D01*
X021845Y001851D02*
X022028Y001775D01*
X022169Y001635D01*
X022212Y001530D01*
X022212Y002134D01*
X022196Y002134D01*
X022169Y002068D01*
X022028Y001927D01*
X021845Y001851D01*
X021847Y001853D02*
X022212Y001853D01*
X022212Y001951D02*
X022052Y001951D01*
X022150Y002050D02*
X022212Y002050D01*
X022212Y001754D02*
X022050Y001754D01*
X022148Y001656D02*
X022212Y001656D01*
X022201Y001557D02*
X022212Y001557D01*
X022632Y001557D02*
X026149Y001557D01*
X026149Y001459D02*
X022632Y001459D01*
X022632Y001360D02*
X026149Y001360D01*
X026149Y001262D02*
X022632Y001262D01*
X022632Y001163D02*
X026149Y001163D01*
X026149Y001656D02*
X022632Y001656D01*
X022632Y001754D02*
X026149Y001754D01*
X028139Y009942D02*
X028139Y011489D01*
X027804Y011828D01*
X027804Y013580D01*
X027639Y013745D01*
X027459Y013279D02*
X026849Y013279D01*
X026849Y013377D02*
X027300Y013377D01*
X027356Y013321D02*
X027539Y013245D01*
X027624Y013245D01*
X027624Y012487D01*
X027587Y012523D01*
X027404Y012599D01*
X027205Y012599D01*
X027081Y012548D01*
X026849Y012781D01*
X026849Y014291D01*
X026922Y014321D01*
X027063Y014462D01*
X027139Y014646D01*
X027139Y014845D01*
X027063Y015028D01*
X026922Y015169D01*
X026849Y015199D01*
X026849Y016020D01*
X026938Y016110D01*
X027296Y016110D01*
X027215Y016028D01*
X027139Y015845D01*
X027139Y015646D01*
X027215Y015462D01*
X027356Y015321D01*
X027539Y015245D01*
X027738Y015245D01*
X027922Y015321D01*
X028063Y015462D01*
X028139Y015646D01*
X028139Y015845D01*
X028063Y016028D01*
X027981Y016110D01*
X028021Y016110D01*
X028218Y016307D01*
X028341Y016430D01*
X028341Y016693D01*
X028399Y016717D01*
X028529Y016847D01*
X028599Y017016D01*
X028599Y017199D01*
X028529Y017368D01*
X028399Y017497D01*
X028230Y017567D01*
X028047Y017567D01*
X027878Y017497D01*
X027749Y017368D01*
X027679Y017199D01*
X027679Y017016D01*
X027749Y016847D01*
X027878Y016717D01*
X027921Y016700D01*
X027921Y016604D01*
X027847Y016530D01*
X026764Y016530D01*
X026641Y016407D01*
X026429Y016194D01*
X026429Y015199D01*
X026356Y015169D01*
X026215Y015028D01*
X026139Y014845D01*
X026139Y014646D01*
X026215Y014462D01*
X026356Y014321D01*
X026429Y014291D01*
X026429Y012607D01*
X026459Y012576D01*
X026404Y012599D01*
X026205Y012599D01*
X026021Y012523D01*
X025979Y012481D01*
X025979Y019299D01*
X026685Y019299D01*
X026715Y019226D01*
X026856Y019085D01*
X026929Y019055D01*
X026929Y017518D01*
X026878Y017497D01*
X026749Y017368D01*
X026679Y017199D01*
X026679Y017016D01*
X026749Y016847D01*
X026878Y016717D01*
X027047Y016647D01*
X027230Y016647D01*
X027399Y016717D01*
X027529Y016847D01*
X027599Y017016D01*
X027599Y017199D01*
X027529Y017368D01*
X027399Y017497D01*
X027349Y017518D01*
X027349Y019055D01*
X027422Y019085D01*
X027563Y019226D01*
X027639Y019409D01*
X027715Y019226D01*
X027856Y019085D01*
X028039Y019009D01*
X028238Y019009D01*
X028422Y019085D01*
X028563Y019226D01*
X028577Y019259D01*
X028708Y019259D01*
X028708Y013955D01*
X028093Y013955D01*
X028063Y014028D01*
X027922Y014169D01*
X027738Y014245D01*
X027539Y014245D01*
X027356Y014169D01*
X027215Y014028D01*
X027139Y013845D01*
X027139Y013646D01*
X027215Y013462D01*
X027356Y013321D01*
X027209Y013476D02*
X026849Y013476D01*
X026849Y013574D02*
X027168Y013574D01*
X027139Y013673D02*
X026849Y013673D01*
X026849Y013771D02*
X027139Y013771D01*
X027149Y013870D02*
X026849Y013870D01*
X026849Y013968D02*
X027190Y013968D01*
X027253Y014067D02*
X026849Y014067D01*
X026849Y014165D02*
X027352Y014165D01*
X027061Y014461D02*
X028708Y014461D01*
X028708Y014559D02*
X027103Y014559D01*
X027139Y014658D02*
X028708Y014658D01*
X028708Y014756D02*
X027139Y014756D01*
X027135Y014855D02*
X028708Y014855D01*
X028708Y014953D02*
X027094Y014953D01*
X027039Y015052D02*
X028708Y015052D01*
X028708Y015150D02*
X026941Y015150D01*
X026849Y015249D02*
X027531Y015249D01*
X027747Y015249D02*
X028708Y015249D01*
X028708Y015347D02*
X027948Y015347D01*
X028046Y015446D02*
X028708Y015446D01*
X028708Y015544D02*
X028097Y015544D01*
X028138Y015643D02*
X028708Y015643D01*
X028708Y015741D02*
X028139Y015741D01*
X028139Y015840D02*
X028708Y015840D01*
X028708Y015938D02*
X028100Y015938D01*
X028054Y016037D02*
X028708Y016037D01*
X028708Y016135D02*
X028046Y016135D01*
X028145Y016234D02*
X028708Y016234D01*
X028708Y016332D02*
X028243Y016332D01*
X028341Y016431D02*
X028708Y016431D01*
X028708Y016529D02*
X028341Y016529D01*
X028341Y016628D02*
X028708Y016628D01*
X028708Y016726D02*
X028408Y016726D01*
X028507Y016825D02*
X028708Y016825D01*
X028708Y016923D02*
X028560Y016923D01*
X028599Y017022D02*
X028708Y017022D01*
X028708Y017120D02*
X028599Y017120D01*
X028591Y017219D02*
X028708Y017219D01*
X028708Y017317D02*
X028550Y017317D01*
X028481Y017416D02*
X028708Y017416D01*
X028708Y017514D02*
X028359Y017514D01*
X028708Y017613D02*
X027349Y017613D01*
X027349Y017711D02*
X028708Y017711D01*
X028708Y017810D02*
X027349Y017810D01*
X027349Y017908D02*
X028708Y017908D01*
X028708Y018007D02*
X027349Y018007D01*
X027349Y018105D02*
X028708Y018105D01*
X028708Y018204D02*
X027349Y018204D01*
X027349Y018302D02*
X028708Y018302D01*
X028708Y018401D02*
X027349Y018401D01*
X027349Y018499D02*
X028708Y018499D01*
X028708Y018598D02*
X027349Y018598D01*
X027349Y018696D02*
X028708Y018696D01*
X028708Y018795D02*
X027349Y018795D01*
X027349Y018893D02*
X028708Y018893D01*
X028708Y018992D02*
X027349Y018992D01*
X027427Y019090D02*
X027850Y019090D01*
X027752Y019189D02*
X027526Y019189D01*
X027588Y019287D02*
X027689Y019287D01*
X027649Y019386D02*
X027629Y019386D01*
X027639Y019409D02*
X027639Y019608D01*
X027563Y019792D01*
X027422Y019933D01*
X027238Y020009D01*
X027039Y020009D01*
X026856Y019933D01*
X026715Y019792D01*
X026685Y019719D01*
X026013Y019719D01*
X025979Y019753D01*
X025979Y025757D01*
X025659Y026077D01*
X021955Y026077D01*
X021955Y026685D01*
X022028Y026715D01*
X022169Y026856D01*
X022245Y027039D01*
X022245Y027238D01*
X022169Y027422D01*
X022028Y027563D01*
X021845Y027639D01*
X021646Y027639D01*
X021462Y027563D01*
X021321Y027422D01*
X021245Y027238D01*
X021245Y027039D01*
X021321Y026856D01*
X021462Y026715D01*
X021535Y026685D01*
X021535Y025867D01*
X021622Y025780D01*
X021695Y025707D01*
X007697Y025707D01*
X007955Y025965D01*
X007955Y026685D01*
X008028Y026715D01*
X008169Y026856D01*
X008245Y027039D01*
X008245Y027238D01*
X008169Y027422D01*
X008028Y027563D01*
X007845Y027639D01*
X007646Y027639D01*
X007462Y027563D01*
X007321Y027422D01*
X007245Y027238D01*
X007245Y027039D01*
X007321Y026856D01*
X007462Y026715D01*
X007535Y026685D01*
X007535Y026139D01*
X007473Y026077D01*
X003831Y026077D01*
X003634Y025880D01*
X003511Y025757D01*
X003511Y024379D01*
X003484Y024446D01*
X003343Y024586D01*
X003262Y024620D01*
X003262Y024635D01*
X003139Y024758D01*
X002950Y024947D01*
X002030Y024947D01*
X002000Y025020D01*
X001859Y025161D01*
X001675Y025237D01*
X001476Y025237D01*
X001293Y025161D01*
X001152Y025020D01*
X001076Y024837D01*
X001076Y024638D01*
X001152Y024454D01*
X001293Y024313D01*
X001476Y024237D01*
X001293Y024161D01*
X001152Y024020D01*
X001122Y023947D01*
X000782Y023947D01*
X000782Y026528D01*
X000856Y026602D01*
X002194Y026602D01*
X002317Y026725D01*
X002967Y027375D01*
X002967Y028634D01*
X003041Y028708D01*
X007473Y028708D01*
X007535Y028646D01*
X007535Y028593D01*
X007462Y028563D01*
X007321Y028422D01*
X007245Y028238D01*
X007245Y028039D01*
X007321Y027856D01*
X007462Y027715D01*
X007646Y027639D01*
X007845Y027639D01*
X008028Y027715D01*
X008169Y027856D01*
X008245Y028039D01*
X008245Y028238D01*
X008169Y028422D01*
X008028Y028563D01*
X007955Y028593D01*
X007955Y028623D01*
X007967Y028634D01*
X007967Y028808D01*
X007795Y028980D01*
X010967Y028980D01*
X010893Y028907D01*
X010893Y028118D01*
X010808Y028033D01*
X010755Y027905D01*
X010755Y027766D01*
X010808Y027638D01*
X010906Y027541D01*
X011034Y027488D01*
X011173Y027488D01*
X011301Y027541D01*
X011398Y027638D01*
X011451Y027766D01*
X011451Y027905D01*
X011398Y028033D01*
X011313Y028118D01*
X011313Y028708D01*
X024367Y028708D01*
X024441Y028634D01*
X024441Y027530D01*
X024367Y027500D01*
X024227Y027359D01*
X024207Y027312D01*
X024207Y027923D01*
X024084Y028046D01*
X023781Y028349D01*
X022199Y028349D01*
X024441Y028349D01*
X024441Y028251D02*
X023879Y028251D01*
X023978Y028152D02*
X024441Y028152D01*
X024441Y028054D02*
X024076Y028054D01*
X024175Y027955D02*
X024441Y027955D01*
X024441Y027857D02*
X024207Y027857D01*
X024207Y027758D02*
X024441Y027758D01*
X024441Y027660D02*
X024207Y027660D01*
X024207Y027561D02*
X024441Y027561D01*
X024330Y027463D02*
X024207Y027463D01*
X024207Y027364D02*
X024232Y027364D01*
X024207Y026840D02*
X024227Y026793D01*
X024367Y026652D01*
X024551Y026576D01*
X024750Y026576D01*
X024934Y026652D01*
X025074Y026793D01*
X025151Y026976D01*
X025227Y026793D01*
X025367Y026652D01*
X025551Y026576D01*
X025750Y026576D01*
X025934Y026652D01*
X026074Y026793D01*
X026143Y026958D01*
X026143Y026954D01*
X026169Y026876D01*
X026206Y026803D01*
X026254Y026737D01*
X026312Y026679D01*
X026378Y026631D01*
X026451Y026594D01*
X026527Y026569D01*
X024281Y026569D01*
X024207Y026643D01*
X024207Y026840D01*
X024207Y026773D02*
X024246Y026773D01*
X024207Y026675D02*
X024345Y026675D01*
X024274Y026576D02*
X024550Y026576D01*
X024751Y026576D02*
X025550Y026576D01*
X025751Y026576D02*
X026506Y026576D01*
X026318Y026675D02*
X025956Y026675D01*
X026055Y026773D02*
X026228Y026773D01*
X026171Y026872D02*
X026107Y026872D01*
X026143Y027194D02*
X026074Y027359D01*
X025934Y027500D01*
X025750Y027576D01*
X025551Y027576D01*
X025367Y027500D01*
X025227Y027359D01*
X025151Y027175D01*
X025151Y026976D01*
X025151Y027175D01*
X025074Y027359D01*
X024934Y027500D01*
X024861Y027530D01*
X024861Y028808D01*
X024689Y028980D01*
X028980Y028980D01*
X028980Y019606D01*
X028907Y019679D01*
X028609Y019679D01*
X028608Y019682D01*
X028636Y019709D01*
X028636Y026249D01*
X028513Y026372D01*
X028316Y026569D01*
X026774Y026569D01*
X026850Y026594D01*
X026923Y026631D01*
X026989Y026679D01*
X027047Y026737D01*
X027095Y026803D01*
X027132Y026876D01*
X027158Y026954D01*
X027171Y027035D01*
X027171Y027046D01*
X026681Y027046D01*
X026681Y027106D01*
X027171Y027106D01*
X027171Y027117D01*
X027158Y027198D01*
X027132Y027275D01*
X027095Y027348D01*
X027047Y027415D01*
X026989Y027472D01*
X026923Y027521D01*
X026850Y027558D01*
X026772Y027583D01*
X026692Y027596D01*
X026681Y027596D01*
X026681Y027106D01*
X026621Y027106D01*
X026621Y027596D01*
X026610Y027596D01*
X026529Y027583D01*
X026451Y027558D01*
X026378Y027521D01*
X026312Y027472D01*
X026254Y027415D01*
X026206Y027348D01*
X026169Y027275D01*
X026143Y027198D01*
X026143Y027194D01*
X026165Y027266D02*
X026113Y027266D01*
X026069Y027364D02*
X026217Y027364D01*
X026302Y027463D02*
X025971Y027463D01*
X025786Y027561D02*
X026461Y027561D01*
X026621Y027561D02*
X026681Y027561D01*
X026681Y027463D02*
X026621Y027463D01*
X026621Y027364D02*
X026681Y027364D01*
X026681Y027266D02*
X026621Y027266D01*
X026621Y027167D02*
X026681Y027167D01*
X026681Y027069D02*
X028980Y027069D01*
X028980Y027167D02*
X027163Y027167D01*
X027136Y027266D02*
X028980Y027266D01*
X028980Y027364D02*
X028445Y027364D01*
X028580Y027420D02*
X028580Y027420D01*
X028810Y027651D01*
X028935Y027952D01*
X028935Y028278D01*
X028810Y028580D01*
X028580Y028810D01*
X028580Y028810D01*
X028278Y028935D01*
X027952Y028935D01*
X027651Y028810D01*
X027651Y028810D01*
X027420Y028580D01*
X027420Y028580D01*
X027295Y028278D01*
X027295Y027952D01*
X027420Y027651D01*
X027420Y027651D01*
X027651Y027420D01*
X027952Y027295D01*
X028078Y027295D01*
X028278Y027295D01*
X028580Y027420D01*
X028622Y027463D02*
X028980Y027463D01*
X028980Y027561D02*
X028721Y027561D01*
X028810Y027651D02*
X028810Y027651D01*
X028814Y027660D02*
X028980Y027660D01*
X028980Y027758D02*
X028855Y027758D01*
X028896Y027857D02*
X028980Y027857D01*
X028980Y027955D02*
X028935Y027955D01*
X028935Y028054D02*
X028980Y028054D01*
X028980Y028152D02*
X028935Y028152D01*
X028935Y028251D02*
X028980Y028251D01*
X028980Y028349D02*
X028906Y028349D01*
X028865Y028448D02*
X028980Y028448D01*
X028980Y028546D02*
X028824Y028546D01*
X028810Y028580D02*
X028810Y028580D01*
X028745Y028645D02*
X028980Y028645D01*
X028980Y028743D02*
X028647Y028743D01*
X028504Y028842D02*
X028980Y028842D01*
X028980Y028940D02*
X024729Y028940D01*
X024827Y028842D02*
X027726Y028842D01*
X027583Y028743D02*
X024861Y028743D01*
X024861Y028645D02*
X027485Y028645D01*
X027406Y028546D02*
X024861Y028546D01*
X024861Y028448D02*
X027365Y028448D01*
X027324Y028349D02*
X024861Y028349D01*
X024861Y028251D02*
X027295Y028251D01*
X027295Y028152D02*
X024861Y028152D01*
X024861Y028054D02*
X027295Y028054D01*
X027295Y027955D02*
X024861Y027955D01*
X024861Y027857D02*
X027335Y027857D01*
X027376Y027758D02*
X024861Y027758D01*
X024861Y027660D02*
X027416Y027660D01*
X027510Y027561D02*
X026840Y027561D01*
X026999Y027463D02*
X027608Y027463D01*
X027651Y027420D02*
X027651Y027420D01*
X027786Y027364D02*
X027084Y027364D01*
X027160Y026970D02*
X028980Y026970D01*
X028980Y026872D02*
X027130Y026872D01*
X027073Y026773D02*
X028980Y026773D01*
X028980Y026675D02*
X026983Y026675D01*
X026795Y026576D02*
X028980Y026576D01*
X028980Y026478D02*
X028408Y026478D01*
X028507Y026379D02*
X028980Y026379D01*
X028980Y026281D02*
X028605Y026281D01*
X028636Y026182D02*
X028980Y026182D01*
X028980Y026084D02*
X028636Y026084D01*
X028636Y025985D02*
X028980Y025985D01*
X028980Y025887D02*
X028636Y025887D01*
X028636Y025788D02*
X028980Y025788D01*
X028980Y025690D02*
X028636Y025690D01*
X028636Y025591D02*
X028980Y025591D01*
X028980Y025493D02*
X028636Y025493D01*
X028636Y025394D02*
X028980Y025394D01*
X028980Y025296D02*
X028636Y025296D01*
X028636Y025197D02*
X028980Y025197D01*
X028980Y025099D02*
X028636Y025099D01*
X028636Y025000D02*
X028980Y025000D01*
X028980Y024902D02*
X028636Y024902D01*
X028636Y024803D02*
X028980Y024803D01*
X028980Y024705D02*
X028636Y024705D01*
X028636Y024606D02*
X028980Y024606D01*
X028980Y024508D02*
X028636Y024508D01*
X028636Y024409D02*
X028980Y024409D01*
X028980Y024311D02*
X028636Y024311D01*
X028636Y024212D02*
X028980Y024212D01*
X028980Y024114D02*
X028636Y024114D01*
X028636Y024015D02*
X028980Y024015D01*
X028980Y023917D02*
X028636Y023917D01*
X028636Y023818D02*
X028980Y023818D01*
X028980Y023720D02*
X028636Y023720D01*
X028636Y023621D02*
X028980Y023621D01*
X028980Y023523D02*
X028636Y023523D01*
X028636Y023424D02*
X028980Y023424D01*
X028980Y023326D02*
X028636Y023326D01*
X028636Y023227D02*
X028980Y023227D01*
X028980Y023129D02*
X028636Y023129D01*
X028636Y023030D02*
X028980Y023030D01*
X028980Y022932D02*
X028636Y022932D01*
X028636Y022833D02*
X028980Y022833D01*
X028980Y022735D02*
X028636Y022735D01*
X028636Y022636D02*
X028980Y022636D01*
X028980Y022538D02*
X028636Y022538D01*
X028636Y022439D02*
X028980Y022439D01*
X028980Y022341D02*
X028636Y022341D01*
X028636Y022242D02*
X028980Y022242D01*
X028980Y022144D02*
X028636Y022144D01*
X028636Y022045D02*
X028980Y022045D01*
X028980Y021947D02*
X028636Y021947D01*
X028636Y021848D02*
X028980Y021848D01*
X028980Y021750D02*
X028636Y021750D01*
X028636Y021651D02*
X028980Y021651D01*
X028980Y021553D02*
X028636Y021553D01*
X028636Y021454D02*
X028980Y021454D01*
X028980Y021356D02*
X028636Y021356D01*
X028636Y021257D02*
X028980Y021257D01*
X028980Y021159D02*
X028636Y021159D01*
X028636Y021060D02*
X028980Y021060D01*
X028980Y020962D02*
X028636Y020962D01*
X028636Y020863D02*
X028980Y020863D01*
X028980Y020765D02*
X028636Y020765D01*
X028636Y020666D02*
X028980Y020666D01*
X028980Y020568D02*
X028636Y020568D01*
X028636Y020469D02*
X028980Y020469D01*
X028980Y020371D02*
X028636Y020371D01*
X028636Y020272D02*
X028980Y020272D01*
X028980Y020174D02*
X028636Y020174D01*
X028636Y020075D02*
X028980Y020075D01*
X028980Y019977D02*
X028636Y019977D01*
X028636Y019878D02*
X028980Y019878D01*
X028980Y019780D02*
X028636Y019780D01*
X028609Y019681D02*
X028980Y019681D01*
X028708Y019189D02*
X028526Y019189D01*
X028427Y019090D02*
X028708Y019090D01*
X028216Y020009D02*
X028039Y020009D01*
X027856Y019933D01*
X027715Y019792D01*
X027639Y019608D01*
X027639Y019409D01*
X027639Y019484D02*
X027639Y019484D01*
X027639Y019583D02*
X027639Y019583D01*
X027609Y019681D02*
X027669Y019681D01*
X027710Y019780D02*
X027568Y019780D01*
X027477Y019878D02*
X027801Y019878D01*
X027961Y019977D02*
X027316Y019977D01*
X026961Y019977D02*
X025979Y019977D01*
X025979Y020075D02*
X028216Y020075D01*
X028216Y020009D02*
X028216Y026075D01*
X028142Y026149D01*
X024107Y026149D01*
X023984Y026272D01*
X023787Y026469D01*
X023787Y026683D01*
X023737Y026617D01*
X023676Y026557D01*
X023608Y026505D01*
X023534Y026462D01*
X023455Y026429D01*
X023373Y026407D01*
X023295Y026397D01*
X023295Y026998D01*
X023195Y026998D01*
X023195Y026397D01*
X023118Y026407D01*
X023035Y026429D01*
X022956Y026462D01*
X022882Y026505D01*
X022814Y026557D01*
X022753Y026617D01*
X022701Y026685D01*
X022659Y026759D01*
X022626Y026838D01*
X022604Y026921D01*
X022594Y026998D01*
X023195Y026998D01*
X023195Y027098D01*
X022594Y027098D01*
X022604Y027176D01*
X022626Y027258D01*
X022659Y027337D01*
X022701Y027412D01*
X022753Y027479D01*
X022814Y027540D01*
X022882Y027592D01*
X022956Y027635D01*
X023035Y027667D01*
X023118Y027690D01*
X023195Y027700D01*
X023195Y027098D01*
X023295Y027098D01*
X023295Y027700D01*
X023373Y027690D01*
X023455Y027667D01*
X023534Y027635D01*
X023608Y027592D01*
X023676Y027540D01*
X023737Y027479D01*
X023787Y027414D01*
X023787Y027749D01*
X023607Y027929D01*
X022199Y027929D01*
X022169Y027856D01*
X022028Y027715D01*
X021845Y027639D01*
X021646Y027639D01*
X021462Y027715D01*
X021321Y027856D01*
X021245Y028039D01*
X021245Y028238D01*
X021321Y028422D01*
X021462Y028563D01*
X021646Y028639D01*
X021845Y028639D01*
X022028Y028563D01*
X022169Y028422D01*
X022199Y028349D01*
X022143Y028448D02*
X024441Y028448D01*
X024441Y028546D02*
X022045Y028546D01*
X021445Y028546D02*
X011313Y028546D01*
X011313Y028448D02*
X021347Y028448D01*
X021291Y028349D02*
X011313Y028349D01*
X011313Y028251D02*
X021250Y028251D01*
X021245Y028152D02*
X015828Y028152D01*
X015794Y028152D02*
X015697Y028152D01*
X015697Y028158D02*
X015623Y028146D01*
X015545Y028121D01*
X015473Y028084D01*
X015406Y028035D01*
X015348Y027978D01*
X015300Y027911D01*
X015263Y027838D01*
X015238Y027761D01*
X015226Y027687D01*
X015697Y027687D01*
X015697Y028158D01*
X015662Y028152D02*
X011313Y028152D01*
X011378Y028054D02*
X013453Y028054D01*
X013462Y028063D02*
X013321Y027922D01*
X013245Y027738D01*
X013245Y027539D01*
X013321Y027356D01*
X013462Y027215D01*
X013646Y027139D01*
X013845Y027139D01*
X014028Y027215D01*
X014169Y027356D01*
X014245Y027539D01*
X014245Y027738D01*
X014169Y027922D01*
X014028Y028063D01*
X013845Y028139D01*
X013646Y028139D01*
X013462Y028063D01*
X013354Y027955D02*
X011431Y027955D01*
X011451Y027857D02*
X013294Y027857D01*
X013253Y027758D02*
X011448Y027758D01*
X011407Y027660D02*
X013245Y027660D01*
X013245Y027561D02*
X011321Y027561D01*
X010886Y027561D02*
X009627Y027561D01*
X009603Y027584D02*
X009371Y027681D01*
X009119Y027681D01*
X008887Y027584D01*
X008709Y027407D01*
X008613Y027174D01*
X008613Y026922D01*
X008709Y026690D01*
X008887Y026512D01*
X009119Y026416D01*
X009371Y026416D01*
X009603Y026512D01*
X009781Y026690D01*
X009878Y026922D01*
X009878Y027174D01*
X009781Y027407D01*
X009603Y027584D01*
X009725Y027463D02*
X013277Y027463D01*
X013318Y027364D02*
X009799Y027364D01*
X009840Y027266D02*
X013411Y027266D01*
X013577Y027167D02*
X009878Y027167D01*
X009878Y027069D02*
X014476Y027069D01*
X014462Y027063D02*
X014321Y026922D01*
X014245Y026738D01*
X014245Y026539D01*
X014321Y026356D01*
X014462Y026215D01*
X014646Y026139D01*
X014845Y026139D01*
X015028Y026215D01*
X015169Y026356D01*
X015199Y026429D01*
X019398Y026429D01*
X019417Y026410D01*
X019417Y026290D01*
X019470Y026162D01*
X019568Y026064D01*
X019696Y026011D01*
X019834Y026011D01*
X019962Y026064D01*
X020060Y026162D01*
X020113Y026290D01*
X020113Y026408D01*
X020118Y026407D01*
X020195Y026397D01*
X020195Y026998D01*
X020295Y026998D01*
X020295Y026397D01*
X020373Y026407D01*
X020455Y026429D01*
X020534Y026462D01*
X020608Y026505D01*
X020676Y026557D01*
X020737Y026617D01*
X020789Y026685D01*
X020832Y026759D01*
X020864Y026838D01*
X020886Y026921D01*
X020897Y026998D01*
X020295Y026998D01*
X020295Y027098D01*
X020897Y027098D01*
X020886Y027176D01*
X020864Y027258D01*
X020832Y027337D01*
X020789Y027412D01*
X020737Y027479D01*
X020676Y027540D01*
X020608Y027592D01*
X020534Y027635D01*
X020455Y027667D01*
X020373Y027690D01*
X020295Y027700D01*
X020295Y027098D01*
X020195Y027098D01*
X020195Y026998D01*
X019594Y026998D01*
X019604Y026921D01*
X019626Y026838D01*
X019656Y026765D01*
X019572Y026849D01*
X015199Y026849D01*
X015169Y026922D01*
X015028Y027063D01*
X014845Y027139D01*
X014646Y027139D01*
X014462Y027063D01*
X014369Y026970D02*
X009878Y026970D01*
X009857Y026872D02*
X014300Y026872D01*
X014260Y026773D02*
X009816Y026773D01*
X009766Y026675D02*
X014245Y026675D01*
X014245Y026576D02*
X009667Y026576D01*
X009520Y026478D02*
X014271Y026478D01*
X014311Y026379D02*
X007955Y026379D01*
X007955Y026281D02*
X014396Y026281D01*
X014541Y026182D02*
X007955Y026182D01*
X007955Y026084D02*
X019548Y026084D01*
X019461Y026182D02*
X014949Y026182D01*
X015094Y026281D02*
X019421Y026281D01*
X019417Y026379D02*
X015179Y026379D01*
X015190Y026872D02*
X019617Y026872D01*
X019597Y026970D02*
X015121Y026970D01*
X015014Y027069D02*
X020195Y027069D01*
X020195Y027098D02*
X019594Y027098D01*
X019604Y027176D01*
X019626Y027258D01*
X019659Y027337D01*
X019701Y027412D01*
X019753Y027479D01*
X019814Y027540D01*
X019882Y027592D01*
X019956Y027635D01*
X020035Y027667D01*
X020118Y027690D01*
X020195Y027700D01*
X020195Y027098D01*
X020195Y027167D02*
X020295Y027167D01*
X020295Y027069D02*
X021245Y027069D01*
X021245Y027167D02*
X020888Y027167D01*
X020861Y027266D02*
X021256Y027266D01*
X021297Y027364D02*
X020816Y027364D01*
X020750Y027463D02*
X021362Y027463D01*
X021460Y027561D02*
X020649Y027561D01*
X020474Y027660D02*
X021595Y027660D01*
X021419Y027758D02*
X016253Y027758D01*
X016252Y027761D02*
X016227Y027838D01*
X016190Y027911D01*
X016142Y027978D01*
X016084Y028035D01*
X016018Y028084D01*
X015945Y028121D01*
X015867Y028146D01*
X015794Y028158D01*
X015794Y027687D01*
X016264Y027687D01*
X016252Y027761D01*
X016218Y027857D02*
X021321Y027857D01*
X021280Y027955D02*
X016158Y027955D01*
X016059Y028054D02*
X021245Y028054D01*
X021895Y027660D02*
X023016Y027660D01*
X023195Y027660D02*
X023295Y027660D01*
X023295Y027561D02*
X023195Y027561D01*
X023195Y027463D02*
X023295Y027463D01*
X023295Y027364D02*
X023195Y027364D01*
X023195Y027266D02*
X023295Y027266D01*
X023295Y027167D02*
X023195Y027167D01*
X023195Y027069D02*
X022245Y027069D01*
X022245Y027167D02*
X022603Y027167D01*
X022629Y027266D02*
X022234Y027266D01*
X022193Y027364D02*
X022674Y027364D01*
X022741Y027463D02*
X022128Y027463D01*
X022030Y027561D02*
X022842Y027561D01*
X022597Y026970D02*
X022216Y026970D01*
X022176Y026872D02*
X022617Y026872D01*
X022653Y026773D02*
X022086Y026773D01*
X021955Y026675D02*
X022709Y026675D01*
X022794Y026576D02*
X021955Y026576D01*
X021955Y026478D02*
X022928Y026478D01*
X023195Y026478D02*
X023295Y026478D01*
X023295Y026576D02*
X023195Y026576D01*
X023195Y026675D02*
X023295Y026675D01*
X023295Y026773D02*
X023195Y026773D01*
X023195Y026872D02*
X023295Y026872D01*
X023295Y026970D02*
X023195Y026970D01*
X023562Y026478D02*
X023787Y026478D01*
X023787Y026576D02*
X023696Y026576D01*
X023781Y026675D02*
X023787Y026675D01*
X023877Y026379D02*
X021955Y026379D01*
X021955Y026281D02*
X023976Y026281D01*
X024074Y026182D02*
X021955Y026182D01*
X021955Y026084D02*
X028208Y026084D01*
X028216Y025985D02*
X025751Y025985D01*
X025849Y025887D02*
X028216Y025887D01*
X028216Y025788D02*
X025948Y025788D01*
X025979Y025690D02*
X028216Y025690D01*
X028216Y025591D02*
X025979Y025591D01*
X025979Y025493D02*
X028216Y025493D01*
X028216Y025394D02*
X025979Y025394D01*
X025979Y025296D02*
X028216Y025296D01*
X028216Y025197D02*
X027846Y025197D01*
X027850Y025196D02*
X027768Y025222D01*
X027689Y025235D01*
X027689Y024736D01*
X028188Y024736D01*
X028175Y024815D01*
X028148Y024897D01*
X028109Y024974D01*
X028058Y025044D01*
X027997Y025106D01*
X027927Y025156D01*
X027850Y025196D01*
X027689Y025197D02*
X027589Y025197D01*
X027589Y025235D02*
X027510Y025222D01*
X027428Y025196D01*
X027351Y025156D01*
X027280Y025106D01*
X027219Y025044D01*
X027168Y024974D01*
X027129Y024897D01*
X027102Y024815D01*
X027090Y024736D01*
X027589Y024736D01*
X027589Y025235D01*
X027589Y025099D02*
X027689Y025099D01*
X027689Y025000D02*
X027589Y025000D01*
X027589Y024902D02*
X027689Y024902D01*
X027689Y024803D02*
X027589Y024803D01*
X027589Y024736D02*
X027689Y024736D01*
X027689Y024636D01*
X028188Y024636D01*
X028175Y024557D01*
X028148Y024475D01*
X028109Y024398D01*
X028058Y024328D01*
X027997Y024267D01*
X027927Y024216D01*
X027850Y024176D01*
X027768Y024150D01*
X027689Y024137D01*
X027689Y024636D01*
X027589Y024636D01*
X027589Y024137D01*
X027510Y024150D01*
X027428Y024176D01*
X027351Y024216D01*
X027280Y024267D01*
X027219Y024328D01*
X027168Y024398D01*
X027129Y024475D01*
X027102Y024557D01*
X027090Y024636D01*
X027589Y024636D01*
X027589Y024736D01*
X027589Y024705D02*
X025979Y024705D01*
X025979Y024803D02*
X027100Y024803D01*
X027131Y024902D02*
X025979Y024902D01*
X025979Y025000D02*
X027187Y025000D01*
X027274Y025099D02*
X025979Y025099D01*
X025979Y025197D02*
X027432Y025197D01*
X028004Y025099D02*
X028216Y025099D01*
X028216Y025000D02*
X028090Y025000D01*
X028146Y024902D02*
X028216Y024902D01*
X028216Y024803D02*
X028177Y024803D01*
X028216Y024705D02*
X027689Y024705D01*
X027689Y024606D02*
X027589Y024606D01*
X027589Y024508D02*
X027689Y024508D01*
X027689Y024409D02*
X027589Y024409D01*
X027589Y024311D02*
X027689Y024311D01*
X027689Y024212D02*
X027589Y024212D01*
X027358Y024212D02*
X025979Y024212D01*
X025979Y024114D02*
X028216Y024114D01*
X028216Y024212D02*
X027920Y024212D01*
X028041Y024311D02*
X028216Y024311D01*
X028216Y024409D02*
X028115Y024409D01*
X028159Y024508D02*
X028216Y024508D01*
X028216Y024606D02*
X028183Y024606D01*
X028216Y024015D02*
X025979Y024015D01*
X025979Y023917D02*
X028216Y023917D01*
X028216Y023818D02*
X028113Y023818D01*
X028093Y023838D02*
X028169Y023762D01*
X028169Y022854D01*
X028093Y022778D01*
X027185Y022778D01*
X027109Y022854D01*
X027109Y023762D01*
X027185Y023838D01*
X028093Y023838D01*
X028169Y023720D02*
X028216Y023720D01*
X028216Y023621D02*
X028169Y023621D01*
X028169Y023523D02*
X028216Y023523D01*
X028216Y023424D02*
X028169Y023424D01*
X028169Y023326D02*
X028216Y023326D01*
X028216Y023227D02*
X028169Y023227D01*
X028169Y023129D02*
X028216Y023129D01*
X028216Y023030D02*
X028169Y023030D01*
X028169Y022932D02*
X028216Y022932D01*
X028216Y022833D02*
X028148Y022833D01*
X028216Y022735D02*
X025979Y022735D01*
X025979Y022833D02*
X027130Y022833D01*
X027109Y022932D02*
X025979Y022932D01*
X025979Y023030D02*
X027109Y023030D01*
X027109Y023129D02*
X025979Y023129D01*
X025979Y023227D02*
X027109Y023227D01*
X027109Y023326D02*
X025979Y023326D01*
X025979Y023424D02*
X027109Y023424D01*
X027109Y023523D02*
X025979Y023523D01*
X025979Y023621D02*
X027109Y023621D01*
X027109Y023720D02*
X025979Y023720D01*
X025979Y023818D02*
X027165Y023818D01*
X027236Y024311D02*
X025979Y024311D01*
X025979Y024409D02*
X027163Y024409D01*
X027118Y024508D02*
X025979Y024508D01*
X025979Y024606D02*
X027095Y024606D01*
X025979Y022636D02*
X028216Y022636D01*
X028216Y022538D02*
X025979Y022538D01*
X025979Y022439D02*
X028216Y022439D01*
X028216Y022341D02*
X025979Y022341D01*
X025979Y022242D02*
X028216Y022242D01*
X028216Y022144D02*
X025979Y022144D01*
X025979Y022045D02*
X028216Y022045D01*
X028216Y021947D02*
X025979Y021947D01*
X025979Y021848D02*
X028216Y021848D01*
X028216Y021750D02*
X025979Y021750D01*
X025979Y021651D02*
X028216Y021651D01*
X028216Y021553D02*
X025979Y021553D01*
X025979Y021454D02*
X028216Y021454D01*
X028216Y021356D02*
X025979Y021356D01*
X025979Y021257D02*
X028216Y021257D01*
X028216Y021159D02*
X025979Y021159D01*
X025979Y021060D02*
X028216Y021060D01*
X028216Y020962D02*
X025979Y020962D01*
X025979Y020863D02*
X028216Y020863D01*
X028216Y020765D02*
X025979Y020765D01*
X025979Y020666D02*
X028216Y020666D01*
X028216Y020568D02*
X025979Y020568D01*
X025979Y020469D02*
X028216Y020469D01*
X028216Y020371D02*
X025979Y020371D01*
X025979Y020272D02*
X028216Y020272D01*
X028216Y020174D02*
X025979Y020174D01*
X025979Y019878D02*
X026801Y019878D01*
X026710Y019780D02*
X025979Y019780D01*
X025979Y019287D02*
X026689Y019287D01*
X026752Y019189D02*
X025979Y019189D01*
X025979Y019090D02*
X026850Y019090D01*
X026929Y018992D02*
X025979Y018992D01*
X025979Y018893D02*
X026929Y018893D01*
X026929Y018795D02*
X025979Y018795D01*
X025979Y018696D02*
X026929Y018696D01*
X026929Y018598D02*
X025979Y018598D01*
X025979Y018499D02*
X026929Y018499D01*
X026929Y018401D02*
X025979Y018401D01*
X025979Y018302D02*
X026929Y018302D01*
X026929Y018204D02*
X025979Y018204D01*
X025979Y018105D02*
X026929Y018105D01*
X026929Y018007D02*
X025979Y018007D01*
X025979Y017908D02*
X026929Y017908D01*
X026929Y017810D02*
X025979Y017810D01*
X025979Y017711D02*
X026929Y017711D01*
X026929Y017613D02*
X025979Y017613D01*
X025979Y017514D02*
X026919Y017514D01*
X026797Y017416D02*
X025979Y017416D01*
X025979Y017317D02*
X026728Y017317D01*
X026687Y017219D02*
X025979Y017219D01*
X025979Y017120D02*
X026679Y017120D01*
X026679Y017022D02*
X025979Y017022D01*
X025979Y016923D02*
X026717Y016923D01*
X026771Y016825D02*
X025979Y016825D01*
X025979Y016726D02*
X026869Y016726D01*
X026764Y016529D02*
X025979Y016529D01*
X025979Y016431D02*
X026665Y016431D01*
X026567Y016332D02*
X025979Y016332D01*
X025979Y016234D02*
X026468Y016234D01*
X026429Y016135D02*
X025979Y016135D01*
X025979Y016037D02*
X026429Y016037D01*
X026429Y015938D02*
X025979Y015938D01*
X025979Y015840D02*
X026429Y015840D01*
X026429Y015741D02*
X025979Y015741D01*
X025979Y015643D02*
X026429Y015643D01*
X026429Y015544D02*
X025979Y015544D01*
X025979Y015446D02*
X026429Y015446D01*
X026429Y015347D02*
X025979Y015347D01*
X025979Y015249D02*
X026429Y015249D01*
X026337Y015150D02*
X025979Y015150D01*
X025979Y015052D02*
X026238Y015052D01*
X026184Y014953D02*
X025979Y014953D01*
X025979Y014855D02*
X026143Y014855D01*
X026139Y014756D02*
X025979Y014756D01*
X025979Y014658D02*
X026139Y014658D01*
X026175Y014559D02*
X025979Y014559D01*
X025979Y014461D02*
X026216Y014461D01*
X026315Y014362D02*
X025979Y014362D01*
X025979Y014264D02*
X026429Y014264D01*
X026429Y014165D02*
X025979Y014165D01*
X025979Y014067D02*
X026429Y014067D01*
X026429Y013968D02*
X025979Y013968D01*
X025979Y013870D02*
X026429Y013870D01*
X026429Y013771D02*
X025979Y013771D01*
X025979Y013673D02*
X026429Y013673D01*
X026429Y013574D02*
X025979Y013574D01*
X025979Y013476D02*
X026429Y013476D01*
X026429Y013377D02*
X025979Y013377D01*
X025979Y013279D02*
X026429Y013279D01*
X026429Y013180D02*
X025979Y013180D01*
X025979Y013082D02*
X026429Y013082D01*
X026429Y012983D02*
X025979Y012983D01*
X025979Y012885D02*
X026429Y012885D01*
X026429Y012786D02*
X025979Y012786D01*
X025979Y012688D02*
X026429Y012688D01*
X026429Y012589D02*
X026447Y012589D01*
X026180Y012589D02*
X025979Y012589D01*
X025979Y012491D02*
X025988Y012491D01*
X026849Y012786D02*
X027624Y012786D01*
X027624Y012688D02*
X026942Y012688D01*
X027041Y012589D02*
X027180Y012589D01*
X027429Y012589D02*
X027624Y012589D01*
X027620Y012491D02*
X027624Y012491D01*
X027624Y012885D02*
X026849Y012885D01*
X026849Y012983D02*
X027624Y012983D01*
X027624Y013082D02*
X026849Y013082D01*
X026849Y013180D02*
X027624Y013180D01*
X028088Y013968D02*
X028708Y013968D01*
X028708Y014067D02*
X028024Y014067D01*
X027926Y014165D02*
X028708Y014165D01*
X028708Y014264D02*
X026849Y014264D01*
X026963Y014362D02*
X028708Y014362D01*
X027330Y015347D02*
X026849Y015347D01*
X026849Y015446D02*
X027231Y015446D01*
X027181Y015544D02*
X026849Y015544D01*
X026849Y015643D02*
X027140Y015643D01*
X027139Y015741D02*
X026849Y015741D01*
X026849Y015840D02*
X027139Y015840D01*
X027178Y015938D02*
X026849Y015938D01*
X026865Y016037D02*
X027223Y016037D01*
X027408Y016726D02*
X027869Y016726D01*
X027921Y016628D02*
X025979Y016628D01*
X027359Y017514D02*
X027919Y017514D01*
X027797Y017416D02*
X027481Y017416D01*
X027550Y017317D02*
X027728Y017317D01*
X027687Y017219D02*
X027591Y017219D01*
X027599Y017120D02*
X027679Y017120D01*
X027679Y017022D02*
X027599Y017022D01*
X027560Y016923D02*
X027717Y016923D01*
X027771Y016825D02*
X027507Y016825D01*
X021614Y025788D02*
X007778Y025788D01*
X007876Y025887D02*
X021535Y025887D01*
X021535Y025985D02*
X007955Y025985D01*
X007535Y026182D02*
X002604Y026182D01*
X002594Y026172D02*
X002652Y026233D01*
X002711Y026292D01*
X002711Y026296D01*
X003235Y026852D01*
X003840Y026852D01*
X003861Y026801D01*
X003990Y026672D01*
X004159Y026602D01*
X004342Y026602D01*
X004512Y026672D01*
X004641Y026801D01*
X004711Y026971D01*
X004711Y027154D01*
X004641Y027323D01*
X004512Y027452D01*
X004342Y027522D01*
X004159Y027522D01*
X003990Y027452D01*
X003861Y027323D01*
X003840Y027272D01*
X003228Y027272D01*
X003225Y027274D01*
X003142Y027272D01*
X003058Y027272D01*
X003055Y027269D01*
X003052Y027269D01*
X002994Y027208D01*
X002935Y027149D01*
X002935Y027145D01*
X002410Y026589D01*
X001705Y026589D01*
X001582Y026466D01*
X001366Y026249D01*
X001366Y026191D01*
X001293Y026161D01*
X001152Y026020D01*
X001076Y025837D01*
X001076Y025638D01*
X001152Y025454D01*
X001293Y025313D01*
X001476Y025237D01*
X001675Y025237D01*
X001859Y025313D01*
X002000Y025454D01*
X002076Y025638D01*
X002076Y025837D01*
X002000Y026020D01*
X001865Y026155D01*
X001879Y026169D01*
X002418Y026169D01*
X002420Y026166D01*
X002504Y026169D01*
X002588Y026169D01*
X002591Y026172D01*
X002594Y026172D01*
X002700Y026281D02*
X007535Y026281D01*
X007535Y026379D02*
X002790Y026379D01*
X002882Y026478D02*
X005970Y026478D01*
X005887Y026512D02*
X006119Y026416D01*
X006371Y026416D01*
X006603Y026512D01*
X006781Y026690D01*
X006878Y026922D01*
X006878Y027174D01*
X006781Y027407D01*
X006603Y027584D01*
X006371Y027681D01*
X006119Y027681D01*
X005887Y027584D01*
X005709Y027407D01*
X005613Y027174D01*
X005613Y026922D01*
X005709Y026690D01*
X005887Y026512D01*
X005823Y026576D02*
X002975Y026576D01*
X003068Y026675D02*
X003988Y026675D01*
X003889Y026773D02*
X003161Y026773D01*
X002862Y027069D02*
X002661Y027069D01*
X002759Y027167D02*
X002953Y027167D01*
X002858Y027266D02*
X003048Y027266D01*
X002956Y027364D02*
X003903Y027364D01*
X004016Y027463D02*
X002967Y027463D01*
X002967Y027561D02*
X005863Y027561D01*
X005765Y027463D02*
X004486Y027463D01*
X004599Y027364D02*
X005691Y027364D01*
X005650Y027266D02*
X004665Y027266D01*
X004705Y027167D02*
X005613Y027167D01*
X005613Y027069D02*
X004711Y027069D01*
X004711Y026970D02*
X005613Y026970D01*
X005634Y026872D02*
X004670Y026872D01*
X004613Y026773D02*
X005674Y026773D01*
X005724Y026675D02*
X004514Y026675D01*
X004363Y027594D02*
X004435Y027617D01*
X004503Y027651D01*
X004564Y027696D01*
X004617Y027749D01*
X004662Y027810D01*
X004696Y027878D01*
X004719Y027950D01*
X004731Y028024D01*
X004731Y028032D01*
X004281Y028032D01*
X004281Y028092D01*
X004731Y028092D01*
X004731Y028100D01*
X004719Y028174D01*
X004696Y028246D01*
X004662Y028314D01*
X004617Y028375D01*
X004564Y028428D01*
X004503Y028473D01*
X004435Y028507D01*
X004363Y028530D01*
X004289Y028542D01*
X004281Y028542D01*
X004281Y028092D01*
X004221Y028092D01*
X004221Y028542D01*
X004213Y028542D01*
X004139Y028530D01*
X004067Y028507D01*
X003999Y028473D01*
X003938Y028428D01*
X003885Y028375D01*
X003840Y028314D01*
X003806Y028246D01*
X003783Y028174D01*
X003771Y028100D01*
X003771Y028092D01*
X004221Y028092D01*
X004221Y028032D01*
X004281Y028032D01*
X004281Y027582D01*
X004289Y027582D01*
X004363Y027594D01*
X004281Y027660D02*
X004221Y027660D01*
X004221Y027582D02*
X004221Y028032D01*
X003771Y028032D01*
X003771Y028024D01*
X003783Y027950D01*
X003806Y027878D01*
X003840Y027810D01*
X003885Y027749D01*
X003938Y027696D01*
X003999Y027651D01*
X004067Y027617D01*
X004139Y027594D01*
X004213Y027582D01*
X004221Y027582D01*
X004221Y027758D02*
X004281Y027758D01*
X004281Y027857D02*
X004221Y027857D01*
X004221Y027955D02*
X004281Y027955D01*
X004281Y028054D02*
X007245Y028054D01*
X007245Y028152D02*
X004723Y028152D01*
X004694Y028251D02*
X007250Y028251D01*
X007291Y028349D02*
X004636Y028349D01*
X004537Y028448D02*
X007347Y028448D01*
X007445Y028546D02*
X002967Y028546D01*
X002967Y028448D02*
X003965Y028448D01*
X003866Y028349D02*
X002967Y028349D01*
X002967Y028251D02*
X003808Y028251D01*
X003779Y028152D02*
X002967Y028152D01*
X002967Y028054D02*
X004221Y028054D01*
X004221Y028152D02*
X004281Y028152D01*
X004281Y028251D02*
X004221Y028251D01*
X004221Y028349D02*
X004281Y028349D01*
X004281Y028448D02*
X004221Y028448D01*
X003782Y027955D02*
X002967Y027955D01*
X002967Y027857D02*
X003817Y027857D01*
X003878Y027758D02*
X002967Y027758D01*
X002967Y027660D02*
X003988Y027660D01*
X004514Y027660D02*
X006068Y027660D01*
X006422Y027660D02*
X007595Y027660D01*
X007460Y027561D02*
X006627Y027561D01*
X006725Y027463D02*
X007362Y027463D01*
X007297Y027364D02*
X006799Y027364D01*
X006840Y027266D02*
X007256Y027266D01*
X007245Y027167D02*
X006878Y027167D01*
X006878Y027069D02*
X007245Y027069D01*
X007274Y026970D02*
X006878Y026970D01*
X006857Y026872D02*
X007315Y026872D01*
X007404Y026773D02*
X006816Y026773D01*
X006766Y026675D02*
X007535Y026675D01*
X007535Y026576D02*
X006667Y026576D01*
X006520Y026478D02*
X007535Y026478D01*
X007479Y026084D02*
X001937Y026084D01*
X002014Y025985D02*
X003739Y025985D01*
X003641Y025887D02*
X002055Y025887D01*
X002076Y025788D02*
X003542Y025788D01*
X003511Y025690D02*
X002076Y025690D01*
X002056Y025591D02*
X003511Y025591D01*
X003511Y025493D02*
X002016Y025493D01*
X001940Y025394D02*
X003511Y025394D01*
X003511Y025296D02*
X001816Y025296D01*
X001772Y025197D02*
X003511Y025197D01*
X003511Y025099D02*
X001922Y025099D01*
X002008Y025000D02*
X003511Y025000D01*
X003511Y024902D02*
X002996Y024902D01*
X003094Y024803D02*
X003511Y024803D01*
X003511Y024705D02*
X003193Y024705D01*
X003296Y024606D02*
X003511Y024606D01*
X003511Y024508D02*
X003422Y024508D01*
X003499Y024409D02*
X003511Y024409D01*
X003511Y023946D02*
X003511Y020379D01*
X003484Y020446D01*
X003343Y020586D01*
X003159Y020662D01*
X002961Y020662D01*
X002777Y020586D01*
X002636Y020446D01*
X002560Y020262D01*
X002560Y020063D01*
X002610Y019943D01*
X002451Y020009D01*
X002252Y020009D01*
X002068Y019933D01*
X001927Y019792D01*
X001851Y019608D01*
X001775Y019792D01*
X001635Y019933D01*
X001451Y020009D01*
X001252Y020009D01*
X001068Y019933D01*
X000927Y019792D01*
X000897Y019719D01*
X000816Y019719D01*
X000782Y019753D01*
X000782Y023516D01*
X000793Y023527D01*
X001122Y023527D01*
X001152Y023454D01*
X001293Y023313D01*
X001476Y023237D01*
X001675Y023237D01*
X001859Y023313D01*
X002000Y023454D01*
X002076Y023638D01*
X002076Y023837D01*
X002000Y024020D01*
X001859Y024161D01*
X001675Y024237D01*
X001476Y024237D01*
X001675Y024237D01*
X001859Y024313D01*
X002000Y024454D01*
X002030Y024527D01*
X002718Y024527D01*
X002636Y024446D01*
X002560Y024262D01*
X002560Y024063D01*
X002636Y023879D01*
X002777Y023739D01*
X002961Y023662D01*
X003159Y023662D01*
X003343Y023739D01*
X003484Y023879D01*
X003511Y023946D01*
X003511Y023917D02*
X003499Y023917D01*
X003511Y023818D02*
X003423Y023818D01*
X003511Y023720D02*
X003297Y023720D01*
X003511Y023621D02*
X002069Y023621D01*
X002076Y023720D02*
X002823Y023720D01*
X002697Y023818D02*
X002076Y023818D01*
X002043Y023917D02*
X002621Y023917D01*
X002580Y024015D02*
X002002Y024015D01*
X001907Y024114D02*
X002560Y024114D01*
X002560Y024212D02*
X001736Y024212D01*
X001852Y024311D02*
X002580Y024311D01*
X002621Y024409D02*
X001955Y024409D01*
X002022Y024508D02*
X002698Y024508D01*
X002028Y023523D02*
X003511Y023523D01*
X003511Y023424D02*
X001970Y023424D01*
X001871Y023326D02*
X003511Y023326D01*
X003511Y023227D02*
X000782Y023227D01*
X000782Y023129D02*
X003511Y023129D01*
X003511Y023030D02*
X000782Y023030D01*
X000782Y022932D02*
X003511Y022932D01*
X003511Y022833D02*
X000782Y022833D01*
X000782Y022735D02*
X003511Y022735D01*
X003511Y022636D02*
X000782Y022636D01*
X000782Y022538D02*
X003511Y022538D01*
X003511Y022439D02*
X000782Y022439D01*
X000782Y022341D02*
X003511Y022341D01*
X003511Y022242D02*
X000782Y022242D01*
X000782Y022144D02*
X003511Y022144D01*
X003511Y022045D02*
X000782Y022045D01*
X000782Y021947D02*
X003511Y021947D01*
X003511Y021848D02*
X000782Y021848D01*
X000782Y021750D02*
X003511Y021750D01*
X003511Y021651D02*
X000782Y021651D01*
X000782Y021553D02*
X003511Y021553D01*
X003511Y021454D02*
X000782Y021454D01*
X000782Y021356D02*
X003511Y021356D01*
X003511Y021257D02*
X000782Y021257D01*
X000782Y021159D02*
X003511Y021159D01*
X003511Y021060D02*
X000782Y021060D01*
X000782Y020962D02*
X003511Y020962D01*
X003511Y020863D02*
X000782Y020863D01*
X000782Y020765D02*
X003511Y020765D01*
X003511Y020666D02*
X000782Y020666D01*
X000782Y020568D02*
X002758Y020568D01*
X002660Y020469D02*
X000782Y020469D01*
X000782Y020371D02*
X002605Y020371D01*
X002564Y020272D02*
X000782Y020272D01*
X000782Y020174D02*
X002560Y020174D01*
X002560Y020075D02*
X000782Y020075D01*
X000782Y019977D02*
X001174Y019977D01*
X001013Y019878D02*
X000782Y019878D01*
X000782Y019780D02*
X000922Y019780D01*
X000902Y019287D02*
X000782Y019287D01*
X000782Y019189D02*
X000965Y019189D01*
X001063Y019090D02*
X000782Y019090D01*
X000782Y018992D02*
X001141Y018992D01*
X001141Y018893D02*
X000782Y018893D01*
X000782Y018795D02*
X001141Y018795D01*
X001141Y018696D02*
X000782Y018696D01*
X000782Y018598D02*
X001141Y018598D01*
X001141Y018499D02*
X000782Y018499D01*
X000782Y018401D02*
X001141Y018401D01*
X001141Y018302D02*
X000782Y018302D01*
X000782Y018204D02*
X001141Y018204D01*
X001141Y018105D02*
X000782Y018105D01*
X000782Y018007D02*
X001141Y018007D01*
X001141Y017908D02*
X000782Y017908D01*
X000782Y017810D02*
X001141Y017810D01*
X001141Y017711D02*
X000782Y017711D01*
X000782Y017613D02*
X001141Y017613D01*
X001141Y017514D02*
X000782Y017514D01*
X000782Y017416D02*
X001141Y017416D01*
X001141Y017317D02*
X000782Y017317D01*
X000782Y017219D02*
X001141Y017219D01*
X001141Y017120D02*
X000782Y017120D01*
X000782Y017022D02*
X001141Y017022D01*
X001141Y016923D02*
X000782Y016923D01*
X000782Y016825D02*
X001141Y016825D01*
X001141Y016726D02*
X000782Y016726D01*
X000782Y016628D02*
X001141Y016628D01*
X001141Y016529D02*
X000782Y016529D01*
X000782Y016431D02*
X001141Y016431D01*
X001141Y016332D02*
X000782Y016332D01*
X000782Y016234D02*
X001141Y016234D01*
X001141Y016135D02*
X000782Y016135D01*
X000782Y016037D02*
X001141Y016037D01*
X001141Y015938D02*
X000782Y015938D01*
X000782Y015840D02*
X001141Y015840D01*
X001149Y015741D02*
X000782Y015741D01*
X000782Y015643D02*
X001247Y015643D01*
X001346Y015544D02*
X000782Y015544D01*
X000782Y015446D02*
X001444Y015446D01*
X001542Y015347D02*
X000782Y015347D01*
X000782Y015249D02*
X001744Y015249D01*
X001564Y014165D02*
X000782Y014165D01*
X000782Y014067D02*
X001466Y014067D01*
X001403Y013968D02*
X000782Y013968D01*
X000782Y013870D02*
X001362Y013870D01*
X001351Y013771D02*
X000782Y013771D01*
X000782Y013673D02*
X001351Y013673D01*
X001381Y013574D02*
X000782Y013574D01*
X000782Y013476D02*
X001422Y013476D01*
X001512Y013377D02*
X000782Y013377D01*
X000782Y013279D02*
X001671Y013279D01*
X001862Y012589D02*
X001431Y012589D01*
X001530Y012491D02*
X001764Y012491D01*
X001699Y012392D02*
X001594Y012392D01*
X001635Y012294D02*
X001658Y012294D01*
X001647Y012195D02*
X001647Y012195D01*
X001647Y012097D02*
X001647Y012097D01*
X001675Y011998D02*
X001618Y011998D01*
X001577Y011900D02*
X001716Y011900D01*
X001805Y011801D02*
X001488Y011801D01*
X001333Y011703D02*
X001960Y011703D01*
X000960Y011703D02*
X000782Y011703D01*
X000782Y011801D02*
X000805Y011801D01*
X000782Y012589D02*
X000862Y012589D01*
X003061Y013968D02*
X003156Y013968D01*
X003061Y014067D02*
X003511Y014067D01*
X003511Y014165D02*
X003061Y014165D01*
X003061Y014264D02*
X003511Y014264D01*
X003511Y014362D02*
X003175Y014362D01*
X003274Y014461D02*
X003511Y014461D01*
X003511Y014559D02*
X003316Y014559D01*
X003351Y014658D02*
X003511Y014658D01*
X003511Y014756D02*
X003351Y014756D01*
X003347Y014855D02*
X003511Y014855D01*
X003511Y014953D02*
X003306Y014953D01*
X003252Y015052D02*
X003511Y015052D01*
X003511Y015150D02*
X003154Y015150D01*
X003061Y015249D02*
X003511Y015249D01*
X003511Y015347D02*
X003061Y015347D01*
X003061Y015446D02*
X003511Y015446D01*
X003511Y015544D02*
X003061Y015544D01*
X003061Y015643D02*
X003511Y015643D01*
X003511Y015741D02*
X003061Y015741D01*
X003061Y015840D02*
X003511Y015840D01*
X003511Y015938D02*
X003061Y015938D01*
X003061Y016037D02*
X003511Y016037D01*
X003511Y016135D02*
X003061Y016135D01*
X003148Y016234D02*
X003511Y016234D01*
X003511Y016332D02*
X003234Y016332D01*
X003275Y016431D02*
X003511Y016431D01*
X003511Y016529D02*
X003296Y016529D01*
X003296Y016628D02*
X003511Y016628D01*
X003511Y016726D02*
X003270Y016726D01*
X003229Y016825D02*
X003511Y016825D01*
X003511Y016923D02*
X003135Y016923D01*
X002952Y017022D02*
X003511Y017022D01*
X003511Y017120D02*
X002947Y017120D01*
X003133Y017219D02*
X003511Y017219D01*
X003510Y017317D02*
X003228Y017317D01*
X003235Y017810D02*
X003511Y017810D01*
X003511Y017908D02*
X003150Y017908D01*
X002988Y018007D02*
X003511Y018007D01*
X001965Y019189D02*
X001738Y019189D01*
X001801Y019287D02*
X001902Y019287D01*
X001861Y019386D02*
X001841Y019386D01*
X001851Y019409D02*
X001851Y019608D01*
X001851Y019409D01*
X001851Y019484D02*
X001851Y019484D01*
X001851Y019583D02*
X001851Y019583D01*
X001821Y019681D02*
X001882Y019681D01*
X001922Y019780D02*
X001780Y019780D01*
X001689Y019878D02*
X002013Y019878D01*
X002174Y019977D02*
X001529Y019977D01*
X002529Y019977D02*
X002596Y019977D01*
X003362Y020568D02*
X003511Y020568D01*
X003511Y020469D02*
X003460Y020469D01*
X001280Y023326D02*
X000782Y023326D01*
X000782Y023424D02*
X001182Y023424D01*
X001124Y023523D02*
X000788Y023523D01*
X000782Y024015D02*
X001150Y024015D01*
X001245Y024114D02*
X000782Y024114D01*
X000782Y024212D02*
X001416Y024212D01*
X001299Y024311D02*
X000782Y024311D01*
X000782Y024409D02*
X001197Y024409D01*
X001130Y024508D02*
X000782Y024508D01*
X000782Y024606D02*
X001089Y024606D01*
X001076Y024705D02*
X000782Y024705D01*
X000782Y024803D02*
X001076Y024803D01*
X001103Y024902D02*
X000782Y024902D01*
X000782Y025000D02*
X001143Y025000D01*
X001230Y025099D02*
X000782Y025099D01*
X000782Y025197D02*
X001379Y025197D01*
X001335Y025296D02*
X000782Y025296D01*
X000782Y025394D02*
X001212Y025394D01*
X001136Y025493D02*
X000782Y025493D01*
X000782Y025591D02*
X001095Y025591D01*
X001076Y025690D02*
X000782Y025690D01*
X000782Y025788D02*
X001076Y025788D01*
X001096Y025887D02*
X000782Y025887D01*
X000782Y025985D02*
X001137Y025985D01*
X001215Y026084D02*
X000782Y026084D01*
X000782Y026182D02*
X001343Y026182D01*
X001397Y026281D02*
X000782Y026281D01*
X000782Y026379D02*
X001495Y026379D01*
X001594Y026478D02*
X000782Y026478D01*
X000830Y026576D02*
X001692Y026576D01*
X002267Y026675D02*
X002491Y026675D01*
X002584Y026773D02*
X002365Y026773D01*
X002464Y026872D02*
X002677Y026872D01*
X002769Y026970D02*
X002562Y026970D01*
X002977Y028645D02*
X007535Y028645D01*
X007835Y028940D02*
X010927Y028940D01*
X010893Y028842D02*
X007934Y028842D01*
X007967Y028743D02*
X010893Y028743D01*
X010893Y028645D02*
X007967Y028645D01*
X008045Y028546D02*
X010893Y028546D01*
X010893Y028448D02*
X008143Y028448D01*
X008199Y028349D02*
X010893Y028349D01*
X010893Y028251D02*
X008240Y028251D01*
X008245Y028152D02*
X010893Y028152D01*
X010829Y028054D02*
X008245Y028054D01*
X008210Y027955D02*
X010776Y027955D01*
X010755Y027857D02*
X008169Y027857D01*
X008071Y027758D02*
X010759Y027758D01*
X010799Y027660D02*
X009422Y027660D01*
X009068Y027660D02*
X007895Y027660D01*
X008030Y027561D02*
X008863Y027561D01*
X008765Y027463D02*
X008128Y027463D01*
X008193Y027364D02*
X008691Y027364D01*
X008650Y027266D02*
X008234Y027266D01*
X008245Y027167D02*
X008613Y027167D01*
X008613Y027069D02*
X008245Y027069D01*
X008216Y026970D02*
X008613Y026970D01*
X008634Y026872D02*
X008176Y026872D01*
X008086Y026773D02*
X008674Y026773D01*
X008724Y026675D02*
X007955Y026675D01*
X007955Y026576D02*
X008823Y026576D01*
X008970Y026478D02*
X007955Y026478D01*
X007419Y027758D02*
X004623Y027758D01*
X004685Y027857D02*
X007321Y027857D01*
X007280Y027955D02*
X004720Y027955D01*
X011313Y028645D02*
X024430Y028645D01*
X023679Y027857D02*
X022169Y027857D01*
X022071Y027758D02*
X023778Y027758D01*
X023787Y027660D02*
X023474Y027660D01*
X023649Y027561D02*
X023787Y027561D01*
X023787Y027463D02*
X023750Y027463D01*
X024861Y027561D02*
X025516Y027561D01*
X025330Y027463D02*
X024971Y027463D01*
X025069Y027364D02*
X025232Y027364D01*
X025188Y027266D02*
X025113Y027266D01*
X025151Y027167D02*
X025151Y027167D01*
X025151Y027069D02*
X025151Y027069D01*
X025148Y026970D02*
X025153Y026970D01*
X025194Y026872D02*
X025107Y026872D01*
X025055Y026773D02*
X025246Y026773D01*
X025345Y026675D02*
X024956Y026675D01*
X021535Y026675D02*
X020781Y026675D01*
X020837Y026773D02*
X021404Y026773D01*
X021315Y026872D02*
X020873Y026872D01*
X020893Y026970D02*
X021274Y026970D01*
X021535Y026576D02*
X020696Y026576D01*
X020562Y026478D02*
X021535Y026478D01*
X021535Y026379D02*
X020113Y026379D01*
X020109Y026281D02*
X021535Y026281D01*
X021535Y026182D02*
X020068Y026182D01*
X019981Y026084D02*
X021535Y026084D01*
X020295Y026478D02*
X020195Y026478D01*
X020195Y026576D02*
X020295Y026576D01*
X020295Y026675D02*
X020195Y026675D01*
X020195Y026773D02*
X020295Y026773D01*
X020295Y026872D02*
X020195Y026872D01*
X020195Y026970D02*
X020295Y026970D01*
X020295Y027266D02*
X020195Y027266D01*
X020195Y027364D02*
X020295Y027364D01*
X020295Y027463D02*
X020195Y027463D01*
X020195Y027561D02*
X020295Y027561D01*
X020295Y027660D02*
X020195Y027660D01*
X020016Y027660D02*
X015794Y027660D01*
X015794Y027687D02*
X015794Y027590D01*
X016264Y027590D01*
X016252Y027517D01*
X016227Y027439D01*
X016190Y027366D01*
X016142Y027300D01*
X016084Y027242D01*
X016018Y027194D01*
X015945Y027157D01*
X015867Y027132D01*
X015794Y027120D01*
X015794Y027590D01*
X015697Y027590D01*
X015697Y027120D01*
X015623Y027132D01*
X015545Y027157D01*
X015473Y027194D01*
X015406Y027242D01*
X015348Y027300D01*
X015300Y027366D01*
X015263Y027439D01*
X015238Y027517D01*
X015226Y027590D01*
X015697Y027590D01*
X015697Y027687D01*
X015794Y027687D01*
X015794Y027758D02*
X015697Y027758D01*
X015697Y027660D02*
X014245Y027660D01*
X014237Y027758D02*
X015237Y027758D01*
X015272Y027857D02*
X014196Y027857D01*
X014136Y027955D02*
X015332Y027955D01*
X015431Y028054D02*
X014037Y028054D01*
X014245Y027561D02*
X015231Y027561D01*
X015256Y027463D02*
X014213Y027463D01*
X014172Y027364D02*
X015302Y027364D01*
X015383Y027266D02*
X014079Y027266D01*
X013913Y027167D02*
X015525Y027167D01*
X015697Y027167D02*
X015794Y027167D01*
X015794Y027266D02*
X015697Y027266D01*
X015697Y027364D02*
X015794Y027364D01*
X015794Y027463D02*
X015697Y027463D01*
X015697Y027561D02*
X015794Y027561D01*
X015794Y027857D02*
X015697Y027857D01*
X015697Y027955D02*
X015794Y027955D01*
X015794Y028054D02*
X015697Y028054D01*
X016259Y027561D02*
X019842Y027561D01*
X019741Y027463D02*
X016235Y027463D01*
X016188Y027364D02*
X019674Y027364D01*
X019629Y027266D02*
X016107Y027266D01*
X015965Y027167D02*
X019603Y027167D01*
X019648Y026773D02*
X019653Y026773D01*
X003511Y013968D02*
X003500Y013968D01*
D20*
X003328Y013662D03*
X011103Y027836D03*
X019765Y026359D03*
X026304Y004946D03*
X018977Y002442D03*
M02*
