G75*
%MOIN*%
%OFA0B0*%
%FSLAX24Y24*%
%IPPOS*%
%LPD*%
%AMOC8*
5,1,8,0,0,1.08239X$1,22.5*
%
%ADD10C,0.0050*%
%ADD11C,0.0080*%
%ADD12C,0.0100*%
%ADD13C,0.0060*%
%ADD14R,0.0539X0.0001*%
%ADD15R,0.0550X0.0001*%
%ADD16R,0.0556X0.0001*%
%ADD17R,0.0555X0.0001*%
%ADD18R,0.0561X0.0001*%
%ADD19R,0.0560X0.0001*%
%ADD20R,0.0564X0.0001*%
%ADD21R,0.0564X0.0001*%
%ADD22R,0.0568X0.0001*%
%ADD23R,0.0567X0.0001*%
%ADD24R,0.0570X0.0001*%
%ADD25R,0.0574X0.0001*%
%ADD26R,0.0576X0.0001*%
%ADD27R,0.0576X0.0001*%
%ADD28R,0.0578X0.0001*%
%ADD29R,0.0581X0.0001*%
%ADD30R,0.0580X0.0001*%
%ADD31R,0.0583X0.0001*%
%ADD32R,0.0582X0.0001*%
%ADD33R,0.0585X0.0001*%
%ADD34R,0.0586X0.0001*%
%ADD35R,0.0588X0.0001*%
%ADD36R,0.0590X0.0001*%
%ADD37R,0.0591X0.0001*%
%ADD38R,0.0593X0.0001*%
%ADD39R,0.0594X0.0001*%
%ADD40R,0.0596X0.0001*%
%ADD41R,0.0595X0.0001*%
%ADD42R,0.0597X0.0001*%
%ADD43R,0.0598X0.0001*%
%ADD44R,0.0598X0.0001*%
%ADD45R,0.0599X0.0001*%
%ADD46R,0.0601X0.0001*%
%ADD47R,0.0600X0.0001*%
%ADD48R,0.0601X0.0001*%
%ADD49R,0.0602X0.0001*%
%ADD50R,0.0602X0.0001*%
%ADD51R,0.0603X0.0001*%
%ADD52R,0.0604X0.0001*%
%ADD53R,0.0604X0.0001*%
%ADD54R,0.0605X0.0001*%
%ADD55R,0.0606X0.0001*%
%ADD56R,0.0606X0.0001*%
%ADD57R,0.0607X0.0001*%
%ADD58R,0.0607X0.0001*%
%ADD59R,0.0609X0.0001*%
%ADD60R,0.0608X0.0001*%
%ADD61R,0.0609X0.0001*%
%ADD62R,0.0610X0.0001*%
%ADD63R,0.0610X0.0001*%
%ADD64R,0.0610X0.0001*%
%ADD65R,0.0611X0.0001*%
%ADD66R,0.0611X0.0001*%
%ADD67R,0.0611X0.0001*%
%ADD68R,0.0612X0.0001*%
%ADD69R,0.0612X0.0001*%
%ADD70R,0.0613X0.0001*%
%ADD71R,0.0613X0.0001*%
%ADD72R,0.0611X0.0001*%
%ADD73R,0.0606X0.0001*%
%ADD74R,0.0610X0.0001*%
%ADD75R,0.0604X0.0001*%
%ADD76R,0.0603X0.0001*%
%ADD77R,0.0608X0.0001*%
%ADD78R,0.0602X0.0001*%
%ADD79R,0.0599X0.0001*%
%ADD80R,0.0606X0.0001*%
%ADD81R,0.0598X0.0001*%
%ADD82R,0.0604X0.0001*%
%ADD83R,0.0596X0.0001*%
%ADD84R,0.0594X0.0001*%
%ADD85R,0.0602X0.0001*%
%ADD86R,0.0594X0.0001*%
%ADD87R,0.0592X0.0001*%
%ADD88R,0.0600X0.0001*%
%ADD89R,0.0590X0.0001*%
%ADD90R,0.0589X0.0001*%
%ADD91R,0.0598X0.0001*%
%ADD92R,0.0587X0.0001*%
%ADD93R,0.0586X0.0001*%
%ADD94R,0.0595X0.0001*%
%ADD95R,0.0582X0.0001*%
%ADD96R,0.0579X0.0001*%
%ADD97R,0.0591X0.0001*%
%ADD98R,0.0577X0.0001*%
%ADD99R,0.0590X0.0001*%
%ADD100R,0.0574X0.0001*%
%ADD101R,0.0571X0.0001*%
%ADD102R,0.0569X0.0001*%
%ADD103R,0.0584X0.0001*%
%ADD104R,0.0566X0.0001*%
%ADD105R,0.0562X0.0001*%
%ADD106R,0.0581X0.0001*%
%ADD107R,0.0557X0.0001*%
%ADD108R,0.0552X0.0001*%
%ADD109R,0.0576X0.0001*%
%ADD110R,0.0544X0.0001*%
%ADD111R,0.0413X0.0001*%
%ADD112R,0.0570X0.0001*%
%ADD113R,0.0412X0.0001*%
%ADD114R,0.0412X0.0001*%
%ADD115R,0.0564X0.0001*%
%ADD116R,0.0555X0.0001*%
%ADD117R,0.0411X0.0001*%
%ADD118R,0.0411X0.0001*%
%ADD119R,0.0540X0.0001*%
%ADD120R,0.0383X0.0001*%
%ADD121R,0.0410X0.0001*%
%ADD122R,0.0410X0.0001*%
%ADD123R,0.0383X0.0001*%
%ADD124R,0.0382X0.0001*%
%ADD125R,0.0410X0.0001*%
%ADD126R,0.0409X0.0001*%
%ADD127R,0.0382X0.0001*%
%ADD128R,0.0409X0.0001*%
%ADD129R,0.0382X0.0001*%
%ADD130R,0.0408X0.0001*%
%ADD131R,0.0408X0.0001*%
%ADD132R,0.0381X0.0001*%
%ADD133R,0.0381X0.0001*%
%ADD134R,0.0407X0.0001*%
%ADD135R,0.0407X0.0001*%
%ADD136R,0.0380X0.0001*%
%ADD137R,0.0380X0.0001*%
%ADD138R,0.0406X0.0001*%
%ADD139R,0.0406X0.0001*%
%ADD140R,0.0379X0.0001*%
%ADD141R,0.0406X0.0001*%
%ADD142R,0.0406X0.0001*%
%ADD143R,0.0379X0.0001*%
%ADD144R,0.0405X0.0001*%
%ADD145R,0.0378X0.0001*%
%ADD146R,0.0404X0.0001*%
%ADD147R,0.0378X0.0001*%
%ADD148R,0.0404X0.0001*%
%ADD149R,0.0378X0.0001*%
%ADD150R,0.0403X0.0001*%
%ADD151R,0.0403X0.0001*%
%ADD152R,0.0377X0.0001*%
%ADD153R,0.0377X0.0001*%
%ADD154R,0.0402X0.0001*%
%ADD155R,0.0402X0.0001*%
%ADD156R,0.0376X0.0001*%
%ADD157R,0.0376X0.0001*%
%ADD158R,0.0402X0.0001*%
%ADD159R,0.0402X0.0001*%
%ADD160R,0.0375X0.0001*%
%ADD161R,0.0401X0.0001*%
%ADD162R,0.0375X0.0001*%
%ADD163R,0.0400X0.0001*%
%ADD164R,0.0400X0.0001*%
%ADD165R,0.0374X0.0001*%
%ADD166R,0.0399X0.0001*%
%ADD167R,0.0374X0.0001*%
%ADD168R,0.0399X0.0001*%
%ADD169R,0.0374X0.0001*%
%ADD170R,0.0398X0.0001*%
%ADD171R,0.0398X0.0001*%
%ADD172R,0.0374X0.0001*%
%ADD173R,0.0373X0.0001*%
%ADD174R,0.0398X0.0001*%
%ADD175R,0.0398X0.0001*%
%ADD176R,0.0372X0.0001*%
%ADD177R,0.0397X0.0001*%
%ADD178R,0.0372X0.0001*%
%ADD179R,0.0396X0.0001*%
%ADD180R,0.0371X0.0001*%
%ADD181R,0.0396X0.0001*%
%ADD182R,0.0371X0.0001*%
%ADD183R,0.0395X0.0001*%
%ADD184R,0.0370X0.0001*%
%ADD185R,0.0395X0.0001*%
%ADD186R,0.0370X0.0001*%
%ADD187R,0.0394X0.0001*%
%ADD188R,0.0394X0.0001*%
%ADD189R,0.0370X0.0001*%
%ADD190R,0.0394X0.0001*%
%ADD191R,0.0394X0.0001*%
%ADD192R,0.0370X0.0001*%
%ADD193R,0.0369X0.0001*%
%ADD194R,0.0393X0.0001*%
%ADD195R,0.0393X0.0001*%
%ADD196R,0.0369X0.0001*%
%ADD197R,0.0392X0.0001*%
%ADD198R,0.0368X0.0001*%
%ADD199R,0.0391X0.0001*%
%ADD200R,0.0367X0.0001*%
%ADD201R,0.0391X0.0001*%
%ADD202R,0.0367X0.0001*%
%ADD203R,0.0390X0.0001*%
%ADD204R,0.0390X0.0001*%
%ADD205R,0.0366X0.0001*%
%ADD206R,0.0366X0.0001*%
%ADD207R,0.0390X0.0001*%
%ADD208R,0.0390X0.0001*%
%ADD209R,0.0366X0.0001*%
%ADD210R,0.0366X0.0001*%
%ADD211R,0.0389X0.0001*%
%ADD212R,0.0389X0.0001*%
%ADD213R,0.0388X0.0001*%
%ADD214R,0.0365X0.0001*%
%ADD215R,0.0388X0.0001*%
%ADD216R,0.0365X0.0001*%
%ADD217R,0.0387X0.0001*%
%ADD218R,0.0364X0.0001*%
%ADD219R,0.0386X0.0001*%
%ADD220R,0.0364X0.0001*%
%ADD221R,0.0386X0.0001*%
%ADD222R,0.0363X0.0001*%
%ADD223R,0.0386X0.0001*%
%ADD224R,0.0386X0.0001*%
%ADD225R,0.0362X0.0001*%
%ADD226R,0.0362X0.0001*%
%ADD227R,0.0385X0.0001*%
%ADD228R,0.0385X0.0001*%
%ADD229R,0.0362X0.0001*%
%ADD230R,0.0384X0.0001*%
%ADD231R,0.0362X0.0001*%
%ADD232R,0.0384X0.0001*%
%ADD233R,0.0361X0.0001*%
%ADD234R,0.0361X0.0001*%
%ADD235R,0.0382X0.0001*%
%ADD236R,0.0360X0.0001*%
%ADD237R,0.0360X0.0001*%
%ADD238R,0.0359X0.0001*%
%ADD239R,0.0359X0.0001*%
%ADD240R,0.0358X0.0001*%
%ADD241R,0.0358X0.0001*%
%ADD242R,0.0379X0.0001*%
%ADD243R,0.0358X0.0001*%
%ADD244R,0.0357X0.0001*%
%ADD245R,0.0357X0.0001*%
%ADD246R,0.0378X0.0001*%
%ADD247R,0.0356X0.0001*%
%ADD248R,0.0356X0.0001*%
%ADD249R,0.0355X0.0001*%
%ADD250R,0.0376X0.0001*%
%ADD251R,0.0376X0.0001*%
%ADD252R,0.0355X0.0001*%
%ADD253R,0.0354X0.0001*%
%ADD254R,0.0354X0.0001*%
%ADD255R,0.0354X0.0001*%
%ADD256R,0.0353X0.0001*%
%ADD257R,0.0353X0.0001*%
%ADD258R,0.0373X0.0001*%
%ADD259R,0.0373X0.0001*%
%ADD260R,0.0352X0.0001*%
%ADD261R,0.0352X0.0001*%
%ADD262R,0.0351X0.0001*%
%ADD263R,0.0351X0.0001*%
%ADD264R,0.0350X0.0001*%
%ADD265R,0.0350X0.0001*%
%ADD266R,0.0370X0.0001*%
%ADD267R,0.0350X0.0001*%
%ADD268R,0.0350X0.0001*%
%ADD269R,0.0349X0.0001*%
%ADD270R,0.0368X0.0001*%
%ADD271R,0.0348X0.0001*%
%ADD272R,0.0348X0.0001*%
%ADD273R,0.0347X0.0001*%
%ADD274R,0.0347X0.0001*%
%ADD275R,0.0346X0.0001*%
%ADD276R,0.0346X0.0001*%
%ADD277R,0.0346X0.0001*%
%ADD278R,0.0346X0.0001*%
%ADD279R,0.0345X0.0001*%
%ADD280R,0.0363X0.0001*%
%ADD281R,0.0345X0.0001*%
%ADD282R,0.0344X0.0001*%
%ADD283R,0.0343X0.0001*%
%ADD284R,0.0343X0.0001*%
%ADD285R,0.0342X0.0001*%
%ADD286R,0.0342X0.0001*%
%ADD287R,0.0342X0.0001*%
%ADD288R,0.0342X0.0001*%
%ADD289R,0.0359X0.0001*%
%ADD290R,0.0359X0.0001*%
%ADD291R,0.0341X0.0001*%
%ADD292R,0.0358X0.0001*%
%ADD293R,0.0341X0.0001*%
%ADD294R,0.0340X0.0001*%
%ADD295R,0.0340X0.0001*%
%ADD296R,0.0339X0.0001*%
%ADD297R,0.0356X0.0001*%
%ADD298R,0.0338X0.0001*%
%ADD299R,0.0356X0.0001*%
%ADD300R,0.0338X0.0001*%
%ADD301R,0.0338X0.0001*%
%ADD302R,0.0338X0.0001*%
%ADD303R,0.0337X0.0001*%
%ADD304R,0.0337X0.0001*%
%ADD305R,0.0354X0.0001*%
%ADD306R,0.0353X0.0001*%
%ADD307R,0.0336X0.0001*%
%ADD308R,0.0353X0.0001*%
%ADD309R,0.0336X0.0001*%
%ADD310R,0.0335X0.0001*%
%ADD311R,0.0335X0.0001*%
%ADD312R,0.0334X0.0001*%
%ADD313R,0.0334X0.0001*%
%ADD314R,0.0334X0.0001*%
%ADD315R,0.0350X0.0001*%
%ADD316R,0.0350X0.0001*%
%ADD317R,0.0333X0.0001*%
%ADD318R,0.0333X0.0001*%
%ADD319R,0.0349X0.0001*%
%ADD320R,0.0332X0.0001*%
%ADD321R,0.0332X0.0001*%
%ADD322R,0.0331X0.0001*%
%ADD323R,0.0331X0.0001*%
%ADD324R,0.0330X0.0001*%
%ADD325R,0.0330X0.0001*%
%ADD326R,0.0330X0.0001*%
%ADD327R,0.0329X0.0001*%
%ADD328R,0.0329X0.0001*%
%ADD329R,0.0328X0.0001*%
%ADD330R,0.0328X0.0001*%
%ADD331R,0.0327X0.0001*%
%ADD332R,0.0327X0.0001*%
%ADD333R,0.0326X0.0001*%
%ADD334R,0.0326X0.0001*%
%ADD335R,0.0326X0.0001*%
%ADD336R,0.0326X0.0001*%
%ADD337R,0.0339X0.0001*%
%ADD338R,0.0325X0.0001*%
%ADD339R,0.0324X0.0001*%
%ADD340R,0.0324X0.0001*%
%ADD341R,0.0323X0.0001*%
%ADD342R,0.0323X0.0001*%
%ADD343R,0.0322X0.0001*%
%ADD344R,0.0322X0.0001*%
%ADD345R,0.0336X0.0001*%
%ADD346R,0.0336X0.0001*%
%ADD347R,0.0322X0.0001*%
%ADD348R,0.0334X0.0001*%
%ADD349R,0.0322X0.0001*%
%ADD350R,0.0321X0.0001*%
%ADD351R,0.0321X0.0001*%
%ADD352R,0.0320X0.0001*%
%ADD353R,0.0333X0.0001*%
%ADD354R,0.0333X0.0001*%
%ADD355R,0.0319X0.0001*%
%ADD356R,0.0319X0.0001*%
%ADD357R,0.0318X0.0001*%
%ADD358R,0.0318X0.0001*%
%ADD359R,0.0318X0.0001*%
%ADD360R,0.0318X0.0001*%
%ADD361R,0.0330X0.0001*%
%ADD362R,0.0330X0.0001*%
%ADD363R,0.0317X0.0001*%
%ADD364R,0.0317X0.0001*%
%ADD365R,0.0316X0.0001*%
%ADD366R,0.0316X0.0001*%
%ADD367R,0.0315X0.0001*%
%ADD368R,0.0314X0.0001*%
%ADD369R,0.0314X0.0001*%
%ADD370R,0.0314X0.0001*%
%ADD371R,0.0314X0.0001*%
%ADD372R,0.0325X0.0001*%
%ADD373R,0.0313X0.0001*%
%ADD374R,0.0313X0.0001*%
%ADD375R,0.0312X0.0001*%
%ADD376R,0.0312X0.0001*%
%ADD377R,0.0311X0.0001*%
%ADD378R,0.0311X0.0001*%
%ADD379R,0.0310X0.0001*%
%ADD380R,0.0310X0.0001*%
%ADD381R,0.0310X0.0001*%
%ADD382R,0.0320X0.0001*%
%ADD383R,0.0309X0.0001*%
%ADD384R,0.0309X0.0001*%
%ADD385R,0.0319X0.0001*%
%ADD386R,0.0319X0.0001*%
%ADD387R,0.0308X0.0001*%
%ADD388R,0.0308X0.0001*%
%ADD389R,0.0307X0.0001*%
%ADD390R,0.0307X0.0001*%
%ADD391R,0.0306X0.0001*%
%ADD392R,0.0316X0.0001*%
%ADD393R,0.0306X0.0001*%
%ADD394R,0.0316X0.0001*%
%ADD395R,0.0306X0.0001*%
%ADD396R,0.0315X0.0001*%
%ADD397R,0.0305X0.0001*%
%ADD398R,0.0305X0.0001*%
%ADD399R,0.0304X0.0001*%
%ADD400R,0.0304X0.0001*%
%ADD401R,0.0313X0.0001*%
%ADD402R,0.0303X0.0001*%
%ADD403R,0.0313X0.0001*%
%ADD404R,0.0303X0.0001*%
%ADD405R,0.0302X0.0001*%
%ADD406R,0.0302X0.0001*%
%ADD407R,0.0302X0.0001*%
%ADD408R,0.0310X0.0001*%
%ADD409R,0.0302X0.0001*%
%ADD410R,0.0301X0.0001*%
%ADD411R,0.0310X0.0001*%
%ADD412R,0.0300X0.0001*%
%ADD413R,0.0300X0.0001*%
%ADD414R,0.0299X0.0001*%
%ADD415R,0.0299X0.0001*%
%ADD416R,0.0298X0.0001*%
%ADD417R,0.0298X0.0001*%
%ADD418R,0.0298X0.0001*%
%ADD419R,0.0306X0.0001*%
%ADD420R,0.0298X0.0001*%
%ADD421R,0.0297X0.0001*%
%ADD422R,0.0297X0.0001*%
%ADD423R,0.0296X0.0001*%
%ADD424R,0.0295X0.0001*%
%ADD425R,0.0295X0.0001*%
%ADD426R,0.0294X0.0001*%
%ADD427R,0.0294X0.0001*%
%ADD428R,0.0294X0.0001*%
%ADD429R,0.0294X0.0001*%
%ADD430R,0.0301X0.0001*%
%ADD431R,0.0293X0.0001*%
%ADD432R,0.0299X0.0001*%
%ADD433R,0.0293X0.0001*%
%ADD434R,0.0299X0.0001*%
%ADD435R,0.0292X0.0001*%
%ADD436R,0.0292X0.0001*%
%ADD437R,0.0291X0.0001*%
%ADD438R,0.0290X0.0001*%
%ADD439R,0.0290X0.0001*%
%ADD440R,0.0290X0.0001*%
%ADD441R,0.0296X0.0001*%
%ADD442R,0.0290X0.0001*%
%ADD443R,0.0289X0.0001*%
%ADD444R,0.0289X0.0001*%
%ADD445R,0.0288X0.0001*%
%ADD446R,0.0288X0.0001*%
%ADD447R,0.0287X0.0001*%
%ADD448R,0.0293X0.0001*%
%ADD449R,0.0293X0.0001*%
%ADD450R,0.0287X0.0001*%
%ADD451R,0.0286X0.0001*%
%ADD452R,0.0291X0.0001*%
%ADD453R,0.0286X0.0001*%
%ADD454R,0.0286X0.0001*%
%ADD455R,0.0285X0.0001*%
%ADD456R,0.0285X0.0001*%
%ADD457R,0.0290X0.0001*%
%ADD458R,0.0290X0.0001*%
%ADD459R,0.0284X0.0001*%
%ADD460R,0.0284X0.0001*%
%ADD461R,0.0283X0.0001*%
%ADD462R,0.0283X0.0001*%
%ADD463R,0.0282X0.0001*%
%ADD464R,0.0286X0.0001*%
%ADD465R,0.0282X0.0001*%
%ADD466R,0.0282X0.0001*%
%ADD467R,0.0281X0.0001*%
%ADD468R,0.0281X0.0001*%
%ADD469R,0.0280X0.0001*%
%ADD470R,0.0280X0.0001*%
%ADD471R,0.0279X0.0001*%
%ADD472R,0.0279X0.0001*%
%ADD473R,0.0278X0.0001*%
%ADD474R,0.0282X0.0001*%
%ADD475R,0.0278X0.0001*%
%ADD476R,0.0278X0.0001*%
%ADD477R,0.0278X0.0001*%
%ADD478R,0.0277X0.0001*%
%ADD479R,0.0276X0.0001*%
%ADD480R,0.0279X0.0001*%
%ADD481R,0.0276X0.0001*%
%ADD482R,0.0275X0.0001*%
%ADD483R,0.0275X0.0001*%
%ADD484R,0.0274X0.0001*%
%ADD485R,0.0274X0.0001*%
%ADD486R,0.0277X0.0001*%
%ADD487R,0.0274X0.0001*%
%ADD488R,0.0276X0.0001*%
%ADD489R,0.0276X0.0001*%
%ADD490R,0.0274X0.0001*%
%ADD491R,0.0273X0.0001*%
%ADD492R,0.0273X0.0001*%
%ADD493R,0.0272X0.0001*%
%ADD494R,0.0271X0.0001*%
%ADD495R,0.0271X0.0001*%
%ADD496R,0.0273X0.0001*%
%ADD497R,0.0273X0.0001*%
%ADD498R,0.0270X0.0001*%
%ADD499R,0.0270X0.0001*%
%ADD500R,0.0272X0.0001*%
%ADD501R,0.0270X0.0001*%
%ADD502R,0.0270X0.0001*%
%ADD503R,0.0269X0.0001*%
%ADD504R,0.0269X0.0001*%
%ADD505R,0.0270X0.0001*%
%ADD506R,0.0268X0.0001*%
%ADD507R,0.0268X0.0001*%
%ADD508R,0.0267X0.0001*%
%ADD509R,0.0266X0.0001*%
%ADD510R,0.0266X0.0001*%
%ADD511R,0.0267X0.0001*%
%ADD512R,0.0266X0.0001*%
%ADD513R,0.0266X0.0001*%
%ADD514R,0.0265X0.0001*%
%ADD515R,0.0265X0.0001*%
%ADD516R,0.0264X0.0001*%
%ADD517R,0.0264X0.0001*%
%ADD518R,0.0263X0.0001*%
%ADD519R,0.0263X0.0001*%
%ADD520R,0.0262X0.0001*%
%ADD521R,0.0262X0.0001*%
%ADD522R,0.0262X0.0001*%
%ADD523R,0.0262X0.0001*%
%ADD524R,0.0261X0.0001*%
%ADD525R,0.0261X0.0001*%
%ADD526R,0.0260X0.0001*%
%ADD527R,0.0260X0.0001*%
%ADD528R,0.0259X0.0001*%
%ADD529R,0.0259X0.0001*%
%ADD530R,0.0259X0.0001*%
%ADD531R,0.0258X0.0001*%
%ADD532R,0.0258X0.0001*%
%ADD533R,0.0259X0.0001*%
%ADD534R,0.0258X0.0001*%
%ADD535R,0.0258X0.0001*%
%ADD536R,0.0257X0.0001*%
%ADD537R,0.0256X0.0001*%
%ADD538R,0.0257X0.0001*%
%ADD539R,0.0256X0.0001*%
%ADD540R,0.0255X0.0001*%
%ADD541R,0.0255X0.0001*%
%ADD542R,0.0256X0.0001*%
%ADD543R,0.0256X0.0001*%
%ADD544R,0.0254X0.0001*%
%ADD545R,0.0254X0.0001*%
%ADD546R,0.0254X0.0001*%
%ADD547R,0.0254X0.0001*%
%ADD548R,0.0253X0.0001*%
%ADD549R,0.0253X0.0001*%
%ADD550R,0.0252X0.0001*%
%ADD551R,0.0251X0.0001*%
%ADD552R,0.0251X0.0001*%
%ADD553R,0.0253X0.0001*%
%ADD554R,0.0250X0.0001*%
%ADD555R,0.0250X0.0001*%
%ADD556R,0.0252X0.0001*%
%ADD557R,0.0250X0.0001*%
%ADD558R,0.0250X0.0001*%
%ADD559R,0.0249X0.0001*%
%ADD560R,0.0249X0.0001*%
%ADD561R,0.0248X0.0001*%
%ADD562R,0.0247X0.0001*%
%ADD563R,0.0247X0.0001*%
%ADD564R,0.0250X0.0001*%
%ADD565R,0.0246X0.0001*%
%ADD566R,0.0246X0.0001*%
%ADD567R,0.0250X0.0001*%
%ADD568R,0.0246X0.0001*%
%ADD569R,0.0246X0.0001*%
%ADD570R,0.0245X0.0001*%
%ADD571R,0.0245X0.0001*%
%ADD572R,0.0244X0.0001*%
%ADD573R,0.0243X0.0001*%
%ADD574R,0.0243X0.0001*%
%ADD575R,0.0242X0.0001*%
%ADD576R,0.0242X0.0001*%
%ADD577R,0.0242X0.0001*%
%ADD578R,0.0242X0.0001*%
%ADD579R,0.0241X0.0001*%
%ADD580R,0.0241X0.0001*%
%ADD581R,0.0240X0.0001*%
%ADD582R,0.0240X0.0001*%
%ADD583R,0.0244X0.0001*%
%ADD584R,0.0239X0.0001*%
%ADD585R,0.0238X0.0001*%
%ADD586R,0.0238X0.0001*%
%ADD587R,0.0238X0.0001*%
%ADD588R,0.0238X0.0001*%
%ADD589R,0.0237X0.0001*%
%ADD590R,0.0237X0.0001*%
%ADD591R,0.0415X0.0001*%
%ADD592R,0.0415X0.0001*%
%ADD593R,0.1389X0.0001*%
%ADD594R,0.1389X0.0001*%
%ADD595R,0.0514X0.0001*%
%ADD596R,0.0489X0.0001*%
%ADD597R,0.0514X0.0001*%
%ADD598R,0.0489X0.0001*%
%ADD599R,0.1388X0.0001*%
%ADD600R,0.1388X0.0001*%
%ADD601R,0.1387X0.0001*%
%ADD602R,0.1387X0.0001*%
%ADD603R,0.1386X0.0001*%
%ADD604R,0.1386X0.0001*%
%ADD605R,0.1386X0.0001*%
%ADD606R,0.1385X0.0001*%
%ADD607R,0.1384X0.0001*%
%ADD608R,0.1384X0.0001*%
%ADD609R,0.1383X0.0001*%
%ADD610R,0.1383X0.0001*%
%ADD611R,0.1382X0.0001*%
%ADD612R,0.1382X0.0001*%
%ADD613R,0.1382X0.0001*%
%ADD614R,0.1381X0.0001*%
%ADD615R,0.1381X0.0001*%
%ADD616R,0.1380X0.0001*%
%ADD617R,0.1379X0.0001*%
%ADD618R,0.1379X0.0001*%
%ADD619R,0.1378X0.0001*%
%ADD620R,0.1378X0.0001*%
%ADD621R,0.1378X0.0001*%
%ADD622R,0.1376X0.0001*%
%ADD623R,0.1376X0.0001*%
%ADD624R,0.1374X0.0001*%
%ADD625R,0.1374X0.0001*%
%ADD626R,0.1373X0.0001*%
%ADD627R,0.1373X0.0001*%
%ADD628R,0.1371X0.0001*%
%ADD629R,0.1371X0.0001*%
%ADD630R,0.1370X0.0001*%
%ADD631R,0.1370X0.0001*%
%ADD632R,0.1369X0.0001*%
%ADD633R,0.1368X0.0001*%
%ADD634R,0.1368X0.0001*%
%ADD635R,0.1367X0.0001*%
%ADD636R,0.1366X0.0001*%
%ADD637R,0.1366X0.0001*%
%ADD638R,0.1365X0.0001*%
%ADD639R,0.1364X0.0001*%
%ADD640R,0.1363X0.0001*%
%ADD641R,0.1363X0.0001*%
%ADD642R,0.1362X0.0001*%
%ADD643R,0.1362X0.0001*%
%ADD644R,0.1362X0.0001*%
%ADD645R,0.1361X0.0001*%
%ADD646R,0.1360X0.0001*%
%ADD647R,0.1359X0.0001*%
%ADD648R,0.1358X0.0001*%
%ADD649R,0.1358X0.0001*%
%ADD650R,0.1358X0.0001*%
%ADD651R,0.1357X0.0001*%
%ADD652R,0.1357X0.0001*%
%ADD653R,0.1356X0.0001*%
%ADD654R,0.1355X0.0001*%
%ADD655R,0.1354X0.0001*%
%ADD656R,0.1354X0.0001*%
%ADD657R,0.1354X0.0001*%
%ADD658R,0.1353X0.0001*%
%ADD659R,0.1352X0.0001*%
%ADD660R,0.1351X0.0001*%
%ADD661R,0.1350X0.0001*%
%ADD662R,0.1348X0.0001*%
%ADD663R,0.1346X0.0001*%
%ADD664R,0.1344X0.0001*%
%ADD665R,0.1342X0.0001*%
%ADD666R,0.1341X0.0001*%
%ADD667R,0.1339X0.0001*%
%ADD668R,0.1338X0.0001*%
%ADD669R,0.1336X0.0001*%
%ADD670R,0.1334X0.0001*%
%ADD671R,0.1333X0.0001*%
%ADD672R,0.1331X0.0001*%
%ADD673R,0.1330X0.0001*%
%ADD674R,0.1328X0.0001*%
%ADD675R,0.1326X0.0001*%
%ADD676R,0.1325X0.0001*%
%ADD677R,0.1323X0.0001*%
%ADD678R,0.1322X0.0001*%
%ADD679R,0.1320X0.0001*%
%ADD680R,0.1318X0.0001*%
%ADD681R,0.1317X0.0001*%
%ADD682R,0.1315X0.0001*%
%ADD683R,0.1314X0.0001*%
%ADD684R,0.1312X0.0001*%
%ADD685R,0.1310X0.0001*%
%ADD686R,0.1309X0.0001*%
%ADD687R,0.1307X0.0001*%
%ADD688R,0.1306X0.0001*%
%ADD689R,0.1304X0.0001*%
%ADD690R,0.1302X0.0001*%
%ADD691R,0.1301X0.0001*%
%ADD692R,0.1299X0.0001*%
%ADD693R,0.1298X0.0001*%
%ADD694R,0.1296X0.0001*%
%ADD695R,0.1294X0.0001*%
%ADD696R,0.1292X0.0001*%
%ADD697R,0.1290X0.0001*%
%ADD698R,0.1289X0.0001*%
%ADD699R,0.1287X0.0001*%
%ADD700R,0.1286X0.0001*%
%ADD701R,0.1284X0.0001*%
%ADD702R,0.1282X0.0001*%
%ADD703R,0.1281X0.0001*%
%ADD704R,0.1279X0.0001*%
%ADD705R,0.1278X0.0001*%
%ADD706R,0.1276X0.0001*%
%ADD707R,0.1274X0.0001*%
%ADD708R,0.1273X0.0001*%
%ADD709R,0.1271X0.0001*%
%ADD710R,0.1270X0.0001*%
%ADD711R,0.1268X0.0001*%
%ADD712R,0.1266X0.0001*%
%ADD713R,0.1264X0.0001*%
%ADD714R,0.1262X0.0001*%
%ADD715R,0.1261X0.0001*%
%ADD716R,0.1259X0.0001*%
%ADD717R,0.1258X0.0001*%
%ADD718R,0.1256X0.0001*%
%ADD719R,0.1254X0.0001*%
%ADD720R,0.1253X0.0001*%
%ADD721R,0.1251X0.0001*%
%ADD722R,0.1250X0.0001*%
%ADD723R,0.1248X0.0001*%
%ADD724R,0.1246X0.0001*%
%ADD725R,0.1245X0.0001*%
%ADD726R,0.1243X0.0001*%
%ADD727R,0.1242X0.0001*%
%ADD728R,0.1240X0.0001*%
%ADD729R,0.1238X0.0001*%
%ADD730R,0.1237X0.0001*%
%ADD731R,0.1235X0.0001*%
%ADD732R,0.1234X0.0001*%
%ADD733R,0.1232X0.0001*%
%ADD734R,0.1230X0.0001*%
%ADD735R,0.1229X0.0001*%
%ADD736R,0.1227X0.0001*%
%ADD737R,0.1226X0.0001*%
%ADD738R,0.1224X0.0001*%
%ADD739R,0.1222X0.0001*%
%ADD740R,0.1221X0.0001*%
%ADD741R,0.1219X0.0001*%
%ADD742R,0.1218X0.0001*%
%ADD743R,0.1216X0.0001*%
%ADD744R,0.1214X0.0001*%
%ADD745R,0.1212X0.0001*%
%ADD746R,0.1210X0.0001*%
%ADD747R,0.1209X0.0001*%
%ADD748R,0.1207X0.0001*%
%ADD749R,0.1206X0.0001*%
%ADD750R,0.1204X0.0001*%
%ADD751R,0.1202X0.0001*%
%ADD752R,0.1201X0.0001*%
%ADD753R,0.1199X0.0001*%
%ADD754R,0.1198X0.0001*%
%ADD755R,0.1196X0.0001*%
%ADD756R,0.1194X0.0001*%
%ADD757R,0.1193X0.0001*%
%ADD758R,0.1191X0.0001*%
%ADD759R,0.1190X0.0001*%
%ADD760R,0.1188X0.0001*%
%ADD761R,0.1186X0.0001*%
%ADD762R,0.1184X0.0001*%
%ADD763R,0.1182X0.0001*%
%ADD764R,0.1181X0.0001*%
%ADD765R,0.1179X0.0001*%
%ADD766R,0.1178X0.0001*%
%ADD767R,0.1176X0.0001*%
%ADD768R,0.1174X0.0001*%
%ADD769R,0.1173X0.0001*%
%ADD770R,0.1171X0.0001*%
%ADD771R,0.1170X0.0001*%
%ADD772R,0.1168X0.0001*%
%ADD773R,0.1166X0.0001*%
%ADD774R,0.1165X0.0001*%
%ADD775R,0.1163X0.0001*%
%ADD776R,0.1162X0.0001*%
%ADD777R,0.1160X0.0001*%
%ADD778R,0.1158X0.0001*%
%ADD779R,0.1157X0.0001*%
%ADD780R,0.1155X0.0001*%
%ADD781R,0.1154X0.0001*%
%ADD782R,0.1152X0.0001*%
%ADD783R,0.1150X0.0001*%
%ADD784R,0.1149X0.0001*%
%ADD785R,0.1147X0.0001*%
%ADD786R,0.1146X0.0001*%
%ADD787R,0.1144X0.0001*%
%ADD788R,0.1142X0.0001*%
%ADD789R,0.1141X0.0001*%
%ADD790R,0.1139X0.0001*%
%ADD791R,0.1138X0.0001*%
%ADD792R,0.1136X0.0001*%
%ADD793R,0.1134X0.0001*%
%ADD794R,0.1132X0.0001*%
%ADD795R,0.1130X0.0001*%
%ADD796R,0.1129X0.0001*%
%ADD797R,0.1127X0.0001*%
%ADD798R,0.1126X0.0001*%
%ADD799R,0.1124X0.0001*%
%ADD800R,0.1122X0.0001*%
%ADD801R,0.1121X0.0001*%
%ADD802R,0.1119X0.0001*%
%ADD803R,0.1118X0.0001*%
%ADD804R,0.1116X0.0001*%
%ADD805R,0.1114X0.0001*%
%ADD806R,0.1113X0.0001*%
%ADD807R,0.1111X0.0001*%
%ADD808R,0.1110X0.0001*%
%ADD809R,0.1107X0.0001*%
%ADD810R,0.1106X0.0001*%
%ADD811R,0.1104X0.0001*%
%ADD812R,0.1102X0.0001*%
%ADD813R,0.1101X0.0001*%
%ADD814R,0.1099X0.0001*%
%ADD815R,0.1098X0.0001*%
%ADD816R,0.1096X0.0001*%
%ADD817R,0.1094X0.0001*%
%ADD818R,0.1093X0.0001*%
%ADD819R,0.1091X0.0001*%
%ADD820R,0.1090X0.0001*%
%ADD821R,0.1088X0.0001*%
%ADD822R,0.1086X0.0001*%
%ADD823R,0.1085X0.0001*%
%ADD824R,0.1083X0.0001*%
%ADD825R,0.1082X0.0001*%
%ADD826R,0.1080X0.0001*%
%ADD827R,0.1078X0.0001*%
%ADD828R,0.1077X0.0001*%
%ADD829R,0.1075X0.0001*%
%ADD830R,0.1074X0.0001*%
%ADD831R,0.1072X0.0001*%
%ADD832R,0.1070X0.0001*%
%ADD833R,0.1069X0.0001*%
%ADD834R,0.1067X0.0001*%
%ADD835R,0.1066X0.0001*%
%ADD836R,0.1064X0.0001*%
%ADD837R,0.1062X0.0001*%
%ADD838R,0.1061X0.0001*%
%ADD839R,0.1059X0.0001*%
%ADD840R,0.1058X0.0001*%
%ADD841R,0.1056X0.0001*%
%ADD842R,0.1054X0.0001*%
%ADD843R,0.1052X0.0001*%
%ADD844R,0.1050X0.0001*%
%ADD845R,0.1049X0.0001*%
%ADD846R,0.1047X0.0001*%
%ADD847R,0.1046X0.0001*%
%ADD848R,0.1044X0.0001*%
%ADD849R,0.1042X0.0001*%
%ADD850R,0.1041X0.0001*%
%ADD851R,0.1039X0.0001*%
%ADD852R,0.1038X0.0001*%
%ADD853R,0.1036X0.0001*%
%ADD854R,0.1034X0.0001*%
%ADD855R,0.1033X0.0001*%
%ADD856R,0.1031X0.0001*%
%ADD857R,0.1030X0.0001*%
%ADD858R,0.1027X0.0001*%
%ADD859R,0.1026X0.0001*%
%ADD860R,0.1024X0.0001*%
%ADD861R,0.1022X0.0001*%
%ADD862R,0.1021X0.0001*%
%ADD863R,0.1019X0.0001*%
%ADD864R,0.1018X0.0001*%
%ADD865R,0.1016X0.0001*%
%ADD866R,0.1014X0.0001*%
%ADD867R,0.1013X0.0001*%
%ADD868R,0.1011X0.0001*%
%ADD869R,0.1010X0.0001*%
%ADD870R,0.1008X0.0001*%
%ADD871R,0.1006X0.0001*%
%ADD872R,0.1005X0.0001*%
%ADD873R,0.1003X0.0001*%
%ADD874R,0.1002X0.0001*%
%ADD875R,0.1000X0.0001*%
%ADD876R,0.0998X0.0001*%
%ADD877R,0.0997X0.0001*%
%ADD878R,0.0995X0.0001*%
%ADD879R,0.0994X0.0001*%
%ADD880R,0.0992X0.0001*%
%ADD881R,0.0990X0.0001*%
%ADD882R,0.0989X0.0001*%
%ADD883R,0.0987X0.0001*%
%ADD884R,0.0986X0.0001*%
%ADD885R,0.0984X0.0001*%
%ADD886R,0.0982X0.0001*%
%ADD887R,0.0981X0.0001*%
%ADD888R,0.0979X0.0001*%
%ADD889R,0.0978X0.0001*%
%ADD890R,0.0976X0.0001*%
%ADD891R,0.0974X0.0001*%
%ADD892R,0.0972X0.0001*%
%ADD893R,0.0970X0.0001*%
%ADD894R,0.0969X0.0001*%
%ADD895R,0.0967X0.0001*%
%ADD896R,0.0966X0.0001*%
%ADD897R,0.0964X0.0001*%
%ADD898R,0.0962X0.0001*%
%ADD899R,0.0961X0.0001*%
%ADD900R,0.0959X0.0001*%
%ADD901R,0.0958X0.0001*%
%ADD902R,0.0956X0.0001*%
%ADD903R,0.0954X0.0001*%
%ADD904R,0.0953X0.0001*%
%ADD905R,0.0951X0.0001*%
%ADD906R,0.0950X0.0001*%
%ADD907R,0.0947X0.0001*%
%ADD908R,0.0946X0.0001*%
%ADD909R,0.0944X0.0001*%
%ADD910R,0.0942X0.0001*%
%ADD911R,0.0941X0.0001*%
%ADD912R,0.0939X0.0001*%
%ADD913R,0.0938X0.0001*%
%ADD914R,0.0936X0.0001*%
%ADD915R,0.0934X0.0001*%
%ADD916R,0.0933X0.0001*%
%ADD917R,0.0931X0.0001*%
%ADD918R,0.0930X0.0001*%
%ADD919R,0.0928X0.0001*%
%ADD920R,0.0926X0.0001*%
%ADD921R,0.0925X0.0001*%
%ADD922R,0.0923X0.0001*%
%ADD923R,0.0922X0.0001*%
%ADD924R,0.0920X0.0001*%
%ADD925R,0.0918X0.0001*%
%ADD926R,0.0917X0.0001*%
%ADD927R,0.0914X0.0001*%
%ADD928R,0.0909X0.0001*%
%ADD929R,0.0905X0.0001*%
%ADD930R,0.0901X0.0001*%
%ADD931R,0.0896X0.0001*%
%ADD932R,0.0891X0.0001*%
%ADD933R,0.0886X0.0001*%
%ADD934R,0.0882X0.0001*%
%ADD935R,0.0876X0.0001*%
%ADD936R,0.0871X0.0001*%
%ADD937R,0.0866X0.0001*%
%ADD938R,0.0860X0.0001*%
%ADD939R,0.0854X0.0001*%
%ADD940R,0.0848X0.0001*%
%ADD941R,0.0842X0.0001*%
%ADD942R,0.0835X0.0001*%
%ADD943R,0.0829X0.0001*%
%ADD944R,0.0821X0.0001*%
%ADD945R,0.0813X0.0001*%
%ADD946R,0.0804X0.0001*%
%ADD947R,0.0794X0.0001*%
%ADD948R,0.0782X0.0001*%
%ADD949R,0.0763X0.0001*%
%ADD950C,0.0000*%
%ADD951C,0.0120*%
D10*
X000471Y002642D02*
X000772Y002642D01*
X000621Y002642D02*
X000621Y003092D01*
X000772Y002942D01*
X000932Y003017D02*
X000932Y002717D01*
X001007Y002642D01*
X001232Y002642D01*
X001232Y003092D01*
X001007Y003092D01*
X000932Y003017D01*
X003446Y004609D02*
X003746Y004609D01*
X003596Y004759D02*
X003596Y004459D01*
X003561Y005794D02*
X003561Y006094D01*
X002836Y007010D02*
X002836Y007460D01*
X002610Y007460D01*
X002535Y007385D01*
X002535Y007235D01*
X002610Y007160D01*
X002836Y007160D01*
X002375Y007235D02*
X002075Y007235D01*
X002075Y007310D02*
X002075Y007010D01*
X001915Y007010D02*
X001915Y007460D01*
X001614Y007010D01*
X001614Y007460D01*
X001454Y007460D02*
X001454Y007010D01*
X001154Y007010D01*
X000994Y007010D02*
X000694Y007010D01*
X000994Y007010D02*
X000994Y007460D01*
X001154Y007460D02*
X001454Y007460D01*
X001454Y007235D02*
X001304Y007235D01*
X002075Y007310D02*
X002225Y007460D01*
X002375Y007310D01*
X002375Y007010D01*
X002273Y010781D02*
X001823Y010781D01*
X001823Y011006D01*
X001898Y011081D01*
X001973Y011081D01*
X002048Y011006D01*
X002048Y010781D01*
X002048Y011006D02*
X002123Y011081D01*
X002198Y011081D01*
X002273Y011006D01*
X002273Y010781D01*
X002823Y010781D02*
X002823Y011081D01*
X003048Y010931D02*
X003048Y010781D01*
X003273Y010781D02*
X002823Y010781D01*
X003273Y010781D02*
X003273Y011081D01*
X001273Y011006D02*
X001273Y010856D01*
X001198Y010781D01*
X000898Y010781D01*
X000823Y010856D01*
X000823Y011006D01*
X000898Y011081D01*
X001198Y011081D02*
X001273Y011006D01*
X001129Y012808D02*
X000829Y012808D01*
X000754Y012883D01*
X000754Y013033D01*
X000829Y013109D01*
X001129Y013109D01*
X001204Y013033D01*
X001204Y012883D01*
X001129Y012808D01*
X000904Y012958D02*
X000754Y013109D01*
X000754Y013269D02*
X000754Y013569D01*
X000754Y013419D02*
X001204Y013419D01*
X001054Y013269D01*
X001769Y016475D02*
X001694Y016550D01*
X001694Y016700D01*
X001769Y016775D01*
X001919Y016935D02*
X001919Y017236D01*
X001694Y017160D02*
X002144Y017160D01*
X001919Y016935D01*
X002069Y016775D02*
X002144Y016700D01*
X002144Y016550D01*
X002069Y016475D01*
X001769Y016475D01*
X001904Y021540D02*
X002355Y021540D01*
X002355Y021765D01*
X002280Y021840D01*
X002130Y021840D01*
X002055Y021765D01*
X002055Y021540D01*
X002055Y021690D02*
X001904Y021840D01*
X001979Y022000D02*
X001904Y022075D01*
X001904Y022225D01*
X001979Y022300D01*
X002055Y022300D01*
X002130Y022225D01*
X002130Y022000D01*
X001979Y022000D01*
X002130Y022000D02*
X002280Y022150D01*
X002355Y022300D01*
X000702Y023412D02*
X000402Y023412D01*
X000552Y023637D02*
X000702Y023637D01*
X000702Y023412D02*
X000702Y023863D01*
X000402Y023863D01*
X000477Y024412D02*
X000702Y024412D01*
X000702Y024863D01*
X000477Y024863D01*
X000402Y024788D01*
X000402Y024712D01*
X000477Y024637D01*
X000702Y024637D01*
X000477Y024637D02*
X000402Y024562D01*
X000402Y024487D01*
X000477Y024412D01*
X000477Y025412D02*
X000402Y025487D01*
X000477Y025412D02*
X000627Y025412D01*
X000702Y025487D01*
X000702Y025788D01*
X000627Y025863D01*
X000477Y025863D01*
X000402Y025788D01*
X002035Y025900D02*
X002336Y025900D01*
X002110Y026125D01*
X002110Y025674D01*
X002496Y025674D02*
X002646Y025825D01*
X002721Y025674D02*
X002796Y025749D01*
X002796Y026050D01*
X002721Y026125D01*
X002571Y026125D01*
X002496Y026050D01*
X002496Y025749D01*
X002571Y025674D01*
X002721Y025674D01*
X003149Y027028D02*
X003074Y027103D01*
X003074Y027253D01*
X003149Y027328D01*
X003074Y027488D02*
X003374Y027788D01*
X003449Y027788D01*
X003524Y027713D01*
X003524Y027563D01*
X003449Y027488D01*
X003449Y027328D02*
X003524Y027253D01*
X003524Y027103D01*
X003449Y027028D01*
X003149Y027028D01*
X003074Y027488D02*
X003074Y027788D01*
X009696Y028965D02*
X019696Y028965D01*
X019696Y024831D02*
X009696Y024831D01*
X024327Y025765D02*
X024327Y025916D01*
X024402Y025991D01*
X024327Y025765D02*
X024402Y025690D01*
X024702Y025690D01*
X024777Y025765D01*
X024777Y025916D01*
X024702Y025991D01*
X025327Y025916D02*
X025327Y025690D01*
X025777Y025690D01*
X025777Y025916D01*
X025702Y025991D01*
X025627Y025991D01*
X025552Y025916D01*
X025552Y025690D01*
X025552Y025916D02*
X025477Y025991D01*
X025402Y025991D01*
X025327Y025916D01*
X026327Y025991D02*
X026327Y025690D01*
X026777Y025690D01*
X026777Y025991D01*
X026552Y025841D02*
X026552Y025690D01*
X025805Y024637D02*
X025805Y024337D01*
X025840Y023302D02*
X025840Y023002D01*
X025990Y023152D02*
X025690Y023152D01*
X026655Y022102D02*
X026956Y022102D01*
X026805Y022102D02*
X026805Y021652D01*
X027266Y021652D02*
X027266Y022102D01*
X027416Y022102D02*
X027116Y022102D01*
X027576Y021952D02*
X027576Y021652D01*
X027576Y021877D02*
X027876Y021877D01*
X027876Y021952D02*
X027876Y021652D01*
X028036Y021727D02*
X028112Y021652D01*
X028337Y021652D01*
X028337Y022102D01*
X028112Y022102D01*
X028036Y022027D01*
X028036Y021952D01*
X028112Y021877D01*
X028337Y021877D01*
X028112Y021877D02*
X028036Y021802D01*
X028036Y021727D01*
X027876Y021952D02*
X027726Y022102D01*
X027576Y021952D01*
X027462Y018047D02*
X027312Y018047D01*
X027237Y017972D01*
X027237Y017897D01*
X027312Y017822D01*
X027237Y017747D01*
X027237Y017672D01*
X027312Y017596D01*
X027462Y017596D01*
X027537Y017672D01*
X027697Y017672D02*
X027772Y017596D01*
X027923Y017596D01*
X027998Y017672D01*
X027998Y017972D01*
X027923Y018047D01*
X027772Y018047D01*
X027697Y017972D01*
X027537Y017972D02*
X027462Y018047D01*
X027387Y017822D02*
X027312Y017822D01*
X028076Y013659D02*
X028076Y013359D01*
X028377Y013659D01*
X028452Y013659D01*
X028527Y013584D01*
X028527Y013434D01*
X028452Y013359D01*
X028452Y013199D02*
X028152Y013199D01*
X028076Y013124D01*
X028076Y012974D01*
X028152Y012899D01*
X028452Y012899D01*
X028527Y012974D01*
X028527Y013124D01*
X028452Y013199D01*
X028227Y013049D02*
X028076Y013199D01*
X027980Y011014D02*
X027980Y010714D01*
X028431Y010714D01*
X028431Y011014D01*
X028206Y010864D02*
X028206Y010714D01*
X027431Y010714D02*
X027431Y010939D01*
X027356Y011014D01*
X027281Y011014D01*
X027206Y010939D01*
X027206Y010714D01*
X027431Y010714D02*
X026980Y010714D01*
X026980Y010939D01*
X027055Y011014D01*
X027131Y011014D01*
X027206Y010939D01*
X026431Y010939D02*
X026431Y010789D01*
X026356Y010714D01*
X026055Y010714D01*
X025980Y010789D01*
X025980Y010939D01*
X026055Y011014D01*
X026356Y011014D02*
X026431Y010939D01*
X026245Y006320D02*
X026245Y006020D01*
X026019Y006020D01*
X026094Y006170D01*
X026094Y006245D01*
X026019Y006320D01*
X025869Y006320D01*
X025794Y006245D01*
X025794Y006095D01*
X025869Y006020D01*
X025794Y005860D02*
X025944Y005710D01*
X025944Y005785D02*
X025944Y005560D01*
X025794Y005560D02*
X026245Y005560D01*
X026245Y005785D01*
X026170Y005860D01*
X026019Y005860D01*
X025944Y005785D01*
X028550Y005820D02*
X028700Y005670D01*
X028700Y005745D02*
X028700Y005520D01*
X028550Y005520D02*
X029000Y005520D01*
X029000Y005745D01*
X028925Y005820D01*
X028775Y005820D01*
X028700Y005745D01*
X028625Y005981D02*
X028550Y005981D01*
X028625Y005981D02*
X028925Y006281D01*
X029000Y006281D01*
X029000Y005981D01*
X026738Y000668D02*
X026738Y000443D01*
X026663Y000368D01*
X026588Y000443D01*
X026513Y000368D01*
X026438Y000443D01*
X026438Y000668D01*
X026278Y000668D02*
X026278Y000443D01*
X026203Y000368D01*
X026128Y000443D01*
X026053Y000368D01*
X025978Y000443D01*
X025978Y000668D01*
X025817Y000668D02*
X025817Y000443D01*
X025742Y000368D01*
X025667Y000443D01*
X025592Y000368D01*
X025517Y000443D01*
X025517Y000668D01*
X025357Y000443D02*
X025282Y000443D01*
X025282Y000368D01*
X025357Y000368D01*
X025357Y000443D01*
X025127Y000443D02*
X025052Y000518D01*
X024827Y000518D01*
X024827Y000593D02*
X024827Y000368D01*
X025052Y000368D01*
X025127Y000443D01*
X025052Y000668D02*
X024902Y000668D01*
X024827Y000593D01*
X024667Y000593D02*
X024667Y000443D01*
X024591Y000368D01*
X024366Y000368D01*
X024206Y000368D02*
X024206Y000668D01*
X024206Y000518D02*
X024056Y000668D01*
X023981Y000668D01*
X023822Y000593D02*
X023822Y000443D01*
X023747Y000368D01*
X023597Y000368D01*
X023522Y000443D01*
X023522Y000593D01*
X023597Y000668D01*
X023747Y000668D01*
X023822Y000593D01*
X023362Y000668D02*
X023137Y000668D01*
X023062Y000593D01*
X023062Y000443D01*
X023137Y000368D01*
X023362Y000368D01*
X023362Y000818D01*
X022902Y000593D02*
X022902Y000443D01*
X022827Y000368D01*
X022676Y000368D01*
X022601Y000443D01*
X022601Y000593D01*
X022676Y000668D01*
X022827Y000668D01*
X022902Y000593D01*
X022441Y000668D02*
X022291Y000668D01*
X022366Y000743D02*
X022366Y000443D01*
X022291Y000368D01*
X022134Y000368D02*
X021984Y000368D01*
X022059Y000368D02*
X022059Y000668D01*
X022134Y000668D01*
X022059Y000818D02*
X022059Y000894D01*
X021827Y000593D02*
X021827Y000443D01*
X021752Y000368D01*
X021527Y000368D01*
X021367Y000368D02*
X021292Y000368D01*
X021292Y000443D01*
X021367Y000443D01*
X021367Y000368D01*
X021137Y000443D02*
X021062Y000368D01*
X020837Y000368D01*
X020676Y000443D02*
X020676Y000593D01*
X020601Y000668D01*
X020451Y000668D01*
X020376Y000593D01*
X020376Y000443D01*
X020451Y000368D01*
X020601Y000368D01*
X020676Y000443D01*
X020837Y000668D02*
X021062Y000668D01*
X021137Y000593D01*
X021137Y000443D01*
X021527Y000668D02*
X021752Y000668D01*
X021827Y000593D01*
X020216Y000668D02*
X020216Y000368D01*
X020066Y000368D02*
X020066Y000593D01*
X019991Y000668D01*
X019916Y000593D01*
X019916Y000368D01*
X019696Y000225D02*
X009696Y000225D01*
X009696Y004359D02*
X019696Y004359D01*
X020141Y000668D02*
X020066Y000593D01*
X020141Y000668D02*
X020216Y000668D01*
X024366Y000668D02*
X024591Y000668D01*
X024667Y000593D01*
X004606Y000786D02*
X004531Y000711D01*
X004381Y000711D01*
X004306Y000786D01*
X004146Y000711D02*
X003846Y000711D01*
X003996Y000711D02*
X003996Y001161D01*
X004146Y001011D01*
X004306Y001086D02*
X004381Y001161D01*
X004531Y001161D01*
X004606Y001086D01*
X004606Y000786D01*
X026262Y027993D02*
X026187Y028068D01*
X026187Y028218D01*
X026262Y028294D01*
X026562Y028294D01*
X026637Y028218D01*
X026637Y028068D01*
X026562Y027993D01*
X026262Y027993D01*
X026337Y028143D02*
X026187Y028294D01*
X026262Y028454D02*
X026187Y028529D01*
X026187Y028679D01*
X026262Y028754D01*
X026337Y028754D01*
X026412Y028679D01*
X026412Y028604D01*
X026412Y028679D02*
X026487Y028754D01*
X026562Y028754D01*
X026637Y028679D01*
X026637Y028529D01*
X026562Y028454D01*
D11*
X026602Y027326D02*
X026576Y027385D01*
X026547Y027442D01*
X026515Y027497D01*
X026479Y027551D01*
X026441Y027602D01*
X026399Y027650D01*
X026355Y027696D01*
X026307Y027740D01*
X026258Y027780D01*
X026206Y027818D01*
X026152Y027852D01*
X026096Y027883D01*
X026038Y027911D01*
X025978Y027935D01*
X025918Y027956D01*
X025856Y027973D01*
X025793Y027986D01*
X025730Y027995D01*
X025666Y028001D01*
X025602Y028003D01*
X025538Y028001D01*
X025474Y027995D01*
X025411Y027986D01*
X025348Y027973D01*
X025286Y027956D01*
X025226Y027935D01*
X025166Y027911D01*
X025108Y027883D01*
X025052Y027852D01*
X024998Y027818D01*
X024946Y027780D01*
X024897Y027740D01*
X024849Y027696D01*
X024805Y027650D01*
X024763Y027602D01*
X024725Y027551D01*
X024689Y027497D01*
X024657Y027442D01*
X024628Y027385D01*
X024602Y027326D01*
X024602Y026526D02*
X024610Y026489D01*
X024620Y026454D01*
X024634Y026419D01*
X024650Y026386D01*
X024669Y026354D01*
X024691Y026324D01*
X024716Y026296D01*
X024742Y026270D01*
X024771Y026247D01*
X024802Y026226D01*
X026402Y026226D01*
X026433Y026247D01*
X026462Y026270D01*
X026488Y026296D01*
X026513Y026324D01*
X026535Y026354D01*
X026554Y026386D01*
X026570Y026419D01*
X026584Y026454D01*
X026594Y026489D01*
X026602Y026526D01*
X026708Y025323D02*
X026173Y025323D01*
X026173Y022371D01*
X026708Y022371D01*
X026708Y025323D01*
X028929Y025323D01*
X028929Y022371D01*
X026708Y022371D01*
X026740Y017457D02*
X028440Y017457D01*
X028457Y017455D01*
X028474Y017451D01*
X028490Y017444D01*
X028504Y017434D01*
X028517Y017421D01*
X028527Y017407D01*
X028534Y017391D01*
X028538Y017374D01*
X028540Y017357D01*
X028540Y016557D01*
X028538Y016540D01*
X028534Y016523D01*
X028527Y016507D01*
X028517Y016493D01*
X028504Y016480D01*
X028490Y016470D01*
X028474Y016463D01*
X028457Y016459D01*
X028440Y016457D01*
X026740Y016457D01*
X026723Y016459D01*
X026706Y016463D01*
X026690Y016470D01*
X026676Y016480D01*
X026663Y016493D01*
X026653Y016507D01*
X026646Y016523D01*
X026642Y016540D01*
X026640Y016557D01*
X026640Y017357D01*
X026642Y017374D01*
X026646Y017391D01*
X026653Y017407D01*
X026663Y017421D01*
X026676Y017434D01*
X026690Y017444D01*
X026706Y017451D01*
X026723Y017455D01*
X026740Y017457D01*
X026255Y012349D02*
X026281Y012408D01*
X026310Y012465D01*
X026342Y012520D01*
X026378Y012574D01*
X026416Y012625D01*
X026458Y012673D01*
X026502Y012719D01*
X026550Y012763D01*
X026599Y012803D01*
X026651Y012841D01*
X026705Y012875D01*
X026761Y012906D01*
X026819Y012934D01*
X026879Y012958D01*
X026939Y012979D01*
X027001Y012996D01*
X027064Y013009D01*
X027127Y013018D01*
X027191Y013024D01*
X027255Y013026D01*
X027319Y013024D01*
X027383Y013018D01*
X027446Y013009D01*
X027509Y012996D01*
X027571Y012979D01*
X027631Y012958D01*
X027691Y012934D01*
X027749Y012906D01*
X027805Y012875D01*
X027859Y012841D01*
X027911Y012803D01*
X027960Y012763D01*
X028008Y012719D01*
X028052Y012673D01*
X028094Y012625D01*
X028132Y012574D01*
X028168Y012520D01*
X028200Y012465D01*
X028229Y012408D01*
X028255Y012349D01*
X028255Y011550D02*
X028247Y011513D01*
X028237Y011478D01*
X028223Y011443D01*
X028207Y011410D01*
X028188Y011378D01*
X028166Y011348D01*
X028141Y011320D01*
X028115Y011294D01*
X028086Y011271D01*
X028055Y011250D01*
X028055Y011249D02*
X026455Y011249D01*
X026456Y011250D02*
X026425Y011271D01*
X026396Y011294D01*
X026370Y011320D01*
X026345Y011348D01*
X026323Y011378D01*
X026304Y011410D01*
X026288Y011443D01*
X026274Y011478D01*
X026264Y011513D01*
X026256Y011550D01*
X026350Y007075D02*
X026350Y004595D01*
X027295Y004595D01*
X027295Y007075D01*
X026350Y007075D01*
X027492Y007075D02*
X027492Y004595D01*
X028437Y004595D01*
X028437Y007075D01*
X027492Y007075D01*
X005211Y002160D02*
X005211Y001360D01*
X005209Y001343D01*
X005205Y001326D01*
X005198Y001310D01*
X005188Y001296D01*
X005175Y001283D01*
X005161Y001273D01*
X005145Y001266D01*
X005128Y001262D01*
X005111Y001260D01*
X003411Y001260D01*
X003394Y001262D01*
X003377Y001266D01*
X003361Y001273D01*
X003347Y001283D01*
X003334Y001296D01*
X003324Y001310D01*
X003317Y001326D01*
X003313Y001343D01*
X003311Y001360D01*
X003311Y002160D01*
X003313Y002177D01*
X003317Y002194D01*
X003324Y002210D01*
X003334Y002224D01*
X003347Y002237D01*
X003361Y002247D01*
X003377Y002254D01*
X003394Y002258D01*
X003411Y002260D01*
X005111Y002260D01*
X005128Y002258D01*
X005145Y002254D01*
X005161Y002247D01*
X005175Y002237D01*
X005188Y002224D01*
X005198Y002210D01*
X005205Y002194D01*
X005209Y002177D01*
X005211Y002160D01*
X003220Y003827D02*
X002685Y003827D01*
X002685Y006780D01*
X003220Y006780D01*
X003220Y003827D01*
X002685Y003827D02*
X000464Y003827D01*
X000464Y006780D01*
X002685Y006780D01*
X002898Y011316D02*
X001298Y011316D01*
X001298Y011317D02*
X001267Y011338D01*
X001238Y011361D01*
X001212Y011387D01*
X001187Y011415D01*
X001165Y011445D01*
X001146Y011477D01*
X001130Y011510D01*
X001116Y011545D01*
X001106Y011580D01*
X001098Y011617D01*
X001098Y012416D02*
X001124Y012475D01*
X001153Y012532D01*
X001185Y012587D01*
X001221Y012641D01*
X001259Y012692D01*
X001301Y012740D01*
X001345Y012786D01*
X001393Y012830D01*
X001442Y012870D01*
X001494Y012908D01*
X001548Y012942D01*
X001604Y012973D01*
X001662Y013001D01*
X001722Y013025D01*
X001782Y013046D01*
X001844Y013063D01*
X001907Y013076D01*
X001970Y013085D01*
X002034Y013091D01*
X002098Y013093D01*
X002162Y013091D01*
X002226Y013085D01*
X002289Y013076D01*
X002352Y013063D01*
X002414Y013046D01*
X002474Y013025D01*
X002534Y013001D01*
X002592Y012973D01*
X002648Y012942D01*
X002702Y012908D01*
X002754Y012870D01*
X002803Y012830D01*
X002851Y012786D01*
X002895Y012740D01*
X002937Y012692D01*
X002975Y012641D01*
X003011Y012587D01*
X003043Y012532D01*
X003072Y012475D01*
X003098Y012416D01*
X003098Y011617D02*
X003090Y011580D01*
X003080Y011545D01*
X003066Y011510D01*
X003050Y011477D01*
X003031Y011445D01*
X003009Y011415D01*
X002984Y011387D01*
X002958Y011361D01*
X002929Y011338D01*
X002898Y011317D01*
X003187Y015972D02*
X002387Y015972D01*
X002370Y015974D01*
X002353Y015978D01*
X002337Y015985D01*
X002323Y015995D01*
X002310Y016008D01*
X002300Y016022D01*
X002293Y016038D01*
X002289Y016055D01*
X002287Y016072D01*
X002287Y017772D01*
X002289Y017789D01*
X002293Y017806D01*
X002300Y017822D01*
X002310Y017836D01*
X002323Y017849D01*
X002337Y017859D01*
X002353Y017866D01*
X002370Y017870D01*
X002387Y017872D01*
X003187Y017872D01*
X003204Y017870D01*
X003221Y017866D01*
X003237Y017859D01*
X003251Y017849D01*
X003264Y017836D01*
X003274Y017822D01*
X003281Y017806D01*
X003285Y017789D01*
X003287Y017772D01*
X003287Y016072D01*
X003285Y016055D01*
X003281Y016038D01*
X003274Y016022D01*
X003264Y016008D01*
X003251Y015995D01*
X003237Y015985D01*
X003221Y015978D01*
X003204Y015974D01*
X003187Y015972D01*
X003484Y020772D02*
X002539Y020772D01*
X002539Y023253D01*
X003484Y023253D01*
X003484Y020772D01*
X000827Y023787D02*
X000827Y025387D01*
X000848Y025418D01*
X000871Y025447D01*
X000897Y025473D01*
X000925Y025498D01*
X000955Y025520D01*
X000987Y025539D01*
X001020Y025555D01*
X001055Y025569D01*
X001090Y025579D01*
X001127Y025587D01*
X001927Y025587D02*
X001986Y025561D01*
X002043Y025532D01*
X002098Y025500D01*
X002152Y025464D01*
X002203Y025426D01*
X002251Y025384D01*
X002297Y025340D01*
X002341Y025292D01*
X002381Y025243D01*
X002419Y025191D01*
X002453Y025137D01*
X002484Y025081D01*
X002512Y025023D01*
X002536Y024963D01*
X002557Y024903D01*
X002574Y024841D01*
X002587Y024778D01*
X002596Y024715D01*
X002602Y024651D01*
X002604Y024587D01*
X002602Y024523D01*
X002596Y024459D01*
X002587Y024396D01*
X002574Y024333D01*
X002557Y024271D01*
X002536Y024211D01*
X002512Y024151D01*
X002484Y024093D01*
X002453Y024037D01*
X002419Y023983D01*
X002381Y023931D01*
X002341Y023882D01*
X002297Y023834D01*
X002251Y023790D01*
X002203Y023748D01*
X002152Y023710D01*
X002098Y023674D01*
X002043Y023642D01*
X001986Y023613D01*
X001927Y023587D01*
X001127Y023587D02*
X001090Y023595D01*
X001055Y023605D01*
X001020Y023619D01*
X000987Y023635D01*
X000955Y023654D01*
X000925Y023676D01*
X000897Y023701D01*
X000871Y023727D01*
X000848Y023756D01*
X000827Y023787D01*
X003702Y026562D02*
X003702Y028262D01*
X003704Y028279D01*
X003708Y028296D01*
X003715Y028312D01*
X003725Y028326D01*
X003738Y028339D01*
X003752Y028349D01*
X003768Y028356D01*
X003785Y028360D01*
X003802Y028362D01*
X004602Y028362D01*
X004619Y028360D01*
X004636Y028356D01*
X004652Y028349D01*
X004666Y028339D01*
X004679Y028326D01*
X004689Y028312D01*
X004696Y028296D01*
X004700Y028279D01*
X004702Y028262D01*
X004702Y026562D01*
X004700Y026545D01*
X004696Y026528D01*
X004689Y026512D01*
X004679Y026498D01*
X004666Y026485D01*
X004652Y026475D01*
X004636Y026468D01*
X004619Y026464D01*
X004602Y026462D01*
X003802Y026462D01*
X003785Y026464D01*
X003768Y026468D01*
X003752Y026475D01*
X003738Y026485D01*
X003725Y026498D01*
X003715Y026512D01*
X003708Y026528D01*
X003704Y026545D01*
X003702Y026562D01*
D12*
X002529Y002882D02*
X002529Y002382D01*
X003629Y002382D01*
X003629Y003382D01*
X004029Y003382D01*
X004029Y002832D01*
X004279Y002832D01*
X004029Y002832D02*
X004029Y002382D01*
X003629Y002382D01*
X004161Y002060D02*
X004161Y001760D01*
X004161Y001460D01*
X004361Y001460D02*
X004361Y001760D01*
X004361Y002060D01*
X003629Y003382D02*
X002529Y003382D01*
X002529Y002882D01*
X002279Y002882D01*
X002487Y016822D02*
X002787Y016822D01*
X003087Y016822D01*
X003087Y017022D02*
X002787Y017022D01*
X002487Y017022D01*
X003902Y027312D02*
X004202Y027312D01*
X004502Y027312D01*
X004502Y027512D02*
X004202Y027512D01*
X003902Y027512D01*
X027490Y017257D02*
X027490Y016957D01*
X027490Y016657D01*
X027690Y016657D02*
X027690Y016957D01*
X027690Y017257D01*
D13*
X027690Y016957D02*
X027740Y016957D01*
X027490Y016957D02*
X027440Y016957D01*
X004411Y001760D02*
X004361Y001760D01*
X004161Y001760D02*
X004111Y001760D01*
X002787Y016772D02*
X002787Y016822D01*
X002787Y017022D02*
X002787Y017072D01*
X004202Y027262D02*
X004202Y027312D01*
X004202Y027512D02*
X004202Y027562D01*
D14*
X025446Y000966D03*
X026433Y000966D03*
D15*
X026433Y000967D03*
X025446Y000967D03*
X025446Y001370D03*
D16*
X026433Y000967D03*
D17*
X025446Y000967D03*
D18*
X026433Y000968D03*
D19*
X025446Y000968D03*
X025446Y001368D03*
D20*
X026433Y000969D03*
D21*
X025446Y000969D03*
D22*
X026433Y000970D03*
D23*
X025446Y000970D03*
X025446Y001367D03*
D24*
X025446Y000971D03*
X026433Y000971D03*
D25*
X026433Y000971D03*
X025446Y000971D03*
X025446Y001365D03*
D26*
X026433Y000972D03*
D27*
X025446Y000972D03*
D28*
X025446Y000973D03*
X025446Y001363D03*
X026433Y000973D03*
D29*
X026433Y000974D03*
D30*
X025446Y000974D03*
D31*
X026433Y000975D03*
X026433Y001356D03*
D32*
X025446Y001362D03*
X025446Y000975D03*
D33*
X025446Y000975D03*
X026433Y000975D03*
D34*
X026433Y000976D03*
X025446Y000976D03*
X025446Y001360D03*
D35*
X025446Y001359D03*
X025446Y000977D03*
X026433Y000977D03*
D36*
X026433Y000978D03*
X025446Y000978D03*
D37*
X025446Y000979D03*
X026433Y000979D03*
D38*
X026433Y000979D03*
X025446Y000979D03*
X025446Y001357D03*
D39*
X025446Y000980D03*
X026433Y000980D03*
D40*
X026433Y000981D03*
D41*
X025446Y000981D03*
D42*
X025446Y000982D03*
X025446Y001355D03*
X026433Y000982D03*
D43*
X026433Y000983D03*
X026433Y001348D03*
D44*
X025446Y000983D03*
D45*
X025446Y000983D03*
X025446Y001353D03*
X026433Y000983D03*
D46*
X026433Y000984D03*
D47*
X025446Y000984D03*
D48*
X025446Y000985D03*
X025446Y001351D03*
X026433Y001347D03*
X026433Y000985D03*
D49*
X026433Y000986D03*
X026433Y001345D03*
D50*
X025446Y001350D03*
X025446Y000987D03*
X025446Y000986D03*
D51*
X026433Y000987D03*
D52*
X026433Y000987D03*
D53*
X025446Y000987D03*
D54*
X025446Y000988D03*
X025446Y001348D03*
X026433Y001343D03*
X026433Y000988D03*
D55*
X026433Y000989D03*
X026433Y001342D03*
X025446Y001347D03*
X025446Y000990D03*
X025446Y000989D03*
D56*
X026433Y000990D03*
D57*
X026433Y000991D03*
X025446Y000991D03*
D58*
X025446Y000991D03*
X025446Y001345D03*
X025446Y001346D03*
X026433Y001340D03*
X026433Y000991D03*
D59*
X026433Y000992D03*
X026433Y000993D03*
X026433Y001339D03*
X025446Y001343D03*
X025446Y001343D03*
X025446Y000993D03*
D60*
X025446Y000992D03*
X026433Y001339D03*
D61*
X026433Y001338D03*
X026433Y000994D03*
X025446Y000994D03*
D62*
X026433Y000995D03*
X026433Y001337D03*
D63*
X025446Y001342D03*
X025446Y000995D03*
D64*
X025446Y000995D03*
X025446Y000996D03*
X025446Y000997D03*
X025446Y001339D03*
X025446Y001340D03*
X026433Y001336D03*
X026433Y001335D03*
X026433Y001335D03*
X026433Y000996D03*
X026433Y000995D03*
D65*
X026433Y000997D03*
D66*
X026433Y000998D03*
X026433Y001334D03*
D67*
X025446Y000998D03*
D68*
X025446Y000999D03*
X025446Y000999D03*
X025446Y001000D03*
X025446Y001002D03*
X025446Y001335D03*
X025446Y001335D03*
X025446Y001336D03*
X025446Y001337D03*
X026433Y001333D03*
X026433Y001332D03*
X026433Y001331D03*
X026433Y001330D03*
X026433Y001000D03*
X026433Y000999D03*
X026433Y000999D03*
D69*
X026433Y001001D03*
X026433Y001331D03*
X025446Y001338D03*
X025446Y001001D03*
D70*
X025446Y001003D03*
X025446Y001003D03*
X025446Y001005D03*
X025446Y001006D03*
X025446Y001007D03*
X025446Y001008D03*
X025446Y001009D03*
X025446Y001010D03*
X025446Y001011D03*
X025446Y001012D03*
X025446Y001013D03*
X025446Y001015D03*
X025446Y001015D03*
X025446Y001016D03*
X025446Y001017D03*
X025446Y001019D03*
X025446Y001019D03*
X025446Y001020D03*
X025446Y001022D03*
X025446Y001023D03*
X025446Y001023D03*
X025446Y001025D03*
X025446Y001026D03*
X025446Y001027D03*
X025446Y001028D03*
X025446Y001029D03*
X025446Y001030D03*
X025446Y001031D03*
X025446Y001032D03*
X025446Y001033D03*
X025446Y001035D03*
X025446Y001035D03*
X025446Y001036D03*
X025446Y001037D03*
X025446Y001039D03*
X025446Y001039D03*
X025446Y001040D03*
X025446Y001042D03*
X025446Y001043D03*
X025446Y001043D03*
X025446Y001045D03*
X025446Y001046D03*
X025446Y001047D03*
X025446Y001048D03*
X025446Y001049D03*
X025446Y001050D03*
X025446Y001051D03*
X025446Y001052D03*
X025446Y001053D03*
X025446Y001055D03*
X025446Y001055D03*
X025446Y001056D03*
X025446Y001057D03*
X025446Y001059D03*
X025446Y001059D03*
X025446Y001060D03*
X025446Y001062D03*
X025446Y001063D03*
X025446Y001063D03*
X025446Y001065D03*
X025446Y001066D03*
X025446Y001067D03*
X025446Y001068D03*
X025446Y001069D03*
X025446Y001070D03*
X025446Y001071D03*
X025446Y001072D03*
X025446Y001073D03*
X025446Y001075D03*
X025446Y001075D03*
X025446Y001076D03*
X025446Y001077D03*
X025446Y001079D03*
X025446Y001079D03*
X025446Y001080D03*
X025446Y001082D03*
X025446Y001083D03*
X025446Y001083D03*
X025446Y001085D03*
X025446Y001086D03*
X025446Y001087D03*
X025446Y001088D03*
X025446Y001089D03*
X025446Y001090D03*
X025446Y001091D03*
X025446Y001092D03*
X025446Y001093D03*
X025446Y001095D03*
X025446Y001095D03*
X025446Y001096D03*
X025446Y001097D03*
X025446Y001099D03*
X025446Y001099D03*
X025446Y001100D03*
X025446Y001102D03*
X025446Y001103D03*
X025446Y001103D03*
X025446Y001105D03*
X025446Y001106D03*
X025446Y001107D03*
X025446Y001108D03*
X025446Y001109D03*
X025446Y001110D03*
X025446Y001111D03*
X025446Y001112D03*
X025446Y001113D03*
X025446Y001115D03*
X025446Y001115D03*
X025446Y001116D03*
X025446Y001117D03*
X025446Y001119D03*
X025446Y001119D03*
X025446Y001120D03*
X025446Y001122D03*
X025446Y001123D03*
X025446Y001123D03*
X025446Y001125D03*
X025446Y001126D03*
X025446Y001127D03*
X025446Y001128D03*
X025446Y001129D03*
X025446Y001130D03*
X025446Y001131D03*
X025446Y001132D03*
X025446Y001133D03*
X025446Y001135D03*
X025446Y001135D03*
X025446Y001136D03*
X025446Y001137D03*
X025446Y001139D03*
X025446Y001139D03*
X025446Y001140D03*
X025446Y001142D03*
X025446Y001143D03*
X025446Y001143D03*
X025446Y001145D03*
X025446Y001146D03*
X025446Y001147D03*
X025446Y001148D03*
X025446Y001149D03*
X025446Y001150D03*
X025446Y001151D03*
X025446Y001152D03*
X025446Y001153D03*
X025446Y001155D03*
X025446Y001155D03*
X025446Y001156D03*
X025446Y001157D03*
X025446Y001159D03*
X025446Y001159D03*
X025446Y001160D03*
X025446Y001162D03*
X025446Y001163D03*
X025446Y001163D03*
X025446Y001165D03*
X025446Y001166D03*
X025446Y001167D03*
X025446Y001168D03*
X025446Y001169D03*
X025446Y001170D03*
X025446Y001171D03*
X025446Y001172D03*
X025446Y001173D03*
X025446Y001175D03*
X025446Y001175D03*
X025446Y001176D03*
X025446Y001177D03*
X025446Y001179D03*
X025446Y001179D03*
X025446Y001180D03*
X025446Y001182D03*
X025446Y001183D03*
X025446Y001183D03*
X025446Y001185D03*
X025446Y001186D03*
X025446Y001187D03*
X025446Y001188D03*
X025446Y001189D03*
X025446Y001190D03*
X025446Y001191D03*
X025446Y001192D03*
X025446Y001193D03*
X025446Y001195D03*
X025446Y001195D03*
X025446Y001196D03*
X025446Y001197D03*
X025446Y001199D03*
X025446Y001199D03*
X025446Y001200D03*
X025446Y001202D03*
X025446Y001203D03*
X025446Y001203D03*
X025446Y001205D03*
X025446Y001206D03*
X025446Y001207D03*
X025446Y001208D03*
X025446Y001209D03*
X025446Y001210D03*
X025446Y001211D03*
X025446Y001212D03*
X025446Y001213D03*
X025446Y001215D03*
X025446Y001215D03*
X025446Y001216D03*
X025446Y001217D03*
X025446Y001219D03*
X025446Y001219D03*
X025446Y001220D03*
X025446Y001222D03*
X025446Y001223D03*
X025446Y001223D03*
X025446Y001225D03*
X025446Y001226D03*
X025446Y001227D03*
X025446Y001228D03*
X025446Y001229D03*
X025446Y001230D03*
X025446Y001231D03*
X025446Y001232D03*
X025446Y001233D03*
X025446Y001235D03*
X025446Y001235D03*
X025446Y001236D03*
X025446Y001237D03*
X025446Y001239D03*
X025446Y001239D03*
X025446Y001240D03*
X025446Y001242D03*
X025446Y001243D03*
X025446Y001243D03*
X025446Y001245D03*
X025446Y001246D03*
X025446Y001247D03*
X025446Y001248D03*
X025446Y001249D03*
X025446Y001250D03*
X025446Y001251D03*
X025446Y001252D03*
X025446Y001253D03*
X025446Y001255D03*
X025446Y001255D03*
X025446Y001256D03*
X025446Y001257D03*
X025446Y001259D03*
X025446Y001259D03*
X025446Y001260D03*
X025446Y001262D03*
X025446Y001263D03*
X025446Y001263D03*
X025446Y001265D03*
X025446Y001266D03*
X025446Y001267D03*
X025446Y001268D03*
X025446Y001269D03*
X025446Y001270D03*
X025446Y001271D03*
X025446Y001272D03*
X025446Y001273D03*
X025446Y001275D03*
X025446Y001275D03*
X025446Y001276D03*
X025446Y001277D03*
X025446Y001279D03*
X025446Y001279D03*
X025446Y001280D03*
X025446Y001282D03*
X025446Y001283D03*
X025446Y001283D03*
X025446Y001285D03*
X025446Y001286D03*
X025446Y001287D03*
X025446Y001288D03*
X025446Y001289D03*
X025446Y001290D03*
X025446Y001291D03*
X025446Y001292D03*
X025446Y001293D03*
X025446Y001295D03*
X025446Y001295D03*
X025446Y001296D03*
X025446Y001297D03*
X025446Y001299D03*
X025446Y001299D03*
X025446Y001300D03*
X025446Y001302D03*
X025446Y001303D03*
X025446Y001303D03*
X025446Y001305D03*
X025446Y001306D03*
X025446Y001307D03*
X025446Y001308D03*
X025446Y001309D03*
X025446Y001310D03*
X025446Y001311D03*
X025446Y001312D03*
X025446Y001313D03*
X025446Y001315D03*
X025446Y001315D03*
X025446Y001316D03*
X025446Y001317D03*
X025446Y001319D03*
X025446Y001319D03*
X025446Y001320D03*
X025446Y001322D03*
X025446Y001323D03*
X025446Y001323D03*
X025446Y001325D03*
X025446Y001326D03*
X025446Y001327D03*
X025446Y001328D03*
X025446Y001329D03*
X025446Y001330D03*
X025446Y001331D03*
X025446Y001332D03*
X025446Y001333D03*
X026433Y001329D03*
X026433Y001328D03*
X026433Y001327D03*
X026433Y001326D03*
X026433Y001325D03*
X026433Y001323D03*
X026433Y001323D03*
X026433Y001322D03*
X026433Y001320D03*
X026433Y001319D03*
X026433Y001319D03*
X026433Y001317D03*
X026433Y001316D03*
X026433Y001315D03*
X026433Y001315D03*
X026433Y001313D03*
X026433Y001312D03*
X026433Y001311D03*
X026433Y001310D03*
X026433Y001309D03*
X026433Y001308D03*
X026433Y001307D03*
X026433Y001306D03*
X026433Y001305D03*
X026433Y001303D03*
X026433Y001303D03*
X026433Y001302D03*
X026433Y001300D03*
X026433Y001299D03*
X026433Y001299D03*
X026433Y001297D03*
X026433Y001296D03*
X026433Y001295D03*
X026433Y001295D03*
X026433Y001293D03*
X026433Y001292D03*
X026433Y001291D03*
X026433Y001290D03*
X026433Y001289D03*
X026433Y001288D03*
X026433Y001287D03*
X026433Y001286D03*
X026433Y001285D03*
X026433Y001283D03*
X026433Y001283D03*
X026433Y001282D03*
X026433Y001280D03*
X026433Y001279D03*
X026433Y001279D03*
X026433Y001277D03*
X026433Y001276D03*
X026433Y001275D03*
X026433Y001275D03*
X026433Y001273D03*
X026433Y001272D03*
X026433Y001271D03*
X026433Y001270D03*
X026433Y001269D03*
X026433Y001268D03*
X026433Y001267D03*
X026433Y001266D03*
X026433Y001265D03*
X026433Y001263D03*
X026433Y001263D03*
X026433Y001262D03*
X026433Y001260D03*
X026433Y001259D03*
X026433Y001259D03*
X026433Y001257D03*
X026433Y001256D03*
X026433Y001255D03*
X026433Y001255D03*
X026433Y001253D03*
X026433Y001252D03*
X026433Y001251D03*
X026433Y001250D03*
X026433Y001249D03*
X026433Y001248D03*
X026433Y001247D03*
X026433Y001246D03*
X026433Y001245D03*
X026433Y001243D03*
X026433Y001243D03*
X026433Y001242D03*
X026433Y001240D03*
X026433Y001239D03*
X026433Y001239D03*
X026433Y001237D03*
X026433Y001236D03*
X026433Y001235D03*
X026433Y001235D03*
X026433Y001233D03*
X026433Y001232D03*
X026433Y001231D03*
X026433Y001230D03*
X026433Y001229D03*
X026433Y001228D03*
X026433Y001227D03*
X026433Y001226D03*
X026433Y001225D03*
X026433Y001223D03*
X026433Y001223D03*
X026433Y001222D03*
X026433Y001220D03*
X026433Y001219D03*
X026433Y001219D03*
X026433Y001217D03*
X026433Y001216D03*
X026433Y001215D03*
X026433Y001215D03*
X026433Y001213D03*
X026433Y001212D03*
X026433Y001211D03*
X026433Y001210D03*
X026433Y001209D03*
X026433Y001208D03*
X026433Y001207D03*
X026433Y001206D03*
X026433Y001205D03*
X026433Y001203D03*
X026433Y001203D03*
X026433Y001202D03*
X026433Y001200D03*
X026433Y001199D03*
X026433Y001199D03*
X026433Y001197D03*
X026433Y001196D03*
X026433Y001195D03*
X026433Y001195D03*
X026433Y001193D03*
X026433Y001192D03*
X026433Y001191D03*
X026433Y001190D03*
X026433Y001189D03*
X026433Y001188D03*
X026433Y001187D03*
X026433Y001186D03*
X026433Y001185D03*
X026433Y001183D03*
X026433Y001183D03*
X026433Y001182D03*
X026433Y001180D03*
X026433Y001179D03*
X026433Y001179D03*
X026433Y001177D03*
X026433Y001176D03*
X026433Y001175D03*
X026433Y001175D03*
X026433Y001173D03*
X026433Y001172D03*
X026433Y001171D03*
X026433Y001170D03*
X026433Y001169D03*
X026433Y001168D03*
X026433Y001167D03*
X026433Y001166D03*
X026433Y001165D03*
X026433Y001163D03*
X026433Y001163D03*
X026433Y001162D03*
X026433Y001160D03*
X026433Y001159D03*
X026433Y001159D03*
X026433Y001157D03*
X026433Y001156D03*
X026433Y001155D03*
X026433Y001155D03*
X026433Y001153D03*
X026433Y001152D03*
X026433Y001151D03*
X026433Y001150D03*
X026433Y001149D03*
X026433Y001148D03*
X026433Y001147D03*
X026433Y001146D03*
X026433Y001145D03*
X026433Y001143D03*
X026433Y001143D03*
X026433Y001142D03*
X026433Y001140D03*
X026433Y001139D03*
X026433Y001139D03*
X026433Y001137D03*
X026433Y001136D03*
X026433Y001135D03*
X026433Y001135D03*
X026433Y001133D03*
X026433Y001132D03*
X026433Y001131D03*
X026433Y001130D03*
X026433Y001129D03*
X026433Y001128D03*
X026433Y001127D03*
X026433Y001126D03*
X026433Y001125D03*
X026433Y001123D03*
X026433Y001123D03*
X026433Y001122D03*
X026433Y001120D03*
X026433Y001119D03*
X026433Y001119D03*
X026433Y001117D03*
X026433Y001116D03*
X026433Y001115D03*
X026433Y001115D03*
X026433Y001113D03*
X026433Y001112D03*
X026433Y001111D03*
X026433Y001110D03*
X026433Y001109D03*
X026433Y001108D03*
X026433Y001107D03*
X026433Y001106D03*
X026433Y001105D03*
X026433Y001103D03*
X026433Y001103D03*
X026433Y001102D03*
X026433Y001100D03*
X026433Y001099D03*
X026433Y001099D03*
X026433Y001097D03*
X026433Y001096D03*
X026433Y001095D03*
X026433Y001095D03*
X026433Y001093D03*
X026433Y001092D03*
X026433Y001091D03*
X026433Y001090D03*
X026433Y001089D03*
X026433Y001088D03*
X026433Y001087D03*
X026433Y001086D03*
X026433Y001085D03*
X026433Y001083D03*
X026433Y001083D03*
X026433Y001082D03*
X026433Y001080D03*
X026433Y001079D03*
X026433Y001079D03*
X026433Y001077D03*
X026433Y001076D03*
X026433Y001075D03*
X026433Y001075D03*
X026433Y001073D03*
X026433Y001072D03*
X026433Y001071D03*
X026433Y001070D03*
X026433Y001069D03*
X026433Y001068D03*
X026433Y001067D03*
X026433Y001066D03*
X026433Y001065D03*
X026433Y001063D03*
X026433Y001063D03*
X026433Y001062D03*
X026433Y001060D03*
X026433Y001059D03*
X026433Y001059D03*
X026433Y001057D03*
X026433Y001056D03*
X026433Y001055D03*
X026433Y001055D03*
X026433Y001053D03*
X026433Y001052D03*
X026433Y001051D03*
X026433Y001050D03*
X026433Y001049D03*
X026433Y001048D03*
X026433Y001047D03*
X026433Y001046D03*
X026433Y001045D03*
X026433Y001043D03*
X026433Y001043D03*
X026433Y001042D03*
X026433Y001040D03*
X026433Y001039D03*
X026433Y001039D03*
X026433Y001037D03*
X026433Y001036D03*
X026433Y001035D03*
X026433Y001035D03*
X026433Y001033D03*
X026433Y001032D03*
X026433Y001031D03*
X026433Y001030D03*
X026433Y001029D03*
X026433Y001028D03*
X026433Y001027D03*
X026433Y001026D03*
X026433Y001025D03*
X026433Y001023D03*
X026433Y001023D03*
X026433Y001022D03*
X026433Y001020D03*
X026433Y001019D03*
X026433Y001019D03*
X026433Y001017D03*
X026433Y001016D03*
X026433Y001015D03*
X026433Y001015D03*
X026433Y001013D03*
X026433Y001012D03*
X026433Y001011D03*
X026433Y001010D03*
X026433Y001009D03*
X026433Y001008D03*
X026433Y001007D03*
X026433Y001006D03*
X026433Y001005D03*
X026433Y001003D03*
X026433Y001003D03*
X026433Y001002D03*
D71*
X026433Y001004D03*
X026433Y001007D03*
X026433Y001011D03*
X026433Y001014D03*
X026433Y001018D03*
X026433Y001021D03*
X026433Y001024D03*
X026433Y001027D03*
X026433Y001031D03*
X026433Y001034D03*
X026433Y001038D03*
X026433Y001041D03*
X026433Y001044D03*
X026433Y001047D03*
X026433Y001051D03*
X026433Y001054D03*
X026433Y001058D03*
X026433Y001061D03*
X026433Y001064D03*
X026433Y001067D03*
X026433Y001071D03*
X026433Y001074D03*
X026433Y001078D03*
X026433Y001081D03*
X026433Y001084D03*
X026433Y001087D03*
X026433Y001091D03*
X026433Y001094D03*
X026433Y001098D03*
X026433Y001101D03*
X026433Y001104D03*
X026433Y001107D03*
X026433Y001111D03*
X026433Y001114D03*
X026433Y001118D03*
X026433Y001121D03*
X026433Y001124D03*
X026433Y001127D03*
X026433Y001131D03*
X026433Y001134D03*
X026433Y001138D03*
X026433Y001141D03*
X026433Y001144D03*
X026433Y001147D03*
X026433Y001151D03*
X026433Y001154D03*
X026433Y001158D03*
X026433Y001161D03*
X026433Y001164D03*
X026433Y001167D03*
X026433Y001171D03*
X026433Y001174D03*
X026433Y001178D03*
X026433Y001181D03*
X026433Y001184D03*
X026433Y001187D03*
X026433Y001191D03*
X026433Y001194D03*
X026433Y001198D03*
X026433Y001201D03*
X026433Y001204D03*
X026433Y001207D03*
X026433Y001211D03*
X026433Y001214D03*
X026433Y001218D03*
X026433Y001221D03*
X026433Y001224D03*
X026433Y001227D03*
X026433Y001231D03*
X026433Y001234D03*
X026433Y001238D03*
X026433Y001241D03*
X026433Y001244D03*
X026433Y001247D03*
X026433Y001251D03*
X026433Y001254D03*
X026433Y001258D03*
X026433Y001261D03*
X026433Y001264D03*
X026433Y001267D03*
X026433Y001271D03*
X026433Y001274D03*
X026433Y001278D03*
X026433Y001281D03*
X026433Y001284D03*
X026433Y001287D03*
X026433Y001291D03*
X026433Y001294D03*
X026433Y001298D03*
X026433Y001301D03*
X026433Y001304D03*
X026433Y001307D03*
X026433Y001311D03*
X026433Y001314D03*
X026433Y001318D03*
X026433Y001321D03*
X026433Y001324D03*
X026433Y001327D03*
X025446Y001327D03*
X025446Y001324D03*
X025446Y001321D03*
X025446Y001318D03*
X025446Y001314D03*
X025446Y001311D03*
X025446Y001307D03*
X025446Y001304D03*
X025446Y001301D03*
X025446Y001298D03*
X025446Y001294D03*
X025446Y001291D03*
X025446Y001287D03*
X025446Y001284D03*
X025446Y001281D03*
X025446Y001278D03*
X025446Y001274D03*
X025446Y001271D03*
X025446Y001267D03*
X025446Y001264D03*
X025446Y001261D03*
X025446Y001258D03*
X025446Y001254D03*
X025446Y001251D03*
X025446Y001247D03*
X025446Y001244D03*
X025446Y001241D03*
X025446Y001238D03*
X025446Y001234D03*
X025446Y001231D03*
X025446Y001227D03*
X025446Y001224D03*
X025446Y001221D03*
X025446Y001218D03*
X025446Y001214D03*
X025446Y001211D03*
X025446Y001207D03*
X025446Y001204D03*
X025446Y001201D03*
X025446Y001198D03*
X025446Y001194D03*
X025446Y001191D03*
X025446Y001187D03*
X025446Y001184D03*
X025446Y001181D03*
X025446Y001178D03*
X025446Y001174D03*
X025446Y001171D03*
X025446Y001167D03*
X025446Y001164D03*
X025446Y001161D03*
X025446Y001158D03*
X025446Y001154D03*
X025446Y001151D03*
X025446Y001147D03*
X025446Y001144D03*
X025446Y001141D03*
X025446Y001138D03*
X025446Y001134D03*
X025446Y001131D03*
X025446Y001127D03*
X025446Y001124D03*
X025446Y001121D03*
X025446Y001118D03*
X025446Y001114D03*
X025446Y001111D03*
X025446Y001107D03*
X025446Y001104D03*
X025446Y001101D03*
X025446Y001098D03*
X025446Y001094D03*
X025446Y001091D03*
X025446Y001087D03*
X025446Y001084D03*
X025446Y001081D03*
X025446Y001078D03*
X025446Y001074D03*
X025446Y001071D03*
X025446Y001067D03*
X025446Y001064D03*
X025446Y001061D03*
X025446Y001058D03*
X025446Y001054D03*
X025446Y001051D03*
X025446Y001047D03*
X025446Y001044D03*
X025446Y001041D03*
X025446Y001038D03*
X025446Y001034D03*
X025446Y001031D03*
X025446Y001027D03*
X025446Y001024D03*
X025446Y001021D03*
X025446Y001018D03*
X025446Y001014D03*
X025446Y001011D03*
X025446Y001007D03*
X025446Y001004D03*
X025446Y001331D03*
X025446Y001334D03*
D72*
X025446Y001339D03*
D73*
X026433Y001341D03*
D74*
X025446Y001341D03*
D75*
X026433Y001343D03*
D76*
X026433Y001344D03*
D77*
X025446Y001344D03*
D78*
X026433Y001346D03*
D79*
X026433Y001347D03*
D80*
X025446Y001347D03*
D81*
X026433Y001349D03*
D82*
X025446Y001349D03*
D83*
X026433Y001350D03*
D84*
X026433Y001351D03*
D85*
X025446Y001351D03*
D86*
X025446Y001356D03*
X026433Y001351D03*
D87*
X026433Y001352D03*
D88*
X025446Y001352D03*
D89*
X026433Y001353D03*
D90*
X026433Y001354D03*
D91*
X025446Y001354D03*
D92*
X026433Y001355D03*
D93*
X026433Y001355D03*
D94*
X025446Y001355D03*
D95*
X026433Y001357D03*
D96*
X026433Y001358D03*
D97*
X025446Y001358D03*
D98*
X026433Y001359D03*
D99*
X025446Y001359D03*
D100*
X026433Y001359D03*
D101*
X026433Y001360D03*
D102*
X026433Y001361D03*
D103*
X025446Y001361D03*
D104*
X026433Y001362D03*
D105*
X026433Y001363D03*
D106*
X025446Y001363D03*
D107*
X026433Y001363D03*
D108*
X026433Y001364D03*
D109*
X025446Y001364D03*
D110*
X026433Y001365D03*
D111*
X026431Y001366D03*
D112*
X025446Y001366D03*
D113*
X026431Y001367D03*
X026431Y001368D03*
X026431Y001369D03*
D114*
X026431Y001367D03*
D115*
X025446Y001367D03*
D116*
X025446Y001369D03*
D117*
X026431Y001370D03*
X026431Y001371D03*
D118*
X026431Y001371D03*
D119*
X025446Y001371D03*
D120*
X025440Y001371D03*
X025440Y001372D03*
X025440Y001373D03*
X026445Y001465D03*
X026445Y001466D03*
X026445Y001467D03*
D121*
X026432Y001375D03*
X026432Y001373D03*
X026432Y001372D03*
D122*
X026432Y001374D03*
D123*
X025440Y001374D03*
D124*
X025439Y001375D03*
X025439Y001375D03*
X025439Y001376D03*
X025439Y001377D03*
X026446Y001468D03*
X026446Y001469D03*
X026446Y001470D03*
D125*
X026432Y001377D03*
X026432Y001376D03*
X026432Y001375D03*
D126*
X026433Y001378D03*
D127*
X026446Y001471D03*
X025439Y001378D03*
D128*
X026433Y001379D03*
X026433Y001379D03*
D129*
X026446Y001471D03*
X026446Y001472D03*
X025439Y001380D03*
X025439Y001379D03*
X025439Y001379D03*
D130*
X026433Y001380D03*
X026433Y001382D03*
X026433Y001383D03*
D131*
X026433Y001381D03*
D132*
X026447Y001474D03*
X025439Y001381D03*
D133*
X025439Y001382D03*
X025439Y001383D03*
X025439Y001383D03*
X026447Y001473D03*
X026447Y001475D03*
D134*
X026433Y001385D03*
X026433Y001383D03*
D135*
X026433Y001384D03*
D136*
X026447Y001478D03*
X025438Y001387D03*
X025438Y001384D03*
D137*
X025438Y001385D03*
X025438Y001386D03*
X025438Y001387D03*
X026447Y001475D03*
X026447Y001476D03*
X026447Y001477D03*
D138*
X026434Y001388D03*
X026434Y001387D03*
X026434Y001386D03*
D139*
X026434Y001387D03*
D140*
X025438Y001388D03*
X025438Y001389D03*
X025438Y001390D03*
D141*
X026434Y001390D03*
X026434Y001389D03*
D142*
X026434Y001391D03*
D143*
X025438Y001391D03*
D144*
X026435Y001392D03*
X026435Y001391D03*
X026435Y001393D03*
D145*
X026448Y001482D03*
X026448Y001483D03*
X026448Y001483D03*
X025437Y001393D03*
X025437Y001392D03*
X025437Y001391D03*
D146*
X026435Y001394D03*
D147*
X026448Y001481D03*
X025437Y001394D03*
D148*
X026435Y001395D03*
X026435Y001395D03*
X026435Y001396D03*
D149*
X026448Y001485D03*
X026448Y001486D03*
X025437Y001397D03*
X025437Y001396D03*
X025437Y001395D03*
X025437Y001395D03*
D150*
X026435Y001397D03*
X026435Y001399D03*
D151*
X026435Y001398D03*
D152*
X026449Y001487D03*
X025437Y001398D03*
D153*
X025437Y001399D03*
X025437Y001399D03*
X025437Y001400D03*
X026449Y001487D03*
X026449Y001488D03*
D154*
X026436Y001402D03*
X026436Y001400D03*
X026436Y001399D03*
D155*
X026436Y001401D03*
D156*
X025436Y001401D03*
D157*
X025436Y001402D03*
X025436Y001403D03*
X025436Y001403D03*
D158*
X026436Y001403D03*
X026436Y001403D03*
D159*
X026436Y001404D03*
D160*
X026449Y001494D03*
X025436Y001407D03*
X025436Y001404D03*
D161*
X026437Y001405D03*
X026437Y001406D03*
X026437Y001407D03*
D162*
X026449Y001492D03*
X026449Y001493D03*
X025436Y001407D03*
X025436Y001406D03*
X025436Y001405D03*
D163*
X026437Y001407D03*
D164*
X026437Y001408D03*
X026437Y001409D03*
X026437Y001410D03*
D165*
X026450Y001495D03*
X026450Y001495D03*
X026450Y001496D03*
X026450Y001497D03*
X025435Y001410D03*
X025435Y001409D03*
X025435Y001408D03*
D166*
X026437Y001411D03*
D167*
X025435Y001411D03*
D168*
X026437Y001412D03*
X026437Y001411D03*
D169*
X026450Y001499D03*
X026450Y001499D03*
X025435Y001413D03*
X025435Y001412D03*
X025435Y001411D03*
D170*
X026438Y001413D03*
X026438Y001415D03*
X026438Y001415D03*
D171*
X026438Y001414D03*
D172*
X026450Y001498D03*
X025435Y001414D03*
D173*
X025435Y001415D03*
X025435Y001415D03*
X025435Y001416D03*
X025435Y001417D03*
D174*
X026438Y001417D03*
X026438Y001416D03*
D175*
X026438Y001418D03*
D176*
X026451Y001504D03*
X025434Y001418D03*
D177*
X026439Y001419D03*
X026439Y001419D03*
X026439Y001420D03*
D178*
X026451Y001503D03*
X026451Y001503D03*
X026451Y001505D03*
X025434Y001420D03*
X025434Y001419D03*
X025434Y001419D03*
D179*
X026439Y001421D03*
D180*
X026451Y001507D03*
X025434Y001421D03*
D181*
X026439Y001422D03*
X026439Y001423D03*
X026439Y001423D03*
D182*
X026451Y001506D03*
X026451Y001507D03*
X025434Y001423D03*
X025434Y001423D03*
X025434Y001422D03*
D183*
X026439Y001424D03*
D184*
X026452Y001511D03*
X025433Y001427D03*
X025433Y001424D03*
D185*
X026439Y001425D03*
X026439Y001426D03*
D186*
X026452Y001508D03*
X026452Y001509D03*
X026452Y001510D03*
X025433Y001427D03*
X025433Y001426D03*
X025433Y001425D03*
D187*
X026440Y001427D03*
X026440Y001428D03*
X026440Y001429D03*
D188*
X026440Y001427D03*
D189*
X025433Y001428D03*
X025433Y001429D03*
X025433Y001430D03*
D190*
X026440Y001431D03*
X026440Y001430D03*
D191*
X026440Y001431D03*
D192*
X025433Y001431D03*
D193*
X025433Y001431D03*
X025433Y001432D03*
X025433Y001433D03*
X026453Y001515D03*
X026453Y001515D03*
D194*
X026441Y001433D03*
X026441Y001432D03*
D195*
X026441Y001434D03*
D196*
X026453Y001514D03*
X025433Y001434D03*
D197*
X026441Y001435D03*
X026441Y001435D03*
X026441Y001436D03*
X026441Y001437D03*
D198*
X026453Y001516D03*
X026453Y001517D03*
X026453Y001519D03*
X025432Y001437D03*
X025432Y001436D03*
X025432Y001435D03*
X025432Y001435D03*
D199*
X026441Y001438D03*
D200*
X026453Y001521D03*
X025432Y001438D03*
D201*
X026441Y001439D03*
X026441Y001439D03*
D202*
X026453Y001519D03*
X026453Y001520D03*
X025432Y001440D03*
X025432Y001439D03*
X025432Y001439D03*
D203*
X026442Y001440D03*
X026442Y001442D03*
X026442Y001443D03*
D204*
X026442Y001441D03*
D205*
X026454Y001524D03*
X025431Y001441D03*
D206*
X025431Y001442D03*
X025431Y001443D03*
X025431Y001443D03*
X026454Y001522D03*
X026454Y001523D03*
X026454Y001523D03*
D207*
X026442Y001445D03*
X026442Y001443D03*
D208*
X026442Y001444D03*
D209*
X025431Y001444D03*
X025431Y001447D03*
D210*
X025431Y001447D03*
X025431Y001446D03*
X025431Y001445D03*
X026454Y001525D03*
X026454Y001526D03*
X026454Y001527D03*
D211*
X026443Y001447D03*
X026443Y001446D03*
D212*
X026443Y001447D03*
D213*
X026443Y001448D03*
X026443Y001449D03*
X026443Y001450D03*
D214*
X026455Y001528D03*
X026455Y001529D03*
X025431Y001450D03*
X025431Y001449D03*
X025431Y001448D03*
D215*
X026443Y001451D03*
D216*
X026455Y001527D03*
X025431Y001451D03*
D217*
X026443Y001452D03*
X026443Y001451D03*
X026443Y001453D03*
D218*
X026455Y001530D03*
X026455Y001531D03*
X026455Y001532D03*
X025430Y001453D03*
X025430Y001452D03*
X025430Y001451D03*
D219*
X026444Y001454D03*
D220*
X026455Y001531D03*
X025430Y001454D03*
D221*
X026444Y001455D03*
X026444Y001455D03*
X026444Y001456D03*
D222*
X026455Y001533D03*
X026455Y001535D03*
X025430Y001457D03*
X025430Y001456D03*
X025430Y001455D03*
X025430Y001455D03*
D223*
X026444Y001457D03*
X026444Y001459D03*
D224*
X026444Y001458D03*
D225*
X026456Y001538D03*
X025429Y001458D03*
D226*
X025429Y001459D03*
X025429Y001459D03*
X025429Y001460D03*
X026456Y001535D03*
X026456Y001536D03*
X026456Y001537D03*
D227*
X026445Y001460D03*
X026445Y001459D03*
D228*
X026445Y001461D03*
D229*
X025429Y001461D03*
D230*
X026445Y001462D03*
X026445Y001463D03*
X026445Y001463D03*
D231*
X026456Y001539D03*
X026456Y001539D03*
X026456Y001540D03*
X025429Y001463D03*
X025429Y001463D03*
X025429Y001462D03*
D232*
X026445Y001464D03*
D233*
X026457Y001541D03*
X025429Y001467D03*
X025429Y001464D03*
D234*
X025429Y001465D03*
X025429Y001466D03*
X025429Y001467D03*
X026457Y001542D03*
X026457Y001543D03*
X026457Y001543D03*
D235*
X026446Y001467D03*
D236*
X026457Y001545D03*
X026457Y001546D03*
X025428Y001470D03*
X025428Y001469D03*
X025428Y001468D03*
D237*
X025428Y001471D03*
X026457Y001544D03*
D238*
X025428Y001473D03*
X025428Y001472D03*
X025428Y001471D03*
D239*
X025428Y001474D03*
D240*
X025427Y001475D03*
X025427Y001475D03*
X025427Y001476D03*
X025427Y001477D03*
X026458Y001549D03*
X026458Y001550D03*
X026458Y001551D03*
D241*
X026458Y001554D03*
X025427Y001478D03*
D242*
X026447Y001479D03*
X026447Y001479D03*
X026447Y001480D03*
D243*
X026458Y001552D03*
X026458Y001553D03*
X025427Y001480D03*
X025427Y001479D03*
X025427Y001479D03*
D244*
X025427Y001481D03*
D245*
X025427Y001482D03*
X025427Y001483D03*
X025427Y001483D03*
X026459Y001555D03*
X026459Y001555D03*
X026459Y001556D03*
X026459Y001557D03*
D246*
X026448Y001484D03*
D247*
X025426Y001484D03*
X025426Y001487D03*
D248*
X025426Y001487D03*
X025426Y001486D03*
X025426Y001485D03*
D249*
X025426Y001488D03*
X025426Y001489D03*
X025426Y001490D03*
X026459Y001560D03*
X026459Y001562D03*
D250*
X026449Y001491D03*
X026449Y001490D03*
X026449Y001489D03*
D251*
X026449Y001491D03*
D252*
X026459Y001561D03*
X025426Y001491D03*
D253*
X025425Y001491D03*
X025425Y001492D03*
X025425Y001493D03*
X026460Y001563D03*
X026460Y001563D03*
X026460Y001565D03*
D254*
X026460Y001564D03*
X025425Y001494D03*
D255*
X025425Y001495D03*
X025425Y001495D03*
X025425Y001496D03*
X025425Y001497D03*
X026460Y001566D03*
X026460Y001567D03*
D256*
X025425Y001498D03*
D257*
X025425Y001499D03*
X025425Y001499D03*
X025425Y001500D03*
D258*
X026451Y001500D03*
X026451Y001502D03*
D259*
X026451Y001501D03*
D260*
X025424Y001501D03*
D261*
X025424Y001502D03*
X025424Y001503D03*
X025424Y001503D03*
X026461Y001571D03*
X026461Y001572D03*
X026461Y001573D03*
D262*
X026461Y001574D03*
X025424Y001507D03*
X025424Y001504D03*
D263*
X025424Y001505D03*
X025424Y001506D03*
X025424Y001507D03*
X026461Y001575D03*
X026461Y001575D03*
D264*
X026462Y001576D03*
X026462Y001577D03*
X026462Y001579D03*
X025423Y001510D03*
X025423Y001509D03*
X025423Y001508D03*
D265*
X025423Y001511D03*
X026462Y001578D03*
D266*
X026452Y001513D03*
X026452Y001512D03*
X026452Y001511D03*
D267*
X025423Y001512D03*
X025423Y001511D03*
X025423Y001513D03*
D268*
X025423Y001514D03*
D269*
X025423Y001515D03*
X025423Y001515D03*
X025423Y001516D03*
X025423Y001517D03*
X026463Y001582D03*
X026463Y001583D03*
X026463Y001583D03*
D270*
X026453Y001518D03*
D271*
X025422Y001518D03*
D272*
X025422Y001519D03*
X025422Y001519D03*
X025422Y001520D03*
X026463Y001585D03*
X026463Y001586D03*
X026463Y001587D03*
D273*
X026463Y001587D03*
X025422Y001521D03*
D274*
X025422Y001522D03*
X025422Y001523D03*
X025422Y001523D03*
X026463Y001588D03*
X026463Y001589D03*
D275*
X026464Y001591D03*
X025421Y001527D03*
X025421Y001524D03*
D276*
X025421Y001525D03*
X025421Y001526D03*
X025421Y001527D03*
X026464Y001590D03*
X026464Y001591D03*
X026464Y001592D03*
D277*
X026464Y001593D03*
X026464Y001595D03*
X025421Y001530D03*
X025421Y001529D03*
X025421Y001528D03*
D278*
X025421Y001531D03*
X026464Y001594D03*
D279*
X026465Y001595D03*
X026465Y001596D03*
X026465Y001597D03*
X025421Y001533D03*
X025421Y001532D03*
X025421Y001531D03*
D280*
X026455Y001534D03*
D281*
X026465Y001598D03*
X025421Y001534D03*
D282*
X025420Y001535D03*
X025420Y001535D03*
X025420Y001536D03*
X025420Y001537D03*
X026465Y001599D03*
X026465Y001599D03*
X026465Y001600D03*
D283*
X026465Y001601D03*
X025420Y001538D03*
D284*
X025420Y001539D03*
X025420Y001539D03*
X025420Y001540D03*
X026465Y001602D03*
X026465Y001603D03*
D285*
X026466Y001604D03*
X025419Y001541D03*
D286*
X025419Y001542D03*
X025419Y001543D03*
X025419Y001543D03*
X026466Y001603D03*
X026466Y001605D03*
X026466Y001606D03*
D287*
X026466Y001607D03*
X025419Y001547D03*
X025419Y001544D03*
D288*
X025419Y001545D03*
X025419Y001546D03*
X025419Y001547D03*
X026466Y001607D03*
X026466Y001608D03*
D289*
X026457Y001548D03*
X026457Y001547D03*
D290*
X026457Y001547D03*
D291*
X026467Y001609D03*
X026467Y001610D03*
X026467Y001611D03*
X025419Y001550D03*
X025419Y001549D03*
X025419Y001548D03*
D292*
X026458Y001551D03*
D293*
X026467Y001611D03*
X025419Y001551D03*
D294*
X025418Y001551D03*
X025418Y001552D03*
X025418Y001553D03*
X026467Y001612D03*
X026467Y001613D03*
D295*
X026467Y001614D03*
X025418Y001554D03*
D296*
X025418Y001555D03*
X025418Y001555D03*
X025418Y001556D03*
X025418Y001557D03*
D297*
X026459Y001558D03*
D298*
X026468Y001618D03*
X025417Y001558D03*
D299*
X026459Y001559D03*
X026459Y001559D03*
D300*
X026468Y001617D03*
X026468Y001619D03*
X026468Y001619D03*
X025417Y001560D03*
X025417Y001559D03*
X025417Y001559D03*
D301*
X025417Y001561D03*
X026468Y001621D03*
D302*
X026468Y001622D03*
X026468Y001620D03*
X025417Y001563D03*
X025417Y001563D03*
X025417Y001562D03*
D303*
X025417Y001564D03*
X025417Y001567D03*
X026469Y001624D03*
D304*
X026469Y001623D03*
X026469Y001623D03*
X026469Y001625D03*
X025417Y001567D03*
X025417Y001566D03*
X025417Y001565D03*
D305*
X026460Y001567D03*
D306*
X026461Y001568D03*
X026461Y001569D03*
X026461Y001570D03*
D307*
X025416Y001570D03*
X025416Y001569D03*
X025416Y001568D03*
D308*
X026461Y001571D03*
D309*
X025416Y001571D03*
D310*
X025416Y001571D03*
X025416Y001572D03*
X025416Y001573D03*
X026469Y001628D03*
X026469Y001629D03*
X026469Y001630D03*
D311*
X025416Y001574D03*
D312*
X025415Y001575D03*
X025415Y001575D03*
X025415Y001576D03*
X025415Y001577D03*
X026470Y001631D03*
X026470Y001632D03*
X026470Y001633D03*
D313*
X026470Y001634D03*
X025415Y001578D03*
D314*
X025415Y001579D03*
X025415Y001579D03*
X025415Y001580D03*
X026470Y001635D03*
X026470Y001635D03*
D315*
X026462Y001580D03*
X026462Y001579D03*
D316*
X026462Y001581D03*
D317*
X025415Y001581D03*
D318*
X025415Y001582D03*
X025415Y001583D03*
X025415Y001583D03*
D319*
X026463Y001584D03*
D320*
X026471Y001641D03*
X025414Y001587D03*
X025414Y001584D03*
D321*
X025414Y001585D03*
X025414Y001586D03*
X025414Y001587D03*
X026471Y001639D03*
X026471Y001640D03*
D322*
X026471Y001642D03*
X026471Y001643D03*
X026471Y001643D03*
X025414Y001590D03*
X025414Y001589D03*
X025414Y001588D03*
D323*
X025414Y001591D03*
D324*
X025413Y001591D03*
X025413Y001592D03*
X025413Y001593D03*
X026472Y001645D03*
X026472Y001646D03*
X026472Y001647D03*
D325*
X026472Y001644D03*
X025413Y001594D03*
D326*
X025413Y001595D03*
X025413Y001595D03*
X025413Y001596D03*
X025413Y001597D03*
D327*
X025413Y001598D03*
X026473Y001651D03*
D328*
X026473Y001651D03*
X026473Y001652D03*
X026473Y001650D03*
X025413Y001600D03*
X025413Y001599D03*
X025413Y001599D03*
D329*
X025412Y001601D03*
X026473Y001654D03*
D330*
X026473Y001655D03*
X026473Y001653D03*
X025412Y001603D03*
X025412Y001603D03*
X025412Y001602D03*
D331*
X025412Y001604D03*
X025412Y001607D03*
D332*
X025412Y001607D03*
X025412Y001606D03*
X025412Y001605D03*
X026473Y001655D03*
X026473Y001656D03*
X026473Y001657D03*
D333*
X026474Y001659D03*
X026474Y001659D03*
X026474Y001660D03*
X025411Y001610D03*
X025411Y001609D03*
X025411Y001608D03*
D334*
X025411Y001611D03*
X026474Y001658D03*
D335*
X026474Y001662D03*
X026474Y001663D03*
X025411Y001613D03*
X025411Y001612D03*
X025411Y001611D03*
D336*
X025411Y001614D03*
X026474Y001661D03*
D337*
X026467Y001616D03*
X026467Y001615D03*
X026467Y001615D03*
D338*
X026475Y001663D03*
X026475Y001665D03*
X026475Y001666D03*
X025411Y001617D03*
X025411Y001616D03*
X025411Y001615D03*
X025411Y001615D03*
D339*
X025410Y001618D03*
X026475Y001667D03*
D340*
X026475Y001667D03*
X026475Y001668D03*
X025410Y001620D03*
X025410Y001619D03*
X025410Y001619D03*
D341*
X025410Y001621D03*
X026475Y001671D03*
D342*
X026475Y001670D03*
X026475Y001669D03*
X025410Y001623D03*
X025410Y001623D03*
X025410Y001622D03*
D343*
X025409Y001624D03*
X025409Y001627D03*
X026476Y001674D03*
D344*
X026476Y001673D03*
X026476Y001672D03*
X026476Y001671D03*
X025409Y001627D03*
X025409Y001626D03*
X025409Y001625D03*
D345*
X026469Y001627D03*
X026469Y001626D03*
D346*
X026469Y001627D03*
D347*
X026476Y001675D03*
X026476Y001675D03*
X026476Y001676D03*
X025409Y001630D03*
X025409Y001629D03*
X025409Y001628D03*
D348*
X026470Y001631D03*
D349*
X025409Y001631D03*
D350*
X025409Y001631D03*
X025409Y001632D03*
X025409Y001633D03*
X026477Y001677D03*
X026477Y001679D03*
X026477Y001679D03*
D351*
X026477Y001678D03*
X025409Y001634D03*
D352*
X025408Y001635D03*
X025408Y001635D03*
X025408Y001636D03*
X025408Y001637D03*
X026477Y001680D03*
X026477Y001682D03*
D353*
X026471Y001639D03*
X026471Y001637D03*
X026471Y001636D03*
D354*
X026471Y001638D03*
D355*
X025408Y001638D03*
D356*
X025408Y001639D03*
X025408Y001639D03*
X025408Y001640D03*
D357*
X025407Y001641D03*
X026478Y001687D03*
D358*
X026478Y001687D03*
X026478Y001686D03*
X026478Y001685D03*
X025407Y001643D03*
X025407Y001643D03*
X025407Y001642D03*
D359*
X025407Y001644D03*
X025407Y001647D03*
D360*
X025407Y001647D03*
X025407Y001646D03*
X025407Y001645D03*
X026478Y001688D03*
X026478Y001689D03*
X026478Y001690D03*
D361*
X026472Y001647D03*
D362*
X026472Y001648D03*
X026472Y001649D03*
D363*
X026479Y001691D03*
X026479Y001692D03*
X026479Y001693D03*
X025407Y001650D03*
X025407Y001649D03*
X025407Y001648D03*
D364*
X025407Y001651D03*
X026479Y001691D03*
D365*
X025406Y001653D03*
X025406Y001652D03*
X025406Y001651D03*
D366*
X025406Y001654D03*
D367*
X025406Y001655D03*
X025406Y001655D03*
X025406Y001656D03*
X025406Y001657D03*
X026479Y001696D03*
X026479Y001697D03*
D368*
X026480Y001701D03*
X025405Y001658D03*
D369*
X025405Y001659D03*
X025405Y001659D03*
X025405Y001660D03*
X026480Y001699D03*
X026480Y001699D03*
X026480Y001700D03*
D370*
X025405Y001661D03*
D371*
X025405Y001662D03*
X025405Y001663D03*
X025405Y001663D03*
X026480Y001702D03*
X026480Y001703D03*
X026480Y001703D03*
D372*
X026475Y001664D03*
D373*
X025405Y001664D03*
X025405Y001667D03*
D374*
X025405Y001667D03*
X025405Y001666D03*
X025405Y001665D03*
D375*
X025404Y001668D03*
X025404Y001669D03*
X025404Y001670D03*
X026481Y001708D03*
X026481Y001709D03*
D376*
X026481Y001707D03*
X025404Y001671D03*
D377*
X025404Y001671D03*
X025404Y001672D03*
X025404Y001673D03*
X026481Y001710D03*
X026481Y001711D03*
D378*
X026481Y001711D03*
X025404Y001674D03*
D379*
X025403Y001675D03*
X025403Y001675D03*
X025403Y001676D03*
X025403Y001677D03*
X026482Y001712D03*
X026482Y001713D03*
X026482Y001715D03*
D380*
X025403Y001678D03*
D381*
X025403Y001679D03*
X025403Y001679D03*
X025403Y001680D03*
D382*
X026477Y001681D03*
D383*
X026483Y001718D03*
X025403Y001681D03*
D384*
X025403Y001682D03*
X025403Y001683D03*
X025403Y001683D03*
X026483Y001719D03*
X026483Y001719D03*
X026483Y001720D03*
D385*
X026477Y001683D03*
X026477Y001683D03*
D386*
X026477Y001684D03*
D387*
X026483Y001721D03*
X025402Y001687D03*
X025402Y001684D03*
D388*
X025402Y001685D03*
X025402Y001686D03*
X025402Y001687D03*
X026483Y001722D03*
X026483Y001723D03*
D389*
X026483Y001723D03*
X026483Y001725D03*
X025402Y001690D03*
X025402Y001689D03*
X025402Y001688D03*
D390*
X025402Y001691D03*
X026483Y001724D03*
D391*
X026484Y001726D03*
X026484Y001727D03*
X026484Y001728D03*
X025401Y001693D03*
X025401Y001692D03*
X025401Y001691D03*
D392*
X026479Y001694D03*
D393*
X026484Y001727D03*
X025401Y001694D03*
D394*
X026479Y001695D03*
X026479Y001695D03*
D395*
X026484Y001729D03*
X026484Y001730D03*
X025401Y001697D03*
X025401Y001696D03*
X025401Y001695D03*
X025401Y001695D03*
D396*
X026479Y001698D03*
D397*
X026485Y001734D03*
X025401Y001698D03*
D398*
X025401Y001699D03*
X025401Y001699D03*
X025401Y001700D03*
X026485Y001731D03*
X026485Y001732D03*
X026485Y001733D03*
D399*
X025400Y001701D03*
D400*
X025400Y001702D03*
X025400Y001703D03*
X025400Y001703D03*
X026485Y001735D03*
X026485Y001735D03*
X026485Y001736D03*
D401*
X026481Y001704D03*
D402*
X026485Y001738D03*
X025400Y001707D03*
X025400Y001704D03*
D403*
X026481Y001705D03*
X026481Y001706D03*
X026481Y001707D03*
D404*
X026485Y001737D03*
X026485Y001739D03*
X025400Y001707D03*
X025400Y001706D03*
X025400Y001705D03*
D405*
X025399Y001708D03*
X025399Y001709D03*
X025399Y001710D03*
X026486Y001739D03*
X026486Y001740D03*
X026486Y001742D03*
D406*
X026486Y001741D03*
X025399Y001711D03*
D407*
X025399Y001711D03*
X025399Y001712D03*
X025399Y001713D03*
X026486Y001743D03*
X026486Y001743D03*
D408*
X026482Y001714D03*
D409*
X026486Y001744D03*
X025399Y001714D03*
D410*
X025399Y001715D03*
X025399Y001715D03*
X025399Y001716D03*
X025399Y001717D03*
X026487Y001745D03*
X026487Y001746D03*
X026487Y001747D03*
D411*
X026482Y001717D03*
X026482Y001716D03*
X026482Y001715D03*
D412*
X025398Y001718D03*
D413*
X025398Y001719D03*
X025398Y001719D03*
X025398Y001720D03*
X026487Y001748D03*
X026487Y001749D03*
X026487Y001750D03*
D414*
X025398Y001721D03*
D415*
X025398Y001722D03*
X025398Y001723D03*
X025398Y001723D03*
D416*
X025397Y001724D03*
X025397Y001727D03*
X026488Y001754D03*
D417*
X026488Y001755D03*
X026488Y001755D03*
X026488Y001753D03*
X025397Y001727D03*
X025397Y001726D03*
X025397Y001725D03*
D418*
X025397Y001728D03*
X025397Y001729D03*
X025397Y001730D03*
X026488Y001756D03*
X026488Y001757D03*
D419*
X026484Y001731D03*
D420*
X026488Y001758D03*
X025397Y001731D03*
D421*
X025397Y001731D03*
X025397Y001732D03*
X025397Y001733D03*
X026489Y001759D03*
X026489Y001759D03*
X026489Y001760D03*
D422*
X026489Y001761D03*
X025397Y001734D03*
D423*
X025396Y001735D03*
X025396Y001735D03*
X025396Y001736D03*
X025396Y001737D03*
D424*
X025396Y001738D03*
X026489Y001764D03*
D425*
X026489Y001765D03*
X026489Y001766D03*
X025396Y001740D03*
X025396Y001739D03*
X025396Y001739D03*
D426*
X025395Y001741D03*
X026490Y001767D03*
D427*
X026490Y001767D03*
X026490Y001768D03*
X026490Y001769D03*
X025395Y001743D03*
X025395Y001743D03*
X025395Y001742D03*
D428*
X025395Y001744D03*
X025395Y001747D03*
X026490Y001771D03*
D429*
X026490Y001771D03*
X026490Y001770D03*
X025395Y001747D03*
X025395Y001746D03*
X025395Y001745D03*
D430*
X026487Y001747D03*
D431*
X025395Y001748D03*
X025395Y001749D03*
X025395Y001750D03*
D432*
X026487Y001751D03*
D433*
X025395Y001751D03*
D434*
X026487Y001751D03*
X026487Y001752D03*
D435*
X026491Y001775D03*
X026491Y001776D03*
X026491Y001777D03*
X025394Y001753D03*
X025394Y001752D03*
X025394Y001751D03*
D436*
X025394Y001754D03*
D437*
X025394Y001755D03*
X025394Y001755D03*
X025394Y001756D03*
X025394Y001757D03*
X026491Y001779D03*
X026491Y001779D03*
D438*
X026492Y001781D03*
X025393Y001758D03*
D439*
X025393Y001759D03*
X025393Y001759D03*
X025393Y001760D03*
X026492Y001780D03*
X026492Y001782D03*
X026492Y001783D03*
D440*
X025393Y001761D03*
D441*
X026489Y001763D03*
X026489Y001763D03*
X026489Y001762D03*
D442*
X025393Y001763D03*
X025393Y001763D03*
X025393Y001762D03*
D443*
X025393Y001764D03*
X025393Y001767D03*
X026493Y001787D03*
D444*
X026493Y001787D03*
X026493Y001788D03*
X026493Y001786D03*
X025393Y001767D03*
X025393Y001766D03*
X025393Y001765D03*
D445*
X025392Y001768D03*
X025392Y001769D03*
X025392Y001770D03*
X026493Y001789D03*
X026493Y001790D03*
D446*
X026493Y001791D03*
X025392Y001771D03*
D447*
X025392Y001771D03*
X025392Y001772D03*
X025392Y001773D03*
X026493Y001791D03*
X026493Y001792D03*
X026493Y001793D03*
D448*
X026491Y001775D03*
X026491Y001773D03*
X026491Y001772D03*
D449*
X026491Y001774D03*
D450*
X025392Y001774D03*
D451*
X025391Y001775D03*
X025391Y001775D03*
X025391Y001776D03*
X025391Y001777D03*
X026494Y001795D03*
X026494Y001795D03*
X026494Y001796D03*
D452*
X026491Y001778D03*
D453*
X026494Y001798D03*
X025391Y001778D03*
D454*
X025391Y001779D03*
X025391Y001779D03*
X025391Y001780D03*
X026494Y001797D03*
X026494Y001799D03*
D455*
X026495Y001801D03*
X025391Y001781D03*
D456*
X025391Y001782D03*
X025391Y001783D03*
X025391Y001783D03*
X026495Y001799D03*
X026495Y001800D03*
X026495Y001802D03*
D457*
X026492Y001785D03*
X026492Y001783D03*
D458*
X026492Y001784D03*
D459*
X026495Y001804D03*
X025390Y001787D03*
X025390Y001784D03*
D460*
X025390Y001785D03*
X025390Y001786D03*
X025390Y001787D03*
X026495Y001803D03*
X026495Y001803D03*
D461*
X026495Y001805D03*
X026495Y001806D03*
X026495Y001807D03*
X025390Y001790D03*
X025390Y001789D03*
X025390Y001788D03*
D462*
X025390Y001791D03*
D463*
X025389Y001791D03*
X025389Y001792D03*
X025389Y001793D03*
X026496Y001808D03*
X026496Y001809D03*
X026496Y001810D03*
D464*
X026494Y001794D03*
D465*
X026496Y001807D03*
X025389Y001794D03*
D466*
X025389Y001795D03*
X025389Y001795D03*
X025389Y001796D03*
X025389Y001797D03*
X026496Y001811D03*
X026496Y001812D03*
D467*
X026497Y001814D03*
X025389Y001798D03*
D468*
X025389Y001799D03*
X025389Y001799D03*
X025389Y001800D03*
X026497Y001813D03*
X026497Y001815D03*
X026497Y001815D03*
D469*
X026497Y001818D03*
X025388Y001801D03*
D470*
X025388Y001802D03*
X025388Y001803D03*
X025388Y001803D03*
X026497Y001816D03*
X026497Y001817D03*
D471*
X025388Y001807D03*
X025388Y001804D03*
D472*
X025388Y001805D03*
X025388Y001806D03*
X025388Y001807D03*
D473*
X025387Y001808D03*
X025387Y001809D03*
X025387Y001810D03*
X026498Y001822D03*
X026498Y001823D03*
X026498Y001823D03*
D474*
X026496Y001811D03*
D475*
X026498Y001821D03*
X025387Y001811D03*
D476*
X025387Y001811D03*
X025387Y001812D03*
X025387Y001813D03*
X026498Y001825D03*
X026498Y001826D03*
D477*
X026498Y001824D03*
X025387Y001814D03*
D478*
X025387Y001815D03*
X025387Y001815D03*
X025387Y001816D03*
X025387Y001817D03*
X026499Y001827D03*
X026499Y001828D03*
X026499Y001829D03*
D479*
X025386Y001818D03*
D480*
X026497Y001819D03*
X026497Y001819D03*
X026497Y001820D03*
D481*
X025386Y001820D03*
X025386Y001819D03*
X025386Y001819D03*
D482*
X025386Y001821D03*
X026499Y001834D03*
D483*
X026499Y001833D03*
X026499Y001832D03*
X025386Y001823D03*
X025386Y001823D03*
X025386Y001822D03*
D484*
X025385Y001824D03*
X025385Y001827D03*
D485*
X025385Y001827D03*
X025385Y001826D03*
X025385Y001825D03*
X026500Y001835D03*
X026500Y001835D03*
X026500Y001836D03*
X026500Y001837D03*
D486*
X026499Y001827D03*
D487*
X026500Y001839D03*
X026500Y001839D03*
X025385Y001830D03*
X025385Y001829D03*
X025385Y001828D03*
D488*
X026499Y001830D03*
X026499Y001831D03*
D489*
X026499Y001831D03*
D490*
X026500Y001838D03*
X025385Y001831D03*
D491*
X025385Y001831D03*
X025385Y001832D03*
X025385Y001833D03*
D492*
X025385Y001834D03*
D493*
X025384Y001835D03*
X025384Y001835D03*
X025384Y001836D03*
X025384Y001837D03*
X026501Y001843D03*
X026501Y001845D03*
D494*
X026501Y001847D03*
X025384Y001838D03*
D495*
X025384Y001839D03*
X025384Y001839D03*
X025384Y001840D03*
X026501Y001846D03*
X026501Y001847D03*
D496*
X026501Y001843D03*
X026501Y001842D03*
X026501Y001840D03*
D497*
X026501Y001841D03*
D498*
X026502Y001851D03*
X025383Y001841D03*
D499*
X025383Y001842D03*
X025383Y001843D03*
X025383Y001843D03*
X026502Y001848D03*
X026502Y001849D03*
X026502Y001850D03*
D500*
X026501Y001844D03*
D501*
X025383Y001844D03*
X025383Y001847D03*
D502*
X025383Y001847D03*
X025383Y001846D03*
X025383Y001845D03*
D503*
X025383Y001848D03*
X025383Y001849D03*
X025383Y001850D03*
X026503Y001855D03*
X026503Y001855D03*
X026503Y001856D03*
D504*
X026503Y001854D03*
X025383Y001851D03*
D505*
X026502Y001852D03*
X026502Y001851D03*
X026502Y001853D03*
D506*
X026503Y001857D03*
X026503Y001859D03*
X025382Y001853D03*
X025382Y001852D03*
X025382Y001851D03*
D507*
X025382Y001854D03*
X026503Y001858D03*
D508*
X026503Y001859D03*
X026503Y001860D03*
X025382Y001857D03*
X025382Y001856D03*
X025382Y001855D03*
X025382Y001855D03*
D509*
X025381Y001858D03*
X026504Y001864D03*
D510*
X026504Y001863D03*
X026504Y001863D03*
X026504Y001862D03*
X025381Y001860D03*
X025381Y001859D03*
X025381Y001859D03*
D511*
X026503Y001861D03*
D512*
X025381Y001861D03*
D513*
X025381Y001862D03*
X025381Y001863D03*
X025381Y001863D03*
X026504Y001865D03*
X026504Y001866D03*
X026504Y001867D03*
D514*
X026505Y001867D03*
X025381Y001867D03*
X025381Y001864D03*
D515*
X025381Y001865D03*
X025381Y001866D03*
X025381Y001867D03*
X026505Y001868D03*
X026505Y001869D03*
X026505Y001870D03*
D516*
X026505Y001871D03*
X026505Y001872D03*
X025380Y001870D03*
X025380Y001869D03*
X025380Y001868D03*
D517*
X025380Y001871D03*
X026505Y001871D03*
D518*
X026505Y001873D03*
X026505Y001875D03*
X025380Y001873D03*
X025380Y001872D03*
X025380Y001871D03*
D519*
X025380Y001874D03*
X026505Y001874D03*
D520*
X026506Y001875D03*
X026506Y001876D03*
X026506Y001877D03*
X025379Y001877D03*
X025379Y001876D03*
X025379Y001875D03*
X025379Y001875D03*
D521*
X026506Y001878D03*
D522*
X025379Y001878D03*
D523*
X025379Y001879D03*
X025379Y001879D03*
X025379Y001880D03*
X026506Y001880D03*
X026506Y001879D03*
X026506Y001879D03*
D524*
X026507Y001881D03*
X025379Y001881D03*
D525*
X025379Y001882D03*
X025379Y001883D03*
X025379Y001883D03*
X026507Y001883D03*
X026507Y001883D03*
X026507Y001882D03*
D526*
X026507Y001884D03*
X025378Y001884D03*
X025378Y001887D03*
D527*
X025378Y001887D03*
X025378Y001886D03*
X025378Y001885D03*
X026507Y001886D03*
X026507Y001885D03*
D528*
X026507Y001887D03*
X026507Y001888D03*
D529*
X026507Y001887D03*
D530*
X025378Y001888D03*
X025378Y001889D03*
X025378Y001890D03*
D531*
X025377Y001891D03*
X025377Y001892D03*
X025377Y001893D03*
X026508Y001891D03*
X026508Y001890D03*
X026508Y001889D03*
D532*
X026508Y001891D03*
X025377Y001894D03*
D533*
X025378Y001891D03*
D534*
X025377Y001895D03*
X025377Y001895D03*
X025377Y001896D03*
X025377Y001897D03*
X026508Y001893D03*
X026508Y001892D03*
D535*
X026508Y001894D03*
D536*
X026509Y001895D03*
X026509Y001895D03*
X026509Y001896D03*
X026509Y001897D03*
X025377Y001899D03*
X025377Y001899D03*
X025377Y001900D03*
D537*
X026509Y001898D03*
D538*
X025377Y001898D03*
D539*
X026509Y001899D03*
X026509Y001899D03*
D540*
X026509Y001900D03*
X026509Y001902D03*
X025376Y001905D03*
X025376Y001906D03*
X025376Y001907D03*
D541*
X025376Y001907D03*
X025376Y001904D03*
X026509Y001901D03*
D542*
X025376Y001901D03*
D543*
X025376Y001902D03*
X025376Y001903D03*
X025376Y001903D03*
D544*
X025375Y001908D03*
X025375Y001909D03*
X025375Y001910D03*
X026510Y001905D03*
X026510Y001903D03*
X026510Y001903D03*
D545*
X026510Y001904D03*
X025375Y001911D03*
D546*
X025375Y001911D03*
X025375Y001912D03*
X025375Y001913D03*
X026510Y001907D03*
X026510Y001906D03*
D547*
X026510Y001907D03*
X025375Y001914D03*
D548*
X026511Y001910D03*
X026511Y001909D03*
X026511Y001908D03*
D549*
X026511Y001911D03*
D550*
X026511Y001911D03*
X026511Y001912D03*
X026511Y001913D03*
X025374Y001919D03*
X025374Y001919D03*
X025374Y001920D03*
D551*
X025374Y001921D03*
X026511Y001914D03*
D552*
X026511Y001915D03*
X026511Y001915D03*
X025374Y001922D03*
X025374Y001923D03*
X025374Y001923D03*
D553*
X025375Y001917D03*
X025375Y001916D03*
X025375Y001915D03*
X025375Y001915D03*
D554*
X025373Y001925D03*
X025373Y001926D03*
X025373Y001927D03*
X026512Y001919D03*
X026512Y001917D03*
X026512Y001916D03*
D555*
X026512Y001918D03*
X025373Y001924D03*
X025373Y001927D03*
D556*
X025374Y001918D03*
D557*
X026512Y001919D03*
X026512Y001920D03*
D558*
X026512Y001921D03*
D559*
X026513Y001922D03*
X026513Y001923D03*
X026513Y001923D03*
X025373Y001931D03*
X025373Y001932D03*
X025373Y001933D03*
D560*
X025373Y001934D03*
X026513Y001924D03*
D561*
X026513Y001925D03*
X026513Y001926D03*
X026513Y001927D03*
X025372Y001935D03*
X025372Y001935D03*
X025372Y001936D03*
X025372Y001937D03*
D562*
X025372Y001938D03*
X026513Y001927D03*
D563*
X026513Y001928D03*
X026513Y001929D03*
X025372Y001939D03*
X025372Y001939D03*
X025372Y001940D03*
D564*
X025373Y001930D03*
X025373Y001929D03*
X025373Y001928D03*
D565*
X025371Y001942D03*
X025371Y001943D03*
X025371Y001943D03*
X026514Y001932D03*
X026514Y001931D03*
X026514Y001930D03*
D566*
X026514Y001931D03*
X025371Y001941D03*
D567*
X025373Y001931D03*
D568*
X025371Y001945D03*
X025371Y001946D03*
X025371Y001947D03*
X026514Y001935D03*
X026514Y001933D03*
D569*
X026514Y001934D03*
X025371Y001944D03*
X025371Y001947D03*
D570*
X025371Y001948D03*
X025371Y001949D03*
X025371Y001950D03*
X026515Y001937D03*
X026515Y001936D03*
X026515Y001935D03*
D571*
X026515Y001938D03*
X025371Y001951D03*
D572*
X025370Y001951D03*
X025370Y001952D03*
X025370Y001953D03*
X026515Y001940D03*
X026515Y001939D03*
X026515Y001939D03*
D573*
X026515Y001941D03*
D574*
X026515Y001942D03*
X026515Y001943D03*
X025370Y001955D03*
X025370Y001955D03*
X025370Y001956D03*
X025370Y001957D03*
D575*
X025369Y001959D03*
X025369Y001959D03*
X025369Y001960D03*
X026516Y001946D03*
X026516Y001945D03*
X026516Y001943D03*
D576*
X026516Y001944D03*
X025369Y001958D03*
D577*
X025369Y001962D03*
X025369Y001963D03*
X025369Y001963D03*
X026516Y001948D03*
X026516Y001947D03*
D578*
X026516Y001947D03*
X025369Y001961D03*
D579*
X025369Y001965D03*
X026517Y001951D03*
X026517Y001950D03*
X026517Y001949D03*
D580*
X026517Y001951D03*
X025369Y001964D03*
D581*
X026517Y001953D03*
X026517Y001952D03*
D582*
X026517Y001954D03*
D583*
X025370Y001954D03*
D584*
X026517Y001955D03*
X026517Y001955D03*
X026517Y001956D03*
X026517Y001957D03*
D585*
X026518Y001958D03*
D586*
X026518Y001959D03*
X026518Y001959D03*
D587*
X026518Y001960D03*
X026518Y001962D03*
D588*
X026518Y001961D03*
D589*
X026519Y001963D03*
X026519Y001963D03*
X026519Y001965D03*
D590*
X026519Y001964D03*
D591*
X026429Y001966D03*
X026429Y001967D03*
X026429Y001968D03*
X026429Y001969D03*
X026429Y001970D03*
X026429Y001971D03*
X026429Y001972D03*
X026429Y001973D03*
X026429Y001975D03*
X026429Y001975D03*
X026429Y001976D03*
X026429Y001977D03*
X026429Y001979D03*
X026429Y001979D03*
X026429Y001980D03*
X026429Y001982D03*
X026429Y001983D03*
X026429Y001983D03*
X026429Y001985D03*
X026429Y001986D03*
X026429Y001987D03*
X026429Y001988D03*
X026429Y001989D03*
X026429Y001990D03*
X026429Y001991D03*
X026429Y001992D03*
X026429Y001993D03*
X026429Y001995D03*
X026429Y001995D03*
X026429Y001996D03*
X026429Y001997D03*
X026429Y001999D03*
X026429Y001999D03*
X026429Y002000D03*
X026429Y002002D03*
X026429Y002003D03*
X026429Y002003D03*
X026429Y002005D03*
X026429Y002006D03*
X026429Y002007D03*
X025456Y002007D03*
X025456Y002006D03*
X025456Y002005D03*
X025456Y002003D03*
X025456Y002003D03*
X025456Y002002D03*
X025456Y002000D03*
X025456Y001999D03*
X025456Y001999D03*
X025456Y001997D03*
X025456Y001996D03*
X025456Y001995D03*
X025456Y001995D03*
X025456Y001993D03*
X025456Y001992D03*
X025456Y001991D03*
X025456Y001990D03*
X025456Y001989D03*
X025456Y001988D03*
X025456Y001987D03*
X025456Y001986D03*
X025456Y001985D03*
X025456Y001983D03*
X025456Y001983D03*
X025456Y001982D03*
X025456Y001980D03*
X025456Y001979D03*
X025456Y001979D03*
X025456Y001977D03*
X025456Y001976D03*
X025456Y001975D03*
X025456Y001975D03*
X025456Y001973D03*
X025456Y001972D03*
X025456Y001971D03*
X025456Y001970D03*
X025456Y001969D03*
X025456Y001968D03*
X025456Y001967D03*
X025456Y001966D03*
D592*
X025456Y001967D03*
X025456Y001971D03*
X025456Y001974D03*
X025456Y001978D03*
X025456Y001981D03*
X025456Y001984D03*
X025456Y001987D03*
X025456Y001991D03*
X025456Y001994D03*
X025456Y001998D03*
X025456Y002001D03*
X025456Y002004D03*
X026429Y002004D03*
X026429Y002001D03*
X026429Y001998D03*
X026429Y001994D03*
X026429Y001991D03*
X026429Y001987D03*
X026429Y001984D03*
X026429Y001981D03*
X026429Y001978D03*
X026429Y001974D03*
X026429Y001971D03*
X026429Y001967D03*
D593*
X025943Y002007D03*
X025943Y002011D03*
X025943Y002014D03*
X025943Y002018D03*
X025943Y002021D03*
X025943Y002024D03*
X025943Y002027D03*
X025943Y002031D03*
X025943Y002034D03*
X025943Y002038D03*
X025943Y002247D03*
X025943Y002251D03*
X025943Y002254D03*
X025943Y002258D03*
X025943Y002261D03*
X025943Y002264D03*
X025943Y002267D03*
X025943Y002271D03*
X025943Y002274D03*
X025943Y002278D03*
X025943Y002281D03*
X025943Y002284D03*
X025943Y002287D03*
X025943Y002291D03*
X025943Y002294D03*
X025943Y002298D03*
X025943Y002301D03*
D594*
X025943Y002302D03*
X025943Y002303D03*
X025943Y002303D03*
X025943Y002300D03*
X025943Y002299D03*
X025943Y002299D03*
X025943Y002297D03*
X025943Y002296D03*
X025943Y002295D03*
X025943Y002295D03*
X025943Y002293D03*
X025943Y002292D03*
X025943Y002291D03*
X025943Y002290D03*
X025943Y002289D03*
X025943Y002288D03*
X025943Y002287D03*
X025943Y002286D03*
X025943Y002285D03*
X025943Y002283D03*
X025943Y002283D03*
X025943Y002282D03*
X025943Y002280D03*
X025943Y002279D03*
X025943Y002279D03*
X025943Y002277D03*
X025943Y002276D03*
X025943Y002275D03*
X025943Y002275D03*
X025943Y002273D03*
X025943Y002272D03*
X025943Y002271D03*
X025943Y002270D03*
X025943Y002269D03*
X025943Y002268D03*
X025943Y002267D03*
X025943Y002266D03*
X025943Y002265D03*
X025943Y002263D03*
X025943Y002263D03*
X025943Y002262D03*
X025943Y002260D03*
X025943Y002259D03*
X025943Y002259D03*
X025943Y002257D03*
X025943Y002256D03*
X025943Y002255D03*
X025943Y002255D03*
X025943Y002253D03*
X025943Y002252D03*
X025943Y002251D03*
X025943Y002250D03*
X025943Y002249D03*
X025943Y002248D03*
X025943Y002247D03*
X025943Y002246D03*
X025943Y002039D03*
X025943Y002039D03*
X025943Y002037D03*
X025943Y002036D03*
X025943Y002035D03*
X025943Y002035D03*
X025943Y002033D03*
X025943Y002032D03*
X025943Y002031D03*
X025943Y002030D03*
X025943Y002029D03*
X025943Y002028D03*
X025943Y002027D03*
X025943Y002026D03*
X025943Y002025D03*
X025943Y002023D03*
X025943Y002023D03*
X025943Y002022D03*
X025943Y002020D03*
X025943Y002019D03*
X025943Y002019D03*
X025943Y002017D03*
X025943Y002016D03*
X025943Y002015D03*
X025943Y002015D03*
X025943Y002013D03*
X025943Y002012D03*
X025943Y002011D03*
X025943Y002010D03*
X025943Y002009D03*
X025943Y002008D03*
D595*
X026380Y002040D03*
X026380Y002042D03*
X026380Y002043D03*
X026380Y002043D03*
X026380Y002045D03*
X026380Y002046D03*
X026380Y002047D03*
X026380Y002048D03*
X026380Y002049D03*
X026380Y002050D03*
X026380Y002051D03*
X026380Y002052D03*
X026380Y002053D03*
X026380Y002055D03*
X026380Y002055D03*
X026380Y002056D03*
X026380Y002057D03*
X026380Y002059D03*
X026380Y002059D03*
X026380Y002060D03*
X026380Y002062D03*
X026380Y002063D03*
X026380Y002063D03*
X026380Y002065D03*
X026380Y002066D03*
X026380Y002067D03*
X026380Y002068D03*
X026380Y002069D03*
X026380Y002070D03*
X026380Y002071D03*
X026380Y002072D03*
X026380Y002073D03*
X026380Y002075D03*
X026380Y002075D03*
X026380Y002076D03*
X026380Y002077D03*
X026380Y002079D03*
X026380Y002079D03*
X026380Y002080D03*
X026380Y002082D03*
X026380Y002083D03*
X026380Y002083D03*
X026380Y002085D03*
X026380Y002086D03*
X026380Y002087D03*
X026380Y002088D03*
X026380Y002089D03*
X026380Y002090D03*
X026380Y002091D03*
X026380Y002092D03*
X026380Y002093D03*
X026380Y002095D03*
X026380Y002095D03*
X026380Y002096D03*
X026380Y002097D03*
X026380Y002099D03*
X026380Y002099D03*
X026380Y002100D03*
X026380Y002102D03*
X026380Y002103D03*
X026380Y002103D03*
X026380Y002105D03*
X026380Y002106D03*
X026380Y002107D03*
X026380Y002108D03*
X026380Y002109D03*
X026380Y002110D03*
X026380Y002111D03*
X026380Y002112D03*
X026380Y002113D03*
X026380Y002115D03*
X026380Y002115D03*
X026380Y002116D03*
X026380Y002117D03*
X026380Y002119D03*
X026380Y002119D03*
X026380Y002120D03*
X026380Y002122D03*
X026380Y002123D03*
X026380Y002123D03*
X026380Y002125D03*
X026380Y002126D03*
X026380Y002127D03*
X026380Y002128D03*
X026380Y002129D03*
X026380Y002130D03*
X026380Y002131D03*
X026380Y002132D03*
X026380Y002133D03*
X026380Y002135D03*
X026380Y002135D03*
X026380Y002136D03*
X026380Y002137D03*
X026380Y002139D03*
X026380Y002139D03*
X026380Y002140D03*
X026380Y002142D03*
X026380Y002143D03*
X026380Y002143D03*
X026380Y002145D03*
X026380Y002146D03*
X026380Y002147D03*
X026380Y002148D03*
X026380Y002149D03*
X026380Y002150D03*
X026380Y002151D03*
X026380Y002152D03*
X026380Y002153D03*
X026380Y002155D03*
X026380Y002155D03*
X026380Y002156D03*
X026380Y002157D03*
X026380Y002159D03*
X026380Y002159D03*
X026380Y002160D03*
X026380Y002162D03*
X026380Y002163D03*
X026380Y002163D03*
X026380Y002165D03*
X026380Y002166D03*
X026380Y002167D03*
X026380Y002168D03*
X026380Y002169D03*
X026380Y002170D03*
X026380Y002171D03*
X026380Y002172D03*
X026380Y002173D03*
X026380Y002175D03*
X026380Y002175D03*
X026380Y002176D03*
X026380Y002177D03*
X026380Y002179D03*
X026380Y002179D03*
X026380Y002180D03*
X026380Y002182D03*
X026380Y002183D03*
X026380Y002183D03*
X026380Y002185D03*
X026380Y002186D03*
X026380Y002187D03*
X026380Y002188D03*
X026380Y002189D03*
X026380Y002190D03*
X026380Y002191D03*
X026380Y002192D03*
X026380Y002193D03*
X026380Y002195D03*
X026380Y002195D03*
X026380Y002196D03*
X026380Y002197D03*
X026380Y002199D03*
X026380Y002199D03*
X026380Y002200D03*
X026380Y002202D03*
X026380Y002203D03*
X026380Y002203D03*
X026380Y002205D03*
X026380Y002206D03*
X026380Y002207D03*
X026380Y002208D03*
X026380Y002209D03*
X026380Y002210D03*
X026380Y002211D03*
X026380Y002212D03*
X026380Y002213D03*
X026380Y002215D03*
X026380Y002215D03*
X026380Y002216D03*
X026380Y002217D03*
X026380Y002219D03*
X026380Y002219D03*
X026380Y002220D03*
X026380Y002222D03*
X026380Y002223D03*
X026380Y002223D03*
X026380Y002225D03*
X026380Y002226D03*
X026380Y002227D03*
X026380Y002228D03*
X026380Y002229D03*
X026380Y002230D03*
X026380Y002231D03*
X026380Y002232D03*
X026380Y002233D03*
X026380Y002235D03*
X026380Y002235D03*
X026380Y002236D03*
X026380Y002237D03*
X026380Y002239D03*
X026380Y002239D03*
X026380Y002240D03*
X026380Y002242D03*
X026380Y002243D03*
X026380Y002243D03*
X026380Y002245D03*
D596*
X025493Y002245D03*
X025493Y002243D03*
X025493Y002243D03*
X025493Y002242D03*
X025493Y002240D03*
X025493Y002239D03*
X025493Y002239D03*
X025493Y002237D03*
X025493Y002236D03*
X025493Y002235D03*
X025493Y002235D03*
X025493Y002233D03*
X025493Y002232D03*
X025493Y002231D03*
X025493Y002230D03*
X025493Y002229D03*
X025493Y002228D03*
X025493Y002227D03*
X025493Y002226D03*
X025493Y002225D03*
X025493Y002223D03*
X025493Y002223D03*
X025493Y002222D03*
X025493Y002220D03*
X025493Y002219D03*
X025493Y002219D03*
X025493Y002217D03*
X025493Y002216D03*
X025493Y002215D03*
X025493Y002215D03*
X025493Y002213D03*
X025493Y002212D03*
X025493Y002211D03*
X025493Y002210D03*
X025493Y002209D03*
X025493Y002208D03*
X025493Y002207D03*
X025493Y002206D03*
X025493Y002205D03*
X025493Y002203D03*
X025493Y002203D03*
X025493Y002202D03*
X025493Y002200D03*
X025493Y002199D03*
X025493Y002199D03*
X025493Y002197D03*
X025493Y002196D03*
X025493Y002195D03*
X025493Y002195D03*
X025493Y002193D03*
X025493Y002192D03*
X025493Y002191D03*
X025493Y002190D03*
X025493Y002189D03*
X025493Y002188D03*
X025493Y002187D03*
X025493Y002186D03*
X025493Y002185D03*
X025493Y002183D03*
X025493Y002183D03*
X025493Y002182D03*
X025493Y002180D03*
X025493Y002179D03*
X025493Y002179D03*
X025493Y002177D03*
X025493Y002176D03*
X025493Y002175D03*
X025493Y002175D03*
X025493Y002173D03*
X025493Y002172D03*
X025493Y002171D03*
X025493Y002170D03*
X025493Y002169D03*
X025493Y002168D03*
X025493Y002167D03*
X025493Y002166D03*
X025493Y002165D03*
X025493Y002163D03*
X025493Y002163D03*
X025493Y002162D03*
X025493Y002160D03*
X025493Y002159D03*
X025493Y002159D03*
X025493Y002157D03*
X025493Y002156D03*
X025493Y002155D03*
X025493Y002155D03*
X025493Y002153D03*
X025493Y002152D03*
X025493Y002151D03*
X025493Y002150D03*
X025493Y002149D03*
X025493Y002148D03*
X025493Y002147D03*
X025493Y002146D03*
X025493Y002145D03*
X025493Y002143D03*
X025493Y002143D03*
X025493Y002142D03*
X025493Y002140D03*
X025493Y002139D03*
X025493Y002139D03*
X025493Y002137D03*
X025493Y002136D03*
X025493Y002135D03*
X025493Y002135D03*
X025493Y002133D03*
X025493Y002132D03*
X025493Y002131D03*
X025493Y002130D03*
X025493Y002129D03*
X025493Y002128D03*
X025493Y002127D03*
X025493Y002126D03*
X025493Y002125D03*
X025493Y002123D03*
X025493Y002123D03*
X025493Y002122D03*
X025493Y002120D03*
X025493Y002119D03*
X025493Y002119D03*
X025493Y002117D03*
X025493Y002116D03*
X025493Y002115D03*
X025493Y002115D03*
X025493Y002113D03*
X025493Y002112D03*
X025493Y002111D03*
X025493Y002110D03*
X025493Y002109D03*
X025493Y002108D03*
X025493Y002107D03*
X025493Y002106D03*
X025493Y002105D03*
X025493Y002103D03*
X025493Y002103D03*
X025493Y002102D03*
X025493Y002100D03*
X025493Y002099D03*
X025493Y002099D03*
X025493Y002097D03*
X025493Y002096D03*
X025493Y002095D03*
X025493Y002095D03*
X025493Y002093D03*
X025493Y002092D03*
X025493Y002091D03*
X025493Y002090D03*
X025493Y002089D03*
X025493Y002088D03*
X025493Y002087D03*
X025493Y002086D03*
X025493Y002085D03*
X025493Y002083D03*
X025493Y002083D03*
X025493Y002082D03*
X025493Y002080D03*
X025493Y002079D03*
X025493Y002079D03*
X025493Y002077D03*
X025493Y002076D03*
X025493Y002075D03*
X025493Y002075D03*
X025493Y002073D03*
X025493Y002072D03*
X025493Y002071D03*
X025493Y002070D03*
X025493Y002069D03*
X025493Y002068D03*
X025493Y002067D03*
X025493Y002066D03*
X025493Y002065D03*
X025493Y002063D03*
X025493Y002063D03*
X025493Y002062D03*
X025493Y002060D03*
X025493Y002059D03*
X025493Y002059D03*
X025493Y002057D03*
X025493Y002056D03*
X025493Y002055D03*
X025493Y002055D03*
X025493Y002053D03*
X025493Y002052D03*
X025493Y002051D03*
X025493Y002050D03*
X025493Y002049D03*
X025493Y002048D03*
X025493Y002047D03*
X025493Y002046D03*
X025493Y002045D03*
X025493Y002043D03*
X025493Y002043D03*
X025493Y002042D03*
X025493Y002040D03*
D597*
X026380Y002041D03*
X026380Y002044D03*
X026380Y002047D03*
X026380Y002051D03*
X026380Y002054D03*
X026380Y002058D03*
X026380Y002061D03*
X026380Y002064D03*
X026380Y002067D03*
X026380Y002071D03*
X026380Y002074D03*
X026380Y002078D03*
X026380Y002081D03*
X026380Y002084D03*
X026380Y002087D03*
X026380Y002091D03*
X026380Y002094D03*
X026380Y002098D03*
X026380Y002101D03*
X026380Y002104D03*
X026380Y002107D03*
X026380Y002111D03*
X026380Y002114D03*
X026380Y002118D03*
X026380Y002121D03*
X026380Y002124D03*
X026380Y002127D03*
X026380Y002131D03*
X026380Y002134D03*
X026380Y002138D03*
X026380Y002141D03*
X026380Y002144D03*
X026380Y002147D03*
X026380Y002151D03*
X026380Y002154D03*
X026380Y002158D03*
X026380Y002161D03*
X026380Y002164D03*
X026380Y002167D03*
X026380Y002171D03*
X026380Y002174D03*
X026380Y002178D03*
X026380Y002181D03*
X026380Y002184D03*
X026380Y002187D03*
X026380Y002191D03*
X026380Y002194D03*
X026380Y002198D03*
X026380Y002201D03*
X026380Y002204D03*
X026380Y002207D03*
X026380Y002211D03*
X026380Y002214D03*
X026380Y002218D03*
X026380Y002221D03*
X026380Y002224D03*
X026380Y002227D03*
X026380Y002231D03*
X026380Y002234D03*
X026380Y002238D03*
X026380Y002241D03*
X026380Y002244D03*
D598*
X025493Y002244D03*
X025493Y002241D03*
X025493Y002238D03*
X025493Y002234D03*
X025493Y002231D03*
X025493Y002227D03*
X025493Y002224D03*
X025493Y002221D03*
X025493Y002218D03*
X025493Y002214D03*
X025493Y002211D03*
X025493Y002207D03*
X025493Y002204D03*
X025493Y002201D03*
X025493Y002198D03*
X025493Y002194D03*
X025493Y002191D03*
X025493Y002187D03*
X025493Y002184D03*
X025493Y002181D03*
X025493Y002178D03*
X025493Y002174D03*
X025493Y002171D03*
X025493Y002167D03*
X025493Y002164D03*
X025493Y002161D03*
X025493Y002158D03*
X025493Y002154D03*
X025493Y002151D03*
X025493Y002147D03*
X025493Y002144D03*
X025493Y002141D03*
X025493Y002138D03*
X025493Y002134D03*
X025493Y002131D03*
X025493Y002127D03*
X025493Y002124D03*
X025493Y002121D03*
X025493Y002118D03*
X025493Y002114D03*
X025493Y002111D03*
X025493Y002107D03*
X025493Y002104D03*
X025493Y002101D03*
X025493Y002098D03*
X025493Y002094D03*
X025493Y002091D03*
X025493Y002087D03*
X025493Y002084D03*
X025493Y002081D03*
X025493Y002078D03*
X025493Y002074D03*
X025493Y002071D03*
X025493Y002067D03*
X025493Y002064D03*
X025493Y002061D03*
X025493Y002058D03*
X025493Y002054D03*
X025493Y002051D03*
X025493Y002047D03*
X025493Y002044D03*
X025493Y002041D03*
D599*
X025943Y002304D03*
D600*
X025943Y002305D03*
D601*
X025943Y002306D03*
X025943Y002307D03*
X025943Y002308D03*
X025943Y002309D03*
X025943Y002310D03*
D602*
X025943Y002311D03*
X025943Y002307D03*
D603*
X025942Y002311D03*
D604*
X025943Y002312D03*
X025943Y002313D03*
X025943Y002315D03*
X025943Y002315D03*
D605*
X025943Y002314D03*
D606*
X025942Y002316D03*
X025942Y002317D03*
D607*
X025943Y002318D03*
D608*
X025943Y002319D03*
X025943Y002319D03*
X025943Y002320D03*
D609*
X025942Y002321D03*
D610*
X025942Y002322D03*
D611*
X025943Y002323D03*
X025943Y002323D03*
D612*
X025943Y002324D03*
D613*
X025942Y002325D03*
X025942Y002326D03*
D614*
X025943Y002327D03*
X025943Y002328D03*
D615*
X025943Y002327D03*
D616*
X025942Y002329D03*
X025942Y002330D03*
D617*
X025943Y002331D03*
D618*
X025943Y002331D03*
X025943Y002332D03*
D619*
X025942Y002333D03*
D620*
X025943Y002334D03*
D621*
X025943Y002335D03*
X025943Y002335D03*
X025943Y002336D03*
D622*
X025943Y002337D03*
X025943Y002339D03*
X025943Y002339D03*
D623*
X025943Y002338D03*
D624*
X025943Y002340D03*
X025943Y002342D03*
X025943Y002343D03*
D625*
X025943Y002341D03*
D626*
X025943Y002343D03*
X025943Y002345D03*
X025943Y002346D03*
D627*
X025943Y002344D03*
D628*
X025943Y002347D03*
X025943Y002348D03*
X025943Y002349D03*
D629*
X025943Y002347D03*
D630*
X025943Y002350D03*
X025943Y002351D03*
D631*
X025943Y002351D03*
D632*
X025943Y002352D03*
D633*
X025943Y002353D03*
D634*
X025943Y002354D03*
D635*
X025943Y002355D03*
D636*
X025943Y002355D03*
X025943Y002356D03*
X025943Y002357D03*
D637*
X025943Y002358D03*
D638*
X025943Y002359D03*
X025943Y002359D03*
D639*
X025943Y002360D03*
D640*
X025943Y002361D03*
D641*
X025943Y002362D03*
D642*
X025943Y002363D03*
D643*
X025943Y002363D03*
D644*
X025943Y002364D03*
D645*
X025943Y002365D03*
D646*
X025943Y002366D03*
D647*
X025943Y002367D03*
D648*
X025943Y002367D03*
D649*
X025943Y002368D03*
D650*
X025943Y002369D03*
D651*
X025943Y002370D03*
D652*
X025943Y002371D03*
D653*
X025943Y002371D03*
D654*
X025943Y002372D03*
D655*
X025943Y002373D03*
D656*
X025943Y002374D03*
D657*
X025943Y002375D03*
D658*
X025943Y002375D03*
D659*
X025943Y002376D03*
D660*
X025943Y002377D03*
D661*
X025943Y002378D03*
D662*
X025943Y002379D03*
D663*
X025943Y002379D03*
D664*
X025943Y002380D03*
D665*
X025943Y002381D03*
D666*
X025943Y002382D03*
D667*
X025943Y002383D03*
D668*
X025943Y002383D03*
D669*
X025943Y002384D03*
D670*
X025943Y002385D03*
D671*
X025943Y002386D03*
D672*
X025943Y002387D03*
D673*
X025943Y002387D03*
D674*
X025943Y002388D03*
D675*
X025943Y002389D03*
D676*
X025943Y002390D03*
D677*
X025943Y002391D03*
D678*
X025943Y002391D03*
D679*
X025943Y002392D03*
D680*
X025943Y002393D03*
D681*
X025943Y002394D03*
D682*
X025943Y002395D03*
D683*
X025943Y002395D03*
D684*
X025943Y002396D03*
D685*
X025943Y002397D03*
D686*
X025943Y002398D03*
D687*
X025943Y002399D03*
D688*
X025943Y002399D03*
D689*
X025943Y002400D03*
D690*
X025943Y002401D03*
D691*
X025943Y002402D03*
D692*
X025943Y002403D03*
D693*
X025943Y002403D03*
D694*
X025943Y002404D03*
D695*
X025943Y002405D03*
D696*
X025943Y002406D03*
D697*
X025943Y002407D03*
D698*
X025943Y002407D03*
D699*
X025943Y002408D03*
D700*
X025943Y002409D03*
D701*
X025943Y002410D03*
D702*
X025943Y002411D03*
D703*
X025943Y002411D03*
D704*
X025943Y002412D03*
D705*
X025943Y002413D03*
D706*
X025943Y002414D03*
D707*
X025943Y002415D03*
D708*
X025943Y002415D03*
D709*
X025943Y002416D03*
D710*
X025943Y002417D03*
D711*
X025943Y002418D03*
D712*
X025943Y002419D03*
D713*
X025943Y002419D03*
D714*
X025943Y002420D03*
D715*
X025943Y002421D03*
D716*
X025943Y002422D03*
D717*
X025943Y002423D03*
D718*
X025943Y002423D03*
D719*
X025943Y002424D03*
D720*
X025943Y002425D03*
D721*
X025943Y002426D03*
D722*
X025943Y002427D03*
D723*
X025943Y002427D03*
D724*
X025943Y002428D03*
D725*
X025943Y002429D03*
D726*
X025943Y002430D03*
D727*
X025943Y002431D03*
D728*
X025943Y002431D03*
D729*
X025943Y002432D03*
D730*
X025943Y002433D03*
D731*
X025943Y002434D03*
D732*
X025943Y002435D03*
D733*
X025943Y002435D03*
D734*
X025943Y002436D03*
D735*
X025943Y002437D03*
D736*
X025943Y002438D03*
D737*
X025943Y002439D03*
D738*
X025943Y002439D03*
D739*
X025943Y002440D03*
D740*
X025943Y002441D03*
D741*
X025943Y002442D03*
D742*
X025943Y002443D03*
D743*
X025943Y002443D03*
D744*
X025943Y002444D03*
D745*
X025943Y002445D03*
D746*
X025943Y002446D03*
D747*
X025943Y002447D03*
D748*
X025943Y002447D03*
D749*
X025943Y002448D03*
D750*
X025943Y002449D03*
D751*
X025943Y002450D03*
D752*
X025943Y002451D03*
D753*
X025943Y002451D03*
D754*
X025943Y002452D03*
D755*
X025943Y002453D03*
D756*
X025943Y002454D03*
D757*
X025943Y002455D03*
D758*
X025943Y002455D03*
D759*
X025943Y002456D03*
D760*
X025943Y002457D03*
D761*
X025943Y002458D03*
D762*
X025943Y002459D03*
D763*
X025943Y002459D03*
D764*
X025943Y002460D03*
D765*
X025943Y002461D03*
D766*
X025943Y002462D03*
D767*
X025943Y002463D03*
D768*
X025943Y002463D03*
D769*
X025943Y002464D03*
D770*
X025943Y002465D03*
D771*
X025943Y002466D03*
D772*
X025943Y002467D03*
D773*
X025943Y002467D03*
D774*
X025943Y002468D03*
D775*
X025943Y002469D03*
D776*
X025943Y002470D03*
D777*
X025943Y002471D03*
D778*
X025943Y002471D03*
D779*
X025943Y002472D03*
D780*
X025943Y002473D03*
D781*
X025943Y002474D03*
D782*
X025943Y002475D03*
D783*
X025943Y002475D03*
D784*
X025943Y002476D03*
D785*
X025943Y002477D03*
D786*
X025943Y002478D03*
D787*
X025943Y002479D03*
D788*
X025943Y002479D03*
D789*
X025943Y002480D03*
D790*
X025943Y002481D03*
D791*
X025943Y002482D03*
D792*
X025943Y002483D03*
D793*
X025943Y002483D03*
D794*
X025943Y002484D03*
D795*
X025943Y002485D03*
D796*
X025943Y002486D03*
D797*
X025943Y002487D03*
D798*
X025943Y002487D03*
D799*
X025943Y002488D03*
D800*
X025943Y002489D03*
D801*
X025943Y002490D03*
D802*
X025943Y002491D03*
D803*
X025943Y002491D03*
D804*
X025943Y002492D03*
D805*
X025943Y002493D03*
D806*
X025943Y002494D03*
D807*
X025943Y002495D03*
D808*
X025943Y002495D03*
D809*
X025943Y002496D03*
D810*
X025943Y002497D03*
D811*
X025943Y002498D03*
D812*
X025943Y002499D03*
D813*
X025943Y002499D03*
D814*
X025943Y002500D03*
D815*
X025943Y002501D03*
D816*
X025943Y002502D03*
D817*
X025943Y002503D03*
D818*
X025943Y002503D03*
D819*
X025943Y002504D03*
D820*
X025943Y002505D03*
D821*
X025943Y002506D03*
D822*
X025943Y002507D03*
D823*
X025943Y002507D03*
D824*
X025943Y002508D03*
D825*
X025943Y002509D03*
D826*
X025943Y002510D03*
D827*
X025943Y002511D03*
D828*
X025943Y002511D03*
D829*
X025943Y002512D03*
D830*
X025943Y002513D03*
D831*
X025943Y002514D03*
D832*
X025943Y002515D03*
D833*
X025943Y002515D03*
D834*
X025943Y002516D03*
D835*
X025943Y002517D03*
D836*
X025943Y002518D03*
D837*
X025943Y002519D03*
D838*
X025943Y002519D03*
D839*
X025943Y002520D03*
D840*
X025943Y002521D03*
D841*
X025943Y002522D03*
D842*
X025943Y002523D03*
D843*
X025943Y002523D03*
D844*
X025943Y002524D03*
D845*
X025943Y002525D03*
D846*
X025943Y002526D03*
D847*
X025943Y002527D03*
D848*
X025943Y002527D03*
D849*
X025943Y002528D03*
D850*
X025943Y002529D03*
D851*
X025943Y002530D03*
D852*
X025943Y002531D03*
D853*
X025943Y002531D03*
D854*
X025943Y002532D03*
D855*
X025943Y002533D03*
D856*
X025943Y002534D03*
D857*
X025943Y002535D03*
D858*
X025943Y002535D03*
D859*
X025943Y002536D03*
D860*
X025943Y002537D03*
D861*
X025943Y002538D03*
D862*
X025943Y002539D03*
D863*
X025943Y002539D03*
D864*
X025943Y002540D03*
D865*
X025943Y002541D03*
D866*
X025943Y002542D03*
D867*
X025943Y002543D03*
D868*
X025943Y002543D03*
D869*
X025943Y002544D03*
D870*
X025943Y002545D03*
D871*
X025943Y002546D03*
D872*
X025943Y002547D03*
D873*
X025943Y002547D03*
D874*
X025943Y002548D03*
D875*
X025943Y002549D03*
D876*
X025943Y002550D03*
D877*
X025943Y002551D03*
D878*
X025943Y002551D03*
D879*
X025943Y002552D03*
D880*
X025943Y002553D03*
D881*
X025943Y002554D03*
D882*
X025943Y002555D03*
D883*
X025943Y002555D03*
D884*
X025943Y002556D03*
D885*
X025943Y002557D03*
D886*
X025943Y002558D03*
D887*
X025943Y002559D03*
D888*
X025943Y002559D03*
D889*
X025943Y002560D03*
D890*
X025943Y002561D03*
D891*
X025943Y002562D03*
D892*
X025943Y002563D03*
D893*
X025943Y002563D03*
D894*
X025943Y002564D03*
D895*
X025943Y002565D03*
D896*
X025943Y002566D03*
D897*
X025943Y002567D03*
D898*
X025943Y002567D03*
D899*
X025943Y002568D03*
D900*
X025943Y002569D03*
D901*
X025943Y002570D03*
D902*
X025943Y002571D03*
D903*
X025943Y002571D03*
D904*
X025943Y002572D03*
D905*
X025943Y002573D03*
D906*
X025943Y002574D03*
D907*
X025943Y002575D03*
D908*
X025943Y002575D03*
D909*
X025943Y002576D03*
D910*
X025943Y002577D03*
D911*
X025943Y002578D03*
D912*
X025943Y002579D03*
D913*
X025943Y002579D03*
D914*
X025943Y002580D03*
D915*
X025943Y002581D03*
D916*
X025943Y002582D03*
D917*
X025943Y002583D03*
D918*
X025943Y002583D03*
D919*
X025943Y002584D03*
D920*
X025943Y002585D03*
D921*
X025943Y002586D03*
D922*
X025943Y002587D03*
D923*
X025943Y002587D03*
D924*
X025943Y002588D03*
D925*
X025943Y002589D03*
D926*
X025943Y002590D03*
D927*
X025943Y002591D03*
D928*
X025943Y002591D03*
D929*
X025943Y002592D03*
D930*
X025943Y002593D03*
D931*
X025943Y002594D03*
D932*
X025943Y002595D03*
D933*
X025943Y002595D03*
D934*
X025943Y002596D03*
D935*
X025943Y002597D03*
D936*
X025943Y002598D03*
D937*
X025943Y002599D03*
D938*
X025943Y002599D03*
D939*
X025943Y002600D03*
D940*
X025943Y002601D03*
D941*
X025943Y002602D03*
D942*
X025943Y002603D03*
D943*
X025943Y002603D03*
D944*
X025943Y002604D03*
D945*
X025943Y002605D03*
D946*
X025944Y002606D03*
D947*
X025944Y002607D03*
D948*
X025944Y002607D03*
D949*
X025944Y002608D03*
D950*
X026748Y000923D02*
X026748Y000923D01*
X026749Y000923D01*
X026749Y000921D01*
X026748Y000922D02*
X026749Y000922D01*
X026749Y000923D01*
X026750Y000923D01*
X026750Y000923D01*
X026750Y000923D01*
X026750Y000922D01*
X026750Y000923D01*
X026750Y000923D01*
X026751Y000923D02*
X026751Y000923D01*
X026752Y000923D01*
X026752Y000922D01*
X026752Y000922D01*
X026753Y000922D01*
X026753Y000923D01*
X026754Y000923D01*
X026754Y000923D01*
X026754Y000922D01*
X026754Y000922D01*
X026753Y000922D01*
X026753Y000922D01*
X026753Y000922D01*
X026752Y000922D01*
X026751Y000922D01*
X026751Y000922D01*
X026751Y000923D01*
X026753Y000923D02*
X026753Y000923D01*
X026754Y000923D02*
X026755Y000923D01*
X026755Y000923D01*
X026755Y000922D01*
X026754Y000922D01*
X026754Y000923D01*
X026754Y000922D02*
X026755Y000921D01*
X026755Y000921D01*
X026755Y000922D02*
X026755Y000922D01*
X026756Y000922D02*
X026756Y000923D01*
X026757Y000923D01*
X026757Y000923D01*
X026757Y000922D01*
X026757Y000922D01*
X026756Y000922D01*
X026756Y000922D01*
X026756Y000923D02*
X026756Y000923D01*
X026758Y000923D02*
X026758Y000922D01*
X026757Y000922D01*
X026758Y000922D02*
X026759Y000922D01*
X026760Y000922D02*
X026760Y000922D01*
X026760Y000923D01*
X026760Y000923D01*
X026760Y000924D01*
X026761Y000923D02*
X026761Y000923D01*
X026762Y000923D01*
X026763Y000922D01*
X026764Y000922D02*
X026764Y000923D01*
X026765Y000923D01*
X026766Y000923D01*
X026766Y000923D01*
X026766Y000922D01*
X026765Y000922D01*
X026765Y000922D01*
X026765Y000923D01*
X026765Y000923D01*
X026764Y000923D02*
X026764Y000923D01*
X026764Y000922D02*
X026764Y000922D01*
X026765Y000922D01*
X026766Y000922D02*
X026766Y000922D01*
X026767Y000922D02*
X026767Y000922D01*
X026767Y000922D01*
X026768Y000922D01*
X026769Y000922D01*
X026770Y000923D01*
X026771Y000923D02*
X026772Y000922D01*
X026773Y000922D01*
X026773Y000923D01*
X026772Y000923D01*
X026772Y000923D01*
X026772Y000922D01*
X026773Y000922D01*
X026773Y000922D01*
X026774Y000923D02*
X026774Y000922D01*
X026774Y000923D01*
X026774Y000923D01*
X026774Y000923D01*
X026774Y000923D01*
X026775Y000923D01*
X026776Y000923D01*
X026776Y000923D01*
X026776Y000922D01*
X026776Y000922D01*
X026775Y000922D01*
X026775Y000923D01*
X026775Y000923D01*
X026775Y000922D01*
X026775Y000922D01*
X026776Y000923D02*
X026776Y000922D01*
X026777Y000923D02*
X026776Y000923D01*
X026777Y000923D02*
X026777Y000923D01*
X026778Y000923D01*
X026779Y000922D01*
X026778Y000923D02*
X026778Y000922D01*
X026773Y000923D02*
X026773Y000923D01*
X026770Y000922D02*
X026769Y000923D01*
X026768Y000923D01*
X026768Y000922D01*
X026767Y000922D02*
X026768Y000923D01*
X026767Y000923D01*
X026767Y000923D01*
X026767Y000922D02*
X026767Y000922D01*
X026768Y000923D02*
X026768Y000924D01*
X026762Y000922D02*
X026762Y000922D01*
X026762Y000922D01*
X026761Y000922D01*
X026761Y000923D01*
X026762Y000922D02*
X026761Y000922D01*
X026758Y000923D02*
X026758Y000923D01*
X026748Y000922D02*
X026748Y000922D01*
X026748Y000923D01*
D951*
X019057Y002292D02*
X018470Y002292D01*
X011057Y002292D02*
X010470Y002292D01*
X010764Y002586D02*
X010764Y001999D01*
X010764Y026605D02*
X010764Y027192D01*
X011057Y026899D02*
X010470Y026899D01*
X018470Y026899D02*
X019057Y026899D01*
M02*
